M48
; DRILL file {KiCad 7.0.2} date Fri Nov  3 12:42:45 2023
; FORMAT={-:-/ absolute / inch / decimal}
; #@! TF.CreationDate,2023-11-03T12:42:45-06:00
; #@! TF.GenerationSoftware,Kicad,Pcbnew,7.0.2
; #@! TF.FileFunction,Plated,1,4,PTH
FMAT,2
INCH
; #@! TA.AperFunction,Plated,PTH,ComponentDrill
T1C0.0394
; #@! TA.AperFunction,Plated,PTH,ComponentDrill
T2C0.0433
; #@! TA.AperFunction,Plated,PTH,ComponentDrill
T3C0.1260
; #@! TA.AperFunction,Plated,PTH,ComponentDrill
T4C0.1969
%
G90
G05
T1
X-0.5906Y0.0984
X-0.5906Y-0.0016
X-0.4094Y0.0984
X-0.4094Y-0.0016
X-0.2283Y0.0984
X-0.2283Y-0.0016
X-0.2283Y-0.1016
X-0.2283Y-0.2016
X-0.0472Y0.0984
X-0.0472Y-0.0016
X-0.0472Y-0.1016
X-0.0472Y-0.2016
X0.1339Y0.0984
X0.1339Y-0.0016
X0.1339Y-0.1016
X0.1339Y-0.2016
X0.315Y0.0984
X0.315Y-0.0016
X0.315Y-0.1016
X0.315Y-0.2016
X0.4961Y0.0984
X0.4961Y-0.0016
X0.4961Y-0.1016
X0.4961Y-0.2016
T2
X-0.6543Y2.5063
X-0.5998Y2.6181
X-0.5453Y2.5063
X-0.4907Y2.6181
X-0.4362Y2.5063
X-0.3817Y2.6181
X-0.3272Y2.5063
X-0.2726Y2.6181
X-0.2181Y2.5063
X-0.1636Y2.6181
X-0.1091Y2.5063
X-0.0545Y2.6181
X0.0Y2.5063
X0.0545Y2.6181
X0.1091Y2.5063
X0.1636Y2.6181
X0.2181Y2.5063
X0.2726Y2.6181
X0.3272Y2.5063
X0.3817Y2.6181
X0.4362Y2.5063
X0.4907Y2.6181
X0.5453Y2.5063
X0.5998Y2.6181
X0.6543Y2.5063
T3
X-0.926Y2.5622
X0.926Y2.5622
T4
X-1.5095Y0.6253
X-1.5095Y-0.6253
X-0.6253Y1.5095
X-0.6253Y-1.5095
X0.6253Y1.5095
X0.6253Y-1.5095
X1.5095Y0.6253
X1.5095Y-0.6253
T0
M30
