999
"DXF R12 Output" (www.mydxf.blogspot.com)
 0 
SECTION
 2 
HEADER
 9 
$ACADVER
 1 
AC1009
 9 
$EXTMIN
 10 
 0 
 20 
 0 
 9 
$EXTMAX
 10 
 8.5 
 20 
 11 
 0 
ENDSEC
 0 
SECTION
 2 
ENTITIES
0
LINE
8
Layer 1
10
20.069655
20
279.130184
11
112.673807
21
279.130184
0
LINE
8
Layer 1
10
112.673807
20
279.130184
11
114.229568
21
278.976258
0
LINE
8
Layer 1
10
114.229568
20
278.976258
11
115.711358
21
278.525977
0
LINE
8
Layer 1
10
115.711358
20
278.525977
11
117.077538
21
277.796590
0
LINE
8
Layer 1
10
117.077538
20
277.796590
11
118.286470
21
276.805343
0
LINE
8
Layer 1
10
118.286470
20
276.805343
11
119.277717
21
275.596411
0
LINE
8
Layer 1
10
119.277717
20
275.596411
11
120.007104
21
274.230231
0
LINE
8
Layer 1
10
120.007104
20
274.230231
11
120.457385
21
272.748441
0
LINE
8
Layer 1
10
120.457385
20
272.748441
11
120.611311
21
271.192680
0
LINE
8
Layer 1
10
120.611311
20
271.192680
11
120.611311
21
192.148415
0
LINE
8
Layer 1
10
120.611311
20
192.148415
11
120.457385
21
190.592654
0
LINE
8
Layer 1
10
120.457385
20
190.592654
11
120.007104
21
189.110864
0
LINE
8
Layer 1
10
120.007104
20
189.110864
11
119.277717
21
187.744684
0
LINE
8
Layer 1
10
119.277717
20
187.744684
11
118.286470
21
186.535752
0
LINE
8
Layer 1
10
118.286470
20
186.535752
11
117.077538
21
185.544505
0
LINE
8
Layer 1
10
117.077538
20
185.544505
11
115.711358
21
184.815118
0
LINE
8
Layer 1
10
115.711358
20
184.815118
11
114.229568
21
184.364837
0
LINE
8
Layer 1
10
114.229568
20
184.364837
11
112.673807
21
184.210911
0
LINE
8
Layer 1
10
112.673807
20
184.210911
11
20.069655
21
184.210911
0
LINE
8
Layer 1
10
20.069655
20
184.210911
11
18.513894
21
184.364837
0
LINE
8
Layer 1
10
18.513894
20
184.364837
11
17.032104
21
184.815118
0
LINE
8
Layer 1
10
17.032104
20
184.815118
11
15.665924
21
185.544505
0
LINE
8
Layer 1
10
15.665924
20
185.544505
11
14.456992
21
186.535752
0
LINE
8
Layer 1
10
14.456992
20
186.535752
11
13.465745
21
187.744684
0
LINE
8
Layer 1
10
13.465745
20
187.744684
11
12.736358
21
189.110864
0
LINE
8
Layer 1
10
12.736358
20
189.110864
11
12.286077
21
190.592654
0
LINE
8
Layer 1
10
12.286077
20
190.592654
11
12.132151
21
192.148415
0
LINE
8
Layer 1
10
12.132151
20
192.148415
11
12.132151
21
271.192680
0
LINE
8
Layer 1
10
12.132151
20
271.192680
11
12.286077
21
272.748441
0
LINE
8
Layer 1
10
12.286077
20
272.748441
11
12.736358
21
274.230231
0
LINE
8
Layer 1
10
12.736358
20
274.230231
11
13.465745
21
275.596411
0
LINE
8
Layer 1
10
13.465745
20
275.596411
11
14.456992
21
276.805343
0
LINE
8
Layer 1
10
14.456992
20
276.805343
11
15.665924
21
277.796590
0
LINE
8
Layer 1
10
15.665924
20
277.796590
11
17.032104
21
278.525977
0
LINE
8
Layer 1
10
17.032104
20
278.525977
11
18.513894
21
278.976258
0
LINE
8
Layer 1
10
18.513894
20
278.976258
11
20.069655
21
279.130184
0
LINE
8
Layer 1
10
20.069655
20
279.130184
11
20.069655
21
279.130184
0
LINE
8
Layer 1
10
25.361317
20
271.192674
11
24.585499
21
271.076502
0
LINE
8
Layer 1
10
24.585499
20
271.076502
11
23.891371
21
270.746771
0
LINE
8
Layer 1
10
23.891371
20
270.746771
11
23.321108
21
270.231663
0
LINE
8
Layer 1
10
23.321108
20
270.231663
11
22.916886
21
269.559358
0
LINE
8
Layer 1
10
22.916886
20
269.559358
11
22.727323
21
268.798138
0
LINE
8
Layer 1
10
22.727323
20
268.798138
11
22.766323
21
268.030665
0
LINE
8
Layer 1
10
22.766323
20
268.030665
11
23.023990
21
267.306687
0
LINE
8
Layer 1
10
23.023990
20
267.306687
11
23.490430
21
266.675954
0
LINE
8
Layer 1
10
23.490430
20
266.675954
11
24.121163
21
266.209514
0
LINE
8
Layer 1
10
24.121163
20
266.209514
11
24.845141
21
265.951847
0
LINE
8
Layer 1
10
24.845141
20
265.951847
11
25.612614
21
265.912847
0
LINE
8
Layer 1
10
25.612614
20
265.912847
11
26.373834
21
266.102410
0
LINE
8
Layer 1
10
26.373834
20
266.102410
11
27.046139
21
266.506632
0
LINE
8
Layer 1
10
27.046139
20
266.506632
11
27.561247
21
267.076895
0
LINE
8
Layer 1
10
27.561247
20
267.076895
11
27.890978
21
267.771023
0
LINE
8
Layer 1
10
27.890978
20
267.771023
11
28.007150
21
268.546841
0
LINE
8
Layer 1
10
28.007150
20
268.546841
11
27.805748
21
269.559358
0
LINE
8
Layer 1
10
27.805748
20
269.559358
11
27.232204
21
270.417728
0
LINE
8
Layer 1
10
27.232204
20
270.417728
11
26.373834
21
270.991272
0
LINE
8
Layer 1
10
26.373834
20
270.991272
11
25.361317
21
271.192674
0
LINE
8
Layer 1
10
25.361317
20
271.192674
11
25.361317
21
271.192674
0
LINE
8
Layer 1
10
110.027980
20
271.192674
11
109.252162
21
271.076502
0
LINE
8
Layer 1
10
109.252162
20
271.076502
11
108.558034
21
270.746771
0
LINE
8
Layer 1
10
108.558034
20
270.746771
11
107.987771
21
270.231663
0
LINE
8
Layer 1
10
107.987771
20
270.231663
11
107.583549
21
269.559358
0
LINE
8
Layer 1
10
107.583549
20
269.559358
11
107.393986
21
268.798138
0
LINE
8
Layer 1
10
107.393986
20
268.798138
11
107.432986
21
268.030665
0
LINE
8
Layer 1
10
107.432986
20
268.030665
11
107.690653
21
267.306687
0
LINE
8
Layer 1
10
107.690653
20
267.306687
11
108.157093
21
266.675954
0
LINE
8
Layer 1
10
108.157093
20
266.675954
11
108.787826
21
266.209514
0
LINE
8
Layer 1
10
108.787826
20
266.209514
11
109.511804
21
265.951847
0
LINE
8
Layer 1
10
109.511804
20
265.951847
11
110.279277
21
265.912847
0
LINE
8
Layer 1
10
110.279277
20
265.912847
11
111.040497
21
266.102410
0
LINE
8
Layer 1
10
111.040497
20
266.102410
11
111.712802
21
266.506632
0
LINE
8
Layer 1
10
111.712802
20
266.506632
11
112.227910
21
267.076895
0
LINE
8
Layer 1
10
112.227910
20
267.076895
11
112.557641
21
267.771023
0
LINE
8
Layer 1
10
112.557641
20
267.771023
11
112.673813
21
268.546841
0
LINE
8
Layer 1
10
112.673813
20
268.546841
11
112.472411
21
269.559358
0
LINE
8
Layer 1
10
112.472411
20
269.559358
11
111.898867
21
270.417728
0
LINE
8
Layer 1
10
111.898867
20
270.417728
11
111.040497
21
270.991272
0
LINE
8
Layer 1
10
111.040497
20
270.991272
11
110.027980
21
271.192674
0
LINE
8
Layer 1
10
110.027980
20
271.192674
11
110.027980
21
271.192674
0
LINE
8
Layer 1
10
25.361317
20
194.062883
11
24.585499
21
193.946711
0
LINE
8
Layer 1
10
24.585499
20
193.946711
11
23.891371
21
193.616980
0
LINE
8
Layer 1
10
23.891371
20
193.616980
11
23.321108
21
193.101872
0
LINE
8
Layer 1
10
23.321108
20
193.101872
11
22.916886
21
192.429567
0
LINE
8
Layer 1
10
22.916886
20
192.429567
11
22.727323
21
191.668347
0
LINE
8
Layer 1
10
22.727323
20
191.668347
11
22.766323
21
190.900874
0
LINE
8
Layer 1
10
22.766323
20
190.900874
11
23.023990
21
190.176896
0
LINE
8
Layer 1
10
23.023990
20
190.176896
11
23.490430
21
189.546163
0
LINE
8
Layer 1
10
23.490430
20
189.546163
11
24.121163
21
189.079723
0
LINE
8
Layer 1
10
24.121163
20
189.079723
11
24.845141
21
188.822056
0
LINE
8
Layer 1
10
24.845141
20
188.822056
11
25.612614
21
188.783056
0
LINE
8
Layer 1
10
25.612614
20
188.783056
11
26.373834
21
188.972619
0
LINE
8
Layer 1
10
26.373834
20
188.972619
11
27.046139
21
189.376841
0
LINE
8
Layer 1
10
27.046139
20
189.376841
11
27.561247
21
189.947104
0
LINE
8
Layer 1
10
27.561247
20
189.947104
11
27.890978
21
190.641232
0
LINE
8
Layer 1
10
27.890978
20
190.641232
11
28.007150
21
191.417050
0
LINE
8
Layer 1
10
28.007150
20
191.417050
11
27.805748
21
192.429567
0
LINE
8
Layer 1
10
27.805748
20
192.429567
11
27.232204
21
193.287937
0
LINE
8
Layer 1
10
27.232204
20
193.287937
11
26.373834
21
193.861481
0
LINE
8
Layer 1
10
26.373834
20
193.861481
11
25.361317
21
194.062883
0
LINE
8
Layer 1
10
25.361317
20
194.062883
11
25.361317
21
194.062883
0
LINE
8
Layer 1
10
110.027980
20
194.062883
11
109.252162
21
193.946711
0
LINE
8
Layer 1
10
109.252162
20
193.946711
11
108.558034
21
193.616980
0
LINE
8
Layer 1
10
108.558034
20
193.616980
11
107.987771
21
193.101872
0
LINE
8
Layer 1
10
107.987771
20
193.101872
11
107.583549
21
192.429567
0
LINE
8
Layer 1
10
107.583549
20
192.429567
11
107.393986
21
191.668347
0
LINE
8
Layer 1
10
107.393986
20
191.668347
11
107.432986
21
190.900874
0
LINE
8
Layer 1
10
107.432986
20
190.900874
11
107.690653
21
190.176896
0
LINE
8
Layer 1
10
107.690653
20
190.176896
11
108.157093
21
189.546163
0
LINE
8
Layer 1
10
108.157093
20
189.546163
11
108.787826
21
189.079723
0
LINE
8
Layer 1
10
108.787826
20
189.079723
11
109.511804
21
188.822056
0
LINE
8
Layer 1
10
109.511804
20
188.822056
11
110.279277
21
188.783056
0
LINE
8
Layer 1
10
110.279277
20
188.783056
11
111.040497
21
188.972619
0
LINE
8
Layer 1
10
111.040497
20
188.972619
11
111.712802
21
189.376841
0
LINE
8
Layer 1
10
111.712802
20
189.376841
11
112.227910
21
189.947104
0
LINE
8
Layer 1
10
112.227910
20
189.947104
11
112.557641
21
190.641232
0
LINE
8
Layer 1
10
112.557641
20
190.641232
11
112.673813
21
191.417050
0
LINE
8
Layer 1
10
112.673813
20
191.417050
11
112.472411
21
192.429567
0
LINE
8
Layer 1
10
112.472411
20
192.429567
11
111.898867
21
193.287937
0
LINE
8
Layer 1
10
111.898867
20
193.287937
11
111.040497
21
193.861481
0
LINE
8
Layer 1
10
111.040497
20
193.861481
11
110.027980
21
194.062883
0
LINE
8
Layer 1
10
110.027980
20
194.062883
11
110.027980
21
194.062883
0
LINE
8
Layer 1
10
67.695085
20
267.304144
11
63.952210
21
267.118831
0
LINE
8
Layer 1
10
63.952210
20
267.118831
11
60.272729
21
266.569663
0
LINE
8
Layer 1
10
60.272729
20
266.569663
11
56.681473
21
265.666927
0
LINE
8
Layer 1
10
56.681473
20
265.666927
11
53.203276
21
264.420912
0
LINE
8
Layer 1
10
53.203276
20
264.420912
11
49.862969
21
262.841907
0
LINE
8
Layer 1
10
49.862969
20
262.841907
11
46.685384
21
260.940200
0
LINE
8
Layer 1
10
46.685384
20
260.940200
11
43.695354
21
258.726079
0
LINE
8
Layer 1
10
43.695354
20
258.726079
11
40.917711
21
256.209832
0
LINE
8
Layer 1
10
40.917711
20
256.209832
11
38.402133
21
253.431451
0
LINE
8
Layer 1
10
38.402133
20
253.431451
11
36.188600
21
250.440627
0
LINE
8
Layer 1
10
36.188600
20
250.440627
11
34.287397
21
247.262198
0
LINE
8
Layer 1
10
34.287397
20
247.262198
11
32.708811
21
243.921003
0
LINE
8
Layer 1
10
32.708811
20
243.921003
11
31.463127
21
240.441882
0
LINE
8
Layer 1
10
31.463127
20
240.441882
11
30.560631
21
236.849672
0
LINE
8
Layer 1
10
30.560631
20
236.849672
11
30.011608
21
233.169213
0
LINE
8
Layer 1
10
30.011608
20
233.169213
11
29.826345
21
229.425344
0
LINE
8
Layer 1
10
29.826345
20
229.425344
11
29.923464
21
226.814068
0
LINE
8
Layer 1
10
29.923464
20
226.814068
11
30.197062
21
224.237617
0
LINE
8
Layer 1
10
30.197062
20
224.237617
11
30.642591
21
221.703515
0
LINE
8
Layer 1
10
30.642591
20
221.703515
11
31.255503
21
219.219283
0
LINE
8
Layer 1
10
31.255503
20
219.219283
11
32.031249
21
216.792446
0
LINE
8
Layer 1
10
32.031249
20
216.792446
11
32.965282
21
214.430528
0
LINE
8
Layer 1
10
32.965282
20
214.430528
11
34.053054
21
212.141050
0
LINE
8
Layer 1
10
34.053054
20
212.141050
11
35.290016
21
209.931537
0
LINE
8
Layer 1
10
35.290016
20
209.931537
11
36.671620
21
207.809512
0
LINE
8
Layer 1
10
36.671620
20
207.809512
11
38.193318
21
205.782498
0
LINE
8
Layer 1
10
38.193318
20
205.782498
11
39.850563
21
203.858018
0
LINE
8
Layer 1
10
39.850563
20
203.858018
11
41.638806
21
202.043596
0
LINE
8
Layer 1
10
41.638806
20
202.043596
11
43.553498
21
200.346755
0
LINE
8
Layer 1
10
43.553498
20
200.346755
11
45.590093
21
198.775018
0
LINE
8
Layer 1
10
45.590093
20
198.775018
11
47.744041
21
197.335909
0
LINE
8
Layer 1
10
47.744041
20
197.335909
11
50.010795
21
196.036950
0
LINE
8
Layer 1
10
50.010795
20
196.036950
11
85.378505
21
196.036950
0
LINE
8
Layer 1
10
85.378505
20
196.036950
11
87.645259
21
197.335909
0
LINE
8
Layer 1
10
87.645259
20
197.335909
11
89.799207
21
198.775019
0
LINE
8
Layer 1
10
89.799207
20
198.775019
11
91.835801
21
200.346756
0
LINE
8
Layer 1
10
91.835801
20
200.346756
11
93.750493
21
202.043597
0
LINE
8
Layer 1
10
93.750493
20
202.043597
11
95.538735
21
203.858019
0
LINE
8
Layer 1
10
95.538735
20
203.858019
11
97.195979
21
205.782499
0
LINE
8
Layer 1
10
97.195979
20
205.782499
11
98.717678
21
207.809513
0
LINE
8
Layer 1
10
98.717678
20
207.809513
11
100.099281
21
209.931538
0
LINE
8
Layer 1
10
100.099281
20
209.931538
11
101.336243
21
212.141051
0
LINE
8
Layer 1
10
101.336243
20
212.141051
11
102.424014
21
214.430529
0
LINE
8
Layer 1
10
102.424014
20
214.430529
11
103.358047
21
216.792447
0
LINE
8
Layer 1
10
103.358047
20
216.792447
11
104.133793
21
219.219284
0
LINE
8
Layer 1
10
104.133793
20
219.219284
11
104.746704
21
221.703515
0
LINE
8
Layer 1
10
104.746704
20
221.703515
11
105.192233
21
224.237618
0
LINE
8
Layer 1
10
105.192233
20
224.237618
11
105.465831
21
226.814068
0
LINE
8
Layer 1
10
105.465831
20
226.814068
11
105.562950
21
229.425344
0
LINE
8
Layer 1
10
105.562950
20
229.425344
11
105.377692
21
233.169157
0
LINE
8
Layer 1
10
105.377692
20
233.169157
11
104.828686
21
236.849563
0
LINE
8
Layer 1
10
104.828686
20
236.849563
11
103.926216
21
240.441724
0
LINE
8
Layer 1
10
103.926216
20
240.441724
11
102.680568
21
243.920801
0
LINE
8
Layer 1
10
102.680568
20
243.920801
11
101.102026
21
247.261958
0
LINE
8
Layer 1
10
101.102026
20
247.261958
11
99.200877
21
250.440355
0
LINE
8
Layer 1
10
99.200877
20
250.440355
11
96.987404
21
253.431156
0
LINE
8
Layer 1
10
96.987404
20
253.431156
11
94.471894
21
256.209523
0
LINE
8
Layer 1
10
94.471894
20
256.209523
11
91.694323
21
258.725766
0
LINE
8
Layer 1
10
91.694323
20
258.725766
11
88.704367
21
260.939895
0
LINE
8
Layer 1
10
88.704367
20
260.939895
11
85.526858
21
262.841623
0
LINE
8
Layer 1
10
85.526858
20
262.841623
11
82.186625
21
264.420661
0
LINE
8
Layer 1
10
82.186625
20
264.420661
11
78.708501
21
265.666721
0
LINE
8
Layer 1
10
78.708501
20
265.666721
11
75.117315
21
266.569513
0
LINE
8
Layer 1
10
75.117315
20
266.569513
11
71.437900
21
267.118750
0
LINE
8
Layer 1
10
71.437900
20
267.118750
11
67.695085
21
267.304144
0
LINE
8
Layer 1
10
67.695085
20
267.304144
11
67.695085
21
267.304144
 0 
ENDSEC
 0 
EOF