%TF.GenerationSoftware,KiCad,Pcbnew,7.0.9*%
%TF.CreationDate,2024-08-20T17:43:16-06:00*%
%TF.ProjectId,blank_idealvac,626c616e-6b5f-4696-9465-616c7661632e,rev?*%
%TF.SameCoordinates,Original*%
%TF.FileFunction,Copper,L4,Bot*%
%TF.FilePolarity,Positive*%
%FSLAX46Y46*%
G04 Gerber Fmt 4.6, Leading zero omitted, Abs format (unit mm)*
G04 Created by KiCad (PCBNEW 7.0.9) date 2024-08-20 17:43:16*
%MOMM*%
%LPD*%
G01*
G04 APERTURE LIST*
G04 APERTURE END LIST*
%TA.AperFunction,NonConductor*%
G36*
X180416941Y-51414503D02*
G01*
X180605556Y-51419795D01*
X180608761Y-51419970D01*
X181026513Y-51453987D01*
X181319667Y-51478715D01*
X181322776Y-51479058D01*
X181716901Y-51532757D01*
X182029430Y-51576879D01*
X182032372Y-51577368D01*
X182374565Y-51643029D01*
X182414237Y-51650642D01*
X182433058Y-51654385D01*
X182732702Y-51713988D01*
X182735476Y-51714609D01*
X183108161Y-51807292D01*
X183427274Y-51889608D01*
X183429937Y-51890360D01*
X183794157Y-52002193D01*
X183991826Y-52065196D01*
X184112379Y-52103621D01*
X184233328Y-52148054D01*
X184469332Y-52234758D01*
X184663239Y-52308776D01*
X184783317Y-52354613D01*
X184855497Y-52385662D01*
X185131304Y-52504306D01*
X185439389Y-52642165D01*
X185654680Y-52748940D01*
X185777750Y-52809977D01*
X186078602Y-52965400D01*
X186406667Y-53150881D01*
X186406692Y-53150895D01*
X186589176Y-53258539D01*
X186698985Y-53323314D01*
X187016122Y-53526024D01*
X187298711Y-53714844D01*
X187604064Y-53934178D01*
X187875943Y-54138789D01*
X188168715Y-54374126D01*
X188428895Y-54593828D01*
X188708410Y-54844592D01*
X188955914Y-55078587D01*
X189221412Y-55344085D01*
X189455407Y-55591589D01*
X189706171Y-55871104D01*
X189925873Y-56131284D01*
X190161210Y-56424056D01*
X190365825Y-56695941D01*
X190493060Y-56873075D01*
X190585155Y-57001288D01*
X190773975Y-57283877D01*
X190976685Y-57601014D01*
X191149094Y-57893289D01*
X191334599Y-58221398D01*
X191490021Y-58522247D01*
X191657834Y-58860610D01*
X191795706Y-59168723D01*
X191945386Y-59516682D01*
X192065247Y-59830683D01*
X192196378Y-60187620D01*
X192297819Y-60505885D01*
X192409629Y-60870032D01*
X192410395Y-60872744D01*
X192492724Y-61191903D01*
X192585384Y-61564501D01*
X192586026Y-61567369D01*
X192649357Y-61885762D01*
X192722623Y-62267588D01*
X192723125Y-62270604D01*
X192767242Y-62583098D01*
X192820939Y-62977220D01*
X192821288Y-62980379D01*
X192846032Y-63273731D01*
X192880025Y-63691195D01*
X192880205Y-63694489D01*
X192885496Y-63883076D01*
X192899500Y-64400000D01*
X192899500Y-216400000D01*
X192885496Y-216916923D01*
X192880205Y-217105509D01*
X192880025Y-217108803D01*
X192846032Y-217526268D01*
X192821288Y-217819619D01*
X192820939Y-217822778D01*
X192767242Y-218216901D01*
X192723125Y-218529394D01*
X192722623Y-218532410D01*
X192649357Y-218914237D01*
X192586026Y-219232629D01*
X192585384Y-219235497D01*
X192492724Y-219608096D01*
X192410394Y-219927254D01*
X192409629Y-219929966D01*
X192297819Y-220294114D01*
X192196378Y-220612379D01*
X192065247Y-220969316D01*
X191945386Y-221283317D01*
X191795706Y-221631276D01*
X191657834Y-221939389D01*
X191490021Y-222277752D01*
X191334599Y-222578601D01*
X191149094Y-222906710D01*
X190976685Y-223198985D01*
X190773975Y-223516122D01*
X190585155Y-223798711D01*
X190365834Y-224104046D01*
X190161210Y-224375943D01*
X189925873Y-224668715D01*
X189706171Y-224928895D01*
X189455407Y-225208410D01*
X189221412Y-225455914D01*
X188955914Y-225721412D01*
X188708410Y-225955407D01*
X188428895Y-226206171D01*
X188168715Y-226425873D01*
X187875943Y-226661210D01*
X187604046Y-226865834D01*
X187298711Y-227085155D01*
X187016122Y-227273975D01*
X186698985Y-227476685D01*
X186406710Y-227649094D01*
X186078601Y-227834599D01*
X185777752Y-227990021D01*
X185439389Y-228157834D01*
X185131276Y-228295706D01*
X184783317Y-228445386D01*
X184469316Y-228565247D01*
X184112379Y-228696378D01*
X183794114Y-228797819D01*
X183429966Y-228909629D01*
X183427254Y-228910394D01*
X183108096Y-228992724D01*
X182735497Y-229085384D01*
X182732629Y-229086026D01*
X182414237Y-229149357D01*
X182032410Y-229222623D01*
X182029394Y-229223125D01*
X181716901Y-229267242D01*
X181322778Y-229320939D01*
X181319619Y-229321288D01*
X181026268Y-229346032D01*
X180608803Y-229380025D01*
X180605509Y-229380205D01*
X180416923Y-229385496D01*
X179900000Y-229399500D01*
X27900000Y-229399500D01*
X27383076Y-229385496D01*
X27194489Y-229380205D01*
X27191195Y-229380025D01*
X26773731Y-229346032D01*
X26480379Y-229321288D01*
X26477220Y-229320939D01*
X26083098Y-229267242D01*
X25770604Y-229223125D01*
X25767588Y-229222623D01*
X25385762Y-229149357D01*
X25133311Y-229099142D01*
X25067359Y-229086023D01*
X25064501Y-229085384D01*
X24691903Y-228992724D01*
X24372744Y-228910395D01*
X24370032Y-228909629D01*
X24005885Y-228797819D01*
X23687620Y-228696378D01*
X23330683Y-228565247D01*
X23016682Y-228445386D01*
X22668723Y-228295706D01*
X22360610Y-228157834D01*
X22022247Y-227990021D01*
X21721398Y-227834599D01*
X21393289Y-227649094D01*
X21101014Y-227476685D01*
X20783877Y-227273975D01*
X20501288Y-227085155D01*
X20195965Y-226865842D01*
X19924056Y-226661210D01*
X19631284Y-226425873D01*
X19371104Y-226206171D01*
X19091589Y-225955407D01*
X18844085Y-225721412D01*
X18578587Y-225455914D01*
X18344592Y-225208410D01*
X18093828Y-224928895D01*
X17874126Y-224668715D01*
X17638789Y-224375943D01*
X17434178Y-224104064D01*
X17214844Y-223798711D01*
X17026024Y-223516122D01*
X16823314Y-223198985D01*
X16650905Y-222906710D01*
X16465400Y-222578601D01*
X16309978Y-222277752D01*
X16142165Y-221939389D01*
X16004306Y-221631304D01*
X15854613Y-221283317D01*
X15734752Y-220969316D01*
X15603621Y-220612379D01*
X15565196Y-220491826D01*
X15502180Y-220294114D01*
X15390360Y-219929937D01*
X15389608Y-219927274D01*
X15307292Y-219608161D01*
X15214609Y-219235476D01*
X15213988Y-219232702D01*
X15150642Y-218914237D01*
X15138466Y-218850782D01*
X15077368Y-218532372D01*
X15076879Y-218529430D01*
X15032751Y-218216857D01*
X14979059Y-217822778D01*
X14978715Y-217819667D01*
X14953967Y-217526268D01*
X14919970Y-217108761D01*
X14919795Y-217105556D01*
X14914499Y-216916775D01*
X14900500Y-216400000D01*
X14900500Y-204026614D01*
X34033024Y-204026614D01*
X34063210Y-204532072D01*
X34063211Y-204532077D01*
X34133459Y-205033530D01*
X34188637Y-205281772D01*
X34243329Y-205527827D01*
X34318181Y-205771310D01*
X34392124Y-206011835D01*
X34578899Y-206482480D01*
X34802478Y-206936802D01*
X34802478Y-206936803D01*
X35061446Y-207371924D01*
X35061449Y-207371928D01*
X35354170Y-207785102D01*
X35519176Y-207982633D01*
X35678796Y-208173715D01*
X36033270Y-208535309D01*
X36228666Y-208705239D01*
X36415344Y-208867588D01*
X36822616Y-209168466D01*
X36822621Y-209168469D01*
X37252505Y-209436036D01*
X37252506Y-209436037D01*
X37702294Y-209668604D01*
X38169132Y-209864700D01*
X38169137Y-209864701D01*
X38169138Y-209864702D01*
X38650087Y-210023089D01*
X38783071Y-210055435D01*
X39142096Y-210142764D01*
X39642064Y-210222970D01*
X40146820Y-210263200D01*
X40146821Y-210263200D01*
X40526546Y-210263200D01*
X40905957Y-210248104D01*
X41157336Y-210217971D01*
X41408718Y-210187838D01*
X41408717Y-210187838D01*
X41905092Y-210087820D01*
X41905091Y-210087820D01*
X41905097Y-210087819D01*
X42391957Y-209948679D01*
X42391957Y-209948680D01*
X42616495Y-209864700D01*
X42866234Y-209771295D01*
X43324913Y-209556792D01*
X43765100Y-209306526D01*
X44184012Y-209022077D01*
X44579000Y-208705245D01*
X44579002Y-208705242D01*
X44579007Y-208705239D01*
X44947569Y-208358030D01*
X44947569Y-208358029D01*
X45287383Y-207982635D01*
X45596299Y-207581426D01*
X45872362Y-207156941D01*
X46113828Y-206711865D01*
X46319169Y-206249012D01*
X46487087Y-205771308D01*
X46616520Y-205281772D01*
X46706651Y-204783502D01*
X46756909Y-204279643D01*
X46761941Y-204026614D01*
X161033024Y-204026614D01*
X161063210Y-204532072D01*
X161063211Y-204532077D01*
X161133459Y-205033530D01*
X161188637Y-205281772D01*
X161243329Y-205527827D01*
X161318181Y-205771310D01*
X161392124Y-206011835D01*
X161578899Y-206482480D01*
X161802478Y-206936802D01*
X161802478Y-206936803D01*
X162061446Y-207371924D01*
X162061449Y-207371928D01*
X162354170Y-207785102D01*
X162519176Y-207982633D01*
X162678796Y-208173715D01*
X163033270Y-208535309D01*
X163228666Y-208705239D01*
X163415344Y-208867588D01*
X163822616Y-209168466D01*
X163822621Y-209168469D01*
X164252505Y-209436036D01*
X164252506Y-209436037D01*
X164702294Y-209668604D01*
X165169132Y-209864700D01*
X165169137Y-209864701D01*
X165169138Y-209864702D01*
X165650087Y-210023089D01*
X165783071Y-210055435D01*
X166142096Y-210142764D01*
X166642064Y-210222970D01*
X167146820Y-210263200D01*
X167146821Y-210263200D01*
X167526546Y-210263200D01*
X167905957Y-210248104D01*
X168157336Y-210217971D01*
X168408718Y-210187838D01*
X168408717Y-210187838D01*
X168905092Y-210087820D01*
X168905091Y-210087820D01*
X168905097Y-210087819D01*
X169391957Y-209948679D01*
X169391957Y-209948680D01*
X169616495Y-209864700D01*
X169866234Y-209771295D01*
X170324913Y-209556792D01*
X170765100Y-209306526D01*
X171184012Y-209022077D01*
X171579000Y-208705245D01*
X171579002Y-208705242D01*
X171579007Y-208705239D01*
X171947569Y-208358030D01*
X171947569Y-208358029D01*
X172287383Y-207982635D01*
X172596299Y-207581426D01*
X172872362Y-207156941D01*
X173113828Y-206711865D01*
X173319169Y-206249012D01*
X173487087Y-205771308D01*
X173616520Y-205281772D01*
X173706651Y-204783502D01*
X173756909Y-204279643D01*
X173766976Y-203773398D01*
X173766975Y-203773395D01*
X173766976Y-203773386D01*
X173736790Y-203267928D01*
X173701567Y-203016498D01*
X173666541Y-202766470D01*
X173556672Y-202272178D01*
X173556672Y-202272177D01*
X173481819Y-202028692D01*
X173407878Y-201788171D01*
X173221101Y-201317519D01*
X172997522Y-200863198D01*
X172997522Y-200863197D01*
X172738554Y-200428076D01*
X172445830Y-200014898D01*
X172121207Y-199626288D01*
X171766736Y-199264697D01*
X171766735Y-199264696D01*
X171766730Y-199264691D01*
X171570341Y-199093897D01*
X171384656Y-198932412D01*
X170977384Y-198631534D01*
X170547495Y-198363964D01*
X170547494Y-198363963D01*
X170097706Y-198131396D01*
X169630868Y-197935300D01*
X169149916Y-197776912D01*
X169149913Y-197776911D01*
X169016929Y-197744564D01*
X168657904Y-197657236D01*
X168157936Y-197577030D01*
X167653180Y-197536800D01*
X167653179Y-197536800D01*
X167273454Y-197536800D01*
X166894043Y-197551896D01*
X166684367Y-197577030D01*
X166391282Y-197612162D01*
X166391283Y-197612162D01*
X165912679Y-197708599D01*
X165894903Y-197712181D01*
X165408043Y-197851320D01*
X165408038Y-197851322D01*
X164933766Y-198028705D01*
X164475087Y-198243208D01*
X164034900Y-198493474D01*
X163615988Y-198777923D01*
X163423390Y-198932412D01*
X163220993Y-199094761D01*
X163040606Y-199264697D01*
X162852433Y-199441968D01*
X162512617Y-199817365D01*
X162203701Y-200218574D01*
X161927638Y-200643059D01*
X161686172Y-201088135D01*
X161480831Y-201550988D01*
X161312913Y-202028692D01*
X161183480Y-202518228D01*
X161093349Y-203016498D01*
X161068270Y-203267923D01*
X161043091Y-203520357D01*
X161033024Y-204026614D01*
X46761941Y-204026614D01*
X46766976Y-203773398D01*
X46766975Y-203773395D01*
X46766976Y-203773386D01*
X46736790Y-203267928D01*
X46701567Y-203016498D01*
X46666541Y-202766470D01*
X46556672Y-202272178D01*
X46556672Y-202272177D01*
X46481819Y-202028692D01*
X46407878Y-201788171D01*
X46221101Y-201317519D01*
X45997522Y-200863198D01*
X45997522Y-200863197D01*
X45738554Y-200428076D01*
X45445830Y-200014898D01*
X45121207Y-199626288D01*
X44766736Y-199264697D01*
X44766735Y-199264696D01*
X44766730Y-199264691D01*
X44570341Y-199093897D01*
X44384656Y-198932412D01*
X43977384Y-198631534D01*
X43547495Y-198363964D01*
X43547494Y-198363963D01*
X43097706Y-198131396D01*
X42630868Y-197935300D01*
X42149916Y-197776912D01*
X42149913Y-197776911D01*
X42016929Y-197744564D01*
X41657904Y-197657236D01*
X41157936Y-197577030D01*
X40653180Y-197536800D01*
X40653179Y-197536800D01*
X40273454Y-197536800D01*
X39894043Y-197551896D01*
X39684367Y-197577030D01*
X39391282Y-197612162D01*
X39391283Y-197612162D01*
X38912679Y-197708599D01*
X38894903Y-197712181D01*
X38408043Y-197851320D01*
X38408038Y-197851322D01*
X37933766Y-198028705D01*
X37475087Y-198243208D01*
X37034900Y-198493474D01*
X36615988Y-198777923D01*
X36423390Y-198932412D01*
X36220993Y-199094761D01*
X36040606Y-199264697D01*
X35852433Y-199441968D01*
X35512617Y-199817365D01*
X35203701Y-200218574D01*
X34927638Y-200643059D01*
X34686172Y-201088135D01*
X34480831Y-201550988D01*
X34312913Y-202028692D01*
X34183480Y-202518228D01*
X34093349Y-203016498D01*
X34068270Y-203267923D01*
X34043091Y-203520357D01*
X34033024Y-204026614D01*
X14900500Y-204026614D01*
X14900500Y-161429570D01*
X83930384Y-161429570D01*
X83930386Y-161429631D01*
X83945534Y-161444625D01*
X83947700Y-161446025D01*
X84298148Y-161778789D01*
X84676664Y-162113864D01*
X84739639Y-162169611D01*
X84775518Y-162202451D01*
X84778822Y-162204297D01*
X85056859Y-162450425D01*
X85446785Y-162772023D01*
X85560612Y-162865903D01*
X85570847Y-162874603D01*
X85571669Y-162875024D01*
X85838567Y-163095151D01*
X86642319Y-163712178D01*
X87467131Y-164300754D01*
X88138333Y-164745172D01*
X88312000Y-164860161D01*
X89175893Y-165389716D01*
X90057756Y-165888772D01*
X90956512Y-166356720D01*
X91871065Y-166792990D01*
X92800299Y-167197049D01*
X93743079Y-167568404D01*
X94698255Y-167906601D01*
X95664661Y-168211228D01*
X96641118Y-168481913D01*
X97626434Y-168718326D01*
X98619407Y-168920178D01*
X99618824Y-169087223D01*
X100623466Y-169219256D01*
X100967818Y-169252324D01*
X100968483Y-169252591D01*
X100982064Y-169253693D01*
X101632107Y-169316118D01*
X102002745Y-169338681D01*
X102005489Y-169339671D01*
X102054964Y-169341860D01*
X102643516Y-169377689D01*
X103126763Y-169390197D01*
X103130065Y-169390902D01*
X103149996Y-169390839D01*
X103150000Y-169390841D01*
X103150003Y-169390839D01*
X103150460Y-169390838D01*
X103150500Y-169390801D01*
X103150500Y-169390314D01*
X103151449Y-169353782D01*
X103150819Y-169346048D01*
X104648349Y-169346048D01*
X104649500Y-169390314D01*
X104649500Y-169390800D01*
X104649512Y-169390812D01*
X104649513Y-169390813D01*
X104649513Y-169390812D01*
X104649543Y-169390841D01*
X104670340Y-169390843D01*
X104673358Y-169390195D01*
X105156484Y-169377690D01*
X105745140Y-169341854D01*
X105793651Y-169339708D01*
X105797285Y-169338680D01*
X106167893Y-169316119D01*
X106817954Y-169253692D01*
X106831292Y-169252610D01*
X106832180Y-169252325D01*
X107176534Y-169219257D01*
X108181176Y-169087224D01*
X109180593Y-168920179D01*
X110173566Y-168718327D01*
X111158882Y-168481914D01*
X112135339Y-168211229D01*
X113101745Y-167906602D01*
X114056921Y-167568405D01*
X114999702Y-167197050D01*
X115928935Y-166792991D01*
X116843488Y-166356721D01*
X117742245Y-165888773D01*
X118624107Y-165389716D01*
X119488000Y-164860162D01*
X120332869Y-164300755D01*
X121157682Y-163712179D01*
X121961433Y-163095151D01*
X122228297Y-162875050D01*
X122228956Y-162874769D01*
X122239294Y-162865981D01*
X122274752Y-162836737D01*
X122743142Y-162450426D01*
X123021159Y-162204315D01*
X123023798Y-162203076D01*
X123060304Y-162169663D01*
X123123339Y-162113863D01*
X123501853Y-161778789D01*
X123852539Y-161445798D01*
X123855187Y-161444077D01*
X123869287Y-161429951D01*
X123869290Y-161429950D01*
X123869290Y-161429947D01*
X123869613Y-161429625D01*
X123869614Y-161429586D01*
X123869615Y-161429586D01*
X123869614Y-161429585D01*
X123869615Y-161429568D01*
X123869267Y-161429220D01*
X123869248Y-161429200D01*
X123868926Y-161428861D01*
X123845261Y-161403958D01*
X123836036Y-161395989D01*
X123485657Y-161045610D01*
X122808217Y-160368169D01*
X122807892Y-160367826D01*
X122807891Y-160367826D01*
X122807890Y-160367825D01*
X122807815Y-160367823D01*
X122806848Y-160368789D01*
X122422817Y-160719340D01*
X122055407Y-161054071D01*
X121650625Y-161397310D01*
X121267926Y-161719929D01*
X120851389Y-162047746D01*
X120456079Y-162355791D01*
X120028065Y-162668008D01*
X119620970Y-162960789D01*
X119182003Y-163257049D01*
X118763795Y-163534060D01*
X118314391Y-163814026D01*
X117885760Y-164074799D01*
X117426459Y-164338140D01*
X116988102Y-164582244D01*
X116519526Y-164828610D01*
X116072047Y-165055706D01*
X115594822Y-165284770D01*
X115138937Y-165494491D01*
X114653650Y-165705972D01*
X114190054Y-165898000D01*
X113697343Y-166091619D01*
X113226721Y-166265671D01*
X112727260Y-166441161D01*
X112250297Y-166596984D01*
X111744749Y-166754113D01*
X111262157Y-166891476D01*
X110751186Y-167030036D01*
X110263734Y-167148723D01*
X109747934Y-167268547D01*
X109256425Y-167368370D01*
X108736472Y-167469293D01*
X108241590Y-167550125D01*
X107718190Y-167632002D01*
X107220804Y-167693713D01*
X106694474Y-167756447D01*
X106195798Y-167798924D01*
X105666825Y-167842444D01*
X105170607Y-167865540D01*
X104652306Y-167889163D01*
X104649545Y-167889222D01*
X104649486Y-167889284D01*
X104649500Y-167889766D01*
X104649500Y-169342130D01*
X104648349Y-169346048D01*
X103150819Y-169346048D01*
X103150500Y-169342130D01*
X103150500Y-167889766D01*
X103150513Y-167889285D01*
X103150511Y-167889284D01*
X103150461Y-167889231D01*
X103150000Y-167889230D01*
X103149999Y-167889230D01*
X103149077Y-167889228D01*
X103031804Y-167883882D01*
X102630519Y-167865592D01*
X102133146Y-167842443D01*
X101604705Y-167798966D01*
X101105469Y-167756441D01*
X100579489Y-167693749D01*
X100081777Y-167631997D01*
X99558580Y-167550152D01*
X99063491Y-167469287D01*
X98543728Y-167368401D01*
X98052006Y-167268534D01*
X97536386Y-167148752D01*
X97048770Y-167030025D01*
X96537979Y-166891514D01*
X96055164Y-166754088D01*
X95549815Y-166597020D01*
X95072690Y-166441145D01*
X94573347Y-166265696D01*
X94102580Y-166091590D01*
X93610039Y-165898038D01*
X93146252Y-165705931D01*
X92661149Y-165494530D01*
X92339253Y-165346448D01*
X92205073Y-165284721D01*
X91728013Y-165055737D01*
X91280353Y-164828549D01*
X90811975Y-164582287D01*
X90373413Y-164338069D01*
X89914289Y-164074828D01*
X89485480Y-163813947D01*
X89036255Y-163534093D01*
X88617837Y-163256942D01*
X88179074Y-162960821D01*
X88059778Y-162875024D01*
X88006543Y-162836737D01*
X87771710Y-162667846D01*
X87473650Y-162450425D01*
X87343970Y-162355829D01*
X87149511Y-162204297D01*
X86948295Y-162047499D01*
X86532109Y-161719959D01*
X86148984Y-161396980D01*
X85744621Y-161054096D01*
X85376135Y-160718385D01*
X84994159Y-160369711D01*
X84992184Y-160367824D01*
X84992106Y-160367826D01*
X84991763Y-160368188D01*
X83966796Y-161393154D01*
X83963280Y-161395073D01*
X83931074Y-161428861D01*
X83931067Y-161428869D01*
X83930751Y-161429200D01*
X83930384Y-161429570D01*
X14900500Y-161429570D01*
X14900500Y-141149545D01*
X74909157Y-141149545D01*
X74909166Y-141169876D01*
X74909790Y-141172841D01*
X74909806Y-141173448D01*
X74922310Y-141656484D01*
X74983881Y-142667893D01*
X75080743Y-143676534D01*
X75212776Y-144681176D01*
X75379821Y-145680593D01*
X75581673Y-146673566D01*
X75818086Y-147658882D01*
X76088771Y-148635339D01*
X76393398Y-149601745D01*
X76731595Y-150556921D01*
X77102950Y-151499702D01*
X77507009Y-152428935D01*
X77943279Y-153343488D01*
X78411227Y-154242245D01*
X78910284Y-155124107D01*
X79439838Y-155988000D01*
X79999245Y-156832869D01*
X80369479Y-157351704D01*
X80587821Y-157657682D01*
X81204849Y-158461433D01*
X81424947Y-158728295D01*
X81425230Y-158728957D01*
X81434080Y-158739369D01*
X81849574Y-159243142D01*
X82095671Y-159521145D01*
X82096909Y-159523783D01*
X82130338Y-159560307D01*
X82521211Y-160001853D01*
X82854457Y-160352810D01*
X82856299Y-160355624D01*
X82870373Y-160369614D01*
X82870413Y-160369614D01*
X82870414Y-160369615D01*
X82870414Y-160369614D01*
X82870435Y-160369615D01*
X82870797Y-160369250D01*
X82899945Y-160341631D01*
X82906763Y-160333283D01*
X83931811Y-159308235D01*
X83932174Y-159307892D01*
X83932173Y-159307891D01*
X83932174Y-159307891D01*
X83932176Y-159307820D01*
X83932167Y-159307811D01*
X123867823Y-159307811D01*
X123867825Y-159307892D01*
X123868168Y-159308217D01*
X124895989Y-160336036D01*
X124897864Y-160339471D01*
X124928861Y-160368925D01*
X124928861Y-160368926D01*
X124929130Y-160369182D01*
X124929220Y-160369267D01*
X124929568Y-160369615D01*
X124929585Y-160369614D01*
X124929586Y-160369615D01*
X124929586Y-160369614D01*
X124929624Y-160369613D01*
X124929946Y-160369291D01*
X124929950Y-160369290D01*
X124929951Y-160369286D01*
X124943981Y-160355301D01*
X124945740Y-160352600D01*
X124956156Y-160341631D01*
X125278789Y-160001852D01*
X125669659Y-159560307D01*
X125702448Y-159524483D01*
X125704296Y-159521178D01*
X125950425Y-159243141D01*
X126365987Y-158739286D01*
X126374598Y-158729158D01*
X126375025Y-158728328D01*
X126595151Y-158461433D01*
X127212178Y-157657681D01*
X127800754Y-156832869D01*
X128360161Y-155988000D01*
X128889716Y-155124107D01*
X129388772Y-154242244D01*
X129856720Y-153343488D01*
X130292990Y-152428935D01*
X130697049Y-151499701D01*
X131068404Y-150556921D01*
X131406601Y-149601745D01*
X131711228Y-148635339D01*
X131981913Y-147658882D01*
X132218326Y-146673566D01*
X132420178Y-145680593D01*
X132587223Y-144681176D01*
X132719256Y-143676534D01*
X132816118Y-142667893D01*
X132877689Y-141656484D01*
X132877796Y-141652348D01*
X132890191Y-141173443D01*
X132890830Y-141170481D01*
X132890839Y-141150002D01*
X132890841Y-141150000D01*
X132890839Y-141149997D01*
X132890840Y-141149542D01*
X132890812Y-141149513D01*
X132890813Y-141149513D01*
X132890812Y-141149512D01*
X132890800Y-141149500D01*
X132890399Y-141149500D01*
X132890313Y-141149500D01*
X132889813Y-141149487D01*
X132849811Y-141148446D01*
X132839378Y-141149500D01*
X131389766Y-141149500D01*
X131389284Y-141149486D01*
X131389224Y-141149543D01*
X131389164Y-141152319D01*
X131365591Y-141669502D01*
X131342443Y-142166853D01*
X131298966Y-142695294D01*
X131256441Y-143194530D01*
X131193749Y-143720510D01*
X131131997Y-144218222D01*
X131050152Y-144741419D01*
X130969287Y-145236508D01*
X130868401Y-145756271D01*
X130768534Y-146247993D01*
X130648752Y-146763613D01*
X130530025Y-147251229D01*
X130391514Y-147762020D01*
X130254088Y-148244835D01*
X130097020Y-148750184D01*
X129941145Y-149227309D01*
X129765696Y-149726652D01*
X129591590Y-150197419D01*
X129398038Y-150689960D01*
X129205931Y-151153747D01*
X128994530Y-151638850D01*
X128784729Y-152094911D01*
X128555737Y-152571986D01*
X128328549Y-153019646D01*
X128082287Y-153488024D01*
X127838069Y-153926586D01*
X127574828Y-154385710D01*
X127313947Y-154814519D01*
X127034093Y-155263744D01*
X126756942Y-155682162D01*
X126460821Y-156120925D01*
X126167846Y-156528289D01*
X125855832Y-156956025D01*
X125547499Y-157351704D01*
X125219959Y-157767890D01*
X124896980Y-158151015D01*
X124554096Y-158555378D01*
X124218591Y-158923638D01*
X123869741Y-159305805D01*
X123867823Y-159307811D01*
X83932167Y-159307811D01*
X83931168Y-159306802D01*
X83581120Y-158923322D01*
X83245915Y-158555391D01*
X83126464Y-158414522D01*
X82902839Y-158150801D01*
X82580056Y-157767909D01*
X82252355Y-157351518D01*
X81944194Y-156956058D01*
X81632062Y-156528163D01*
X81339195Y-156120947D01*
X81043004Y-155682082D01*
X80787160Y-155295831D01*
X80765923Y-155263770D01*
X80486010Y-154814450D01*
X80225189Y-154385740D01*
X80050455Y-154080983D01*
X79961871Y-153926481D01*
X79717739Y-153488073D01*
X79717713Y-153488024D01*
X79471402Y-153019553D01*
X79244297Y-152572056D01*
X79015228Y-152094820D01*
X78805496Y-151638910D01*
X78594043Y-151153688D01*
X78401992Y-150690037D01*
X78208390Y-150197369D01*
X78034316Y-149726687D01*
X77858837Y-149227256D01*
X77703001Y-148750253D01*
X77545898Y-148244787D01*
X77408503Y-147762083D01*
X77269973Y-147251222D01*
X77151248Y-146763613D01*
X77031456Y-146247949D01*
X76931629Y-145756424D01*
X76830706Y-145236472D01*
X76749861Y-144741505D01*
X76735699Y-144650971D01*
X76668001Y-144218213D01*
X76606273Y-143720695D01*
X76543555Y-143194495D01*
X76501085Y-142695913D01*
X76457554Y-142166824D01*
X76434436Y-141670109D01*
X76410835Y-141152302D01*
X76410777Y-141149545D01*
X76410715Y-141149486D01*
X76410234Y-141149500D01*
X74960622Y-141149500D01*
X74956477Y-141148283D01*
X74909687Y-141149500D01*
X74909200Y-141149500D01*
X74909187Y-141149512D01*
X74909187Y-141149513D01*
X74909157Y-141149545D01*
X14900500Y-141149545D01*
X14900500Y-139630502D01*
X74909111Y-139630502D01*
X74909159Y-139650458D01*
X74909199Y-139650500D01*
X74909601Y-139650500D01*
X74909687Y-139650500D01*
X74950188Y-139651553D01*
X74960622Y-139650500D01*
X76410234Y-139650500D01*
X76410715Y-139650513D01*
X76410715Y-139650511D01*
X76410769Y-139650461D01*
X76410770Y-139649077D01*
X76434400Y-139130662D01*
X76457554Y-138633171D01*
X76501045Y-138104553D01*
X76543556Y-137605481D01*
X76606264Y-137079373D01*
X76667997Y-136581806D01*
X76749852Y-136058546D01*
X76749875Y-136058409D01*
X76830710Y-135563500D01*
X76931606Y-135043686D01*
X77031459Y-134552033D01*
X77151264Y-134036317D01*
X77269967Y-133548797D01*
X77408490Y-133037959D01*
X77545887Y-132555250D01*
X77545908Y-132555175D01*
X77702982Y-132049804D01*
X77703016Y-132049702D01*
X77858844Y-131572720D01*
X78034316Y-131073311D01*
X78208396Y-130602612D01*
X78401976Y-130110000D01*
X78594052Y-129646289D01*
X78805474Y-129161136D01*
X78805509Y-129161062D01*
X79015266Y-128705098D01*
X79244271Y-128227993D01*
X79471431Y-127780388D01*
X79717729Y-127311943D01*
X79961893Y-126873477D01*
X80225187Y-126414262D01*
X80486044Y-125985492D01*
X80765919Y-125536234D01*
X81043037Y-125117866D01*
X81339190Y-124679057D01*
X81632071Y-124271822D01*
X81944191Y-123843942D01*
X82252400Y-123448421D01*
X82580069Y-123032073D01*
X82902714Y-122649344D01*
X83245910Y-122244613D01*
X83581472Y-121876290D01*
X83931207Y-121493151D01*
X83931843Y-121492511D01*
X83931849Y-121492509D01*
X83931851Y-121492503D01*
X83932162Y-121492191D01*
X123867823Y-121492191D01*
X123869752Y-121494205D01*
X124219112Y-121876932D01*
X124554070Y-122244591D01*
X124896827Y-122648805D01*
X124897310Y-122649374D01*
X125219929Y-123032073D01*
X125547746Y-123448610D01*
X125855795Y-123843926D01*
X125912365Y-123921478D01*
X126168008Y-124271934D01*
X126460789Y-124679029D01*
X126757049Y-125117996D01*
X127034060Y-125536204D01*
X127314026Y-125985608D01*
X127574790Y-126414225D01*
X127657084Y-126557755D01*
X127838140Y-126873540D01*
X128082244Y-127311897D01*
X128328610Y-127780473D01*
X128555706Y-128227952D01*
X128784770Y-128705177D01*
X128994491Y-129161062D01*
X129205972Y-129646349D01*
X129398000Y-130109945D01*
X129591619Y-130602656D01*
X129765666Y-131073264D01*
X129809583Y-131198255D01*
X129941161Y-131572739D01*
X130096984Y-132049702D01*
X130254113Y-132555250D01*
X130391476Y-133037842D01*
X130530036Y-133548813D01*
X130648723Y-134036265D01*
X130768547Y-134552065D01*
X130868370Y-135043574D01*
X130969293Y-135563527D01*
X131050125Y-136058409D01*
X131132002Y-136581809D01*
X131193713Y-137079195D01*
X131256447Y-137605525D01*
X131298924Y-138104201D01*
X131342444Y-138633174D01*
X131365541Y-139129414D01*
X131389229Y-139649124D01*
X131389230Y-139650460D01*
X131389285Y-139650512D01*
X131389285Y-139650513D01*
X131389766Y-139650500D01*
X132839378Y-139650500D01*
X132843522Y-139651716D01*
X132890313Y-139650500D01*
X132890801Y-139650500D01*
X132890838Y-139650460D01*
X132890839Y-139650002D01*
X132890841Y-139650000D01*
X132890839Y-139649997D01*
X132890915Y-139630210D01*
X132890200Y-139626851D01*
X132877690Y-139143516D01*
X132816119Y-138132107D01*
X132719257Y-137123466D01*
X132587224Y-136118824D01*
X132420179Y-135119407D01*
X132218327Y-134126434D01*
X131981914Y-133141118D01*
X131711229Y-132164661D01*
X131406602Y-131198255D01*
X131068405Y-130243079D01*
X130697050Y-129300298D01*
X130292991Y-128371065D01*
X129856721Y-127456512D01*
X129388773Y-126557755D01*
X128889716Y-125675893D01*
X128360162Y-124812000D01*
X127800755Y-123967131D01*
X127212179Y-123142318D01*
X126595151Y-122338567D01*
X126517644Y-122244592D01*
X126375051Y-122071702D01*
X126374769Y-122071043D01*
X126365956Y-122060675D01*
X125950426Y-121556858D01*
X125704313Y-121278838D01*
X125703074Y-121276199D01*
X125669643Y-121239673D01*
X125278789Y-120798147D01*
X124945649Y-120447302D01*
X124944083Y-120444901D01*
X124929627Y-120430386D01*
X124929573Y-120430384D01*
X124929225Y-120430727D01*
X124901525Y-120457124D01*
X124894649Y-120465302D01*
X124389823Y-120970127D01*
X123868169Y-121491782D01*
X123867827Y-121492107D01*
X123867826Y-121492108D01*
X123867823Y-121492191D01*
X83932162Y-121492191D01*
X83932175Y-121492178D01*
X83932173Y-121492108D01*
X83932174Y-121492108D01*
X83931811Y-121491764D01*
X82908317Y-120468269D01*
X82906206Y-120464403D01*
X82870796Y-120430748D01*
X82870432Y-120430384D01*
X82870369Y-120430386D01*
X82855828Y-120445018D01*
X82854313Y-120447341D01*
X82521211Y-120798148D01*
X82130410Y-121239614D01*
X82097558Y-121275507D01*
X82095704Y-121278819D01*
X81849575Y-121556859D01*
X81434127Y-122060573D01*
X81425403Y-122070837D01*
X81424976Y-122071669D01*
X81204849Y-122338567D01*
X80587822Y-123142319D01*
X79999246Y-123967131D01*
X79439839Y-124812000D01*
X78910284Y-125675893D01*
X78411228Y-126557756D01*
X77943280Y-127456512D01*
X77507010Y-128371065D01*
X77102951Y-129300299D01*
X76731596Y-130243079D01*
X76393399Y-131198255D01*
X76088772Y-132164661D01*
X75818087Y-133141118D01*
X75581674Y-134126434D01*
X75379822Y-135119407D01*
X75212777Y-136118824D01*
X75080744Y-137123466D01*
X74983882Y-138132107D01*
X74922311Y-139143516D01*
X74909788Y-139627269D01*
X74909111Y-139630502D01*
X14900500Y-139630502D01*
X14900500Y-119370433D01*
X83930384Y-119370433D01*
X83930750Y-119370799D01*
X83960766Y-119402376D01*
X83968271Y-119408319D01*
X84991764Y-120431811D01*
X84992108Y-120432174D01*
X84992108Y-120432173D01*
X84992181Y-120432175D01*
X84992507Y-120431849D01*
X84992509Y-120431849D01*
X84992509Y-120431847D01*
X84993155Y-120431205D01*
X84993656Y-120430748D01*
X85376683Y-120081114D01*
X85744612Y-119745911D01*
X86149399Y-119402668D01*
X86532092Y-119080054D01*
X86948646Y-118752225D01*
X87343924Y-118444206D01*
X87771947Y-118131981D01*
X88179029Y-117839210D01*
X88617999Y-117542948D01*
X89036202Y-117265940D01*
X89485646Y-116985949D01*
X89914255Y-116725192D01*
X90373529Y-116461865D01*
X90811903Y-116217751D01*
X91280518Y-115971365D01*
X91727947Y-115744295D01*
X92205172Y-115515232D01*
X92661100Y-115305491D01*
X93146358Y-115094023D01*
X93609984Y-114901984D01*
X94102668Y-114708376D01*
X94573298Y-114534321D01*
X95072776Y-114358825D01*
X95549681Y-114203021D01*
X96055227Y-114045893D01*
X96537846Y-113908522D01*
X97048802Y-113769966D01*
X97536337Y-113651259D01*
X98052073Y-113531450D01*
X98543535Y-113431637D01*
X99063548Y-113330702D01*
X99558431Y-113249871D01*
X100081801Y-113167998D01*
X100579274Y-113106277D01*
X101105514Y-113043553D01*
X101604189Y-113001076D01*
X102133180Y-112957554D01*
X102628976Y-112934478D01*
X103147733Y-112910833D01*
X103150459Y-112910770D01*
X103150511Y-112910715D01*
X103150513Y-112910715D01*
X103150500Y-112910234D01*
X103150500Y-111460622D01*
X103151716Y-111456477D01*
X103151553Y-111450188D01*
X104648446Y-111450188D01*
X104649500Y-111460622D01*
X104649500Y-112910234D01*
X104649486Y-112910715D01*
X104649542Y-112910774D01*
X104652311Y-112910834D01*
X105169215Y-112934394D01*
X105666832Y-112957554D01*
X106195549Y-113001054D01*
X106694528Y-113043558D01*
X107220622Y-113106264D01*
X107718216Y-113168001D01*
X108241406Y-113249845D01*
X108736504Y-113330711D01*
X109256343Y-113431612D01*
X109747994Y-113531465D01*
X110263670Y-113651261D01*
X110751227Y-113769974D01*
X111260171Y-113907983D01*
X111262020Y-113908485D01*
X111744817Y-114045906D01*
X112195957Y-114186124D01*
X112250184Y-114202979D01*
X112333685Y-114230258D01*
X112727288Y-114358847D01*
X113226670Y-114534309D01*
X113697415Y-114708408D01*
X114189973Y-114901966D01*
X114653743Y-115094066D01*
X115010471Y-115249523D01*
X115138850Y-115305469D01*
X115213077Y-115339615D01*
X115594926Y-115515278D01*
X116072010Y-115744273D01*
X116519623Y-115971438D01*
X116988043Y-116217722D01*
X117426579Y-116461926D01*
X117885730Y-116725182D01*
X118117653Y-116866281D01*
X118314519Y-116986052D01*
X118763764Y-117265918D01*
X118822008Y-117304499D01*
X119182162Y-117543057D01*
X119620937Y-117839187D01*
X119862005Y-118012562D01*
X120028289Y-118132153D01*
X120235973Y-118283649D01*
X120456020Y-118444164D01*
X120650453Y-118595675D01*
X120851704Y-118752500D01*
X121267890Y-119080040D01*
X121651015Y-119403019D01*
X122055378Y-119745903D01*
X122423572Y-120081348D01*
X122423799Y-120081554D01*
X122806831Y-120431192D01*
X122807817Y-120432176D01*
X122807890Y-120432174D01*
X122807890Y-120432173D01*
X122807892Y-120432174D01*
X122808217Y-120431830D01*
X123834613Y-119405432D01*
X123838372Y-119403380D01*
X123869270Y-119370776D01*
X123869616Y-119370435D01*
X123869614Y-119370376D01*
X123855810Y-119356473D01*
X123852965Y-119354606D01*
X123501852Y-119021211D01*
X123060368Y-118630395D01*
X123024494Y-118597560D01*
X123021177Y-118595701D01*
X122743141Y-118349575D01*
X122239396Y-117934102D01*
X122229168Y-117925409D01*
X122228328Y-117924975D01*
X122228296Y-117924949D01*
X121961433Y-117704849D01*
X121157681Y-117087822D01*
X120847220Y-116866281D01*
X120332869Y-116499246D01*
X119488000Y-115939839D01*
X118624107Y-115410284D01*
X117742244Y-114911228D01*
X116843488Y-114443280D01*
X115928935Y-114007010D01*
X114999701Y-113602951D01*
X114056921Y-113231596D01*
X113101745Y-112893399D01*
X112135339Y-112588772D01*
X111158882Y-112318087D01*
X110173566Y-112081674D01*
X109180593Y-111879822D01*
X108181176Y-111712777D01*
X107176534Y-111580744D01*
X106832180Y-111547674D01*
X106831513Y-111547406D01*
X106817877Y-111546301D01*
X106167893Y-111483882D01*
X106167877Y-111483881D01*
X105797249Y-111461318D01*
X105794502Y-111460327D01*
X105744944Y-111458134D01*
X105156484Y-111422311D01*
X104672938Y-111409794D01*
X104670034Y-111409180D01*
X104649545Y-111409157D01*
X104649513Y-111409187D01*
X104649512Y-111409187D01*
X104649500Y-111409200D01*
X104649500Y-111409687D01*
X104648446Y-111450188D01*
X103151553Y-111450188D01*
X103150500Y-111409687D01*
X103150500Y-111409198D01*
X103150459Y-111409159D01*
X103130666Y-111409097D01*
X103127367Y-111409785D01*
X102643516Y-111422310D01*
X102054969Y-111458138D01*
X102006366Y-111460289D01*
X102002715Y-111461319D01*
X101632107Y-111483881D01*
X100982090Y-111546303D01*
X100968684Y-111547390D01*
X100967788Y-111547676D01*
X100623466Y-111580743D01*
X99618824Y-111712776D01*
X98619407Y-111879821D01*
X97626434Y-112081673D01*
X96641118Y-112318086D01*
X95664661Y-112588771D01*
X94698255Y-112893398D01*
X93743079Y-113231595D01*
X92800298Y-113602950D01*
X91871065Y-114007009D01*
X90956512Y-114443279D01*
X90057755Y-114911227D01*
X89175893Y-115410284D01*
X88312000Y-115939838D01*
X87467131Y-116499245D01*
X86784934Y-116986052D01*
X86642318Y-117087821D01*
X85838567Y-117704849D01*
X85571702Y-117924949D01*
X85571039Y-117925232D01*
X85560603Y-117934103D01*
X85056858Y-118349574D01*
X84778850Y-118595675D01*
X84776213Y-118596912D01*
X84739670Y-118630359D01*
X84298147Y-119021211D01*
X83947034Y-119354603D01*
X83944453Y-119356298D01*
X83930386Y-119370369D01*
X83930384Y-119370433D01*
X14900500Y-119370433D01*
X14900500Y-77026614D01*
X34033024Y-77026614D01*
X34063210Y-77532072D01*
X34063211Y-77532077D01*
X34133459Y-78033530D01*
X34188637Y-78281772D01*
X34243329Y-78527827D01*
X34318181Y-78771310D01*
X34392124Y-79011835D01*
X34578899Y-79482480D01*
X34802478Y-79936802D01*
X34802478Y-79936803D01*
X35061446Y-80371924D01*
X35061449Y-80371928D01*
X35354170Y-80785102D01*
X35519176Y-80982633D01*
X35678796Y-81173715D01*
X36033270Y-81535309D01*
X36228666Y-81705239D01*
X36415344Y-81867588D01*
X36822616Y-82168466D01*
X36822621Y-82168469D01*
X37252505Y-82436036D01*
X37252506Y-82436037D01*
X37702294Y-82668604D01*
X38169132Y-82864700D01*
X38169137Y-82864701D01*
X38169138Y-82864702D01*
X38650087Y-83023089D01*
X38783071Y-83055435D01*
X39142096Y-83142764D01*
X39642064Y-83222970D01*
X40146820Y-83263200D01*
X40146821Y-83263200D01*
X40526546Y-83263200D01*
X40905957Y-83248104D01*
X41157336Y-83217971D01*
X41408718Y-83187838D01*
X41408717Y-83187838D01*
X41905092Y-83087820D01*
X41905091Y-83087820D01*
X41905097Y-83087819D01*
X42391957Y-82948679D01*
X42391957Y-82948680D01*
X42616495Y-82864700D01*
X42866234Y-82771295D01*
X43324913Y-82556792D01*
X43765100Y-82306526D01*
X44184012Y-82022077D01*
X44579000Y-81705245D01*
X44579002Y-81705242D01*
X44579007Y-81705239D01*
X44947569Y-81358030D01*
X44947569Y-81358029D01*
X45287383Y-80982635D01*
X45596299Y-80581426D01*
X45872362Y-80156941D01*
X46113828Y-79711865D01*
X46319169Y-79249012D01*
X46487087Y-78771308D01*
X46616520Y-78281772D01*
X46706651Y-77783502D01*
X46756909Y-77279643D01*
X46761941Y-77026614D01*
X161033024Y-77026614D01*
X161063210Y-77532072D01*
X161063211Y-77532077D01*
X161133459Y-78033530D01*
X161188637Y-78281772D01*
X161243329Y-78527827D01*
X161318181Y-78771310D01*
X161392124Y-79011835D01*
X161578899Y-79482480D01*
X161802478Y-79936802D01*
X161802478Y-79936803D01*
X162061446Y-80371924D01*
X162061449Y-80371928D01*
X162354170Y-80785102D01*
X162519176Y-80982633D01*
X162678796Y-81173715D01*
X163033270Y-81535309D01*
X163228666Y-81705239D01*
X163415344Y-81867588D01*
X163822616Y-82168466D01*
X163822621Y-82168469D01*
X164252505Y-82436036D01*
X164252506Y-82436037D01*
X164702294Y-82668604D01*
X165169132Y-82864700D01*
X165169137Y-82864701D01*
X165169138Y-82864702D01*
X165650087Y-83023089D01*
X165783071Y-83055435D01*
X166142096Y-83142764D01*
X166642064Y-83222970D01*
X167146820Y-83263200D01*
X167146821Y-83263200D01*
X167526546Y-83263200D01*
X167905957Y-83248104D01*
X168157336Y-83217971D01*
X168408718Y-83187838D01*
X168408717Y-83187838D01*
X168905092Y-83087820D01*
X168905091Y-83087820D01*
X168905097Y-83087819D01*
X169391957Y-82948679D01*
X169391957Y-82948680D01*
X169616495Y-82864700D01*
X169866234Y-82771295D01*
X170324913Y-82556792D01*
X170765100Y-82306526D01*
X171184012Y-82022077D01*
X171579000Y-81705245D01*
X171579002Y-81705242D01*
X171579007Y-81705239D01*
X171947569Y-81358030D01*
X171947569Y-81358029D01*
X172287383Y-80982635D01*
X172596299Y-80581426D01*
X172872362Y-80156941D01*
X173113828Y-79711865D01*
X173319169Y-79249012D01*
X173487087Y-78771308D01*
X173616520Y-78281772D01*
X173706651Y-77783502D01*
X173756909Y-77279643D01*
X173766976Y-76773398D01*
X173766975Y-76773395D01*
X173766976Y-76773386D01*
X173736790Y-76267928D01*
X173701567Y-76016498D01*
X173666541Y-75766470D01*
X173556672Y-75272178D01*
X173556672Y-75272177D01*
X173481819Y-75028692D01*
X173407878Y-74788171D01*
X173221101Y-74317519D01*
X172997522Y-73863198D01*
X172997522Y-73863197D01*
X172738554Y-73428076D01*
X172445830Y-73014898D01*
X172121207Y-72626288D01*
X171766736Y-72264697D01*
X171766735Y-72264696D01*
X171766730Y-72264691D01*
X171570341Y-72093897D01*
X171384656Y-71932412D01*
X170977384Y-71631534D01*
X170547495Y-71363964D01*
X170547494Y-71363963D01*
X170097706Y-71131396D01*
X169630868Y-70935300D01*
X169149916Y-70776912D01*
X169149913Y-70776911D01*
X169016929Y-70744564D01*
X168657904Y-70657236D01*
X168157936Y-70577030D01*
X167653180Y-70536800D01*
X167653179Y-70536800D01*
X167273454Y-70536800D01*
X166894043Y-70551896D01*
X166684367Y-70577030D01*
X166391282Y-70612162D01*
X166391283Y-70612162D01*
X165912679Y-70708599D01*
X165894903Y-70712181D01*
X165408043Y-70851320D01*
X165408038Y-70851322D01*
X164933766Y-71028705D01*
X164475087Y-71243208D01*
X164034900Y-71493474D01*
X163615988Y-71777923D01*
X163423390Y-71932412D01*
X163220993Y-72094761D01*
X163040606Y-72264697D01*
X162852433Y-72441968D01*
X162512617Y-72817365D01*
X162203701Y-73218574D01*
X161927638Y-73643059D01*
X161686172Y-74088135D01*
X161480831Y-74550988D01*
X161312913Y-75028692D01*
X161183480Y-75518228D01*
X161093349Y-76016498D01*
X161068270Y-76267923D01*
X161043091Y-76520357D01*
X161033024Y-77026614D01*
X46761941Y-77026614D01*
X46766976Y-76773398D01*
X46766975Y-76773395D01*
X46766976Y-76773386D01*
X46736790Y-76267928D01*
X46701567Y-76016498D01*
X46666541Y-75766470D01*
X46556672Y-75272178D01*
X46556672Y-75272177D01*
X46481819Y-75028692D01*
X46407878Y-74788171D01*
X46221101Y-74317519D01*
X45997522Y-73863198D01*
X45997522Y-73863197D01*
X45738554Y-73428076D01*
X45445830Y-73014898D01*
X45121207Y-72626288D01*
X44766736Y-72264697D01*
X44766735Y-72264696D01*
X44766730Y-72264691D01*
X44570341Y-72093897D01*
X44384656Y-71932412D01*
X43977384Y-71631534D01*
X43547495Y-71363964D01*
X43547494Y-71363963D01*
X43097706Y-71131396D01*
X42630868Y-70935300D01*
X42149916Y-70776912D01*
X42149913Y-70776911D01*
X42016929Y-70744564D01*
X41657904Y-70657236D01*
X41157936Y-70577030D01*
X40653180Y-70536800D01*
X40653179Y-70536800D01*
X40273454Y-70536800D01*
X39894043Y-70551896D01*
X39684367Y-70577030D01*
X39391282Y-70612162D01*
X39391283Y-70612162D01*
X38912679Y-70708599D01*
X38894903Y-70712181D01*
X38408043Y-70851320D01*
X38408038Y-70851322D01*
X37933766Y-71028705D01*
X37475087Y-71243208D01*
X37034900Y-71493474D01*
X36615988Y-71777923D01*
X36423390Y-71932412D01*
X36220993Y-72094761D01*
X36040606Y-72264697D01*
X35852433Y-72441968D01*
X35512617Y-72817365D01*
X35203701Y-73218574D01*
X34927638Y-73643059D01*
X34686172Y-74088135D01*
X34480831Y-74550988D01*
X34312913Y-75028692D01*
X34183480Y-75518228D01*
X34093349Y-76016498D01*
X34068270Y-76267923D01*
X34043091Y-76520357D01*
X34033024Y-77026614D01*
X14900500Y-77026614D01*
X14900500Y-64400000D01*
X14914503Y-63883077D01*
X14914503Y-63883076D01*
X14919795Y-63694438D01*
X14919970Y-63691242D01*
X14953978Y-63273589D01*
X14978716Y-62980324D01*
X14979059Y-62977220D01*
X15032757Y-62583098D01*
X15076881Y-62270555D01*
X15077366Y-62267640D01*
X15150644Y-61885750D01*
X15213992Y-61567279D01*
X15214604Y-61564541D01*
X15307300Y-61191806D01*
X15389614Y-60872702D01*
X15390353Y-60870086D01*
X15502186Y-60505867D01*
X15603621Y-60187620D01*
X15734770Y-59830635D01*
X15854602Y-59516707D01*
X16004312Y-59168680D01*
X16142156Y-58860629D01*
X16309981Y-58522241D01*
X16465392Y-58221412D01*
X16650924Y-57893256D01*
X16823314Y-57601014D01*
X17026034Y-57283860D01*
X17214845Y-57001288D01*
X17434177Y-56695937D01*
X17638779Y-56424069D01*
X17874149Y-56131255D01*
X18093801Y-55871134D01*
X18344603Y-55591577D01*
X18578569Y-55344103D01*
X18844103Y-55078569D01*
X19091590Y-54844592D01*
X19371134Y-54593801D01*
X19631255Y-54374149D01*
X19924069Y-54138779D01*
X20195937Y-53934177D01*
X20501289Y-53714843D01*
X20783850Y-53526041D01*
X21101023Y-53323308D01*
X21393256Y-53150924D01*
X21721412Y-52965392D01*
X22022250Y-52809977D01*
X22360629Y-52642156D01*
X22668680Y-52504312D01*
X23016684Y-52354612D01*
X23330635Y-52234770D01*
X23687620Y-52103620D01*
X23713077Y-52095507D01*
X24005867Y-52002186D01*
X24370086Y-51890353D01*
X24372702Y-51889614D01*
X24691806Y-51807300D01*
X25064541Y-51714604D01*
X25067279Y-51713992D01*
X25385634Y-51650666D01*
X25767640Y-51577366D01*
X25770555Y-51576881D01*
X26083031Y-51532766D01*
X26477231Y-51479057D01*
X26480324Y-51478716D01*
X26773581Y-51453979D01*
X27191242Y-51419970D01*
X27194438Y-51419795D01*
X27382806Y-51414510D01*
X27900000Y-51400500D01*
X27900500Y-51400500D01*
X179899500Y-51400500D01*
X179900000Y-51400500D01*
X180416941Y-51414503D01*
G37*
%TD.AperFunction*%
M02*
