%TF.GenerationSoftware,KiCad,Pcbnew,7.0.9*%
%TF.CreationDate,2024-08-20T17:43:16-06:00*%
%TF.ProjectId,blank_idealvac,626c616e-6b5f-4696-9465-616c7661632e,rev?*%
%TF.SameCoordinates,Original*%
%TF.FileFunction,Legend,Top*%
%TF.FilePolarity,Positive*%
%FSLAX46Y46*%
G04 Gerber Fmt 4.6, Leading zero omitted, Abs format (unit mm)*
G04 Created by KiCad (PCBNEW 7.0.9) date 2024-08-20 17:43:16*
%MOMM*%
%LPD*%
G01*
G04 APERTURE LIST*
%ADD10C,0.100000*%
%ADD11C,7.137400*%
G04 APERTURE END LIST*
D10*
X166638095Y-54505419D02*
X166638095Y-53505419D01*
X166638095Y-53981609D02*
X167209523Y-53981609D01*
X167209523Y-54505419D02*
X167209523Y-53505419D01*
X167638095Y-53600657D02*
X167685714Y-53553038D01*
X167685714Y-53553038D02*
X167780952Y-53505419D01*
X167780952Y-53505419D02*
X168019047Y-53505419D01*
X168019047Y-53505419D02*
X168114285Y-53553038D01*
X168114285Y-53553038D02*
X168161904Y-53600657D01*
X168161904Y-53600657D02*
X168209523Y-53695895D01*
X168209523Y-53695895D02*
X168209523Y-53791133D01*
X168209523Y-53791133D02*
X168161904Y-53933990D01*
X168161904Y-53933990D02*
X167590476Y-54505419D01*
X167590476Y-54505419D02*
X168209523Y-54505419D01*
X166638095Y-181505419D02*
X166638095Y-180505419D01*
X166638095Y-180981609D02*
X167209523Y-180981609D01*
X167209523Y-181505419D02*
X167209523Y-180505419D01*
X167590476Y-180505419D02*
X168209523Y-180505419D01*
X168209523Y-180505419D02*
X167876190Y-180886371D01*
X167876190Y-180886371D02*
X168019047Y-180886371D01*
X168019047Y-180886371D02*
X168114285Y-180933990D01*
X168114285Y-180933990D02*
X168161904Y-180981609D01*
X168161904Y-180981609D02*
X168209523Y-181076847D01*
X168209523Y-181076847D02*
X168209523Y-181314942D01*
X168209523Y-181314942D02*
X168161904Y-181410180D01*
X168161904Y-181410180D02*
X168114285Y-181457800D01*
X168114285Y-181457800D02*
X168019047Y-181505419D01*
X168019047Y-181505419D02*
X167733333Y-181505419D01*
X167733333Y-181505419D02*
X167638095Y-181457800D01*
X167638095Y-181457800D02*
X167590476Y-181410180D01*
X39638095Y-181505419D02*
X39638095Y-180505419D01*
X39638095Y-180981609D02*
X40209523Y-180981609D01*
X40209523Y-181505419D02*
X40209523Y-180505419D01*
X41114285Y-180838752D02*
X41114285Y-181505419D01*
X40876190Y-180457800D02*
X40638095Y-181172085D01*
X40638095Y-181172085D02*
X41257142Y-181172085D01*
X39638095Y-54505419D02*
X39638095Y-53505419D01*
X39638095Y-53981609D02*
X40209523Y-53981609D01*
X40209523Y-54505419D02*
X40209523Y-53505419D01*
X41209523Y-54505419D02*
X40638095Y-54505419D01*
X40923809Y-54505419D02*
X40923809Y-53505419D01*
X40923809Y-53505419D02*
X40828571Y-53648276D01*
X40828571Y-53648276D02*
X40733333Y-53743514D01*
X40733333Y-53743514D02*
X40638095Y-53791133D01*
%LPC*%
G36*
X4620000Y-42640000D02*
G01*
X199320000Y-42640000D01*
X199320000Y-237740000D01*
X4620000Y-237740000D01*
X4620000Y-42640000D01*
G37*
D11*
%TO.C,H2*%
X167400000Y-76900000D03*
%TD*%
%TO.C,H3*%
X167400000Y-203900000D03*
%TD*%
%TO.C,H4*%
X40400000Y-203900000D03*
%TD*%
%TO.C,H1*%
X40400000Y-76900000D03*
%TD*%
%LPD*%
M02*
