%TF.GenerationSoftware,KiCad,Pcbnew,7.0.9*%
%TF.CreationDate,2024-08-21T19:12:35-06:00*%
%TF.ProjectId,top 40K layer,746f7020-3430-44b2-906c-617965722e6b,rev?*%
%TF.SameCoordinates,Original*%
%TF.FileFunction,Copper,L3,Inr*%
%TF.FilePolarity,Positive*%
%FSLAX46Y46*%
G04 Gerber Fmt 4.6, Leading zero omitted, Abs format (unit mm)*
G04 Created by KiCad (PCBNEW 7.0.9) date 2024-08-21 19:12:35*
%MOMM*%
%LPD*%
G01*
G04 APERTURE LIST*
G04 APERTURE END LIST*
%TA.AperFunction,NonConductor*%
G36*
X162102696Y999264D02*
G01*
X162104789Y999080D01*
X162145445Y995523D01*
X162271760Y983082D01*
X162291699Y979454D01*
X162358330Y961601D01*
X162451563Y933318D01*
X162467971Y927040D01*
X162535367Y895614D01*
X162538393Y894101D01*
X162622327Y849236D01*
X162628667Y845341D01*
X162694828Y799015D01*
X162698600Y796154D01*
X162770808Y736895D01*
X162775320Y732806D01*
X162832806Y675320D01*
X162836895Y670808D01*
X162896154Y598600D01*
X162899015Y594828D01*
X162945341Y528667D01*
X162949236Y522327D01*
X162994101Y438393D01*
X162995614Y435367D01*
X163027040Y367971D01*
X163033318Y351563D01*
X163061601Y258330D01*
X163079454Y191699D01*
X163083082Y171760D01*
X163095523Y45445D01*
X163099264Y2698D01*
X163099500Y-2710D01*
X163099500Y-169977289D01*
X163099264Y-169982697D01*
X163095523Y-170025445D01*
X163083082Y-170151760D01*
X163079454Y-170171699D01*
X163061601Y-170238330D01*
X163033318Y-170331563D01*
X163027040Y-170347971D01*
X162995614Y-170415367D01*
X162994101Y-170418393D01*
X162949236Y-170502327D01*
X162945341Y-170508667D01*
X162899015Y-170574828D01*
X162896154Y-170578600D01*
X162836895Y-170650808D01*
X162832806Y-170655320D01*
X162775320Y-170712806D01*
X162770808Y-170716895D01*
X162698600Y-170776154D01*
X162694828Y-170779015D01*
X162628667Y-170825341D01*
X162622327Y-170829236D01*
X162538393Y-170874101D01*
X162535367Y-170875614D01*
X162467971Y-170907040D01*
X162451563Y-170913318D01*
X162358330Y-170941601D01*
X162291699Y-170959454D01*
X162271760Y-170963082D01*
X162145445Y-170975523D01*
X162105578Y-170979012D01*
X162102696Y-170979264D01*
X162097290Y-170979500D01*
X161775017Y-170979500D01*
X161767249Y-170979012D01*
X161739802Y-170975550D01*
X161655731Y-170963605D01*
X161627593Y-170956157D01*
X161590238Y-170941392D01*
X161587562Y-170940261D01*
X161530610Y-170914589D01*
X161508775Y-170901929D01*
X161472047Y-170875296D01*
X161468226Y-170872290D01*
X161462080Y-170867052D01*
X161423145Y-170833868D01*
X161408149Y-170818670D01*
X161377629Y-170781874D01*
X161373581Y-170776408D01*
X161338761Y-170723564D01*
X161334471Y-170715931D01*
X161324834Y-170695538D01*
X161311595Y-170667522D01*
X161308432Y-170659388D01*
X161289711Y-170598928D01*
X161288058Y-170592328D01*
X161284815Y-170575510D01*
X161281064Y-170556055D01*
X161279008Y-170545389D01*
X161276785Y-170524144D01*
X161275723Y-170464899D01*
X161275827Y-170460061D01*
X161278570Y-170414773D01*
X161282650Y-170389882D01*
X161298988Y-170329538D01*
X161299789Y-170326832D01*
X161312114Y-170288551D01*
X161324219Y-170262098D01*
X161368757Y-170188939D01*
X161383050Y-170166264D01*
X161387646Y-170159905D01*
X161415427Y-170126185D01*
X161415876Y-170125536D01*
X161485341Y-170040983D01*
X161655314Y-169775234D01*
X161792569Y-169491201D01*
X161895169Y-169192895D01*
X161961666Y-168884526D01*
X161991122Y-168570447D01*
X161983120Y-168255091D01*
X161937774Y-167942909D01*
X161855723Y-167638310D01*
X161738126Y-167345591D01*
X161586643Y-167068885D01*
X161495431Y-166941057D01*
X161403415Y-166812101D01*
X161403414Y-166812100D01*
X161403412Y-166812097D01*
X161297813Y-166696131D01*
X161191019Y-166578852D01*
X160952465Y-166372447D01*
X160952466Y-166372447D01*
X160952463Y-166372445D01*
X160691110Y-166195787D01*
X160609367Y-166153695D01*
X160410663Y-166051376D01*
X160410643Y-166051367D01*
X160115049Y-165941239D01*
X160115047Y-165941238D01*
X160115043Y-165941237D01*
X159910654Y-165891705D01*
X159808457Y-165866938D01*
X159808452Y-165866937D01*
X159527371Y-165833365D01*
X159495229Y-165829526D01*
X159179771Y-165829526D01*
X159150619Y-165833007D01*
X158866547Y-165866937D01*
X158866542Y-165866938D01*
X158673615Y-165913692D01*
X158559957Y-165941237D01*
X158559954Y-165941237D01*
X158559950Y-165941239D01*
X158264356Y-166051367D01*
X158264336Y-166051376D01*
X157983888Y-166195788D01*
X157722534Y-166372447D01*
X157483980Y-166578852D01*
X157271585Y-166812100D01*
X157271584Y-166812101D01*
X157088362Y-167068876D01*
X156936871Y-167345596D01*
X156819278Y-167638307D01*
X156819276Y-167638313D01*
X156737228Y-167942901D01*
X156737225Y-167942914D01*
X156691880Y-168255086D01*
X156691879Y-168255102D01*
X156683877Y-168570430D01*
X156683878Y-168570452D01*
X156713333Y-168884520D01*
X156713333Y-168884523D01*
X156779830Y-169192892D01*
X156779832Y-169192898D01*
X156882428Y-169491195D01*
X157019684Y-169775231D01*
X157019686Y-169775234D01*
X157189659Y-170040983D01*
X157259120Y-170125532D01*
X157275825Y-170145866D01*
X157275911Y-170146018D01*
X157287273Y-170159809D01*
X157291872Y-170166173D01*
X157306639Y-170189599D01*
X157350762Y-170262093D01*
X157362872Y-170288561D01*
X157375184Y-170326800D01*
X157376012Y-170329598D01*
X157392332Y-170389875D01*
X157396414Y-170414784D01*
X157399156Y-170460060D01*
X157399260Y-170464921D01*
X157398198Y-170524136D01*
X157395976Y-170545387D01*
X157386926Y-170592328D01*
X157385271Y-170598936D01*
X157366559Y-170659365D01*
X157363386Y-170667525D01*
X157340514Y-170715926D01*
X157336224Y-170723559D01*
X157301407Y-170776397D01*
X157297354Y-170781869D01*
X157266848Y-170818649D01*
X157251839Y-170833860D01*
X157206759Y-170872282D01*
X157202937Y-170875289D01*
X157166215Y-170901917D01*
X157144379Y-170914577D01*
X157087444Y-170940241D01*
X157084756Y-170941377D01*
X157047390Y-170956147D01*
X157019265Y-170963593D01*
X156935934Y-170975442D01*
X156907628Y-170979012D01*
X156899862Y-170979500D01*
X134787517Y-170979500D01*
X134779749Y-170979012D01*
X134752302Y-170975550D01*
X134668231Y-170963605D01*
X134640093Y-170956157D01*
X134602738Y-170941392D01*
X134600062Y-170940261D01*
X134543110Y-170914589D01*
X134521275Y-170901929D01*
X134484547Y-170875296D01*
X134480726Y-170872290D01*
X134474580Y-170867052D01*
X134435645Y-170833868D01*
X134420649Y-170818670D01*
X134390129Y-170781874D01*
X134386081Y-170776408D01*
X134351261Y-170723564D01*
X134346971Y-170715931D01*
X134337334Y-170695538D01*
X134324095Y-170667522D01*
X134320932Y-170659388D01*
X134302211Y-170598928D01*
X134300558Y-170592328D01*
X134297315Y-170575510D01*
X134293564Y-170556055D01*
X134291508Y-170545389D01*
X134289285Y-170524144D01*
X134288223Y-170464899D01*
X134288327Y-170460061D01*
X134291070Y-170414773D01*
X134295150Y-170389882D01*
X134311488Y-170329538D01*
X134312289Y-170326832D01*
X134324614Y-170288551D01*
X134336719Y-170262098D01*
X134381257Y-170188939D01*
X134395550Y-170166264D01*
X134400146Y-170159905D01*
X134427927Y-170126185D01*
X134428376Y-170125536D01*
X134497841Y-170040983D01*
X134667814Y-169775234D01*
X134805069Y-169491201D01*
X134907669Y-169192895D01*
X134974166Y-168884526D01*
X135003622Y-168570447D01*
X134995620Y-168255091D01*
X134950274Y-167942909D01*
X134868223Y-167638310D01*
X134750626Y-167345591D01*
X134599143Y-167068885D01*
X134507931Y-166941057D01*
X134415915Y-166812101D01*
X134415914Y-166812100D01*
X134415912Y-166812097D01*
X134310313Y-166696131D01*
X134203519Y-166578852D01*
X133964965Y-166372447D01*
X133964966Y-166372447D01*
X133964963Y-166372445D01*
X133703610Y-166195787D01*
X133621867Y-166153695D01*
X133423163Y-166051376D01*
X133423143Y-166051367D01*
X133127549Y-165941239D01*
X133127547Y-165941238D01*
X133127543Y-165941237D01*
X132923154Y-165891705D01*
X132820957Y-165866938D01*
X132820952Y-165866937D01*
X132539871Y-165833365D01*
X132507729Y-165829526D01*
X132192271Y-165829526D01*
X132163119Y-165833007D01*
X131879047Y-165866937D01*
X131879042Y-165866938D01*
X131686115Y-165913692D01*
X131572457Y-165941237D01*
X131572454Y-165941237D01*
X131572450Y-165941239D01*
X131276856Y-166051367D01*
X131276836Y-166051376D01*
X130996388Y-166195788D01*
X130735034Y-166372447D01*
X130496480Y-166578852D01*
X130284085Y-166812100D01*
X130284084Y-166812101D01*
X130100862Y-167068876D01*
X129949371Y-167345596D01*
X129831778Y-167638307D01*
X129831776Y-167638313D01*
X129749728Y-167942901D01*
X129749725Y-167942914D01*
X129704380Y-168255086D01*
X129704379Y-168255102D01*
X129696377Y-168570430D01*
X129696378Y-168570452D01*
X129725833Y-168884520D01*
X129725833Y-168884523D01*
X129792330Y-169192892D01*
X129792332Y-169192898D01*
X129894928Y-169491195D01*
X130032184Y-169775231D01*
X130032186Y-169775234D01*
X130202159Y-170040983D01*
X130271620Y-170125532D01*
X130288325Y-170145866D01*
X130288411Y-170146018D01*
X130299773Y-170159809D01*
X130304372Y-170166173D01*
X130319139Y-170189599D01*
X130363262Y-170262093D01*
X130375372Y-170288561D01*
X130387684Y-170326800D01*
X130388512Y-170329598D01*
X130404832Y-170389875D01*
X130408914Y-170414784D01*
X130411656Y-170460060D01*
X130411760Y-170464921D01*
X130410698Y-170524136D01*
X130408476Y-170545387D01*
X130399426Y-170592328D01*
X130397771Y-170598936D01*
X130379059Y-170659365D01*
X130375886Y-170667525D01*
X130353014Y-170715926D01*
X130348724Y-170723559D01*
X130313907Y-170776397D01*
X130309854Y-170781869D01*
X130279348Y-170818649D01*
X130264339Y-170833860D01*
X130219259Y-170872282D01*
X130215437Y-170875289D01*
X130178715Y-170901917D01*
X130156879Y-170914577D01*
X130099944Y-170940241D01*
X130097256Y-170941377D01*
X130059890Y-170956147D01*
X130031765Y-170963593D01*
X129948434Y-170975442D01*
X129920128Y-170979012D01*
X129912362Y-170979500D01*
X109387517Y-170979500D01*
X109379749Y-170979012D01*
X109352302Y-170975550D01*
X109268231Y-170963605D01*
X109240093Y-170956157D01*
X109202738Y-170941392D01*
X109200062Y-170940261D01*
X109143110Y-170914589D01*
X109121275Y-170901929D01*
X109084547Y-170875296D01*
X109080726Y-170872290D01*
X109074580Y-170867052D01*
X109035645Y-170833868D01*
X109020649Y-170818670D01*
X108990129Y-170781874D01*
X108986081Y-170776408D01*
X108951261Y-170723564D01*
X108946971Y-170715931D01*
X108937334Y-170695538D01*
X108924095Y-170667522D01*
X108920932Y-170659388D01*
X108902211Y-170598928D01*
X108900558Y-170592328D01*
X108897315Y-170575510D01*
X108893564Y-170556055D01*
X108891508Y-170545389D01*
X108889285Y-170524144D01*
X108888223Y-170464899D01*
X108888327Y-170460061D01*
X108891070Y-170414773D01*
X108895150Y-170389882D01*
X108911488Y-170329538D01*
X108912289Y-170326832D01*
X108924614Y-170288551D01*
X108936719Y-170262098D01*
X108981257Y-170188939D01*
X108995550Y-170166264D01*
X109000146Y-170159905D01*
X109027927Y-170126185D01*
X109028376Y-170125536D01*
X109097841Y-170040983D01*
X109267814Y-169775234D01*
X109405069Y-169491201D01*
X109507669Y-169192895D01*
X109574166Y-168884526D01*
X109603622Y-168570447D01*
X109595620Y-168255091D01*
X109550274Y-167942909D01*
X109468223Y-167638310D01*
X109350626Y-167345591D01*
X109199143Y-167068885D01*
X109107931Y-166941057D01*
X109015915Y-166812101D01*
X109015914Y-166812100D01*
X109015912Y-166812097D01*
X108910313Y-166696131D01*
X108803519Y-166578852D01*
X108564965Y-166372447D01*
X108564966Y-166372447D01*
X108564963Y-166372445D01*
X108303610Y-166195787D01*
X108221867Y-166153695D01*
X108023163Y-166051376D01*
X108023143Y-166051367D01*
X107727549Y-165941239D01*
X107727547Y-165941238D01*
X107727543Y-165941237D01*
X107523154Y-165891705D01*
X107420957Y-165866938D01*
X107420952Y-165866937D01*
X107139871Y-165833365D01*
X107107729Y-165829526D01*
X106792271Y-165829526D01*
X106763119Y-165833007D01*
X106479047Y-165866937D01*
X106479042Y-165866938D01*
X106286115Y-165913692D01*
X106172457Y-165941237D01*
X106172454Y-165941237D01*
X106172450Y-165941239D01*
X105876856Y-166051367D01*
X105876836Y-166051376D01*
X105596388Y-166195788D01*
X105335034Y-166372447D01*
X105096480Y-166578852D01*
X104884085Y-166812100D01*
X104884084Y-166812101D01*
X104700862Y-167068876D01*
X104549371Y-167345596D01*
X104431778Y-167638307D01*
X104431776Y-167638313D01*
X104349728Y-167942901D01*
X104349725Y-167942914D01*
X104304380Y-168255086D01*
X104304379Y-168255102D01*
X104296377Y-168570430D01*
X104296378Y-168570452D01*
X104325833Y-168884520D01*
X104325833Y-168884523D01*
X104392330Y-169192892D01*
X104392332Y-169192898D01*
X104494928Y-169491195D01*
X104632184Y-169775231D01*
X104632186Y-169775234D01*
X104802159Y-170040983D01*
X104871620Y-170125532D01*
X104888325Y-170145866D01*
X104888411Y-170146018D01*
X104899773Y-170159809D01*
X104904372Y-170166173D01*
X104919139Y-170189599D01*
X104963262Y-170262093D01*
X104975372Y-170288561D01*
X104987684Y-170326800D01*
X104988512Y-170329598D01*
X105004832Y-170389875D01*
X105008914Y-170414784D01*
X105011656Y-170460060D01*
X105011760Y-170464921D01*
X105010698Y-170524136D01*
X105008476Y-170545387D01*
X104999426Y-170592328D01*
X104997771Y-170598936D01*
X104979059Y-170659365D01*
X104975886Y-170667525D01*
X104953014Y-170715926D01*
X104948724Y-170723559D01*
X104913907Y-170776397D01*
X104909854Y-170781869D01*
X104879348Y-170818649D01*
X104864339Y-170833860D01*
X104819259Y-170872282D01*
X104815437Y-170875289D01*
X104778715Y-170901917D01*
X104756879Y-170914577D01*
X104699944Y-170940241D01*
X104697256Y-170941377D01*
X104659890Y-170956147D01*
X104631765Y-170963593D01*
X104548434Y-170975442D01*
X104520128Y-170979012D01*
X104512362Y-170979500D01*
X83987517Y-170979500D01*
X83979749Y-170979012D01*
X83952302Y-170975550D01*
X83868231Y-170963605D01*
X83840093Y-170956157D01*
X83802738Y-170941392D01*
X83800062Y-170940261D01*
X83743110Y-170914589D01*
X83721275Y-170901929D01*
X83684547Y-170875296D01*
X83680726Y-170872290D01*
X83674580Y-170867052D01*
X83635645Y-170833868D01*
X83620649Y-170818670D01*
X83590129Y-170781874D01*
X83586081Y-170776408D01*
X83551261Y-170723564D01*
X83546971Y-170715931D01*
X83537334Y-170695538D01*
X83524095Y-170667522D01*
X83520932Y-170659388D01*
X83502211Y-170598928D01*
X83500558Y-170592328D01*
X83497315Y-170575510D01*
X83493564Y-170556055D01*
X83491508Y-170545389D01*
X83489285Y-170524144D01*
X83488223Y-170464899D01*
X83488327Y-170460061D01*
X83491070Y-170414773D01*
X83495150Y-170389882D01*
X83511488Y-170329538D01*
X83512289Y-170326832D01*
X83524614Y-170288551D01*
X83536719Y-170262098D01*
X83581257Y-170188939D01*
X83595550Y-170166264D01*
X83600146Y-170159905D01*
X83627927Y-170126185D01*
X83628376Y-170125536D01*
X83697841Y-170040983D01*
X83867814Y-169775234D01*
X84005069Y-169491201D01*
X84107669Y-169192895D01*
X84174166Y-168884526D01*
X84203622Y-168570447D01*
X84195620Y-168255091D01*
X84150274Y-167942909D01*
X84068223Y-167638310D01*
X83950626Y-167345591D01*
X83799143Y-167068885D01*
X83707931Y-166941057D01*
X83615915Y-166812101D01*
X83615914Y-166812100D01*
X83615912Y-166812097D01*
X83510313Y-166696131D01*
X83403519Y-166578852D01*
X83164965Y-166372447D01*
X83164966Y-166372447D01*
X83164963Y-166372445D01*
X82903610Y-166195787D01*
X82821867Y-166153695D01*
X82623163Y-166051376D01*
X82623143Y-166051367D01*
X82327549Y-165941239D01*
X82327547Y-165941238D01*
X82327543Y-165941237D01*
X82123154Y-165891705D01*
X82020957Y-165866938D01*
X82020952Y-165866937D01*
X81739871Y-165833365D01*
X81707729Y-165829526D01*
X81392271Y-165829526D01*
X81363119Y-165833007D01*
X81079047Y-165866937D01*
X81079042Y-165866938D01*
X80886115Y-165913692D01*
X80772457Y-165941237D01*
X80772454Y-165941237D01*
X80772450Y-165941239D01*
X80476856Y-166051367D01*
X80476836Y-166051376D01*
X80196388Y-166195788D01*
X79935034Y-166372447D01*
X79696480Y-166578852D01*
X79484085Y-166812100D01*
X79484084Y-166812101D01*
X79300862Y-167068876D01*
X79149371Y-167345596D01*
X79031778Y-167638307D01*
X79031776Y-167638313D01*
X78949728Y-167942901D01*
X78949725Y-167942914D01*
X78904380Y-168255086D01*
X78904379Y-168255102D01*
X78896377Y-168570430D01*
X78896378Y-168570452D01*
X78925833Y-168884520D01*
X78925833Y-168884523D01*
X78992330Y-169192892D01*
X78992332Y-169192898D01*
X79094928Y-169491195D01*
X79232184Y-169775231D01*
X79232186Y-169775234D01*
X79402159Y-170040983D01*
X79471620Y-170125532D01*
X79488325Y-170145866D01*
X79488411Y-170146018D01*
X79499773Y-170159809D01*
X79504372Y-170166173D01*
X79519139Y-170189599D01*
X79563262Y-170262093D01*
X79575372Y-170288561D01*
X79587684Y-170326800D01*
X79588512Y-170329598D01*
X79604832Y-170389875D01*
X79608914Y-170414784D01*
X79611656Y-170460060D01*
X79611760Y-170464921D01*
X79610698Y-170524136D01*
X79608476Y-170545387D01*
X79599426Y-170592328D01*
X79597771Y-170598936D01*
X79579059Y-170659365D01*
X79575886Y-170667525D01*
X79553014Y-170715926D01*
X79548724Y-170723559D01*
X79513907Y-170776397D01*
X79509854Y-170781869D01*
X79479348Y-170818649D01*
X79464339Y-170833860D01*
X79419259Y-170872282D01*
X79415437Y-170875289D01*
X79378715Y-170901917D01*
X79356879Y-170914577D01*
X79299944Y-170940241D01*
X79297256Y-170941377D01*
X79259890Y-170956147D01*
X79231765Y-170963593D01*
X79148434Y-170975442D01*
X79120128Y-170979012D01*
X79112362Y-170979500D01*
X58587517Y-170979500D01*
X58579749Y-170979012D01*
X58552302Y-170975550D01*
X58468231Y-170963605D01*
X58440093Y-170956157D01*
X58402738Y-170941392D01*
X58400062Y-170940261D01*
X58343110Y-170914589D01*
X58321275Y-170901929D01*
X58284547Y-170875296D01*
X58280726Y-170872290D01*
X58274580Y-170867052D01*
X58235645Y-170833868D01*
X58220649Y-170818670D01*
X58190129Y-170781874D01*
X58186081Y-170776408D01*
X58151261Y-170723564D01*
X58146971Y-170715931D01*
X58137334Y-170695538D01*
X58124095Y-170667522D01*
X58120932Y-170659388D01*
X58102211Y-170598928D01*
X58100558Y-170592328D01*
X58097315Y-170575510D01*
X58093564Y-170556055D01*
X58091508Y-170545389D01*
X58089285Y-170524144D01*
X58088223Y-170464899D01*
X58088327Y-170460061D01*
X58091070Y-170414773D01*
X58095150Y-170389882D01*
X58111488Y-170329538D01*
X58112289Y-170326832D01*
X58124614Y-170288551D01*
X58136719Y-170262098D01*
X58181257Y-170188939D01*
X58195550Y-170166264D01*
X58200146Y-170159905D01*
X58227927Y-170126185D01*
X58228376Y-170125536D01*
X58297841Y-170040983D01*
X58467814Y-169775234D01*
X58605069Y-169491201D01*
X58707669Y-169192895D01*
X58774166Y-168884526D01*
X58803622Y-168570447D01*
X58795620Y-168255091D01*
X58750274Y-167942909D01*
X58668223Y-167638310D01*
X58550626Y-167345591D01*
X58399143Y-167068885D01*
X58307931Y-166941057D01*
X58215915Y-166812101D01*
X58215914Y-166812100D01*
X58215912Y-166812097D01*
X58110313Y-166696131D01*
X58003519Y-166578852D01*
X57764965Y-166372447D01*
X57764966Y-166372447D01*
X57764963Y-166372445D01*
X57503610Y-166195787D01*
X57421867Y-166153695D01*
X57223163Y-166051376D01*
X57223143Y-166051367D01*
X56927549Y-165941239D01*
X56927547Y-165941238D01*
X56927543Y-165941237D01*
X56723154Y-165891705D01*
X56620957Y-165866938D01*
X56620952Y-165866937D01*
X56339871Y-165833365D01*
X56307729Y-165829526D01*
X55992271Y-165829526D01*
X55963119Y-165833007D01*
X55679047Y-165866937D01*
X55679042Y-165866938D01*
X55486115Y-165913692D01*
X55372457Y-165941237D01*
X55372454Y-165941237D01*
X55372450Y-165941239D01*
X55076856Y-166051367D01*
X55076836Y-166051376D01*
X54796388Y-166195788D01*
X54535034Y-166372447D01*
X54296480Y-166578852D01*
X54084085Y-166812100D01*
X54084084Y-166812101D01*
X53900862Y-167068876D01*
X53749371Y-167345596D01*
X53631778Y-167638307D01*
X53631776Y-167638313D01*
X53549728Y-167942901D01*
X53549725Y-167942914D01*
X53504380Y-168255086D01*
X53504379Y-168255102D01*
X53496377Y-168570430D01*
X53496378Y-168570452D01*
X53525833Y-168884520D01*
X53525833Y-168884523D01*
X53592330Y-169192892D01*
X53592332Y-169192898D01*
X53694928Y-169491195D01*
X53832184Y-169775231D01*
X53832186Y-169775234D01*
X54002159Y-170040983D01*
X54071620Y-170125532D01*
X54088325Y-170145866D01*
X54088411Y-170146018D01*
X54099773Y-170159809D01*
X54104372Y-170166173D01*
X54119139Y-170189599D01*
X54163262Y-170262093D01*
X54175372Y-170288561D01*
X54187684Y-170326800D01*
X54188512Y-170329598D01*
X54204832Y-170389875D01*
X54208914Y-170414784D01*
X54211656Y-170460060D01*
X54211760Y-170464921D01*
X54210698Y-170524136D01*
X54208476Y-170545387D01*
X54199426Y-170592328D01*
X54197771Y-170598936D01*
X54179059Y-170659365D01*
X54175886Y-170667525D01*
X54153014Y-170715926D01*
X54148724Y-170723559D01*
X54113907Y-170776397D01*
X54109854Y-170781869D01*
X54079348Y-170818649D01*
X54064339Y-170833860D01*
X54019259Y-170872282D01*
X54015437Y-170875289D01*
X53978715Y-170901917D01*
X53956879Y-170914577D01*
X53899944Y-170940241D01*
X53897256Y-170941377D01*
X53859890Y-170956147D01*
X53831765Y-170963593D01*
X53748434Y-170975442D01*
X53720128Y-170979012D01*
X53712362Y-170979500D01*
X33187517Y-170979500D01*
X33179749Y-170979012D01*
X33152302Y-170975550D01*
X33068231Y-170963605D01*
X33040093Y-170956157D01*
X33002738Y-170941392D01*
X33000062Y-170940261D01*
X32943110Y-170914589D01*
X32921275Y-170901929D01*
X32884547Y-170875296D01*
X32880726Y-170872290D01*
X32874580Y-170867052D01*
X32835645Y-170833868D01*
X32820649Y-170818670D01*
X32790129Y-170781874D01*
X32786081Y-170776408D01*
X32751261Y-170723564D01*
X32746971Y-170715931D01*
X32737334Y-170695538D01*
X32724095Y-170667522D01*
X32720932Y-170659388D01*
X32702211Y-170598928D01*
X32700558Y-170592328D01*
X32697315Y-170575510D01*
X32693564Y-170556055D01*
X32691508Y-170545389D01*
X32689285Y-170524144D01*
X32688223Y-170464899D01*
X32688327Y-170460061D01*
X32691070Y-170414773D01*
X32695150Y-170389882D01*
X32711488Y-170329538D01*
X32712289Y-170326832D01*
X32724614Y-170288551D01*
X32736719Y-170262098D01*
X32781257Y-170188939D01*
X32795550Y-170166264D01*
X32800146Y-170159905D01*
X32827927Y-170126185D01*
X32828376Y-170125536D01*
X32897841Y-170040983D01*
X33067814Y-169775234D01*
X33205069Y-169491201D01*
X33307669Y-169192895D01*
X33374166Y-168884526D01*
X33403622Y-168570447D01*
X33395620Y-168255091D01*
X33350274Y-167942909D01*
X33268223Y-167638310D01*
X33150626Y-167345591D01*
X32999143Y-167068885D01*
X32907931Y-166941057D01*
X32815915Y-166812101D01*
X32815914Y-166812100D01*
X32815912Y-166812097D01*
X32710313Y-166696131D01*
X32603519Y-166578852D01*
X32364965Y-166372447D01*
X32364966Y-166372447D01*
X32364963Y-166372445D01*
X32103610Y-166195787D01*
X32021867Y-166153695D01*
X31823163Y-166051376D01*
X31823143Y-166051367D01*
X31527549Y-165941239D01*
X31527547Y-165941238D01*
X31527543Y-165941237D01*
X31323154Y-165891705D01*
X31220957Y-165866938D01*
X31220952Y-165866937D01*
X30939871Y-165833365D01*
X30907729Y-165829526D01*
X30592271Y-165829526D01*
X30563119Y-165833007D01*
X30279047Y-165866937D01*
X30279042Y-165866938D01*
X30086115Y-165913692D01*
X29972457Y-165941237D01*
X29972454Y-165941237D01*
X29972450Y-165941239D01*
X29676856Y-166051367D01*
X29676836Y-166051376D01*
X29396388Y-166195788D01*
X29135034Y-166372447D01*
X28896480Y-166578852D01*
X28684085Y-166812100D01*
X28684084Y-166812101D01*
X28500862Y-167068876D01*
X28349371Y-167345596D01*
X28231778Y-167638307D01*
X28231776Y-167638313D01*
X28149728Y-167942901D01*
X28149725Y-167942914D01*
X28104380Y-168255086D01*
X28104379Y-168255102D01*
X28096377Y-168570430D01*
X28096378Y-168570452D01*
X28125833Y-168884520D01*
X28125833Y-168884523D01*
X28192330Y-169192892D01*
X28192332Y-169192898D01*
X28294928Y-169491195D01*
X28432184Y-169775231D01*
X28432186Y-169775234D01*
X28602159Y-170040983D01*
X28671620Y-170125532D01*
X28688325Y-170145866D01*
X28688411Y-170146018D01*
X28699773Y-170159809D01*
X28704372Y-170166173D01*
X28719139Y-170189599D01*
X28763262Y-170262093D01*
X28775372Y-170288561D01*
X28787684Y-170326800D01*
X28788512Y-170329598D01*
X28804832Y-170389875D01*
X28808914Y-170414784D01*
X28811656Y-170460060D01*
X28811760Y-170464921D01*
X28810698Y-170524136D01*
X28808476Y-170545387D01*
X28799426Y-170592328D01*
X28797771Y-170598936D01*
X28779059Y-170659365D01*
X28775886Y-170667525D01*
X28753014Y-170715926D01*
X28748724Y-170723559D01*
X28713907Y-170776397D01*
X28709854Y-170781869D01*
X28679348Y-170818649D01*
X28664339Y-170833860D01*
X28619259Y-170872282D01*
X28615437Y-170875289D01*
X28578715Y-170901917D01*
X28556879Y-170914577D01*
X28499944Y-170940241D01*
X28497256Y-170941377D01*
X28459890Y-170956147D01*
X28431765Y-170963593D01*
X28348434Y-170975442D01*
X28320128Y-170979012D01*
X28312362Y-170979500D01*
X6200017Y-170979500D01*
X6192249Y-170979012D01*
X6164802Y-170975550D01*
X6080731Y-170963605D01*
X6052593Y-170956157D01*
X6015238Y-170941392D01*
X6012562Y-170940261D01*
X5955610Y-170914589D01*
X5933775Y-170901929D01*
X5897047Y-170875296D01*
X5893226Y-170872290D01*
X5887080Y-170867052D01*
X5848145Y-170833868D01*
X5833149Y-170818670D01*
X5802629Y-170781874D01*
X5798581Y-170776408D01*
X5763761Y-170723564D01*
X5759471Y-170715931D01*
X5749834Y-170695538D01*
X5736595Y-170667522D01*
X5733432Y-170659388D01*
X5714711Y-170598928D01*
X5713058Y-170592328D01*
X5709815Y-170575510D01*
X5706064Y-170556055D01*
X5704008Y-170545389D01*
X5701785Y-170524144D01*
X5700723Y-170464899D01*
X5700827Y-170460061D01*
X5703570Y-170414773D01*
X5707650Y-170389882D01*
X5723988Y-170329538D01*
X5724789Y-170326832D01*
X5737114Y-170288551D01*
X5749219Y-170262098D01*
X5793757Y-170188939D01*
X5808050Y-170166264D01*
X5812646Y-170159905D01*
X5840427Y-170126185D01*
X5840876Y-170125536D01*
X5910341Y-170040983D01*
X6080314Y-169775234D01*
X6217569Y-169491201D01*
X6320169Y-169192895D01*
X6386666Y-168884526D01*
X6416122Y-168570447D01*
X6408120Y-168255091D01*
X6362774Y-167942909D01*
X6280723Y-167638310D01*
X6163126Y-167345591D01*
X6011643Y-167068885D01*
X5920431Y-166941057D01*
X5828415Y-166812101D01*
X5828414Y-166812100D01*
X5828412Y-166812097D01*
X5722813Y-166696131D01*
X5616019Y-166578852D01*
X5377465Y-166372447D01*
X5377466Y-166372447D01*
X5377463Y-166372445D01*
X5116110Y-166195787D01*
X5034367Y-166153695D01*
X4835663Y-166051376D01*
X4835643Y-166051367D01*
X4540049Y-165941239D01*
X4540047Y-165941238D01*
X4540043Y-165941237D01*
X4335654Y-165891705D01*
X4233457Y-165866938D01*
X4233452Y-165866937D01*
X3952371Y-165833365D01*
X3920229Y-165829526D01*
X3604771Y-165829526D01*
X3575619Y-165833007D01*
X3291547Y-165866937D01*
X3291542Y-165866938D01*
X3098615Y-165913692D01*
X2984957Y-165941237D01*
X2984954Y-165941237D01*
X2984950Y-165941239D01*
X2689356Y-166051367D01*
X2689336Y-166051376D01*
X2408888Y-166195788D01*
X2147534Y-166372447D01*
X1908980Y-166578852D01*
X1696585Y-166812100D01*
X1696584Y-166812101D01*
X1513362Y-167068876D01*
X1361871Y-167345596D01*
X1244278Y-167638307D01*
X1244276Y-167638313D01*
X1162228Y-167942901D01*
X1162225Y-167942914D01*
X1116880Y-168255086D01*
X1116879Y-168255102D01*
X1108877Y-168570430D01*
X1108878Y-168570452D01*
X1138333Y-168884520D01*
X1138333Y-168884523D01*
X1204830Y-169192892D01*
X1204832Y-169192898D01*
X1307428Y-169491195D01*
X1444684Y-169775231D01*
X1444686Y-169775234D01*
X1614659Y-170040983D01*
X1684120Y-170125532D01*
X1700825Y-170145866D01*
X1700912Y-170146019D01*
X1712279Y-170159816D01*
X1716879Y-170166182D01*
X1731616Y-170189561D01*
X1775761Y-170262095D01*
X1787870Y-170288560D01*
X1800177Y-170326783D01*
X1801005Y-170329581D01*
X1817332Y-170389882D01*
X1821414Y-170414796D01*
X1824154Y-170460058D01*
X1824258Y-170464918D01*
X1823196Y-170524139D01*
X1820974Y-170545392D01*
X1811924Y-170592330D01*
X1810269Y-170598938D01*
X1791557Y-170659368D01*
X1788384Y-170667529D01*
X1765509Y-170715934D01*
X1761220Y-170723566D01*
X1726407Y-170776402D01*
X1722354Y-170781874D01*
X1691847Y-170818656D01*
X1676838Y-170833868D01*
X1631761Y-170872287D01*
X1627939Y-170875294D01*
X1591214Y-170901926D01*
X1569379Y-170914586D01*
X1512455Y-170940247D01*
X1509767Y-170941383D01*
X1472401Y-170956153D01*
X1444264Y-170963602D01*
X1360200Y-170975549D01*
X1332748Y-170979012D01*
X1324981Y-170979500D01*
X1002710Y-170979500D01*
X997303Y-170979264D01*
X994422Y-170979012D01*
X954554Y-170975523D01*
X828238Y-170963082D01*
X808299Y-170959454D01*
X741669Y-170941601D01*
X648435Y-170913319D01*
X632027Y-170907040D01*
X583433Y-170884381D01*
X564618Y-170875607D01*
X561605Y-170874101D01*
X477671Y-170829236D01*
X471331Y-170825341D01*
X405170Y-170779015D01*
X401398Y-170776154D01*
X329190Y-170716895D01*
X324688Y-170712815D01*
X267182Y-170655309D01*
X263103Y-170650808D01*
X203844Y-170578600D01*
X200983Y-170574828D01*
X154657Y-170508667D01*
X150762Y-170502327D01*
X125982Y-170455969D01*
X105888Y-170418375D01*
X104406Y-170415411D01*
X72958Y-170347971D01*
X66682Y-170331570D01*
X38398Y-170238330D01*
X20541Y-170171685D01*
X16918Y-170151771D01*
X4482Y-170025519D01*
X735Y-169982695D01*
X500Y-169977293D01*
X500Y-115091074D01*
X37251770Y-115091074D01*
X37281577Y-115514156D01*
X37350874Y-115932613D01*
X37459045Y-116342717D01*
X37459047Y-116342724D01*
X37605150Y-116740906D01*
X37605152Y-116740911D01*
X37768843Y-117083751D01*
X37787900Y-117123664D01*
X37787903Y-117123670D01*
X38005686Y-117487625D01*
X38005690Y-117487631D01*
X38256600Y-117829594D01*
X38538432Y-118146563D01*
X38848707Y-118435748D01*
X38848716Y-118435756D01*
X39184688Y-118694601D01*
X39184695Y-118694606D01*
X39184698Y-118694608D01*
X39543453Y-118920868D01*
X39921819Y-119112539D01*
X40304534Y-119263236D01*
X40316476Y-119267939D01*
X40448644Y-119306135D01*
X40723941Y-119385697D01*
X40723945Y-119385697D01*
X40723945Y-119385698D01*
X41140641Y-119464782D01*
X41140642Y-119464782D01*
X41140647Y-119464783D01*
X41562928Y-119504500D01*
X41562930Y-119504500D01*
X41880981Y-119504500D01*
X41907737Y-119503244D01*
X42198678Y-119489592D01*
X42475865Y-119450341D01*
X42618621Y-119430127D01*
X42618624Y-119430126D01*
X42618633Y-119430125D01*
X43031175Y-119331594D01*
X43218103Y-119267937D01*
X43432666Y-119194869D01*
X43432669Y-119194867D01*
X43432677Y-119194865D01*
X43819611Y-119021140D01*
X44188577Y-118811944D01*
X44536332Y-118569118D01*
X44859821Y-118294794D01*
X45156200Y-117991383D01*
X45422865Y-117661553D01*
X45657473Y-117308200D01*
X45857961Y-116934431D01*
X46022568Y-116543531D01*
X46149848Y-116138934D01*
X46238681Y-115724196D01*
X46288287Y-115302963D01*
X46293256Y-115091074D01*
X116801770Y-115091074D01*
X116831577Y-115514156D01*
X116900874Y-115932613D01*
X117009045Y-116342717D01*
X117009047Y-116342724D01*
X117155150Y-116740906D01*
X117155152Y-116740911D01*
X117318843Y-117083751D01*
X117337900Y-117123664D01*
X117337903Y-117123670D01*
X117555686Y-117487625D01*
X117555690Y-117487631D01*
X117806600Y-117829594D01*
X118088432Y-118146563D01*
X118398707Y-118435748D01*
X118398716Y-118435756D01*
X118734688Y-118694601D01*
X118734695Y-118694606D01*
X118734698Y-118694608D01*
X119093453Y-118920868D01*
X119471819Y-119112539D01*
X119854534Y-119263236D01*
X119866476Y-119267939D01*
X119998644Y-119306135D01*
X120273941Y-119385697D01*
X120273945Y-119385697D01*
X120273945Y-119385698D01*
X120690641Y-119464782D01*
X120690642Y-119464782D01*
X120690647Y-119464783D01*
X121112928Y-119504500D01*
X121112930Y-119504500D01*
X121430981Y-119504500D01*
X121457737Y-119503244D01*
X121748678Y-119489592D01*
X122025865Y-119450341D01*
X122168621Y-119430127D01*
X122168624Y-119430126D01*
X122168633Y-119430125D01*
X122581175Y-119331594D01*
X122768103Y-119267937D01*
X122982666Y-119194869D01*
X122982669Y-119194867D01*
X122982677Y-119194865D01*
X123369611Y-119021140D01*
X123738577Y-118811944D01*
X124086332Y-118569118D01*
X124409821Y-118294794D01*
X124706200Y-117991383D01*
X124972865Y-117661553D01*
X125207473Y-117308200D01*
X125407961Y-116934431D01*
X125572568Y-116543531D01*
X125699848Y-116138934D01*
X125788681Y-115724196D01*
X125838287Y-115302963D01*
X125848230Y-114878935D01*
X125818422Y-114455839D01*
X125749127Y-114037393D01*
X125640952Y-113627275D01*
X125494848Y-113229089D01*
X125312099Y-112846334D01*
X125201678Y-112661800D01*
X125094313Y-112482374D01*
X125094309Y-112482368D01*
X124843399Y-112140405D01*
X124699550Y-111978622D01*
X124561568Y-111823437D01*
X124251293Y-111534252D01*
X124251291Y-111534250D01*
X124251283Y-111534243D01*
X123915311Y-111275398D01*
X123915304Y-111275393D01*
X123556542Y-111049129D01*
X123358602Y-110948858D01*
X123178181Y-110857461D01*
X123027482Y-110798121D01*
X122783523Y-110702060D01*
X122482032Y-110614929D01*
X122376059Y-110584303D01*
X122376054Y-110584302D01*
X122376054Y-110584301D01*
X121959358Y-110505217D01*
X121657723Y-110476847D01*
X121537072Y-110465500D01*
X121219022Y-110465500D01*
X121219019Y-110465500D01*
X121147413Y-110468860D01*
X120901322Y-110480408D01*
X120901316Y-110480408D01*
X120901311Y-110480409D01*
X120481378Y-110539872D01*
X120068815Y-110638408D01*
X120068807Y-110638411D01*
X119667333Y-110775130D01*
X119667316Y-110775137D01*
X119280391Y-110948858D01*
X119280387Y-110948860D01*
X118911423Y-111158055D01*
X118911415Y-111158060D01*
X118563671Y-111400878D01*
X118240174Y-111675210D01*
X117943798Y-111978618D01*
X117943794Y-111978622D01*
X117677145Y-112308434D01*
X117677128Y-112308456D01*
X117442527Y-112661798D01*
X117242035Y-113035575D01*
X117242035Y-113035576D01*
X117077431Y-113426470D01*
X117077429Y-113426476D01*
X116950152Y-113831062D01*
X116861318Y-114245806D01*
X116811712Y-114667037D01*
X116811712Y-114667039D01*
X116801770Y-115091065D01*
X116801770Y-115091074D01*
X46293256Y-115091074D01*
X46298230Y-114878935D01*
X46268422Y-114455839D01*
X46199127Y-114037393D01*
X46090952Y-113627275D01*
X45944848Y-113229089D01*
X45762099Y-112846334D01*
X45651678Y-112661800D01*
X45544313Y-112482374D01*
X45544309Y-112482368D01*
X45293399Y-112140405D01*
X45149550Y-111978622D01*
X45011568Y-111823437D01*
X44701293Y-111534252D01*
X44701291Y-111534250D01*
X44701283Y-111534243D01*
X44365311Y-111275398D01*
X44365304Y-111275393D01*
X44006542Y-111049129D01*
X43808602Y-110948858D01*
X43628181Y-110857461D01*
X43477482Y-110798121D01*
X43233523Y-110702060D01*
X42932032Y-110614929D01*
X42826059Y-110584303D01*
X42826054Y-110584302D01*
X42826054Y-110584301D01*
X42409358Y-110505217D01*
X42107723Y-110476847D01*
X41987072Y-110465500D01*
X41669022Y-110465500D01*
X41669019Y-110465500D01*
X41597413Y-110468860D01*
X41351322Y-110480408D01*
X41351316Y-110480408D01*
X41351311Y-110480409D01*
X40931378Y-110539872D01*
X40518815Y-110638408D01*
X40518807Y-110638411D01*
X40117333Y-110775130D01*
X40117316Y-110775137D01*
X39730391Y-110948858D01*
X39730387Y-110948860D01*
X39361423Y-111158055D01*
X39361415Y-111158060D01*
X39013671Y-111400878D01*
X38690174Y-111675210D01*
X38393798Y-111978618D01*
X38393794Y-111978622D01*
X38127145Y-112308434D01*
X38127128Y-112308456D01*
X37892527Y-112661798D01*
X37692035Y-113035575D01*
X37692035Y-113035576D01*
X37527431Y-113426470D01*
X37527429Y-113426476D01*
X37400152Y-113831062D01*
X37311318Y-114245806D01*
X37261712Y-114667037D01*
X37261712Y-114667039D01*
X37251770Y-115091065D01*
X37251770Y-115091074D01*
X500Y-115091074D01*
X500Y-93250000D01*
X2694655Y-93250000D01*
X2714014Y-93570060D01*
X2714015Y-93570063D01*
X2714015Y-93570066D01*
X2771814Y-93885466D01*
X2771815Y-93885470D01*
X2771816Y-93885474D01*
X2867202Y-94191580D01*
X2867208Y-94191595D01*
X2867209Y-94191598D01*
X2870509Y-94198930D01*
X2998806Y-94483995D01*
X2998807Y-94483996D01*
X2998809Y-94484000D01*
X3164694Y-94758408D01*
X3218813Y-94827486D01*
X3362448Y-95010822D01*
X3589177Y-95237551D01*
X3589181Y-95237554D01*
X3841592Y-95435306D01*
X4116000Y-95601191D01*
X4408402Y-95732791D01*
X4408412Y-95732794D01*
X4408419Y-95732797D01*
X4463493Y-95749958D01*
X4465837Y-95750823D01*
X4468418Y-95751732D01*
X4468423Y-95751734D01*
X4477263Y-95754249D01*
X4714534Y-95828186D01*
X4775081Y-95839281D01*
X4780868Y-95840632D01*
X4782539Y-95841108D01*
X4798908Y-95843648D01*
X5029934Y-95885985D01*
X5095380Y-95889943D01*
X5101126Y-95890561D01*
X5105257Y-95891203D01*
X5127554Y-95891889D01*
X5350000Y-95905345D01*
X5419506Y-95901140D01*
X5425134Y-95901058D01*
X5431684Y-95901260D01*
X5458262Y-95898796D01*
X5670066Y-95885985D01*
X5742587Y-95872695D01*
X5748017Y-95871947D01*
X5756874Y-95871127D01*
X5786244Y-95864694D01*
X5985466Y-95828186D01*
X6059843Y-95805009D01*
X6064958Y-95803655D01*
X6075896Y-95801260D01*
X6106606Y-95790437D01*
X6291598Y-95732791D01*
X6366452Y-95699101D01*
X6371249Y-95697180D01*
X6383914Y-95692718D01*
X6414707Y-95677383D01*
X6577228Y-95604239D01*
X6583994Y-95601194D01*
X6583995Y-95601193D01*
X6584000Y-95601191D01*
X6657896Y-95556519D01*
X6662276Y-95554110D01*
X6676259Y-95547148D01*
X6706015Y-95527430D01*
X6858408Y-95435306D01*
X6929783Y-95379386D01*
X6933714Y-95376551D01*
X6948499Y-95366755D01*
X6976207Y-95343015D01*
X7110819Y-95237554D01*
X7178027Y-95170345D01*
X7181491Y-95167139D01*
X7196508Y-95154274D01*
X7220422Y-95128041D01*
X7222350Y-95126022D01*
X7337554Y-95010819D01*
X7398937Y-94932468D01*
X7401851Y-94929022D01*
X7416525Y-94912927D01*
X7437008Y-94883991D01*
X7438766Y-94881631D01*
X7535306Y-94758408D01*
X7589141Y-94669352D01*
X7591542Y-94665687D01*
X7605216Y-94646371D01*
X7621853Y-94615388D01*
X7623334Y-94612789D01*
X7701191Y-94484000D01*
X7745804Y-94384874D01*
X7747669Y-94381087D01*
X7759720Y-94358647D01*
X7772197Y-94326440D01*
X7773437Y-94323474D01*
X7832791Y-94191598D01*
X7866529Y-94083327D01*
X7867901Y-94079401D01*
X7877696Y-94054118D01*
X7885928Y-94021386D01*
X7886832Y-94018173D01*
X7928186Y-93885466D01*
X7928443Y-93884067D01*
X7931724Y-93866155D01*
X7949505Y-93769129D01*
X7950337Y-93765294D01*
X7957354Y-93737399D01*
X7961376Y-93704910D01*
X7961914Y-93701415D01*
X7985985Y-93570066D01*
X7993424Y-93447077D01*
X7993773Y-93443279D01*
X7997487Y-93413291D01*
X7998155Y-93369871D01*
X7998257Y-93367165D01*
X8005345Y-93250000D01*
X7998258Y-93132838D01*
X7998155Y-93130124D01*
X7997487Y-93086709D01*
X7993774Y-93056725D01*
X7993424Y-93052919D01*
X7985985Y-92929934D01*
X7961914Y-92798582D01*
X7961375Y-92795079D01*
X7957354Y-92762601D01*
X7950345Y-92734734D01*
X7949502Y-92730853D01*
X7932263Y-92636785D01*
X7928187Y-92614538D01*
X7921114Y-92591839D01*
X7886840Y-92481850D01*
X7885918Y-92478574D01*
X7877696Y-92445882D01*
X7867892Y-92420576D01*
X7866531Y-92416679D01*
X7832791Y-92308402D01*
X7773457Y-92176569D01*
X7772187Y-92173533D01*
X7767969Y-92162647D01*
X7759720Y-92141353D01*
X7747693Y-92118956D01*
X7745785Y-92115084D01*
X7701191Y-92016000D01*
X7623362Y-91887256D01*
X7621839Y-91884585D01*
X7605216Y-91853629D01*
X7591560Y-91834339D01*
X7589119Y-91830610D01*
X7535312Y-91741601D01*
X7535307Y-91741594D01*
X7535306Y-91741592D01*
X7438787Y-91618395D01*
X7436991Y-91615984D01*
X7416527Y-91587076D01*
X7416525Y-91587073D01*
X7401870Y-91570998D01*
X7398902Y-91567486D01*
X7337554Y-91489181D01*
X7337550Y-91489177D01*
X7222347Y-91373974D01*
X7220403Y-91371938D01*
X7196508Y-91345726D01*
X7181498Y-91332866D01*
X7177998Y-91329625D01*
X7110818Y-91262445D01*
X6976209Y-91156985D01*
X6948495Y-91133242D01*
X6933743Y-91123466D01*
X6929752Y-91120588D01*
X6858414Y-91064698D01*
X6858406Y-91064692D01*
X6706021Y-90972573D01*
X6676261Y-90952853D01*
X6676262Y-90952853D01*
X6662298Y-90945900D01*
X6657873Y-90943466D01*
X6592561Y-90903984D01*
X6584004Y-90898811D01*
X6583987Y-90898803D01*
X6414728Y-90822625D01*
X6383909Y-90807279D01*
X6371269Y-90802825D01*
X6366431Y-90800888D01*
X6291597Y-90767208D01*
X6291579Y-90767202D01*
X6106633Y-90709571D01*
X6075902Y-90698742D01*
X6075901Y-90698741D01*
X6075896Y-90698740D01*
X6068897Y-90697207D01*
X6064971Y-90696347D01*
X6059793Y-90694975D01*
X5985474Y-90671816D01*
X5985470Y-90671815D01*
X5985466Y-90671814D01*
X5850310Y-90647045D01*
X5786249Y-90635306D01*
X5756884Y-90628874D01*
X5756868Y-90628872D01*
X5748025Y-90628052D01*
X5742571Y-90627301D01*
X5686176Y-90616967D01*
X5670066Y-90614015D01*
X5670063Y-90614014D01*
X5670065Y-90614014D01*
X5458285Y-90601204D01*
X5442666Y-90599757D01*
X5431684Y-90598740D01*
X5431678Y-90598740D01*
X5431677Y-90598740D01*
X5431666Y-90598739D01*
X5425123Y-90598940D01*
X5419480Y-90598856D01*
X5350000Y-90594655D01*
X5127561Y-90608108D01*
X5107913Y-90608715D01*
X5105257Y-90608797D01*
X5105245Y-90608798D01*
X5105243Y-90608799D01*
X5101136Y-90609436D01*
X5095376Y-90610056D01*
X5029930Y-90614015D01*
X4798938Y-90656346D01*
X4782551Y-90658889D01*
X4782503Y-90658900D01*
X4780817Y-90659379D01*
X4775063Y-90660720D01*
X4714530Y-90671814D01*
X4477272Y-90745747D01*
X4468419Y-90748267D01*
X4465602Y-90749258D01*
X4462960Y-90750206D01*
X4408406Y-90767207D01*
X4116004Y-90898806D01*
X4116001Y-90898808D01*
X4116000Y-90898809D01*
X4058640Y-90933484D01*
X3841594Y-91064692D01*
X3589177Y-91262448D01*
X3362448Y-91489177D01*
X3164692Y-91741594D01*
X2998808Y-92016002D01*
X2998806Y-92016004D01*
X2867208Y-92308404D01*
X2867202Y-92308419D01*
X2771816Y-92614525D01*
X2771814Y-92614531D01*
X2771814Y-92614534D01*
X2758860Y-92685221D01*
X2714014Y-92929939D01*
X2694655Y-93250000D01*
X500Y-93250000D01*
X500Y-84000000D01*
X69044581Y-84000000D01*
X69064254Y-84701184D01*
X69123212Y-85400163D01*
X69221270Y-86094736D01*
X69358118Y-86782718D01*
X69533326Y-87461944D01*
X69746343Y-88130278D01*
X69845592Y-88390282D01*
X69996494Y-88785606D01*
X69996495Y-88785607D01*
X70283008Y-89425902D01*
X70432525Y-89715319D01*
X70604964Y-90049107D01*
X70959501Y-90650135D01*
X70961360Y-90653285D01*
X70961360Y-90653286D01*
X71351070Y-91236527D01*
X71772873Y-91797005D01*
X72206459Y-92310474D01*
X72225433Y-92332944D01*
X72225433Y-92332945D01*
X72707333Y-92842667D01*
X73217055Y-93324567D01*
X73217056Y-93324567D01*
X73217057Y-93324568D01*
X73752995Y-93777127D01*
X74313473Y-94198930D01*
X74896714Y-94588640D01*
X74896715Y-94588640D01*
X74896716Y-94588641D01*
X75500893Y-94945036D01*
X75500895Y-94945037D01*
X75500902Y-94945041D01*
X76124098Y-95266992D01*
X76500244Y-95435306D01*
X76764383Y-95553501D01*
X76885021Y-95599550D01*
X76887586Y-95600599D01*
X76888360Y-95600936D01*
X76897285Y-95604232D01*
X77419722Y-95803657D01*
X77419725Y-95803658D01*
X77546410Y-95844036D01*
X77549063Y-95844948D01*
X77552147Y-95846087D01*
X77552149Y-95846088D01*
X77569972Y-95851546D01*
X78088056Y-96016674D01*
X78220657Y-96050878D01*
X78223292Y-96051622D01*
X78228746Y-96053293D01*
X78240686Y-96056222D01*
X78254692Y-96059659D01*
X78658367Y-96163787D01*
X78767282Y-96191882D01*
X78906765Y-96219627D01*
X78915982Y-96221888D01*
X78949267Y-96228081D01*
X79226605Y-96283247D01*
X79455250Y-96328728D01*
X79455251Y-96328728D01*
X79455261Y-96328729D01*
X79455264Y-96328730D01*
X79599986Y-96349161D01*
X79607936Y-96350641D01*
X79611652Y-96351333D01*
X79611647Y-96351332D01*
X79611652Y-96351332D01*
X79611654Y-96351333D01*
X79651544Y-96356440D01*
X80069287Y-96415416D01*
X80149828Y-96426787D01*
X80149832Y-96426787D01*
X80149837Y-96426788D01*
X80299440Y-96439406D01*
X80310826Y-96440865D01*
X80313543Y-96441213D01*
X80313545Y-96441213D01*
X80334669Y-96442709D01*
X80359224Y-96444449D01*
X80848816Y-96485746D01*
X80848815Y-96485746D01*
X80852106Y-96485838D01*
X81002864Y-96490068D01*
X81018109Y-96491149D01*
X81019378Y-96491239D01*
X81019375Y-96491239D01*
X81041703Y-96491554D01*
X81070252Y-96491958D01*
X81550000Y-96505419D01*
X81550001Y-96505419D01*
X81553038Y-96505333D01*
X81708054Y-96500984D01*
X81726921Y-96501252D01*
X81726923Y-96501251D01*
X81726930Y-96501252D01*
X81726932Y-96501252D01*
X81773118Y-96499289D01*
X81782112Y-96498906D01*
X82251184Y-96485746D01*
X82251185Y-96485746D01*
X82270279Y-96484135D01*
X82412747Y-96472118D01*
X82428741Y-96471439D01*
X82433901Y-96471220D01*
X82433902Y-96471220D01*
X82478897Y-96466747D01*
X82492786Y-96465367D01*
X82950163Y-96426788D01*
X82950167Y-96426787D01*
X82950172Y-96426787D01*
X82980153Y-96422554D01*
X83114714Y-96403557D01*
X83135807Y-96401460D01*
X83138042Y-96401239D01*
X83138043Y-96401239D01*
X83199927Y-96391527D01*
X83265444Y-96382277D01*
X83644736Y-96328730D01*
X83644738Y-96328729D01*
X83644749Y-96328728D01*
X83644750Y-96328728D01*
X83695441Y-96318644D01*
X83811717Y-96295515D01*
X83837098Y-96291533D01*
X83901246Y-96277706D01*
X84332718Y-96191882D01*
X84501527Y-96148337D01*
X84518940Y-96144585D01*
X84528823Y-96142456D01*
X84528821Y-96142456D01*
X84528825Y-96142454D01*
X84528829Y-96142454D01*
X84594669Y-96124310D01*
X85011944Y-96016674D01*
X85181965Y-95962483D01*
X85211018Y-95954478D01*
X85211027Y-95954475D01*
X85211029Y-95954475D01*
X85237227Y-95945632D01*
X85277882Y-95931911D01*
X85680278Y-95803657D01*
X85850870Y-95738538D01*
X85881479Y-95728209D01*
X85881478Y-95728209D01*
X85881485Y-95728207D01*
X85881486Y-95728206D01*
X85948766Y-95701169D01*
X86224240Y-95596016D01*
X86335606Y-95553506D01*
X86335607Y-95553505D01*
X86335609Y-95553503D01*
X86335617Y-95553501D01*
X86506068Y-95477229D01*
X86538059Y-95464374D01*
X86538059Y-95464373D01*
X86538066Y-95464371D01*
X86605281Y-95432833D01*
X86880331Y-95309756D01*
X86975888Y-95266998D01*
X86975900Y-95266992D01*
X87145540Y-95179353D01*
X87178674Y-95163809D01*
X87178676Y-95163808D01*
X87178675Y-95163809D01*
X87207409Y-95148285D01*
X87245284Y-95127824D01*
X87497708Y-94997419D01*
X87599106Y-94945037D01*
X87599106Y-94945036D01*
X87599107Y-94945036D01*
X87767189Y-94845886D01*
X87801252Y-94827486D01*
X87801260Y-94827481D01*
X87801261Y-94827481D01*
X87825319Y-94812667D01*
X87866714Y-94787178D01*
X88203284Y-94588641D01*
X88369082Y-94477857D01*
X88403805Y-94456479D01*
X88467671Y-94411982D01*
X88786527Y-94198930D01*
X88949266Y-94076456D01*
X88964936Y-94065539D01*
X88984395Y-94051984D01*
X88984394Y-94051984D01*
X88984404Y-94051977D01*
X89046243Y-94003473D01*
X89271796Y-93833726D01*
X89347003Y-93777129D01*
X89394052Y-93737399D01*
X89505900Y-93642951D01*
X89541187Y-93615276D01*
X89600586Y-93562996D01*
X89882943Y-93324568D01*
X89961816Y-93250000D01*
X155094655Y-93250000D01*
X155114014Y-93570060D01*
X155114015Y-93570063D01*
X155114015Y-93570066D01*
X155171814Y-93885466D01*
X155171815Y-93885470D01*
X155171816Y-93885474D01*
X155267202Y-94191580D01*
X155267208Y-94191595D01*
X155267209Y-94191598D01*
X155270509Y-94198930D01*
X155398806Y-94483995D01*
X155398807Y-94483996D01*
X155398809Y-94484000D01*
X155564694Y-94758408D01*
X155618813Y-94827486D01*
X155762448Y-95010822D01*
X155989177Y-95237551D01*
X155989181Y-95237554D01*
X156241592Y-95435306D01*
X156516000Y-95601191D01*
X156808402Y-95732791D01*
X156808412Y-95732794D01*
X156808419Y-95732797D01*
X156863493Y-95749958D01*
X156865837Y-95750823D01*
X156868418Y-95751732D01*
X156868423Y-95751734D01*
X156877263Y-95754249D01*
X157114534Y-95828186D01*
X157175081Y-95839281D01*
X157180868Y-95840632D01*
X157182539Y-95841108D01*
X157198908Y-95843648D01*
X157429934Y-95885985D01*
X157495380Y-95889943D01*
X157501126Y-95890561D01*
X157505257Y-95891203D01*
X157527554Y-95891889D01*
X157750000Y-95905345D01*
X157819506Y-95901140D01*
X157825134Y-95901058D01*
X157831684Y-95901260D01*
X157858262Y-95898796D01*
X158070066Y-95885985D01*
X158142587Y-95872695D01*
X158148017Y-95871947D01*
X158156874Y-95871127D01*
X158186244Y-95864694D01*
X158385466Y-95828186D01*
X158459843Y-95805009D01*
X158464958Y-95803655D01*
X158475896Y-95801260D01*
X158506606Y-95790437D01*
X158691598Y-95732791D01*
X158766452Y-95699101D01*
X158771249Y-95697180D01*
X158783914Y-95692718D01*
X158814707Y-95677383D01*
X158977228Y-95604239D01*
X158983994Y-95601194D01*
X158983995Y-95601193D01*
X158984000Y-95601191D01*
X159057896Y-95556519D01*
X159062276Y-95554110D01*
X159076259Y-95547148D01*
X159106015Y-95527430D01*
X159258408Y-95435306D01*
X159329783Y-95379386D01*
X159333714Y-95376551D01*
X159348499Y-95366755D01*
X159376207Y-95343015D01*
X159510819Y-95237554D01*
X159578027Y-95170345D01*
X159581491Y-95167139D01*
X159596508Y-95154274D01*
X159620422Y-95128041D01*
X159622350Y-95126022D01*
X159737554Y-95010819D01*
X159798937Y-94932468D01*
X159801851Y-94929022D01*
X159816525Y-94912927D01*
X159837008Y-94883991D01*
X159838766Y-94881631D01*
X159935306Y-94758408D01*
X159989141Y-94669352D01*
X159991542Y-94665687D01*
X160005216Y-94646371D01*
X160021853Y-94615388D01*
X160023334Y-94612789D01*
X160101191Y-94484000D01*
X160145804Y-94384874D01*
X160147669Y-94381087D01*
X160159720Y-94358647D01*
X160172197Y-94326440D01*
X160173437Y-94323474D01*
X160232791Y-94191598D01*
X160266529Y-94083327D01*
X160267901Y-94079401D01*
X160277696Y-94054118D01*
X160285928Y-94021386D01*
X160286832Y-94018173D01*
X160328186Y-93885466D01*
X160328443Y-93884067D01*
X160331724Y-93866155D01*
X160349505Y-93769129D01*
X160350337Y-93765294D01*
X160357354Y-93737399D01*
X160361376Y-93704910D01*
X160361914Y-93701415D01*
X160385985Y-93570066D01*
X160393424Y-93447077D01*
X160393773Y-93443279D01*
X160397487Y-93413291D01*
X160398155Y-93369871D01*
X160398257Y-93367165D01*
X160405345Y-93250000D01*
X160398258Y-93132838D01*
X160398155Y-93130124D01*
X160397487Y-93086709D01*
X160393774Y-93056725D01*
X160393424Y-93052919D01*
X160385985Y-92929934D01*
X160361914Y-92798582D01*
X160361375Y-92795079D01*
X160357354Y-92762601D01*
X160350345Y-92734734D01*
X160349502Y-92730853D01*
X160332263Y-92636785D01*
X160328187Y-92614538D01*
X160321114Y-92591839D01*
X160286840Y-92481850D01*
X160285918Y-92478574D01*
X160277696Y-92445882D01*
X160267892Y-92420576D01*
X160266531Y-92416679D01*
X160232791Y-92308402D01*
X160173457Y-92176569D01*
X160172187Y-92173533D01*
X160167969Y-92162647D01*
X160159720Y-92141353D01*
X160147693Y-92118956D01*
X160145785Y-92115084D01*
X160101191Y-92016000D01*
X160023362Y-91887256D01*
X160021839Y-91884585D01*
X160005216Y-91853629D01*
X159991560Y-91834339D01*
X159989119Y-91830610D01*
X159935312Y-91741601D01*
X159935307Y-91741594D01*
X159935306Y-91741592D01*
X159838787Y-91618395D01*
X159836991Y-91615984D01*
X159816527Y-91587076D01*
X159816525Y-91587073D01*
X159801870Y-91570998D01*
X159798902Y-91567486D01*
X159737554Y-91489181D01*
X159737550Y-91489177D01*
X159622347Y-91373974D01*
X159620403Y-91371938D01*
X159596508Y-91345726D01*
X159581498Y-91332866D01*
X159577998Y-91329625D01*
X159510818Y-91262445D01*
X159376209Y-91156985D01*
X159348495Y-91133242D01*
X159333743Y-91123466D01*
X159329752Y-91120588D01*
X159258414Y-91064698D01*
X159258406Y-91064692D01*
X159106021Y-90972573D01*
X159076261Y-90952853D01*
X159076262Y-90952853D01*
X159062298Y-90945900D01*
X159057873Y-90943466D01*
X158992561Y-90903984D01*
X158984004Y-90898811D01*
X158983987Y-90898803D01*
X158814728Y-90822625D01*
X158783909Y-90807279D01*
X158771269Y-90802825D01*
X158766431Y-90800888D01*
X158691597Y-90767208D01*
X158691579Y-90767202D01*
X158506633Y-90709571D01*
X158475902Y-90698742D01*
X158475901Y-90698741D01*
X158475896Y-90698740D01*
X158468897Y-90697207D01*
X158464971Y-90696347D01*
X158459793Y-90694975D01*
X158385474Y-90671816D01*
X158385470Y-90671815D01*
X158385466Y-90671814D01*
X158250310Y-90647045D01*
X158186249Y-90635306D01*
X158156884Y-90628874D01*
X158156868Y-90628872D01*
X158148025Y-90628052D01*
X158142571Y-90627301D01*
X158086176Y-90616967D01*
X158070066Y-90614015D01*
X158070063Y-90614014D01*
X158070065Y-90614014D01*
X157858285Y-90601204D01*
X157842666Y-90599757D01*
X157831684Y-90598740D01*
X157831678Y-90598740D01*
X157831677Y-90598740D01*
X157831666Y-90598739D01*
X157825123Y-90598940D01*
X157819480Y-90598856D01*
X157750000Y-90594655D01*
X157527561Y-90608108D01*
X157507913Y-90608715D01*
X157505257Y-90608797D01*
X157505245Y-90608798D01*
X157505243Y-90608799D01*
X157501136Y-90609436D01*
X157495376Y-90610056D01*
X157429930Y-90614015D01*
X157198938Y-90656346D01*
X157182551Y-90658889D01*
X157182503Y-90658900D01*
X157180817Y-90659379D01*
X157175063Y-90660720D01*
X157114530Y-90671814D01*
X156877272Y-90745747D01*
X156868419Y-90748267D01*
X156865602Y-90749258D01*
X156862960Y-90750206D01*
X156808406Y-90767207D01*
X156516004Y-90898806D01*
X156516001Y-90898808D01*
X156516000Y-90898809D01*
X156458640Y-90933484D01*
X156241594Y-91064692D01*
X155989177Y-91262448D01*
X155762448Y-91489177D01*
X155564692Y-91741594D01*
X155398808Y-92016002D01*
X155398806Y-92016004D01*
X155267208Y-92308404D01*
X155267202Y-92308419D01*
X155171816Y-92614525D01*
X155171814Y-92614531D01*
X155171814Y-92614534D01*
X155158860Y-92685221D01*
X155114014Y-92929939D01*
X155094655Y-93250000D01*
X89961816Y-93250000D01*
X90037219Y-93178712D01*
X90072373Y-93147774D01*
X90128988Y-93091952D01*
X90392667Y-92842667D01*
X90541544Y-92685193D01*
X90576259Y-92650968D01*
X90629763Y-92591881D01*
X90874567Y-92332944D01*
X90874567Y-92332945D01*
X90916059Y-92283807D01*
X91017205Y-92164025D01*
X91051231Y-92126452D01*
X91101358Y-92064368D01*
X91327127Y-91797005D01*
X91327129Y-91797003D01*
X91346309Y-91771515D01*
X91462754Y-91616788D01*
X91495768Y-91575903D01*
X91495772Y-91575898D01*
X91495773Y-91575897D01*
X91509098Y-91557335D01*
X91542266Y-91511135D01*
X91748930Y-91236527D01*
X91876731Y-91045258D01*
X91908445Y-91001087D01*
X91951086Y-90933980D01*
X92138640Y-90653286D01*
X92138640Y-90653285D01*
X92138641Y-90653284D01*
X92257817Y-90451250D01*
X92287941Y-90403844D01*
X92326524Y-90334774D01*
X92495036Y-90049107D01*
X92496516Y-90046244D01*
X92533732Y-89974203D01*
X92604777Y-89836680D01*
X92633041Y-89786088D01*
X92667475Y-89715319D01*
X92816998Y-89425888D01*
X92916532Y-89203451D01*
X92920928Y-89194414D01*
X92942638Y-89149797D01*
X92972773Y-89077763D01*
X93103501Y-88785617D01*
X93192081Y-88553560D01*
X93215741Y-88497010D01*
X93241530Y-88424017D01*
X93353657Y-88130278D01*
X93430514Y-87889140D01*
X93451478Y-87829808D01*
X93472875Y-87756234D01*
X93566673Y-87461946D01*
X93566674Y-87461944D01*
X93631082Y-87212253D01*
X93649085Y-87150357D01*
X93666088Y-87076543D01*
X93741882Y-86782718D01*
X93793122Y-86525114D01*
X93807938Y-86460805D01*
X93820577Y-86387086D01*
X93852957Y-86224302D01*
X93878728Y-86094750D01*
X93878728Y-86094749D01*
X93916126Y-85829847D01*
X93927525Y-85763374D01*
X93927525Y-85763373D01*
X93935856Y-85690093D01*
X93976787Y-85400172D01*
X93976844Y-85399500D01*
X93999687Y-85128675D01*
X94007464Y-85060286D01*
X94011572Y-84987779D01*
X94035746Y-84701184D01*
X94043526Y-84423872D01*
X94047497Y-84353803D01*
X94047497Y-84353802D01*
X94048172Y-84258275D01*
X94055419Y-84000000D01*
X94048172Y-83741725D01*
X94047497Y-83646193D01*
X94043527Y-83576148D01*
X94035746Y-83298816D01*
X94011572Y-83012228D01*
X94007464Y-82939714D01*
X93999688Y-82871332D01*
X93976788Y-82599837D01*
X93935854Y-82309895D01*
X93927525Y-82236631D01*
X93927525Y-82236630D01*
X93916130Y-82170179D01*
X93878730Y-81905264D01*
X93878728Y-81905254D01*
X93878728Y-81905251D01*
X93878728Y-81905250D01*
X93820580Y-81612926D01*
X93807938Y-81539195D01*
X93793119Y-81474870D01*
X93741882Y-81217282D01*
X93666091Y-80923467D01*
X93649085Y-80849643D01*
X93631080Y-80787737D01*
X93566674Y-80538056D01*
X93472873Y-80243760D01*
X93451478Y-80170193D01*
X93451478Y-80170191D01*
X93430511Y-80110849D01*
X93353658Y-79869726D01*
X93353657Y-79869722D01*
X93241530Y-79575982D01*
X93215741Y-79502990D01*
X93215738Y-79502983D01*
X93215739Y-79502984D01*
X93207464Y-79483206D01*
X93192075Y-79446423D01*
X93103501Y-79214383D01*
X92972775Y-78922239D01*
X92942638Y-78850203D01*
X92942634Y-78850195D01*
X92916532Y-78796550D01*
X92816998Y-78574112D01*
X92667474Y-78284680D01*
X92633040Y-78213910D01*
X92633041Y-78213911D01*
X92604774Y-78163312D01*
X92495041Y-77950902D01*
X92495036Y-77950893D01*
X92326528Y-77665230D01*
X92287941Y-77596156D01*
X92257812Y-77548741D01*
X92138641Y-77346716D01*
X91951070Y-77065996D01*
X91908445Y-76998913D01*
X91876722Y-76954727D01*
X91748930Y-76763473D01*
X91542271Y-76488872D01*
X91495772Y-76424102D01*
X91495768Y-76424097D01*
X91462736Y-76383187D01*
X91381413Y-76275128D01*
X91327136Y-76203006D01*
X91327136Y-76203007D01*
X91327130Y-76202999D01*
X91101390Y-75935668D01*
X91051231Y-75873548D01*
X91051223Y-75873539D01*
X91051223Y-75873538D01*
X91017196Y-75835962D01*
X90874567Y-75667056D01*
X90874567Y-75667055D01*
X90629784Y-75408140D01*
X90576270Y-75349044D01*
X90576268Y-75349042D01*
X90576259Y-75349032D01*
X90541531Y-75314792D01*
X90392667Y-75157333D01*
X90129020Y-74908077D01*
X90125345Y-74904453D01*
X90072373Y-74852226D01*
X90065791Y-74846433D01*
X90037214Y-74821281D01*
X89882945Y-74675433D01*
X89882944Y-74675433D01*
X89882943Y-74675432D01*
X89600619Y-74437031D01*
X89541189Y-74384726D01*
X89541188Y-74384725D01*
X89505889Y-74357037D01*
X89352480Y-74227497D01*
X89347001Y-74222870D01*
X89046282Y-73996555D01*
X89009804Y-73967945D01*
X88984404Y-73948023D01*
X88984397Y-73948018D01*
X88984398Y-73948018D01*
X88963934Y-73933761D01*
X88949248Y-73923530D01*
X88786527Y-73801070D01*
X88467694Y-73588032D01*
X88403815Y-73543527D01*
X88369069Y-73522132D01*
X88203286Y-73411360D01*
X88203285Y-73411360D01*
X88203284Y-73411359D01*
X87866759Y-73212847D01*
X87801267Y-73172523D01*
X87801266Y-73172522D01*
X87801257Y-73172517D01*
X87801252Y-73172514D01*
X87786589Y-73164593D01*
X87767183Y-73154109D01*
X87607890Y-73060145D01*
X87599107Y-73054964D01*
X87599102Y-73054961D01*
X87599098Y-73054959D01*
X87245306Y-72872186D01*
X87178676Y-72836192D01*
X87178677Y-72836192D01*
X87170637Y-72832420D01*
X87145519Y-72820635D01*
X86975898Y-72733007D01*
X86975895Y-72733005D01*
X86975888Y-72733002D01*
X86975887Y-72733002D01*
X86605331Y-72567188D01*
X86579276Y-72554964D01*
X86538066Y-72535629D01*
X86506068Y-72522771D01*
X86468172Y-72505814D01*
X86335617Y-72446499D01*
X86335614Y-72446498D01*
X86335615Y-72446498D01*
X85948822Y-72298851D01*
X85881475Y-72271789D01*
X85881476Y-72271790D01*
X85850862Y-72261458D01*
X85785945Y-72236678D01*
X85680278Y-72196343D01*
X85277927Y-72068102D01*
X85241098Y-72055673D01*
X85211025Y-72045524D01*
X85211026Y-72045524D01*
X85181963Y-72037516D01*
X85011944Y-71983326D01*
X84763858Y-71919331D01*
X84594714Y-71875700D01*
X84528826Y-71857545D01*
X84528827Y-71857545D01*
X84501510Y-71851658D01*
X84332718Y-71808118D01*
X84181868Y-71778112D01*
X83901309Y-71722305D01*
X83837094Y-71708466D01*
X83837097Y-71708466D01*
X83821188Y-71705970D01*
X83811690Y-71704479D01*
X83644746Y-71671272D01*
X83644736Y-71671270D01*
X83467412Y-71646235D01*
X83199926Y-71608472D01*
X83138037Y-71598760D01*
X83138039Y-71598760D01*
X83125909Y-71597555D01*
X83114697Y-71596440D01*
X83039822Y-71585869D01*
X82950172Y-71573213D01*
X82950167Y-71573212D01*
X82950163Y-71573212D01*
X82839308Y-71563861D01*
X82492797Y-71534633D01*
X82433898Y-71528780D01*
X82433900Y-71528780D01*
X82429164Y-71528578D01*
X82412742Y-71527881D01*
X82287404Y-71517309D01*
X82251185Y-71514254D01*
X82251184Y-71514254D01*
X81782169Y-71501094D01*
X81726932Y-71498748D01*
X81726929Y-71498748D01*
X81726922Y-71498748D01*
X81726921Y-71498748D01*
X81720402Y-71498840D01*
X81708039Y-71499015D01*
X81550000Y-71494581D01*
X81070262Y-71508040D01*
X81020156Y-71508750D01*
X81019379Y-71508761D01*
X81009619Y-71509452D01*
X81002855Y-71509932D01*
X80848816Y-71514254D01*
X80848815Y-71514254D01*
X80359269Y-71555546D01*
X80313539Y-71558787D01*
X80313540Y-71558787D01*
X80299438Y-71560593D01*
X80222565Y-71567077D01*
X80149837Y-71573212D01*
X80149831Y-71573212D01*
X80149829Y-71573213D01*
X80149830Y-71573213D01*
X79651604Y-71643551D01*
X79611651Y-71648667D01*
X79611653Y-71648667D01*
X79599978Y-71650839D01*
X79513914Y-71662989D01*
X79455264Y-71671270D01*
X79455256Y-71671271D01*
X79455253Y-71671272D01*
X78949296Y-71771913D01*
X78941209Y-71773417D01*
X78915982Y-71778112D01*
X78915975Y-71778113D01*
X78915973Y-71778114D01*
X78906760Y-71780374D01*
X78852450Y-71791176D01*
X78767282Y-71808118D01*
X78744910Y-71813889D01*
X78254691Y-71940341D01*
X78228749Y-71946706D01*
X78228747Y-71946706D01*
X78228746Y-71946707D01*
X78226982Y-71947246D01*
X78221957Y-71948785D01*
X78088059Y-71983325D01*
X77569972Y-72148453D01*
X77558721Y-72151899D01*
X77552150Y-72153912D01*
X77552139Y-72153915D01*
X77552139Y-72153916D01*
X77552134Y-72153917D01*
X77549062Y-72155051D01*
X77546423Y-72155958D01*
X77436528Y-72190986D01*
X77419722Y-72196343D01*
X77249139Y-72261458D01*
X76897275Y-72395771D01*
X76891753Y-72397810D01*
X76888360Y-72399064D01*
X76888355Y-72399066D01*
X76888350Y-72399068D01*
X76888325Y-72399078D01*
X76887548Y-72399415D01*
X76884971Y-72400466D01*
X76764385Y-72446498D01*
X76764383Y-72446499D01*
X76424279Y-72598685D01*
X76124098Y-72733008D01*
X75500902Y-73054959D01*
X75500897Y-73054961D01*
X75500893Y-73054964D01*
X74896716Y-73411359D01*
X74896715Y-73411360D01*
X74896714Y-73411360D01*
X74313473Y-73801070D01*
X73752999Y-74222870D01*
X73217057Y-74675432D01*
X73217056Y-74675433D01*
X73217055Y-74675433D01*
X72707333Y-75157333D01*
X72225433Y-75667055D01*
X72225432Y-75667057D01*
X71772873Y-76202996D01*
X71772873Y-76202995D01*
X71772870Y-76202999D01*
X71351070Y-76763473D01*
X70961359Y-77346716D01*
X70842203Y-77548715D01*
X70604959Y-77950902D01*
X70283008Y-78574098D01*
X69996495Y-79214393D01*
X69996494Y-79214394D01*
X69886334Y-79502984D01*
X69746343Y-79869722D01*
X69533326Y-80538056D01*
X69358118Y-81217282D01*
X69221270Y-81905264D01*
X69123212Y-82599837D01*
X69064254Y-83298816D01*
X69044581Y-84000000D01*
X500Y-84000000D01*
X500Y-67850000D01*
X2694655Y-67850000D01*
X2714014Y-68170060D01*
X2714015Y-68170063D01*
X2714015Y-68170066D01*
X2771814Y-68485466D01*
X2771815Y-68485470D01*
X2771816Y-68485474D01*
X2867202Y-68791580D01*
X2867208Y-68791595D01*
X2867209Y-68791598D01*
X2909108Y-68884694D01*
X2998806Y-69083995D01*
X2998807Y-69083996D01*
X2998809Y-69084000D01*
X3164693Y-69358407D01*
X3362448Y-69610822D01*
X3589177Y-69837551D01*
X3589181Y-69837554D01*
X3841592Y-70035306D01*
X4116000Y-70201191D01*
X4408402Y-70332791D01*
X4408412Y-70332794D01*
X4408419Y-70332797D01*
X4463493Y-70349958D01*
X4465837Y-70350823D01*
X4468418Y-70351732D01*
X4468423Y-70351734D01*
X4477263Y-70354249D01*
X4714534Y-70428186D01*
X4775081Y-70439281D01*
X4780868Y-70440632D01*
X4782539Y-70441108D01*
X4798908Y-70443648D01*
X5029934Y-70485985D01*
X5095380Y-70489943D01*
X5101126Y-70490561D01*
X5105257Y-70491203D01*
X5127554Y-70491889D01*
X5350000Y-70505345D01*
X5419506Y-70501140D01*
X5425134Y-70501058D01*
X5431684Y-70501260D01*
X5458262Y-70498796D01*
X5670066Y-70485985D01*
X5742587Y-70472695D01*
X5748017Y-70471947D01*
X5756874Y-70471127D01*
X5786244Y-70464694D01*
X5985466Y-70428186D01*
X6059843Y-70405009D01*
X6064958Y-70403655D01*
X6075896Y-70401260D01*
X6106606Y-70390437D01*
X6291598Y-70332791D01*
X6366452Y-70299101D01*
X6371249Y-70297180D01*
X6383914Y-70292718D01*
X6414707Y-70277383D01*
X6545179Y-70218662D01*
X6583994Y-70201194D01*
X6583995Y-70201193D01*
X6584000Y-70201191D01*
X6657896Y-70156519D01*
X6662276Y-70154110D01*
X6676259Y-70147148D01*
X6706015Y-70127430D01*
X6858408Y-70035306D01*
X6929783Y-69979386D01*
X6933714Y-69976551D01*
X6948499Y-69966755D01*
X6976207Y-69943015D01*
X7110819Y-69837554D01*
X7178027Y-69770345D01*
X7181491Y-69767139D01*
X7196508Y-69754274D01*
X7220422Y-69728041D01*
X7222350Y-69726022D01*
X7337554Y-69610819D01*
X7398937Y-69532468D01*
X7401851Y-69529022D01*
X7416525Y-69512927D01*
X7437008Y-69483991D01*
X7438766Y-69481631D01*
X7535306Y-69358408D01*
X7589141Y-69269352D01*
X7591542Y-69265687D01*
X7605216Y-69246371D01*
X7621853Y-69215388D01*
X7623334Y-69212789D01*
X7701191Y-69084000D01*
X7745804Y-68984874D01*
X7747669Y-68981087D01*
X7759720Y-68958647D01*
X7772197Y-68926440D01*
X7773437Y-68923474D01*
X7832791Y-68791598D01*
X7866529Y-68683327D01*
X7867901Y-68679401D01*
X7877696Y-68654118D01*
X7885928Y-68621386D01*
X7886832Y-68618173D01*
X7928186Y-68485466D01*
X7928443Y-68484067D01*
X7931724Y-68466155D01*
X7949505Y-68369129D01*
X7950337Y-68365294D01*
X7957354Y-68337399D01*
X7961376Y-68304910D01*
X7961914Y-68301415D01*
X7985985Y-68170066D01*
X7993424Y-68047077D01*
X7993773Y-68043279D01*
X7997487Y-68013291D01*
X7998155Y-67969871D01*
X7998257Y-67967165D01*
X8005345Y-67850000D01*
X155094655Y-67850000D01*
X155114014Y-68170060D01*
X155114015Y-68170063D01*
X155114015Y-68170066D01*
X155171814Y-68485466D01*
X155171815Y-68485470D01*
X155171816Y-68485474D01*
X155267202Y-68791580D01*
X155267208Y-68791595D01*
X155267209Y-68791598D01*
X155309108Y-68884694D01*
X155398806Y-69083995D01*
X155398807Y-69083996D01*
X155398809Y-69084000D01*
X155564693Y-69358407D01*
X155762448Y-69610822D01*
X155989177Y-69837551D01*
X155989181Y-69837554D01*
X156241592Y-70035306D01*
X156516000Y-70201191D01*
X156808402Y-70332791D01*
X156808412Y-70332794D01*
X156808419Y-70332797D01*
X156863493Y-70349958D01*
X156865837Y-70350823D01*
X156868418Y-70351732D01*
X156868423Y-70351734D01*
X156877263Y-70354249D01*
X157114534Y-70428186D01*
X157175081Y-70439281D01*
X157180868Y-70440632D01*
X157182539Y-70441108D01*
X157198908Y-70443648D01*
X157429934Y-70485985D01*
X157495380Y-70489943D01*
X157501126Y-70490561D01*
X157505257Y-70491203D01*
X157527554Y-70491889D01*
X157750000Y-70505345D01*
X157819506Y-70501140D01*
X157825134Y-70501058D01*
X157831684Y-70501260D01*
X157858262Y-70498796D01*
X158070066Y-70485985D01*
X158142587Y-70472695D01*
X158148017Y-70471947D01*
X158156874Y-70471127D01*
X158186244Y-70464694D01*
X158385466Y-70428186D01*
X158459843Y-70405009D01*
X158464958Y-70403655D01*
X158475896Y-70401260D01*
X158506606Y-70390437D01*
X158691598Y-70332791D01*
X158766452Y-70299101D01*
X158771249Y-70297180D01*
X158783914Y-70292718D01*
X158814707Y-70277383D01*
X158945179Y-70218662D01*
X158983994Y-70201194D01*
X158983995Y-70201193D01*
X158984000Y-70201191D01*
X159057896Y-70156519D01*
X159062276Y-70154110D01*
X159076259Y-70147148D01*
X159106015Y-70127430D01*
X159258408Y-70035306D01*
X159329783Y-69979386D01*
X159333714Y-69976551D01*
X159348499Y-69966755D01*
X159376207Y-69943015D01*
X159510819Y-69837554D01*
X159578027Y-69770345D01*
X159581491Y-69767139D01*
X159596508Y-69754274D01*
X159620422Y-69728041D01*
X159622350Y-69726022D01*
X159737554Y-69610819D01*
X159798937Y-69532468D01*
X159801851Y-69529022D01*
X159816525Y-69512927D01*
X159837008Y-69483991D01*
X159838766Y-69481631D01*
X159935306Y-69358408D01*
X159989141Y-69269352D01*
X159991542Y-69265687D01*
X160005216Y-69246371D01*
X160021853Y-69215388D01*
X160023334Y-69212789D01*
X160101191Y-69084000D01*
X160145804Y-68984874D01*
X160147669Y-68981087D01*
X160159720Y-68958647D01*
X160172197Y-68926440D01*
X160173437Y-68923474D01*
X160232791Y-68791598D01*
X160266529Y-68683327D01*
X160267901Y-68679401D01*
X160277696Y-68654118D01*
X160285928Y-68621386D01*
X160286832Y-68618173D01*
X160328186Y-68485466D01*
X160328443Y-68484067D01*
X160331724Y-68466155D01*
X160349505Y-68369129D01*
X160350337Y-68365294D01*
X160357354Y-68337399D01*
X160361376Y-68304910D01*
X160361914Y-68301415D01*
X160385985Y-68170066D01*
X160393424Y-68047077D01*
X160393773Y-68043279D01*
X160397487Y-68013291D01*
X160398155Y-67969871D01*
X160398257Y-67967165D01*
X160405345Y-67850000D01*
X160398258Y-67732838D01*
X160398155Y-67730124D01*
X160397487Y-67686709D01*
X160393774Y-67656725D01*
X160393424Y-67652919D01*
X160385985Y-67529934D01*
X160361914Y-67398582D01*
X160361375Y-67395079D01*
X160357354Y-67362601D01*
X160350345Y-67334734D01*
X160349502Y-67330853D01*
X160332263Y-67236785D01*
X160328187Y-67214538D01*
X160328183Y-67214525D01*
X160286840Y-67081850D01*
X160285918Y-67078574D01*
X160277696Y-67045882D01*
X160267892Y-67020576D01*
X160266531Y-67016679D01*
X160232791Y-66908402D01*
X160173457Y-66776569D01*
X160172187Y-66773533D01*
X160167969Y-66762647D01*
X160159720Y-66741353D01*
X160147693Y-66718956D01*
X160145785Y-66715084D01*
X160102413Y-66618716D01*
X160101191Y-66616000D01*
X160023362Y-66487256D01*
X160021839Y-66484585D01*
X160005216Y-66453629D01*
X159991560Y-66434339D01*
X159989119Y-66430610D01*
X159935312Y-66341601D01*
X159935307Y-66341594D01*
X159935306Y-66341592D01*
X159838787Y-66218395D01*
X159836991Y-66215984D01*
X159816527Y-66187076D01*
X159816525Y-66187073D01*
X159801870Y-66170998D01*
X159798902Y-66167486D01*
X159737554Y-66089181D01*
X159737550Y-66089177D01*
X159622347Y-65973974D01*
X159620403Y-65971938D01*
X159596508Y-65945726D01*
X159581498Y-65932866D01*
X159577998Y-65929625D01*
X159510818Y-65862445D01*
X159376209Y-65756985D01*
X159348495Y-65733242D01*
X159333743Y-65723466D01*
X159329752Y-65720588D01*
X159258414Y-65664698D01*
X159258406Y-65664692D01*
X159106021Y-65572573D01*
X159076261Y-65552853D01*
X159076262Y-65552853D01*
X159062298Y-65545900D01*
X159057873Y-65543466D01*
X158992561Y-65503984D01*
X158984004Y-65498811D01*
X158983987Y-65498803D01*
X158814728Y-65422625D01*
X158783909Y-65407279D01*
X158771269Y-65402825D01*
X158766431Y-65400888D01*
X158691597Y-65367208D01*
X158691579Y-65367202D01*
X158506633Y-65309571D01*
X158475902Y-65298742D01*
X158475901Y-65298741D01*
X158475896Y-65298740D01*
X158468897Y-65297207D01*
X158464971Y-65296347D01*
X158459793Y-65294975D01*
X158385474Y-65271816D01*
X158385470Y-65271815D01*
X158385466Y-65271814D01*
X158250310Y-65247045D01*
X158186249Y-65235306D01*
X158156884Y-65228874D01*
X158156868Y-65228872D01*
X158148025Y-65228052D01*
X158142571Y-65227301D01*
X158086176Y-65216967D01*
X158070066Y-65214015D01*
X158070063Y-65214014D01*
X158070065Y-65214014D01*
X157858285Y-65201204D01*
X157842666Y-65199757D01*
X157831684Y-65198740D01*
X157831678Y-65198740D01*
X157831677Y-65198740D01*
X157831666Y-65198739D01*
X157825123Y-65198940D01*
X157819480Y-65198856D01*
X157750000Y-65194655D01*
X157527561Y-65208108D01*
X157507913Y-65208715D01*
X157505257Y-65208797D01*
X157505245Y-65208798D01*
X157505243Y-65208799D01*
X157501136Y-65209436D01*
X157495376Y-65210056D01*
X157429930Y-65214015D01*
X157198938Y-65256346D01*
X157182551Y-65258889D01*
X157182503Y-65258900D01*
X157180817Y-65259379D01*
X157175063Y-65260720D01*
X157114530Y-65271814D01*
X156877272Y-65345747D01*
X156868419Y-65348267D01*
X156865602Y-65349258D01*
X156862960Y-65350206D01*
X156808406Y-65367207D01*
X156516004Y-65498806D01*
X156516001Y-65498808D01*
X156516000Y-65498809D01*
X156458640Y-65533484D01*
X156241594Y-65664692D01*
X155989177Y-65862448D01*
X155762448Y-66089177D01*
X155564692Y-66341594D01*
X155398808Y-66616002D01*
X155398806Y-66616004D01*
X155267208Y-66908404D01*
X155267202Y-66908419D01*
X155171816Y-67214525D01*
X155171814Y-67214531D01*
X155171814Y-67214534D01*
X155171558Y-67215933D01*
X155114014Y-67529939D01*
X155094655Y-67850000D01*
X8005345Y-67850000D01*
X7998258Y-67732838D01*
X7998155Y-67730124D01*
X7997487Y-67686709D01*
X7993774Y-67656725D01*
X7993424Y-67652919D01*
X7985985Y-67529934D01*
X7961914Y-67398582D01*
X7961375Y-67395079D01*
X7957354Y-67362601D01*
X7950345Y-67334734D01*
X7949502Y-67330853D01*
X7932263Y-67236785D01*
X7928187Y-67214538D01*
X7928183Y-67214525D01*
X7886840Y-67081850D01*
X7885918Y-67078574D01*
X7877696Y-67045882D01*
X7867892Y-67020576D01*
X7866531Y-67016679D01*
X7832791Y-66908402D01*
X7773457Y-66776569D01*
X7772187Y-66773533D01*
X7767969Y-66762647D01*
X7759720Y-66741353D01*
X7747693Y-66718956D01*
X7745785Y-66715084D01*
X7702413Y-66618716D01*
X7701191Y-66616000D01*
X7623362Y-66487256D01*
X7621839Y-66484585D01*
X7605216Y-66453629D01*
X7591560Y-66434339D01*
X7589119Y-66430610D01*
X7535312Y-66341601D01*
X7535307Y-66341594D01*
X7535306Y-66341592D01*
X7438787Y-66218395D01*
X7436991Y-66215984D01*
X7416527Y-66187076D01*
X7416525Y-66187073D01*
X7401870Y-66170998D01*
X7398902Y-66167486D01*
X7337554Y-66089181D01*
X7337550Y-66089177D01*
X7222347Y-65973974D01*
X7220403Y-65971938D01*
X7196508Y-65945726D01*
X7181498Y-65932866D01*
X7177998Y-65929625D01*
X7110818Y-65862445D01*
X6976209Y-65756985D01*
X6948495Y-65733242D01*
X6933743Y-65723466D01*
X6929752Y-65720588D01*
X6858414Y-65664698D01*
X6858406Y-65664692D01*
X6706021Y-65572573D01*
X6676261Y-65552853D01*
X6676262Y-65552853D01*
X6662298Y-65545900D01*
X6657873Y-65543466D01*
X6592561Y-65503984D01*
X6584004Y-65498811D01*
X6583987Y-65498803D01*
X6414728Y-65422625D01*
X6383909Y-65407279D01*
X6371269Y-65402825D01*
X6366431Y-65400888D01*
X6291597Y-65367208D01*
X6291579Y-65367202D01*
X6106633Y-65309571D01*
X6075902Y-65298742D01*
X6075901Y-65298741D01*
X6075896Y-65298740D01*
X6068897Y-65297207D01*
X6064971Y-65296347D01*
X6059793Y-65294975D01*
X5985474Y-65271816D01*
X5985470Y-65271815D01*
X5985466Y-65271814D01*
X5850310Y-65247045D01*
X5786249Y-65235306D01*
X5756884Y-65228874D01*
X5756868Y-65228872D01*
X5748025Y-65228052D01*
X5742571Y-65227301D01*
X5686176Y-65216967D01*
X5670066Y-65214015D01*
X5670063Y-65214014D01*
X5670065Y-65214014D01*
X5458285Y-65201204D01*
X5442666Y-65199757D01*
X5431684Y-65198740D01*
X5431678Y-65198740D01*
X5431677Y-65198740D01*
X5431666Y-65198739D01*
X5425123Y-65198940D01*
X5419480Y-65198856D01*
X5350000Y-65194655D01*
X5127561Y-65208108D01*
X5107913Y-65208715D01*
X5105257Y-65208797D01*
X5105245Y-65208798D01*
X5105243Y-65208799D01*
X5101136Y-65209436D01*
X5095376Y-65210056D01*
X5029930Y-65214015D01*
X4798938Y-65256346D01*
X4782551Y-65258889D01*
X4782503Y-65258900D01*
X4780817Y-65259379D01*
X4775063Y-65260720D01*
X4714530Y-65271814D01*
X4477272Y-65345747D01*
X4468419Y-65348267D01*
X4465602Y-65349258D01*
X4462960Y-65350206D01*
X4408406Y-65367207D01*
X4116004Y-65498806D01*
X4116001Y-65498808D01*
X4116000Y-65498809D01*
X4058640Y-65533484D01*
X3841594Y-65664692D01*
X3589177Y-65862448D01*
X3362448Y-66089177D01*
X3164692Y-66341594D01*
X2998808Y-66616002D01*
X2998806Y-66616004D01*
X2867208Y-66908404D01*
X2867202Y-66908419D01*
X2771816Y-67214525D01*
X2771814Y-67214531D01*
X2771814Y-67214534D01*
X2771558Y-67215933D01*
X2714014Y-67529939D01*
X2694655Y-67850000D01*
X500Y-67850000D01*
X500Y-42450000D01*
X2694655Y-42450000D01*
X2714014Y-42770060D01*
X2714015Y-42770063D01*
X2714015Y-42770066D01*
X2771814Y-43085466D01*
X2771815Y-43085470D01*
X2771816Y-43085474D01*
X2867202Y-43391580D01*
X2867208Y-43391595D01*
X2867209Y-43391598D01*
X2909108Y-43484694D01*
X2998806Y-43683995D01*
X2998807Y-43683996D01*
X2998809Y-43684000D01*
X3108642Y-43865687D01*
X3155145Y-43942613D01*
X3164693Y-43958407D01*
X3362448Y-44210822D01*
X3589177Y-44437551D01*
X3589181Y-44437554D01*
X3841592Y-44635306D01*
X4116000Y-44801191D01*
X4408402Y-44932791D01*
X4408412Y-44932794D01*
X4408419Y-44932797D01*
X4463493Y-44949958D01*
X4465837Y-44950823D01*
X4468418Y-44951732D01*
X4468423Y-44951734D01*
X4477263Y-44954249D01*
X4714534Y-45028186D01*
X4775081Y-45039281D01*
X4780868Y-45040632D01*
X4782539Y-45041108D01*
X4798908Y-45043648D01*
X5029934Y-45085985D01*
X5095380Y-45089943D01*
X5101126Y-45090561D01*
X5105257Y-45091203D01*
X5127554Y-45091889D01*
X5350000Y-45105345D01*
X5419506Y-45101140D01*
X5425134Y-45101058D01*
X5431684Y-45101260D01*
X5458262Y-45098796D01*
X5670066Y-45085985D01*
X5742587Y-45072695D01*
X5748017Y-45071947D01*
X5756874Y-45071127D01*
X5786244Y-45064694D01*
X5985466Y-45028186D01*
X6059843Y-45005009D01*
X6064958Y-45003655D01*
X6075896Y-45001260D01*
X6106606Y-44990437D01*
X6291598Y-44932791D01*
X6366452Y-44899101D01*
X6371249Y-44897180D01*
X6383914Y-44892718D01*
X6414707Y-44877383D01*
X6545179Y-44818662D01*
X6583994Y-44801194D01*
X6583995Y-44801193D01*
X6584000Y-44801191D01*
X6657896Y-44756519D01*
X6662276Y-44754110D01*
X6676259Y-44747148D01*
X6706015Y-44727430D01*
X6858408Y-44635306D01*
X6929783Y-44579386D01*
X6933714Y-44576551D01*
X6948499Y-44566755D01*
X6976207Y-44543015D01*
X7110819Y-44437554D01*
X7178027Y-44370345D01*
X7181491Y-44367139D01*
X7196508Y-44354274D01*
X7220422Y-44328041D01*
X7222350Y-44326022D01*
X7337554Y-44210819D01*
X7398937Y-44132468D01*
X7401851Y-44129022D01*
X7416525Y-44112927D01*
X7437008Y-44083991D01*
X7438766Y-44081631D01*
X7535306Y-43958408D01*
X7589141Y-43869352D01*
X7591542Y-43865687D01*
X7605216Y-43846371D01*
X7621853Y-43815388D01*
X7623334Y-43812789D01*
X7701191Y-43684000D01*
X7745804Y-43584874D01*
X7747669Y-43581087D01*
X7759720Y-43558647D01*
X7772197Y-43526440D01*
X7773437Y-43523474D01*
X7832791Y-43391598D01*
X7866529Y-43283327D01*
X7867901Y-43279401D01*
X7877696Y-43254118D01*
X7885928Y-43221386D01*
X7886832Y-43218173D01*
X7923322Y-43101074D01*
X37251770Y-43101074D01*
X37281577Y-43524156D01*
X37350874Y-43942613D01*
X37459045Y-44352717D01*
X37459047Y-44352724D01*
X37562734Y-44635307D01*
X37605152Y-44750911D01*
X37701036Y-44951734D01*
X37787900Y-45133664D01*
X37787903Y-45133670D01*
X38005686Y-45497625D01*
X38005690Y-45497631D01*
X38256600Y-45839594D01*
X38538432Y-46156563D01*
X38848707Y-46445748D01*
X38848716Y-46445756D01*
X39184688Y-46704601D01*
X39184695Y-46704606D01*
X39184698Y-46704608D01*
X39543453Y-46930868D01*
X39921819Y-47122539D01*
X40304534Y-47273236D01*
X40316476Y-47277939D01*
X40448644Y-47316135D01*
X40723941Y-47395697D01*
X40723945Y-47395697D01*
X40723945Y-47395698D01*
X41140641Y-47474782D01*
X41140642Y-47474782D01*
X41140647Y-47474783D01*
X41562928Y-47514500D01*
X41562930Y-47514500D01*
X41880981Y-47514500D01*
X41907737Y-47513244D01*
X42198678Y-47499592D01*
X42475865Y-47460341D01*
X42618621Y-47440127D01*
X42618624Y-47440126D01*
X42618633Y-47440125D01*
X43031175Y-47341594D01*
X43218103Y-47277937D01*
X43432666Y-47204869D01*
X43432669Y-47204867D01*
X43432677Y-47204865D01*
X43819611Y-47031140D01*
X44188577Y-46821944D01*
X44536332Y-46579118D01*
X44859821Y-46304794D01*
X45156200Y-46001383D01*
X45422865Y-45671553D01*
X45657473Y-45318200D01*
X45857961Y-44944431D01*
X46022568Y-44553531D01*
X46149848Y-44148934D01*
X46238681Y-43734196D01*
X46288287Y-43312963D01*
X46293256Y-43101074D01*
X116801770Y-43101074D01*
X116831577Y-43524156D01*
X116900874Y-43942613D01*
X117009045Y-44352717D01*
X117009047Y-44352724D01*
X117112734Y-44635307D01*
X117155152Y-44750911D01*
X117251036Y-44951734D01*
X117337900Y-45133664D01*
X117337903Y-45133670D01*
X117555686Y-45497625D01*
X117555690Y-45497631D01*
X117806600Y-45839594D01*
X118088432Y-46156563D01*
X118398707Y-46445748D01*
X118398716Y-46445756D01*
X118734688Y-46704601D01*
X118734695Y-46704606D01*
X118734698Y-46704608D01*
X119093453Y-46930868D01*
X119471819Y-47122539D01*
X119854534Y-47273236D01*
X119866476Y-47277939D01*
X119998644Y-47316135D01*
X120273941Y-47395697D01*
X120273945Y-47395697D01*
X120273945Y-47395698D01*
X120690641Y-47474782D01*
X120690642Y-47474782D01*
X120690647Y-47474783D01*
X121112928Y-47514500D01*
X121112930Y-47514500D01*
X121430981Y-47514500D01*
X121457737Y-47513244D01*
X121748678Y-47499592D01*
X122025865Y-47460341D01*
X122168621Y-47440127D01*
X122168624Y-47440126D01*
X122168633Y-47440125D01*
X122581175Y-47341594D01*
X122768103Y-47277937D01*
X122982666Y-47204869D01*
X122982669Y-47204867D01*
X122982677Y-47204865D01*
X123369611Y-47031140D01*
X123738577Y-46821944D01*
X124086332Y-46579118D01*
X124409821Y-46304794D01*
X124706200Y-46001383D01*
X124972865Y-45671553D01*
X125207473Y-45318200D01*
X125407961Y-44944431D01*
X125572568Y-44553531D01*
X125699848Y-44148934D01*
X125788681Y-43734196D01*
X125838287Y-43312963D01*
X125848230Y-42888935D01*
X125818422Y-42465839D01*
X125815799Y-42450000D01*
X155094655Y-42450000D01*
X155114014Y-42770060D01*
X155114015Y-42770063D01*
X155114015Y-42770066D01*
X155171814Y-43085466D01*
X155171815Y-43085470D01*
X155171816Y-43085474D01*
X155267202Y-43391580D01*
X155267208Y-43391595D01*
X155267209Y-43391598D01*
X155309108Y-43484694D01*
X155398806Y-43683995D01*
X155398807Y-43683996D01*
X155398809Y-43684000D01*
X155508642Y-43865687D01*
X155555145Y-43942613D01*
X155564693Y-43958407D01*
X155762448Y-44210822D01*
X155989177Y-44437551D01*
X155989181Y-44437554D01*
X156241592Y-44635306D01*
X156516000Y-44801191D01*
X156808402Y-44932791D01*
X156808412Y-44932794D01*
X156808419Y-44932797D01*
X156863493Y-44949958D01*
X156865837Y-44950823D01*
X156868418Y-44951732D01*
X156868423Y-44951734D01*
X156877263Y-44954249D01*
X157114534Y-45028186D01*
X157175081Y-45039281D01*
X157180868Y-45040632D01*
X157182539Y-45041108D01*
X157198908Y-45043648D01*
X157429934Y-45085985D01*
X157495380Y-45089943D01*
X157501126Y-45090561D01*
X157505257Y-45091203D01*
X157527554Y-45091889D01*
X157750000Y-45105345D01*
X157819506Y-45101140D01*
X157825134Y-45101058D01*
X157831684Y-45101260D01*
X157858262Y-45098796D01*
X158070066Y-45085985D01*
X158142587Y-45072695D01*
X158148017Y-45071947D01*
X158156874Y-45071127D01*
X158186244Y-45064694D01*
X158385466Y-45028186D01*
X158459843Y-45005009D01*
X158464958Y-45003655D01*
X158475896Y-45001260D01*
X158506606Y-44990437D01*
X158691598Y-44932791D01*
X158766452Y-44899101D01*
X158771249Y-44897180D01*
X158783914Y-44892718D01*
X158814707Y-44877383D01*
X158945179Y-44818662D01*
X158983994Y-44801194D01*
X158983995Y-44801193D01*
X158984000Y-44801191D01*
X159057896Y-44756519D01*
X159062276Y-44754110D01*
X159076259Y-44747148D01*
X159106015Y-44727430D01*
X159258408Y-44635306D01*
X159329783Y-44579386D01*
X159333714Y-44576551D01*
X159348499Y-44566755D01*
X159376207Y-44543015D01*
X159510819Y-44437554D01*
X159578027Y-44370345D01*
X159581491Y-44367139D01*
X159596508Y-44354274D01*
X159620422Y-44328041D01*
X159622350Y-44326022D01*
X159737554Y-44210819D01*
X159798937Y-44132468D01*
X159801851Y-44129022D01*
X159816525Y-44112927D01*
X159837008Y-44083991D01*
X159838766Y-44081631D01*
X159935306Y-43958408D01*
X159989141Y-43869352D01*
X159991542Y-43865687D01*
X160005216Y-43846371D01*
X160021853Y-43815388D01*
X160023334Y-43812789D01*
X160101191Y-43684000D01*
X160145804Y-43584874D01*
X160147669Y-43581087D01*
X160159720Y-43558647D01*
X160172197Y-43526440D01*
X160173437Y-43523474D01*
X160232791Y-43391598D01*
X160266529Y-43283327D01*
X160267901Y-43279401D01*
X160277696Y-43254118D01*
X160285928Y-43221386D01*
X160286832Y-43218173D01*
X160328186Y-43085466D01*
X160328443Y-43084067D01*
X160331724Y-43066155D01*
X160349505Y-42969129D01*
X160350337Y-42965294D01*
X160357354Y-42937399D01*
X160361376Y-42904910D01*
X160361914Y-42901415D01*
X160385985Y-42770066D01*
X160393424Y-42647077D01*
X160393773Y-42643279D01*
X160397487Y-42613291D01*
X160398155Y-42569871D01*
X160398257Y-42567165D01*
X160405345Y-42450000D01*
X160398258Y-42332838D01*
X160398155Y-42330124D01*
X160397487Y-42286709D01*
X160393774Y-42256725D01*
X160393424Y-42252919D01*
X160385985Y-42129934D01*
X160361914Y-41998582D01*
X160361375Y-41995079D01*
X160357354Y-41962601D01*
X160350345Y-41934734D01*
X160349502Y-41930853D01*
X160332263Y-41836785D01*
X160328187Y-41814538D01*
X160328183Y-41814525D01*
X160286840Y-41681850D01*
X160285918Y-41678574D01*
X160277696Y-41645882D01*
X160267892Y-41620576D01*
X160266531Y-41616679D01*
X160232791Y-41508402D01*
X160173457Y-41376569D01*
X160172187Y-41373533D01*
X160167969Y-41362647D01*
X160159720Y-41341353D01*
X160147693Y-41318956D01*
X160145785Y-41315084D01*
X160111584Y-41239093D01*
X160101191Y-41216000D01*
X160023362Y-41087256D01*
X160021839Y-41084585D01*
X160005216Y-41053629D01*
X159991560Y-41034339D01*
X159989119Y-41030610D01*
X159935312Y-40941601D01*
X159935307Y-40941594D01*
X159935306Y-40941592D01*
X159838787Y-40818395D01*
X159836991Y-40815984D01*
X159816527Y-40787076D01*
X159816525Y-40787073D01*
X159801870Y-40770998D01*
X159798902Y-40767486D01*
X159737554Y-40689181D01*
X159720171Y-40671798D01*
X159622347Y-40573974D01*
X159620403Y-40571938D01*
X159596508Y-40545726D01*
X159581498Y-40532866D01*
X159577998Y-40529625D01*
X159510818Y-40462445D01*
X159376209Y-40356985D01*
X159348495Y-40333242D01*
X159333743Y-40323466D01*
X159329752Y-40320588D01*
X159258414Y-40264698D01*
X159258406Y-40264692D01*
X159106021Y-40172573D01*
X159076261Y-40152853D01*
X159076262Y-40152853D01*
X159062298Y-40145900D01*
X159057873Y-40143466D01*
X158992561Y-40103984D01*
X158984004Y-40098811D01*
X158983987Y-40098803D01*
X158814728Y-40022625D01*
X158783909Y-40007279D01*
X158771269Y-40002825D01*
X158766431Y-40000888D01*
X158691597Y-39967208D01*
X158691579Y-39967202D01*
X158506633Y-39909571D01*
X158475902Y-39898742D01*
X158475901Y-39898741D01*
X158475896Y-39898740D01*
X158468897Y-39897207D01*
X158464971Y-39896347D01*
X158459793Y-39894975D01*
X158385474Y-39871816D01*
X158385470Y-39871815D01*
X158385466Y-39871814D01*
X158250310Y-39847045D01*
X158186249Y-39835306D01*
X158156884Y-39828874D01*
X158156868Y-39828872D01*
X158148025Y-39828052D01*
X158142571Y-39827301D01*
X158086176Y-39816967D01*
X158070066Y-39814015D01*
X158070063Y-39814014D01*
X158070065Y-39814014D01*
X157858285Y-39801204D01*
X157842666Y-39799757D01*
X157831684Y-39798740D01*
X157831678Y-39798740D01*
X157831677Y-39798740D01*
X157831666Y-39798739D01*
X157825123Y-39798940D01*
X157819480Y-39798856D01*
X157750000Y-39794655D01*
X157527561Y-39808108D01*
X157507913Y-39808715D01*
X157505257Y-39808797D01*
X157505245Y-39808798D01*
X157505243Y-39808799D01*
X157501136Y-39809436D01*
X157495376Y-39810056D01*
X157429930Y-39814015D01*
X157198938Y-39856346D01*
X157182551Y-39858889D01*
X157182503Y-39858900D01*
X157180817Y-39859379D01*
X157175063Y-39860720D01*
X157114530Y-39871814D01*
X156877272Y-39945747D01*
X156868419Y-39948267D01*
X156865602Y-39949258D01*
X156862960Y-39950206D01*
X156808406Y-39967207D01*
X156516004Y-40098806D01*
X156516001Y-40098808D01*
X156516000Y-40098809D01*
X156458640Y-40133484D01*
X156241594Y-40264692D01*
X155989177Y-40462448D01*
X155762448Y-40689177D01*
X155564692Y-40941594D01*
X155398808Y-41216002D01*
X155398806Y-41216004D01*
X155267208Y-41508404D01*
X155267202Y-41508419D01*
X155171816Y-41814525D01*
X155171814Y-41814531D01*
X155171814Y-41814534D01*
X155171558Y-41815933D01*
X155114014Y-42129939D01*
X155094655Y-42450000D01*
X125815799Y-42450000D01*
X125749127Y-42047393D01*
X125640952Y-41637275D01*
X125494848Y-41239089D01*
X125312099Y-40856334D01*
X125201678Y-40671800D01*
X125094313Y-40492374D01*
X125094309Y-40492368D01*
X124914858Y-40247796D01*
X124843400Y-40150406D01*
X124561568Y-39833437D01*
X124251293Y-39544252D01*
X124251291Y-39544250D01*
X124251283Y-39544243D01*
X123915311Y-39285398D01*
X123915304Y-39285393D01*
X123556542Y-39059129D01*
X123358602Y-38958858D01*
X123178181Y-38867461D01*
X123027482Y-38808121D01*
X122783523Y-38712060D01*
X122482032Y-38624929D01*
X122376059Y-38594303D01*
X122376054Y-38594302D01*
X122376054Y-38594301D01*
X121959358Y-38515217D01*
X121657723Y-38486847D01*
X121537072Y-38475500D01*
X121219022Y-38475500D01*
X121219019Y-38475500D01*
X121147413Y-38478860D01*
X120901322Y-38490408D01*
X120901316Y-38490408D01*
X120901311Y-38490409D01*
X120481378Y-38549872D01*
X120068815Y-38648408D01*
X120068807Y-38648411D01*
X119667333Y-38785130D01*
X119667316Y-38785137D01*
X119280391Y-38958858D01*
X119280387Y-38958860D01*
X118911423Y-39168055D01*
X118911415Y-39168060D01*
X118563671Y-39410878D01*
X118240174Y-39685210D01*
X117943798Y-39988618D01*
X117943794Y-39988622D01*
X117677145Y-40318434D01*
X117677128Y-40318456D01*
X117442527Y-40671798D01*
X117242035Y-41045575D01*
X117242035Y-41045576D01*
X117077431Y-41436470D01*
X117077429Y-41436476D01*
X116950152Y-41841062D01*
X116861318Y-42255806D01*
X116811712Y-42677037D01*
X116811712Y-42677039D01*
X116801770Y-43101065D01*
X116801770Y-43101074D01*
X46293256Y-43101074D01*
X46298230Y-42888935D01*
X46268422Y-42465839D01*
X46199127Y-42047393D01*
X46090952Y-41637275D01*
X45944848Y-41239089D01*
X45762099Y-40856334D01*
X45651678Y-40671800D01*
X45544313Y-40492374D01*
X45544309Y-40492368D01*
X45364858Y-40247796D01*
X45293400Y-40150406D01*
X45011568Y-39833437D01*
X44701293Y-39544252D01*
X44701291Y-39544250D01*
X44701283Y-39544243D01*
X44365311Y-39285398D01*
X44365304Y-39285393D01*
X44006542Y-39059129D01*
X43808602Y-38958858D01*
X43628181Y-38867461D01*
X43477482Y-38808121D01*
X43233523Y-38712060D01*
X42932032Y-38624929D01*
X42826059Y-38594303D01*
X42826054Y-38594302D01*
X42826054Y-38594301D01*
X42409358Y-38515217D01*
X42107723Y-38486847D01*
X41987072Y-38475500D01*
X41669022Y-38475500D01*
X41669019Y-38475500D01*
X41597413Y-38478860D01*
X41351322Y-38490408D01*
X41351316Y-38490408D01*
X41351311Y-38490409D01*
X40931378Y-38549872D01*
X40518815Y-38648408D01*
X40518807Y-38648411D01*
X40117333Y-38785130D01*
X40117316Y-38785137D01*
X39730391Y-38958858D01*
X39730387Y-38958860D01*
X39361423Y-39168055D01*
X39361415Y-39168060D01*
X39013671Y-39410878D01*
X38690174Y-39685210D01*
X38393798Y-39988618D01*
X38393794Y-39988622D01*
X38127145Y-40318434D01*
X38127128Y-40318456D01*
X37892527Y-40671798D01*
X37692035Y-41045575D01*
X37692035Y-41045576D01*
X37527431Y-41436470D01*
X37527429Y-41436476D01*
X37400152Y-41841062D01*
X37311318Y-42255806D01*
X37261712Y-42677037D01*
X37261712Y-42677039D01*
X37251770Y-43101065D01*
X37251770Y-43101074D01*
X7923322Y-43101074D01*
X7928186Y-43085466D01*
X7928443Y-43084067D01*
X7931724Y-43066155D01*
X7949505Y-42969129D01*
X7950337Y-42965294D01*
X7957354Y-42937399D01*
X7961376Y-42904910D01*
X7961914Y-42901415D01*
X7985985Y-42770066D01*
X7993424Y-42647077D01*
X7993773Y-42643279D01*
X7997487Y-42613291D01*
X7998155Y-42569871D01*
X7998257Y-42567165D01*
X8005345Y-42450000D01*
X7998258Y-42332838D01*
X7998155Y-42330124D01*
X7997487Y-42286709D01*
X7993774Y-42256725D01*
X7993424Y-42252919D01*
X7985985Y-42129934D01*
X7961914Y-41998582D01*
X7961375Y-41995079D01*
X7957354Y-41962601D01*
X7950345Y-41934734D01*
X7949502Y-41930853D01*
X7932263Y-41836785D01*
X7928187Y-41814538D01*
X7928183Y-41814525D01*
X7886840Y-41681850D01*
X7885918Y-41678574D01*
X7877696Y-41645882D01*
X7867892Y-41620576D01*
X7866531Y-41616679D01*
X7832791Y-41508402D01*
X7773457Y-41376569D01*
X7772187Y-41373533D01*
X7767969Y-41362647D01*
X7759720Y-41341353D01*
X7747693Y-41318956D01*
X7745785Y-41315084D01*
X7711584Y-41239093D01*
X7701191Y-41216000D01*
X7623362Y-41087256D01*
X7621839Y-41084585D01*
X7605216Y-41053629D01*
X7591560Y-41034339D01*
X7589119Y-41030610D01*
X7535312Y-40941601D01*
X7535307Y-40941594D01*
X7535306Y-40941592D01*
X7438787Y-40818395D01*
X7436991Y-40815984D01*
X7416527Y-40787076D01*
X7416525Y-40787073D01*
X7401870Y-40770998D01*
X7398902Y-40767486D01*
X7337554Y-40689181D01*
X7320171Y-40671798D01*
X7222347Y-40573974D01*
X7220403Y-40571938D01*
X7196508Y-40545726D01*
X7181498Y-40532866D01*
X7177998Y-40529625D01*
X7110818Y-40462445D01*
X6976209Y-40356985D01*
X6948495Y-40333242D01*
X6933743Y-40323466D01*
X6929752Y-40320588D01*
X6858414Y-40264698D01*
X6858406Y-40264692D01*
X6706021Y-40172573D01*
X6676261Y-40152853D01*
X6676262Y-40152853D01*
X6662298Y-40145900D01*
X6657873Y-40143466D01*
X6592561Y-40103984D01*
X6584004Y-40098811D01*
X6583987Y-40098803D01*
X6414728Y-40022625D01*
X6383909Y-40007279D01*
X6371269Y-40002825D01*
X6366431Y-40000888D01*
X6291597Y-39967208D01*
X6291579Y-39967202D01*
X6106633Y-39909571D01*
X6075902Y-39898742D01*
X6075901Y-39898741D01*
X6075896Y-39898740D01*
X6068897Y-39897207D01*
X6064971Y-39896347D01*
X6059793Y-39894975D01*
X5985474Y-39871816D01*
X5985470Y-39871815D01*
X5985466Y-39871814D01*
X5850310Y-39847045D01*
X5786249Y-39835306D01*
X5756884Y-39828874D01*
X5756868Y-39828872D01*
X5748025Y-39828052D01*
X5742571Y-39827301D01*
X5686176Y-39816967D01*
X5670066Y-39814015D01*
X5670063Y-39814014D01*
X5670065Y-39814014D01*
X5458285Y-39801204D01*
X5442666Y-39799757D01*
X5431684Y-39798740D01*
X5431678Y-39798740D01*
X5431677Y-39798740D01*
X5431666Y-39798739D01*
X5425123Y-39798940D01*
X5419480Y-39798856D01*
X5350000Y-39794655D01*
X5127561Y-39808108D01*
X5107913Y-39808715D01*
X5105257Y-39808797D01*
X5105245Y-39808798D01*
X5105243Y-39808799D01*
X5101136Y-39809436D01*
X5095376Y-39810056D01*
X5029930Y-39814015D01*
X4798938Y-39856346D01*
X4782551Y-39858889D01*
X4782503Y-39858900D01*
X4780817Y-39859379D01*
X4775063Y-39860720D01*
X4714530Y-39871814D01*
X4477272Y-39945747D01*
X4468419Y-39948267D01*
X4465602Y-39949258D01*
X4462960Y-39950206D01*
X4408406Y-39967207D01*
X4116004Y-40098806D01*
X4116001Y-40098808D01*
X4116000Y-40098809D01*
X4058640Y-40133484D01*
X3841594Y-40264692D01*
X3589177Y-40462448D01*
X3362448Y-40689177D01*
X3164692Y-40941594D01*
X2998808Y-41216002D01*
X2998806Y-41216004D01*
X2867208Y-41508404D01*
X2867202Y-41508419D01*
X2771816Y-41814525D01*
X2771814Y-41814531D01*
X2771814Y-41814534D01*
X2771558Y-41815933D01*
X2714014Y-42129939D01*
X2694655Y-42450000D01*
X500Y-42450000D01*
X500Y-17050000D01*
X2694655Y-17050000D01*
X2714014Y-17370060D01*
X2714015Y-17370063D01*
X2714015Y-17370066D01*
X2771814Y-17685466D01*
X2771815Y-17685470D01*
X2771816Y-17685474D01*
X2867202Y-17991580D01*
X2867208Y-17991595D01*
X2867209Y-17991598D01*
X2909108Y-18084694D01*
X2998806Y-18283995D01*
X2998807Y-18283996D01*
X2998809Y-18284000D01*
X3164693Y-18558407D01*
X3362448Y-18810822D01*
X3589177Y-19037551D01*
X3589181Y-19037554D01*
X3841592Y-19235306D01*
X4116000Y-19401191D01*
X4408402Y-19532791D01*
X4408412Y-19532794D01*
X4408419Y-19532797D01*
X4463493Y-19549958D01*
X4465837Y-19550823D01*
X4468418Y-19551732D01*
X4468423Y-19551734D01*
X4477263Y-19554249D01*
X4714534Y-19628186D01*
X4775081Y-19639281D01*
X4780868Y-19640632D01*
X4782539Y-19641108D01*
X4798908Y-19643648D01*
X5029934Y-19685985D01*
X5095380Y-19689943D01*
X5101126Y-19690561D01*
X5105257Y-19691203D01*
X5127554Y-19691889D01*
X5350000Y-19705345D01*
X5419506Y-19701140D01*
X5425134Y-19701058D01*
X5431684Y-19701260D01*
X5458262Y-19698796D01*
X5670066Y-19685985D01*
X5742587Y-19672695D01*
X5748017Y-19671947D01*
X5756874Y-19671127D01*
X5786244Y-19664694D01*
X5985466Y-19628186D01*
X6059843Y-19605009D01*
X6064958Y-19603655D01*
X6075896Y-19601260D01*
X6106606Y-19590437D01*
X6291598Y-19532791D01*
X6366452Y-19499101D01*
X6371249Y-19497180D01*
X6383914Y-19492718D01*
X6414707Y-19477383D01*
X6545179Y-19418662D01*
X6583994Y-19401194D01*
X6583995Y-19401193D01*
X6584000Y-19401191D01*
X6657896Y-19356519D01*
X6662276Y-19354110D01*
X6676259Y-19347148D01*
X6706015Y-19327430D01*
X6858408Y-19235306D01*
X6929783Y-19179386D01*
X6933714Y-19176551D01*
X6948499Y-19166755D01*
X6976207Y-19143015D01*
X7110819Y-19037554D01*
X7178027Y-18970345D01*
X7181491Y-18967139D01*
X7196508Y-18954274D01*
X7220422Y-18928041D01*
X7222350Y-18926022D01*
X7337554Y-18810819D01*
X7398937Y-18732468D01*
X7401851Y-18729022D01*
X7416525Y-18712927D01*
X7437008Y-18683991D01*
X7438766Y-18681631D01*
X7535306Y-18558408D01*
X7589141Y-18469352D01*
X7591542Y-18465687D01*
X7605216Y-18446371D01*
X7621853Y-18415388D01*
X7623334Y-18412789D01*
X7701191Y-18284000D01*
X7745804Y-18184874D01*
X7747669Y-18181087D01*
X7759720Y-18158647D01*
X7772197Y-18126440D01*
X7773437Y-18123474D01*
X7832791Y-17991598D01*
X7866529Y-17883327D01*
X7867901Y-17879401D01*
X7877696Y-17854118D01*
X7885928Y-17821386D01*
X7886832Y-17818173D01*
X7928186Y-17685466D01*
X7928443Y-17684067D01*
X7931724Y-17666155D01*
X7949505Y-17569129D01*
X7950337Y-17565294D01*
X7957354Y-17537399D01*
X7961376Y-17504910D01*
X7961914Y-17501415D01*
X7985985Y-17370066D01*
X7993424Y-17247077D01*
X7993773Y-17243279D01*
X7997487Y-17213291D01*
X7998155Y-17169871D01*
X7998257Y-17167165D01*
X8005345Y-17050000D01*
X155094655Y-17050000D01*
X155114014Y-17370060D01*
X155114015Y-17370063D01*
X155114015Y-17370066D01*
X155171814Y-17685466D01*
X155171815Y-17685470D01*
X155171816Y-17685474D01*
X155267202Y-17991580D01*
X155267208Y-17991595D01*
X155267209Y-17991598D01*
X155309108Y-18084694D01*
X155398806Y-18283995D01*
X155398807Y-18283996D01*
X155398809Y-18284000D01*
X155564693Y-18558407D01*
X155762448Y-18810822D01*
X155989177Y-19037551D01*
X155989181Y-19037554D01*
X156241592Y-19235306D01*
X156516000Y-19401191D01*
X156808402Y-19532791D01*
X156808412Y-19532794D01*
X156808419Y-19532797D01*
X156863493Y-19549958D01*
X156865837Y-19550823D01*
X156868418Y-19551732D01*
X156868423Y-19551734D01*
X156877263Y-19554249D01*
X157114534Y-19628186D01*
X157175081Y-19639281D01*
X157180868Y-19640632D01*
X157182539Y-19641108D01*
X157198908Y-19643648D01*
X157429934Y-19685985D01*
X157495380Y-19689943D01*
X157501126Y-19690561D01*
X157505257Y-19691203D01*
X157527554Y-19691889D01*
X157750000Y-19705345D01*
X157819506Y-19701140D01*
X157825134Y-19701058D01*
X157831684Y-19701260D01*
X157858262Y-19698796D01*
X158070066Y-19685985D01*
X158142587Y-19672695D01*
X158148017Y-19671947D01*
X158156874Y-19671127D01*
X158186244Y-19664694D01*
X158385466Y-19628186D01*
X158459843Y-19605009D01*
X158464958Y-19603655D01*
X158475896Y-19601260D01*
X158506606Y-19590437D01*
X158691598Y-19532791D01*
X158766452Y-19499101D01*
X158771249Y-19497180D01*
X158783914Y-19492718D01*
X158814707Y-19477383D01*
X158945179Y-19418662D01*
X158983994Y-19401194D01*
X158983995Y-19401193D01*
X158984000Y-19401191D01*
X159057896Y-19356519D01*
X159062276Y-19354110D01*
X159076259Y-19347148D01*
X159106015Y-19327430D01*
X159258408Y-19235306D01*
X159329783Y-19179386D01*
X159333714Y-19176551D01*
X159348499Y-19166755D01*
X159376207Y-19143015D01*
X159510819Y-19037554D01*
X159578027Y-18970345D01*
X159581491Y-18967139D01*
X159596508Y-18954274D01*
X159620422Y-18928041D01*
X159622350Y-18926022D01*
X159737554Y-18810819D01*
X159798937Y-18732468D01*
X159801851Y-18729022D01*
X159816525Y-18712927D01*
X159837008Y-18683991D01*
X159838766Y-18681631D01*
X159935306Y-18558408D01*
X159989141Y-18469352D01*
X159991542Y-18465687D01*
X160005216Y-18446371D01*
X160021853Y-18415388D01*
X160023334Y-18412789D01*
X160101191Y-18284000D01*
X160145804Y-18184874D01*
X160147669Y-18181087D01*
X160159720Y-18158647D01*
X160172197Y-18126440D01*
X160173437Y-18123474D01*
X160232791Y-17991598D01*
X160266529Y-17883327D01*
X160267901Y-17879401D01*
X160277696Y-17854118D01*
X160285928Y-17821386D01*
X160286832Y-17818173D01*
X160328186Y-17685466D01*
X160328443Y-17684067D01*
X160331724Y-17666155D01*
X160349505Y-17569129D01*
X160350337Y-17565294D01*
X160357354Y-17537399D01*
X160361376Y-17504910D01*
X160361914Y-17501415D01*
X160385985Y-17370066D01*
X160393424Y-17247077D01*
X160393773Y-17243279D01*
X160397487Y-17213291D01*
X160398155Y-17169871D01*
X160398257Y-17167165D01*
X160405345Y-17050000D01*
X160398258Y-16932838D01*
X160398155Y-16930124D01*
X160397487Y-16886709D01*
X160393774Y-16856725D01*
X160393424Y-16852919D01*
X160385985Y-16729934D01*
X160361914Y-16598582D01*
X160361375Y-16595079D01*
X160357354Y-16562601D01*
X160350345Y-16534734D01*
X160349502Y-16530853D01*
X160332263Y-16436785D01*
X160328187Y-16414538D01*
X160328183Y-16414525D01*
X160286840Y-16281850D01*
X160285918Y-16278574D01*
X160277696Y-16245882D01*
X160267892Y-16220576D01*
X160266531Y-16216679D01*
X160232791Y-16108402D01*
X160173457Y-15976569D01*
X160172187Y-15973533D01*
X160167969Y-15962647D01*
X160159720Y-15941353D01*
X160147693Y-15918956D01*
X160145785Y-15915084D01*
X160102413Y-15818716D01*
X160101191Y-15816000D01*
X160023362Y-15687256D01*
X160021839Y-15684585D01*
X160005216Y-15653629D01*
X159991560Y-15634339D01*
X159989119Y-15630610D01*
X159935312Y-15541601D01*
X159935307Y-15541594D01*
X159935306Y-15541592D01*
X159838787Y-15418395D01*
X159836991Y-15415984D01*
X159816527Y-15387076D01*
X159816525Y-15387073D01*
X159801870Y-15370998D01*
X159798902Y-15367486D01*
X159737554Y-15289181D01*
X159737550Y-15289177D01*
X159622347Y-15173974D01*
X159620403Y-15171938D01*
X159596508Y-15145726D01*
X159581498Y-15132866D01*
X159577998Y-15129625D01*
X159510818Y-15062445D01*
X159376209Y-14956985D01*
X159348495Y-14933242D01*
X159333743Y-14923466D01*
X159329752Y-14920588D01*
X159258414Y-14864698D01*
X159258406Y-14864692D01*
X159106021Y-14772573D01*
X159076261Y-14752853D01*
X159076262Y-14752853D01*
X159062298Y-14745900D01*
X159057873Y-14743466D01*
X158992561Y-14703984D01*
X158984004Y-14698811D01*
X158983987Y-14698803D01*
X158814728Y-14622625D01*
X158783909Y-14607279D01*
X158771269Y-14602825D01*
X158766431Y-14600888D01*
X158691597Y-14567208D01*
X158691579Y-14567202D01*
X158506633Y-14509571D01*
X158475902Y-14498742D01*
X158475901Y-14498741D01*
X158475896Y-14498740D01*
X158468897Y-14497207D01*
X158464971Y-14496347D01*
X158459793Y-14494975D01*
X158385474Y-14471816D01*
X158385470Y-14471815D01*
X158385466Y-14471814D01*
X158250310Y-14447045D01*
X158186249Y-14435306D01*
X158156884Y-14428874D01*
X158156868Y-14428872D01*
X158148025Y-14428052D01*
X158142571Y-14427301D01*
X158086176Y-14416967D01*
X158070066Y-14414015D01*
X158070063Y-14414014D01*
X158070065Y-14414014D01*
X157858285Y-14401204D01*
X157842666Y-14399757D01*
X157831684Y-14398740D01*
X157831678Y-14398740D01*
X157831677Y-14398740D01*
X157831666Y-14398739D01*
X157825123Y-14398940D01*
X157819480Y-14398856D01*
X157750000Y-14394655D01*
X157527561Y-14408108D01*
X157507913Y-14408715D01*
X157505257Y-14408797D01*
X157505245Y-14408798D01*
X157505243Y-14408799D01*
X157501136Y-14409436D01*
X157495376Y-14410056D01*
X157429930Y-14414015D01*
X157198938Y-14456346D01*
X157182551Y-14458889D01*
X157182503Y-14458900D01*
X157180817Y-14459379D01*
X157175063Y-14460720D01*
X157114530Y-14471814D01*
X156877272Y-14545747D01*
X156868419Y-14548267D01*
X156865602Y-14549258D01*
X156862960Y-14550206D01*
X156808406Y-14567207D01*
X156516004Y-14698806D01*
X156516001Y-14698808D01*
X156516000Y-14698809D01*
X156458640Y-14733484D01*
X156241594Y-14864692D01*
X155989177Y-15062448D01*
X155762448Y-15289177D01*
X155564692Y-15541594D01*
X155398808Y-15816002D01*
X155398806Y-15816004D01*
X155267208Y-16108404D01*
X155267202Y-16108419D01*
X155171816Y-16414525D01*
X155171814Y-16414531D01*
X155171814Y-16414534D01*
X155171558Y-16415933D01*
X155114014Y-16729939D01*
X155094655Y-17050000D01*
X8005345Y-17050000D01*
X7998258Y-16932838D01*
X7998155Y-16930124D01*
X7997487Y-16886709D01*
X7993774Y-16856725D01*
X7993424Y-16852919D01*
X7985985Y-16729934D01*
X7961914Y-16598582D01*
X7961375Y-16595079D01*
X7957354Y-16562601D01*
X7950345Y-16534734D01*
X7949502Y-16530853D01*
X7932263Y-16436785D01*
X7928187Y-16414538D01*
X7928183Y-16414525D01*
X7886840Y-16281850D01*
X7885918Y-16278574D01*
X7877696Y-16245882D01*
X7867892Y-16220576D01*
X7866531Y-16216679D01*
X7832791Y-16108402D01*
X7773457Y-15976569D01*
X7772187Y-15973533D01*
X7767969Y-15962647D01*
X7759720Y-15941353D01*
X7747693Y-15918956D01*
X7745785Y-15915084D01*
X7702413Y-15818716D01*
X7701191Y-15816000D01*
X7623362Y-15687256D01*
X7621839Y-15684585D01*
X7605216Y-15653629D01*
X7591560Y-15634339D01*
X7589119Y-15630610D01*
X7535312Y-15541601D01*
X7535307Y-15541594D01*
X7535306Y-15541592D01*
X7438787Y-15418395D01*
X7436991Y-15415984D01*
X7416527Y-15387076D01*
X7416525Y-15387073D01*
X7401870Y-15370998D01*
X7398902Y-15367486D01*
X7337554Y-15289181D01*
X7337550Y-15289177D01*
X7222347Y-15173974D01*
X7220403Y-15171938D01*
X7196508Y-15145726D01*
X7181498Y-15132866D01*
X7177998Y-15129625D01*
X7110818Y-15062445D01*
X6976209Y-14956985D01*
X6948495Y-14933242D01*
X6933743Y-14923466D01*
X6929752Y-14920588D01*
X6858414Y-14864698D01*
X6858406Y-14864692D01*
X6706021Y-14772573D01*
X6676261Y-14752853D01*
X6676262Y-14752853D01*
X6662298Y-14745900D01*
X6657873Y-14743466D01*
X6592561Y-14703984D01*
X6584004Y-14698811D01*
X6583987Y-14698803D01*
X6414728Y-14622625D01*
X6383909Y-14607279D01*
X6371269Y-14602825D01*
X6366431Y-14600888D01*
X6291597Y-14567208D01*
X6291579Y-14567202D01*
X6106633Y-14509571D01*
X6075902Y-14498742D01*
X6075901Y-14498741D01*
X6075896Y-14498740D01*
X6068897Y-14497207D01*
X6064971Y-14496347D01*
X6059793Y-14494975D01*
X5985474Y-14471816D01*
X5985470Y-14471815D01*
X5985466Y-14471814D01*
X5850310Y-14447045D01*
X5786249Y-14435306D01*
X5756884Y-14428874D01*
X5756868Y-14428872D01*
X5748025Y-14428052D01*
X5742571Y-14427301D01*
X5686176Y-14416967D01*
X5670066Y-14414015D01*
X5670063Y-14414014D01*
X5670065Y-14414014D01*
X5458285Y-14401204D01*
X5442666Y-14399757D01*
X5431684Y-14398740D01*
X5431678Y-14398740D01*
X5431677Y-14398740D01*
X5431666Y-14398739D01*
X5425123Y-14398940D01*
X5419480Y-14398856D01*
X5350000Y-14394655D01*
X5127561Y-14408108D01*
X5107913Y-14408715D01*
X5105257Y-14408797D01*
X5105245Y-14408798D01*
X5105243Y-14408799D01*
X5101136Y-14409436D01*
X5095376Y-14410056D01*
X5029930Y-14414015D01*
X4798938Y-14456346D01*
X4782551Y-14458889D01*
X4782503Y-14458900D01*
X4780817Y-14459379D01*
X4775063Y-14460720D01*
X4714530Y-14471814D01*
X4477272Y-14545747D01*
X4468419Y-14548267D01*
X4465602Y-14549258D01*
X4462960Y-14550206D01*
X4408406Y-14567207D01*
X4116004Y-14698806D01*
X4116001Y-14698808D01*
X4116000Y-14698809D01*
X4058640Y-14733484D01*
X3841594Y-14864692D01*
X3589177Y-15062448D01*
X3362448Y-15289177D01*
X3164692Y-15541594D01*
X2998808Y-15816002D01*
X2998806Y-15816004D01*
X2867208Y-16108404D01*
X2867202Y-16108419D01*
X2771816Y-16414525D01*
X2771814Y-16414531D01*
X2771814Y-16414534D01*
X2771558Y-16415933D01*
X2714014Y-16729939D01*
X2694655Y-17050000D01*
X500Y-17050000D01*
X500Y-2175000D01*
X15394655Y-2175000D01*
X15414014Y-2495060D01*
X15414015Y-2495063D01*
X15414015Y-2495066D01*
X15471814Y-2810466D01*
X15471815Y-2810470D01*
X15471816Y-2810474D01*
X15567202Y-3116580D01*
X15567208Y-3116595D01*
X15567209Y-3116598D01*
X15609108Y-3209694D01*
X15698806Y-3408995D01*
X15698807Y-3408996D01*
X15698809Y-3409000D01*
X15864693Y-3683407D01*
X16062448Y-3935822D01*
X16289177Y-4162551D01*
X16289181Y-4162554D01*
X16541592Y-4360306D01*
X16816000Y-4526191D01*
X17108402Y-4657791D01*
X17108412Y-4657794D01*
X17108419Y-4657797D01*
X17163493Y-4674958D01*
X17165837Y-4675823D01*
X17168418Y-4676732D01*
X17168423Y-4676734D01*
X17177263Y-4679249D01*
X17414534Y-4753186D01*
X17475081Y-4764281D01*
X17480868Y-4765632D01*
X17482539Y-4766108D01*
X17498908Y-4768648D01*
X17729934Y-4810985D01*
X17795380Y-4814943D01*
X17801126Y-4815561D01*
X17805257Y-4816203D01*
X17827554Y-4816889D01*
X18050000Y-4830345D01*
X18119506Y-4826140D01*
X18125134Y-4826058D01*
X18131684Y-4826260D01*
X18158262Y-4823796D01*
X18370066Y-4810985D01*
X18442587Y-4797695D01*
X18448017Y-4796947D01*
X18456874Y-4796127D01*
X18486244Y-4789694D01*
X18685466Y-4753186D01*
X18759843Y-4730009D01*
X18764958Y-4728655D01*
X18775896Y-4726260D01*
X18806606Y-4715437D01*
X18991598Y-4657791D01*
X19066452Y-4624101D01*
X19071249Y-4622180D01*
X19083914Y-4617718D01*
X19114707Y-4602383D01*
X19245179Y-4543662D01*
X19283994Y-4526194D01*
X19283995Y-4526193D01*
X19284000Y-4526191D01*
X19357896Y-4481519D01*
X19362276Y-4479110D01*
X19376259Y-4472148D01*
X19406015Y-4452430D01*
X19558408Y-4360306D01*
X19629783Y-4304386D01*
X19633714Y-4301551D01*
X19648499Y-4291755D01*
X19676207Y-4268015D01*
X19810819Y-4162554D01*
X19878027Y-4095345D01*
X19881491Y-4092139D01*
X19896508Y-4079274D01*
X19920422Y-4053041D01*
X19922350Y-4051022D01*
X20037554Y-3935819D01*
X20098937Y-3857468D01*
X20101851Y-3854022D01*
X20116525Y-3837927D01*
X20137008Y-3808991D01*
X20138766Y-3806631D01*
X20235306Y-3683408D01*
X20289141Y-3594352D01*
X20291542Y-3590687D01*
X20305216Y-3571371D01*
X20321853Y-3540388D01*
X20323334Y-3537789D01*
X20401191Y-3409000D01*
X20445804Y-3309874D01*
X20447669Y-3306087D01*
X20459720Y-3283647D01*
X20472197Y-3251440D01*
X20473437Y-3248474D01*
X20532791Y-3116598D01*
X20566529Y-3008327D01*
X20567901Y-3004401D01*
X20577696Y-2979118D01*
X20585928Y-2946386D01*
X20586832Y-2943173D01*
X20628186Y-2810466D01*
X20628443Y-2809067D01*
X20631724Y-2791155D01*
X20649505Y-2694129D01*
X20650337Y-2690294D01*
X20657354Y-2662399D01*
X20661376Y-2629910D01*
X20661914Y-2626415D01*
X20685985Y-2495066D01*
X20693424Y-2372077D01*
X20693773Y-2368279D01*
X20697487Y-2338291D01*
X20698155Y-2294871D01*
X20698257Y-2292165D01*
X20705345Y-2175000D01*
X40794655Y-2175000D01*
X40814014Y-2495060D01*
X40814015Y-2495063D01*
X40814015Y-2495066D01*
X40871814Y-2810466D01*
X40871815Y-2810470D01*
X40871816Y-2810474D01*
X40967202Y-3116580D01*
X40967208Y-3116595D01*
X40967209Y-3116598D01*
X41009108Y-3209694D01*
X41098806Y-3408995D01*
X41098807Y-3408996D01*
X41098809Y-3409000D01*
X41264693Y-3683407D01*
X41462448Y-3935822D01*
X41689177Y-4162551D01*
X41689181Y-4162554D01*
X41941592Y-4360306D01*
X42216000Y-4526191D01*
X42508402Y-4657791D01*
X42508412Y-4657794D01*
X42508419Y-4657797D01*
X42563493Y-4674958D01*
X42565837Y-4675823D01*
X42568418Y-4676732D01*
X42568423Y-4676734D01*
X42577263Y-4679249D01*
X42814534Y-4753186D01*
X42875081Y-4764281D01*
X42880868Y-4765632D01*
X42882539Y-4766108D01*
X42898908Y-4768648D01*
X43129934Y-4810985D01*
X43195380Y-4814943D01*
X43201126Y-4815561D01*
X43205257Y-4816203D01*
X43227554Y-4816889D01*
X43450000Y-4830345D01*
X43519506Y-4826140D01*
X43525134Y-4826058D01*
X43531684Y-4826260D01*
X43558262Y-4823796D01*
X43770066Y-4810985D01*
X43842587Y-4797695D01*
X43848017Y-4796947D01*
X43856874Y-4796127D01*
X43886244Y-4789694D01*
X44085466Y-4753186D01*
X44159843Y-4730009D01*
X44164958Y-4728655D01*
X44175896Y-4726260D01*
X44206606Y-4715437D01*
X44391598Y-4657791D01*
X44466452Y-4624101D01*
X44471249Y-4622180D01*
X44483914Y-4617718D01*
X44514707Y-4602383D01*
X44645179Y-4543662D01*
X44683994Y-4526194D01*
X44683995Y-4526193D01*
X44684000Y-4526191D01*
X44757896Y-4481519D01*
X44762276Y-4479110D01*
X44776259Y-4472148D01*
X44806015Y-4452430D01*
X44958408Y-4360306D01*
X45029783Y-4304386D01*
X45033714Y-4301551D01*
X45048499Y-4291755D01*
X45076207Y-4268015D01*
X45210819Y-4162554D01*
X45278027Y-4095345D01*
X45281491Y-4092139D01*
X45296508Y-4079274D01*
X45320422Y-4053041D01*
X45322350Y-4051022D01*
X45437554Y-3935819D01*
X45498937Y-3857468D01*
X45501851Y-3854022D01*
X45516525Y-3837927D01*
X45537008Y-3808991D01*
X45538766Y-3806631D01*
X45635306Y-3683408D01*
X45689141Y-3594352D01*
X45691542Y-3590687D01*
X45705216Y-3571371D01*
X45721853Y-3540388D01*
X45723334Y-3537789D01*
X45801191Y-3409000D01*
X45845804Y-3309874D01*
X45847669Y-3306087D01*
X45859720Y-3283647D01*
X45872197Y-3251440D01*
X45873437Y-3248474D01*
X45932791Y-3116598D01*
X45966529Y-3008327D01*
X45967901Y-3004401D01*
X45977696Y-2979118D01*
X45985928Y-2946386D01*
X45986832Y-2943173D01*
X46028186Y-2810466D01*
X46028443Y-2809067D01*
X46031724Y-2791155D01*
X46049505Y-2694129D01*
X46050337Y-2690294D01*
X46057354Y-2662399D01*
X46061376Y-2629910D01*
X46061914Y-2626415D01*
X46085985Y-2495066D01*
X46093424Y-2372077D01*
X46093773Y-2368279D01*
X46097487Y-2338291D01*
X46098155Y-2294871D01*
X46098257Y-2292165D01*
X46105345Y-2175000D01*
X66194655Y-2175000D01*
X66214014Y-2495060D01*
X66214015Y-2495063D01*
X66214015Y-2495066D01*
X66271814Y-2810466D01*
X66271815Y-2810470D01*
X66271816Y-2810474D01*
X66367202Y-3116580D01*
X66367208Y-3116595D01*
X66367209Y-3116598D01*
X66409108Y-3209694D01*
X66498806Y-3408995D01*
X66498807Y-3408996D01*
X66498809Y-3409000D01*
X66664693Y-3683407D01*
X66862448Y-3935822D01*
X67089177Y-4162551D01*
X67089181Y-4162554D01*
X67341592Y-4360306D01*
X67616000Y-4526191D01*
X67908402Y-4657791D01*
X67908412Y-4657794D01*
X67908419Y-4657797D01*
X67963493Y-4674958D01*
X67965837Y-4675823D01*
X67968418Y-4676732D01*
X67968423Y-4676734D01*
X67977263Y-4679249D01*
X68214534Y-4753186D01*
X68275081Y-4764281D01*
X68280868Y-4765632D01*
X68282539Y-4766108D01*
X68298908Y-4768648D01*
X68529934Y-4810985D01*
X68595380Y-4814943D01*
X68601126Y-4815561D01*
X68605257Y-4816203D01*
X68627554Y-4816889D01*
X68850000Y-4830345D01*
X68919506Y-4826140D01*
X68925134Y-4826058D01*
X68931684Y-4826260D01*
X68958262Y-4823796D01*
X69170066Y-4810985D01*
X69242587Y-4797695D01*
X69248017Y-4796947D01*
X69256874Y-4796127D01*
X69286244Y-4789694D01*
X69485466Y-4753186D01*
X69559843Y-4730009D01*
X69564958Y-4728655D01*
X69575896Y-4726260D01*
X69606606Y-4715437D01*
X69791598Y-4657791D01*
X69866452Y-4624101D01*
X69871249Y-4622180D01*
X69883914Y-4617718D01*
X69914707Y-4602383D01*
X70045179Y-4543662D01*
X70083994Y-4526194D01*
X70083995Y-4526193D01*
X70084000Y-4526191D01*
X70157896Y-4481519D01*
X70162276Y-4479110D01*
X70176259Y-4472148D01*
X70206015Y-4452430D01*
X70358408Y-4360306D01*
X70429783Y-4304386D01*
X70433714Y-4301551D01*
X70448499Y-4291755D01*
X70476207Y-4268015D01*
X70610819Y-4162554D01*
X70678027Y-4095345D01*
X70681491Y-4092139D01*
X70696508Y-4079274D01*
X70720422Y-4053041D01*
X70722350Y-4051022D01*
X70837554Y-3935819D01*
X70898937Y-3857468D01*
X70901851Y-3854022D01*
X70916525Y-3837927D01*
X70937008Y-3808991D01*
X70938766Y-3806631D01*
X71035306Y-3683408D01*
X71089141Y-3594352D01*
X71091542Y-3590687D01*
X71105216Y-3571371D01*
X71121853Y-3540388D01*
X71123334Y-3537789D01*
X71201191Y-3409000D01*
X71245804Y-3309874D01*
X71247669Y-3306087D01*
X71259720Y-3283647D01*
X71272197Y-3251440D01*
X71273437Y-3248474D01*
X71332791Y-3116598D01*
X71366529Y-3008327D01*
X71367901Y-3004401D01*
X71377696Y-2979118D01*
X71385928Y-2946386D01*
X71386832Y-2943173D01*
X71428186Y-2810466D01*
X71428443Y-2809067D01*
X71431724Y-2791155D01*
X71449505Y-2694129D01*
X71450337Y-2690294D01*
X71457354Y-2662399D01*
X71461376Y-2629910D01*
X71461914Y-2626415D01*
X71485985Y-2495066D01*
X71493424Y-2372077D01*
X71493773Y-2368279D01*
X71497487Y-2338291D01*
X71498155Y-2294871D01*
X71498257Y-2292165D01*
X71505345Y-2175000D01*
X91594655Y-2175000D01*
X91614014Y-2495060D01*
X91614015Y-2495063D01*
X91614015Y-2495066D01*
X91671814Y-2810466D01*
X91671815Y-2810470D01*
X91671816Y-2810474D01*
X91767202Y-3116580D01*
X91767208Y-3116595D01*
X91767209Y-3116598D01*
X91809108Y-3209694D01*
X91898806Y-3408995D01*
X91898807Y-3408996D01*
X91898809Y-3409000D01*
X92064693Y-3683407D01*
X92262448Y-3935822D01*
X92489177Y-4162551D01*
X92489181Y-4162554D01*
X92741592Y-4360306D01*
X93016000Y-4526191D01*
X93308402Y-4657791D01*
X93308412Y-4657794D01*
X93308419Y-4657797D01*
X93363493Y-4674958D01*
X93365837Y-4675823D01*
X93368418Y-4676732D01*
X93368423Y-4676734D01*
X93377263Y-4679249D01*
X93614534Y-4753186D01*
X93675081Y-4764281D01*
X93680868Y-4765632D01*
X93682539Y-4766108D01*
X93698908Y-4768648D01*
X93929934Y-4810985D01*
X93995380Y-4814943D01*
X94001126Y-4815561D01*
X94005257Y-4816203D01*
X94027554Y-4816889D01*
X94250000Y-4830345D01*
X94319506Y-4826140D01*
X94325134Y-4826058D01*
X94331684Y-4826260D01*
X94358262Y-4823796D01*
X94570066Y-4810985D01*
X94642587Y-4797695D01*
X94648017Y-4796947D01*
X94656874Y-4796127D01*
X94686244Y-4789694D01*
X94885466Y-4753186D01*
X94959843Y-4730009D01*
X94964958Y-4728655D01*
X94975896Y-4726260D01*
X95006606Y-4715437D01*
X95191598Y-4657791D01*
X95266452Y-4624101D01*
X95271249Y-4622180D01*
X95283914Y-4617718D01*
X95314707Y-4602383D01*
X95445179Y-4543662D01*
X95483994Y-4526194D01*
X95483995Y-4526193D01*
X95484000Y-4526191D01*
X95557896Y-4481519D01*
X95562276Y-4479110D01*
X95576259Y-4472148D01*
X95606015Y-4452430D01*
X95758408Y-4360306D01*
X95829783Y-4304386D01*
X95833714Y-4301551D01*
X95848499Y-4291755D01*
X95876207Y-4268015D01*
X96010819Y-4162554D01*
X96078027Y-4095345D01*
X96081491Y-4092139D01*
X96096508Y-4079274D01*
X96120422Y-4053041D01*
X96122350Y-4051022D01*
X96237554Y-3935819D01*
X96298937Y-3857468D01*
X96301851Y-3854022D01*
X96316525Y-3837927D01*
X96337008Y-3808991D01*
X96338766Y-3806631D01*
X96435306Y-3683408D01*
X96489141Y-3594352D01*
X96491542Y-3590687D01*
X96505216Y-3571371D01*
X96521853Y-3540388D01*
X96523334Y-3537789D01*
X96601191Y-3409000D01*
X96645804Y-3309874D01*
X96647669Y-3306087D01*
X96659720Y-3283647D01*
X96672197Y-3251440D01*
X96673437Y-3248474D01*
X96732791Y-3116598D01*
X96766529Y-3008327D01*
X96767901Y-3004401D01*
X96777696Y-2979118D01*
X96785928Y-2946386D01*
X96786832Y-2943173D01*
X96828186Y-2810466D01*
X96828443Y-2809067D01*
X96831724Y-2791155D01*
X96849505Y-2694129D01*
X96850337Y-2690294D01*
X96857354Y-2662399D01*
X96861376Y-2629910D01*
X96861914Y-2626415D01*
X96885985Y-2495066D01*
X96893424Y-2372077D01*
X96893773Y-2368279D01*
X96897487Y-2338291D01*
X96898155Y-2294871D01*
X96898257Y-2292165D01*
X96905345Y-2175000D01*
X116994655Y-2175000D01*
X117014014Y-2495060D01*
X117014015Y-2495063D01*
X117014015Y-2495066D01*
X117071814Y-2810466D01*
X117071815Y-2810470D01*
X117071816Y-2810474D01*
X117167202Y-3116580D01*
X117167208Y-3116595D01*
X117167209Y-3116598D01*
X117209108Y-3209694D01*
X117298806Y-3408995D01*
X117298807Y-3408996D01*
X117298809Y-3409000D01*
X117464693Y-3683407D01*
X117662448Y-3935822D01*
X117889177Y-4162551D01*
X117889181Y-4162554D01*
X118141592Y-4360306D01*
X118416000Y-4526191D01*
X118708402Y-4657791D01*
X118708412Y-4657794D01*
X118708419Y-4657797D01*
X118763493Y-4674958D01*
X118765837Y-4675823D01*
X118768418Y-4676732D01*
X118768423Y-4676734D01*
X118777263Y-4679249D01*
X119014534Y-4753186D01*
X119075081Y-4764281D01*
X119080868Y-4765632D01*
X119082539Y-4766108D01*
X119098908Y-4768648D01*
X119329934Y-4810985D01*
X119395380Y-4814943D01*
X119401126Y-4815561D01*
X119405257Y-4816203D01*
X119427554Y-4816889D01*
X119650000Y-4830345D01*
X119719506Y-4826140D01*
X119725134Y-4826058D01*
X119731684Y-4826260D01*
X119758262Y-4823796D01*
X119970066Y-4810985D01*
X120042587Y-4797695D01*
X120048017Y-4796947D01*
X120056874Y-4796127D01*
X120086244Y-4789694D01*
X120285466Y-4753186D01*
X120359843Y-4730009D01*
X120364958Y-4728655D01*
X120375896Y-4726260D01*
X120406606Y-4715437D01*
X120591598Y-4657791D01*
X120666452Y-4624101D01*
X120671249Y-4622180D01*
X120683914Y-4617718D01*
X120714707Y-4602383D01*
X120845179Y-4543662D01*
X120883994Y-4526194D01*
X120883995Y-4526193D01*
X120884000Y-4526191D01*
X120957896Y-4481519D01*
X120962276Y-4479110D01*
X120976259Y-4472148D01*
X121006015Y-4452430D01*
X121158408Y-4360306D01*
X121229783Y-4304386D01*
X121233714Y-4301551D01*
X121248499Y-4291755D01*
X121276207Y-4268015D01*
X121410819Y-4162554D01*
X121478027Y-4095345D01*
X121481491Y-4092139D01*
X121496508Y-4079274D01*
X121520422Y-4053041D01*
X121522350Y-4051022D01*
X121637554Y-3935819D01*
X121698937Y-3857468D01*
X121701851Y-3854022D01*
X121716525Y-3837927D01*
X121737008Y-3808991D01*
X121738766Y-3806631D01*
X121835306Y-3683408D01*
X121889141Y-3594352D01*
X121891542Y-3590687D01*
X121905216Y-3571371D01*
X121921853Y-3540388D01*
X121923334Y-3537789D01*
X122001191Y-3409000D01*
X122045804Y-3309874D01*
X122047669Y-3306087D01*
X122059720Y-3283647D01*
X122072197Y-3251440D01*
X122073437Y-3248474D01*
X122132791Y-3116598D01*
X122166529Y-3008327D01*
X122167901Y-3004401D01*
X122177696Y-2979118D01*
X122185928Y-2946386D01*
X122186832Y-2943173D01*
X122228186Y-2810466D01*
X122228443Y-2809067D01*
X122231724Y-2791155D01*
X122249505Y-2694129D01*
X122250337Y-2690294D01*
X122257354Y-2662399D01*
X122261376Y-2629910D01*
X122261914Y-2626415D01*
X122285985Y-2495066D01*
X122293424Y-2372077D01*
X122293773Y-2368279D01*
X122297487Y-2338291D01*
X122298155Y-2294871D01*
X122298257Y-2292165D01*
X122305345Y-2175000D01*
X142394655Y-2175000D01*
X142414014Y-2495060D01*
X142414015Y-2495063D01*
X142414015Y-2495066D01*
X142471814Y-2810466D01*
X142471815Y-2810470D01*
X142471816Y-2810474D01*
X142567202Y-3116580D01*
X142567208Y-3116595D01*
X142567209Y-3116598D01*
X142609108Y-3209694D01*
X142698806Y-3408995D01*
X142698807Y-3408996D01*
X142698809Y-3409000D01*
X142864693Y-3683407D01*
X143062448Y-3935822D01*
X143289177Y-4162551D01*
X143289181Y-4162554D01*
X143541592Y-4360306D01*
X143816000Y-4526191D01*
X144108402Y-4657791D01*
X144108412Y-4657794D01*
X144108419Y-4657797D01*
X144163493Y-4674958D01*
X144165837Y-4675823D01*
X144168418Y-4676732D01*
X144168423Y-4676734D01*
X144177263Y-4679249D01*
X144414534Y-4753186D01*
X144475081Y-4764281D01*
X144480868Y-4765632D01*
X144482539Y-4766108D01*
X144498908Y-4768648D01*
X144729934Y-4810985D01*
X144795380Y-4814943D01*
X144801126Y-4815561D01*
X144805257Y-4816203D01*
X144827554Y-4816889D01*
X145050000Y-4830345D01*
X145119506Y-4826140D01*
X145125134Y-4826058D01*
X145131684Y-4826260D01*
X145158262Y-4823796D01*
X145370066Y-4810985D01*
X145442587Y-4797695D01*
X145448017Y-4796947D01*
X145456874Y-4796127D01*
X145486244Y-4789694D01*
X145685466Y-4753186D01*
X145759843Y-4730009D01*
X145764958Y-4728655D01*
X145775896Y-4726260D01*
X145806606Y-4715437D01*
X145991598Y-4657791D01*
X146066452Y-4624101D01*
X146071249Y-4622180D01*
X146083914Y-4617718D01*
X146114707Y-4602383D01*
X146245179Y-4543662D01*
X146283994Y-4526194D01*
X146283995Y-4526193D01*
X146284000Y-4526191D01*
X146357896Y-4481519D01*
X146362276Y-4479110D01*
X146376259Y-4472148D01*
X146406015Y-4452430D01*
X146558408Y-4360306D01*
X146629783Y-4304386D01*
X146633714Y-4301551D01*
X146648499Y-4291755D01*
X146676207Y-4268015D01*
X146810819Y-4162554D01*
X146878027Y-4095345D01*
X146881491Y-4092139D01*
X146896508Y-4079274D01*
X146920422Y-4053041D01*
X146922350Y-4051022D01*
X147037554Y-3935819D01*
X147098937Y-3857468D01*
X147101851Y-3854022D01*
X147116525Y-3837927D01*
X147137008Y-3808991D01*
X147138766Y-3806631D01*
X147235306Y-3683408D01*
X147289141Y-3594352D01*
X147291542Y-3590687D01*
X147305216Y-3571371D01*
X147321853Y-3540388D01*
X147323334Y-3537789D01*
X147401191Y-3409000D01*
X147445804Y-3309874D01*
X147447669Y-3306087D01*
X147459720Y-3283647D01*
X147472197Y-3251440D01*
X147473437Y-3248474D01*
X147532791Y-3116598D01*
X147566529Y-3008327D01*
X147567901Y-3004401D01*
X147577696Y-2979118D01*
X147585928Y-2946386D01*
X147586832Y-2943173D01*
X147628186Y-2810466D01*
X147628443Y-2809067D01*
X147631724Y-2791155D01*
X147649505Y-2694129D01*
X147650337Y-2690294D01*
X147657354Y-2662399D01*
X147661376Y-2629910D01*
X147661914Y-2626415D01*
X147685985Y-2495066D01*
X147693424Y-2372077D01*
X147693773Y-2368279D01*
X147697487Y-2338291D01*
X147698155Y-2294871D01*
X147698257Y-2292165D01*
X147705345Y-2175000D01*
X147698258Y-2057838D01*
X147698155Y-2055124D01*
X147697487Y-2011709D01*
X147693774Y-1981725D01*
X147693424Y-1977919D01*
X147685985Y-1854934D01*
X147661914Y-1723582D01*
X147661375Y-1720079D01*
X147657354Y-1687601D01*
X147650345Y-1659734D01*
X147649502Y-1655853D01*
X147632263Y-1561785D01*
X147628187Y-1539538D01*
X147628183Y-1539525D01*
X147586840Y-1406850D01*
X147585918Y-1403574D01*
X147577696Y-1370882D01*
X147567892Y-1345576D01*
X147566531Y-1341679D01*
X147532791Y-1233402D01*
X147473457Y-1101569D01*
X147472187Y-1098533D01*
X147467969Y-1087647D01*
X147459720Y-1066353D01*
X147447693Y-1043956D01*
X147445785Y-1040084D01*
X147402413Y-943716D01*
X147401191Y-941000D01*
X147323362Y-812256D01*
X147321839Y-809585D01*
X147305216Y-778629D01*
X147291560Y-759339D01*
X147289119Y-755610D01*
X147235312Y-666601D01*
X147235307Y-666594D01*
X147235306Y-666592D01*
X147138787Y-543395D01*
X147136991Y-540984D01*
X147116527Y-512076D01*
X147116525Y-512073D01*
X147101870Y-495998D01*
X147098902Y-492486D01*
X147037554Y-414181D01*
X147037550Y-414177D01*
X146922347Y-298974D01*
X146920403Y-296938D01*
X146896508Y-270726D01*
X146881498Y-257866D01*
X146877998Y-254625D01*
X146810818Y-187445D01*
X146676209Y-81985D01*
X146648495Y-58241D01*
X146633746Y-48469D01*
X146629753Y-45589D01*
X146558417Y10299D01*
X146558416Y10299D01*
X146558408Y10306D01*
X146406015Y102430D01*
X146376259Y122148D01*
X146362276Y129110D01*
X146357896Y131519D01*
X146284000Y176191D01*
X146283995Y176193D01*
X146283994Y176194D01*
X146114729Y252374D01*
X146083914Y267718D01*
X146071249Y272180D01*
X146066452Y274101D01*
X145991598Y307791D01*
X145806606Y365437D01*
X145775896Y376260D01*
X145764958Y378655D01*
X145759843Y380009D01*
X145685466Y403186D01*
X145486244Y439694D01*
X145456874Y446127D01*
X145448017Y446947D01*
X145442587Y447695D01*
X145370066Y460985D01*
X145158262Y473796D01*
X145131684Y476260D01*
X145125134Y476058D01*
X145119506Y476140D01*
X145050000Y480345D01*
X144827554Y466889D01*
X144805257Y466203D01*
X144801126Y465561D01*
X144795380Y464943D01*
X144729934Y460985D01*
X144498908Y418648D01*
X144482539Y416108D01*
X144480868Y415632D01*
X144475081Y414281D01*
X144414534Y403186D01*
X144177263Y329249D01*
X144168423Y326734D01*
X144168421Y326733D01*
X144165837Y325823D01*
X144163493Y324958D01*
X144108419Y307797D01*
X144108412Y307794D01*
X144108402Y307791D01*
X143816000Y176191D01*
X143541592Y10306D01*
X143457455Y-55611D01*
X143289177Y-187448D01*
X143062448Y-414177D01*
X142864692Y-666594D01*
X142698808Y-941002D01*
X142698806Y-941004D01*
X142567208Y-1233404D01*
X142567202Y-1233419D01*
X142471816Y-1539525D01*
X142471814Y-1539531D01*
X142471814Y-1539534D01*
X142471558Y-1540933D01*
X142414014Y-1854939D01*
X142394655Y-2175000D01*
X122305345Y-2175000D01*
X122298258Y-2057838D01*
X122298155Y-2055124D01*
X122297487Y-2011709D01*
X122293774Y-1981725D01*
X122293424Y-1977919D01*
X122285985Y-1854934D01*
X122261914Y-1723582D01*
X122261375Y-1720079D01*
X122257354Y-1687601D01*
X122250345Y-1659734D01*
X122249502Y-1655853D01*
X122232263Y-1561785D01*
X122228187Y-1539538D01*
X122228183Y-1539525D01*
X122186840Y-1406850D01*
X122185918Y-1403574D01*
X122177696Y-1370882D01*
X122167892Y-1345576D01*
X122166531Y-1341679D01*
X122132791Y-1233402D01*
X122073457Y-1101569D01*
X122072187Y-1098533D01*
X122067969Y-1087647D01*
X122059720Y-1066353D01*
X122047693Y-1043956D01*
X122045785Y-1040084D01*
X122002413Y-943716D01*
X122001191Y-941000D01*
X121923362Y-812256D01*
X121921839Y-809585D01*
X121905216Y-778629D01*
X121891560Y-759339D01*
X121889119Y-755610D01*
X121835312Y-666601D01*
X121835307Y-666594D01*
X121835306Y-666592D01*
X121738787Y-543395D01*
X121736991Y-540984D01*
X121716527Y-512076D01*
X121716525Y-512073D01*
X121701870Y-495998D01*
X121698902Y-492486D01*
X121637554Y-414181D01*
X121637550Y-414177D01*
X121522347Y-298974D01*
X121520403Y-296938D01*
X121496508Y-270726D01*
X121481498Y-257866D01*
X121477998Y-254625D01*
X121410818Y-187445D01*
X121276209Y-81985D01*
X121248495Y-58241D01*
X121233746Y-48469D01*
X121229753Y-45589D01*
X121158417Y10299D01*
X121158416Y10299D01*
X121158408Y10306D01*
X121006015Y102430D01*
X120976259Y122148D01*
X120962276Y129110D01*
X120957896Y131519D01*
X120884000Y176191D01*
X120883995Y176193D01*
X120883994Y176194D01*
X120714729Y252374D01*
X120683914Y267718D01*
X120671249Y272180D01*
X120666452Y274101D01*
X120591598Y307791D01*
X120406606Y365437D01*
X120375896Y376260D01*
X120364958Y378655D01*
X120359843Y380009D01*
X120285466Y403186D01*
X120086244Y439694D01*
X120056874Y446127D01*
X120048017Y446947D01*
X120042587Y447695D01*
X119970066Y460985D01*
X119758262Y473796D01*
X119731684Y476260D01*
X119725134Y476058D01*
X119719506Y476140D01*
X119650000Y480345D01*
X119427554Y466889D01*
X119405257Y466203D01*
X119401126Y465561D01*
X119395380Y464943D01*
X119329934Y460985D01*
X119098908Y418648D01*
X119082539Y416108D01*
X119080868Y415632D01*
X119075081Y414281D01*
X119014534Y403186D01*
X118777263Y329249D01*
X118768423Y326734D01*
X118768421Y326733D01*
X118765837Y325823D01*
X118763493Y324958D01*
X118708419Y307797D01*
X118708412Y307794D01*
X118708402Y307791D01*
X118416000Y176191D01*
X118141592Y10306D01*
X118057455Y-55611D01*
X117889177Y-187448D01*
X117662448Y-414177D01*
X117464692Y-666594D01*
X117298808Y-941002D01*
X117298806Y-941004D01*
X117167208Y-1233404D01*
X117167202Y-1233419D01*
X117071816Y-1539525D01*
X117071814Y-1539531D01*
X117071814Y-1539534D01*
X117071558Y-1540933D01*
X117014014Y-1854939D01*
X116994655Y-2175000D01*
X96905345Y-2175000D01*
X96898258Y-2057838D01*
X96898155Y-2055124D01*
X96897487Y-2011709D01*
X96893774Y-1981725D01*
X96893424Y-1977919D01*
X96885985Y-1854934D01*
X96861914Y-1723582D01*
X96861375Y-1720079D01*
X96857354Y-1687601D01*
X96850345Y-1659734D01*
X96849502Y-1655853D01*
X96832263Y-1561785D01*
X96828187Y-1539538D01*
X96828183Y-1539525D01*
X96786840Y-1406850D01*
X96785918Y-1403574D01*
X96777696Y-1370882D01*
X96767892Y-1345576D01*
X96766531Y-1341679D01*
X96732791Y-1233402D01*
X96673457Y-1101569D01*
X96672187Y-1098533D01*
X96667969Y-1087647D01*
X96659720Y-1066353D01*
X96647693Y-1043956D01*
X96645785Y-1040084D01*
X96602413Y-943716D01*
X96601191Y-941000D01*
X96523362Y-812256D01*
X96521839Y-809585D01*
X96505216Y-778629D01*
X96491560Y-759339D01*
X96489119Y-755610D01*
X96435312Y-666601D01*
X96435307Y-666594D01*
X96435306Y-666592D01*
X96338787Y-543395D01*
X96336991Y-540984D01*
X96316527Y-512076D01*
X96316525Y-512073D01*
X96301870Y-495998D01*
X96298902Y-492486D01*
X96237554Y-414181D01*
X96237550Y-414177D01*
X96122347Y-298974D01*
X96120403Y-296938D01*
X96096508Y-270726D01*
X96081498Y-257866D01*
X96077998Y-254625D01*
X96010818Y-187445D01*
X95876209Y-81985D01*
X95848495Y-58241D01*
X95833746Y-48469D01*
X95829753Y-45589D01*
X95758417Y10299D01*
X95758416Y10299D01*
X95758408Y10306D01*
X95606015Y102430D01*
X95576259Y122148D01*
X95562276Y129110D01*
X95557896Y131519D01*
X95484000Y176191D01*
X95483995Y176193D01*
X95483994Y176194D01*
X95314729Y252374D01*
X95283914Y267718D01*
X95271249Y272180D01*
X95266452Y274101D01*
X95191598Y307791D01*
X95006606Y365437D01*
X94975896Y376260D01*
X94964958Y378655D01*
X94959843Y380009D01*
X94885466Y403186D01*
X94686244Y439694D01*
X94656874Y446127D01*
X94648017Y446947D01*
X94642587Y447695D01*
X94570066Y460985D01*
X94358262Y473796D01*
X94331684Y476260D01*
X94325134Y476058D01*
X94319506Y476140D01*
X94250000Y480345D01*
X94027554Y466889D01*
X94005257Y466203D01*
X94001126Y465561D01*
X93995380Y464943D01*
X93929934Y460985D01*
X93698908Y418648D01*
X93682539Y416108D01*
X93680868Y415632D01*
X93675081Y414281D01*
X93614534Y403186D01*
X93377263Y329249D01*
X93368423Y326734D01*
X93368421Y326733D01*
X93365837Y325823D01*
X93363493Y324958D01*
X93308419Y307797D01*
X93308412Y307794D01*
X93308402Y307791D01*
X93016000Y176191D01*
X92741592Y10306D01*
X92657455Y-55611D01*
X92489177Y-187448D01*
X92262448Y-414177D01*
X92064692Y-666594D01*
X91898808Y-941002D01*
X91898806Y-941004D01*
X91767208Y-1233404D01*
X91767202Y-1233419D01*
X91671816Y-1539525D01*
X91671814Y-1539531D01*
X91671814Y-1539534D01*
X91671558Y-1540933D01*
X91614014Y-1854939D01*
X91594655Y-2175000D01*
X71505345Y-2175000D01*
X71498258Y-2057838D01*
X71498155Y-2055124D01*
X71497487Y-2011709D01*
X71493774Y-1981725D01*
X71493424Y-1977919D01*
X71485985Y-1854934D01*
X71461914Y-1723582D01*
X71461375Y-1720079D01*
X71457354Y-1687601D01*
X71450345Y-1659734D01*
X71449502Y-1655853D01*
X71432263Y-1561785D01*
X71428187Y-1539538D01*
X71428183Y-1539525D01*
X71386840Y-1406850D01*
X71385918Y-1403574D01*
X71377696Y-1370882D01*
X71367892Y-1345576D01*
X71366531Y-1341679D01*
X71332791Y-1233402D01*
X71273457Y-1101569D01*
X71272187Y-1098533D01*
X71267969Y-1087647D01*
X71259720Y-1066353D01*
X71247693Y-1043956D01*
X71245785Y-1040084D01*
X71202413Y-943716D01*
X71201191Y-941000D01*
X71123362Y-812256D01*
X71121839Y-809585D01*
X71105216Y-778629D01*
X71091560Y-759339D01*
X71089119Y-755610D01*
X71035312Y-666601D01*
X71035307Y-666594D01*
X71035306Y-666592D01*
X70938787Y-543395D01*
X70936991Y-540984D01*
X70916527Y-512076D01*
X70916525Y-512073D01*
X70901870Y-495998D01*
X70898902Y-492486D01*
X70837554Y-414181D01*
X70837550Y-414177D01*
X70722347Y-298974D01*
X70720403Y-296938D01*
X70696508Y-270726D01*
X70681498Y-257866D01*
X70677998Y-254625D01*
X70610818Y-187445D01*
X70476209Y-81985D01*
X70448495Y-58241D01*
X70433746Y-48469D01*
X70429753Y-45589D01*
X70358417Y10299D01*
X70358416Y10299D01*
X70358408Y10306D01*
X70206015Y102430D01*
X70176259Y122148D01*
X70162276Y129110D01*
X70157896Y131519D01*
X70084000Y176191D01*
X70083995Y176193D01*
X70083994Y176194D01*
X69914729Y252374D01*
X69883914Y267718D01*
X69871249Y272180D01*
X69866452Y274101D01*
X69791598Y307791D01*
X69606606Y365437D01*
X69575896Y376260D01*
X69564958Y378655D01*
X69559843Y380009D01*
X69485466Y403186D01*
X69286244Y439694D01*
X69256874Y446127D01*
X69248017Y446947D01*
X69242587Y447695D01*
X69170066Y460985D01*
X68958262Y473796D01*
X68931684Y476260D01*
X68925134Y476058D01*
X68919506Y476140D01*
X68850000Y480345D01*
X68627554Y466889D01*
X68605257Y466203D01*
X68601126Y465561D01*
X68595380Y464943D01*
X68529934Y460985D01*
X68298908Y418648D01*
X68282539Y416108D01*
X68280868Y415632D01*
X68275081Y414281D01*
X68214534Y403186D01*
X67977263Y329249D01*
X67968423Y326734D01*
X67968421Y326733D01*
X67965837Y325823D01*
X67963493Y324958D01*
X67908419Y307797D01*
X67908412Y307794D01*
X67908402Y307791D01*
X67616000Y176191D01*
X67341592Y10306D01*
X67257455Y-55611D01*
X67089177Y-187448D01*
X66862448Y-414177D01*
X66664692Y-666594D01*
X66498808Y-941002D01*
X66498806Y-941004D01*
X66367208Y-1233404D01*
X66367202Y-1233419D01*
X66271816Y-1539525D01*
X66271814Y-1539531D01*
X66271814Y-1539534D01*
X66271558Y-1540933D01*
X66214014Y-1854939D01*
X66194655Y-2175000D01*
X46105345Y-2175000D01*
X46098258Y-2057838D01*
X46098155Y-2055124D01*
X46097487Y-2011709D01*
X46093774Y-1981725D01*
X46093424Y-1977919D01*
X46085985Y-1854934D01*
X46061914Y-1723582D01*
X46061375Y-1720079D01*
X46057354Y-1687601D01*
X46050345Y-1659734D01*
X46049502Y-1655853D01*
X46032263Y-1561785D01*
X46028187Y-1539538D01*
X46028183Y-1539525D01*
X45986840Y-1406850D01*
X45985918Y-1403574D01*
X45977696Y-1370882D01*
X45967892Y-1345576D01*
X45966531Y-1341679D01*
X45932791Y-1233402D01*
X45873457Y-1101569D01*
X45872187Y-1098533D01*
X45867969Y-1087647D01*
X45859720Y-1066353D01*
X45847693Y-1043956D01*
X45845785Y-1040084D01*
X45802413Y-943716D01*
X45801191Y-941000D01*
X45723362Y-812256D01*
X45721839Y-809585D01*
X45705216Y-778629D01*
X45691560Y-759339D01*
X45689119Y-755610D01*
X45635312Y-666601D01*
X45635307Y-666594D01*
X45635306Y-666592D01*
X45538787Y-543395D01*
X45536991Y-540984D01*
X45516527Y-512076D01*
X45516525Y-512073D01*
X45501870Y-495998D01*
X45498902Y-492486D01*
X45437554Y-414181D01*
X45437550Y-414177D01*
X45322347Y-298974D01*
X45320403Y-296938D01*
X45296508Y-270726D01*
X45281498Y-257866D01*
X45277998Y-254625D01*
X45210818Y-187445D01*
X45076209Y-81985D01*
X45048495Y-58241D01*
X45033746Y-48469D01*
X45029753Y-45589D01*
X44958417Y10299D01*
X44958416Y10299D01*
X44958408Y10306D01*
X44806015Y102430D01*
X44776259Y122148D01*
X44762276Y129110D01*
X44757896Y131519D01*
X44684000Y176191D01*
X44683995Y176193D01*
X44683994Y176194D01*
X44514729Y252374D01*
X44483914Y267718D01*
X44471249Y272180D01*
X44466452Y274101D01*
X44391598Y307791D01*
X44206606Y365437D01*
X44175896Y376260D01*
X44164958Y378655D01*
X44159843Y380009D01*
X44085466Y403186D01*
X43886244Y439694D01*
X43856874Y446127D01*
X43848017Y446947D01*
X43842587Y447695D01*
X43770066Y460985D01*
X43558262Y473796D01*
X43531684Y476260D01*
X43525134Y476058D01*
X43519506Y476140D01*
X43450000Y480345D01*
X43227554Y466889D01*
X43205257Y466203D01*
X43201126Y465561D01*
X43195380Y464943D01*
X43129934Y460985D01*
X42898908Y418648D01*
X42882539Y416108D01*
X42880868Y415632D01*
X42875081Y414281D01*
X42814534Y403186D01*
X42577263Y329249D01*
X42568423Y326734D01*
X42568421Y326733D01*
X42565837Y325823D01*
X42563493Y324958D01*
X42508419Y307797D01*
X42508412Y307794D01*
X42508402Y307791D01*
X42216000Y176191D01*
X41941592Y10306D01*
X41857455Y-55611D01*
X41689177Y-187448D01*
X41462448Y-414177D01*
X41264692Y-666594D01*
X41098808Y-941002D01*
X41098806Y-941004D01*
X40967208Y-1233404D01*
X40967202Y-1233419D01*
X40871816Y-1539525D01*
X40871814Y-1539531D01*
X40871814Y-1539534D01*
X40871558Y-1540933D01*
X40814014Y-1854939D01*
X40794655Y-2175000D01*
X20705345Y-2175000D01*
X20698258Y-2057838D01*
X20698155Y-2055124D01*
X20697487Y-2011709D01*
X20693774Y-1981725D01*
X20693424Y-1977919D01*
X20685985Y-1854934D01*
X20661914Y-1723582D01*
X20661375Y-1720079D01*
X20657354Y-1687601D01*
X20650345Y-1659734D01*
X20649502Y-1655853D01*
X20632263Y-1561785D01*
X20628187Y-1539538D01*
X20628183Y-1539525D01*
X20586840Y-1406850D01*
X20585918Y-1403574D01*
X20577696Y-1370882D01*
X20567892Y-1345576D01*
X20566531Y-1341679D01*
X20532791Y-1233402D01*
X20473457Y-1101569D01*
X20472187Y-1098533D01*
X20467969Y-1087647D01*
X20459720Y-1066353D01*
X20447693Y-1043956D01*
X20445785Y-1040084D01*
X20402413Y-943716D01*
X20401191Y-941000D01*
X20323362Y-812256D01*
X20321839Y-809585D01*
X20305216Y-778629D01*
X20291560Y-759339D01*
X20289119Y-755610D01*
X20235312Y-666601D01*
X20235307Y-666594D01*
X20235306Y-666592D01*
X20138787Y-543395D01*
X20136991Y-540984D01*
X20116527Y-512076D01*
X20116525Y-512073D01*
X20101870Y-495998D01*
X20098902Y-492486D01*
X20037554Y-414181D01*
X20037550Y-414177D01*
X19922347Y-298974D01*
X19920403Y-296938D01*
X19896508Y-270726D01*
X19881498Y-257866D01*
X19877998Y-254625D01*
X19810818Y-187445D01*
X19676209Y-81985D01*
X19648495Y-58241D01*
X19633746Y-48469D01*
X19629753Y-45589D01*
X19558417Y10299D01*
X19558416Y10299D01*
X19558408Y10306D01*
X19406015Y102430D01*
X19376259Y122148D01*
X19362276Y129110D01*
X19357896Y131519D01*
X19284000Y176191D01*
X19283995Y176193D01*
X19283994Y176194D01*
X19114729Y252374D01*
X19083914Y267718D01*
X19071249Y272180D01*
X19066452Y274101D01*
X18991598Y307791D01*
X18806606Y365437D01*
X18775896Y376260D01*
X18764958Y378655D01*
X18759843Y380009D01*
X18685466Y403186D01*
X18486244Y439694D01*
X18456874Y446127D01*
X18448017Y446947D01*
X18442587Y447695D01*
X18370066Y460985D01*
X18158262Y473796D01*
X18131684Y476260D01*
X18125134Y476058D01*
X18119506Y476140D01*
X18050000Y480345D01*
X17827554Y466889D01*
X17805257Y466203D01*
X17801126Y465561D01*
X17795380Y464943D01*
X17729934Y460985D01*
X17498908Y418648D01*
X17482539Y416108D01*
X17480868Y415632D01*
X17475081Y414281D01*
X17414534Y403186D01*
X17177263Y329249D01*
X17168423Y326734D01*
X17168421Y326733D01*
X17165837Y325823D01*
X17163493Y324958D01*
X17108419Y307797D01*
X17108412Y307794D01*
X17108402Y307791D01*
X16816000Y176191D01*
X16541592Y10306D01*
X16457455Y-55611D01*
X16289177Y-187448D01*
X16062448Y-414177D01*
X15864692Y-666594D01*
X15698808Y-941002D01*
X15698806Y-941004D01*
X15567208Y-1233404D01*
X15567202Y-1233419D01*
X15471816Y-1539525D01*
X15471814Y-1539531D01*
X15471814Y-1539534D01*
X15471558Y-1540933D01*
X15414014Y-1854939D01*
X15394655Y-2175000D01*
X500Y-2175000D01*
X500Y-2706D01*
X736Y2700D01*
X1402Y10306D01*
X4476Y45446D01*
X10088Y102426D01*
X16918Y171771D01*
X20541Y191685D01*
X38401Y258343D01*
X66682Y351570D01*
X72958Y367971D01*
X86732Y397510D01*
X104406Y435411D01*
X105888Y438375D01*
X128321Y480344D01*
X150762Y522327D01*
X154657Y528667D01*
X200983Y594828D01*
X203844Y598600D01*
X263103Y670808D01*
X267182Y675309D01*
X324688Y732815D01*
X329190Y736895D01*
X401398Y796154D01*
X405170Y799015D01*
X471331Y845341D01*
X477671Y849236D01*
X561605Y894101D01*
X564618Y895607D01*
X583433Y904381D01*
X632027Y927040D01*
X648435Y933319D01*
X741669Y961601D01*
X808299Y979454D01*
X828238Y983082D01*
X954554Y995523D01*
X995015Y999063D01*
X997303Y999264D01*
X1002710Y999500D01*
X162097290Y999500D01*
X162102696Y999264D01*
G37*
%TD.AperFunction*%
M02*
