%TF.GenerationSoftware,KiCad,Pcbnew,7.0.9*%
%TF.CreationDate,2024-05-16T17:58:55-06:00*%
%TF.ProjectId,KF50_Stepper_FT_1B_1O,4b463530-5f53-4746-9570-7065725f4654,rev?*%
%TF.SameCoordinates,Original*%
%TF.FileFunction,Copper,L2,Inr*%
%TF.FilePolarity,Positive*%
%FSLAX46Y46*%
G04 Gerber Fmt 4.6, Leading zero omitted, Abs format (unit mm)*
G04 Created by KiCad (PCBNEW 7.0.9) date 2024-05-16 17:58:55*
%MOMM*%
%LPD*%
G01*
G04 APERTURE LIST*
%TA.AperFunction,ComponentPad*%
%ADD10C,6.350000*%
%TD*%
%TA.AperFunction,ComponentPad*%
%ADD11C,1.800000*%
%TD*%
%TA.AperFunction,ComponentPad*%
%ADD12R,1.800000X1.800000*%
%TD*%
%TA.AperFunction,ComponentPad*%
%ADD13C,10.000000*%
%TD*%
%TA.AperFunction,Conductor*%
%ADD14C,2.000000*%
%TD*%
%TA.AperFunction,Conductor*%
%ADD15C,0.250000*%
%TD*%
G04 APERTURE END LIST*
D10*
%TO.N,GND*%
%TO.C,J4*%
X16660000Y56000000D03*
X-16660000Y56000000D03*
D11*
%TO.N,Net-(J3-Pad1)*%
X9860000Y54580000D03*
%TO.N,Net-(J3-Pad2)*%
X7080000Y54580000D03*
%TO.N,Net-(J3-Pad3)*%
X4300000Y54580000D03*
%TO.N,Net-(J3-Pad4)*%
X1520000Y54580000D03*
%TO.N,Net-(J3-Pad5)*%
X-1260000Y54580000D03*
%TO.N,Net-(J3-Pad6)*%
X-4040000Y54580000D03*
%TO.N,Net-(J3-Pad7)*%
X-6820000Y54580000D03*
%TO.N,Net-(J3-Pad8)*%
X-9600000Y54580000D03*
%TO.N,Net-(J3-P9)*%
X8470000Y57420000D03*
%TO.N,Net-(J3-P10)*%
X5690000Y57420000D03*
%TO.N,Net-(J3-P111)*%
X2910000Y57420000D03*
%TO.N,Net-(J3-P12)*%
X130000Y57420000D03*
%TO.N,Net-(J3-P13)*%
X-2650000Y57420000D03*
%TO.N,Net-(J3-P14)*%
X-5430000Y57420000D03*
%TO.N,Net-(J3-P15)*%
X-8210000Y57420000D03*
%TD*%
D10*
%TO.N,GND*%
%TO.C,J3*%
X-16660000Y0D03*
X16660000Y0D03*
D12*
%TO.N,Net-(J3-Pad1)*%
X9700000Y1420000D03*
D11*
%TO.N,Net-(J3-Pad2)*%
X6920000Y1420000D03*
%TO.N,Net-(J3-Pad3)*%
X4160000Y1420000D03*
%TO.N,Net-(J3-Pad4)*%
X1380000Y1420000D03*
%TO.N,Net-(J3-Pad5)*%
X-1380000Y1420000D03*
%TO.N,Net-(J3-Pad6)*%
X-4160000Y1420000D03*
%TO.N,Net-(J3-Pad7)*%
X-6920000Y1420000D03*
%TO.N,Net-(J3-Pad8)*%
X-9700000Y1420000D03*
%TO.N,Net-(J3-P9)*%
X8310000Y-1420000D03*
%TO.N,Net-(J3-P10)*%
X5540000Y-1420000D03*
%TO.N,Net-(J3-P111)*%
X2770000Y-1420000D03*
%TO.N,Net-(J3-P12)*%
X0Y-1420000D03*
%TO.N,Net-(J3-P13)*%
X-2770000Y-1420000D03*
%TO.N,Net-(J3-P14)*%
X-5540000Y-1420000D03*
%TO.N,Net-(J3-P15)*%
X-8310000Y-1420000D03*
%TD*%
D13*
%TO.N,GND*%
%TO.C,H8*%
X38271001Y15821362D03*
%TD*%
%TO.N,GND*%
%TO.C,H7*%
X38271001Y-15941362D03*
%TD*%
%TO.N,GND*%
%TO.C,H6*%
X15811362Y38281001D03*
%TD*%
%TO.N,GND*%
%TO.C,Hm*%
X15811362Y-38401001D03*
%TD*%
%TO.N,GND*%
%TO.C,H4*%
X-15951362Y38281001D03*
%TD*%
%TO.N,GND*%
%TO.C,H3*%
X-15951362Y-38401001D03*
%TD*%
%TO.N,GND*%
%TO.C,H2*%
X-38411001Y15821362D03*
%TD*%
%TO.N,GND*%
%TO.C,H1*%
X-38411001Y-15941362D03*
%TD*%
D14*
%TO.N,Net-(J3-P14)*%
X-5430000Y58692792D02*
X-5430000Y57420000D01*
X-10137208Y63400000D02*
X-5430000Y58692792D01*
X-20011270Y63400000D02*
X-10137208Y63400000D01*
X-25300000Y58111270D02*
X-20011270Y63400000D01*
X-25300000Y-2411270D02*
X-25300000Y58111270D01*
X-18506270Y-9205000D02*
X-25300000Y-2411270D01*
X-12052208Y-9205000D02*
X-18506270Y-9205000D01*
X-5540000Y-2692792D02*
X-12052208Y-9205000D01*
X-5540000Y-1420000D02*
X-5540000Y-2692792D01*
%TO.N,Net-(J3-P15)*%
X-13895000Y-7005000D02*
X-17595000Y-7005000D01*
X-17595000Y-7005000D02*
X-23100000Y-1500000D01*
X-23100000Y-1500000D02*
X-23100000Y57200000D01*
X-8310000Y-1420000D02*
X-13895000Y-7005000D01*
X-11990000Y61200000D02*
X-8210000Y57420000D01*
X-23100000Y57200000D02*
X-19100000Y61200000D01*
X-19100000Y61200000D02*
X-11990000Y61200000D01*
%TO.N,Net-(J3-Pad8)*%
X-9700000Y54480000D02*
X-9600000Y54580000D01*
X-9700000Y1420000D02*
X-9700000Y54480000D01*
%TO.N,Net-(J3-Pad7)*%
X-6820000Y54580000D02*
X-6820000Y1520000D01*
X-6820000Y1520000D02*
X-6920000Y1420000D01*
D15*
%TO.N,Net-(J3-Pad6)*%
X5200000Y45340000D02*
X-4040000Y54580000D01*
X5200000Y10780000D02*
X5200000Y45340000D01*
X-4160000Y1420000D02*
X5200000Y10780000D01*
%TO.N,Net-(J3-P13)*%
X-2650000Y54237588D02*
X-2650000Y57420000D01*
X5650000Y45937588D02*
X-2650000Y54237588D01*
X5650000Y10182412D02*
X5650000Y45937588D01*
X-2770000Y1762412D02*
X5650000Y10182412D01*
X-2770000Y-1420000D02*
X-2770000Y1762412D01*
%TO.N,Net-(J3-Pad5)*%
X6100000Y47220000D02*
X-1260000Y54580000D01*
X-1380000Y1906396D02*
X6100000Y9386396D01*
X6100000Y9386396D02*
X6100000Y47220000D01*
X-1380000Y1420000D02*
X-1380000Y1906396D01*
%TO.N,Net-(J3-P12)*%
X0Y2650000D02*
X0Y-1420000D01*
X6550000Y9200000D02*
X0Y2650000D01*
X6550000Y47817588D02*
X6550000Y9200000D01*
X130000Y54237588D02*
X6550000Y47817588D01*
X130000Y57420000D02*
X130000Y54237588D01*
%TO.N,Net-(J3-Pad4)*%
X7000000Y6986396D02*
X7000000Y49100000D01*
X5756802Y5743198D02*
X7000000Y6986396D01*
X5703198Y5743198D02*
X5756802Y5743198D01*
X7000000Y49100000D02*
X1520000Y54580000D01*
X1380000Y1420000D02*
X5703198Y5743198D01*
%TO.N,Net-(J3-P111)*%
X4588794Y3938794D02*
X7450000Y6800000D01*
X4588794Y3911206D02*
X4588794Y3938794D01*
X7450000Y49697588D02*
X7450000Y6800000D01*
X4588794Y3911206D02*
X2770000Y2092412D01*
X2770000Y2092412D02*
X2770000Y-1420000D01*
X2910000Y54237588D02*
X7450000Y49697588D01*
X2910000Y57420000D02*
X2910000Y54237588D01*
%TO.N,Net-(J3-Pad3)*%
X6363604Y52763604D02*
X6116396Y52763604D01*
X7900000Y51227208D02*
X6363604Y52763604D01*
X7900000Y4899188D02*
X7900000Y51227208D01*
X6116396Y52763604D02*
X4300000Y54580000D01*
X4420812Y1420000D02*
X7900000Y4899188D01*
X4160000Y1420000D02*
X4420812Y1420000D01*
%TO.N,Net-(J3-P10)*%
X5540000Y1902792D02*
X5540000Y-1420000D01*
X8350000Y4712792D02*
X5540000Y1902792D01*
X8350000Y51413604D02*
X8350000Y4712792D01*
X5690000Y54073604D02*
X8350000Y51413604D01*
X5690000Y57420000D02*
X5690000Y54073604D01*
%TO.N,Net-(J3-Pad2)*%
X8800000Y51600000D02*
X7080000Y53320000D01*
X7080000Y53320000D02*
X7080000Y54580000D01*
X6920000Y2646396D02*
X8800000Y4526396D01*
X6920000Y1420000D02*
X6920000Y2646396D01*
X8800000Y4526396D02*
X8800000Y51600000D01*
%TO.N,Net-(J3-P9)*%
X8470000Y53080000D02*
X8470000Y57420000D01*
X9250000Y52300000D02*
X8470000Y53080000D01*
X9250000Y4340000D02*
X9250000Y52300000D01*
X8310000Y3400000D02*
X9250000Y4340000D01*
X8310000Y-1420000D02*
X8310000Y3400000D01*
%TO.N,Net-(J3-Pad1)*%
X9700000Y1420000D02*
X9700000Y54420000D01*
X9700000Y54420000D02*
X9860000Y54580000D01*
%TD*%
%TA.AperFunction,Conductor*%
%TO.N,GND*%
G36*
X-12595851Y59679815D02*
G01*
X-12575209Y59663181D01*
X-9227129Y56315100D01*
X-9200709Y56292724D01*
X-9167656Y56264730D01*
X-9129223Y56206383D01*
X-9128435Y56136518D01*
X-9165545Y56077318D01*
X-9228769Y56047578D01*
X-9283178Y56051263D01*
X-9291019Y56053598D01*
X-9537779Y56084357D01*
X-9786237Y56074080D01*
X-10029614Y56023049D01*
X-10029621Y56023045D01*
X-10029625Y56023045D01*
X-10044204Y56017356D01*
X-10261274Y55932655D01*
X-10474894Y55805366D01*
X-10613777Y55687737D01*
X-10617121Y55684905D01*
X-10617122Y55684905D01*
X-10692413Y55609613D01*
X-10698170Y55604528D01*
X-10719744Y55587738D01*
X-10782950Y55519077D01*
X-10804902Y55497126D01*
X-10824966Y55473435D01*
X-10888164Y55404785D01*
X-10903117Y55381894D01*
X-10907697Y55375754D01*
X-10925366Y55354894D01*
X-10973139Y55274720D01*
X-11024173Y55196607D01*
X-11035149Y55171581D01*
X-11038659Y55164761D01*
X-11052656Y55141274D01*
X-11086579Y55054335D01*
X-11124063Y54968881D01*
X-11130774Y54942374D01*
X-11133112Y54935077D01*
X-11143049Y54909614D01*
X-11162198Y54818288D01*
X-11185108Y54727821D01*
X-11187364Y54700587D01*
X-11188472Y54692982D01*
X-11194081Y54666237D01*
X-11197937Y54572990D01*
X-11200500Y54542067D01*
X-11200500Y54511035D01*
X-11204357Y54417779D01*
X-11200976Y54390656D01*
X-11200500Y54382981D01*
X-11200500Y1357935D01*
X-11185109Y1172186D01*
X-11185107Y1172175D01*
X-11124063Y931118D01*
X-11024173Y703393D01*
X-10888166Y495217D01*
X-10888164Y495215D01*
X-10719744Y312262D01*
X-10527268Y162452D01*
X-10523506Y159524D01*
X-10304811Y41172D01*
X-10304802Y41169D01*
X-10218437Y11520D01*
X-10069614Y-39571D01*
X-9824335Y-80500D01*
X-9575666Y-80500D01*
X-9575665Y-80500D01*
X-9365386Y-45411D01*
X-9296024Y-53793D01*
X-9242201Y-98346D01*
X-9221011Y-164924D01*
X-9239179Y-232391D01*
X-9264838Y-262342D01*
X-9311479Y-301845D01*
X-9327126Y-315098D01*
X-9327128Y-315100D01*
X-9327129Y-315100D01*
X-14480209Y-5468181D01*
X-14541532Y-5501666D01*
X-14567890Y-5504500D01*
X-16922111Y-5504500D01*
X-16989150Y-5484815D01*
X-17009792Y-5468181D01*
X-21563181Y-914791D01*
X-21596666Y-853468D01*
X-21599500Y-827110D01*
X-21599500Y56527110D01*
X-21579815Y56594149D01*
X-21563181Y56614791D01*
X-18514791Y59663181D01*
X-18453468Y59696666D01*
X-18427110Y59699500D01*
X-12662890Y59699500D01*
X-12595851Y59679815D01*
G37*
%TD.AperFunction*%
%TA.AperFunction,Conductor*%
G36*
X27372539Y73619648D02*
G01*
X27418294Y73566844D01*
X27429500Y73515333D01*
X27429500Y38679588D01*
X27425110Y38664639D01*
X27429512Y38638471D01*
X27432839Y38635662D01*
X27441615Y38630709D01*
X28535360Y37830123D01*
X29617208Y36989268D01*
X30674352Y36117558D01*
X31705912Y35215719D01*
X32657958Y34333671D01*
X32712403Y34283154D01*
X33562460Y33448763D01*
X33692883Y33320510D01*
X34466608Y32515929D01*
X34645097Y32329921D01*
X35358500Y31543896D01*
X35568255Y31312210D01*
X36231711Y30537439D01*
X36461574Y30268245D01*
X37081614Y29500411D01*
X37324347Y29198849D01*
X37905786Y28434734D01*
X38155812Y28104965D01*
X38702071Y27342403D01*
X38955301Y26987474D01*
X39468979Y26224852D01*
X39722120Y25847345D01*
X40205198Y25083491D01*
X40455641Y24685515D01*
X40909628Y23919613D01*
X41155244Y23502964D01*
X41581212Y22734638D01*
X41820362Y22300652D01*
X42219086Y21529844D01*
X42450436Y21079586D01*
X42822802Y20305825D01*
X43044897Y19840872D01*
X43391558Y19063936D01*
X43603288Y18585467D01*
X43924587Y17805670D01*
X44125145Y17314412D01*
X44421480Y16531846D01*
X44610009Y16028820D01*
X44881689Y15243700D01*
X45057493Y14729727D01*
X45304818Y13942174D01*
X45467200Y13418276D01*
X45690380Y12628616D01*
X45838815Y12095494D01*
X46037994Y11304217D01*
X46172017Y10762499D01*
X46347372Y9969957D01*
X46466518Y9420456D01*
X46618221Y8626944D01*
X46722078Y8070458D01*
X46850279Y7276318D01*
X46938482Y6713656D01*
X47043307Y5919306D01*
X47115552Y5351161D01*
X47197108Y4557176D01*
X47253144Y3984075D01*
X47311552Y3190956D01*
X47351135Y2613626D01*
X47386527Y1821723D01*
X47409447Y1240915D01*
X47421943Y450862D01*
X47428031Y-132951D01*
X47417765Y-920656D01*
X47406871Y-1506723D01*
X47373981Y-2291633D01*
X47345986Y-2879336D01*
X47290613Y-3660951D01*
X47245427Y-4249584D01*
X47167717Y-5027430D01*
X47105280Y-5616342D01*
X47005402Y-6389803D01*
X46925654Y-6978524D01*
X46803795Y-7746973D01*
X46706709Y-8334914D01*
X46563022Y-9098003D01*
X46448633Y-9684356D01*
X46283320Y-10441501D01*
X46151620Y-11025839D01*
X45964915Y-11776382D01*
X45815940Y-12358135D01*
X45608027Y-13101684D01*
X45441873Y-13680141D01*
X45212971Y-14416191D01*
X45029725Y-14990781D01*
X44780082Y-15718772D01*
X44579842Y-16288953D01*
X44309713Y-17008354D01*
X44092604Y-17573561D01*
X43802239Y-18283888D01*
X43568417Y-18843534D01*
X43258111Y-19544229D01*
X43007719Y-20097817D01*
X42677751Y-20788391D01*
X42410977Y-21335359D01*
X42061661Y-22015284D01*
X41778698Y-22555112D01*
X41410359Y-23223877D01*
X41111398Y-23756082D01*
X40724344Y-24413227D01*
X40409661Y-24937217D01*
X40004238Y-25582250D01*
X39674043Y-26097584D01*
X39250634Y-26729983D01*
X38905177Y-27236183D01*
X38464105Y-27855542D01*
X38103721Y-28352041D01*
X37645387Y-28957866D01*
X37270299Y-29444289D01*
X36795126Y-30036089D01*
X36405658Y-30511949D01*
X35914056Y-31089277D01*
X35510469Y-31554189D01*
X35002857Y-32116612D01*
X34585561Y-32570047D01*
X34062281Y-33117236D01*
X33631665Y-33558726D01*
X33093160Y-34090259D01*
X32649569Y-34519408D01*
X32096319Y-35034850D01*
X31640074Y-35451306D01*
X31072621Y-35950195D01*
X30604055Y-36353614D01*
X30022809Y-36835628D01*
X29542396Y-37225561D01*
X28947831Y-37690342D01*
X28455968Y-38066435D01*
X27848579Y-38513628D01*
X27345669Y-38875542D01*
X26725935Y-39304820D01*
X26212456Y-39652182D01*
X25580894Y-40063215D01*
X25057263Y-40395722D01*
X24414372Y-40788205D01*
X23881020Y-41105556D01*
X23227412Y-41479141D01*
X22684765Y-41781062D01*
X22020922Y-42135496D01*
X21469454Y-42421698D01*
X20795929Y-42756705D01*
X20236202Y-43026881D01*
X19553450Y-43342250D01*
X18985916Y-43596167D01*
X18294583Y-43891612D01*
X17719688Y-44129054D01*
X17020379Y-44404335D01*
X16438584Y-44625097D01*
X15731817Y-44880024D01*
X15143688Y-45083876D01*
X14430047Y-45318250D01*
X13836076Y-45505011D01*
X13116106Y-45718664D01*
X12516856Y-45888147D01*
X11791155Y-46080909D01*
X11187060Y-46232982D01*
X10456285Y-46404690D01*
X9847906Y-46539203D01*
X9112561Y-46689744D01*
X8500411Y-46806576D01*
X7761224Y-46935811D01*
X7145773Y-47034863D01*
X6403213Y-47142716D01*
X5785184Y-47223868D01*
X5039792Y-47310262D01*
X4419647Y-47373453D01*
X3672132Y-47438307D01*
X3050344Y-47483487D01*
X2301359Y-47526748D01*
X1678424Y-47553875D01*
X928555Y-47575513D01*
X305106Y-47584558D01*
X-445106Y-47584558D01*
X-1068555Y-47575513D01*
X-1818424Y-47553875D01*
X-2441359Y-47526748D01*
X-3190344Y-47483487D01*
X-3812132Y-47438307D01*
X-4559647Y-47373453D01*
X-5179792Y-47310262D01*
X-5925184Y-47223868D01*
X-6543213Y-47142716D01*
X-7285773Y-47034863D01*
X-7901224Y-46935811D01*
X-8640411Y-46806576D01*
X-9252561Y-46689744D01*
X-9987906Y-46539203D01*
X-10596285Y-46404690D01*
X-11327060Y-46232982D01*
X-11931155Y-46080909D01*
X-12656856Y-45888147D01*
X-13256106Y-45718664D01*
X-13976076Y-45505011D01*
X-14570047Y-45318250D01*
X-15283688Y-45083876D01*
X-15871817Y-44880024D01*
X-16578584Y-44625097D01*
X-17160379Y-44404335D01*
X-17859688Y-44129054D01*
X-18434583Y-43891612D01*
X-19125916Y-43596167D01*
X-19693450Y-43342250D01*
X-20376202Y-43026881D01*
X-20935929Y-42756705D01*
X-21609454Y-42421698D01*
X-22160922Y-42135496D01*
X-22824765Y-41781062D01*
X-23367412Y-41479141D01*
X-24021020Y-41105556D01*
X-24554372Y-40788205D01*
X-25197263Y-40395722D01*
X-25720894Y-40063215D01*
X-26352456Y-39652182D01*
X-26865935Y-39304820D01*
X-27485669Y-38875542D01*
X-27988579Y-38513628D01*
X-28595968Y-38066435D01*
X-29087831Y-37690342D01*
X-29682396Y-37225561D01*
X-30162809Y-36835628D01*
X-30744055Y-36353614D01*
X-31212621Y-35950195D01*
X-31780074Y-35451306D01*
X-32236319Y-35034850D01*
X-32789569Y-34519408D01*
X-33233160Y-34090259D01*
X-33771665Y-33558726D01*
X-34202281Y-33117236D01*
X-34725561Y-32570047D01*
X-35142857Y-32116612D01*
X-35650469Y-31554189D01*
X-36054056Y-31089277D01*
X-36545658Y-30511949D01*
X-36935126Y-30036089D01*
X-37410299Y-29444289D01*
X-37785387Y-28957866D01*
X-38243721Y-28352041D01*
X-38604105Y-27855542D01*
X-39045177Y-27236183D01*
X-39390634Y-26729983D01*
X-39814043Y-26097584D01*
X-40144238Y-25582250D01*
X-40549661Y-24937217D01*
X-40864344Y-24413227D01*
X-41251398Y-23756082D01*
X-41550359Y-23223877D01*
X-41918698Y-22555112D01*
X-42201661Y-22015284D01*
X-42550977Y-21335359D01*
X-42817751Y-20788391D01*
X-43147719Y-20097817D01*
X-43398111Y-19544229D01*
X-43708417Y-18843534D01*
X-43942239Y-18283888D01*
X-44232604Y-17573561D01*
X-44449713Y-17008354D01*
X-44719842Y-16288953D01*
X-44920082Y-15718772D01*
X-45169725Y-14990781D01*
X-45352971Y-14416191D01*
X-45581873Y-13680141D01*
X-45748027Y-13101684D01*
X-45955940Y-12358135D01*
X-46104915Y-11776382D01*
X-46291620Y-11025839D01*
X-46423320Y-10441501D01*
X-46588633Y-9684356D01*
X-46703022Y-9098003D01*
X-46846709Y-8334914D01*
X-46943795Y-7746973D01*
X-47065654Y-6978524D01*
X-47145402Y-6389803D01*
X-47245280Y-5616342D01*
X-47307717Y-5027430D01*
X-47385427Y-4249584D01*
X-47430613Y-3660951D01*
X-47485986Y-2879336D01*
X-47511246Y-2349049D01*
X-26804357Y-2349049D01*
X-26800500Y-2442305D01*
X-26800500Y-2473337D01*
X-26797937Y-2504260D01*
X-26794081Y-2597507D01*
X-26788472Y-2624252D01*
X-26787364Y-2631852D01*
X-26785108Y-2659091D01*
X-26762198Y-2749558D01*
X-26743049Y-2840884D01*
X-26733112Y-2866347D01*
X-26730774Y-2873644D01*
X-26724063Y-2900151D01*
X-26686579Y-2985605D01*
X-26652656Y-3072544D01*
X-26638659Y-3096031D01*
X-26635149Y-3102851D01*
X-26624173Y-3127877D01*
X-26573139Y-3205990D01*
X-26525366Y-3286164D01*
X-26507697Y-3307024D01*
X-26503117Y-3313164D01*
X-26488164Y-3336055D01*
X-26424966Y-3404705D01*
X-26404902Y-3428396D01*
X-26382949Y-3450348D01*
X-26319744Y-3519008D01*
X-26298167Y-3535800D01*
X-26292422Y-3540874D01*
X-19635874Y-10197422D01*
X-19630800Y-10203167D01*
X-19614008Y-10224744D01*
X-19545348Y-10287949D01*
X-19523396Y-10309902D01*
X-19499705Y-10329966D01*
X-19431055Y-10393164D01*
X-19408164Y-10408117D01*
X-19402024Y-10412697D01*
X-19381164Y-10430366D01*
X-19300990Y-10478139D01*
X-19222877Y-10529173D01*
X-19197851Y-10540149D01*
X-19191031Y-10543659D01*
X-19167544Y-10557656D01*
X-19080605Y-10591579D01*
X-18995151Y-10629063D01*
X-18968644Y-10635774D01*
X-18961347Y-10638112D01*
X-18935884Y-10648049D01*
X-18844567Y-10667196D01*
X-18754091Y-10690108D01*
X-18726854Y-10692364D01*
X-18719250Y-10693471D01*
X-18692507Y-10699080D01*
X-18599275Y-10702936D01*
X-18568337Y-10705500D01*
X-18568336Y-10705500D01*
X-18537296Y-10705500D01*
X-18444049Y-10709357D01*
X-18428118Y-10707371D01*
X-18416928Y-10705977D01*
X-18409252Y-10705500D01*
X-12149227Y-10705500D01*
X-12141555Y-10705975D01*
X-12114429Y-10709357D01*
X-12021173Y-10705500D01*
X-11990141Y-10705500D01*
X-11959217Y-10702937D01*
X-11865971Y-10699081D01*
X-11854088Y-10696589D01*
X-11839224Y-10693473D01*
X-11831614Y-10692364D01*
X-11804395Y-10690109D01*
X-11804392Y-10690108D01*
X-11804387Y-10690108D01*
X-11713919Y-10667198D01*
X-11622594Y-10648049D01*
X-11597140Y-10638116D01*
X-11589817Y-10635771D01*
X-11588116Y-10635340D01*
X-11563327Y-10629063D01*
X-11515355Y-10608020D01*
X-11477871Y-10591579D01*
X-11390938Y-10557658D01*
X-11390928Y-10557653D01*
X-11380865Y-10551656D01*
X-11367451Y-10543663D01*
X-11360620Y-10540147D01*
X-11335601Y-10529173D01*
X-11308520Y-10511480D01*
X-11257486Y-10478139D01*
X-11177321Y-10430370D01*
X-11177314Y-10430366D01*
X-11156458Y-10412702D01*
X-11150294Y-10408106D01*
X-11127426Y-10393166D01*
X-11127425Y-10393165D01*
X-11127423Y-10393164D01*
X-11058772Y-10329966D01*
X-11035082Y-10309902D01*
X-11035074Y-10309894D01*
X-11013129Y-10287950D01*
X-10944473Y-10224747D01*
X-10944472Y-10224746D01*
X-10944470Y-10224744D01*
X-10927681Y-10203174D01*
X-10922592Y-10197412D01*
X-4547587Y-3822407D01*
X-4541822Y-3817316D01*
X-4520257Y-3800531D01*
X-4457049Y-3731870D01*
X-4435100Y-3709921D01*
X-4415033Y-3686227D01*
X-4351837Y-3617578D01*
X-4351836Y-3617577D01*
X-4336887Y-3594696D01*
X-4332296Y-3588539D01*
X-4314634Y-3567686D01*
X-4266863Y-3487516D01*
X-4242579Y-3450347D01*
X-4215826Y-3409399D01*
X-4204847Y-3384370D01*
X-4201329Y-3377536D01*
X-4187348Y-3354072D01*
X-4187341Y-3354059D01*
X-4153422Y-3267132D01*
X-4115939Y-3181679D01*
X-4115935Y-3181665D01*
X-4109227Y-3155179D01*
X-4106882Y-3147859D01*
X-4096952Y-3122408D01*
X-4096951Y-3122406D01*
X-4077801Y-3031080D01*
X-4054892Y-2940613D01*
X-4054891Y-2940611D01*
X-4054891Y-2940610D01*
X-4052635Y-2913382D01*
X-4051526Y-2905775D01*
X-4045918Y-2879025D01*
X-4042062Y-2785782D01*
X-4039500Y-2754856D01*
X-4039500Y-2723827D01*
X-4035643Y-2630571D01*
X-4039024Y-2603448D01*
X-4039500Y-2595773D01*
X-4039500Y-2426564D01*
X-4019815Y-2359525D01*
X-3967011Y-2313770D01*
X-3897853Y-2303826D01*
X-3834297Y-2332851D01*
X-3824279Y-2342573D01*
X-3721784Y-2453913D01*
X-3538626Y-2596470D01*
X-3334503Y-2706936D01*
X-3114981Y-2782298D01*
X-2886049Y-2820500D01*
X-2886048Y-2820500D01*
X-2653952Y-2820500D01*
X-2653951Y-2820500D01*
X-2425019Y-2782298D01*
X-2425017Y-2782297D01*
X-2425015Y-2782297D01*
X-2254699Y-2723827D01*
X-2205497Y-2706936D01*
X-2001374Y-2596470D01*
X-2001371Y-2596468D01*
X-2001365Y-2596464D01*
X-1818222Y-2453918D01*
X-1818219Y-2453915D01*
X-1818216Y-2453913D01*
X-1661021Y-2283153D01*
X-1661019Y-2283151D01*
X-1661016Y-2283147D01*
X-1534075Y-2088848D01*
X-1498556Y-2007872D01*
X-1453600Y-1954386D01*
X-1386864Y-1933696D01*
X-1319536Y-1952371D01*
X-1272993Y-2004481D01*
X-1271444Y-2007872D01*
X-1235924Y-2088849D01*
X-1108979Y-2283153D01*
X-951784Y-2453913D01*
X-768626Y-2596470D01*
X-564503Y-2706936D01*
X-344981Y-2782298D01*
X-116049Y-2820500D01*
X-116048Y-2820500D01*
X116048Y-2820500D01*
X116049Y-2820500D01*
X344981Y-2782298D01*
X564503Y-2706936D01*
X768626Y-2596470D01*
X951784Y-2453913D01*
X1108979Y-2283153D01*
X1235924Y-2088849D01*
X1271444Y-2007872D01*
X1316400Y-1954386D01*
X1383136Y-1933696D01*
X1450464Y-1952371D01*
X1497007Y-2004481D01*
X1498556Y-2007872D01*
X1534075Y-2088848D01*
X1661016Y-2283147D01*
X1661019Y-2283151D01*
X1661021Y-2283153D01*
X1818216Y-2453913D01*
X1818219Y-2453915D01*
X1818222Y-2453918D01*
X2001365Y-2596464D01*
X2001371Y-2596468D01*
X2001374Y-2596470D01*
X2205497Y-2706936D01*
X2254699Y-2723827D01*
X2425015Y-2782297D01*
X2425017Y-2782297D01*
X2425019Y-2782298D01*
X2653951Y-2820500D01*
X2653952Y-2820500D01*
X2886048Y-2820500D01*
X2886049Y-2820500D01*
X3114981Y-2782298D01*
X3334503Y-2706936D01*
X3538626Y-2596470D01*
X3721784Y-2453913D01*
X3878979Y-2283153D01*
X4005924Y-2088849D01*
X4041444Y-2007872D01*
X4086400Y-1954386D01*
X4153136Y-1933696D01*
X4220464Y-1952371D01*
X4267007Y-2004481D01*
X4268556Y-2007872D01*
X4304075Y-2088848D01*
X4431016Y-2283147D01*
X4431019Y-2283151D01*
X4431021Y-2283153D01*
X4588216Y-2453913D01*
X4588219Y-2453915D01*
X4588222Y-2453918D01*
X4771365Y-2596464D01*
X4771371Y-2596468D01*
X4771374Y-2596470D01*
X4975497Y-2706936D01*
X5024699Y-2723827D01*
X5195015Y-2782297D01*
X5195017Y-2782297D01*
X5195019Y-2782298D01*
X5423951Y-2820500D01*
X5423952Y-2820500D01*
X5656048Y-2820500D01*
X5656049Y-2820500D01*
X5884981Y-2782298D01*
X6104503Y-2706936D01*
X6308626Y-2596470D01*
X6491784Y-2453913D01*
X6648979Y-2283153D01*
X6775924Y-2088849D01*
X6811444Y-2007872D01*
X6856400Y-1954386D01*
X6923136Y-1933696D01*
X6990464Y-1952371D01*
X7037007Y-2004481D01*
X7038556Y-2007872D01*
X7074075Y-2088848D01*
X7201016Y-2283147D01*
X7201019Y-2283151D01*
X7201021Y-2283153D01*
X7358216Y-2453913D01*
X7358219Y-2453915D01*
X7358222Y-2453918D01*
X7541365Y-2596464D01*
X7541371Y-2596468D01*
X7541374Y-2596470D01*
X7745497Y-2706936D01*
X7794699Y-2723827D01*
X7965015Y-2782297D01*
X7965017Y-2782297D01*
X7965019Y-2782298D01*
X8193951Y-2820500D01*
X8193952Y-2820500D01*
X8426048Y-2820500D01*
X8426049Y-2820500D01*
X8654981Y-2782298D01*
X8874503Y-2706936D01*
X9078626Y-2596470D01*
X9261784Y-2453913D01*
X9418979Y-2283153D01*
X9545924Y-2088849D01*
X9639157Y-1876300D01*
X9696134Y-1651305D01*
X9696135Y-1651297D01*
X9715300Y-1420006D01*
X9715300Y-1419993D01*
X9696135Y-1188702D01*
X9696133Y-1188691D01*
X9639157Y-963699D01*
X9545924Y-751151D01*
X9418983Y-556852D01*
X9418980Y-556849D01*
X9418979Y-556847D01*
X9261784Y-386087D01*
X9261779Y-386083D01*
X9261777Y-386081D01*
X9078634Y-243535D01*
X9078623Y-243528D01*
X9023235Y-213553D01*
X8973645Y-164333D01*
X8958538Y-96117D01*
X8982709Y-30561D01*
X9038485Y11520D01*
X9082248Y19500D01*
X10647872Y19501D01*
X10647876Y19501D01*
X10707483Y25908D01*
X10842328Y76202D01*
X10842335Y76206D01*
X10957544Y162452D01*
X10957547Y162455D01*
X11043793Y277664D01*
X11043797Y277671D01*
X11094091Y412517D01*
X11100500Y472127D01*
X11100499Y2367872D01*
X11094091Y2427483D01*
X11043796Y2562331D01*
X10957546Y2677546D01*
X10842331Y2763796D01*
X10707483Y2814091D01*
X10647873Y2820500D01*
X10449499Y2820499D01*
X10382461Y2840183D01*
X10336706Y2892987D01*
X10325500Y2944499D01*
X10325500Y53170541D01*
X10345185Y53237580D01*
X10397989Y53283335D01*
X10409233Y53287821D01*
X10424497Y53293061D01*
X10424504Y53293064D01*
X10628628Y53403531D01*
X10628634Y53403535D01*
X10811777Y53546081D01*
X10811780Y53546084D01*
X10811784Y53546087D01*
X10968979Y53716847D01*
X10968980Y53716849D01*
X10968983Y53716852D01*
X11095924Y53911151D01*
X11189157Y54123699D01*
X11246133Y54348691D01*
X11246135Y54348702D01*
X11265300Y54579993D01*
X11265300Y54580006D01*
X11246135Y54811297D01*
X11246133Y54811308D01*
X11244365Y54818288D01*
X11189157Y55036300D01*
X11095924Y55248849D01*
X10968979Y55443153D01*
X10811784Y55613913D01*
X10628626Y55756470D01*
X10424503Y55866936D01*
X10204981Y55942298D01*
X9976049Y55980500D01*
X9743951Y55980500D01*
X9515019Y55942298D01*
X9515017Y55942297D01*
X9515015Y55942297D01*
X9423449Y55910862D01*
X9295497Y55866936D01*
X9295492Y55866933D01*
X9295486Y55866931D01*
X9278518Y55857748D01*
X9210190Y55843152D01*
X9144818Y55867814D01*
X9103157Y55923905D01*
X9095500Y55966802D01*
X9095500Y56092185D01*
X9115185Y56159224D01*
X9160482Y56201239D01*
X9238619Y56243525D01*
X9238634Y56243535D01*
X9421777Y56386081D01*
X9421780Y56386084D01*
X9421784Y56386087D01*
X9578979Y56556847D01*
X9578980Y56556849D01*
X9578983Y56556852D01*
X9705924Y56751151D01*
X9799157Y56963699D01*
X9856133Y57188691D01*
X9856135Y57188702D01*
X9875300Y57419993D01*
X9875300Y57420006D01*
X9856135Y57651297D01*
X9856133Y57651308D01*
X9799157Y57876300D01*
X9723382Y58049049D01*
X9705924Y58088849D01*
X9578979Y58283153D01*
X9421784Y58453913D01*
X9277341Y58566337D01*
X9238634Y58596464D01*
X9238631Y58596465D01*
X9238626Y58596470D01*
X9034503Y58706936D01*
X8814981Y58782298D01*
X8586049Y58820500D01*
X8353951Y58820500D01*
X8125019Y58782298D01*
X8125017Y58782297D01*
X8125015Y58782297D01*
X8045092Y58754859D01*
X7905497Y58706936D01*
X7701374Y58596470D01*
X7701372Y58596468D01*
X7701371Y58596468D01*
X7701365Y58596464D01*
X7518222Y58453918D01*
X7518216Y58453913D01*
X7361021Y58283153D01*
X7361019Y58283151D01*
X7361016Y58283147D01*
X7234075Y58088848D01*
X7193556Y57996473D01*
X7148600Y57942987D01*
X7081864Y57922297D01*
X7014536Y57940972D01*
X6967993Y57993082D01*
X6966444Y57996473D01*
X6943382Y58049049D01*
X6925924Y58088849D01*
X6798979Y58283153D01*
X6641784Y58453913D01*
X6497341Y58566337D01*
X6458634Y58596464D01*
X6458631Y58596465D01*
X6458626Y58596470D01*
X6254503Y58706936D01*
X6034981Y58782298D01*
X5806049Y58820500D01*
X5573951Y58820500D01*
X5345019Y58782298D01*
X5345017Y58782297D01*
X5345015Y58782297D01*
X5265092Y58754859D01*
X5125497Y58706936D01*
X4921374Y58596470D01*
X4921372Y58596468D01*
X4921371Y58596468D01*
X4921365Y58596464D01*
X4738222Y58453918D01*
X4738216Y58453913D01*
X4581021Y58283153D01*
X4581019Y58283151D01*
X4581016Y58283147D01*
X4454075Y58088848D01*
X4413556Y57996473D01*
X4368600Y57942987D01*
X4301864Y57922297D01*
X4234536Y57940972D01*
X4187993Y57993082D01*
X4186444Y57996473D01*
X4163382Y58049049D01*
X4145924Y58088849D01*
X4018979Y58283153D01*
X3861784Y58453913D01*
X3717341Y58566337D01*
X3678634Y58596464D01*
X3678631Y58596465D01*
X3678626Y58596470D01*
X3474503Y58706936D01*
X3254981Y58782298D01*
X3026049Y58820500D01*
X2793951Y58820500D01*
X2565019Y58782298D01*
X2565017Y58782297D01*
X2565015Y58782297D01*
X2485092Y58754859D01*
X2345497Y58706936D01*
X2141374Y58596470D01*
X2141372Y58596468D01*
X2141371Y58596468D01*
X2141365Y58596464D01*
X1958222Y58453918D01*
X1958216Y58453913D01*
X1801021Y58283153D01*
X1801019Y58283151D01*
X1801016Y58283147D01*
X1674075Y58088848D01*
X1633556Y57996473D01*
X1588600Y57942987D01*
X1521864Y57922297D01*
X1454536Y57940972D01*
X1407993Y57993082D01*
X1406444Y57996473D01*
X1383382Y58049049D01*
X1365924Y58088849D01*
X1238979Y58283153D01*
X1081784Y58453913D01*
X937341Y58566337D01*
X898634Y58596464D01*
X898631Y58596465D01*
X898626Y58596470D01*
X694503Y58706936D01*
X474981Y58782298D01*
X246049Y58820500D01*
X13951Y58820500D01*
X-214981Y58782298D01*
X-434503Y58706936D01*
X-638626Y58596470D01*
X-638631Y58596465D01*
X-638634Y58596464D01*
X-677341Y58566337D01*
X-821784Y58453913D01*
X-978979Y58283153D01*
X-1105924Y58088849D01*
X-1123382Y58049049D01*
X-1146444Y57996473D01*
X-1191400Y57942987D01*
X-1258136Y57922297D01*
X-1325464Y57940972D01*
X-1372007Y57993082D01*
X-1373556Y57996473D01*
X-1414075Y58088848D01*
X-1541016Y58283147D01*
X-1541019Y58283151D01*
X-1541021Y58283153D01*
X-1698216Y58453913D01*
X-1698222Y58453918D01*
X-1881365Y58596464D01*
X-1881371Y58596468D01*
X-1881372Y58596468D01*
X-1881374Y58596470D01*
X-2085497Y58706936D01*
X-2225092Y58754859D01*
X-2305015Y58782297D01*
X-2305017Y58782297D01*
X-2305019Y58782298D01*
X-2533951Y58820500D01*
X-2766049Y58820500D01*
X-2994981Y58782298D01*
X-3214503Y58706936D01*
X-3418626Y58596470D01*
X-3418631Y58596465D01*
X-3418634Y58596464D01*
X-3457341Y58566337D01*
X-3601784Y58453913D01*
X-3714272Y58331717D01*
X-3774156Y58295728D01*
X-3843994Y58297827D01*
X-3901611Y58337351D01*
X-3928713Y58401750D01*
X-3929500Y58415701D01*
X-3929500Y58595773D01*
X-3929024Y58603448D01*
X-3925643Y58630572D01*
X-3929500Y58723818D01*
X-3929500Y58754857D01*
X-3932063Y58785797D01*
X-3935919Y58879027D01*
X-3941526Y58905771D01*
X-3942635Y58913379D01*
X-3944891Y58940612D01*
X-3967803Y59031089D01*
X-3968844Y59036055D01*
X-3986951Y59122406D01*
X-3996882Y59147859D01*
X-3999227Y59155179D01*
X-4005935Y59181665D01*
X-4005939Y59181679D01*
X-4043425Y59267140D01*
X-4077344Y59354063D01*
X-4077347Y59354070D01*
X-4091328Y59377534D01*
X-4094846Y59384368D01*
X-4105824Y59409394D01*
X-4156865Y59487519D01*
X-4204634Y59567687D01*
X-4212783Y59577307D01*
X-4222296Y59588539D01*
X-4226887Y59594696D01*
X-4228517Y59597192D01*
X-4241836Y59617577D01*
X-4305044Y59686239D01*
X-4316275Y59699500D01*
X-4325101Y59709921D01*
X-4347038Y59731858D01*
X-4378647Y59766194D01*
X-4410256Y59800530D01*
X-4431830Y59817321D01*
X-4437582Y59822401D01*
X-9007594Y64392414D01*
X-9012683Y64398176D01*
X-9012687Y64398181D01*
X-9029470Y64419744D01*
X-9029473Y64419747D01*
X-9098129Y64482950D01*
X-9120074Y64504894D01*
X-9120075Y64504895D01*
X-9120076Y64504896D01*
X-9120082Y64504902D01*
X-9143772Y64524966D01*
X-9212423Y64588164D01*
X-9235294Y64603106D01*
X-9241461Y64607704D01*
X-9262313Y64625365D01*
X-9262314Y64625366D01*
X-9294713Y64644671D01*
X-9342486Y64673139D01*
X-9393520Y64706480D01*
X-9420601Y64724173D01*
X-9445622Y64735148D01*
X-9452451Y64738663D01*
X-9465865Y64746656D01*
X-9475928Y64752653D01*
X-9475938Y64752658D01*
X-9562871Y64786579D01*
X-9600355Y64803020D01*
X-9648327Y64824063D01*
X-9674817Y64830771D01*
X-9682141Y64833117D01*
X-9707594Y64843049D01*
X-9798919Y64862198D01*
X-9889387Y64885108D01*
X-9889392Y64885108D01*
X-9889395Y64885109D01*
X-9916614Y64887364D01*
X-9924224Y64888473D01*
X-9939088Y64891589D01*
X-9950971Y64894081D01*
X-10044217Y64897937D01*
X-10075141Y64900500D01*
X-10075142Y64900500D01*
X-10106173Y64900500D01*
X-10199429Y64904357D01*
X-10226555Y64900975D01*
X-10234227Y64900500D01*
X-19914251Y64900500D01*
X-19921922Y64900975D01*
X-19949049Y64904357D01*
X-20042305Y64900500D01*
X-20073337Y64900500D01*
X-20104260Y64897937D01*
X-20197507Y64894081D01*
X-20220174Y64889327D01*
X-20224252Y64888473D01*
X-20231863Y64887364D01*
X-20235918Y64887027D01*
X-20259091Y64885108D01*
X-20349544Y64862202D01*
X-20440884Y64843050D01*
X-20466353Y64833110D01*
X-20473655Y64830771D01*
X-20500151Y64824063D01*
X-20585602Y64786580D01*
X-20672543Y64752656D01*
X-20696034Y64738657D01*
X-20702841Y64735154D01*
X-20727877Y64724173D01*
X-20805994Y64673136D01*
X-20886164Y64625366D01*
X-20907024Y64607697D01*
X-20913164Y64603117D01*
X-20936055Y64588164D01*
X-21004705Y64524966D01*
X-21028396Y64504902D01*
X-21050348Y64482949D01*
X-21119008Y64419744D01*
X-21135800Y64398167D01*
X-21140874Y64392422D01*
X-26292422Y59240874D01*
X-26298167Y59235800D01*
X-26319744Y59219008D01*
X-26382949Y59150348D01*
X-26404902Y59128396D01*
X-26424966Y59104705D01*
X-26488164Y59036055D01*
X-26503117Y59013164D01*
X-26507697Y59007024D01*
X-26525366Y58986164D01*
X-26573139Y58905990D01*
X-26624173Y58827877D01*
X-26635149Y58802851D01*
X-26638659Y58796031D01*
X-26652656Y58772544D01*
X-26686579Y58685605D01*
X-26724063Y58600151D01*
X-26730774Y58573644D01*
X-26733112Y58566347D01*
X-26743049Y58540884D01*
X-26762198Y58449558D01*
X-26785108Y58359091D01*
X-26786909Y58337351D01*
X-26787364Y58331857D01*
X-26788472Y58324252D01*
X-26794081Y58297507D01*
X-26797937Y58204260D01*
X-26800500Y58173337D01*
X-26800500Y58142305D01*
X-26804357Y58049049D01*
X-26800976Y58021926D01*
X-26800500Y58014251D01*
X-26800500Y-2314251D01*
X-26800975Y-2321921D01*
X-26804357Y-2349049D01*
X-47511246Y-2349049D01*
X-47513981Y-2291633D01*
X-47546871Y-1506723D01*
X-47557765Y-920656D01*
X-47568031Y-132951D01*
X-47561943Y450862D01*
X-47549447Y1240915D01*
X-47526527Y1821723D01*
X-47491135Y2613626D01*
X-47451552Y3190956D01*
X-47393144Y3984075D01*
X-47337108Y4557176D01*
X-47255552Y5351161D01*
X-47183307Y5919306D01*
X-47078482Y6713656D01*
X-46990279Y7276318D01*
X-46862078Y8070458D01*
X-46758221Y8626944D01*
X-46606518Y9420456D01*
X-46487372Y9969957D01*
X-46312017Y10762499D01*
X-46177994Y11304217D01*
X-45978815Y12095494D01*
X-45830380Y12628616D01*
X-45607200Y13418276D01*
X-45444818Y13942174D01*
X-45197493Y14729727D01*
X-45021689Y15243700D01*
X-44750009Y16028820D01*
X-44561480Y16531846D01*
X-44265145Y17314412D01*
X-44064587Y17805670D01*
X-43743288Y18585467D01*
X-43531558Y19063936D01*
X-43184897Y19840872D01*
X-42962802Y20305825D01*
X-42590436Y21079586D01*
X-42359086Y21529844D01*
X-41960362Y22300652D01*
X-41721212Y22734638D01*
X-41295244Y23502964D01*
X-41049628Y23919613D01*
X-40595641Y24685515D01*
X-40345198Y25083491D01*
X-39862120Y25847345D01*
X-39608979Y26224852D01*
X-39095301Y26987474D01*
X-38842071Y27342403D01*
X-38295812Y28104965D01*
X-38045786Y28434734D01*
X-37464347Y29198849D01*
X-37221614Y29500411D01*
X-36601574Y30268245D01*
X-36371711Y30537439D01*
X-35708255Y31312210D01*
X-35498500Y31543896D01*
X-34785097Y32329921D01*
X-34606608Y32515929D01*
X-33832883Y33320510D01*
X-33702460Y33448763D01*
X-32852403Y34283154D01*
X-32797958Y34333671D01*
X-31845912Y35215719D01*
X-30814352Y36117558D01*
X-29757208Y36989268D01*
X-28675360Y37830123D01*
X-27581615Y38630709D01*
X-27572839Y38635662D01*
X-27569512Y38638471D01*
X-27565471Y38662493D01*
X-27569363Y38673758D01*
X-27569500Y38679588D01*
X-27569500Y73515333D01*
X-27549815Y73582372D01*
X-27497011Y73628127D01*
X-27445500Y73639333D01*
X27305500Y73639333D01*
X27372539Y73619648D01*
G37*
%TD.AperFunction*%
%TD*%
M02*
