%TF.GenerationSoftware,KiCad,Pcbnew,7.0.9*%
%TF.CreationDate,2024-05-16T17:58:55-06:00*%
%TF.ProjectId,KF50_Stepper_FT_1B_1O,4b463530-5f53-4746-9570-7065725f4654,rev?*%
%TF.SameCoordinates,Original*%
%TF.FileFunction,Copper,L3,Inr*%
%TF.FilePolarity,Positive*%
%FSLAX46Y46*%
G04 Gerber Fmt 4.6, Leading zero omitted, Abs format (unit mm)*
G04 Created by KiCad (PCBNEW 7.0.9) date 2024-05-16 17:58:55*
%MOMM*%
%LPD*%
G01*
G04 APERTURE LIST*
%TA.AperFunction,ComponentPad*%
%ADD10C,6.350000*%
%TD*%
%TA.AperFunction,ComponentPad*%
%ADD11C,1.800000*%
%TD*%
%TA.AperFunction,ComponentPad*%
%ADD12R,1.800000X1.800000*%
%TD*%
%TA.AperFunction,ComponentPad*%
%ADD13C,10.000000*%
%TD*%
%TA.AperFunction,Conductor*%
%ADD14C,2.000000*%
%TD*%
G04 APERTURE END LIST*
D10*
%TO.N,GND*%
%TO.C,J4*%
X16660000Y56000000D03*
X-16660000Y56000000D03*
D11*
%TO.N,Net-(J3-Pad1)*%
X9860000Y54580000D03*
%TO.N,Net-(J3-Pad2)*%
X7080000Y54580000D03*
%TO.N,Net-(J3-Pad3)*%
X4300000Y54580000D03*
%TO.N,Net-(J3-Pad4)*%
X1520000Y54580000D03*
%TO.N,Net-(J3-Pad5)*%
X-1260000Y54580000D03*
%TO.N,Net-(J3-Pad6)*%
X-4040000Y54580000D03*
%TO.N,Net-(J3-Pad7)*%
X-6820000Y54580000D03*
%TO.N,Net-(J3-Pad8)*%
X-9600000Y54580000D03*
%TO.N,Net-(J3-P9)*%
X8470000Y57420000D03*
%TO.N,Net-(J3-P10)*%
X5690000Y57420000D03*
%TO.N,Net-(J3-P111)*%
X2910000Y57420000D03*
%TO.N,Net-(J3-P12)*%
X130000Y57420000D03*
%TO.N,Net-(J3-P13)*%
X-2650000Y57420000D03*
%TO.N,Net-(J3-P14)*%
X-5430000Y57420000D03*
%TO.N,Net-(J3-P15)*%
X-8210000Y57420000D03*
%TD*%
D10*
%TO.N,GND*%
%TO.C,J3*%
X-16660000Y0D03*
X16660000Y0D03*
D12*
%TO.N,Net-(J3-Pad1)*%
X9700000Y1420000D03*
D11*
%TO.N,Net-(J3-Pad2)*%
X6920000Y1420000D03*
%TO.N,Net-(J3-Pad3)*%
X4160000Y1420000D03*
%TO.N,Net-(J3-Pad4)*%
X1380000Y1420000D03*
%TO.N,Net-(J3-Pad5)*%
X-1380000Y1420000D03*
%TO.N,Net-(J3-Pad6)*%
X-4160000Y1420000D03*
%TO.N,Net-(J3-Pad7)*%
X-6920000Y1420000D03*
%TO.N,Net-(J3-Pad8)*%
X-9700000Y1420000D03*
%TO.N,Net-(J3-P9)*%
X8310000Y-1420000D03*
%TO.N,Net-(J3-P10)*%
X5540000Y-1420000D03*
%TO.N,Net-(J3-P111)*%
X2770000Y-1420000D03*
%TO.N,Net-(J3-P12)*%
X0Y-1420000D03*
%TO.N,Net-(J3-P13)*%
X-2770000Y-1420000D03*
%TO.N,Net-(J3-P14)*%
X-5540000Y-1420000D03*
%TO.N,Net-(J3-P15)*%
X-8310000Y-1420000D03*
%TD*%
D13*
%TO.N,GND*%
%TO.C,H8*%
X38271001Y15821362D03*
%TD*%
%TO.N,GND*%
%TO.C,H7*%
X38271001Y-15941362D03*
%TD*%
%TO.N,GND*%
%TO.C,H6*%
X15811362Y38281001D03*
%TD*%
%TO.N,GND*%
%TO.C,Hm*%
X15811362Y-38401001D03*
%TD*%
%TO.N,GND*%
%TO.C,H4*%
X-15951362Y38281001D03*
%TD*%
%TO.N,GND*%
%TO.C,H3*%
X-15951362Y-38401001D03*
%TD*%
%TO.N,GND*%
%TO.C,H2*%
X-38411001Y15821362D03*
%TD*%
%TO.N,GND*%
%TO.C,H1*%
X-38411001Y-15941362D03*
%TD*%
D14*
%TO.N,GND*%
X22449639Y0D02*
X38271001Y15821362D01*
X16660000Y0D02*
X22449639Y0D01*
X-22589639Y0D02*
X-38411001Y15821362D01*
X-16660000Y0D02*
X-22589639Y0D01*
X-15951362Y38281001D02*
X-15951362Y55291362D01*
X-15951362Y55291362D02*
X-16660000Y56000000D01*
X-38411001Y15821362D02*
X-15951362Y38281001D01*
X-38411001Y-15941362D02*
X-38411001Y15821362D01*
X-15951362Y-38401001D02*
X-38411001Y-15941362D01*
X15811362Y-38401001D02*
X-15951362Y-38401001D01*
X38271001Y-15941362D02*
X15811362Y-38401001D01*
X38271001Y15821362D02*
X38271001Y-15941362D01*
X38271001Y15821362D02*
X15811362Y38281001D01*
X16660000Y39129639D02*
X15811362Y38281001D01*
X16660000Y56000000D02*
X16660000Y39129639D01*
%TD*%
%TA.AperFunction,Conductor*%
%TO.N,GND*%
G36*
X27372539Y73619648D02*
G01*
X27418294Y73566844D01*
X27429500Y73515333D01*
X27429500Y38679588D01*
X27425110Y38664639D01*
X27429512Y38638471D01*
X27432839Y38635662D01*
X27441615Y38630709D01*
X28535360Y37830123D01*
X29617208Y36989268D01*
X30674352Y36117558D01*
X31705912Y35215719D01*
X32657958Y34333671D01*
X32712403Y34283154D01*
X33562460Y33448763D01*
X33692883Y33320510D01*
X34466608Y32515929D01*
X34645097Y32329921D01*
X35358500Y31543896D01*
X35568255Y31312210D01*
X36231711Y30537439D01*
X36461574Y30268245D01*
X37081614Y29500411D01*
X37324347Y29198849D01*
X37905786Y28434734D01*
X38155812Y28104965D01*
X38702071Y27342403D01*
X38955301Y26987474D01*
X39468979Y26224852D01*
X39722120Y25847345D01*
X40205198Y25083491D01*
X40455641Y24685515D01*
X40909628Y23919613D01*
X41155244Y23502964D01*
X41581212Y22734638D01*
X41820362Y22300652D01*
X42219086Y21529844D01*
X42450436Y21079586D01*
X42822802Y20305825D01*
X43044897Y19840872D01*
X43391558Y19063936D01*
X43603288Y18585467D01*
X43924587Y17805670D01*
X44125145Y17314412D01*
X44421480Y16531846D01*
X44610009Y16028820D01*
X44881689Y15243700D01*
X45057493Y14729727D01*
X45304818Y13942174D01*
X45467200Y13418276D01*
X45690380Y12628616D01*
X45838815Y12095494D01*
X46037994Y11304217D01*
X46172017Y10762499D01*
X46347372Y9969957D01*
X46466518Y9420456D01*
X46618221Y8626944D01*
X46722078Y8070458D01*
X46850279Y7276318D01*
X46938482Y6713656D01*
X47043307Y5919306D01*
X47115552Y5351161D01*
X47197108Y4557176D01*
X47253144Y3984075D01*
X47311552Y3190956D01*
X47351135Y2613626D01*
X47386527Y1821723D01*
X47409447Y1240915D01*
X47421943Y450862D01*
X47428031Y-132951D01*
X47417765Y-920656D01*
X47406871Y-1506723D01*
X47373981Y-2291633D01*
X47345986Y-2879336D01*
X47290613Y-3660951D01*
X47245427Y-4249584D01*
X47167717Y-5027430D01*
X47105280Y-5616342D01*
X47005402Y-6389803D01*
X46925654Y-6978524D01*
X46803795Y-7746973D01*
X46706709Y-8334914D01*
X46563022Y-9098003D01*
X46448633Y-9684356D01*
X46283320Y-10441501D01*
X46151620Y-11025839D01*
X45964915Y-11776382D01*
X45815940Y-12358135D01*
X45608027Y-13101684D01*
X45441873Y-13680141D01*
X45212971Y-14416191D01*
X45029725Y-14990781D01*
X44780082Y-15718772D01*
X44579842Y-16288953D01*
X44309713Y-17008354D01*
X44092604Y-17573561D01*
X43802239Y-18283888D01*
X43568417Y-18843534D01*
X43258111Y-19544229D01*
X43007719Y-20097817D01*
X42677751Y-20788391D01*
X42410977Y-21335359D01*
X42061661Y-22015284D01*
X41778698Y-22555112D01*
X41410359Y-23223877D01*
X41111398Y-23756082D01*
X40724344Y-24413227D01*
X40409661Y-24937217D01*
X40004238Y-25582250D01*
X39674043Y-26097584D01*
X39250634Y-26729983D01*
X38905177Y-27236183D01*
X38464105Y-27855542D01*
X38103721Y-28352041D01*
X37645387Y-28957866D01*
X37270299Y-29444289D01*
X36795126Y-30036089D01*
X36405658Y-30511949D01*
X35914056Y-31089277D01*
X35510469Y-31554189D01*
X35002857Y-32116612D01*
X34585561Y-32570047D01*
X34062281Y-33117236D01*
X33631665Y-33558726D01*
X33093160Y-34090259D01*
X32649569Y-34519408D01*
X32096319Y-35034850D01*
X31640074Y-35451306D01*
X31072621Y-35950195D01*
X30604055Y-36353614D01*
X30022809Y-36835628D01*
X29542396Y-37225561D01*
X28947831Y-37690342D01*
X28455968Y-38066435D01*
X27848579Y-38513628D01*
X27345669Y-38875542D01*
X26725935Y-39304820D01*
X26212456Y-39652182D01*
X25580894Y-40063215D01*
X25057263Y-40395722D01*
X24414372Y-40788205D01*
X23881020Y-41105556D01*
X23227412Y-41479141D01*
X22684765Y-41781062D01*
X22020922Y-42135496D01*
X21469454Y-42421698D01*
X20795929Y-42756705D01*
X20236202Y-43026881D01*
X19553450Y-43342250D01*
X18985916Y-43596167D01*
X18294583Y-43891612D01*
X17719688Y-44129054D01*
X17020379Y-44404335D01*
X16438584Y-44625097D01*
X15731817Y-44880024D01*
X15143688Y-45083876D01*
X14430047Y-45318250D01*
X13836076Y-45505011D01*
X13116106Y-45718664D01*
X12516856Y-45888147D01*
X11791155Y-46080909D01*
X11187060Y-46232982D01*
X10456285Y-46404690D01*
X9847906Y-46539203D01*
X9112561Y-46689744D01*
X8500411Y-46806576D01*
X7761224Y-46935811D01*
X7145773Y-47034863D01*
X6403213Y-47142716D01*
X5785184Y-47223868D01*
X5039792Y-47310262D01*
X4419647Y-47373453D01*
X3672132Y-47438307D01*
X3050344Y-47483487D01*
X2301359Y-47526748D01*
X1678424Y-47553875D01*
X928555Y-47575513D01*
X305106Y-47584558D01*
X-445106Y-47584558D01*
X-1068555Y-47575513D01*
X-1818424Y-47553875D01*
X-2441359Y-47526748D01*
X-3190344Y-47483487D01*
X-3812132Y-47438307D01*
X-4559647Y-47373453D01*
X-5179792Y-47310262D01*
X-5925184Y-47223868D01*
X-6543213Y-47142716D01*
X-7285773Y-47034863D01*
X-7901224Y-46935811D01*
X-8640411Y-46806576D01*
X-9252561Y-46689744D01*
X-9987906Y-46539203D01*
X-10596285Y-46404690D01*
X-11327060Y-46232982D01*
X-11931155Y-46080909D01*
X-12656856Y-45888147D01*
X-13256106Y-45718664D01*
X-13976076Y-45505011D01*
X-14570047Y-45318250D01*
X-15283688Y-45083876D01*
X-15871817Y-44880024D01*
X-16578584Y-44625097D01*
X-17160379Y-44404335D01*
X-17859688Y-44129054D01*
X-18434583Y-43891612D01*
X-19125916Y-43596167D01*
X-19693450Y-43342250D01*
X-20376202Y-43026881D01*
X-20935929Y-42756705D01*
X-21609454Y-42421698D01*
X-22160922Y-42135496D01*
X-22824765Y-41781062D01*
X-23367412Y-41479141D01*
X-24021020Y-41105556D01*
X-24554372Y-40788205D01*
X-25197263Y-40395722D01*
X-25720894Y-40063215D01*
X-26352456Y-39652182D01*
X-26865935Y-39304820D01*
X-27485669Y-38875542D01*
X-27988579Y-38513628D01*
X-28595968Y-38066435D01*
X-29087831Y-37690342D01*
X-29682396Y-37225561D01*
X-30162809Y-36835628D01*
X-30744055Y-36353614D01*
X-31212621Y-35950195D01*
X-31780074Y-35451306D01*
X-32236319Y-35034850D01*
X-32789569Y-34519408D01*
X-33233160Y-34090259D01*
X-33771665Y-33558726D01*
X-34202281Y-33117236D01*
X-34725561Y-32570047D01*
X-35142857Y-32116612D01*
X-35650469Y-31554189D01*
X-36054056Y-31089277D01*
X-36545658Y-30511949D01*
X-36935126Y-30036089D01*
X-37410299Y-29444289D01*
X-37785387Y-28957866D01*
X-38243721Y-28352041D01*
X-38604105Y-27855542D01*
X-39045177Y-27236183D01*
X-39390634Y-26729983D01*
X-39814043Y-26097584D01*
X-40144238Y-25582250D01*
X-40549661Y-24937217D01*
X-40864344Y-24413227D01*
X-41251398Y-23756082D01*
X-41550359Y-23223877D01*
X-41918698Y-22555112D01*
X-42201661Y-22015284D01*
X-42550977Y-21335359D01*
X-42817751Y-20788391D01*
X-43147719Y-20097817D01*
X-43398111Y-19544229D01*
X-43708417Y-18843534D01*
X-43942239Y-18283888D01*
X-44232604Y-17573561D01*
X-44449713Y-17008354D01*
X-44719842Y-16288953D01*
X-44920082Y-15718772D01*
X-45169725Y-14990781D01*
X-45352971Y-14416191D01*
X-45581873Y-13680141D01*
X-45748027Y-13101684D01*
X-45955940Y-12358135D01*
X-46104915Y-11776382D01*
X-46291620Y-11025839D01*
X-46423320Y-10441501D01*
X-46588633Y-9684356D01*
X-46703022Y-9098003D01*
X-46846709Y-8334914D01*
X-46943795Y-7746973D01*
X-47065654Y-6978524D01*
X-47145402Y-6389803D01*
X-47245280Y-5616342D01*
X-47307717Y-5027430D01*
X-47385427Y-4249584D01*
X-47430613Y-3660951D01*
X-47485986Y-2879336D01*
X-47513981Y-2291633D01*
X-47546871Y-1506723D01*
X-47557765Y-920656D01*
X-47568031Y-132951D01*
X-47561943Y450862D01*
X-47549447Y1240915D01*
X-47542380Y1419993D01*
X-11105300Y1419993D01*
X-11086135Y1188702D01*
X-11086133Y1188691D01*
X-11029157Y963699D01*
X-10935924Y751151D01*
X-10808983Y556852D01*
X-10808980Y556849D01*
X-10808979Y556847D01*
X-10651784Y386087D01*
X-10651780Y386084D01*
X-10651777Y386081D01*
X-10468634Y243535D01*
X-10468628Y243531D01*
X-10264504Y133064D01*
X-10264495Y133061D01*
X-10044984Y57702D01*
X-9873282Y29050D01*
X-9816049Y19500D01*
X-9816048Y19500D01*
X-9583952Y19500D01*
X-9583951Y19500D01*
X-9538164Y27140D01*
X-9355015Y57702D01*
X-9135504Y133061D01*
X-9135495Y133064D01*
X-8931371Y243531D01*
X-8931365Y243535D01*
X-8748222Y386081D01*
X-8748219Y386084D01*
X-8723886Y412516D01*
X-8669008Y472130D01*
X-8591016Y556852D01*
X-8464076Y751149D01*
X-8423556Y843527D01*
X-8378600Y897012D01*
X-8311864Y917702D01*
X-8244536Y899027D01*
X-8197993Y846917D01*
X-8196444Y843527D01*
X-8155923Y751149D01*
X-8028983Y556852D01*
X-8028980Y556849D01*
X-8028979Y556847D01*
X-7871784Y386087D01*
X-7871780Y386084D01*
X-7871777Y386081D01*
X-7688634Y243535D01*
X-7688628Y243531D01*
X-7484504Y133064D01*
X-7484495Y133061D01*
X-7264984Y57702D01*
X-7093282Y29050D01*
X-7036049Y19500D01*
X-7036048Y19500D01*
X-6803952Y19500D01*
X-6803951Y19500D01*
X-6758164Y27140D01*
X-6575015Y57702D01*
X-6355504Y133061D01*
X-6355495Y133064D01*
X-6151371Y243531D01*
X-6151365Y243535D01*
X-5968222Y386081D01*
X-5968219Y386084D01*
X-5943886Y412516D01*
X-5889008Y472130D01*
X-5811016Y556852D01*
X-5684076Y751149D01*
X-5653556Y820729D01*
X-5608599Y874214D01*
X-5541863Y894904D01*
X-5474536Y876229D01*
X-5427992Y824119D01*
X-5426444Y820729D01*
X-5395923Y751149D01*
X-5268983Y556852D01*
X-5268980Y556849D01*
X-5268979Y556847D01*
X-5111784Y386087D01*
X-5111780Y386084D01*
X-5111777Y386081D01*
X-4928634Y243535D01*
X-4928628Y243531D01*
X-4724504Y133064D01*
X-4724495Y133061D01*
X-4504984Y57702D01*
X-4333282Y29050D01*
X-4276049Y19500D01*
X-4276048Y19500D01*
X-4043952Y19500D01*
X-4043951Y19500D01*
X-3998164Y27140D01*
X-3815015Y57702D01*
X-3595504Y133061D01*
X-3595495Y133064D01*
X-3391371Y243531D01*
X-3391365Y243535D01*
X-3208222Y386081D01*
X-3208219Y386084D01*
X-3183886Y412516D01*
X-3129008Y472130D01*
X-3051016Y556852D01*
X-2924076Y751149D01*
X-2883556Y843527D01*
X-2838600Y897012D01*
X-2771864Y917702D01*
X-2704536Y899027D01*
X-2657993Y846917D01*
X-2656444Y843527D01*
X-2615923Y751149D01*
X-2488983Y556852D01*
X-2488980Y556849D01*
X-2488979Y556847D01*
X-2331784Y386087D01*
X-2331780Y386084D01*
X-2331777Y386081D01*
X-2148634Y243535D01*
X-2148628Y243531D01*
X-1944504Y133064D01*
X-1944495Y133061D01*
X-1724984Y57702D01*
X-1553282Y29050D01*
X-1496049Y19500D01*
X-1496048Y19500D01*
X-1263952Y19500D01*
X-1263951Y19500D01*
X-1218164Y27140D01*
X-1035015Y57702D01*
X-815504Y133061D01*
X-815495Y133064D01*
X-611371Y243531D01*
X-611365Y243535D01*
X-428222Y386081D01*
X-428219Y386084D01*
X-403886Y412516D01*
X-349008Y472130D01*
X-271016Y556852D01*
X-144076Y751149D01*
X-113556Y820729D01*
X-68599Y874214D01*
X-1863Y894904D01*
X65464Y876229D01*
X112008Y824119D01*
X113556Y820729D01*
X144076Y751149D01*
X271016Y556852D01*
X349008Y472130D01*
X403886Y412516D01*
X428219Y386084D01*
X428222Y386081D01*
X611365Y243535D01*
X611371Y243531D01*
X815495Y133064D01*
X815504Y133061D01*
X1035015Y57702D01*
X1218164Y27140D01*
X1263951Y19500D01*
X1263952Y19500D01*
X1496048Y19500D01*
X1496049Y19500D01*
X1553282Y29050D01*
X1724984Y57702D01*
X1944495Y133061D01*
X1944504Y133064D01*
X2148628Y243531D01*
X2148634Y243535D01*
X2331777Y386081D01*
X2331780Y386084D01*
X2331784Y386087D01*
X2488979Y556847D01*
X2488980Y556849D01*
X2488983Y556852D01*
X2615923Y751149D01*
X2656444Y843527D01*
X2701400Y897012D01*
X2768136Y917702D01*
X2835464Y899027D01*
X2882007Y846917D01*
X2883556Y843527D01*
X2924076Y751149D01*
X3051016Y556852D01*
X3129008Y472130D01*
X3183886Y412516D01*
X3208219Y386084D01*
X3208222Y386081D01*
X3391365Y243535D01*
X3391371Y243531D01*
X3595495Y133064D01*
X3595504Y133061D01*
X3815015Y57702D01*
X3998164Y27140D01*
X4043951Y19500D01*
X4043952Y19500D01*
X4276048Y19500D01*
X4276049Y19500D01*
X4333282Y29050D01*
X4504984Y57702D01*
X4724495Y133061D01*
X4724504Y133064D01*
X4928628Y243531D01*
X4928634Y243535D01*
X5111777Y386081D01*
X5111780Y386084D01*
X5111784Y386087D01*
X5268979Y556847D01*
X5268980Y556849D01*
X5268983Y556852D01*
X5395923Y751149D01*
X5426444Y820729D01*
X5471401Y874214D01*
X5538137Y894904D01*
X5605464Y876229D01*
X5652008Y824119D01*
X5653556Y820729D01*
X5684076Y751149D01*
X5811016Y556852D01*
X5889008Y472130D01*
X5943886Y412516D01*
X5968219Y386084D01*
X5968222Y386081D01*
X6151365Y243535D01*
X6151371Y243531D01*
X6355495Y133064D01*
X6355504Y133061D01*
X6575015Y57702D01*
X6758164Y27140D01*
X6803951Y19500D01*
X6803952Y19500D01*
X7036048Y19500D01*
X7036049Y19500D01*
X7093282Y29050D01*
X7264984Y57702D01*
X7484495Y133061D01*
X7484504Y133064D01*
X7688628Y243531D01*
X7688634Y243535D01*
X7871777Y386081D01*
X7871780Y386084D01*
X7871784Y386087D01*
X8028979Y556847D01*
X8028980Y556849D01*
X8028983Y556852D01*
X8071691Y622223D01*
X8124837Y667580D01*
X8194068Y677004D01*
X8257404Y647503D01*
X8294736Y588442D01*
X8299500Y554403D01*
X8299500Y472130D01*
X8299501Y472123D01*
X8305908Y412516D01*
X8356202Y277671D01*
X8356204Y277668D01*
X8381760Y243530D01*
X8430209Y178810D01*
X8454627Y113347D01*
X8439776Y45074D01*
X8390371Y-4332D01*
X8330943Y-19500D01*
X8193951Y-19500D01*
X8148164Y-27140D01*
X7965015Y-57702D01*
X7745504Y-133061D01*
X7745495Y-133064D01*
X7541371Y-243531D01*
X7541365Y-243535D01*
X7358222Y-386081D01*
X7358219Y-386084D01*
X7201016Y-556852D01*
X7074076Y-751149D01*
X7038556Y-832128D01*
X6993600Y-885613D01*
X6926863Y-906303D01*
X6859536Y-887628D01*
X6812992Y-835518D01*
X6811444Y-832128D01*
X6775923Y-751149D01*
X6648983Y-556852D01*
X6648980Y-556849D01*
X6648979Y-556847D01*
X6491784Y-386087D01*
X6491779Y-386083D01*
X6491777Y-386081D01*
X6308634Y-243535D01*
X6308628Y-243531D01*
X6104504Y-133064D01*
X6104495Y-133061D01*
X5884984Y-57702D01*
X5713282Y-29050D01*
X5656049Y-19500D01*
X5423951Y-19500D01*
X5378164Y-27140D01*
X5195015Y-57702D01*
X4975504Y-133061D01*
X4975495Y-133064D01*
X4771371Y-243531D01*
X4771365Y-243535D01*
X4588222Y-386081D01*
X4588219Y-386084D01*
X4431016Y-556852D01*
X4304076Y-751149D01*
X4268556Y-832128D01*
X4223600Y-885613D01*
X4156863Y-906303D01*
X4089536Y-887628D01*
X4042992Y-835518D01*
X4041444Y-832128D01*
X4005923Y-751149D01*
X3878983Y-556852D01*
X3878980Y-556849D01*
X3878979Y-556847D01*
X3721784Y-386087D01*
X3721779Y-386083D01*
X3721777Y-386081D01*
X3538634Y-243535D01*
X3538628Y-243531D01*
X3334504Y-133064D01*
X3334495Y-133061D01*
X3114984Y-57702D01*
X2943282Y-29050D01*
X2886049Y-19500D01*
X2653951Y-19500D01*
X2608164Y-27140D01*
X2425015Y-57702D01*
X2205504Y-133061D01*
X2205495Y-133064D01*
X2001371Y-243531D01*
X2001365Y-243535D01*
X1818222Y-386081D01*
X1818219Y-386084D01*
X1661016Y-556852D01*
X1534076Y-751149D01*
X1498556Y-832128D01*
X1453600Y-885613D01*
X1386863Y-906303D01*
X1319536Y-887628D01*
X1272992Y-835518D01*
X1271444Y-832128D01*
X1235923Y-751149D01*
X1108983Y-556852D01*
X1108980Y-556849D01*
X1108979Y-556847D01*
X951784Y-386087D01*
X951779Y-386083D01*
X951777Y-386081D01*
X768634Y-243535D01*
X768628Y-243531D01*
X564504Y-133064D01*
X564495Y-133061D01*
X344984Y-57702D01*
X173282Y-29050D01*
X116049Y-19500D01*
X-116049Y-19500D01*
X-173282Y-29050D01*
X-344984Y-57702D01*
X-564495Y-133061D01*
X-564504Y-133064D01*
X-768628Y-243531D01*
X-768634Y-243535D01*
X-951777Y-386081D01*
X-951779Y-386083D01*
X-951784Y-386087D01*
X-1108979Y-556847D01*
X-1108980Y-556849D01*
X-1108983Y-556852D01*
X-1235923Y-751149D01*
X-1271444Y-832128D01*
X-1316400Y-885613D01*
X-1383137Y-906303D01*
X-1450464Y-887628D01*
X-1497008Y-835518D01*
X-1498556Y-832128D01*
X-1534076Y-751149D01*
X-1661016Y-556852D01*
X-1818219Y-386084D01*
X-1818222Y-386081D01*
X-2001365Y-243535D01*
X-2001371Y-243531D01*
X-2205495Y-133064D01*
X-2205504Y-133061D01*
X-2425015Y-57702D01*
X-2608164Y-27140D01*
X-2653951Y-19500D01*
X-2886049Y-19500D01*
X-2943282Y-29050D01*
X-3114984Y-57702D01*
X-3334495Y-133061D01*
X-3334504Y-133064D01*
X-3538628Y-243531D01*
X-3538634Y-243535D01*
X-3721777Y-386081D01*
X-3721779Y-386083D01*
X-3721784Y-386087D01*
X-3878979Y-556847D01*
X-3878980Y-556849D01*
X-3878983Y-556852D01*
X-4005923Y-751149D01*
X-4041444Y-832128D01*
X-4086400Y-885613D01*
X-4153137Y-906303D01*
X-4220464Y-887628D01*
X-4267008Y-835518D01*
X-4268556Y-832128D01*
X-4304076Y-751149D01*
X-4431016Y-556852D01*
X-4588219Y-386084D01*
X-4588222Y-386081D01*
X-4771365Y-243535D01*
X-4771371Y-243531D01*
X-4975495Y-133064D01*
X-4975504Y-133061D01*
X-5195015Y-57702D01*
X-5378164Y-27140D01*
X-5423951Y-19500D01*
X-5656049Y-19500D01*
X-5713282Y-29050D01*
X-5884984Y-57702D01*
X-6104495Y-133061D01*
X-6104504Y-133064D01*
X-6308628Y-243531D01*
X-6308634Y-243535D01*
X-6491777Y-386081D01*
X-6491779Y-386083D01*
X-6491784Y-386087D01*
X-6648979Y-556847D01*
X-6648980Y-556849D01*
X-6648983Y-556852D01*
X-6775923Y-751149D01*
X-6811444Y-832128D01*
X-6856400Y-885613D01*
X-6923137Y-906303D01*
X-6990464Y-887628D01*
X-7037008Y-835518D01*
X-7038556Y-832128D01*
X-7074076Y-751149D01*
X-7201016Y-556852D01*
X-7358219Y-386084D01*
X-7358222Y-386081D01*
X-7541365Y-243535D01*
X-7541371Y-243531D01*
X-7745495Y-133064D01*
X-7745504Y-133061D01*
X-7965015Y-57702D01*
X-8148164Y-27140D01*
X-8193951Y-19500D01*
X-8426049Y-19500D01*
X-8483282Y-29050D01*
X-8654984Y-57702D01*
X-8874495Y-133061D01*
X-8874504Y-133064D01*
X-9078628Y-243531D01*
X-9078634Y-243535D01*
X-9261777Y-386081D01*
X-9261779Y-386083D01*
X-9261784Y-386087D01*
X-9418979Y-556847D01*
X-9418980Y-556849D01*
X-9418983Y-556852D01*
X-9545924Y-751151D01*
X-9639157Y-963699D01*
X-9696133Y-1188691D01*
X-9696135Y-1188702D01*
X-9715300Y-1419993D01*
X-9715300Y-1420006D01*
X-9696135Y-1651297D01*
X-9696134Y-1651305D01*
X-9639157Y-1876300D01*
X-9545924Y-2088849D01*
X-9418979Y-2283153D01*
X-9261784Y-2453913D01*
X-9078626Y-2596470D01*
X-8874503Y-2706936D01*
X-8654981Y-2782298D01*
X-8426049Y-2820500D01*
X-8426048Y-2820500D01*
X-8193952Y-2820500D01*
X-8193951Y-2820500D01*
X-7965019Y-2782298D01*
X-7965017Y-2782297D01*
X-7965015Y-2782297D01*
X-7859487Y-2746068D01*
X-7745497Y-2706936D01*
X-7541374Y-2596470D01*
X-7541371Y-2596468D01*
X-7541365Y-2596464D01*
X-7358222Y-2453918D01*
X-7358219Y-2453915D01*
X-7358216Y-2453913D01*
X-7201021Y-2283153D01*
X-7201019Y-2283151D01*
X-7201016Y-2283147D01*
X-7074075Y-2088848D01*
X-7038556Y-2007872D01*
X-6993600Y-1954386D01*
X-6926864Y-1933696D01*
X-6859536Y-1952371D01*
X-6812993Y-2004481D01*
X-6811444Y-2007872D01*
X-6775924Y-2088849D01*
X-6648979Y-2283153D01*
X-6491784Y-2453913D01*
X-6308626Y-2596470D01*
X-6104503Y-2706936D01*
X-5884981Y-2782298D01*
X-5656049Y-2820500D01*
X-5656048Y-2820500D01*
X-5423952Y-2820500D01*
X-5423951Y-2820500D01*
X-5195019Y-2782298D01*
X-5195017Y-2782297D01*
X-5195015Y-2782297D01*
X-5089487Y-2746068D01*
X-4975497Y-2706936D01*
X-4771374Y-2596470D01*
X-4771371Y-2596468D01*
X-4771365Y-2596464D01*
X-4588222Y-2453918D01*
X-4588219Y-2453915D01*
X-4588216Y-2453913D01*
X-4431021Y-2283153D01*
X-4431019Y-2283151D01*
X-4431016Y-2283147D01*
X-4304075Y-2088848D01*
X-4268556Y-2007872D01*
X-4223600Y-1954386D01*
X-4156864Y-1933696D01*
X-4089536Y-1952371D01*
X-4042993Y-2004481D01*
X-4041444Y-2007872D01*
X-4005924Y-2088849D01*
X-3878979Y-2283153D01*
X-3721784Y-2453913D01*
X-3538626Y-2596470D01*
X-3334503Y-2706936D01*
X-3114981Y-2782298D01*
X-2886049Y-2820500D01*
X-2886048Y-2820500D01*
X-2653952Y-2820500D01*
X-2653951Y-2820500D01*
X-2425019Y-2782298D01*
X-2425017Y-2782297D01*
X-2425015Y-2782297D01*
X-2319487Y-2746068D01*
X-2205497Y-2706936D01*
X-2001374Y-2596470D01*
X-2001371Y-2596468D01*
X-2001365Y-2596464D01*
X-1818222Y-2453918D01*
X-1818219Y-2453915D01*
X-1818216Y-2453913D01*
X-1661021Y-2283153D01*
X-1661019Y-2283151D01*
X-1661016Y-2283147D01*
X-1534075Y-2088848D01*
X-1498556Y-2007872D01*
X-1453600Y-1954386D01*
X-1386864Y-1933696D01*
X-1319536Y-1952371D01*
X-1272993Y-2004481D01*
X-1271444Y-2007872D01*
X-1235924Y-2088849D01*
X-1108979Y-2283153D01*
X-951784Y-2453913D01*
X-768626Y-2596470D01*
X-564503Y-2706936D01*
X-344981Y-2782298D01*
X-116049Y-2820500D01*
X-116048Y-2820500D01*
X116048Y-2820500D01*
X116049Y-2820500D01*
X344981Y-2782298D01*
X564503Y-2706936D01*
X768626Y-2596470D01*
X951784Y-2453913D01*
X1108979Y-2283153D01*
X1235924Y-2088849D01*
X1271444Y-2007872D01*
X1316400Y-1954386D01*
X1383136Y-1933696D01*
X1450464Y-1952371D01*
X1497007Y-2004481D01*
X1498556Y-2007872D01*
X1534075Y-2088848D01*
X1661016Y-2283147D01*
X1661019Y-2283151D01*
X1661021Y-2283153D01*
X1818216Y-2453913D01*
X1818219Y-2453915D01*
X1818222Y-2453918D01*
X2001365Y-2596464D01*
X2001371Y-2596468D01*
X2001374Y-2596470D01*
X2205497Y-2706936D01*
X2319487Y-2746068D01*
X2425015Y-2782297D01*
X2425017Y-2782297D01*
X2425019Y-2782298D01*
X2653951Y-2820500D01*
X2653952Y-2820500D01*
X2886048Y-2820500D01*
X2886049Y-2820500D01*
X3114981Y-2782298D01*
X3334503Y-2706936D01*
X3538626Y-2596470D01*
X3721784Y-2453913D01*
X3878979Y-2283153D01*
X4005924Y-2088849D01*
X4041444Y-2007872D01*
X4086400Y-1954386D01*
X4153136Y-1933696D01*
X4220464Y-1952371D01*
X4267007Y-2004481D01*
X4268556Y-2007872D01*
X4304075Y-2088848D01*
X4431016Y-2283147D01*
X4431019Y-2283151D01*
X4431021Y-2283153D01*
X4588216Y-2453913D01*
X4588219Y-2453915D01*
X4588222Y-2453918D01*
X4771365Y-2596464D01*
X4771371Y-2596468D01*
X4771374Y-2596470D01*
X4975497Y-2706936D01*
X5089487Y-2746068D01*
X5195015Y-2782297D01*
X5195017Y-2782297D01*
X5195019Y-2782298D01*
X5423951Y-2820500D01*
X5423952Y-2820500D01*
X5656048Y-2820500D01*
X5656049Y-2820500D01*
X5884981Y-2782298D01*
X6104503Y-2706936D01*
X6308626Y-2596470D01*
X6491784Y-2453913D01*
X6648979Y-2283153D01*
X6775924Y-2088849D01*
X6811444Y-2007872D01*
X6856400Y-1954386D01*
X6923136Y-1933696D01*
X6990464Y-1952371D01*
X7037007Y-2004481D01*
X7038556Y-2007872D01*
X7074075Y-2088848D01*
X7201016Y-2283147D01*
X7201019Y-2283151D01*
X7201021Y-2283153D01*
X7358216Y-2453913D01*
X7358219Y-2453915D01*
X7358222Y-2453918D01*
X7541365Y-2596464D01*
X7541371Y-2596468D01*
X7541374Y-2596470D01*
X7745497Y-2706936D01*
X7859487Y-2746068D01*
X7965015Y-2782297D01*
X7965017Y-2782297D01*
X7965019Y-2782298D01*
X8193951Y-2820500D01*
X8193952Y-2820500D01*
X8426048Y-2820500D01*
X8426049Y-2820500D01*
X8654981Y-2782298D01*
X8874503Y-2706936D01*
X9078626Y-2596470D01*
X9261784Y-2453913D01*
X9418979Y-2283153D01*
X9545924Y-2088849D01*
X9639157Y-1876300D01*
X9696134Y-1651305D01*
X9696135Y-1651297D01*
X9715300Y-1420006D01*
X9715300Y-1419993D01*
X9696135Y-1188702D01*
X9696133Y-1188691D01*
X9639157Y-963699D01*
X9545924Y-751151D01*
X9418983Y-556852D01*
X9418980Y-556849D01*
X9418979Y-556847D01*
X9261784Y-386087D01*
X9261779Y-386083D01*
X9261777Y-386081D01*
X9078634Y-243535D01*
X9078623Y-243528D01*
X9023235Y-213553D01*
X8973645Y-164333D01*
X8958538Y-96117D01*
X8982709Y-30561D01*
X9038485Y11520D01*
X9082249Y19500D01*
X10647872Y19501D01*
X10647876Y19501D01*
X10707483Y25908D01*
X10842328Y76202D01*
X10842335Y76206D01*
X10957544Y162452D01*
X10957547Y162455D01*
X11043793Y277664D01*
X11043797Y277671D01*
X11094091Y412517D01*
X11100500Y472127D01*
X11100499Y2367872D01*
X11094091Y2427483D01*
X11043796Y2562331D01*
X10957546Y2677546D01*
X10842331Y2763796D01*
X10707483Y2814091D01*
X10647873Y2820500D01*
X8752128Y2820499D01*
X8703757Y2815299D01*
X8692516Y2814091D01*
X8557671Y2763797D01*
X8557664Y2763793D01*
X8442455Y2677547D01*
X8442452Y2677544D01*
X8356206Y2562335D01*
X8356202Y2562328D01*
X8305908Y2427482D01*
X8299501Y2367883D01*
X8299501Y2367876D01*
X8299500Y2367864D01*
X8299500Y2285598D01*
X8279815Y2218559D01*
X8227011Y2172804D01*
X8157853Y2162860D01*
X8094297Y2191885D01*
X8071691Y2217777D01*
X8028983Y2283147D01*
X8028982Y2283147D01*
X8028979Y2283153D01*
X7871784Y2453913D01*
X7688626Y2596470D01*
X7484503Y2706936D01*
X7264981Y2782298D01*
X7036049Y2820500D01*
X6803951Y2820500D01*
X6575019Y2782298D01*
X6575017Y2782297D01*
X6575015Y2782297D01*
X6469487Y2746068D01*
X6355497Y2706936D01*
X6151374Y2596470D01*
X6151372Y2596468D01*
X6151371Y2596468D01*
X6151365Y2596464D01*
X5968222Y2453918D01*
X5968216Y2453913D01*
X5811021Y2283153D01*
X5811019Y2283151D01*
X5811016Y2283147D01*
X5684075Y2088848D01*
X5653556Y2019271D01*
X5608600Y1965785D01*
X5541864Y1945095D01*
X5474536Y1963770D01*
X5427993Y2015880D01*
X5426444Y2019271D01*
X5395924Y2088848D01*
X5395924Y2088849D01*
X5268979Y2283153D01*
X5111784Y2453913D01*
X4928626Y2596470D01*
X4724503Y2706936D01*
X4504981Y2782298D01*
X4276049Y2820500D01*
X4043951Y2820500D01*
X3815019Y2782298D01*
X3815017Y2782297D01*
X3815015Y2782297D01*
X3709487Y2746068D01*
X3595497Y2706936D01*
X3391374Y2596470D01*
X3391372Y2596468D01*
X3391371Y2596468D01*
X3391365Y2596464D01*
X3208222Y2453918D01*
X3208216Y2453913D01*
X3051021Y2283153D01*
X3051019Y2283151D01*
X3051016Y2283147D01*
X2924075Y2088848D01*
X2883556Y1996473D01*
X2838600Y1942987D01*
X2771864Y1922297D01*
X2704536Y1940972D01*
X2657993Y1993082D01*
X2656444Y1996473D01*
X2615924Y2088848D01*
X2615924Y2088849D01*
X2488979Y2283153D01*
X2331784Y2453913D01*
X2148626Y2596470D01*
X1944503Y2706936D01*
X1724981Y2782298D01*
X1496049Y2820500D01*
X1263951Y2820500D01*
X1035019Y2782298D01*
X1035017Y2782297D01*
X1035015Y2782297D01*
X929487Y2746068D01*
X815497Y2706936D01*
X611374Y2596470D01*
X611372Y2596468D01*
X611371Y2596468D01*
X611365Y2596464D01*
X428222Y2453918D01*
X428216Y2453913D01*
X271021Y2283153D01*
X271019Y2283151D01*
X271016Y2283147D01*
X144075Y2088848D01*
X113556Y2019271D01*
X68600Y1965785D01*
X1864Y1945095D01*
X-65464Y1963770D01*
X-112007Y2015880D01*
X-113556Y2019271D01*
X-144075Y2088848D01*
X-271016Y2283147D01*
X-271019Y2283151D01*
X-271021Y2283153D01*
X-428216Y2453913D01*
X-428222Y2453918D01*
X-611365Y2596464D01*
X-611371Y2596468D01*
X-611372Y2596468D01*
X-611374Y2596470D01*
X-815497Y2706936D01*
X-929487Y2746068D01*
X-1035015Y2782297D01*
X-1035017Y2782297D01*
X-1035019Y2782298D01*
X-1263951Y2820500D01*
X-1496049Y2820500D01*
X-1724981Y2782298D01*
X-1944503Y2706936D01*
X-2148626Y2596470D01*
X-2331784Y2453913D01*
X-2488979Y2283153D01*
X-2615924Y2088849D01*
X-2615924Y2088848D01*
X-2656444Y1996473D01*
X-2701400Y1942987D01*
X-2768136Y1922297D01*
X-2835464Y1940972D01*
X-2882007Y1993082D01*
X-2883556Y1996473D01*
X-2924075Y2088848D01*
X-3051016Y2283147D01*
X-3051019Y2283151D01*
X-3051021Y2283153D01*
X-3208216Y2453913D01*
X-3208222Y2453918D01*
X-3391365Y2596464D01*
X-3391371Y2596468D01*
X-3391372Y2596468D01*
X-3391374Y2596470D01*
X-3595497Y2706936D01*
X-3709487Y2746068D01*
X-3815015Y2782297D01*
X-3815017Y2782297D01*
X-3815019Y2782298D01*
X-4043951Y2820500D01*
X-4276049Y2820500D01*
X-4504981Y2782298D01*
X-4724503Y2706936D01*
X-4928626Y2596470D01*
X-5111784Y2453913D01*
X-5268979Y2283153D01*
X-5395924Y2088849D01*
X-5395924Y2088848D01*
X-5426444Y2019271D01*
X-5471400Y1965785D01*
X-5538136Y1945095D01*
X-5605464Y1963770D01*
X-5652007Y2015880D01*
X-5653556Y2019271D01*
X-5684075Y2088848D01*
X-5811016Y2283147D01*
X-5811019Y2283151D01*
X-5811021Y2283153D01*
X-5968216Y2453913D01*
X-5968222Y2453918D01*
X-6151365Y2596464D01*
X-6151371Y2596468D01*
X-6151372Y2596468D01*
X-6151374Y2596470D01*
X-6355497Y2706936D01*
X-6469487Y2746068D01*
X-6575015Y2782297D01*
X-6575017Y2782297D01*
X-6575019Y2782298D01*
X-6803951Y2820500D01*
X-7036049Y2820500D01*
X-7264981Y2782298D01*
X-7484503Y2706936D01*
X-7688626Y2596470D01*
X-7871784Y2453913D01*
X-8028979Y2283153D01*
X-8155924Y2088849D01*
X-8155924Y2088848D01*
X-8196444Y1996473D01*
X-8241400Y1942987D01*
X-8308136Y1922297D01*
X-8375464Y1940972D01*
X-8422007Y1993082D01*
X-8423556Y1996473D01*
X-8464075Y2088848D01*
X-8591016Y2283147D01*
X-8591019Y2283151D01*
X-8591021Y2283153D01*
X-8748216Y2453913D01*
X-8748222Y2453918D01*
X-8931365Y2596464D01*
X-8931371Y2596468D01*
X-8931372Y2596468D01*
X-8931374Y2596470D01*
X-9135497Y2706936D01*
X-9249487Y2746068D01*
X-9355015Y2782297D01*
X-9355017Y2782297D01*
X-9355019Y2782298D01*
X-9583951Y2820500D01*
X-9816049Y2820500D01*
X-10044981Y2782298D01*
X-10264503Y2706936D01*
X-10468626Y2596470D01*
X-10651784Y2453913D01*
X-10808979Y2283153D01*
X-10935924Y2088849D01*
X-10999905Y1942987D01*
X-11029157Y1876300D01*
X-11086133Y1651308D01*
X-11086135Y1651297D01*
X-11105300Y1420006D01*
X-11105300Y1419993D01*
X-47542380Y1419993D01*
X-47526527Y1821723D01*
X-47491135Y2613626D01*
X-47451552Y3190956D01*
X-47393144Y3984075D01*
X-47337108Y4557176D01*
X-47255552Y5351161D01*
X-47183307Y5919306D01*
X-47078482Y6713656D01*
X-46990279Y7276318D01*
X-46862078Y8070458D01*
X-46758221Y8626944D01*
X-46606518Y9420456D01*
X-46487372Y9969957D01*
X-46312017Y10762499D01*
X-46177994Y11304217D01*
X-45978815Y12095494D01*
X-45830380Y12628616D01*
X-45607200Y13418276D01*
X-45444818Y13942174D01*
X-45197493Y14729727D01*
X-45021689Y15243700D01*
X-44750009Y16028820D01*
X-44561480Y16531846D01*
X-44265145Y17314412D01*
X-44064587Y17805670D01*
X-43743288Y18585467D01*
X-43531558Y19063936D01*
X-43184897Y19840872D01*
X-42962802Y20305825D01*
X-42590436Y21079586D01*
X-42359086Y21529844D01*
X-41960362Y22300652D01*
X-41721212Y22734638D01*
X-41295244Y23502964D01*
X-41049628Y23919613D01*
X-40595641Y24685515D01*
X-40345198Y25083491D01*
X-39862120Y25847345D01*
X-39608979Y26224852D01*
X-39095301Y26987474D01*
X-38842071Y27342403D01*
X-38295812Y28104965D01*
X-38045786Y28434734D01*
X-37464347Y29198849D01*
X-37221614Y29500411D01*
X-36601574Y30268245D01*
X-36371711Y30537439D01*
X-35708255Y31312210D01*
X-35498500Y31543896D01*
X-34785097Y32329921D01*
X-34606608Y32515929D01*
X-33832883Y33320510D01*
X-33702460Y33448763D01*
X-32852403Y34283154D01*
X-32797958Y34333671D01*
X-31845912Y35215719D01*
X-30814352Y36117558D01*
X-29757208Y36989268D01*
X-28675360Y37830123D01*
X-27581615Y38630709D01*
X-27572839Y38635662D01*
X-27569512Y38638471D01*
X-27565471Y38662493D01*
X-27569363Y38673758D01*
X-27569500Y38679588D01*
X-27569500Y54579993D01*
X-11005300Y54579993D01*
X-10986135Y54348702D01*
X-10986133Y54348691D01*
X-10929157Y54123699D01*
X-10835924Y53911151D01*
X-10708983Y53716852D01*
X-10708980Y53716849D01*
X-10708979Y53716847D01*
X-10551784Y53546087D01*
X-10551780Y53546084D01*
X-10551777Y53546081D01*
X-10368634Y53403535D01*
X-10368628Y53403531D01*
X-10164504Y53293064D01*
X-10164495Y53293061D01*
X-9944984Y53217702D01*
X-9773282Y53189050D01*
X-9716049Y53179500D01*
X-9716048Y53179500D01*
X-9483952Y53179500D01*
X-9483951Y53179500D01*
X-9438164Y53187140D01*
X-9255015Y53217702D01*
X-9035504Y53293061D01*
X-9035495Y53293064D01*
X-8831371Y53403531D01*
X-8831365Y53403535D01*
X-8648222Y53546081D01*
X-8648219Y53546084D01*
X-8491016Y53716852D01*
X-8364076Y53911149D01*
X-8323556Y54003527D01*
X-8278600Y54057012D01*
X-8211864Y54077702D01*
X-8144536Y54059027D01*
X-8097993Y54006917D01*
X-8096444Y54003527D01*
X-8055923Y53911149D01*
X-7928983Y53716852D01*
X-7928980Y53716849D01*
X-7928979Y53716847D01*
X-7771784Y53546087D01*
X-7771780Y53546084D01*
X-7771777Y53546081D01*
X-7588634Y53403535D01*
X-7588628Y53403531D01*
X-7384504Y53293064D01*
X-7384495Y53293061D01*
X-7164984Y53217702D01*
X-6993282Y53189050D01*
X-6936049Y53179500D01*
X-6936048Y53179500D01*
X-6703952Y53179500D01*
X-6703951Y53179500D01*
X-6658164Y53187140D01*
X-6475015Y53217702D01*
X-6255504Y53293061D01*
X-6255495Y53293064D01*
X-6051371Y53403531D01*
X-6051365Y53403535D01*
X-5868222Y53546081D01*
X-5868219Y53546084D01*
X-5711016Y53716852D01*
X-5584076Y53911149D01*
X-5543556Y54003527D01*
X-5498600Y54057012D01*
X-5431864Y54077702D01*
X-5364536Y54059027D01*
X-5317993Y54006917D01*
X-5316444Y54003527D01*
X-5275923Y53911149D01*
X-5148983Y53716852D01*
X-5148980Y53716849D01*
X-5148979Y53716847D01*
X-4991784Y53546087D01*
X-4991780Y53546084D01*
X-4991777Y53546081D01*
X-4808634Y53403535D01*
X-4808628Y53403531D01*
X-4604504Y53293064D01*
X-4604495Y53293061D01*
X-4384984Y53217702D01*
X-4213282Y53189050D01*
X-4156049Y53179500D01*
X-4156048Y53179500D01*
X-3923952Y53179500D01*
X-3923951Y53179500D01*
X-3878164Y53187140D01*
X-3695015Y53217702D01*
X-3475504Y53293061D01*
X-3475495Y53293064D01*
X-3271371Y53403531D01*
X-3271365Y53403535D01*
X-3088222Y53546081D01*
X-3088219Y53546084D01*
X-2931016Y53716852D01*
X-2804076Y53911149D01*
X-2763556Y54003527D01*
X-2718600Y54057012D01*
X-2651864Y54077702D01*
X-2584536Y54059027D01*
X-2537993Y54006917D01*
X-2536444Y54003527D01*
X-2495923Y53911149D01*
X-2368983Y53716852D01*
X-2368980Y53716849D01*
X-2368979Y53716847D01*
X-2211784Y53546087D01*
X-2211780Y53546084D01*
X-2211777Y53546081D01*
X-2028634Y53403535D01*
X-2028628Y53403531D01*
X-1824504Y53293064D01*
X-1824495Y53293061D01*
X-1604984Y53217702D01*
X-1433282Y53189050D01*
X-1376049Y53179500D01*
X-1376048Y53179500D01*
X-1143952Y53179500D01*
X-1143951Y53179500D01*
X-1098164Y53187140D01*
X-915015Y53217702D01*
X-695504Y53293061D01*
X-695495Y53293064D01*
X-491371Y53403531D01*
X-491365Y53403535D01*
X-308222Y53546081D01*
X-308219Y53546084D01*
X-151016Y53716852D01*
X-24076Y53911149D01*
X16444Y54003527D01*
X61400Y54057012D01*
X128136Y54077702D01*
X195464Y54059027D01*
X242007Y54006917D01*
X243556Y54003527D01*
X284076Y53911149D01*
X411016Y53716852D01*
X568219Y53546084D01*
X568222Y53546081D01*
X751365Y53403535D01*
X751371Y53403531D01*
X955495Y53293064D01*
X955504Y53293061D01*
X1175015Y53217702D01*
X1358164Y53187140D01*
X1403951Y53179500D01*
X1403952Y53179500D01*
X1636048Y53179500D01*
X1636049Y53179500D01*
X1693282Y53189050D01*
X1864984Y53217702D01*
X2084495Y53293061D01*
X2084504Y53293064D01*
X2288628Y53403531D01*
X2288634Y53403535D01*
X2471777Y53546081D01*
X2471780Y53546084D01*
X2471784Y53546087D01*
X2628979Y53716847D01*
X2628980Y53716849D01*
X2628983Y53716852D01*
X2755923Y53911149D01*
X2796444Y54003527D01*
X2841400Y54057012D01*
X2908136Y54077702D01*
X2975464Y54059027D01*
X3022007Y54006917D01*
X3023556Y54003527D01*
X3064076Y53911149D01*
X3191016Y53716852D01*
X3348219Y53546084D01*
X3348222Y53546081D01*
X3531365Y53403535D01*
X3531371Y53403531D01*
X3735495Y53293064D01*
X3735504Y53293061D01*
X3955015Y53217702D01*
X4138164Y53187140D01*
X4183951Y53179500D01*
X4183952Y53179500D01*
X4416048Y53179500D01*
X4416049Y53179500D01*
X4473282Y53189050D01*
X4644984Y53217702D01*
X4864495Y53293061D01*
X4864504Y53293064D01*
X5068628Y53403531D01*
X5068634Y53403535D01*
X5251777Y53546081D01*
X5251780Y53546084D01*
X5251784Y53546087D01*
X5408979Y53716847D01*
X5408980Y53716849D01*
X5408983Y53716852D01*
X5535923Y53911149D01*
X5576444Y54003527D01*
X5621400Y54057012D01*
X5688136Y54077702D01*
X5755464Y54059027D01*
X5802007Y54006917D01*
X5803556Y54003527D01*
X5844076Y53911149D01*
X5971016Y53716852D01*
X6128219Y53546084D01*
X6128222Y53546081D01*
X6311365Y53403535D01*
X6311371Y53403531D01*
X6515495Y53293064D01*
X6515504Y53293061D01*
X6735015Y53217702D01*
X6918164Y53187140D01*
X6963951Y53179500D01*
X6963952Y53179500D01*
X7196048Y53179500D01*
X7196049Y53179500D01*
X7253282Y53189050D01*
X7424984Y53217702D01*
X7644495Y53293061D01*
X7644504Y53293064D01*
X7848628Y53403531D01*
X7848634Y53403535D01*
X8031777Y53546081D01*
X8031780Y53546084D01*
X8031784Y53546087D01*
X8188979Y53716847D01*
X8188980Y53716849D01*
X8188983Y53716852D01*
X8315923Y53911149D01*
X8356444Y54003527D01*
X8401400Y54057012D01*
X8468136Y54077702D01*
X8535464Y54059027D01*
X8582007Y54006917D01*
X8583556Y54003527D01*
X8624076Y53911149D01*
X8751016Y53716852D01*
X8908219Y53546084D01*
X8908222Y53546081D01*
X9091365Y53403535D01*
X9091371Y53403531D01*
X9295495Y53293064D01*
X9295504Y53293061D01*
X9515015Y53217702D01*
X9698164Y53187140D01*
X9743951Y53179500D01*
X9743952Y53179500D01*
X9976048Y53179500D01*
X9976049Y53179500D01*
X10033282Y53189050D01*
X10204984Y53217702D01*
X10424495Y53293061D01*
X10424504Y53293064D01*
X10628628Y53403531D01*
X10628634Y53403535D01*
X10811777Y53546081D01*
X10811780Y53546084D01*
X10811784Y53546087D01*
X10968979Y53716847D01*
X10968980Y53716849D01*
X10968983Y53716852D01*
X11095924Y53911151D01*
X11189157Y54123699D01*
X11246133Y54348691D01*
X11246135Y54348702D01*
X11265300Y54579993D01*
X11265300Y54580006D01*
X11246135Y54811297D01*
X11246133Y54811308D01*
X11189157Y55036300D01*
X11095924Y55248848D01*
X11095924Y55248849D01*
X10968979Y55443153D01*
X10811784Y55613913D01*
X10628626Y55756470D01*
X10424503Y55866936D01*
X10204981Y55942298D01*
X9976049Y55980500D01*
X9743951Y55980500D01*
X9515019Y55942298D01*
X9515017Y55942297D01*
X9515015Y55942297D01*
X9409487Y55906068D01*
X9295497Y55866936D01*
X9091374Y55756470D01*
X9091372Y55756468D01*
X9091371Y55756468D01*
X9091365Y55756464D01*
X8908222Y55613918D01*
X8908216Y55613913D01*
X8751021Y55443153D01*
X8751019Y55443151D01*
X8751016Y55443147D01*
X8624075Y55248848D01*
X8583556Y55156473D01*
X8538600Y55102987D01*
X8471864Y55082297D01*
X8404536Y55100972D01*
X8357993Y55153082D01*
X8356444Y55156473D01*
X8315924Y55248848D01*
X8315924Y55248849D01*
X8188979Y55443153D01*
X8031784Y55613913D01*
X7848626Y55756470D01*
X7644503Y55866936D01*
X7424981Y55942298D01*
X7196049Y55980500D01*
X6963951Y55980500D01*
X6735019Y55942298D01*
X6735017Y55942297D01*
X6735015Y55942297D01*
X6629487Y55906068D01*
X6515497Y55866936D01*
X6311374Y55756470D01*
X6311372Y55756468D01*
X6311371Y55756468D01*
X6311365Y55756464D01*
X6128222Y55613918D01*
X6128216Y55613913D01*
X5971021Y55443153D01*
X5971019Y55443151D01*
X5971016Y55443147D01*
X5844075Y55248848D01*
X5803556Y55156473D01*
X5758600Y55102987D01*
X5691864Y55082297D01*
X5624536Y55100972D01*
X5577993Y55153082D01*
X5576444Y55156473D01*
X5535924Y55248848D01*
X5535924Y55248849D01*
X5408979Y55443153D01*
X5251784Y55613913D01*
X5068626Y55756470D01*
X4864503Y55866936D01*
X4644981Y55942298D01*
X4416049Y55980500D01*
X4183951Y55980500D01*
X3955019Y55942298D01*
X3955017Y55942297D01*
X3955015Y55942297D01*
X3849487Y55906068D01*
X3735497Y55866936D01*
X3531374Y55756470D01*
X3531372Y55756468D01*
X3531371Y55756468D01*
X3531365Y55756464D01*
X3348222Y55613918D01*
X3348216Y55613913D01*
X3191021Y55443153D01*
X3191019Y55443151D01*
X3191016Y55443147D01*
X3064075Y55248848D01*
X3023556Y55156473D01*
X2978600Y55102987D01*
X2911864Y55082297D01*
X2844536Y55100972D01*
X2797993Y55153082D01*
X2796444Y55156473D01*
X2755924Y55248848D01*
X2755924Y55248849D01*
X2628979Y55443153D01*
X2471784Y55613913D01*
X2288626Y55756470D01*
X2084503Y55866936D01*
X1864981Y55942298D01*
X1636049Y55980500D01*
X1403951Y55980500D01*
X1175019Y55942298D01*
X1175017Y55942297D01*
X1175015Y55942297D01*
X1069487Y55906068D01*
X955497Y55866936D01*
X751374Y55756470D01*
X751372Y55756468D01*
X751371Y55756468D01*
X751365Y55756464D01*
X568222Y55613918D01*
X568216Y55613913D01*
X411021Y55443153D01*
X411019Y55443151D01*
X411016Y55443147D01*
X284075Y55248848D01*
X243556Y55156473D01*
X198600Y55102987D01*
X131864Y55082297D01*
X64536Y55100972D01*
X17993Y55153082D01*
X16444Y55156473D01*
X-24075Y55248848D01*
X-151016Y55443147D01*
X-151019Y55443151D01*
X-151021Y55443153D01*
X-308216Y55613913D01*
X-308222Y55613918D01*
X-491365Y55756464D01*
X-491371Y55756468D01*
X-491372Y55756468D01*
X-491374Y55756470D01*
X-695497Y55866936D01*
X-809487Y55906068D01*
X-915015Y55942297D01*
X-915017Y55942297D01*
X-915019Y55942298D01*
X-1143951Y55980500D01*
X-1376049Y55980500D01*
X-1604981Y55942298D01*
X-1824503Y55866936D01*
X-2028626Y55756470D01*
X-2211784Y55613913D01*
X-2368979Y55443153D01*
X-2495924Y55248849D01*
X-2495924Y55248848D01*
X-2536444Y55156473D01*
X-2581400Y55102987D01*
X-2648136Y55082297D01*
X-2715464Y55100972D01*
X-2762007Y55153082D01*
X-2763556Y55156473D01*
X-2804075Y55248848D01*
X-2931016Y55443147D01*
X-2931019Y55443151D01*
X-2931021Y55443153D01*
X-3088216Y55613913D01*
X-3088222Y55613918D01*
X-3271365Y55756464D01*
X-3271371Y55756468D01*
X-3271372Y55756468D01*
X-3271374Y55756470D01*
X-3475497Y55866936D01*
X-3589487Y55906068D01*
X-3695015Y55942297D01*
X-3695017Y55942297D01*
X-3695019Y55942298D01*
X-3923951Y55980500D01*
X-4156049Y55980500D01*
X-4384981Y55942298D01*
X-4604503Y55866936D01*
X-4808626Y55756470D01*
X-4991784Y55613913D01*
X-5148979Y55443153D01*
X-5275924Y55248849D01*
X-5275924Y55248848D01*
X-5316444Y55156473D01*
X-5361400Y55102987D01*
X-5428136Y55082297D01*
X-5495464Y55100972D01*
X-5542007Y55153082D01*
X-5543556Y55156473D01*
X-5584075Y55248848D01*
X-5711016Y55443147D01*
X-5711019Y55443151D01*
X-5711021Y55443153D01*
X-5868216Y55613913D01*
X-5868222Y55613918D01*
X-6051365Y55756464D01*
X-6051371Y55756468D01*
X-6051372Y55756468D01*
X-6051374Y55756470D01*
X-6255497Y55866936D01*
X-6369487Y55906068D01*
X-6475015Y55942297D01*
X-6475017Y55942297D01*
X-6475019Y55942298D01*
X-6703951Y55980500D01*
X-6936049Y55980500D01*
X-7164981Y55942298D01*
X-7384503Y55866936D01*
X-7588626Y55756470D01*
X-7771784Y55613913D01*
X-7928979Y55443153D01*
X-8055924Y55248849D01*
X-8055924Y55248848D01*
X-8096444Y55156473D01*
X-8141400Y55102987D01*
X-8208136Y55082297D01*
X-8275464Y55100972D01*
X-8322007Y55153082D01*
X-8323556Y55156473D01*
X-8364075Y55248848D01*
X-8491016Y55443147D01*
X-8491019Y55443151D01*
X-8491021Y55443153D01*
X-8648216Y55613913D01*
X-8648222Y55613918D01*
X-8831365Y55756464D01*
X-8831371Y55756468D01*
X-8831372Y55756468D01*
X-8831374Y55756470D01*
X-9035497Y55866936D01*
X-9149487Y55906068D01*
X-9255015Y55942297D01*
X-9255017Y55942297D01*
X-9255019Y55942298D01*
X-9483951Y55980500D01*
X-9716049Y55980500D01*
X-9944981Y55942298D01*
X-10164503Y55866936D01*
X-10368626Y55756470D01*
X-10551784Y55613913D01*
X-10708979Y55443153D01*
X-10835924Y55248849D01*
X-10835924Y55248848D01*
X-10929157Y55036300D01*
X-10986133Y54811308D01*
X-10986135Y54811297D01*
X-11005300Y54580006D01*
X-11005300Y54579993D01*
X-27569500Y54579993D01*
X-27569500Y57419993D01*
X-9615300Y57419993D01*
X-9596135Y57188702D01*
X-9596133Y57188691D01*
X-9539157Y56963699D01*
X-9445924Y56751151D01*
X-9318983Y56556852D01*
X-9318980Y56556849D01*
X-9318979Y56556847D01*
X-9161784Y56386087D01*
X-9161780Y56386084D01*
X-9161777Y56386081D01*
X-8978634Y56243535D01*
X-8978628Y56243531D01*
X-8774504Y56133064D01*
X-8774495Y56133061D01*
X-8554984Y56057702D01*
X-8383282Y56029050D01*
X-8326049Y56019500D01*
X-8326048Y56019500D01*
X-8093952Y56019500D01*
X-8093951Y56019500D01*
X-8048164Y56027140D01*
X-7865015Y56057702D01*
X-7645504Y56133061D01*
X-7645495Y56133064D01*
X-7441371Y56243531D01*
X-7441365Y56243535D01*
X-7258222Y56386081D01*
X-7258219Y56386084D01*
X-7101016Y56556852D01*
X-6974076Y56751149D01*
X-6933556Y56843527D01*
X-6888600Y56897012D01*
X-6821864Y56917702D01*
X-6754536Y56899027D01*
X-6707993Y56846917D01*
X-6706444Y56843527D01*
X-6665923Y56751149D01*
X-6538983Y56556852D01*
X-6538980Y56556849D01*
X-6538979Y56556847D01*
X-6381784Y56386087D01*
X-6381780Y56386084D01*
X-6381777Y56386081D01*
X-6198634Y56243535D01*
X-6198628Y56243531D01*
X-5994504Y56133064D01*
X-5994495Y56133061D01*
X-5774984Y56057702D01*
X-5603282Y56029050D01*
X-5546049Y56019500D01*
X-5546048Y56019500D01*
X-5313952Y56019500D01*
X-5313951Y56019500D01*
X-5268164Y56027140D01*
X-5085015Y56057702D01*
X-4865504Y56133061D01*
X-4865495Y56133064D01*
X-4661371Y56243531D01*
X-4661365Y56243535D01*
X-4478222Y56386081D01*
X-4478219Y56386084D01*
X-4321016Y56556852D01*
X-4194076Y56751149D01*
X-4153556Y56843527D01*
X-4108600Y56897012D01*
X-4041864Y56917702D01*
X-3974536Y56899027D01*
X-3927993Y56846917D01*
X-3926444Y56843527D01*
X-3885923Y56751149D01*
X-3758983Y56556852D01*
X-3758980Y56556849D01*
X-3758979Y56556847D01*
X-3601784Y56386087D01*
X-3601780Y56386084D01*
X-3601777Y56386081D01*
X-3418634Y56243535D01*
X-3418628Y56243531D01*
X-3214504Y56133064D01*
X-3214495Y56133061D01*
X-2994984Y56057702D01*
X-2823282Y56029050D01*
X-2766049Y56019500D01*
X-2766048Y56019500D01*
X-2533952Y56019500D01*
X-2533951Y56019500D01*
X-2488164Y56027140D01*
X-2305015Y56057702D01*
X-2085504Y56133061D01*
X-2085495Y56133064D01*
X-1881371Y56243531D01*
X-1881365Y56243535D01*
X-1698222Y56386081D01*
X-1698219Y56386084D01*
X-1541016Y56556852D01*
X-1414076Y56751149D01*
X-1373556Y56843527D01*
X-1328600Y56897012D01*
X-1261864Y56917702D01*
X-1194536Y56899027D01*
X-1147993Y56846917D01*
X-1146444Y56843527D01*
X-1105923Y56751149D01*
X-978983Y56556852D01*
X-978980Y56556849D01*
X-978979Y56556847D01*
X-821784Y56386087D01*
X-821780Y56386084D01*
X-821777Y56386081D01*
X-638634Y56243535D01*
X-638628Y56243531D01*
X-434504Y56133064D01*
X-434495Y56133061D01*
X-214984Y56057702D01*
X-43282Y56029050D01*
X13951Y56019500D01*
X13952Y56019500D01*
X246048Y56019500D01*
X246049Y56019500D01*
X303282Y56029050D01*
X474984Y56057702D01*
X694495Y56133061D01*
X694504Y56133064D01*
X898628Y56243531D01*
X898634Y56243535D01*
X1081777Y56386081D01*
X1081780Y56386084D01*
X1081784Y56386087D01*
X1238979Y56556847D01*
X1238980Y56556849D01*
X1238983Y56556852D01*
X1365923Y56751149D01*
X1406444Y56843527D01*
X1451400Y56897012D01*
X1518136Y56917702D01*
X1585464Y56899027D01*
X1632007Y56846917D01*
X1633556Y56843527D01*
X1674076Y56751149D01*
X1801016Y56556852D01*
X1958219Y56386084D01*
X1958222Y56386081D01*
X2141365Y56243535D01*
X2141371Y56243531D01*
X2345495Y56133064D01*
X2345504Y56133061D01*
X2565015Y56057702D01*
X2748164Y56027140D01*
X2793951Y56019500D01*
X2793952Y56019500D01*
X3026048Y56019500D01*
X3026049Y56019500D01*
X3083282Y56029050D01*
X3254984Y56057702D01*
X3474495Y56133061D01*
X3474504Y56133064D01*
X3678628Y56243531D01*
X3678634Y56243535D01*
X3861777Y56386081D01*
X3861780Y56386084D01*
X3861784Y56386087D01*
X4018979Y56556847D01*
X4018980Y56556849D01*
X4018983Y56556852D01*
X4145923Y56751149D01*
X4186444Y56843527D01*
X4231400Y56897012D01*
X4298136Y56917702D01*
X4365464Y56899027D01*
X4412007Y56846917D01*
X4413556Y56843527D01*
X4454076Y56751149D01*
X4581016Y56556852D01*
X4738219Y56386084D01*
X4738222Y56386081D01*
X4921365Y56243535D01*
X4921371Y56243531D01*
X5125495Y56133064D01*
X5125504Y56133061D01*
X5345015Y56057702D01*
X5528164Y56027140D01*
X5573951Y56019500D01*
X5573952Y56019500D01*
X5806048Y56019500D01*
X5806049Y56019500D01*
X5863282Y56029050D01*
X6034984Y56057702D01*
X6254495Y56133061D01*
X6254504Y56133064D01*
X6458628Y56243531D01*
X6458634Y56243535D01*
X6641777Y56386081D01*
X6641780Y56386084D01*
X6641784Y56386087D01*
X6798979Y56556847D01*
X6798980Y56556849D01*
X6798983Y56556852D01*
X6925923Y56751149D01*
X6966444Y56843527D01*
X7011400Y56897012D01*
X7078136Y56917702D01*
X7145464Y56899027D01*
X7192007Y56846917D01*
X7193556Y56843527D01*
X7234076Y56751149D01*
X7361016Y56556852D01*
X7518219Y56386084D01*
X7518222Y56386081D01*
X7701365Y56243535D01*
X7701371Y56243531D01*
X7905495Y56133064D01*
X7905504Y56133061D01*
X8125015Y56057702D01*
X8308164Y56027140D01*
X8353951Y56019500D01*
X8353952Y56019500D01*
X8586048Y56019500D01*
X8586049Y56019500D01*
X8643282Y56029050D01*
X8814984Y56057702D01*
X9034495Y56133061D01*
X9034504Y56133064D01*
X9238628Y56243531D01*
X9238634Y56243535D01*
X9421777Y56386081D01*
X9421780Y56386084D01*
X9421784Y56386087D01*
X9578979Y56556847D01*
X9578980Y56556849D01*
X9578983Y56556852D01*
X9705924Y56751151D01*
X9799157Y56963699D01*
X9856133Y57188691D01*
X9856135Y57188702D01*
X9875300Y57419993D01*
X9875300Y57420006D01*
X9856135Y57651297D01*
X9856133Y57651308D01*
X9799157Y57876300D01*
X9705924Y58088848D01*
X9705924Y58088849D01*
X9578979Y58283153D01*
X9421784Y58453913D01*
X9238626Y58596470D01*
X9034503Y58706936D01*
X8814981Y58782298D01*
X8586049Y58820500D01*
X8353951Y58820500D01*
X8125019Y58782298D01*
X8125017Y58782297D01*
X8125015Y58782297D01*
X8019487Y58746068D01*
X7905497Y58706936D01*
X7701374Y58596470D01*
X7701372Y58596468D01*
X7701371Y58596468D01*
X7701365Y58596464D01*
X7518222Y58453918D01*
X7518216Y58453913D01*
X7361021Y58283153D01*
X7361019Y58283151D01*
X7361016Y58283147D01*
X7234075Y58088848D01*
X7193556Y57996473D01*
X7148600Y57942987D01*
X7081864Y57922297D01*
X7014536Y57940972D01*
X6967993Y57993082D01*
X6966444Y57996473D01*
X6925924Y58088848D01*
X6925924Y58088849D01*
X6798979Y58283153D01*
X6641784Y58453913D01*
X6458626Y58596470D01*
X6254503Y58706936D01*
X6034981Y58782298D01*
X5806049Y58820500D01*
X5573951Y58820500D01*
X5345019Y58782298D01*
X5345017Y58782297D01*
X5345015Y58782297D01*
X5239487Y58746068D01*
X5125497Y58706936D01*
X4921374Y58596470D01*
X4921372Y58596468D01*
X4921371Y58596468D01*
X4921365Y58596464D01*
X4738222Y58453918D01*
X4738216Y58453913D01*
X4581021Y58283153D01*
X4581019Y58283151D01*
X4581016Y58283147D01*
X4454075Y58088848D01*
X4413556Y57996473D01*
X4368600Y57942987D01*
X4301864Y57922297D01*
X4234536Y57940972D01*
X4187993Y57993082D01*
X4186444Y57996473D01*
X4145924Y58088848D01*
X4145924Y58088849D01*
X4018979Y58283153D01*
X3861784Y58453913D01*
X3678626Y58596470D01*
X3474503Y58706936D01*
X3254981Y58782298D01*
X3026049Y58820500D01*
X2793951Y58820500D01*
X2565019Y58782298D01*
X2565017Y58782297D01*
X2565015Y58782297D01*
X2459487Y58746068D01*
X2345497Y58706936D01*
X2141374Y58596470D01*
X2141372Y58596468D01*
X2141371Y58596468D01*
X2141365Y58596464D01*
X1958222Y58453918D01*
X1958216Y58453913D01*
X1801021Y58283153D01*
X1801019Y58283151D01*
X1801016Y58283147D01*
X1674075Y58088848D01*
X1633556Y57996473D01*
X1588600Y57942987D01*
X1521864Y57922297D01*
X1454536Y57940972D01*
X1407993Y57993082D01*
X1406444Y57996473D01*
X1365924Y58088848D01*
X1365924Y58088849D01*
X1238979Y58283153D01*
X1081784Y58453913D01*
X898626Y58596470D01*
X694503Y58706936D01*
X474981Y58782298D01*
X246049Y58820500D01*
X13951Y58820500D01*
X-214981Y58782298D01*
X-434503Y58706936D01*
X-638626Y58596470D01*
X-821784Y58453913D01*
X-978979Y58283153D01*
X-1105924Y58088849D01*
X-1105924Y58088848D01*
X-1146444Y57996473D01*
X-1191400Y57942987D01*
X-1258136Y57922297D01*
X-1325464Y57940972D01*
X-1372007Y57993082D01*
X-1373556Y57996473D01*
X-1414075Y58088848D01*
X-1541016Y58283147D01*
X-1541019Y58283151D01*
X-1541021Y58283153D01*
X-1698216Y58453913D01*
X-1698222Y58453918D01*
X-1881365Y58596464D01*
X-1881371Y58596468D01*
X-1881372Y58596468D01*
X-1881374Y58596470D01*
X-2085497Y58706936D01*
X-2199487Y58746068D01*
X-2305015Y58782297D01*
X-2305017Y58782297D01*
X-2305019Y58782298D01*
X-2533951Y58820500D01*
X-2766049Y58820500D01*
X-2994981Y58782298D01*
X-3214503Y58706936D01*
X-3418626Y58596470D01*
X-3601784Y58453913D01*
X-3758979Y58283153D01*
X-3885924Y58088849D01*
X-3885924Y58088848D01*
X-3926444Y57996473D01*
X-3971400Y57942987D01*
X-4038136Y57922297D01*
X-4105464Y57940972D01*
X-4152007Y57993082D01*
X-4153556Y57996473D01*
X-4194075Y58088848D01*
X-4321016Y58283147D01*
X-4321019Y58283151D01*
X-4321021Y58283153D01*
X-4478216Y58453913D01*
X-4478222Y58453918D01*
X-4661365Y58596464D01*
X-4661371Y58596468D01*
X-4661372Y58596468D01*
X-4661374Y58596470D01*
X-4865497Y58706936D01*
X-4979487Y58746068D01*
X-5085015Y58782297D01*
X-5085017Y58782297D01*
X-5085019Y58782298D01*
X-5313951Y58820500D01*
X-5546049Y58820500D01*
X-5774981Y58782298D01*
X-5994503Y58706936D01*
X-6198626Y58596470D01*
X-6381784Y58453913D01*
X-6538979Y58283153D01*
X-6665924Y58088849D01*
X-6665924Y58088848D01*
X-6706444Y57996473D01*
X-6751400Y57942987D01*
X-6818136Y57922297D01*
X-6885464Y57940972D01*
X-6932007Y57993082D01*
X-6933556Y57996473D01*
X-6974075Y58088848D01*
X-7101016Y58283147D01*
X-7101019Y58283151D01*
X-7101021Y58283153D01*
X-7258216Y58453913D01*
X-7258222Y58453918D01*
X-7441365Y58596464D01*
X-7441371Y58596468D01*
X-7441372Y58596468D01*
X-7441374Y58596470D01*
X-7645497Y58706936D01*
X-7759487Y58746068D01*
X-7865015Y58782297D01*
X-7865017Y58782297D01*
X-7865019Y58782298D01*
X-8093951Y58820500D01*
X-8326049Y58820500D01*
X-8554981Y58782298D01*
X-8774503Y58706936D01*
X-8978626Y58596470D01*
X-9161784Y58453913D01*
X-9318979Y58283153D01*
X-9445924Y58088849D01*
X-9445924Y58088848D01*
X-9539157Y57876300D01*
X-9596133Y57651308D01*
X-9596135Y57651297D01*
X-9615300Y57420006D01*
X-9615300Y57419993D01*
X-27569500Y57419993D01*
X-27569500Y73515333D01*
X-27549815Y73582372D01*
X-27497011Y73628127D01*
X-27445500Y73639333D01*
X27305500Y73639333D01*
X27372539Y73619648D01*
G37*
%TD.AperFunction*%
%TD*%
M02*
