M48
; DRILL file {KiCad 7.0.9} date Thu May 16 17:58:55 2024
; FORMAT={-:-/ absolute / inch / decimal}
; #@! TF.CreationDate,2024-05-16T17:58:55-06:00
; #@! TF.GenerationSoftware,Kicad,Pcbnew,7.0.9
; #@! TF.FileFunction,Plated,1,4,PTH
FMAT,2
INCH
; #@! TA.AperFunction,Plated,PTH,ComponentDrill
T1C0.0433
; #@! TA.AperFunction,Plated,PTH,ComponentDrill
T2C0.0472
; #@! TA.AperFunction,Plated,PTH,ComponentDrill
T3C0.1181
; #@! TA.AperFunction,Plated,PTH,ComponentDrill
T4C0.1299
; #@! TA.AperFunction,Plated,PTH,ComponentDrill
T5C0.1969
%
G90
G05
T1
X-0.3819Y0.0559
X-0.3272Y-0.0559
X-0.2724Y0.0559
X-0.2181Y-0.0559
X-0.1638Y0.0559
X-0.1091Y-0.0559
X-0.0543Y0.0559
X0.0Y-0.0559
X0.0543Y0.0559
X0.1091Y-0.0559
X0.1638Y0.0559
X0.2181Y-0.0559
X0.2724Y0.0559
X0.3272Y-0.0559
X0.3819Y0.0559
T2
X-0.378Y2.1488
X-0.3232Y2.2606
X-0.2685Y2.1488
X-0.2138Y2.2606
X-0.1591Y2.1488
X-0.1043Y2.2606
X-0.0496Y2.1488
X0.0051Y2.2606
X0.0598Y2.1488
X0.1146Y2.2606
X0.1693Y2.1488
X0.224Y2.2606
X0.2787Y2.1488
X0.3335Y2.2606
X0.3882Y2.1488
T3
X-0.6559Y2.2047
X0.6559Y2.2047
T4
X-0.6559Y0.0
X0.6559Y0.0
T5
X-1.5122Y0.6229
X-1.5122Y-0.6276
X-0.628Y1.5071
X-0.628Y-1.5119
X0.6225Y1.5071
X0.6225Y-1.5119
X1.5067Y0.6229
X1.5067Y-0.6276
T0
M30
