M48
; DRILL file {KiCad 7.0.9} date Tue Aug 20 18:05:02 2024
; FORMAT={-:-/ absolute / inch / decimal}
; #@! TF.CreationDate,2024-08-20T18:05:02-06:00
; #@! TF.GenerationSoftware,Kicad,Pcbnew,7.0.9
; #@! TF.FileFunction,Plated,1,2,PTH
FMAT,2
INCH
; #@! TA.AperFunction,Plated,PTH,ViaDrill
T1C0.0197
; #@! TA.AperFunction,Plated,PTH,ComponentDrill
T2C0.0197
%
G90
G05
T1
X0.0669Y-2.4528
X0.0669Y-2.5315
X0.0669Y-2.6102
X0.0669Y-2.689
X0.0669Y-3.0827
X0.0669Y-3.1614
X0.0669Y-3.2402
X0.0669Y-3.3189
X0.0669Y-3.3976
X0.0669Y-3.4764
X0.0669Y-3.5551
X0.0669Y-3.6339
X0.0669Y-3.7126
X0.0669Y-4.0276
X0.0669Y-4.1063
X0.0669Y-4.185
X0.0669Y-4.2638
X0.0669Y-4.3425
X0.0669Y-4.4213
X0.0669Y-4.5
X0.0669Y-4.5787
X0.0669Y-4.6575
X0.0669Y-4.7362
X0.0669Y-5.0512
X0.0669Y-5.1299
X0.0669Y-5.2087
X0.0669Y-5.2874
X0.0669Y-5.3661
X0.0669Y-5.4449
X0.0709Y-0.2165
X0.0709Y-0.2953
X0.0709Y-0.374
X0.0709Y-0.4528
X0.0709Y-0.5315
X0.0709Y-0.6102
X0.0709Y-0.689
X0.0709Y-1.0827
X0.0709Y-1.1614
X0.0709Y-1.2402
X0.0709Y-1.3189
X0.0709Y-1.3976
X0.0709Y-1.4764
X0.0709Y-1.5551
X0.0709Y-1.6339
X0.0709Y-2.1063
X0.0709Y-2.185
X0.0709Y-2.2638
X0.0709Y-2.3425
X0.1181Y-0.1181
X0.1969Y-0.1181
X0.2756Y-0.1181
X0.3543Y-0.1181
X0.4764Y-5.6142
X0.5551Y-5.6142
X0.6339Y-5.6142
X0.7126Y-5.6142
X0.7913Y-5.6142
X0.8268Y-0.1181
X0.8701Y-5.6142
X0.9055Y-0.1181
X0.9488Y-5.6142
X0.9843Y-0.1181
X1.063Y-0.1181
X1.1417Y-0.1181
X1.2205Y-0.1181
X1.2992Y-0.1181
X1.5Y-5.6142
X1.5787Y-5.6142
X1.6575Y-5.6142
X1.7362Y-5.6142
X1.7717Y-0.1181
X1.815Y-5.6142
X1.8504Y-0.1181
X1.8937Y-5.6142
X1.9291Y-0.1181
X2.0079Y-0.1181
X2.0866Y-0.1181
X2.1654Y-0.1181
X2.2441Y-0.1181
X2.3228Y-0.1181
X2.4488Y-5.6142
X2.5236Y-5.6142
X2.6024Y-5.6142
X2.7953Y-0.1181
X2.874Y-0.1181
X2.9528Y-0.1181
X3.0315Y-0.1181
X3.1102Y-0.1181
X3.1575Y-5.6142
X3.189Y-0.1181
X3.2323Y-5.6142
X3.2677Y-0.1181
X3.311Y-5.6142
X3.3898Y-5.6142
X3.4685Y-5.6142
X3.5472Y-5.6142
X3.626Y-5.6142
X3.8189Y-0.1181
X3.8976Y-0.1181
X3.9764Y-0.1181
X4.0551Y-0.1181
X4.1339Y-0.1181
X4.1772Y-5.6142
X4.2126Y-0.1181
X4.2559Y-5.6142
X4.2913Y-0.1181
X4.3346Y-5.6142
X4.4134Y-5.6142
X4.4921Y-5.6142
X4.5709Y-5.6142
X4.6496Y-5.6142
X4.8425Y-0.1181
X4.9213Y-0.1181
X5.0Y-0.1181
X5.0787Y-0.1181
X5.122Y-5.6142
X5.1772Y-2.4843
X5.1772Y-2.563
X5.1772Y-2.6417
X5.1772Y-2.7205
X5.1772Y-3.1142
X5.1772Y-3.1929
X5.1772Y-3.2717
X5.1772Y-3.3504
X5.1772Y-3.4291
X5.1772Y-3.5079
X5.1772Y-3.5866
X5.1772Y-3.6654
X5.1772Y-3.7441
X5.1772Y-4.0591
X5.1772Y-4.1378
X5.1772Y-4.2165
X5.1772Y-4.2953
X5.1772Y-4.374
X5.1772Y-4.4528
X5.1772Y-4.5315
X5.1772Y-4.6102
X5.1772Y-4.689
X5.1772Y-4.7677
X5.1772Y-5.0827
X5.1772Y-5.1614
X5.1772Y-5.2402
X5.1772Y-5.3189
X5.1772Y-5.3976
X5.1772Y-5.4764
X5.1811Y-0.1693
X5.1811Y-0.248
X5.1811Y-0.3268
X5.1811Y-0.4055
X5.1811Y-0.4843
X5.1811Y-0.563
X5.1811Y-0.6417
X5.1811Y-0.7205
X5.1811Y-1.1142
X5.1811Y-1.1929
X5.1811Y-1.2717
X5.1811Y-1.3504
X5.1811Y-1.4291
X5.1811Y-1.5079
X5.1811Y-1.5866
X5.1811Y-1.6654
X5.1811Y-2.0591
X5.1811Y-2.1378
X5.1811Y-2.2165
X5.1811Y-2.2953
X5.1811Y-2.374
T2
X7.6919Y-0.0207
T0
M30
