%TF.GenerationSoftware,KiCad,Pcbnew,7.0.9*%
%TF.CreationDate,2024-08-21T19:07:34-06:00*%
%TF.ProjectId,top 40K wall,746f7020-3430-44b2-9077-616c6c2e6b69,rev?*%
%TF.SameCoordinates,Original*%
%TF.FileFunction,Copper,L1,Top*%
%TF.FilePolarity,Positive*%
%FSLAX46Y46*%
G04 Gerber Fmt 4.6, Leading zero omitted, Abs format (unit mm)*
G04 Created by KiCad (PCBNEW 7.0.9) date 2024-08-21 19:07:34*
%MOMM*%
%LPD*%
G01*
G04 APERTURE LIST*
%TA.AperFunction,ComponentPad*%
%ADD10C,1.000000*%
%TD*%
%TA.AperFunction,ViaPad*%
%ADD11C,0.800000*%
%TD*%
G04 APERTURE END LIST*
D10*
%TO.P,TP1,1,1*%
%TO.N,GND*%
X266325000Y36875000D03*
%TD*%
D11*
%TO.N,GND*%
X1200000Y-6300000D03*
X1200000Y-48300000D03*
X161200000Y-300000D03*
X123200000Y-169800000D03*
X161200000Y-152300000D03*
X161200000Y-60300000D03*
X21200000Y-300000D03*
X1200000Y-38300000D03*
X43200000Y-169800000D03*
X23200000Y-300000D03*
X1200000Y-144300000D03*
X81200000Y-300000D03*
X91200000Y-169800000D03*
X1200000Y-26300000D03*
X1200000Y-122300000D03*
X47200000Y-169800000D03*
X161200000Y-20300000D03*
X75200000Y-300000D03*
X161200000Y-118300000D03*
X161200000Y-128300000D03*
X1200000Y-142300000D03*
X1200000Y-82300000D03*
X135200000Y-300000D03*
X161200000Y-94300000D03*
X1200000Y-169800000D03*
X1200000Y-18300000D03*
X33200000Y-169800000D03*
X161200000Y-50300000D03*
X161200000Y-24300000D03*
X161200000Y-124300000D03*
X39200000Y-300000D03*
X161200000Y-18300000D03*
X161200000Y-32300000D03*
X1200000Y-14300000D03*
X37200000Y-300000D03*
X1200000Y-90300000D03*
X161200000Y-12300000D03*
X161200000Y-86300000D03*
X99200000Y-300000D03*
X47200000Y-300000D03*
X1200000Y-104300000D03*
X1200000Y-158300000D03*
X161200000Y-120300000D03*
X67200000Y-300000D03*
X161200000Y-80300000D03*
X149200000Y-300000D03*
X73200000Y-169800000D03*
X53200000Y-300000D03*
X1200000Y-128300000D03*
X1200000Y-10300000D03*
X1200000Y-44300000D03*
X161200000Y-92300000D03*
X25200000Y-300000D03*
X7200000Y-169800000D03*
X1200000Y-130300000D03*
X125200000Y-300000D03*
X115200000Y-169800000D03*
X1200000Y-64300000D03*
X103200000Y-300000D03*
X161200000Y-64300000D03*
X1200000Y-120300000D03*
X139200000Y-300000D03*
X161200000Y-52300000D03*
X1200000Y-300000D03*
X27200000Y-300000D03*
X107200000Y-300000D03*
X15200000Y-300000D03*
X61200000Y-169800000D03*
X161200000Y-164300000D03*
X161200000Y-140300000D03*
X1200000Y-2300000D03*
X161200000Y-36300000D03*
X1200000Y-94300000D03*
X161200000Y-148300000D03*
X1200000Y-148300000D03*
X1200000Y-40300000D03*
X161200000Y-54300000D03*
X147200000Y-300000D03*
X37200000Y-169800000D03*
X1200000Y-56300000D03*
X3200000Y-300000D03*
X87200000Y-169800000D03*
X161200000Y-42300000D03*
X1200000Y-92300000D03*
X1200000Y-16300000D03*
X161200000Y-156300000D03*
X155200000Y-300000D03*
X161200000Y-6300000D03*
X161200000Y-106300000D03*
X1200000Y-68300000D03*
X1200000Y-118300000D03*
X161200000Y-66300000D03*
X1200000Y-20300000D03*
X161200000Y-146300000D03*
X45200000Y-300000D03*
X1200000Y-34300000D03*
X7200000Y-300000D03*
X161200000Y-58300000D03*
X59200000Y-300000D03*
X147200000Y-169800000D03*
X11200000Y-300000D03*
X145200000Y-169800000D03*
X1200000Y-124300000D03*
X1200000Y-54300000D03*
X161200000Y-96300000D03*
X161200000Y-22300000D03*
X129200000Y-169800000D03*
X159200000Y-300000D03*
X25200000Y-169800000D03*
X161200000Y-2300000D03*
X53200000Y-169800000D03*
X1200000Y-154300000D03*
X161200000Y-98300000D03*
X15200000Y-169800000D03*
X51200000Y-300000D03*
X77200000Y-169800000D03*
X161200000Y-46300000D03*
X1200000Y-114300000D03*
X77200000Y-300000D03*
X41200000Y-169800000D03*
X1200000Y-146300000D03*
X55200000Y-300000D03*
X161200000Y-154300000D03*
X153200000Y-300000D03*
X161200000Y-70300000D03*
X65200000Y-169800000D03*
X1200000Y-70300000D03*
X101200000Y-169800000D03*
X1200000Y-156300000D03*
X125200000Y-169800000D03*
X1200000Y-42300000D03*
X1200000Y-108300000D03*
X1200000Y-136300000D03*
X161200000Y-30300000D03*
X45200000Y-169800000D03*
X161200000Y-74300000D03*
X1200000Y-84300000D03*
X161200000Y-112300000D03*
X161200000Y-38300000D03*
X1200000Y-168300000D03*
X1200000Y-76300000D03*
X149200000Y-169800000D03*
X93200000Y-169800000D03*
X1200000Y-66300000D03*
X33200000Y-300000D03*
X151200000Y-169800000D03*
X1200000Y-32300000D03*
X161200000Y-84300000D03*
X1200000Y-58300000D03*
X1200000Y-4300000D03*
X111200000Y-169800000D03*
X137200000Y-300000D03*
X59200000Y-169800000D03*
X1200000Y-112300000D03*
X97200000Y-169800000D03*
X123200000Y-300000D03*
X97200000Y-300000D03*
X161200000Y-44300000D03*
X99200000Y-169800000D03*
X13200000Y-300000D03*
X79200000Y-300000D03*
X111200000Y-300000D03*
X1200000Y-28300000D03*
X1200000Y-36300000D03*
X161200000Y-100300000D03*
X161200000Y-8300000D03*
X129200000Y-300000D03*
X161200000Y-136300000D03*
X1200000Y-96300000D03*
X161200000Y-78300000D03*
X1200000Y-62300000D03*
X73200000Y-300000D03*
X63200000Y-169800000D03*
X161200000Y-102300000D03*
X161200000Y-132300000D03*
X9200000Y-300000D03*
X1200000Y-52300000D03*
X161200000Y-126300000D03*
X1200000Y-46300000D03*
X29200000Y-300000D03*
X1200000Y-166300000D03*
X1200000Y-98300000D03*
X23200000Y-169800000D03*
X161200000Y-160300000D03*
X1200000Y-50300000D03*
X161200000Y-4300000D03*
X127200000Y-300000D03*
X113200000Y-169800000D03*
X161200000Y-10300000D03*
X75200000Y-169800000D03*
X161200000Y-144300000D03*
X161200000Y-48300000D03*
X19200000Y-169800000D03*
X1200000Y-116300000D03*
X141200000Y-300000D03*
X161200000Y-72300000D03*
X41200000Y-300000D03*
X143200000Y-169800000D03*
X137200000Y-169800000D03*
X1200000Y-164300000D03*
X1200000Y-60300000D03*
X135200000Y-169800000D03*
X161200000Y-90300000D03*
X161200000Y-110300000D03*
X117200000Y-300000D03*
X1200000Y-30300000D03*
X1200000Y-102300000D03*
X1200000Y-22300000D03*
X151200000Y-300000D03*
X139200000Y-169800000D03*
X95200000Y-169800000D03*
X1200000Y-88300000D03*
X89200000Y-300000D03*
X85200000Y-300000D03*
X35200000Y-300000D03*
X31200000Y-300000D03*
X141200000Y-169800000D03*
X1200000Y-8300000D03*
X121200000Y-169800000D03*
X1200000Y-86300000D03*
X49200000Y-300000D03*
X161200000Y-150300000D03*
X1200000Y-162300000D03*
X21200000Y-169800000D03*
X49200000Y-169800000D03*
X161200000Y-68300000D03*
X161200000Y-138300000D03*
X117200000Y-169800000D03*
X91200000Y-300000D03*
X143200000Y-300000D03*
X27200000Y-169800000D03*
X1200000Y-152300000D03*
X155200000Y-169800000D03*
X13200000Y-169800000D03*
X1200000Y-24300000D03*
X113200000Y-300000D03*
X1200000Y-78300000D03*
X161200000Y-158300000D03*
X61200000Y-300000D03*
X161200000Y-34300000D03*
X161200000Y-40300000D03*
X161200000Y-88300000D03*
X11200000Y-169800000D03*
X161200000Y-62300000D03*
X161200000Y-122300000D03*
X133200000Y-300000D03*
X119200000Y-169800000D03*
X105200000Y-300000D03*
X35200000Y-169800000D03*
X153200000Y-169800000D03*
X1200000Y-74300000D03*
X161200000Y-108300000D03*
X1200000Y-106300000D03*
X39200000Y-169800000D03*
X161200000Y-130300000D03*
X103200000Y-169800000D03*
X161200000Y-14300000D03*
X17200000Y-169800000D03*
X79200000Y-169800000D03*
X161200000Y-16300000D03*
X1200000Y-160300000D03*
X89200000Y-169800000D03*
X1200000Y-12300000D03*
X161200000Y-28300000D03*
X161200000Y-82300000D03*
X161200000Y-134300000D03*
X1200000Y-126300000D03*
X1200000Y-132300000D03*
X161200000Y-104300000D03*
X1200000Y-80300000D03*
X161200000Y-116300000D03*
X127200000Y-169800000D03*
X101200000Y-300000D03*
X157200000Y-169800000D03*
X161200000Y-142300000D03*
X161200000Y-114300000D03*
X71200000Y-169800000D03*
X109200000Y-300000D03*
X1200000Y-140300000D03*
X131200000Y-300000D03*
X63200000Y-300000D03*
X161200000Y-162300000D03*
X1200000Y-150300000D03*
X161200000Y-26300000D03*
X9200000Y-169800000D03*
X1200000Y-134300000D03*
X161200000Y-56300000D03*
X85200000Y-169800000D03*
X1200000Y-72300000D03*
X71200000Y-300000D03*
X65200000Y-300000D03*
X69200000Y-169800000D03*
X67200000Y-169800000D03*
X1200000Y-138300000D03*
X5200000Y-300000D03*
X51200000Y-169800000D03*
X161200000Y-76300000D03*
X157200000Y-300000D03*
X57200000Y-300000D03*
X1200000Y-110300000D03*
X161200000Y-166300000D03*
X1200000Y-100300000D03*
X115200000Y-300000D03*
X83200000Y-300000D03*
X87200000Y-300000D03*
%TD*%
%TA.AperFunction,Conductor*%
%TO.N,GND*%
G36*
X162102696Y999264D02*
G01*
X162104789Y999080D01*
X162145445Y995523D01*
X162271760Y983082D01*
X162291699Y979454D01*
X162358330Y961601D01*
X162451563Y933318D01*
X162467971Y927040D01*
X162535367Y895614D01*
X162538393Y894101D01*
X162622327Y849236D01*
X162628667Y845341D01*
X162694828Y799015D01*
X162698600Y796154D01*
X162770808Y736895D01*
X162775320Y732806D01*
X162832806Y675320D01*
X162836895Y670808D01*
X162896154Y598600D01*
X162899015Y594828D01*
X162945341Y528667D01*
X162949236Y522327D01*
X162994101Y438393D01*
X162995614Y435367D01*
X163027040Y367971D01*
X163033318Y351563D01*
X163061601Y258330D01*
X163079454Y191699D01*
X163083082Y171760D01*
X163095523Y45445D01*
X163099264Y2698D01*
X163099500Y-2710D01*
X163099500Y-169977289D01*
X163099264Y-169982697D01*
X163095523Y-170025445D01*
X163083082Y-170151760D01*
X163079454Y-170171699D01*
X163061601Y-170238330D01*
X163033318Y-170331563D01*
X163027040Y-170347971D01*
X162995614Y-170415367D01*
X162994101Y-170418393D01*
X162949236Y-170502327D01*
X162945341Y-170508667D01*
X162899015Y-170574828D01*
X162896154Y-170578600D01*
X162836895Y-170650808D01*
X162832806Y-170655320D01*
X162775320Y-170712806D01*
X162770808Y-170716895D01*
X162698600Y-170776154D01*
X162694828Y-170779015D01*
X162628667Y-170825341D01*
X162622327Y-170829236D01*
X162538393Y-170874101D01*
X162535367Y-170875614D01*
X162467971Y-170907040D01*
X162451563Y-170913318D01*
X162358330Y-170941601D01*
X162291699Y-170959454D01*
X162271760Y-170963082D01*
X162145445Y-170975523D01*
X162104789Y-170979080D01*
X162102696Y-170979264D01*
X162097290Y-170979500D01*
X1002710Y-170979500D01*
X997303Y-170979264D01*
X995015Y-170979063D01*
X954554Y-170975523D01*
X828238Y-170963082D01*
X808299Y-170959454D01*
X741669Y-170941601D01*
X648435Y-170913319D01*
X632027Y-170907040D01*
X583433Y-170884381D01*
X564618Y-170875607D01*
X561605Y-170874101D01*
X477671Y-170829236D01*
X471331Y-170825341D01*
X405170Y-170779015D01*
X401398Y-170776154D01*
X329190Y-170716895D01*
X324688Y-170712815D01*
X267182Y-170655309D01*
X263103Y-170650808D01*
X203844Y-170578600D01*
X200983Y-170574828D01*
X154657Y-170508667D01*
X150762Y-170502327D01*
X125982Y-170455969D01*
X105888Y-170418375D01*
X104406Y-170415411D01*
X72958Y-170347971D01*
X66682Y-170331570D01*
X38398Y-170238330D01*
X20541Y-170171685D01*
X16918Y-170151771D01*
X4482Y-170025519D01*
X735Y-169982695D01*
X500Y-169977293D01*
X500Y-168479999D01*
X2169590Y-168479999D01*
X2177256Y-168577408D01*
X2177447Y-168582274D01*
X2177447Y-168604746D01*
X2180961Y-168626943D01*
X2181533Y-168631774D01*
X2187142Y-168703024D01*
X2189201Y-168729186D01*
X2189201Y-168729189D01*
X2189202Y-168729191D01*
X2212010Y-168824195D01*
X2212960Y-168828971D01*
X2216476Y-168851170D01*
X2223421Y-168872542D01*
X2224742Y-168877228D01*
X2247552Y-168972235D01*
X2247554Y-168972241D01*
X2272118Y-169031543D01*
X2284946Y-169062512D01*
X2286627Y-169067070D01*
X2293572Y-169088445D01*
X2303780Y-169108480D01*
X2305818Y-169112901D01*
X2343206Y-169203166D01*
X2394251Y-169286462D01*
X2396630Y-169290710D01*
X2396636Y-169290721D01*
X2406841Y-169310749D01*
X2413188Y-169319485D01*
X2420056Y-169328939D01*
X2422760Y-169332987D01*
X2473805Y-169416283D01*
X2473809Y-169416289D01*
X2537259Y-169490579D01*
X2540263Y-169494390D01*
X2553489Y-169512593D01*
X2569398Y-169528502D01*
X2572691Y-169532065D01*
X2636143Y-169606357D01*
X2710426Y-169669801D01*
X2710432Y-169669806D01*
X2713995Y-169673099D01*
X2729907Y-169689011D01*
X2748113Y-169702238D01*
X2751907Y-169705229D01*
X2826211Y-169768691D01*
X2826213Y-169768692D01*
X2909514Y-169819739D01*
X2913551Y-169822436D01*
X2931751Y-169835659D01*
X2951809Y-169845879D01*
X2956000Y-169848225D01*
X3039334Y-169899293D01*
X3129633Y-169936696D01*
X3134001Y-169938710D01*
X3154051Y-169948926D01*
X3175451Y-169955879D01*
X3179992Y-169957555D01*
X3270264Y-169994947D01*
X3270266Y-169994947D01*
X3270270Y-169994949D01*
X3332290Y-170009838D01*
X3365273Y-170017757D01*
X3369938Y-170019072D01*
X3385372Y-170024087D01*
X3391328Y-170026023D01*
X3391329Y-170026023D01*
X3391332Y-170026024D01*
X3413549Y-170029542D01*
X3418275Y-170030481D01*
X3513314Y-170053299D01*
X3610734Y-170060966D01*
X3615551Y-170061536D01*
X3632301Y-170064189D01*
X3637753Y-170065053D01*
X3660225Y-170065053D01*
X3665091Y-170065244D01*
X3674938Y-170066018D01*
X3762500Y-170072910D01*
X3850061Y-170066018D01*
X3859909Y-170065244D01*
X3864775Y-170065053D01*
X3887243Y-170065053D01*
X3887246Y-170065053D01*
X3909454Y-170061535D01*
X3914256Y-170060966D01*
X4011686Y-170053299D01*
X4106734Y-170030479D01*
X4111406Y-170029549D01*
X4133668Y-170026024D01*
X4155090Y-170019063D01*
X4159709Y-170017761D01*
X4254736Y-169994947D01*
X4345034Y-169957544D01*
X4349523Y-169955887D01*
X4370949Y-169948926D01*
X4391020Y-169938699D01*
X4395361Y-169936698D01*
X4485666Y-169899293D01*
X4569014Y-169848217D01*
X4573186Y-169845881D01*
X4593249Y-169835659D01*
X4611448Y-169822436D01*
X4615464Y-169819752D01*
X4698789Y-169768691D01*
X4773096Y-169705226D01*
X4776876Y-169702245D01*
X4795093Y-169689011D01*
X4811007Y-169673096D01*
X4814548Y-169669822D01*
X4888857Y-169606357D01*
X4952322Y-169532048D01*
X4955596Y-169528507D01*
X4971511Y-169512593D01*
X4984745Y-169494376D01*
X4987726Y-169490596D01*
X5051191Y-169416289D01*
X5102252Y-169332965D01*
X5104943Y-169328939D01*
X5118159Y-169310749D01*
X5128381Y-169290686D01*
X5130717Y-169286514D01*
X5181793Y-169203166D01*
X5219198Y-169112861D01*
X5221199Y-169108520D01*
X5231426Y-169088449D01*
X5238387Y-169067023D01*
X5240044Y-169062534D01*
X5277447Y-168972236D01*
X5300261Y-168877209D01*
X5301563Y-168872590D01*
X5308524Y-168851168D01*
X5312049Y-168828906D01*
X5312979Y-168824234D01*
X5335799Y-168729186D01*
X5343466Y-168631759D01*
X5344037Y-168626943D01*
X5347553Y-168604746D01*
X5348168Y-168573371D01*
X5348344Y-168569775D01*
X5355410Y-168480000D01*
X5355410Y-168479999D01*
X29157090Y-168479999D01*
X29164756Y-168577408D01*
X29164947Y-168582274D01*
X29164947Y-168604746D01*
X29168461Y-168626943D01*
X29169033Y-168631774D01*
X29174642Y-168703024D01*
X29176701Y-168729186D01*
X29176701Y-168729189D01*
X29176702Y-168729191D01*
X29199510Y-168824195D01*
X29200460Y-168828971D01*
X29203976Y-168851170D01*
X29210921Y-168872542D01*
X29212242Y-168877228D01*
X29235052Y-168972235D01*
X29235054Y-168972241D01*
X29259618Y-169031543D01*
X29272446Y-169062512D01*
X29274127Y-169067070D01*
X29281072Y-169088445D01*
X29291280Y-169108480D01*
X29293318Y-169112901D01*
X29330706Y-169203166D01*
X29381751Y-169286462D01*
X29384130Y-169290710D01*
X29384136Y-169290721D01*
X29394341Y-169310749D01*
X29400688Y-169319485D01*
X29407556Y-169328939D01*
X29410260Y-169332987D01*
X29461305Y-169416283D01*
X29461309Y-169416289D01*
X29524759Y-169490579D01*
X29527763Y-169494390D01*
X29540989Y-169512593D01*
X29556898Y-169528502D01*
X29560191Y-169532065D01*
X29623643Y-169606357D01*
X29697926Y-169669801D01*
X29697932Y-169669806D01*
X29701495Y-169673099D01*
X29717407Y-169689011D01*
X29735613Y-169702238D01*
X29739407Y-169705229D01*
X29813711Y-169768691D01*
X29813713Y-169768692D01*
X29897014Y-169819739D01*
X29901051Y-169822436D01*
X29919251Y-169835659D01*
X29939309Y-169845879D01*
X29943500Y-169848225D01*
X30026834Y-169899293D01*
X30117133Y-169936696D01*
X30121501Y-169938710D01*
X30141551Y-169948926D01*
X30162951Y-169955879D01*
X30167492Y-169957555D01*
X30257764Y-169994947D01*
X30257766Y-169994947D01*
X30257770Y-169994949D01*
X30319790Y-170009838D01*
X30352773Y-170017757D01*
X30357438Y-170019072D01*
X30372872Y-170024087D01*
X30378828Y-170026023D01*
X30378829Y-170026023D01*
X30378832Y-170026024D01*
X30401049Y-170029542D01*
X30405775Y-170030481D01*
X30500814Y-170053299D01*
X30598234Y-170060966D01*
X30603051Y-170061536D01*
X30619801Y-170064189D01*
X30625253Y-170065053D01*
X30647725Y-170065053D01*
X30652591Y-170065244D01*
X30662438Y-170066018D01*
X30750000Y-170072910D01*
X30837561Y-170066018D01*
X30847409Y-170065244D01*
X30852275Y-170065053D01*
X30874743Y-170065053D01*
X30874746Y-170065053D01*
X30896954Y-170061535D01*
X30901756Y-170060966D01*
X30999186Y-170053299D01*
X31094234Y-170030479D01*
X31098906Y-170029549D01*
X31121168Y-170026024D01*
X31142590Y-170019063D01*
X31147209Y-170017761D01*
X31242236Y-169994947D01*
X31332534Y-169957544D01*
X31337023Y-169955887D01*
X31358449Y-169948926D01*
X31378520Y-169938699D01*
X31382861Y-169936698D01*
X31473166Y-169899293D01*
X31556514Y-169848217D01*
X31560686Y-169845881D01*
X31580749Y-169835659D01*
X31598948Y-169822436D01*
X31602964Y-169819752D01*
X31686289Y-169768691D01*
X31760596Y-169705226D01*
X31764376Y-169702245D01*
X31782593Y-169689011D01*
X31798507Y-169673096D01*
X31802048Y-169669822D01*
X31876357Y-169606357D01*
X31939822Y-169532048D01*
X31943096Y-169528507D01*
X31959011Y-169512593D01*
X31972245Y-169494376D01*
X31975226Y-169490596D01*
X32038691Y-169416289D01*
X32089752Y-169332965D01*
X32092443Y-169328939D01*
X32105659Y-169310749D01*
X32115881Y-169290686D01*
X32118217Y-169286514D01*
X32169293Y-169203166D01*
X32206698Y-169112861D01*
X32208699Y-169108520D01*
X32218926Y-169088449D01*
X32225887Y-169067023D01*
X32227544Y-169062534D01*
X32264947Y-168972236D01*
X32287761Y-168877209D01*
X32289063Y-168872590D01*
X32296024Y-168851168D01*
X32299549Y-168828906D01*
X32300479Y-168824234D01*
X32323299Y-168729186D01*
X32330966Y-168631759D01*
X32331537Y-168626943D01*
X32335053Y-168604746D01*
X32335668Y-168573371D01*
X32335844Y-168569775D01*
X32342910Y-168480000D01*
X32342910Y-168479999D01*
X54557090Y-168479999D01*
X54564756Y-168577408D01*
X54564947Y-168582274D01*
X54564947Y-168604746D01*
X54568461Y-168626943D01*
X54569033Y-168631774D01*
X54574642Y-168703024D01*
X54576701Y-168729186D01*
X54576701Y-168729189D01*
X54576702Y-168729191D01*
X54599510Y-168824195D01*
X54600460Y-168828971D01*
X54603976Y-168851170D01*
X54610921Y-168872542D01*
X54612242Y-168877228D01*
X54635052Y-168972235D01*
X54635054Y-168972241D01*
X54659618Y-169031543D01*
X54672446Y-169062512D01*
X54674127Y-169067070D01*
X54681072Y-169088445D01*
X54691280Y-169108480D01*
X54693318Y-169112901D01*
X54730706Y-169203166D01*
X54781751Y-169286462D01*
X54784130Y-169290710D01*
X54784136Y-169290721D01*
X54794341Y-169310749D01*
X54800688Y-169319485D01*
X54807556Y-169328939D01*
X54810260Y-169332987D01*
X54861305Y-169416283D01*
X54861309Y-169416289D01*
X54924759Y-169490579D01*
X54927763Y-169494390D01*
X54940989Y-169512593D01*
X54956898Y-169528502D01*
X54960191Y-169532065D01*
X55023643Y-169606357D01*
X55097926Y-169669801D01*
X55097932Y-169669806D01*
X55101495Y-169673099D01*
X55117407Y-169689011D01*
X55135613Y-169702238D01*
X55139407Y-169705229D01*
X55213711Y-169768691D01*
X55213713Y-169768692D01*
X55297014Y-169819739D01*
X55301051Y-169822436D01*
X55319251Y-169835659D01*
X55339309Y-169845879D01*
X55343500Y-169848225D01*
X55426834Y-169899293D01*
X55517133Y-169936696D01*
X55521501Y-169938710D01*
X55541551Y-169948926D01*
X55562951Y-169955879D01*
X55567492Y-169957555D01*
X55657764Y-169994947D01*
X55657766Y-169994947D01*
X55657770Y-169994949D01*
X55719790Y-170009838D01*
X55752773Y-170017757D01*
X55757438Y-170019072D01*
X55772872Y-170024087D01*
X55778828Y-170026023D01*
X55778829Y-170026023D01*
X55778832Y-170026024D01*
X55801049Y-170029542D01*
X55805775Y-170030481D01*
X55900814Y-170053299D01*
X55998234Y-170060966D01*
X56003051Y-170061536D01*
X56019801Y-170064189D01*
X56025253Y-170065053D01*
X56047725Y-170065053D01*
X56052591Y-170065244D01*
X56062438Y-170066018D01*
X56150000Y-170072910D01*
X56237561Y-170066018D01*
X56247409Y-170065244D01*
X56252275Y-170065053D01*
X56274743Y-170065053D01*
X56274746Y-170065053D01*
X56296954Y-170061535D01*
X56301756Y-170060966D01*
X56399186Y-170053299D01*
X56494234Y-170030479D01*
X56498906Y-170029549D01*
X56521168Y-170026024D01*
X56542590Y-170019063D01*
X56547209Y-170017761D01*
X56642236Y-169994947D01*
X56732534Y-169957544D01*
X56737023Y-169955887D01*
X56758449Y-169948926D01*
X56778520Y-169938699D01*
X56782861Y-169936698D01*
X56873166Y-169899293D01*
X56956514Y-169848217D01*
X56960686Y-169845881D01*
X56980749Y-169835659D01*
X56998948Y-169822436D01*
X57002964Y-169819752D01*
X57086289Y-169768691D01*
X57160596Y-169705226D01*
X57164376Y-169702245D01*
X57182593Y-169689011D01*
X57198507Y-169673096D01*
X57202048Y-169669822D01*
X57276357Y-169606357D01*
X57339822Y-169532048D01*
X57343096Y-169528507D01*
X57359011Y-169512593D01*
X57372245Y-169494376D01*
X57375226Y-169490596D01*
X57438691Y-169416289D01*
X57489752Y-169332965D01*
X57492443Y-169328939D01*
X57505659Y-169310749D01*
X57515881Y-169290686D01*
X57518217Y-169286514D01*
X57569293Y-169203166D01*
X57606698Y-169112861D01*
X57608699Y-169108520D01*
X57618926Y-169088449D01*
X57625887Y-169067023D01*
X57627544Y-169062534D01*
X57664947Y-168972236D01*
X57687761Y-168877209D01*
X57689063Y-168872590D01*
X57696024Y-168851168D01*
X57699549Y-168828906D01*
X57700479Y-168824234D01*
X57723299Y-168729186D01*
X57730966Y-168631759D01*
X57731537Y-168626943D01*
X57735053Y-168604746D01*
X57735668Y-168573371D01*
X57735844Y-168569775D01*
X57742910Y-168480000D01*
X57742910Y-168479999D01*
X79957090Y-168479999D01*
X79964756Y-168577408D01*
X79964947Y-168582274D01*
X79964947Y-168604746D01*
X79968461Y-168626943D01*
X79969033Y-168631774D01*
X79974642Y-168703024D01*
X79976701Y-168729186D01*
X79976701Y-168729189D01*
X79976702Y-168729191D01*
X79999510Y-168824195D01*
X80000460Y-168828971D01*
X80003976Y-168851170D01*
X80010921Y-168872542D01*
X80012242Y-168877228D01*
X80035052Y-168972235D01*
X80035054Y-168972241D01*
X80059618Y-169031543D01*
X80072446Y-169062512D01*
X80074127Y-169067070D01*
X80081072Y-169088445D01*
X80091280Y-169108480D01*
X80093318Y-169112901D01*
X80130706Y-169203166D01*
X80181751Y-169286462D01*
X80184130Y-169290710D01*
X80184136Y-169290721D01*
X80194341Y-169310749D01*
X80200688Y-169319485D01*
X80207556Y-169328939D01*
X80210260Y-169332987D01*
X80261305Y-169416283D01*
X80261309Y-169416289D01*
X80324759Y-169490579D01*
X80327763Y-169494390D01*
X80340989Y-169512593D01*
X80356898Y-169528502D01*
X80360191Y-169532065D01*
X80423643Y-169606357D01*
X80497926Y-169669801D01*
X80497932Y-169669806D01*
X80501495Y-169673099D01*
X80517407Y-169689011D01*
X80535613Y-169702238D01*
X80539407Y-169705229D01*
X80613711Y-169768691D01*
X80613713Y-169768692D01*
X80697014Y-169819739D01*
X80701051Y-169822436D01*
X80719251Y-169835659D01*
X80739309Y-169845879D01*
X80743500Y-169848225D01*
X80826834Y-169899293D01*
X80917133Y-169936696D01*
X80921501Y-169938710D01*
X80941551Y-169948926D01*
X80962951Y-169955879D01*
X80967492Y-169957555D01*
X81057764Y-169994947D01*
X81057766Y-169994947D01*
X81057770Y-169994949D01*
X81119790Y-170009838D01*
X81152773Y-170017757D01*
X81157438Y-170019072D01*
X81172872Y-170024087D01*
X81178828Y-170026023D01*
X81178829Y-170026023D01*
X81178832Y-170026024D01*
X81201049Y-170029542D01*
X81205775Y-170030481D01*
X81300814Y-170053299D01*
X81398234Y-170060966D01*
X81403051Y-170061536D01*
X81419801Y-170064189D01*
X81425253Y-170065053D01*
X81447725Y-170065053D01*
X81452591Y-170065244D01*
X81462438Y-170066018D01*
X81550000Y-170072910D01*
X81637561Y-170066018D01*
X81647409Y-170065244D01*
X81652275Y-170065053D01*
X81674743Y-170065053D01*
X81674746Y-170065053D01*
X81696954Y-170061535D01*
X81701756Y-170060966D01*
X81799186Y-170053299D01*
X81894234Y-170030479D01*
X81898906Y-170029549D01*
X81921168Y-170026024D01*
X81942590Y-170019063D01*
X81947209Y-170017761D01*
X82042236Y-169994947D01*
X82132534Y-169957544D01*
X82137023Y-169955887D01*
X82158449Y-169948926D01*
X82178520Y-169938699D01*
X82182861Y-169936698D01*
X82273166Y-169899293D01*
X82356514Y-169848217D01*
X82360686Y-169845881D01*
X82380749Y-169835659D01*
X82398948Y-169822436D01*
X82402964Y-169819752D01*
X82486289Y-169768691D01*
X82560596Y-169705226D01*
X82564376Y-169702245D01*
X82582593Y-169689011D01*
X82598507Y-169673096D01*
X82602048Y-169669822D01*
X82676357Y-169606357D01*
X82739822Y-169532048D01*
X82743096Y-169528507D01*
X82759011Y-169512593D01*
X82772245Y-169494376D01*
X82775226Y-169490596D01*
X82838691Y-169416289D01*
X82889752Y-169332965D01*
X82892443Y-169328939D01*
X82905659Y-169310749D01*
X82915881Y-169290686D01*
X82918217Y-169286514D01*
X82969293Y-169203166D01*
X83006698Y-169112861D01*
X83008699Y-169108520D01*
X83018926Y-169088449D01*
X83025887Y-169067023D01*
X83027544Y-169062534D01*
X83064947Y-168972236D01*
X83087761Y-168877209D01*
X83089063Y-168872590D01*
X83096024Y-168851168D01*
X83099549Y-168828906D01*
X83100479Y-168824234D01*
X83123299Y-168729186D01*
X83130966Y-168631759D01*
X83131537Y-168626943D01*
X83135053Y-168604746D01*
X83135668Y-168573371D01*
X83135844Y-168569775D01*
X83142910Y-168480000D01*
X83142910Y-168479999D01*
X105357090Y-168479999D01*
X105364756Y-168577408D01*
X105364947Y-168582274D01*
X105364947Y-168604746D01*
X105368461Y-168626943D01*
X105369033Y-168631774D01*
X105374642Y-168703024D01*
X105376701Y-168729186D01*
X105376701Y-168729189D01*
X105376702Y-168729191D01*
X105399510Y-168824195D01*
X105400460Y-168828971D01*
X105403976Y-168851170D01*
X105410921Y-168872542D01*
X105412242Y-168877228D01*
X105435052Y-168972235D01*
X105435054Y-168972241D01*
X105459618Y-169031543D01*
X105472446Y-169062512D01*
X105474127Y-169067070D01*
X105481072Y-169088445D01*
X105491280Y-169108480D01*
X105493318Y-169112901D01*
X105530706Y-169203166D01*
X105581751Y-169286462D01*
X105584130Y-169290710D01*
X105584136Y-169290721D01*
X105594341Y-169310749D01*
X105600688Y-169319485D01*
X105607556Y-169328939D01*
X105610260Y-169332987D01*
X105661305Y-169416283D01*
X105661309Y-169416289D01*
X105724759Y-169490579D01*
X105727763Y-169494390D01*
X105740989Y-169512593D01*
X105756898Y-169528502D01*
X105760191Y-169532065D01*
X105823643Y-169606357D01*
X105897926Y-169669801D01*
X105897932Y-169669806D01*
X105901495Y-169673099D01*
X105917407Y-169689011D01*
X105935613Y-169702238D01*
X105939407Y-169705229D01*
X106013711Y-169768691D01*
X106013713Y-169768692D01*
X106097014Y-169819739D01*
X106101051Y-169822436D01*
X106119251Y-169835659D01*
X106139309Y-169845879D01*
X106143500Y-169848225D01*
X106226834Y-169899293D01*
X106317133Y-169936696D01*
X106321501Y-169938710D01*
X106341551Y-169948926D01*
X106362951Y-169955879D01*
X106367492Y-169957555D01*
X106457764Y-169994947D01*
X106457766Y-169994947D01*
X106457770Y-169994949D01*
X106519790Y-170009838D01*
X106552773Y-170017757D01*
X106557438Y-170019072D01*
X106572872Y-170024087D01*
X106578828Y-170026023D01*
X106578829Y-170026023D01*
X106578832Y-170026024D01*
X106601049Y-170029542D01*
X106605775Y-170030481D01*
X106700814Y-170053299D01*
X106798234Y-170060966D01*
X106803051Y-170061536D01*
X106819801Y-170064189D01*
X106825253Y-170065053D01*
X106847725Y-170065053D01*
X106852591Y-170065244D01*
X106862438Y-170066018D01*
X106950000Y-170072910D01*
X107037561Y-170066018D01*
X107047409Y-170065244D01*
X107052275Y-170065053D01*
X107074743Y-170065053D01*
X107074746Y-170065053D01*
X107096954Y-170061535D01*
X107101756Y-170060966D01*
X107199186Y-170053299D01*
X107294234Y-170030479D01*
X107298906Y-170029549D01*
X107321168Y-170026024D01*
X107342590Y-170019063D01*
X107347209Y-170017761D01*
X107442236Y-169994947D01*
X107532534Y-169957544D01*
X107537023Y-169955887D01*
X107558449Y-169948926D01*
X107578520Y-169938699D01*
X107582861Y-169936698D01*
X107673166Y-169899293D01*
X107756514Y-169848217D01*
X107760686Y-169845881D01*
X107780749Y-169835659D01*
X107798948Y-169822436D01*
X107802964Y-169819752D01*
X107886289Y-169768691D01*
X107960596Y-169705226D01*
X107964376Y-169702245D01*
X107982593Y-169689011D01*
X107998507Y-169673096D01*
X108002048Y-169669822D01*
X108076357Y-169606357D01*
X108139822Y-169532048D01*
X108143096Y-169528507D01*
X108159011Y-169512593D01*
X108172245Y-169494376D01*
X108175226Y-169490596D01*
X108238691Y-169416289D01*
X108289752Y-169332965D01*
X108292443Y-169328939D01*
X108305659Y-169310749D01*
X108315881Y-169290686D01*
X108318217Y-169286514D01*
X108369293Y-169203166D01*
X108406698Y-169112861D01*
X108408699Y-169108520D01*
X108418926Y-169088449D01*
X108425887Y-169067023D01*
X108427544Y-169062534D01*
X108464947Y-168972236D01*
X108487761Y-168877209D01*
X108489063Y-168872590D01*
X108496024Y-168851168D01*
X108499549Y-168828906D01*
X108500479Y-168824234D01*
X108523299Y-168729186D01*
X108530966Y-168631759D01*
X108531537Y-168626943D01*
X108535053Y-168604746D01*
X108535668Y-168573371D01*
X108535844Y-168569775D01*
X108542910Y-168480000D01*
X108542910Y-168479999D01*
X130757090Y-168479999D01*
X130764756Y-168577408D01*
X130764947Y-168582274D01*
X130764947Y-168604746D01*
X130768461Y-168626943D01*
X130769033Y-168631774D01*
X130774642Y-168703024D01*
X130776701Y-168729186D01*
X130776701Y-168729189D01*
X130776702Y-168729191D01*
X130799510Y-168824195D01*
X130800460Y-168828971D01*
X130803976Y-168851170D01*
X130810921Y-168872542D01*
X130812242Y-168877228D01*
X130835052Y-168972235D01*
X130835054Y-168972241D01*
X130859618Y-169031543D01*
X130872446Y-169062512D01*
X130874127Y-169067070D01*
X130881072Y-169088445D01*
X130891280Y-169108480D01*
X130893318Y-169112901D01*
X130930706Y-169203166D01*
X130981751Y-169286462D01*
X130984130Y-169290710D01*
X130984136Y-169290721D01*
X130994341Y-169310749D01*
X131000688Y-169319485D01*
X131007556Y-169328939D01*
X131010260Y-169332987D01*
X131061305Y-169416283D01*
X131061309Y-169416289D01*
X131124759Y-169490579D01*
X131127763Y-169494390D01*
X131140989Y-169512593D01*
X131156898Y-169528502D01*
X131160191Y-169532065D01*
X131223643Y-169606357D01*
X131297926Y-169669801D01*
X131297932Y-169669806D01*
X131301495Y-169673099D01*
X131317407Y-169689011D01*
X131335613Y-169702238D01*
X131339407Y-169705229D01*
X131413711Y-169768691D01*
X131413713Y-169768692D01*
X131497014Y-169819739D01*
X131501051Y-169822436D01*
X131519251Y-169835659D01*
X131539309Y-169845879D01*
X131543500Y-169848225D01*
X131626834Y-169899293D01*
X131717133Y-169936696D01*
X131721501Y-169938710D01*
X131741551Y-169948926D01*
X131762951Y-169955879D01*
X131767492Y-169957555D01*
X131857764Y-169994947D01*
X131857766Y-169994947D01*
X131857770Y-169994949D01*
X131919790Y-170009838D01*
X131952773Y-170017757D01*
X131957438Y-170019072D01*
X131972872Y-170024087D01*
X131978828Y-170026023D01*
X131978829Y-170026023D01*
X131978832Y-170026024D01*
X132001049Y-170029542D01*
X132005775Y-170030481D01*
X132100814Y-170053299D01*
X132198234Y-170060966D01*
X132203051Y-170061536D01*
X132219801Y-170064189D01*
X132225253Y-170065053D01*
X132247725Y-170065053D01*
X132252591Y-170065244D01*
X132262438Y-170066018D01*
X132350000Y-170072910D01*
X132437561Y-170066018D01*
X132447409Y-170065244D01*
X132452275Y-170065053D01*
X132474743Y-170065053D01*
X132474746Y-170065053D01*
X132496954Y-170061535D01*
X132501756Y-170060966D01*
X132599186Y-170053299D01*
X132694234Y-170030479D01*
X132698906Y-170029549D01*
X132721168Y-170026024D01*
X132742590Y-170019063D01*
X132747209Y-170017761D01*
X132842236Y-169994947D01*
X132932534Y-169957544D01*
X132937023Y-169955887D01*
X132958449Y-169948926D01*
X132978520Y-169938699D01*
X132982861Y-169936698D01*
X133073166Y-169899293D01*
X133156514Y-169848217D01*
X133160686Y-169845881D01*
X133180749Y-169835659D01*
X133198948Y-169822436D01*
X133202964Y-169819752D01*
X133286289Y-169768691D01*
X133360596Y-169705226D01*
X133364376Y-169702245D01*
X133382593Y-169689011D01*
X133398507Y-169673096D01*
X133402048Y-169669822D01*
X133476357Y-169606357D01*
X133539822Y-169532048D01*
X133543096Y-169528507D01*
X133559011Y-169512593D01*
X133572245Y-169494376D01*
X133575226Y-169490596D01*
X133638691Y-169416289D01*
X133689752Y-169332965D01*
X133692443Y-169328939D01*
X133705659Y-169310749D01*
X133715881Y-169290686D01*
X133718217Y-169286514D01*
X133769293Y-169203166D01*
X133806698Y-169112861D01*
X133808699Y-169108520D01*
X133818926Y-169088449D01*
X133825887Y-169067023D01*
X133827544Y-169062534D01*
X133864947Y-168972236D01*
X133887761Y-168877209D01*
X133889063Y-168872590D01*
X133896024Y-168851168D01*
X133899549Y-168828906D01*
X133900479Y-168824234D01*
X133923299Y-168729186D01*
X133930966Y-168631759D01*
X133931537Y-168626943D01*
X133935053Y-168604746D01*
X133935668Y-168573371D01*
X133935844Y-168569775D01*
X133942910Y-168480000D01*
X133942910Y-168479999D01*
X157744590Y-168479999D01*
X157752256Y-168577408D01*
X157752447Y-168582274D01*
X157752447Y-168604746D01*
X157755961Y-168626943D01*
X157756533Y-168631774D01*
X157762142Y-168703024D01*
X157764201Y-168729186D01*
X157764201Y-168729189D01*
X157764202Y-168729191D01*
X157787010Y-168824195D01*
X157787960Y-168828971D01*
X157791476Y-168851170D01*
X157798421Y-168872542D01*
X157799742Y-168877228D01*
X157822552Y-168972235D01*
X157822554Y-168972241D01*
X157847118Y-169031543D01*
X157859946Y-169062512D01*
X157861627Y-169067070D01*
X157868572Y-169088445D01*
X157878780Y-169108480D01*
X157880818Y-169112901D01*
X157918206Y-169203166D01*
X157969251Y-169286462D01*
X157971630Y-169290710D01*
X157971636Y-169290721D01*
X157981841Y-169310749D01*
X157988188Y-169319485D01*
X157995056Y-169328939D01*
X157997760Y-169332987D01*
X158048805Y-169416283D01*
X158048809Y-169416289D01*
X158112259Y-169490579D01*
X158115263Y-169494390D01*
X158128489Y-169512593D01*
X158144398Y-169528502D01*
X158147691Y-169532065D01*
X158211143Y-169606357D01*
X158285426Y-169669801D01*
X158285432Y-169669806D01*
X158288995Y-169673099D01*
X158304907Y-169689011D01*
X158323113Y-169702238D01*
X158326907Y-169705229D01*
X158401211Y-169768691D01*
X158401213Y-169768692D01*
X158484514Y-169819739D01*
X158488551Y-169822436D01*
X158506751Y-169835659D01*
X158526809Y-169845879D01*
X158531000Y-169848225D01*
X158614334Y-169899293D01*
X158704633Y-169936696D01*
X158709001Y-169938710D01*
X158729051Y-169948926D01*
X158750451Y-169955879D01*
X158754992Y-169957555D01*
X158845264Y-169994947D01*
X158845266Y-169994947D01*
X158845270Y-169994949D01*
X158907290Y-170009838D01*
X158940273Y-170017757D01*
X158944938Y-170019072D01*
X158960372Y-170024087D01*
X158966328Y-170026023D01*
X158966329Y-170026023D01*
X158966332Y-170026024D01*
X158988549Y-170029542D01*
X158993275Y-170030481D01*
X159088314Y-170053299D01*
X159185734Y-170060966D01*
X159190551Y-170061536D01*
X159207301Y-170064189D01*
X159212753Y-170065053D01*
X159235225Y-170065053D01*
X159240091Y-170065244D01*
X159249938Y-170066018D01*
X159337500Y-170072910D01*
X159425061Y-170066018D01*
X159434909Y-170065244D01*
X159439775Y-170065053D01*
X159462243Y-170065053D01*
X159462246Y-170065053D01*
X159484454Y-170061535D01*
X159489256Y-170060966D01*
X159586686Y-170053299D01*
X159681734Y-170030479D01*
X159686406Y-170029549D01*
X159708668Y-170026024D01*
X159730090Y-170019063D01*
X159734709Y-170017761D01*
X159829736Y-169994947D01*
X159920034Y-169957544D01*
X159924523Y-169955887D01*
X159945949Y-169948926D01*
X159966020Y-169938699D01*
X159970361Y-169936698D01*
X160060666Y-169899293D01*
X160144014Y-169848217D01*
X160148186Y-169845881D01*
X160168249Y-169835659D01*
X160186448Y-169822436D01*
X160190464Y-169819752D01*
X160273789Y-169768691D01*
X160348096Y-169705226D01*
X160351876Y-169702245D01*
X160370093Y-169689011D01*
X160386007Y-169673096D01*
X160389548Y-169669822D01*
X160463857Y-169606357D01*
X160527322Y-169532048D01*
X160530596Y-169528507D01*
X160546511Y-169512593D01*
X160559745Y-169494376D01*
X160562726Y-169490596D01*
X160626191Y-169416289D01*
X160677252Y-169332965D01*
X160679943Y-169328939D01*
X160693159Y-169310749D01*
X160703381Y-169290686D01*
X160705717Y-169286514D01*
X160756793Y-169203166D01*
X160794198Y-169112861D01*
X160796199Y-169108520D01*
X160806426Y-169088449D01*
X160813387Y-169067023D01*
X160815044Y-169062534D01*
X160852447Y-168972236D01*
X160875261Y-168877209D01*
X160876563Y-168872590D01*
X160883524Y-168851168D01*
X160887049Y-168828906D01*
X160887979Y-168824234D01*
X160910799Y-168729186D01*
X160918466Y-168631759D01*
X160919037Y-168626943D01*
X160922553Y-168604746D01*
X160923168Y-168573371D01*
X160923344Y-168569775D01*
X160930410Y-168480000D01*
X160923344Y-168390227D01*
X160923168Y-168386624D01*
X160922553Y-168355254D01*
X160919037Y-168333054D01*
X160918465Y-168328227D01*
X160910799Y-168230814D01*
X160887981Y-168135775D01*
X160887042Y-168131049D01*
X160883524Y-168108832D01*
X160876572Y-168087438D01*
X160875257Y-168082773D01*
X160867338Y-168049790D01*
X160852449Y-167987770D01*
X160852444Y-167987758D01*
X160815055Y-167897492D01*
X160813374Y-167892936D01*
X160806426Y-167871551D01*
X160796210Y-167851501D01*
X160794196Y-167847133D01*
X160756793Y-167756834D01*
X160705725Y-167673500D01*
X160703379Y-167669309D01*
X160693159Y-167649251D01*
X160679936Y-167631051D01*
X160677239Y-167627014D01*
X160626191Y-167543711D01*
X160562729Y-167469407D01*
X160559738Y-167465613D01*
X160546511Y-167447407D01*
X160530599Y-167431495D01*
X160527306Y-167427932D01*
X160527301Y-167427926D01*
X160463857Y-167353643D01*
X160389565Y-167290191D01*
X160385999Y-167286895D01*
X160370093Y-167270989D01*
X160351890Y-167257763D01*
X160348079Y-167254759D01*
X160348078Y-167254758D01*
X160273789Y-167191309D01*
X160273783Y-167191305D01*
X160190487Y-167140260D01*
X160186439Y-167137556D01*
X160176985Y-167130688D01*
X160168249Y-167124341D01*
X160159557Y-167119912D01*
X160148210Y-167114130D01*
X160143962Y-167111751D01*
X160060666Y-167060706D01*
X159970401Y-167023318D01*
X159965980Y-167021280D01*
X159959554Y-167018006D01*
X159945949Y-167011074D01*
X159945946Y-167011073D01*
X159945944Y-167011072D01*
X159945945Y-167011072D01*
X159924570Y-167004127D01*
X159920012Y-167002446D01*
X159889043Y-166989618D01*
X159829741Y-166965054D01*
X159829735Y-166965052D01*
X159734728Y-166942242D01*
X159730042Y-166940921D01*
X159708670Y-166933976D01*
X159686471Y-166930460D01*
X159681695Y-166929510D01*
X159586691Y-166906702D01*
X159586689Y-166906701D01*
X159586686Y-166906701D01*
X159560524Y-166904642D01*
X159489274Y-166899033D01*
X159484443Y-166898461D01*
X159462246Y-166894947D01*
X159439775Y-166894947D01*
X159434909Y-166894756D01*
X159337500Y-166887090D01*
X159240091Y-166894756D01*
X159235225Y-166894947D01*
X159212755Y-166894947D01*
X159212754Y-166894947D01*
X159210588Y-166895290D01*
X159190558Y-166898461D01*
X159185727Y-166899033D01*
X159088311Y-166906701D01*
X159088306Y-166906702D01*
X158993304Y-166929510D01*
X158988529Y-166930460D01*
X158966328Y-166933976D01*
X158944951Y-166940922D01*
X158940267Y-166942243D01*
X158845267Y-166965052D01*
X158845258Y-166965055D01*
X158755001Y-167002440D01*
X158750436Y-167004124D01*
X158729062Y-167011069D01*
X158729045Y-167011076D01*
X158709017Y-167021280D01*
X158704597Y-167023318D01*
X158614341Y-167060703D01*
X158614329Y-167060709D01*
X158531031Y-167111754D01*
X158526785Y-167114132D01*
X158506753Y-167124339D01*
X158506744Y-167124345D01*
X158488557Y-167137557D01*
X158484513Y-167140259D01*
X158401208Y-167191311D01*
X158326920Y-167254758D01*
X158323098Y-167257771D01*
X158304914Y-167270982D01*
X158304908Y-167270987D01*
X158288998Y-167286895D01*
X158285426Y-167290197D01*
X158211142Y-167353642D01*
X158147697Y-167427926D01*
X158144395Y-167431498D01*
X158128487Y-167447408D01*
X158128482Y-167447414D01*
X158115271Y-167465598D01*
X158112258Y-167469420D01*
X158048811Y-167543708D01*
X157997759Y-167627013D01*
X157995057Y-167631057D01*
X157981845Y-167649244D01*
X157981839Y-167649253D01*
X157971632Y-167669285D01*
X157969254Y-167673531D01*
X157918209Y-167756829D01*
X157918203Y-167756841D01*
X157880818Y-167847097D01*
X157878780Y-167851517D01*
X157868576Y-167871545D01*
X157868569Y-167871562D01*
X157861624Y-167892936D01*
X157859940Y-167897501D01*
X157822555Y-167987758D01*
X157822552Y-167987767D01*
X157799743Y-168082767D01*
X157798422Y-168087451D01*
X157791476Y-168108828D01*
X157787960Y-168131029D01*
X157787010Y-168135804D01*
X157764202Y-168230806D01*
X157764201Y-168230811D01*
X157756533Y-168328227D01*
X157755961Y-168333058D01*
X157752447Y-168355254D01*
X157752447Y-168377725D01*
X157752256Y-168382591D01*
X157744590Y-168479999D01*
X133942910Y-168479999D01*
X133935844Y-168390227D01*
X133935668Y-168386624D01*
X133935053Y-168355254D01*
X133931537Y-168333054D01*
X133930965Y-168328227D01*
X133923299Y-168230814D01*
X133900481Y-168135775D01*
X133899542Y-168131049D01*
X133896024Y-168108832D01*
X133889072Y-168087438D01*
X133887757Y-168082773D01*
X133879838Y-168049790D01*
X133864949Y-167987770D01*
X133864944Y-167987758D01*
X133827555Y-167897492D01*
X133825874Y-167892936D01*
X133818926Y-167871551D01*
X133808710Y-167851501D01*
X133806696Y-167847133D01*
X133769293Y-167756834D01*
X133718225Y-167673500D01*
X133715879Y-167669309D01*
X133705659Y-167649251D01*
X133692436Y-167631051D01*
X133689739Y-167627014D01*
X133638691Y-167543711D01*
X133575229Y-167469407D01*
X133572238Y-167465613D01*
X133559011Y-167447407D01*
X133543099Y-167431495D01*
X133539806Y-167427932D01*
X133539801Y-167427926D01*
X133476357Y-167353643D01*
X133402065Y-167290191D01*
X133398499Y-167286895D01*
X133382593Y-167270989D01*
X133364390Y-167257763D01*
X133360579Y-167254759D01*
X133360578Y-167254758D01*
X133286289Y-167191309D01*
X133286283Y-167191305D01*
X133202987Y-167140260D01*
X133198939Y-167137556D01*
X133189485Y-167130688D01*
X133180749Y-167124341D01*
X133172057Y-167119912D01*
X133160710Y-167114130D01*
X133156462Y-167111751D01*
X133073166Y-167060706D01*
X132982901Y-167023318D01*
X132978480Y-167021280D01*
X132972054Y-167018006D01*
X132958449Y-167011074D01*
X132958446Y-167011073D01*
X132958444Y-167011072D01*
X132958445Y-167011072D01*
X132937070Y-167004127D01*
X132932512Y-167002446D01*
X132901543Y-166989618D01*
X132842241Y-166965054D01*
X132842235Y-166965052D01*
X132747228Y-166942242D01*
X132742542Y-166940921D01*
X132721170Y-166933976D01*
X132698971Y-166930460D01*
X132694195Y-166929510D01*
X132599191Y-166906702D01*
X132599189Y-166906701D01*
X132599186Y-166906701D01*
X132573024Y-166904642D01*
X132501774Y-166899033D01*
X132496943Y-166898461D01*
X132474746Y-166894947D01*
X132452275Y-166894947D01*
X132447409Y-166894756D01*
X132350000Y-166887090D01*
X132252591Y-166894756D01*
X132247725Y-166894947D01*
X132225255Y-166894947D01*
X132225254Y-166894947D01*
X132223088Y-166895290D01*
X132203058Y-166898461D01*
X132198227Y-166899033D01*
X132100811Y-166906701D01*
X132100806Y-166906702D01*
X132005804Y-166929510D01*
X132001029Y-166930460D01*
X131978828Y-166933976D01*
X131957451Y-166940922D01*
X131952767Y-166942243D01*
X131857767Y-166965052D01*
X131857758Y-166965055D01*
X131767501Y-167002440D01*
X131762936Y-167004124D01*
X131741562Y-167011069D01*
X131741545Y-167011076D01*
X131721517Y-167021280D01*
X131717097Y-167023318D01*
X131626841Y-167060703D01*
X131626829Y-167060709D01*
X131543531Y-167111754D01*
X131539285Y-167114132D01*
X131519253Y-167124339D01*
X131519244Y-167124345D01*
X131501057Y-167137557D01*
X131497013Y-167140259D01*
X131413708Y-167191311D01*
X131339420Y-167254758D01*
X131335598Y-167257771D01*
X131317414Y-167270982D01*
X131317408Y-167270987D01*
X131301498Y-167286895D01*
X131297926Y-167290197D01*
X131223642Y-167353642D01*
X131160197Y-167427926D01*
X131156895Y-167431498D01*
X131140987Y-167447408D01*
X131140982Y-167447414D01*
X131127771Y-167465598D01*
X131124758Y-167469420D01*
X131061311Y-167543708D01*
X131010259Y-167627013D01*
X131007557Y-167631057D01*
X130994345Y-167649244D01*
X130994339Y-167649253D01*
X130984132Y-167669285D01*
X130981754Y-167673531D01*
X130930709Y-167756829D01*
X130930703Y-167756841D01*
X130893318Y-167847097D01*
X130891280Y-167851517D01*
X130881076Y-167871545D01*
X130881069Y-167871562D01*
X130874124Y-167892936D01*
X130872440Y-167897501D01*
X130835055Y-167987758D01*
X130835052Y-167987767D01*
X130812243Y-168082767D01*
X130810922Y-168087451D01*
X130803976Y-168108828D01*
X130800460Y-168131029D01*
X130799510Y-168135804D01*
X130776702Y-168230806D01*
X130776701Y-168230811D01*
X130769033Y-168328227D01*
X130768461Y-168333058D01*
X130764947Y-168355254D01*
X130764947Y-168377725D01*
X130764756Y-168382591D01*
X130757090Y-168479999D01*
X108542910Y-168479999D01*
X108535844Y-168390227D01*
X108535668Y-168386624D01*
X108535053Y-168355254D01*
X108531537Y-168333054D01*
X108530965Y-168328227D01*
X108523299Y-168230814D01*
X108500481Y-168135775D01*
X108499542Y-168131049D01*
X108496024Y-168108832D01*
X108489072Y-168087438D01*
X108487757Y-168082773D01*
X108479838Y-168049790D01*
X108464949Y-167987770D01*
X108464944Y-167987758D01*
X108427555Y-167897492D01*
X108425874Y-167892936D01*
X108418926Y-167871551D01*
X108408710Y-167851501D01*
X108406696Y-167847133D01*
X108369293Y-167756834D01*
X108318225Y-167673500D01*
X108315879Y-167669309D01*
X108305659Y-167649251D01*
X108292436Y-167631051D01*
X108289739Y-167627014D01*
X108238691Y-167543711D01*
X108175229Y-167469407D01*
X108172238Y-167465613D01*
X108159011Y-167447407D01*
X108143099Y-167431495D01*
X108139806Y-167427932D01*
X108139801Y-167427926D01*
X108076357Y-167353643D01*
X108002065Y-167290191D01*
X107998499Y-167286895D01*
X107982593Y-167270989D01*
X107964390Y-167257763D01*
X107960579Y-167254759D01*
X107960578Y-167254758D01*
X107886289Y-167191309D01*
X107886283Y-167191305D01*
X107802987Y-167140260D01*
X107798939Y-167137556D01*
X107789485Y-167130688D01*
X107780749Y-167124341D01*
X107772057Y-167119912D01*
X107760710Y-167114130D01*
X107756462Y-167111751D01*
X107673166Y-167060706D01*
X107582901Y-167023318D01*
X107578480Y-167021280D01*
X107572054Y-167018006D01*
X107558449Y-167011074D01*
X107558446Y-167011073D01*
X107558444Y-167011072D01*
X107558445Y-167011072D01*
X107537070Y-167004127D01*
X107532512Y-167002446D01*
X107501543Y-166989618D01*
X107442241Y-166965054D01*
X107442235Y-166965052D01*
X107347228Y-166942242D01*
X107342542Y-166940921D01*
X107321170Y-166933976D01*
X107298971Y-166930460D01*
X107294195Y-166929510D01*
X107199191Y-166906702D01*
X107199189Y-166906701D01*
X107199186Y-166906701D01*
X107173024Y-166904642D01*
X107101774Y-166899033D01*
X107096943Y-166898461D01*
X107074746Y-166894947D01*
X107052275Y-166894947D01*
X107047409Y-166894756D01*
X106950000Y-166887090D01*
X106852591Y-166894756D01*
X106847725Y-166894947D01*
X106825255Y-166894947D01*
X106825254Y-166894947D01*
X106823088Y-166895290D01*
X106803058Y-166898461D01*
X106798227Y-166899033D01*
X106700811Y-166906701D01*
X106700806Y-166906702D01*
X106605804Y-166929510D01*
X106601029Y-166930460D01*
X106578828Y-166933976D01*
X106557451Y-166940922D01*
X106552767Y-166942243D01*
X106457767Y-166965052D01*
X106457758Y-166965055D01*
X106367501Y-167002440D01*
X106362936Y-167004124D01*
X106341562Y-167011069D01*
X106341545Y-167011076D01*
X106321517Y-167021280D01*
X106317097Y-167023318D01*
X106226841Y-167060703D01*
X106226829Y-167060709D01*
X106143531Y-167111754D01*
X106139285Y-167114132D01*
X106119253Y-167124339D01*
X106119244Y-167124345D01*
X106101057Y-167137557D01*
X106097013Y-167140259D01*
X106013708Y-167191311D01*
X105939420Y-167254758D01*
X105935598Y-167257771D01*
X105917414Y-167270982D01*
X105917408Y-167270987D01*
X105901498Y-167286895D01*
X105897926Y-167290197D01*
X105823642Y-167353642D01*
X105760197Y-167427926D01*
X105756895Y-167431498D01*
X105740987Y-167447408D01*
X105740982Y-167447414D01*
X105727771Y-167465598D01*
X105724758Y-167469420D01*
X105661311Y-167543708D01*
X105610259Y-167627013D01*
X105607557Y-167631057D01*
X105594345Y-167649244D01*
X105594339Y-167649253D01*
X105584132Y-167669285D01*
X105581754Y-167673531D01*
X105530709Y-167756829D01*
X105530703Y-167756841D01*
X105493318Y-167847097D01*
X105491280Y-167851517D01*
X105481076Y-167871545D01*
X105481069Y-167871562D01*
X105474124Y-167892936D01*
X105472440Y-167897501D01*
X105435055Y-167987758D01*
X105435052Y-167987767D01*
X105412243Y-168082767D01*
X105410922Y-168087451D01*
X105403976Y-168108828D01*
X105400460Y-168131029D01*
X105399510Y-168135804D01*
X105376702Y-168230806D01*
X105376701Y-168230811D01*
X105369033Y-168328227D01*
X105368461Y-168333058D01*
X105364947Y-168355254D01*
X105364947Y-168377725D01*
X105364756Y-168382591D01*
X105357090Y-168479999D01*
X83142910Y-168479999D01*
X83135844Y-168390227D01*
X83135668Y-168386624D01*
X83135053Y-168355254D01*
X83131537Y-168333054D01*
X83130965Y-168328227D01*
X83123299Y-168230814D01*
X83100481Y-168135775D01*
X83099542Y-168131049D01*
X83096024Y-168108832D01*
X83089072Y-168087438D01*
X83087757Y-168082773D01*
X83079838Y-168049790D01*
X83064949Y-167987770D01*
X83064944Y-167987758D01*
X83027555Y-167897492D01*
X83025874Y-167892936D01*
X83018926Y-167871551D01*
X83008710Y-167851501D01*
X83006696Y-167847133D01*
X82969293Y-167756834D01*
X82918225Y-167673500D01*
X82915879Y-167669309D01*
X82905659Y-167649251D01*
X82892436Y-167631051D01*
X82889739Y-167627014D01*
X82838691Y-167543711D01*
X82775229Y-167469407D01*
X82772238Y-167465613D01*
X82759011Y-167447407D01*
X82743099Y-167431495D01*
X82739806Y-167427932D01*
X82739801Y-167427926D01*
X82676357Y-167353643D01*
X82602065Y-167290191D01*
X82598499Y-167286895D01*
X82582593Y-167270989D01*
X82564390Y-167257763D01*
X82560579Y-167254759D01*
X82560578Y-167254758D01*
X82486289Y-167191309D01*
X82486283Y-167191305D01*
X82402987Y-167140260D01*
X82398939Y-167137556D01*
X82389485Y-167130688D01*
X82380749Y-167124341D01*
X82372057Y-167119912D01*
X82360710Y-167114130D01*
X82356462Y-167111751D01*
X82273166Y-167060706D01*
X82182901Y-167023318D01*
X82178480Y-167021280D01*
X82172054Y-167018006D01*
X82158449Y-167011074D01*
X82158446Y-167011073D01*
X82158444Y-167011072D01*
X82158445Y-167011072D01*
X82137070Y-167004127D01*
X82132512Y-167002446D01*
X82101543Y-166989618D01*
X82042241Y-166965054D01*
X82042235Y-166965052D01*
X81947228Y-166942242D01*
X81942542Y-166940921D01*
X81921170Y-166933976D01*
X81898971Y-166930460D01*
X81894195Y-166929510D01*
X81799191Y-166906702D01*
X81799189Y-166906701D01*
X81799186Y-166906701D01*
X81773024Y-166904642D01*
X81701774Y-166899033D01*
X81696943Y-166898461D01*
X81674746Y-166894947D01*
X81652275Y-166894947D01*
X81647409Y-166894756D01*
X81550000Y-166887090D01*
X81452591Y-166894756D01*
X81447725Y-166894947D01*
X81425255Y-166894947D01*
X81425254Y-166894947D01*
X81423088Y-166895290D01*
X81403058Y-166898461D01*
X81398227Y-166899033D01*
X81300811Y-166906701D01*
X81300806Y-166906702D01*
X81205804Y-166929510D01*
X81201029Y-166930460D01*
X81178828Y-166933976D01*
X81157451Y-166940922D01*
X81152767Y-166942243D01*
X81057767Y-166965052D01*
X81057758Y-166965055D01*
X80967501Y-167002440D01*
X80962936Y-167004124D01*
X80941562Y-167011069D01*
X80941545Y-167011076D01*
X80921517Y-167021280D01*
X80917097Y-167023318D01*
X80826841Y-167060703D01*
X80826829Y-167060709D01*
X80743531Y-167111754D01*
X80739285Y-167114132D01*
X80719253Y-167124339D01*
X80719244Y-167124345D01*
X80701057Y-167137557D01*
X80697013Y-167140259D01*
X80613708Y-167191311D01*
X80539420Y-167254758D01*
X80535598Y-167257771D01*
X80517414Y-167270982D01*
X80517408Y-167270987D01*
X80501498Y-167286895D01*
X80497926Y-167290197D01*
X80423642Y-167353642D01*
X80360197Y-167427926D01*
X80356895Y-167431498D01*
X80340987Y-167447408D01*
X80340982Y-167447414D01*
X80327771Y-167465598D01*
X80324758Y-167469420D01*
X80261311Y-167543708D01*
X80210259Y-167627013D01*
X80207557Y-167631057D01*
X80194345Y-167649244D01*
X80194339Y-167649253D01*
X80184132Y-167669285D01*
X80181754Y-167673531D01*
X80130709Y-167756829D01*
X80130703Y-167756841D01*
X80093318Y-167847097D01*
X80091280Y-167851517D01*
X80081076Y-167871545D01*
X80081069Y-167871562D01*
X80074124Y-167892936D01*
X80072440Y-167897501D01*
X80035055Y-167987758D01*
X80035052Y-167987767D01*
X80012243Y-168082767D01*
X80010922Y-168087451D01*
X80003976Y-168108828D01*
X80000460Y-168131029D01*
X79999510Y-168135804D01*
X79976702Y-168230806D01*
X79976701Y-168230811D01*
X79969033Y-168328227D01*
X79968461Y-168333058D01*
X79964947Y-168355254D01*
X79964947Y-168377725D01*
X79964756Y-168382591D01*
X79957090Y-168479999D01*
X57742910Y-168479999D01*
X57735844Y-168390227D01*
X57735668Y-168386624D01*
X57735053Y-168355254D01*
X57731537Y-168333054D01*
X57730965Y-168328227D01*
X57723299Y-168230814D01*
X57700481Y-168135775D01*
X57699542Y-168131049D01*
X57696024Y-168108832D01*
X57689072Y-168087438D01*
X57687757Y-168082773D01*
X57679838Y-168049790D01*
X57664949Y-167987770D01*
X57664944Y-167987758D01*
X57627555Y-167897492D01*
X57625874Y-167892936D01*
X57618926Y-167871551D01*
X57608710Y-167851501D01*
X57606696Y-167847133D01*
X57569293Y-167756834D01*
X57518225Y-167673500D01*
X57515879Y-167669309D01*
X57505659Y-167649251D01*
X57492436Y-167631051D01*
X57489739Y-167627014D01*
X57438691Y-167543711D01*
X57375229Y-167469407D01*
X57372238Y-167465613D01*
X57359011Y-167447407D01*
X57343099Y-167431495D01*
X57339806Y-167427932D01*
X57339801Y-167427926D01*
X57276357Y-167353643D01*
X57202065Y-167290191D01*
X57198499Y-167286895D01*
X57182593Y-167270989D01*
X57164390Y-167257763D01*
X57160579Y-167254759D01*
X57160578Y-167254758D01*
X57086289Y-167191309D01*
X57086283Y-167191305D01*
X57002987Y-167140260D01*
X56998939Y-167137556D01*
X56989485Y-167130688D01*
X56980749Y-167124341D01*
X56972057Y-167119912D01*
X56960710Y-167114130D01*
X56956462Y-167111751D01*
X56873166Y-167060706D01*
X56782901Y-167023318D01*
X56778480Y-167021280D01*
X56772054Y-167018006D01*
X56758449Y-167011074D01*
X56758446Y-167011073D01*
X56758444Y-167011072D01*
X56758445Y-167011072D01*
X56737070Y-167004127D01*
X56732512Y-167002446D01*
X56701543Y-166989618D01*
X56642241Y-166965054D01*
X56642235Y-166965052D01*
X56547228Y-166942242D01*
X56542542Y-166940921D01*
X56521170Y-166933976D01*
X56498971Y-166930460D01*
X56494195Y-166929510D01*
X56399191Y-166906702D01*
X56399189Y-166906701D01*
X56399186Y-166906701D01*
X56373024Y-166904642D01*
X56301774Y-166899033D01*
X56296943Y-166898461D01*
X56274746Y-166894947D01*
X56252275Y-166894947D01*
X56247409Y-166894756D01*
X56150000Y-166887090D01*
X56052591Y-166894756D01*
X56047725Y-166894947D01*
X56025255Y-166894947D01*
X56025254Y-166894947D01*
X56023088Y-166895290D01*
X56003058Y-166898461D01*
X55998227Y-166899033D01*
X55900811Y-166906701D01*
X55900806Y-166906702D01*
X55805804Y-166929510D01*
X55801029Y-166930460D01*
X55778828Y-166933976D01*
X55757451Y-166940922D01*
X55752767Y-166942243D01*
X55657767Y-166965052D01*
X55657758Y-166965055D01*
X55567501Y-167002440D01*
X55562936Y-167004124D01*
X55541562Y-167011069D01*
X55541545Y-167011076D01*
X55521517Y-167021280D01*
X55517097Y-167023318D01*
X55426841Y-167060703D01*
X55426829Y-167060709D01*
X55343531Y-167111754D01*
X55339285Y-167114132D01*
X55319253Y-167124339D01*
X55319244Y-167124345D01*
X55301057Y-167137557D01*
X55297013Y-167140259D01*
X55213708Y-167191311D01*
X55139420Y-167254758D01*
X55135598Y-167257771D01*
X55117414Y-167270982D01*
X55117408Y-167270987D01*
X55101498Y-167286895D01*
X55097926Y-167290197D01*
X55023642Y-167353642D01*
X54960197Y-167427926D01*
X54956895Y-167431498D01*
X54940987Y-167447408D01*
X54940982Y-167447414D01*
X54927771Y-167465598D01*
X54924758Y-167469420D01*
X54861311Y-167543708D01*
X54810259Y-167627013D01*
X54807557Y-167631057D01*
X54794345Y-167649244D01*
X54794339Y-167649253D01*
X54784132Y-167669285D01*
X54781754Y-167673531D01*
X54730709Y-167756829D01*
X54730703Y-167756841D01*
X54693318Y-167847097D01*
X54691280Y-167851517D01*
X54681076Y-167871545D01*
X54681069Y-167871562D01*
X54674124Y-167892936D01*
X54672440Y-167897501D01*
X54635055Y-167987758D01*
X54635052Y-167987767D01*
X54612243Y-168082767D01*
X54610922Y-168087451D01*
X54603976Y-168108828D01*
X54600460Y-168131029D01*
X54599510Y-168135804D01*
X54576702Y-168230806D01*
X54576701Y-168230811D01*
X54569033Y-168328227D01*
X54568461Y-168333058D01*
X54564947Y-168355254D01*
X54564947Y-168377725D01*
X54564756Y-168382591D01*
X54557090Y-168479999D01*
X32342910Y-168479999D01*
X32335844Y-168390227D01*
X32335668Y-168386624D01*
X32335053Y-168355254D01*
X32331537Y-168333054D01*
X32330965Y-168328227D01*
X32323299Y-168230814D01*
X32300481Y-168135775D01*
X32299542Y-168131049D01*
X32296024Y-168108832D01*
X32289072Y-168087438D01*
X32287757Y-168082773D01*
X32279838Y-168049790D01*
X32264949Y-167987770D01*
X32264944Y-167987758D01*
X32227555Y-167897492D01*
X32225874Y-167892936D01*
X32218926Y-167871551D01*
X32208710Y-167851501D01*
X32206696Y-167847133D01*
X32169293Y-167756834D01*
X32118225Y-167673500D01*
X32115879Y-167669309D01*
X32105659Y-167649251D01*
X32092436Y-167631051D01*
X32089739Y-167627014D01*
X32038691Y-167543711D01*
X31975229Y-167469407D01*
X31972238Y-167465613D01*
X31959011Y-167447407D01*
X31943099Y-167431495D01*
X31939806Y-167427932D01*
X31939801Y-167427926D01*
X31876357Y-167353643D01*
X31802065Y-167290191D01*
X31798499Y-167286895D01*
X31782593Y-167270989D01*
X31764390Y-167257763D01*
X31760579Y-167254759D01*
X31760578Y-167254758D01*
X31686289Y-167191309D01*
X31686283Y-167191305D01*
X31602987Y-167140260D01*
X31598939Y-167137556D01*
X31589485Y-167130688D01*
X31580749Y-167124341D01*
X31572057Y-167119912D01*
X31560710Y-167114130D01*
X31556462Y-167111751D01*
X31473166Y-167060706D01*
X31382901Y-167023318D01*
X31378480Y-167021280D01*
X31372054Y-167018006D01*
X31358449Y-167011074D01*
X31358446Y-167011073D01*
X31358444Y-167011072D01*
X31358445Y-167011072D01*
X31337070Y-167004127D01*
X31332512Y-167002446D01*
X31301543Y-166989618D01*
X31242241Y-166965054D01*
X31242235Y-166965052D01*
X31147228Y-166942242D01*
X31142542Y-166940921D01*
X31121170Y-166933976D01*
X31098971Y-166930460D01*
X31094195Y-166929510D01*
X30999191Y-166906702D01*
X30999189Y-166906701D01*
X30999186Y-166906701D01*
X30973024Y-166904642D01*
X30901774Y-166899033D01*
X30896943Y-166898461D01*
X30874746Y-166894947D01*
X30852275Y-166894947D01*
X30847409Y-166894756D01*
X30750000Y-166887090D01*
X30652591Y-166894756D01*
X30647725Y-166894947D01*
X30625255Y-166894947D01*
X30625254Y-166894947D01*
X30623088Y-166895290D01*
X30603058Y-166898461D01*
X30598227Y-166899033D01*
X30500811Y-166906701D01*
X30500806Y-166906702D01*
X30405804Y-166929510D01*
X30401029Y-166930460D01*
X30378828Y-166933976D01*
X30357451Y-166940922D01*
X30352767Y-166942243D01*
X30257767Y-166965052D01*
X30257758Y-166965055D01*
X30167501Y-167002440D01*
X30162936Y-167004124D01*
X30141562Y-167011069D01*
X30141545Y-167011076D01*
X30121517Y-167021280D01*
X30117097Y-167023318D01*
X30026841Y-167060703D01*
X30026829Y-167060709D01*
X29943531Y-167111754D01*
X29939285Y-167114132D01*
X29919253Y-167124339D01*
X29919244Y-167124345D01*
X29901057Y-167137557D01*
X29897013Y-167140259D01*
X29813708Y-167191311D01*
X29739420Y-167254758D01*
X29735598Y-167257771D01*
X29717414Y-167270982D01*
X29717408Y-167270987D01*
X29701498Y-167286895D01*
X29697926Y-167290197D01*
X29623642Y-167353642D01*
X29560197Y-167427926D01*
X29556895Y-167431498D01*
X29540987Y-167447408D01*
X29540982Y-167447414D01*
X29527771Y-167465598D01*
X29524758Y-167469420D01*
X29461311Y-167543708D01*
X29410259Y-167627013D01*
X29407557Y-167631057D01*
X29394345Y-167649244D01*
X29394339Y-167649253D01*
X29384132Y-167669285D01*
X29381754Y-167673531D01*
X29330709Y-167756829D01*
X29330703Y-167756841D01*
X29293318Y-167847097D01*
X29291280Y-167851517D01*
X29281076Y-167871545D01*
X29281069Y-167871562D01*
X29274124Y-167892936D01*
X29272440Y-167897501D01*
X29235055Y-167987758D01*
X29235052Y-167987767D01*
X29212243Y-168082767D01*
X29210922Y-168087451D01*
X29203976Y-168108828D01*
X29200460Y-168131029D01*
X29199510Y-168135804D01*
X29176702Y-168230806D01*
X29176701Y-168230811D01*
X29169033Y-168328227D01*
X29168461Y-168333058D01*
X29164947Y-168355254D01*
X29164947Y-168377725D01*
X29164756Y-168382591D01*
X29157090Y-168479999D01*
X5355410Y-168479999D01*
X5348344Y-168390227D01*
X5348168Y-168386624D01*
X5347553Y-168355254D01*
X5344037Y-168333054D01*
X5343465Y-168328227D01*
X5335799Y-168230814D01*
X5312981Y-168135775D01*
X5312042Y-168131049D01*
X5308524Y-168108832D01*
X5301572Y-168087438D01*
X5300257Y-168082773D01*
X5292338Y-168049790D01*
X5277449Y-167987770D01*
X5277444Y-167987758D01*
X5240055Y-167897492D01*
X5238374Y-167892936D01*
X5231426Y-167871551D01*
X5221210Y-167851501D01*
X5219196Y-167847133D01*
X5181793Y-167756834D01*
X5130725Y-167673500D01*
X5128379Y-167669309D01*
X5118159Y-167649251D01*
X5104936Y-167631051D01*
X5102239Y-167627014D01*
X5051191Y-167543711D01*
X4987729Y-167469407D01*
X4984738Y-167465613D01*
X4971511Y-167447407D01*
X4955599Y-167431495D01*
X4952306Y-167427932D01*
X4952301Y-167427926D01*
X4888857Y-167353643D01*
X4814565Y-167290191D01*
X4810999Y-167286895D01*
X4795093Y-167270989D01*
X4776890Y-167257763D01*
X4773079Y-167254759D01*
X4773078Y-167254758D01*
X4698789Y-167191309D01*
X4698783Y-167191305D01*
X4615487Y-167140260D01*
X4611439Y-167137556D01*
X4601985Y-167130688D01*
X4593249Y-167124341D01*
X4584557Y-167119912D01*
X4573210Y-167114130D01*
X4568962Y-167111751D01*
X4485666Y-167060706D01*
X4395401Y-167023318D01*
X4390980Y-167021280D01*
X4384554Y-167018006D01*
X4370949Y-167011074D01*
X4370946Y-167011073D01*
X4370944Y-167011072D01*
X4370945Y-167011072D01*
X4349570Y-167004127D01*
X4345012Y-167002446D01*
X4314043Y-166989618D01*
X4254741Y-166965054D01*
X4254735Y-166965052D01*
X4159728Y-166942242D01*
X4155042Y-166940921D01*
X4133670Y-166933976D01*
X4111471Y-166930460D01*
X4106695Y-166929510D01*
X4011691Y-166906702D01*
X4011689Y-166906701D01*
X4011686Y-166906701D01*
X3985524Y-166904642D01*
X3914274Y-166899033D01*
X3909443Y-166898461D01*
X3887246Y-166894947D01*
X3864775Y-166894947D01*
X3859909Y-166894756D01*
X3762500Y-166887090D01*
X3665091Y-166894756D01*
X3660225Y-166894947D01*
X3637755Y-166894947D01*
X3637754Y-166894947D01*
X3635588Y-166895290D01*
X3615558Y-166898461D01*
X3610727Y-166899033D01*
X3513311Y-166906701D01*
X3513306Y-166906702D01*
X3418304Y-166929510D01*
X3413529Y-166930460D01*
X3391328Y-166933976D01*
X3369951Y-166940922D01*
X3365267Y-166942243D01*
X3270267Y-166965052D01*
X3270258Y-166965055D01*
X3180001Y-167002440D01*
X3175436Y-167004124D01*
X3154062Y-167011069D01*
X3154045Y-167011076D01*
X3134017Y-167021280D01*
X3129597Y-167023318D01*
X3039341Y-167060703D01*
X3039329Y-167060709D01*
X2956031Y-167111754D01*
X2951785Y-167114132D01*
X2931753Y-167124339D01*
X2931744Y-167124345D01*
X2913557Y-167137557D01*
X2909513Y-167140259D01*
X2826208Y-167191311D01*
X2751920Y-167254758D01*
X2748098Y-167257771D01*
X2729914Y-167270982D01*
X2729908Y-167270987D01*
X2713998Y-167286895D01*
X2710426Y-167290197D01*
X2636142Y-167353642D01*
X2572697Y-167427926D01*
X2569395Y-167431498D01*
X2553487Y-167447408D01*
X2553482Y-167447414D01*
X2540271Y-167465598D01*
X2537258Y-167469420D01*
X2473811Y-167543708D01*
X2422759Y-167627013D01*
X2420057Y-167631057D01*
X2406845Y-167649244D01*
X2406839Y-167649253D01*
X2396632Y-167669285D01*
X2394254Y-167673531D01*
X2343209Y-167756829D01*
X2343203Y-167756841D01*
X2305818Y-167847097D01*
X2303780Y-167851517D01*
X2293576Y-167871545D01*
X2293569Y-167871562D01*
X2286624Y-167892936D01*
X2284940Y-167897501D01*
X2247555Y-167987758D01*
X2247552Y-167987767D01*
X2224743Y-168082767D01*
X2223422Y-168087451D01*
X2216476Y-168108828D01*
X2212960Y-168131029D01*
X2212010Y-168135804D01*
X2189202Y-168230806D01*
X2189201Y-168230811D01*
X2181533Y-168328227D01*
X2180961Y-168333058D01*
X2177447Y-168355254D01*
X2177447Y-168377725D01*
X2177256Y-168382591D01*
X2169590Y-168479999D01*
X500Y-168479999D01*
X500Y-114985004D01*
X40044662Y-114985004D01*
X40063986Y-115242883D01*
X40063987Y-115242888D01*
X40121532Y-115495012D01*
X40121533Y-115495014D01*
X40121536Y-115495026D01*
X40216019Y-115735766D01*
X40345328Y-115959734D01*
X40423795Y-116058129D01*
X40506575Y-116161933D01*
X40637590Y-116283496D01*
X40696152Y-116337833D01*
X40909831Y-116483517D01*
X40909836Y-116483519D01*
X40909837Y-116483520D01*
X40909838Y-116483521D01*
X41083847Y-116567318D01*
X41142837Y-116595726D01*
X41184730Y-116608648D01*
X41187394Y-116609537D01*
X41191057Y-116610852D01*
X41191063Y-116610855D01*
X41191069Y-116610856D01*
X41191070Y-116610857D01*
X41198584Y-116612922D01*
X41281140Y-116638387D01*
X41389964Y-116671955D01*
X41438243Y-116679231D01*
X41445420Y-116680753D01*
X41446092Y-116680938D01*
X41446101Y-116680939D01*
X41460917Y-116682650D01*
X41607066Y-116704678D01*
X41645692Y-116710500D01*
X41698591Y-116710500D01*
X41705700Y-116710908D01*
X41708831Y-116711270D01*
X41728221Y-116710526D01*
X41728921Y-116710500D01*
X41904307Y-116710500D01*
X41904308Y-116710500D01*
X41960721Y-116701996D01*
X41967570Y-116701352D01*
X41973120Y-116701140D01*
X41996524Y-116696600D01*
X42160036Y-116671955D01*
X42218545Y-116653907D01*
X42224989Y-116652293D01*
X42232766Y-116650785D01*
X42256413Y-116642291D01*
X42259007Y-116641426D01*
X42386192Y-116602194D01*
X42407154Y-116595729D01*
X42407155Y-116595728D01*
X42407163Y-116595726D01*
X42466168Y-116567310D01*
X42472080Y-116564833D01*
X42481682Y-116561385D01*
X42505230Y-116548579D01*
X42507839Y-116547243D01*
X42640169Y-116483517D01*
X42697861Y-116444182D01*
X42703127Y-116440966D01*
X42714034Y-116435036D01*
X42736131Y-116418191D01*
X42738697Y-116416341D01*
X42853848Y-116337833D01*
X42908272Y-116287334D01*
X42912834Y-116283496D01*
X42924375Y-116274699D01*
X42943917Y-116254392D01*
X42946356Y-116251997D01*
X43020323Y-116183366D01*
X43043421Y-116161936D01*
X43043425Y-116161932D01*
X43043425Y-116161931D01*
X43043428Y-116161929D01*
X43092509Y-116100382D01*
X43096285Y-116096073D01*
X43107777Y-116084133D01*
X43123989Y-116061083D01*
X43126169Y-116058173D01*
X43204672Y-115959734D01*
X43246343Y-115887557D01*
X43249295Y-115882936D01*
X43259939Y-115867804D01*
X43272263Y-115842911D01*
X43274107Y-115839468D01*
X43313993Y-115770385D01*
X43333974Y-115735779D01*
X43333975Y-115735775D01*
X43333981Y-115735766D01*
X43366148Y-115653803D01*
X43368275Y-115649002D01*
X43377296Y-115630783D01*
X43385471Y-115604949D01*
X43386847Y-115601063D01*
X43428464Y-115495026D01*
X43449127Y-115404493D01*
X43450458Y-115399600D01*
X43457096Y-115378626D01*
X43461082Y-115352818D01*
X43461904Y-115348514D01*
X43486012Y-115242893D01*
X43493325Y-115145295D01*
X43493870Y-115140540D01*
X43497469Y-115117242D01*
X43498136Y-115082388D01*
X43498298Y-115078942D01*
X43505338Y-114985004D01*
X119594662Y-114985004D01*
X119613986Y-115242883D01*
X119613987Y-115242888D01*
X119671532Y-115495012D01*
X119671533Y-115495014D01*
X119671536Y-115495026D01*
X119766019Y-115735766D01*
X119895328Y-115959734D01*
X119973795Y-116058129D01*
X120056575Y-116161933D01*
X120187590Y-116283496D01*
X120246152Y-116337833D01*
X120459831Y-116483517D01*
X120459836Y-116483519D01*
X120459837Y-116483520D01*
X120459838Y-116483521D01*
X120633847Y-116567318D01*
X120692837Y-116595726D01*
X120734730Y-116608648D01*
X120737394Y-116609537D01*
X120741057Y-116610852D01*
X120741063Y-116610855D01*
X120741069Y-116610856D01*
X120741070Y-116610857D01*
X120748584Y-116612922D01*
X120831140Y-116638387D01*
X120939964Y-116671955D01*
X120988243Y-116679231D01*
X120995420Y-116680753D01*
X120996092Y-116680938D01*
X120996101Y-116680939D01*
X121010917Y-116682650D01*
X121157066Y-116704678D01*
X121195692Y-116710500D01*
X121248591Y-116710500D01*
X121255700Y-116710908D01*
X121258831Y-116711270D01*
X121278221Y-116710526D01*
X121278921Y-116710500D01*
X121454307Y-116710500D01*
X121454308Y-116710500D01*
X121510721Y-116701996D01*
X121517570Y-116701352D01*
X121523120Y-116701140D01*
X121546524Y-116696600D01*
X121710036Y-116671955D01*
X121768545Y-116653907D01*
X121774989Y-116652293D01*
X121782766Y-116650785D01*
X121806413Y-116642291D01*
X121809007Y-116641426D01*
X121936192Y-116602194D01*
X121957154Y-116595729D01*
X121957155Y-116595728D01*
X121957163Y-116595726D01*
X122016168Y-116567310D01*
X122022080Y-116564833D01*
X122031682Y-116561385D01*
X122055230Y-116548579D01*
X122057839Y-116547243D01*
X122190169Y-116483517D01*
X122247861Y-116444182D01*
X122253127Y-116440966D01*
X122264034Y-116435036D01*
X122286131Y-116418191D01*
X122288697Y-116416341D01*
X122403848Y-116337833D01*
X122458272Y-116287334D01*
X122462834Y-116283496D01*
X122474375Y-116274699D01*
X122493917Y-116254392D01*
X122496356Y-116251997D01*
X122570323Y-116183366D01*
X122593421Y-116161936D01*
X122593425Y-116161932D01*
X122593425Y-116161931D01*
X122593428Y-116161929D01*
X122642509Y-116100382D01*
X122646285Y-116096073D01*
X122657777Y-116084133D01*
X122673989Y-116061083D01*
X122676169Y-116058173D01*
X122754672Y-115959734D01*
X122796343Y-115887557D01*
X122799295Y-115882936D01*
X122809939Y-115867804D01*
X122822263Y-115842911D01*
X122824107Y-115839468D01*
X122863993Y-115770385D01*
X122883974Y-115735779D01*
X122883975Y-115735775D01*
X122883981Y-115735766D01*
X122916148Y-115653803D01*
X122918275Y-115649002D01*
X122927296Y-115630783D01*
X122935471Y-115604949D01*
X122936847Y-115601063D01*
X122978464Y-115495026D01*
X122999127Y-115404493D01*
X123000458Y-115399600D01*
X123007096Y-115378626D01*
X123011082Y-115352818D01*
X123011904Y-115348514D01*
X123036012Y-115242893D01*
X123043325Y-115145295D01*
X123043870Y-115140540D01*
X123047469Y-115117242D01*
X123048136Y-115082388D01*
X123048298Y-115078942D01*
X123055338Y-114985003D01*
X123055338Y-114984996D01*
X123048298Y-114891057D01*
X123048136Y-114887609D01*
X123047469Y-114852773D01*
X123047469Y-114852758D01*
X123043872Y-114829471D01*
X123043325Y-114824699D01*
X123038331Y-114758057D01*
X123036013Y-114727111D01*
X123034081Y-114718648D01*
X123011901Y-114621474D01*
X123011083Y-114617187D01*
X123007096Y-114591374D01*
X123000452Y-114570381D01*
X122999129Y-114565516D01*
X122978857Y-114476695D01*
X122978468Y-114474989D01*
X122978466Y-114474983D01*
X122978464Y-114474974D01*
X122936848Y-114368939D01*
X122935465Y-114365030D01*
X122927296Y-114339217D01*
X122918282Y-114321012D01*
X122916134Y-114316160D01*
X122883980Y-114234232D01*
X122883979Y-114234231D01*
X122824118Y-114130548D01*
X122822254Y-114127069D01*
X122809939Y-114102196D01*
X122799300Y-114087070D01*
X122796334Y-114082427D01*
X122754672Y-114010266D01*
X122676178Y-113911837D01*
X122673973Y-113908893D01*
X122657779Y-113885870D01*
X122657774Y-113885864D01*
X122646301Y-113873942D01*
X122642500Y-113869605D01*
X122593428Y-113808071D01*
X122593425Y-113808068D01*
X122496386Y-113718029D01*
X122493885Y-113715572D01*
X122474379Y-113695304D01*
X122474371Y-113695298D01*
X122462840Y-113686507D01*
X122458255Y-113682648D01*
X122403848Y-113632166D01*
X122288728Y-113553679D01*
X122286088Y-113551775D01*
X122264034Y-113534964D01*
X122264035Y-113534964D01*
X122253147Y-113529042D01*
X122247841Y-113525802D01*
X122190176Y-113486487D01*
X122190168Y-113486482D01*
X122057891Y-113422781D01*
X122055175Y-113421389D01*
X122031682Y-113408615D01*
X122022099Y-113405172D01*
X122016157Y-113402682D01*
X121957163Y-113374274D01*
X121809047Y-113328585D01*
X121806366Y-113327691D01*
X121782774Y-113319218D01*
X121782776Y-113319218D01*
X121782766Y-113319215D01*
X121782762Y-113319214D01*
X121782755Y-113319212D01*
X121774997Y-113317707D01*
X121768532Y-113316088D01*
X121710030Y-113298043D01*
X121546535Y-113273401D01*
X121542707Y-113272658D01*
X121523120Y-113268860D01*
X121523118Y-113268859D01*
X121523114Y-113268859D01*
X121517558Y-113268646D01*
X121510697Y-113267999D01*
X121454314Y-113259500D01*
X121454308Y-113259500D01*
X121278921Y-113259500D01*
X121258832Y-113258730D01*
X121258831Y-113258730D01*
X121255700Y-113259091D01*
X121248591Y-113259500D01*
X121195684Y-113259500D01*
X121010915Y-113287350D01*
X120996096Y-113289061D01*
X120996052Y-113289069D01*
X120995374Y-113289256D01*
X120988223Y-113290770D01*
X120939963Y-113298045D01*
X120939956Y-113298046D01*
X120748586Y-113357076D01*
X120741057Y-113359145D01*
X120737372Y-113360469D01*
X120734708Y-113361357D01*
X120692835Y-113374274D01*
X120459838Y-113486478D01*
X120459837Y-113486479D01*
X120246151Y-113632167D01*
X120056575Y-113808066D01*
X119895328Y-114010266D01*
X119766019Y-114234233D01*
X119671538Y-114474968D01*
X119671532Y-114474987D01*
X119613987Y-114727111D01*
X119613986Y-114727116D01*
X119594662Y-114984995D01*
X119594662Y-114985004D01*
X43505338Y-114985004D01*
X43505338Y-114985003D01*
X43505338Y-114984996D01*
X43498298Y-114891057D01*
X43498136Y-114887609D01*
X43497469Y-114852773D01*
X43497469Y-114852758D01*
X43493872Y-114829471D01*
X43493325Y-114824699D01*
X43488331Y-114758057D01*
X43486013Y-114727111D01*
X43484081Y-114718648D01*
X43461901Y-114621474D01*
X43461083Y-114617187D01*
X43457096Y-114591374D01*
X43450452Y-114570381D01*
X43449129Y-114565516D01*
X43428857Y-114476695D01*
X43428468Y-114474989D01*
X43428466Y-114474983D01*
X43428464Y-114474974D01*
X43386848Y-114368939D01*
X43385465Y-114365030D01*
X43377296Y-114339217D01*
X43368282Y-114321012D01*
X43366134Y-114316160D01*
X43333980Y-114234232D01*
X43333979Y-114234231D01*
X43274118Y-114130548D01*
X43272254Y-114127069D01*
X43259939Y-114102196D01*
X43249300Y-114087070D01*
X43246334Y-114082427D01*
X43204672Y-114010266D01*
X43126178Y-113911837D01*
X43123973Y-113908893D01*
X43107779Y-113885870D01*
X43107774Y-113885864D01*
X43096301Y-113873942D01*
X43092500Y-113869605D01*
X43043428Y-113808071D01*
X43043425Y-113808068D01*
X42946386Y-113718029D01*
X42943885Y-113715572D01*
X42924379Y-113695304D01*
X42924371Y-113695298D01*
X42912840Y-113686507D01*
X42908255Y-113682648D01*
X42853848Y-113632166D01*
X42738728Y-113553679D01*
X42736088Y-113551775D01*
X42714034Y-113534964D01*
X42714035Y-113534964D01*
X42703147Y-113529042D01*
X42697841Y-113525802D01*
X42640176Y-113486487D01*
X42640168Y-113486482D01*
X42507891Y-113422781D01*
X42505175Y-113421389D01*
X42481682Y-113408615D01*
X42472099Y-113405172D01*
X42466157Y-113402682D01*
X42407163Y-113374274D01*
X42259047Y-113328585D01*
X42256366Y-113327691D01*
X42232774Y-113319218D01*
X42232776Y-113319218D01*
X42232766Y-113319215D01*
X42232762Y-113319214D01*
X42232755Y-113319212D01*
X42224997Y-113317707D01*
X42218532Y-113316088D01*
X42160030Y-113298043D01*
X41996535Y-113273401D01*
X41992707Y-113272658D01*
X41973120Y-113268860D01*
X41973118Y-113268859D01*
X41973114Y-113268859D01*
X41967558Y-113268646D01*
X41960697Y-113267999D01*
X41904314Y-113259500D01*
X41904308Y-113259500D01*
X41728921Y-113259500D01*
X41708832Y-113258730D01*
X41708831Y-113258730D01*
X41705700Y-113259091D01*
X41698591Y-113259500D01*
X41645684Y-113259500D01*
X41460915Y-113287350D01*
X41446096Y-113289061D01*
X41446052Y-113289069D01*
X41445374Y-113289256D01*
X41438223Y-113290770D01*
X41389963Y-113298045D01*
X41389956Y-113298046D01*
X41198586Y-113357076D01*
X41191057Y-113359145D01*
X41187372Y-113360469D01*
X41184708Y-113361357D01*
X41142835Y-113374274D01*
X40909838Y-113486478D01*
X40909837Y-113486479D01*
X40696151Y-113632167D01*
X40506575Y-113808066D01*
X40345328Y-114010266D01*
X40216019Y-114234233D01*
X40121538Y-114474968D01*
X40121532Y-114474987D01*
X40063987Y-114727111D01*
X40063986Y-114727116D01*
X40044662Y-114984995D01*
X40044662Y-114985004D01*
X500Y-114985004D01*
X500Y-93249999D01*
X3757090Y-93249999D01*
X3764756Y-93347408D01*
X3764947Y-93352274D01*
X3764947Y-93374746D01*
X3768461Y-93396943D01*
X3769033Y-93401774D01*
X3774642Y-93473024D01*
X3776701Y-93499186D01*
X3776701Y-93499189D01*
X3776702Y-93499191D01*
X3799510Y-93594195D01*
X3800460Y-93598971D01*
X3803976Y-93621170D01*
X3810921Y-93642542D01*
X3812242Y-93647228D01*
X3835052Y-93742235D01*
X3835054Y-93742241D01*
X3859618Y-93801543D01*
X3872446Y-93832512D01*
X3874127Y-93837070D01*
X3881072Y-93858445D01*
X3891280Y-93878480D01*
X3893318Y-93882901D01*
X3930706Y-93973166D01*
X3981751Y-94056462D01*
X3984130Y-94060710D01*
X3984136Y-94060721D01*
X3994341Y-94080749D01*
X4000688Y-94089485D01*
X4007556Y-94098939D01*
X4010260Y-94102987D01*
X4061305Y-94186283D01*
X4061309Y-94186289D01*
X4124759Y-94260579D01*
X4127763Y-94264390D01*
X4140989Y-94282593D01*
X4156898Y-94298502D01*
X4160191Y-94302065D01*
X4223643Y-94376357D01*
X4297926Y-94439801D01*
X4297932Y-94439806D01*
X4301495Y-94443099D01*
X4317407Y-94459011D01*
X4335613Y-94472238D01*
X4339407Y-94475229D01*
X4413711Y-94538691D01*
X4413713Y-94538692D01*
X4497014Y-94589739D01*
X4501051Y-94592436D01*
X4519251Y-94605659D01*
X4539309Y-94615879D01*
X4543500Y-94618225D01*
X4626834Y-94669293D01*
X4717133Y-94706696D01*
X4721501Y-94708710D01*
X4741551Y-94718926D01*
X4762951Y-94725879D01*
X4767492Y-94727555D01*
X4857764Y-94764947D01*
X4857766Y-94764947D01*
X4857770Y-94764949D01*
X4919790Y-94779838D01*
X4952773Y-94787757D01*
X4957438Y-94789072D01*
X4972872Y-94794087D01*
X4978828Y-94796023D01*
X4978829Y-94796023D01*
X4978832Y-94796024D01*
X5001049Y-94799542D01*
X5005775Y-94800481D01*
X5100814Y-94823299D01*
X5198234Y-94830966D01*
X5203051Y-94831536D01*
X5219801Y-94834189D01*
X5225253Y-94835053D01*
X5247725Y-94835053D01*
X5252591Y-94835244D01*
X5262438Y-94836018D01*
X5350000Y-94842910D01*
X5437561Y-94836018D01*
X5447409Y-94835244D01*
X5452275Y-94835053D01*
X5474743Y-94835053D01*
X5474746Y-94835053D01*
X5496954Y-94831535D01*
X5501756Y-94830966D01*
X5599186Y-94823299D01*
X5694234Y-94800479D01*
X5698906Y-94799549D01*
X5721168Y-94796024D01*
X5742590Y-94789063D01*
X5747209Y-94787761D01*
X5842236Y-94764947D01*
X5932534Y-94727544D01*
X5937023Y-94725887D01*
X5958449Y-94718926D01*
X5978520Y-94708699D01*
X5982861Y-94706698D01*
X6073166Y-94669293D01*
X6156514Y-94618217D01*
X6160686Y-94615881D01*
X6180749Y-94605659D01*
X6198948Y-94592436D01*
X6202964Y-94589752D01*
X6286289Y-94538691D01*
X6360596Y-94475226D01*
X6364376Y-94472245D01*
X6382593Y-94459011D01*
X6398507Y-94443096D01*
X6402048Y-94439822D01*
X6476357Y-94376357D01*
X6539822Y-94302048D01*
X6543096Y-94298507D01*
X6559011Y-94282593D01*
X6572245Y-94264376D01*
X6575226Y-94260596D01*
X6638691Y-94186289D01*
X6689752Y-94102965D01*
X6692443Y-94098939D01*
X6705659Y-94080749D01*
X6715881Y-94060686D01*
X6718217Y-94056514D01*
X6769293Y-93973166D01*
X6806698Y-93882861D01*
X6808699Y-93878520D01*
X6818926Y-93858449D01*
X6825887Y-93837023D01*
X6827544Y-93832534D01*
X6864947Y-93742236D01*
X6887761Y-93647209D01*
X6889063Y-93642590D01*
X6896024Y-93621168D01*
X6899549Y-93598906D01*
X6900479Y-93594234D01*
X6923299Y-93499186D01*
X6930966Y-93401759D01*
X6931537Y-93396943D01*
X6935053Y-93374746D01*
X6935668Y-93343371D01*
X6935844Y-93339775D01*
X6942910Y-93250000D01*
X6942910Y-93249999D01*
X156157090Y-93249999D01*
X156164756Y-93347408D01*
X156164947Y-93352274D01*
X156164947Y-93374746D01*
X156168461Y-93396943D01*
X156169033Y-93401774D01*
X156174642Y-93473024D01*
X156176701Y-93499186D01*
X156176701Y-93499189D01*
X156176702Y-93499191D01*
X156199510Y-93594195D01*
X156200460Y-93598971D01*
X156203976Y-93621170D01*
X156210921Y-93642542D01*
X156212242Y-93647228D01*
X156235052Y-93742235D01*
X156235054Y-93742241D01*
X156259618Y-93801543D01*
X156272446Y-93832512D01*
X156274127Y-93837070D01*
X156281072Y-93858445D01*
X156291280Y-93878480D01*
X156293318Y-93882901D01*
X156330706Y-93973166D01*
X156381751Y-94056462D01*
X156384130Y-94060710D01*
X156384136Y-94060721D01*
X156394341Y-94080749D01*
X156400688Y-94089485D01*
X156407556Y-94098939D01*
X156410260Y-94102987D01*
X156461305Y-94186283D01*
X156461309Y-94186289D01*
X156524759Y-94260579D01*
X156527763Y-94264390D01*
X156540989Y-94282593D01*
X156556898Y-94298502D01*
X156560191Y-94302065D01*
X156623643Y-94376357D01*
X156697926Y-94439801D01*
X156697932Y-94439806D01*
X156701495Y-94443099D01*
X156717407Y-94459011D01*
X156735613Y-94472238D01*
X156739407Y-94475229D01*
X156813711Y-94538691D01*
X156813713Y-94538692D01*
X156897014Y-94589739D01*
X156901051Y-94592436D01*
X156919251Y-94605659D01*
X156939309Y-94615879D01*
X156943500Y-94618225D01*
X157026834Y-94669293D01*
X157117133Y-94706696D01*
X157121501Y-94708710D01*
X157141551Y-94718926D01*
X157162951Y-94725879D01*
X157167492Y-94727555D01*
X157257764Y-94764947D01*
X157257766Y-94764947D01*
X157257770Y-94764949D01*
X157319790Y-94779838D01*
X157352773Y-94787757D01*
X157357438Y-94789072D01*
X157372872Y-94794087D01*
X157378828Y-94796023D01*
X157378829Y-94796023D01*
X157378832Y-94796024D01*
X157401049Y-94799542D01*
X157405775Y-94800481D01*
X157500814Y-94823299D01*
X157598234Y-94830966D01*
X157603051Y-94831536D01*
X157619801Y-94834189D01*
X157625253Y-94835053D01*
X157647725Y-94835053D01*
X157652591Y-94835244D01*
X157662438Y-94836018D01*
X157750000Y-94842910D01*
X157837561Y-94836018D01*
X157847409Y-94835244D01*
X157852275Y-94835053D01*
X157874743Y-94835053D01*
X157874746Y-94835053D01*
X157896954Y-94831535D01*
X157901756Y-94830966D01*
X157999186Y-94823299D01*
X158094234Y-94800479D01*
X158098906Y-94799549D01*
X158121168Y-94796024D01*
X158142590Y-94789063D01*
X158147209Y-94787761D01*
X158242236Y-94764947D01*
X158332534Y-94727544D01*
X158337023Y-94725887D01*
X158358449Y-94718926D01*
X158378520Y-94708699D01*
X158382861Y-94706698D01*
X158473166Y-94669293D01*
X158556514Y-94618217D01*
X158560686Y-94615881D01*
X158580749Y-94605659D01*
X158598948Y-94592436D01*
X158602964Y-94589752D01*
X158686289Y-94538691D01*
X158760596Y-94475226D01*
X158764376Y-94472245D01*
X158782593Y-94459011D01*
X158798507Y-94443096D01*
X158802048Y-94439822D01*
X158876357Y-94376357D01*
X158939822Y-94302048D01*
X158943096Y-94298507D01*
X158959011Y-94282593D01*
X158972245Y-94264376D01*
X158975226Y-94260596D01*
X159038691Y-94186289D01*
X159089752Y-94102965D01*
X159092443Y-94098939D01*
X159105659Y-94080749D01*
X159115881Y-94060686D01*
X159118217Y-94056514D01*
X159169293Y-93973166D01*
X159206698Y-93882861D01*
X159208699Y-93878520D01*
X159218926Y-93858449D01*
X159225887Y-93837023D01*
X159227544Y-93832534D01*
X159264947Y-93742236D01*
X159287761Y-93647209D01*
X159289063Y-93642590D01*
X159296024Y-93621168D01*
X159299549Y-93598906D01*
X159300479Y-93594234D01*
X159323299Y-93499186D01*
X159330966Y-93401759D01*
X159331537Y-93396943D01*
X159335053Y-93374746D01*
X159335668Y-93343371D01*
X159335844Y-93339775D01*
X159342910Y-93250000D01*
X159335844Y-93160227D01*
X159335668Y-93156624D01*
X159335053Y-93125254D01*
X159331537Y-93103054D01*
X159330965Y-93098227D01*
X159323299Y-93000814D01*
X159300481Y-92905775D01*
X159299542Y-92901049D01*
X159296024Y-92878832D01*
X159289072Y-92857438D01*
X159287757Y-92852773D01*
X159279838Y-92819790D01*
X159264949Y-92757770D01*
X159264944Y-92757758D01*
X159227555Y-92667492D01*
X159225874Y-92662936D01*
X159218926Y-92641551D01*
X159208710Y-92621501D01*
X159206696Y-92617133D01*
X159169293Y-92526834D01*
X159118225Y-92443500D01*
X159115879Y-92439309D01*
X159105659Y-92419251D01*
X159092436Y-92401051D01*
X159089739Y-92397014D01*
X159038691Y-92313711D01*
X158975229Y-92239407D01*
X158972238Y-92235613D01*
X158959011Y-92217407D01*
X158943099Y-92201495D01*
X158939806Y-92197932D01*
X158939801Y-92197926D01*
X158876357Y-92123643D01*
X158802065Y-92060191D01*
X158798499Y-92056895D01*
X158782593Y-92040989D01*
X158764390Y-92027763D01*
X158760579Y-92024759D01*
X158760578Y-92024758D01*
X158686289Y-91961309D01*
X158686283Y-91961305D01*
X158602987Y-91910260D01*
X158598939Y-91907556D01*
X158589485Y-91900688D01*
X158580749Y-91894341D01*
X158572057Y-91889912D01*
X158560710Y-91884130D01*
X158556462Y-91881751D01*
X158473166Y-91830706D01*
X158382901Y-91793318D01*
X158378480Y-91791280D01*
X158372054Y-91788006D01*
X158358449Y-91781074D01*
X158358446Y-91781073D01*
X158358444Y-91781072D01*
X158358445Y-91781072D01*
X158337070Y-91774127D01*
X158332512Y-91772446D01*
X158301543Y-91759618D01*
X158242241Y-91735054D01*
X158242235Y-91735052D01*
X158147228Y-91712242D01*
X158142542Y-91710921D01*
X158121170Y-91703976D01*
X158098971Y-91700460D01*
X158094195Y-91699510D01*
X157999191Y-91676702D01*
X157999189Y-91676701D01*
X157999186Y-91676701D01*
X157973024Y-91674642D01*
X157901774Y-91669033D01*
X157896943Y-91668461D01*
X157874746Y-91664947D01*
X157852275Y-91664947D01*
X157847409Y-91664756D01*
X157750000Y-91657090D01*
X157652591Y-91664756D01*
X157647725Y-91664947D01*
X157625255Y-91664947D01*
X157625254Y-91664947D01*
X157623088Y-91665290D01*
X157603058Y-91668461D01*
X157598227Y-91669033D01*
X157500811Y-91676701D01*
X157500806Y-91676702D01*
X157405804Y-91699510D01*
X157401029Y-91700460D01*
X157378828Y-91703976D01*
X157357451Y-91710922D01*
X157352767Y-91712243D01*
X157257767Y-91735052D01*
X157257758Y-91735055D01*
X157167501Y-91772440D01*
X157162936Y-91774124D01*
X157141562Y-91781069D01*
X157141545Y-91781076D01*
X157121517Y-91791280D01*
X157117097Y-91793318D01*
X157026841Y-91830703D01*
X157026829Y-91830709D01*
X156943531Y-91881754D01*
X156939285Y-91884132D01*
X156919253Y-91894339D01*
X156919244Y-91894345D01*
X156901057Y-91907557D01*
X156897013Y-91910259D01*
X156813708Y-91961311D01*
X156739420Y-92024758D01*
X156735598Y-92027771D01*
X156717414Y-92040982D01*
X156717408Y-92040987D01*
X156701498Y-92056895D01*
X156697926Y-92060197D01*
X156623642Y-92123642D01*
X156560197Y-92197926D01*
X156556895Y-92201498D01*
X156540987Y-92217408D01*
X156540982Y-92217414D01*
X156527771Y-92235598D01*
X156524758Y-92239420D01*
X156461311Y-92313708D01*
X156410259Y-92397013D01*
X156407557Y-92401057D01*
X156394345Y-92419244D01*
X156394339Y-92419253D01*
X156384132Y-92439285D01*
X156381754Y-92443531D01*
X156330709Y-92526829D01*
X156330703Y-92526841D01*
X156293318Y-92617097D01*
X156291280Y-92621517D01*
X156281076Y-92641545D01*
X156281069Y-92641562D01*
X156274124Y-92662936D01*
X156272440Y-92667501D01*
X156235055Y-92757758D01*
X156235052Y-92757767D01*
X156212243Y-92852767D01*
X156210922Y-92857451D01*
X156203976Y-92878828D01*
X156200460Y-92901029D01*
X156199510Y-92905804D01*
X156176702Y-93000806D01*
X156176701Y-93000811D01*
X156169033Y-93098227D01*
X156168461Y-93103058D01*
X156164947Y-93125254D01*
X156164947Y-93147725D01*
X156164756Y-93152591D01*
X156157090Y-93249999D01*
X6942910Y-93249999D01*
X6935844Y-93160227D01*
X6935668Y-93156624D01*
X6935053Y-93125254D01*
X6931537Y-93103054D01*
X6930965Y-93098227D01*
X6923299Y-93000814D01*
X6900481Y-92905775D01*
X6899542Y-92901049D01*
X6896024Y-92878832D01*
X6889072Y-92857438D01*
X6887757Y-92852773D01*
X6879838Y-92819790D01*
X6864949Y-92757770D01*
X6864944Y-92757758D01*
X6827555Y-92667492D01*
X6825874Y-92662936D01*
X6818926Y-92641551D01*
X6808710Y-92621501D01*
X6806696Y-92617133D01*
X6769293Y-92526834D01*
X6718225Y-92443500D01*
X6715879Y-92439309D01*
X6705659Y-92419251D01*
X6692436Y-92401051D01*
X6689739Y-92397014D01*
X6638691Y-92313711D01*
X6575229Y-92239407D01*
X6572238Y-92235613D01*
X6559011Y-92217407D01*
X6543099Y-92201495D01*
X6539806Y-92197932D01*
X6539801Y-92197926D01*
X6476357Y-92123643D01*
X6402065Y-92060191D01*
X6398499Y-92056895D01*
X6382593Y-92040989D01*
X6364390Y-92027763D01*
X6360579Y-92024759D01*
X6360578Y-92024758D01*
X6286289Y-91961309D01*
X6286283Y-91961305D01*
X6202987Y-91910260D01*
X6198939Y-91907556D01*
X6189485Y-91900688D01*
X6180749Y-91894341D01*
X6172057Y-91889912D01*
X6160710Y-91884130D01*
X6156462Y-91881751D01*
X6073166Y-91830706D01*
X5982901Y-91793318D01*
X5978480Y-91791280D01*
X5972054Y-91788006D01*
X5958449Y-91781074D01*
X5958446Y-91781073D01*
X5958444Y-91781072D01*
X5958445Y-91781072D01*
X5937070Y-91774127D01*
X5932512Y-91772446D01*
X5901543Y-91759618D01*
X5842241Y-91735054D01*
X5842235Y-91735052D01*
X5747228Y-91712242D01*
X5742542Y-91710921D01*
X5721170Y-91703976D01*
X5698971Y-91700460D01*
X5694195Y-91699510D01*
X5599191Y-91676702D01*
X5599189Y-91676701D01*
X5599186Y-91676701D01*
X5573024Y-91674642D01*
X5501774Y-91669033D01*
X5496943Y-91668461D01*
X5474746Y-91664947D01*
X5452275Y-91664947D01*
X5447409Y-91664756D01*
X5350000Y-91657090D01*
X5252591Y-91664756D01*
X5247725Y-91664947D01*
X5225255Y-91664947D01*
X5225254Y-91664947D01*
X5223088Y-91665290D01*
X5203058Y-91668461D01*
X5198227Y-91669033D01*
X5100811Y-91676701D01*
X5100806Y-91676702D01*
X5005804Y-91699510D01*
X5001029Y-91700460D01*
X4978828Y-91703976D01*
X4957451Y-91710922D01*
X4952767Y-91712243D01*
X4857767Y-91735052D01*
X4857758Y-91735055D01*
X4767501Y-91772440D01*
X4762936Y-91774124D01*
X4741562Y-91781069D01*
X4741545Y-91781076D01*
X4721517Y-91791280D01*
X4717097Y-91793318D01*
X4626841Y-91830703D01*
X4626829Y-91830709D01*
X4543531Y-91881754D01*
X4539285Y-91884132D01*
X4519253Y-91894339D01*
X4519244Y-91894345D01*
X4501057Y-91907557D01*
X4497013Y-91910259D01*
X4413708Y-91961311D01*
X4339420Y-92024758D01*
X4335598Y-92027771D01*
X4317414Y-92040982D01*
X4317408Y-92040987D01*
X4301498Y-92056895D01*
X4297926Y-92060197D01*
X4223642Y-92123642D01*
X4160197Y-92197926D01*
X4156895Y-92201498D01*
X4140987Y-92217408D01*
X4140982Y-92217414D01*
X4127771Y-92235598D01*
X4124758Y-92239420D01*
X4061311Y-92313708D01*
X4010259Y-92397013D01*
X4007557Y-92401057D01*
X3994345Y-92419244D01*
X3994339Y-92419253D01*
X3984132Y-92439285D01*
X3981754Y-92443531D01*
X3930709Y-92526829D01*
X3930703Y-92526841D01*
X3893318Y-92617097D01*
X3891280Y-92621517D01*
X3881076Y-92641545D01*
X3881069Y-92641562D01*
X3874124Y-92662936D01*
X3872440Y-92667501D01*
X3835055Y-92757758D01*
X3835052Y-92757767D01*
X3812243Y-92852767D01*
X3810922Y-92857451D01*
X3803976Y-92878828D01*
X3800460Y-92901029D01*
X3799510Y-92905804D01*
X3776702Y-93000806D01*
X3776701Y-93000811D01*
X3769033Y-93098227D01*
X3768461Y-93103058D01*
X3764947Y-93125254D01*
X3764947Y-93147725D01*
X3764756Y-93152591D01*
X3757090Y-93249999D01*
X500Y-93249999D01*
X500Y-84000000D01*
X78991752Y-84000000D01*
X78999697Y-84126290D01*
X78999819Y-84130162D01*
X78999819Y-84160456D01*
X79003613Y-84190484D01*
X79003980Y-84194362D01*
X79011923Y-84320622D01*
X79011924Y-84320629D01*
X79035634Y-84444923D01*
X79036243Y-84448770D01*
X79040035Y-84478795D01*
X79040036Y-84478797D01*
X79047562Y-84508116D01*
X79048411Y-84511915D01*
X79072123Y-84636207D01*
X79072124Y-84636211D01*
X79111217Y-84756527D01*
X79112303Y-84760266D01*
X79119836Y-84789603D01*
X79130983Y-84817761D01*
X79132302Y-84821424D01*
X79171400Y-84941752D01*
X79171404Y-84941762D01*
X79194521Y-84990887D01*
X79225280Y-85056253D01*
X79226816Y-85059802D01*
X79237966Y-85087964D01*
X79252555Y-85114502D01*
X79254323Y-85117972D01*
X79308190Y-85232445D01*
X79308192Y-85232448D01*
X79308193Y-85232450D01*
X79375981Y-85339268D01*
X79377964Y-85342621D01*
X79392553Y-85369157D01*
X79410357Y-85393663D01*
X79412546Y-85396884D01*
X79480330Y-85503694D01*
X79480334Y-85503700D01*
X79560983Y-85601189D01*
X79563360Y-85604253D01*
X79581164Y-85628759D01*
X79601900Y-85650840D01*
X79604476Y-85653763D01*
X79685117Y-85751241D01*
X79777360Y-85837863D01*
X79780086Y-85840589D01*
X79800827Y-85862676D01*
X79800830Y-85862679D01*
X79824156Y-85881976D01*
X79827073Y-85884547D01*
X79919311Y-85971164D01*
X79919314Y-85971166D01*
X80021671Y-86045534D01*
X80024748Y-86047920D01*
X80048077Y-86067219D01*
X80073644Y-86083444D01*
X80076847Y-86085621D01*
X80179222Y-86160000D01*
X80290110Y-86220961D01*
X80293441Y-86222931D01*
X80319012Y-86239159D01*
X80319017Y-86239161D01*
X80319020Y-86239163D01*
X80329389Y-86244042D01*
X80346410Y-86252052D01*
X80349866Y-86253812D01*
X80460751Y-86314772D01*
X80460750Y-86314772D01*
X80498193Y-86329596D01*
X80578399Y-86361352D01*
X80581925Y-86362877D01*
X80609359Y-86375787D01*
X80638182Y-86385152D01*
X80641808Y-86386457D01*
X80759458Y-86433038D01*
X80882022Y-86464507D01*
X80885730Y-86465584D01*
X80914542Y-86474946D01*
X80944303Y-86480623D01*
X80948050Y-86481460D01*
X81070632Y-86512934D01*
X81196147Y-86528790D01*
X81199986Y-86529398D01*
X81202732Y-86529921D01*
X81229746Y-86535075D01*
X81260002Y-86536978D01*
X81263815Y-86537339D01*
X81389366Y-86553200D01*
X81515886Y-86553200D01*
X81519757Y-86553321D01*
X81545661Y-86554951D01*
X81549998Y-86555224D01*
X81550000Y-86555224D01*
X81550002Y-86555224D01*
X81554338Y-86554951D01*
X81580242Y-86553321D01*
X81584114Y-86553200D01*
X81710634Y-86553200D01*
X81836193Y-86537337D01*
X81839988Y-86536979D01*
X81870254Y-86535075D01*
X81900027Y-86529395D01*
X81903819Y-86528794D01*
X82029368Y-86512934D01*
X82151966Y-86481456D01*
X82155655Y-86480631D01*
X82185458Y-86474946D01*
X82214268Y-86465584D01*
X82217978Y-86464507D01*
X82340542Y-86433038D01*
X82458224Y-86386444D01*
X82461785Y-86385162D01*
X82490641Y-86375787D01*
X82518081Y-86362874D01*
X82521593Y-86361354D01*
X82639249Y-86314772D01*
X82750171Y-86253791D01*
X82753563Y-86252064D01*
X82780988Y-86239159D01*
X82806599Y-86222905D01*
X82809831Y-86220993D01*
X82920778Y-86160000D01*
X83023164Y-86085612D01*
X83026316Y-86083469D01*
X83051923Y-86067219D01*
X83075268Y-86047906D01*
X83078327Y-86045534D01*
X83180689Y-85971164D01*
X83272935Y-85884538D01*
X83275818Y-85881996D01*
X83299171Y-85862678D01*
X83319944Y-85840556D01*
X83322622Y-85837879D01*
X83414883Y-85751241D01*
X83495560Y-85653718D01*
X83498066Y-85650875D01*
X83518834Y-85628761D01*
X83536675Y-85604203D01*
X83538976Y-85601236D01*
X83619666Y-85503700D01*
X83687467Y-85396861D01*
X83689625Y-85393686D01*
X83707447Y-85369157D01*
X83722054Y-85342585D01*
X83724018Y-85339268D01*
X83791810Y-85232445D01*
X83845708Y-85117904D01*
X83847433Y-85114520D01*
X83862035Y-85087961D01*
X83873207Y-85059743D01*
X83874702Y-85056290D01*
X83928599Y-84941754D01*
X83967709Y-84821382D01*
X83969002Y-84817792D01*
X83980162Y-84789607D01*
X83987693Y-84760272D01*
X83988771Y-84756562D01*
X84027876Y-84636210D01*
X84051588Y-84511901D01*
X84052421Y-84508172D01*
X84059963Y-84478801D01*
X84063767Y-84448686D01*
X84064353Y-84444988D01*
X84088075Y-84320633D01*
X84088075Y-84320629D01*
X84088076Y-84320626D01*
X84089867Y-84292148D01*
X84096022Y-84194310D01*
X84096380Y-84190530D01*
X84100181Y-84160444D01*
X84100832Y-84118932D01*
X84100945Y-84116064D01*
X84108248Y-84000000D01*
X84100945Y-83883939D01*
X84100832Y-83881047D01*
X84100181Y-83839556D01*
X84096380Y-83809472D01*
X84096022Y-83805686D01*
X84088076Y-83679377D01*
X84088076Y-83679373D01*
X84088074Y-83679360D01*
X84083918Y-83657579D01*
X84064357Y-83555033D01*
X84063764Y-83551291D01*
X84059963Y-83521199D01*
X84052429Y-83491857D01*
X84051586Y-83488083D01*
X84050466Y-83482213D01*
X84027876Y-83363790D01*
X83988777Y-83243455D01*
X83987690Y-83239714D01*
X83980162Y-83210394D01*
X83980161Y-83210390D01*
X83969017Y-83182245D01*
X83967699Y-83178585D01*
X83928599Y-83058247D01*
X83928599Y-83058245D01*
X83909265Y-83017159D01*
X83874716Y-82943739D01*
X83873178Y-82940184D01*
X83873175Y-82940177D01*
X83862035Y-82912039D01*
X83847441Y-82885492D01*
X83845690Y-82882057D01*
X83791810Y-82767555D01*
X83724008Y-82660716D01*
X83722045Y-82657397D01*
X83707447Y-82630843D01*
X83689644Y-82606339D01*
X83687455Y-82603118D01*
X83619669Y-82496305D01*
X83619666Y-82496300D01*
X83539000Y-82398791D01*
X83536659Y-82395773D01*
X83518834Y-82371239D01*
X83518829Y-82371233D01*
X83498099Y-82349158D01*
X83495522Y-82346235D01*
X83479830Y-82327266D01*
X83414883Y-82248759D01*
X83414880Y-82248756D01*
X83322655Y-82162150D01*
X83319900Y-82159396D01*
X83317551Y-82156894D01*
X83299171Y-82137322D01*
X83275834Y-82118016D01*
X83272920Y-82115447D01*
X83180692Y-82028839D01*
X83180689Y-82028836D01*
X83180685Y-82028833D01*
X83078328Y-81954465D01*
X83075251Y-81952079D01*
X83065749Y-81944219D01*
X83051923Y-81932781D01*
X83026360Y-81916558D01*
X83026346Y-81916549D01*
X83023140Y-81914370D01*
X82920778Y-81840000D01*
X82809882Y-81779034D01*
X82806570Y-81777075D01*
X82780988Y-81760841D01*
X82780978Y-81760836D01*
X82766659Y-81754098D01*
X82753581Y-81747944D01*
X82750124Y-81746182D01*
X82639248Y-81685227D01*
X82639245Y-81685226D01*
X82521617Y-81638653D01*
X82518042Y-81637106D01*
X82490649Y-81624216D01*
X82490634Y-81624210D01*
X82461828Y-81614851D01*
X82458163Y-81613531D01*
X82340543Y-81566962D01*
X82217997Y-81535497D01*
X82214257Y-81534410D01*
X82185464Y-81525055D01*
X82155702Y-81519377D01*
X82151919Y-81518531D01*
X82029368Y-81487066D01*
X82029367Y-81487065D01*
X82029364Y-81487065D01*
X81903848Y-81471208D01*
X81900002Y-81470599D01*
X81870262Y-81464926D01*
X81870239Y-81464923D01*
X81840030Y-81463023D01*
X81836152Y-81462656D01*
X81710645Y-81446800D01*
X81710634Y-81446800D01*
X81584100Y-81446800D01*
X81580227Y-81446678D01*
X81554463Y-81445057D01*
X81550002Y-81444777D01*
X81549998Y-81444777D01*
X81545536Y-81445057D01*
X81519772Y-81446678D01*
X81515900Y-81446800D01*
X81389354Y-81446800D01*
X81263846Y-81462656D01*
X81259968Y-81463023D01*
X81229750Y-81464924D01*
X81199996Y-81470598D01*
X81196152Y-81471207D01*
X81070634Y-81487065D01*
X80988612Y-81508125D01*
X80948077Y-81518532D01*
X80944284Y-81519380D01*
X80914540Y-81525054D01*
X80914539Y-81525054D01*
X80885745Y-81534410D01*
X80882006Y-81535496D01*
X80759462Y-81566960D01*
X80641840Y-81613529D01*
X80638177Y-81614848D01*
X80609365Y-81624210D01*
X80609349Y-81624216D01*
X80581947Y-81637110D01*
X80578374Y-81638656D01*
X80460759Y-81685224D01*
X80460753Y-81685226D01*
X80460751Y-81685228D01*
X80432204Y-81700921D01*
X80349885Y-81746176D01*
X80346416Y-81747944D01*
X80319018Y-81760836D01*
X80319011Y-81760841D01*
X80293460Y-81777056D01*
X80290108Y-81779038D01*
X80179225Y-81839997D01*
X80179223Y-81839999D01*
X80076858Y-81914370D01*
X80073639Y-81916558D01*
X80048077Y-81932780D01*
X80024742Y-81952083D01*
X80021667Y-81954469D01*
X79919313Y-82028833D01*
X79919305Y-82028839D01*
X79827074Y-82115449D01*
X79824155Y-82118023D01*
X79800829Y-82137321D01*
X79800827Y-82137323D01*
X79780099Y-82159396D01*
X79777346Y-82162149D01*
X79685116Y-82248759D01*
X79685113Y-82248762D01*
X79604478Y-82346233D01*
X79601904Y-82349153D01*
X79581168Y-82371235D01*
X79581167Y-82371236D01*
X79563365Y-82395740D01*
X79560977Y-82398819D01*
X79480338Y-82496294D01*
X79480333Y-82496301D01*
X79412543Y-82603119D01*
X79410354Y-82606339D01*
X79392557Y-82630835D01*
X79392554Y-82630840D01*
X79377963Y-82657380D01*
X79375981Y-82660731D01*
X79308191Y-82767552D01*
X79308191Y-82767553D01*
X79254316Y-82882040D01*
X79252549Y-82885509D01*
X79237965Y-82912037D01*
X79226823Y-82940177D01*
X79225277Y-82943750D01*
X79171401Y-83058243D01*
X79171400Y-83058247D01*
X79132299Y-83178585D01*
X79130980Y-83182249D01*
X79119839Y-83210389D01*
X79119837Y-83210396D01*
X79112305Y-83239724D01*
X79111220Y-83243459D01*
X79072123Y-83363794D01*
X79048415Y-83488071D01*
X79047566Y-83491869D01*
X79040036Y-83521201D01*
X79036243Y-83551229D01*
X79035634Y-83555076D01*
X79011924Y-83679367D01*
X79011923Y-83679377D01*
X79003980Y-83805636D01*
X79003613Y-83809514D01*
X78999820Y-83839541D01*
X78999819Y-83839557D01*
X78999819Y-83869836D01*
X78999697Y-83873711D01*
X78991752Y-84000000D01*
X500Y-84000000D01*
X500Y-67849999D01*
X3757090Y-67849999D01*
X3764756Y-67947408D01*
X3764947Y-67952274D01*
X3764947Y-67974746D01*
X3768461Y-67996943D01*
X3769033Y-68001774D01*
X3774642Y-68073024D01*
X3776701Y-68099186D01*
X3776701Y-68099189D01*
X3776702Y-68099191D01*
X3799510Y-68194195D01*
X3800460Y-68198971D01*
X3803976Y-68221170D01*
X3810921Y-68242542D01*
X3812242Y-68247228D01*
X3835052Y-68342235D01*
X3835054Y-68342241D01*
X3859618Y-68401543D01*
X3872446Y-68432512D01*
X3874127Y-68437070D01*
X3881072Y-68458445D01*
X3891280Y-68478480D01*
X3893318Y-68482901D01*
X3930706Y-68573166D01*
X3981751Y-68656462D01*
X3984130Y-68660710D01*
X3984136Y-68660721D01*
X3994341Y-68680749D01*
X4000688Y-68689485D01*
X4007556Y-68698939D01*
X4010260Y-68702987D01*
X4061305Y-68786283D01*
X4061309Y-68786289D01*
X4124759Y-68860579D01*
X4127763Y-68864390D01*
X4140989Y-68882593D01*
X4156898Y-68898502D01*
X4160191Y-68902065D01*
X4223643Y-68976357D01*
X4297926Y-69039801D01*
X4297932Y-69039806D01*
X4301495Y-69043099D01*
X4317407Y-69059011D01*
X4335613Y-69072238D01*
X4339407Y-69075229D01*
X4413711Y-69138691D01*
X4413713Y-69138692D01*
X4497014Y-69189739D01*
X4501051Y-69192436D01*
X4519251Y-69205659D01*
X4539309Y-69215879D01*
X4543500Y-69218225D01*
X4626834Y-69269293D01*
X4717133Y-69306696D01*
X4721501Y-69308710D01*
X4741551Y-69318926D01*
X4762951Y-69325879D01*
X4767492Y-69327555D01*
X4857764Y-69364947D01*
X4857766Y-69364947D01*
X4857770Y-69364949D01*
X4919790Y-69379838D01*
X4952773Y-69387757D01*
X4957438Y-69389072D01*
X4972872Y-69394087D01*
X4978828Y-69396023D01*
X4978829Y-69396023D01*
X4978832Y-69396024D01*
X5001049Y-69399542D01*
X5005775Y-69400481D01*
X5100814Y-69423299D01*
X5198234Y-69430966D01*
X5203051Y-69431536D01*
X5219801Y-69434189D01*
X5225253Y-69435053D01*
X5247725Y-69435053D01*
X5252591Y-69435244D01*
X5262438Y-69436018D01*
X5350000Y-69442910D01*
X5437561Y-69436018D01*
X5447409Y-69435244D01*
X5452275Y-69435053D01*
X5474743Y-69435053D01*
X5474746Y-69435053D01*
X5496954Y-69431535D01*
X5501756Y-69430966D01*
X5599186Y-69423299D01*
X5694234Y-69400479D01*
X5698906Y-69399549D01*
X5721168Y-69396024D01*
X5742590Y-69389063D01*
X5747209Y-69387761D01*
X5842236Y-69364947D01*
X5932534Y-69327544D01*
X5937023Y-69325887D01*
X5958449Y-69318926D01*
X5978520Y-69308699D01*
X5982861Y-69306698D01*
X6073166Y-69269293D01*
X6156514Y-69218217D01*
X6160686Y-69215881D01*
X6180749Y-69205659D01*
X6198948Y-69192436D01*
X6202964Y-69189752D01*
X6286289Y-69138691D01*
X6360596Y-69075226D01*
X6364376Y-69072245D01*
X6382593Y-69059011D01*
X6398507Y-69043096D01*
X6402048Y-69039822D01*
X6476357Y-68976357D01*
X6539822Y-68902048D01*
X6543096Y-68898507D01*
X6559011Y-68882593D01*
X6572245Y-68864376D01*
X6575226Y-68860596D01*
X6638691Y-68786289D01*
X6689752Y-68702965D01*
X6692443Y-68698939D01*
X6705659Y-68680749D01*
X6715881Y-68660686D01*
X6718217Y-68656514D01*
X6769293Y-68573166D01*
X6806698Y-68482861D01*
X6808699Y-68478520D01*
X6818926Y-68458449D01*
X6825887Y-68437023D01*
X6827544Y-68432534D01*
X6864947Y-68342236D01*
X6887761Y-68247209D01*
X6889063Y-68242590D01*
X6896024Y-68221168D01*
X6899549Y-68198906D01*
X6900479Y-68194234D01*
X6923299Y-68099186D01*
X6930966Y-68001759D01*
X6931537Y-67996943D01*
X6935053Y-67974746D01*
X6935668Y-67943371D01*
X6935844Y-67939775D01*
X6942910Y-67850000D01*
X6942910Y-67849999D01*
X156157090Y-67849999D01*
X156164756Y-67947408D01*
X156164947Y-67952274D01*
X156164947Y-67974746D01*
X156168461Y-67996943D01*
X156169033Y-68001774D01*
X156174642Y-68073024D01*
X156176701Y-68099186D01*
X156176701Y-68099189D01*
X156176702Y-68099191D01*
X156199510Y-68194195D01*
X156200460Y-68198971D01*
X156203976Y-68221170D01*
X156210921Y-68242542D01*
X156212242Y-68247228D01*
X156235052Y-68342235D01*
X156235054Y-68342241D01*
X156259618Y-68401543D01*
X156272446Y-68432512D01*
X156274127Y-68437070D01*
X156281072Y-68458445D01*
X156291280Y-68478480D01*
X156293318Y-68482901D01*
X156330706Y-68573166D01*
X156381751Y-68656462D01*
X156384130Y-68660710D01*
X156384136Y-68660721D01*
X156394341Y-68680749D01*
X156400688Y-68689485D01*
X156407556Y-68698939D01*
X156410260Y-68702987D01*
X156461305Y-68786283D01*
X156461309Y-68786289D01*
X156524759Y-68860579D01*
X156527763Y-68864390D01*
X156540989Y-68882593D01*
X156556898Y-68898502D01*
X156560191Y-68902065D01*
X156623643Y-68976357D01*
X156697926Y-69039801D01*
X156697932Y-69039806D01*
X156701495Y-69043099D01*
X156717407Y-69059011D01*
X156735613Y-69072238D01*
X156739407Y-69075229D01*
X156813711Y-69138691D01*
X156813713Y-69138692D01*
X156897014Y-69189739D01*
X156901051Y-69192436D01*
X156919251Y-69205659D01*
X156939309Y-69215879D01*
X156943500Y-69218225D01*
X157026834Y-69269293D01*
X157117133Y-69306696D01*
X157121501Y-69308710D01*
X157141551Y-69318926D01*
X157162951Y-69325879D01*
X157167492Y-69327555D01*
X157257764Y-69364947D01*
X157257766Y-69364947D01*
X157257770Y-69364949D01*
X157319790Y-69379838D01*
X157352773Y-69387757D01*
X157357438Y-69389072D01*
X157372872Y-69394087D01*
X157378828Y-69396023D01*
X157378829Y-69396023D01*
X157378832Y-69396024D01*
X157401049Y-69399542D01*
X157405775Y-69400481D01*
X157500814Y-69423299D01*
X157598234Y-69430966D01*
X157603051Y-69431536D01*
X157619801Y-69434189D01*
X157625253Y-69435053D01*
X157647725Y-69435053D01*
X157652591Y-69435244D01*
X157662438Y-69436018D01*
X157750000Y-69442910D01*
X157837561Y-69436018D01*
X157847409Y-69435244D01*
X157852275Y-69435053D01*
X157874743Y-69435053D01*
X157874746Y-69435053D01*
X157896954Y-69431535D01*
X157901756Y-69430966D01*
X157999186Y-69423299D01*
X158094234Y-69400479D01*
X158098906Y-69399549D01*
X158121168Y-69396024D01*
X158142590Y-69389063D01*
X158147209Y-69387761D01*
X158242236Y-69364947D01*
X158332534Y-69327544D01*
X158337023Y-69325887D01*
X158358449Y-69318926D01*
X158378520Y-69308699D01*
X158382861Y-69306698D01*
X158473166Y-69269293D01*
X158556514Y-69218217D01*
X158560686Y-69215881D01*
X158580749Y-69205659D01*
X158598948Y-69192436D01*
X158602964Y-69189752D01*
X158686289Y-69138691D01*
X158760596Y-69075226D01*
X158764376Y-69072245D01*
X158782593Y-69059011D01*
X158798507Y-69043096D01*
X158802048Y-69039822D01*
X158876357Y-68976357D01*
X158939822Y-68902048D01*
X158943096Y-68898507D01*
X158959011Y-68882593D01*
X158972245Y-68864376D01*
X158975226Y-68860596D01*
X159038691Y-68786289D01*
X159089752Y-68702965D01*
X159092443Y-68698939D01*
X159105659Y-68680749D01*
X159115881Y-68660686D01*
X159118217Y-68656514D01*
X159169293Y-68573166D01*
X159206698Y-68482861D01*
X159208699Y-68478520D01*
X159218926Y-68458449D01*
X159225887Y-68437023D01*
X159227544Y-68432534D01*
X159264947Y-68342236D01*
X159287761Y-68247209D01*
X159289063Y-68242590D01*
X159296024Y-68221168D01*
X159299549Y-68198906D01*
X159300479Y-68194234D01*
X159323299Y-68099186D01*
X159330966Y-68001759D01*
X159331537Y-67996943D01*
X159335053Y-67974746D01*
X159335668Y-67943371D01*
X159335844Y-67939775D01*
X159342910Y-67850000D01*
X159335844Y-67760227D01*
X159335668Y-67756624D01*
X159335053Y-67725254D01*
X159331537Y-67703054D01*
X159330965Y-67698227D01*
X159323299Y-67600814D01*
X159300481Y-67505775D01*
X159299542Y-67501049D01*
X159296024Y-67478832D01*
X159289072Y-67457438D01*
X159287757Y-67452773D01*
X159279838Y-67419790D01*
X159264949Y-67357770D01*
X159264944Y-67357758D01*
X159227555Y-67267492D01*
X159225874Y-67262936D01*
X159218926Y-67241551D01*
X159208710Y-67221501D01*
X159206696Y-67217133D01*
X159169293Y-67126834D01*
X159118225Y-67043500D01*
X159115879Y-67039309D01*
X159105659Y-67019251D01*
X159092436Y-67001051D01*
X159089739Y-66997014D01*
X159038691Y-66913711D01*
X158975229Y-66839407D01*
X158972238Y-66835613D01*
X158959011Y-66817407D01*
X158943099Y-66801495D01*
X158939806Y-66797932D01*
X158939801Y-66797926D01*
X158876357Y-66723643D01*
X158802065Y-66660191D01*
X158798499Y-66656895D01*
X158782593Y-66640989D01*
X158764390Y-66627763D01*
X158760579Y-66624759D01*
X158760578Y-66624758D01*
X158686289Y-66561309D01*
X158686283Y-66561305D01*
X158602987Y-66510260D01*
X158598939Y-66507556D01*
X158589485Y-66500688D01*
X158580749Y-66494341D01*
X158572057Y-66489912D01*
X158560710Y-66484130D01*
X158556462Y-66481751D01*
X158473166Y-66430706D01*
X158382901Y-66393318D01*
X158378480Y-66391280D01*
X158372054Y-66388006D01*
X158358449Y-66381074D01*
X158358446Y-66381073D01*
X158358444Y-66381072D01*
X158358445Y-66381072D01*
X158337070Y-66374127D01*
X158332512Y-66372446D01*
X158301543Y-66359618D01*
X158242241Y-66335054D01*
X158242235Y-66335052D01*
X158147228Y-66312242D01*
X158142542Y-66310921D01*
X158121170Y-66303976D01*
X158098971Y-66300460D01*
X158094195Y-66299510D01*
X157999191Y-66276702D01*
X157999189Y-66276701D01*
X157999186Y-66276701D01*
X157973024Y-66274642D01*
X157901774Y-66269033D01*
X157896943Y-66268461D01*
X157874746Y-66264947D01*
X157852275Y-66264947D01*
X157847409Y-66264756D01*
X157750000Y-66257090D01*
X157652591Y-66264756D01*
X157647725Y-66264947D01*
X157625255Y-66264947D01*
X157625254Y-66264947D01*
X157623088Y-66265290D01*
X157603058Y-66268461D01*
X157598227Y-66269033D01*
X157500811Y-66276701D01*
X157500806Y-66276702D01*
X157405804Y-66299510D01*
X157401029Y-66300460D01*
X157378828Y-66303976D01*
X157357451Y-66310922D01*
X157352767Y-66312243D01*
X157257767Y-66335052D01*
X157257758Y-66335055D01*
X157167501Y-66372440D01*
X157162936Y-66374124D01*
X157141562Y-66381069D01*
X157141545Y-66381076D01*
X157121517Y-66391280D01*
X157117097Y-66393318D01*
X157026841Y-66430703D01*
X157026829Y-66430709D01*
X156943531Y-66481754D01*
X156939285Y-66484132D01*
X156919253Y-66494339D01*
X156919244Y-66494345D01*
X156901057Y-66507557D01*
X156897013Y-66510259D01*
X156813708Y-66561311D01*
X156739420Y-66624758D01*
X156735598Y-66627771D01*
X156717414Y-66640982D01*
X156717408Y-66640987D01*
X156701498Y-66656895D01*
X156697926Y-66660197D01*
X156623642Y-66723642D01*
X156560197Y-66797926D01*
X156556895Y-66801498D01*
X156540987Y-66817408D01*
X156540982Y-66817414D01*
X156527771Y-66835598D01*
X156524758Y-66839420D01*
X156461311Y-66913708D01*
X156410259Y-66997013D01*
X156407557Y-67001057D01*
X156394345Y-67019244D01*
X156394339Y-67019253D01*
X156384132Y-67039285D01*
X156381754Y-67043531D01*
X156330709Y-67126829D01*
X156330703Y-67126841D01*
X156293318Y-67217097D01*
X156291280Y-67221517D01*
X156281076Y-67241545D01*
X156281069Y-67241562D01*
X156274124Y-67262936D01*
X156272440Y-67267501D01*
X156235055Y-67357758D01*
X156235052Y-67357767D01*
X156212243Y-67452767D01*
X156210922Y-67457451D01*
X156203976Y-67478828D01*
X156200460Y-67501029D01*
X156199510Y-67505804D01*
X156176702Y-67600806D01*
X156176701Y-67600811D01*
X156169033Y-67698227D01*
X156168461Y-67703058D01*
X156164947Y-67725254D01*
X156164947Y-67747725D01*
X156164756Y-67752591D01*
X156157090Y-67849999D01*
X6942910Y-67849999D01*
X6935844Y-67760227D01*
X6935668Y-67756624D01*
X6935053Y-67725254D01*
X6931537Y-67703054D01*
X6930965Y-67698227D01*
X6923299Y-67600814D01*
X6900481Y-67505775D01*
X6899542Y-67501049D01*
X6896024Y-67478832D01*
X6889072Y-67457438D01*
X6887757Y-67452773D01*
X6879838Y-67419790D01*
X6864949Y-67357770D01*
X6864944Y-67357758D01*
X6827555Y-67267492D01*
X6825874Y-67262936D01*
X6818926Y-67241551D01*
X6808710Y-67221501D01*
X6806696Y-67217133D01*
X6769293Y-67126834D01*
X6718225Y-67043500D01*
X6715879Y-67039309D01*
X6705659Y-67019251D01*
X6692436Y-67001051D01*
X6689739Y-66997014D01*
X6638691Y-66913711D01*
X6575229Y-66839407D01*
X6572238Y-66835613D01*
X6559011Y-66817407D01*
X6543099Y-66801495D01*
X6539806Y-66797932D01*
X6539801Y-66797926D01*
X6476357Y-66723643D01*
X6402065Y-66660191D01*
X6398499Y-66656895D01*
X6382593Y-66640989D01*
X6364390Y-66627763D01*
X6360579Y-66624759D01*
X6360578Y-66624758D01*
X6286289Y-66561309D01*
X6286283Y-66561305D01*
X6202987Y-66510260D01*
X6198939Y-66507556D01*
X6189485Y-66500688D01*
X6180749Y-66494341D01*
X6172057Y-66489912D01*
X6160710Y-66484130D01*
X6156462Y-66481751D01*
X6073166Y-66430706D01*
X5982901Y-66393318D01*
X5978480Y-66391280D01*
X5972054Y-66388006D01*
X5958449Y-66381074D01*
X5958446Y-66381073D01*
X5958444Y-66381072D01*
X5958445Y-66381072D01*
X5937070Y-66374127D01*
X5932512Y-66372446D01*
X5901543Y-66359618D01*
X5842241Y-66335054D01*
X5842235Y-66335052D01*
X5747228Y-66312242D01*
X5742542Y-66310921D01*
X5721170Y-66303976D01*
X5698971Y-66300460D01*
X5694195Y-66299510D01*
X5599191Y-66276702D01*
X5599189Y-66276701D01*
X5599186Y-66276701D01*
X5573024Y-66274642D01*
X5501774Y-66269033D01*
X5496943Y-66268461D01*
X5474746Y-66264947D01*
X5452275Y-66264947D01*
X5447409Y-66264756D01*
X5350000Y-66257090D01*
X5252591Y-66264756D01*
X5247725Y-66264947D01*
X5225255Y-66264947D01*
X5225254Y-66264947D01*
X5223088Y-66265290D01*
X5203058Y-66268461D01*
X5198227Y-66269033D01*
X5100811Y-66276701D01*
X5100806Y-66276702D01*
X5005804Y-66299510D01*
X5001029Y-66300460D01*
X4978828Y-66303976D01*
X4957451Y-66310922D01*
X4952767Y-66312243D01*
X4857767Y-66335052D01*
X4857758Y-66335055D01*
X4767501Y-66372440D01*
X4762936Y-66374124D01*
X4741562Y-66381069D01*
X4741545Y-66381076D01*
X4721517Y-66391280D01*
X4717097Y-66393318D01*
X4626841Y-66430703D01*
X4626829Y-66430709D01*
X4543531Y-66481754D01*
X4539285Y-66484132D01*
X4519253Y-66494339D01*
X4519244Y-66494345D01*
X4501057Y-66507557D01*
X4497013Y-66510259D01*
X4413708Y-66561311D01*
X4339420Y-66624758D01*
X4335598Y-66627771D01*
X4317414Y-66640982D01*
X4317408Y-66640987D01*
X4301498Y-66656895D01*
X4297926Y-66660197D01*
X4223642Y-66723642D01*
X4160197Y-66797926D01*
X4156895Y-66801498D01*
X4140987Y-66817408D01*
X4140982Y-66817414D01*
X4127771Y-66835598D01*
X4124758Y-66839420D01*
X4061311Y-66913708D01*
X4010259Y-66997013D01*
X4007557Y-67001057D01*
X3994345Y-67019244D01*
X3994339Y-67019253D01*
X3984132Y-67039285D01*
X3981754Y-67043531D01*
X3930709Y-67126829D01*
X3930703Y-67126841D01*
X3893318Y-67217097D01*
X3891280Y-67221517D01*
X3881076Y-67241545D01*
X3881069Y-67241562D01*
X3874124Y-67262936D01*
X3872440Y-67267501D01*
X3835055Y-67357758D01*
X3835052Y-67357767D01*
X3812243Y-67452767D01*
X3810922Y-67457451D01*
X3803976Y-67478828D01*
X3800460Y-67501029D01*
X3799510Y-67505804D01*
X3776702Y-67600806D01*
X3776701Y-67600811D01*
X3769033Y-67698227D01*
X3768461Y-67703058D01*
X3764947Y-67725254D01*
X3764947Y-67747725D01*
X3764756Y-67752591D01*
X3757090Y-67849999D01*
X500Y-67849999D01*
X500Y-42450000D01*
X3757090Y-42450000D01*
X3759844Y-42484989D01*
X3764756Y-42547408D01*
X3764947Y-42552274D01*
X3764947Y-42574746D01*
X3768461Y-42596943D01*
X3769033Y-42601774D01*
X3774642Y-42673024D01*
X3776701Y-42699186D01*
X3776701Y-42699189D01*
X3776702Y-42699191D01*
X3799510Y-42794195D01*
X3800460Y-42798971D01*
X3803976Y-42821170D01*
X3810921Y-42842542D01*
X3812242Y-42847228D01*
X3835052Y-42942235D01*
X3835054Y-42942241D01*
X3856906Y-42994995D01*
X3872446Y-43032512D01*
X3874127Y-43037070D01*
X3881072Y-43058445D01*
X3891280Y-43078480D01*
X3893318Y-43082901D01*
X3930706Y-43173166D01*
X3981751Y-43256462D01*
X3984130Y-43260710D01*
X3984136Y-43260721D01*
X3994341Y-43280749D01*
X4000688Y-43289485D01*
X4007556Y-43298939D01*
X4010260Y-43302987D01*
X4061305Y-43386283D01*
X4061309Y-43386289D01*
X4081219Y-43409600D01*
X4124759Y-43460579D01*
X4127763Y-43464390D01*
X4140989Y-43482593D01*
X4156898Y-43498502D01*
X4160191Y-43502065D01*
X4180642Y-43526010D01*
X4223643Y-43576357D01*
X4297926Y-43639801D01*
X4297932Y-43639806D01*
X4301495Y-43643099D01*
X4317407Y-43659011D01*
X4335613Y-43672238D01*
X4339407Y-43675229D01*
X4413711Y-43738691D01*
X4425263Y-43745770D01*
X4497014Y-43789739D01*
X4501051Y-43792436D01*
X4519251Y-43805659D01*
X4539309Y-43815879D01*
X4543500Y-43818225D01*
X4626834Y-43869293D01*
X4717133Y-43906696D01*
X4721501Y-43908710D01*
X4741551Y-43918926D01*
X4762951Y-43925879D01*
X4767492Y-43927555D01*
X4857764Y-43964947D01*
X4857766Y-43964947D01*
X4857770Y-43964949D01*
X4919790Y-43979838D01*
X4952773Y-43987757D01*
X4957438Y-43989072D01*
X4972872Y-43994087D01*
X4978828Y-43996023D01*
X4978829Y-43996023D01*
X4978832Y-43996024D01*
X5001049Y-43999542D01*
X5005775Y-44000481D01*
X5100814Y-44023299D01*
X5198234Y-44030966D01*
X5203051Y-44031536D01*
X5219801Y-44034189D01*
X5225253Y-44035053D01*
X5247725Y-44035053D01*
X5252591Y-44035244D01*
X5262438Y-44036018D01*
X5350000Y-44042910D01*
X5437561Y-44036018D01*
X5447409Y-44035244D01*
X5452275Y-44035053D01*
X5474743Y-44035053D01*
X5474746Y-44035053D01*
X5496954Y-44031535D01*
X5501756Y-44030966D01*
X5599186Y-44023299D01*
X5694234Y-44000479D01*
X5698906Y-43999549D01*
X5721168Y-43996024D01*
X5742590Y-43989063D01*
X5747209Y-43987761D01*
X5842236Y-43964947D01*
X5932534Y-43927544D01*
X5937023Y-43925887D01*
X5958449Y-43918926D01*
X5978520Y-43908699D01*
X5982861Y-43906698D01*
X6073166Y-43869293D01*
X6156514Y-43818217D01*
X6160686Y-43815881D01*
X6180749Y-43805659D01*
X6198948Y-43792436D01*
X6202964Y-43789752D01*
X6286289Y-43738691D01*
X6360596Y-43675226D01*
X6364376Y-43672245D01*
X6382593Y-43659011D01*
X6398507Y-43643096D01*
X6402048Y-43639822D01*
X6476357Y-43576357D01*
X6539822Y-43502048D01*
X6543096Y-43498507D01*
X6559011Y-43482593D01*
X6572245Y-43464376D01*
X6575226Y-43460596D01*
X6638691Y-43386289D01*
X6689752Y-43302965D01*
X6692443Y-43298939D01*
X6705659Y-43280749D01*
X6715881Y-43260686D01*
X6718217Y-43256514D01*
X6769293Y-43173166D01*
X6806698Y-43082861D01*
X6808699Y-43078520D01*
X6818926Y-43058449D01*
X6825887Y-43037023D01*
X6827544Y-43032534D01*
X6843090Y-42995004D01*
X40044662Y-42995004D01*
X40063986Y-43252883D01*
X40063987Y-43252888D01*
X40121532Y-43505012D01*
X40121533Y-43505014D01*
X40121536Y-43505026D01*
X40216019Y-43745766D01*
X40345328Y-43969734D01*
X40403683Y-44042909D01*
X40506575Y-44171933D01*
X40637590Y-44293496D01*
X40696152Y-44347833D01*
X40909831Y-44493517D01*
X40909836Y-44493519D01*
X40909837Y-44493520D01*
X40909838Y-44493521D01*
X41083847Y-44577318D01*
X41142837Y-44605726D01*
X41184730Y-44618648D01*
X41187394Y-44619537D01*
X41191057Y-44620852D01*
X41191063Y-44620855D01*
X41191069Y-44620856D01*
X41191070Y-44620857D01*
X41198584Y-44622922D01*
X41281140Y-44648387D01*
X41389964Y-44681955D01*
X41438243Y-44689231D01*
X41445420Y-44690753D01*
X41446092Y-44690938D01*
X41446101Y-44690939D01*
X41460917Y-44692650D01*
X41607066Y-44714678D01*
X41645692Y-44720500D01*
X41698591Y-44720500D01*
X41705700Y-44720908D01*
X41708831Y-44721270D01*
X41728221Y-44720526D01*
X41728921Y-44720500D01*
X41904307Y-44720500D01*
X41904308Y-44720500D01*
X41960721Y-44711996D01*
X41967570Y-44711352D01*
X41973120Y-44711140D01*
X41996524Y-44706600D01*
X42160036Y-44681955D01*
X42218545Y-44663907D01*
X42224989Y-44662293D01*
X42232766Y-44660785D01*
X42256413Y-44652291D01*
X42259007Y-44651426D01*
X42386192Y-44612194D01*
X42407154Y-44605729D01*
X42407155Y-44605728D01*
X42407163Y-44605726D01*
X42466168Y-44577310D01*
X42472080Y-44574833D01*
X42481682Y-44571385D01*
X42505230Y-44558579D01*
X42507839Y-44557243D01*
X42640169Y-44493517D01*
X42697861Y-44454182D01*
X42703127Y-44450966D01*
X42714034Y-44445036D01*
X42736131Y-44428191D01*
X42738697Y-44426341D01*
X42853848Y-44347833D01*
X42908272Y-44297334D01*
X42912834Y-44293496D01*
X42924375Y-44284699D01*
X42943917Y-44264392D01*
X42946356Y-44261997D01*
X43020323Y-44193366D01*
X43043421Y-44171936D01*
X43043425Y-44171932D01*
X43043425Y-44171931D01*
X43043428Y-44171929D01*
X43092509Y-44110382D01*
X43096285Y-44106073D01*
X43107777Y-44094133D01*
X43123989Y-44071083D01*
X43126169Y-44068173D01*
X43204672Y-43969734D01*
X43246343Y-43897557D01*
X43249295Y-43892936D01*
X43259939Y-43877804D01*
X43272263Y-43852911D01*
X43274107Y-43849468D01*
X43313993Y-43780385D01*
X43333974Y-43745779D01*
X43333975Y-43745775D01*
X43333981Y-43745766D01*
X43366148Y-43663803D01*
X43368275Y-43659002D01*
X43377296Y-43640783D01*
X43385471Y-43614949D01*
X43386847Y-43611063D01*
X43428464Y-43505026D01*
X43449127Y-43414493D01*
X43450458Y-43409600D01*
X43457096Y-43388626D01*
X43461082Y-43362818D01*
X43461904Y-43358514D01*
X43486012Y-43252893D01*
X43493325Y-43155295D01*
X43493870Y-43150540D01*
X43497469Y-43127242D01*
X43498136Y-43092388D01*
X43498298Y-43088942D01*
X43505338Y-42995004D01*
X119594662Y-42995004D01*
X119613986Y-43252883D01*
X119613987Y-43252888D01*
X119671532Y-43505012D01*
X119671533Y-43505014D01*
X119671536Y-43505026D01*
X119766019Y-43745766D01*
X119895328Y-43969734D01*
X119953683Y-44042909D01*
X120056575Y-44171933D01*
X120187590Y-44293496D01*
X120246152Y-44347833D01*
X120459831Y-44493517D01*
X120459836Y-44493519D01*
X120459837Y-44493520D01*
X120459838Y-44493521D01*
X120633847Y-44577318D01*
X120692837Y-44605726D01*
X120734730Y-44618648D01*
X120737394Y-44619537D01*
X120741057Y-44620852D01*
X120741063Y-44620855D01*
X120741069Y-44620856D01*
X120741070Y-44620857D01*
X120748584Y-44622922D01*
X120831140Y-44648387D01*
X120939964Y-44681955D01*
X120988243Y-44689231D01*
X120995420Y-44690753D01*
X120996092Y-44690938D01*
X120996101Y-44690939D01*
X121010917Y-44692650D01*
X121157066Y-44714678D01*
X121195692Y-44720500D01*
X121248591Y-44720500D01*
X121255700Y-44720908D01*
X121258831Y-44721270D01*
X121278221Y-44720526D01*
X121278921Y-44720500D01*
X121454307Y-44720500D01*
X121454308Y-44720500D01*
X121510721Y-44711996D01*
X121517570Y-44711352D01*
X121523120Y-44711140D01*
X121546524Y-44706600D01*
X121710036Y-44681955D01*
X121768545Y-44663907D01*
X121774989Y-44662293D01*
X121782766Y-44660785D01*
X121806413Y-44652291D01*
X121809007Y-44651426D01*
X121936192Y-44612194D01*
X121957154Y-44605729D01*
X121957155Y-44605728D01*
X121957163Y-44605726D01*
X122016168Y-44577310D01*
X122022080Y-44574833D01*
X122031682Y-44571385D01*
X122055230Y-44558579D01*
X122057839Y-44557243D01*
X122190169Y-44493517D01*
X122247861Y-44454182D01*
X122253127Y-44450966D01*
X122264034Y-44445036D01*
X122286131Y-44428191D01*
X122288697Y-44426341D01*
X122403848Y-44347833D01*
X122458272Y-44297334D01*
X122462834Y-44293496D01*
X122474375Y-44284699D01*
X122493917Y-44264392D01*
X122496356Y-44261997D01*
X122570323Y-44193366D01*
X122593421Y-44171936D01*
X122593425Y-44171932D01*
X122593425Y-44171931D01*
X122593428Y-44171929D01*
X122642509Y-44110382D01*
X122646285Y-44106073D01*
X122657777Y-44094133D01*
X122673989Y-44071083D01*
X122676169Y-44068173D01*
X122754672Y-43969734D01*
X122796343Y-43897557D01*
X122799295Y-43892936D01*
X122809939Y-43877804D01*
X122822263Y-43852911D01*
X122824107Y-43849468D01*
X122863993Y-43780385D01*
X122883974Y-43745779D01*
X122883975Y-43745775D01*
X122883981Y-43745766D01*
X122916148Y-43663803D01*
X122918275Y-43659002D01*
X122927296Y-43640783D01*
X122935471Y-43614949D01*
X122936847Y-43611063D01*
X122978464Y-43505026D01*
X122999127Y-43414493D01*
X123000458Y-43409600D01*
X123007096Y-43388626D01*
X123011082Y-43362818D01*
X123011904Y-43358514D01*
X123036012Y-43252893D01*
X123043325Y-43155295D01*
X123043870Y-43150540D01*
X123047469Y-43127242D01*
X123048136Y-43092388D01*
X123048298Y-43088942D01*
X123055338Y-42995003D01*
X123055338Y-42994996D01*
X123048298Y-42901057D01*
X123048136Y-42897609D01*
X123047469Y-42862773D01*
X123047469Y-42862758D01*
X123043872Y-42839471D01*
X123043325Y-42834699D01*
X123038331Y-42768057D01*
X123036013Y-42737111D01*
X123027358Y-42699191D01*
X123011901Y-42631474D01*
X123011083Y-42627187D01*
X123007096Y-42601374D01*
X123000452Y-42580381D01*
X122999129Y-42575516D01*
X122978857Y-42486695D01*
X122978468Y-42484989D01*
X122978466Y-42484983D01*
X122978464Y-42484974D01*
X122964738Y-42450000D01*
X156157090Y-42450000D01*
X156159844Y-42484989D01*
X156164756Y-42547408D01*
X156164947Y-42552274D01*
X156164947Y-42574746D01*
X156168461Y-42596943D01*
X156169033Y-42601774D01*
X156174642Y-42673024D01*
X156176701Y-42699186D01*
X156176701Y-42699189D01*
X156176702Y-42699191D01*
X156199510Y-42794195D01*
X156200460Y-42798971D01*
X156203976Y-42821170D01*
X156210921Y-42842542D01*
X156212242Y-42847228D01*
X156235052Y-42942235D01*
X156235054Y-42942241D01*
X156256906Y-42994995D01*
X156272446Y-43032512D01*
X156274127Y-43037070D01*
X156281072Y-43058445D01*
X156291280Y-43078480D01*
X156293318Y-43082901D01*
X156330706Y-43173166D01*
X156381751Y-43256462D01*
X156384130Y-43260710D01*
X156384136Y-43260721D01*
X156394341Y-43280749D01*
X156400688Y-43289485D01*
X156407556Y-43298939D01*
X156410260Y-43302987D01*
X156461305Y-43386283D01*
X156461309Y-43386289D01*
X156481219Y-43409600D01*
X156524759Y-43460579D01*
X156527763Y-43464390D01*
X156540989Y-43482593D01*
X156556898Y-43498502D01*
X156560191Y-43502065D01*
X156580642Y-43526010D01*
X156623643Y-43576357D01*
X156697926Y-43639801D01*
X156697932Y-43639806D01*
X156701495Y-43643099D01*
X156717407Y-43659011D01*
X156735613Y-43672238D01*
X156739407Y-43675229D01*
X156813711Y-43738691D01*
X156825263Y-43745770D01*
X156897014Y-43789739D01*
X156901051Y-43792436D01*
X156919251Y-43805659D01*
X156939309Y-43815879D01*
X156943500Y-43818225D01*
X157026834Y-43869293D01*
X157117133Y-43906696D01*
X157121501Y-43908710D01*
X157141551Y-43918926D01*
X157162951Y-43925879D01*
X157167492Y-43927555D01*
X157257764Y-43964947D01*
X157257766Y-43964947D01*
X157257770Y-43964949D01*
X157319790Y-43979838D01*
X157352773Y-43987757D01*
X157357438Y-43989072D01*
X157372872Y-43994087D01*
X157378828Y-43996023D01*
X157378829Y-43996023D01*
X157378832Y-43996024D01*
X157401049Y-43999542D01*
X157405775Y-44000481D01*
X157500814Y-44023299D01*
X157598234Y-44030966D01*
X157603051Y-44031536D01*
X157619801Y-44034189D01*
X157625253Y-44035053D01*
X157647725Y-44035053D01*
X157652591Y-44035244D01*
X157662438Y-44036018D01*
X157750000Y-44042910D01*
X157837561Y-44036018D01*
X157847409Y-44035244D01*
X157852275Y-44035053D01*
X157874743Y-44035053D01*
X157874746Y-44035053D01*
X157896954Y-44031535D01*
X157901756Y-44030966D01*
X157999186Y-44023299D01*
X158094234Y-44000479D01*
X158098906Y-43999549D01*
X158121168Y-43996024D01*
X158142590Y-43989063D01*
X158147209Y-43987761D01*
X158242236Y-43964947D01*
X158332534Y-43927544D01*
X158337023Y-43925887D01*
X158358449Y-43918926D01*
X158378520Y-43908699D01*
X158382861Y-43906698D01*
X158473166Y-43869293D01*
X158556514Y-43818217D01*
X158560686Y-43815881D01*
X158580749Y-43805659D01*
X158598948Y-43792436D01*
X158602964Y-43789752D01*
X158686289Y-43738691D01*
X158760596Y-43675226D01*
X158764376Y-43672245D01*
X158782593Y-43659011D01*
X158798507Y-43643096D01*
X158802048Y-43639822D01*
X158876357Y-43576357D01*
X158939822Y-43502048D01*
X158943096Y-43498507D01*
X158959011Y-43482593D01*
X158972245Y-43464376D01*
X158975226Y-43460596D01*
X159038691Y-43386289D01*
X159089752Y-43302965D01*
X159092443Y-43298939D01*
X159105659Y-43280749D01*
X159115881Y-43260686D01*
X159118217Y-43256514D01*
X159169293Y-43173166D01*
X159206698Y-43082861D01*
X159208699Y-43078520D01*
X159218926Y-43058449D01*
X159225887Y-43037023D01*
X159227544Y-43032534D01*
X159264947Y-42942236D01*
X159287761Y-42847209D01*
X159289063Y-42842590D01*
X159296024Y-42821168D01*
X159299549Y-42798906D01*
X159300479Y-42794234D01*
X159323299Y-42699186D01*
X159330966Y-42601759D01*
X159331537Y-42596943D01*
X159335053Y-42574746D01*
X159335668Y-42543371D01*
X159335844Y-42539775D01*
X159342910Y-42450000D01*
X159335844Y-42360227D01*
X159335668Y-42356624D01*
X159335053Y-42325254D01*
X159331537Y-42303054D01*
X159330965Y-42298227D01*
X159323299Y-42200814D01*
X159300481Y-42105775D01*
X159299542Y-42101049D01*
X159296024Y-42078832D01*
X159289072Y-42057438D01*
X159287757Y-42052773D01*
X159279838Y-42019790D01*
X159264949Y-41957770D01*
X159264944Y-41957758D01*
X159227555Y-41867492D01*
X159225874Y-41862936D01*
X159218926Y-41841551D01*
X159208710Y-41821501D01*
X159206696Y-41817133D01*
X159169293Y-41726834D01*
X159118225Y-41643500D01*
X159115879Y-41639309D01*
X159105659Y-41619251D01*
X159092436Y-41601051D01*
X159089739Y-41597014D01*
X159038691Y-41513711D01*
X158975229Y-41439407D01*
X158972238Y-41435613D01*
X158959011Y-41417407D01*
X158943099Y-41401495D01*
X158939806Y-41397932D01*
X158928141Y-41384274D01*
X158876357Y-41323643D01*
X158823922Y-41278859D01*
X158802065Y-41260191D01*
X158798499Y-41256895D01*
X158782593Y-41240989D01*
X158764390Y-41227763D01*
X158760579Y-41224759D01*
X158760578Y-41224758D01*
X158686289Y-41161309D01*
X158686283Y-41161305D01*
X158602987Y-41110260D01*
X158598939Y-41107556D01*
X158589485Y-41100688D01*
X158580749Y-41094341D01*
X158572057Y-41089912D01*
X158560710Y-41084130D01*
X158556462Y-41081751D01*
X158473166Y-41030706D01*
X158382901Y-40993318D01*
X158378480Y-40991280D01*
X158372054Y-40988006D01*
X158358449Y-40981074D01*
X158358446Y-40981073D01*
X158358444Y-40981072D01*
X158358445Y-40981072D01*
X158337070Y-40974127D01*
X158332512Y-40972446D01*
X158301543Y-40959618D01*
X158242241Y-40935054D01*
X158242235Y-40935052D01*
X158147228Y-40912242D01*
X158142542Y-40910921D01*
X158121170Y-40903976D01*
X158098971Y-40900460D01*
X158094195Y-40899510D01*
X157999191Y-40876702D01*
X157999189Y-40876701D01*
X157999186Y-40876701D01*
X157973024Y-40874642D01*
X157901774Y-40869033D01*
X157896943Y-40868461D01*
X157874746Y-40864947D01*
X157852275Y-40864947D01*
X157847409Y-40864756D01*
X157750000Y-40857090D01*
X157652591Y-40864756D01*
X157647725Y-40864947D01*
X157625255Y-40864947D01*
X157625254Y-40864947D01*
X157623088Y-40865290D01*
X157603058Y-40868461D01*
X157598227Y-40869033D01*
X157500811Y-40876701D01*
X157500806Y-40876702D01*
X157405804Y-40899510D01*
X157401029Y-40900460D01*
X157378828Y-40903976D01*
X157357451Y-40910922D01*
X157352767Y-40912243D01*
X157257767Y-40935052D01*
X157257758Y-40935055D01*
X157167501Y-40972440D01*
X157162936Y-40974124D01*
X157141562Y-40981069D01*
X157141545Y-40981076D01*
X157121517Y-40991280D01*
X157117097Y-40993318D01*
X157026841Y-41030703D01*
X157026829Y-41030709D01*
X156943531Y-41081754D01*
X156939285Y-41084132D01*
X156919253Y-41094339D01*
X156919244Y-41094345D01*
X156901057Y-41107557D01*
X156897013Y-41110259D01*
X156813708Y-41161311D01*
X156739420Y-41224758D01*
X156735598Y-41227771D01*
X156717414Y-41240982D01*
X156717408Y-41240987D01*
X156701498Y-41256895D01*
X156697926Y-41260197D01*
X156623642Y-41323642D01*
X156560197Y-41397926D01*
X156556895Y-41401498D01*
X156540987Y-41417408D01*
X156540982Y-41417414D01*
X156527771Y-41435598D01*
X156524758Y-41439420D01*
X156461311Y-41513708D01*
X156410259Y-41597013D01*
X156407557Y-41601057D01*
X156394345Y-41619244D01*
X156394339Y-41619253D01*
X156384132Y-41639285D01*
X156381754Y-41643531D01*
X156330709Y-41726829D01*
X156330703Y-41726841D01*
X156293318Y-41817097D01*
X156291280Y-41821517D01*
X156281076Y-41841545D01*
X156281069Y-41841562D01*
X156274124Y-41862936D01*
X156272440Y-41867501D01*
X156235055Y-41957758D01*
X156235052Y-41957767D01*
X156212243Y-42052767D01*
X156210922Y-42057451D01*
X156203976Y-42078828D01*
X156200460Y-42101029D01*
X156199510Y-42105804D01*
X156176702Y-42200806D01*
X156176701Y-42200811D01*
X156169033Y-42298227D01*
X156168461Y-42303058D01*
X156164947Y-42325254D01*
X156164947Y-42347725D01*
X156164756Y-42352591D01*
X156157090Y-42450000D01*
X122964738Y-42450000D01*
X122936848Y-42378939D01*
X122935465Y-42375030D01*
X122927296Y-42349217D01*
X122918282Y-42331012D01*
X122916134Y-42326160D01*
X122915778Y-42325254D01*
X122883981Y-42244234D01*
X122858908Y-42200806D01*
X122824118Y-42140548D01*
X122822254Y-42137069D01*
X122809939Y-42112196D01*
X122799300Y-42097070D01*
X122796334Y-42092427D01*
X122754672Y-42020266D01*
X122676178Y-41921837D01*
X122673973Y-41918893D01*
X122657779Y-41895870D01*
X122657774Y-41895864D01*
X122646301Y-41883942D01*
X122642500Y-41879605D01*
X122593428Y-41818071D01*
X122593425Y-41818068D01*
X122496386Y-41728029D01*
X122493885Y-41725572D01*
X122474379Y-41705304D01*
X122474371Y-41705298D01*
X122462840Y-41696507D01*
X122458255Y-41692648D01*
X122403848Y-41642166D01*
X122288728Y-41563679D01*
X122286088Y-41561775D01*
X122264034Y-41544964D01*
X122264035Y-41544964D01*
X122253147Y-41539042D01*
X122247841Y-41535802D01*
X122190176Y-41496487D01*
X122190168Y-41496482D01*
X122057891Y-41432781D01*
X122055175Y-41431389D01*
X122031682Y-41418615D01*
X122022099Y-41415172D01*
X122016157Y-41412682D01*
X121957163Y-41384274D01*
X121809047Y-41338585D01*
X121806366Y-41337691D01*
X121782774Y-41329218D01*
X121782776Y-41329218D01*
X121782766Y-41329215D01*
X121782762Y-41329214D01*
X121782755Y-41329212D01*
X121774997Y-41327707D01*
X121768532Y-41326088D01*
X121710030Y-41308043D01*
X121546535Y-41283401D01*
X121542707Y-41282658D01*
X121523120Y-41278860D01*
X121523118Y-41278859D01*
X121523114Y-41278859D01*
X121517558Y-41278646D01*
X121510697Y-41277999D01*
X121454314Y-41269500D01*
X121454308Y-41269500D01*
X121278921Y-41269500D01*
X121258832Y-41268730D01*
X121258831Y-41268730D01*
X121255700Y-41269091D01*
X121248591Y-41269500D01*
X121195684Y-41269500D01*
X121010915Y-41297350D01*
X120996096Y-41299061D01*
X120996052Y-41299069D01*
X120995374Y-41299256D01*
X120988223Y-41300770D01*
X120939963Y-41308045D01*
X120939956Y-41308046D01*
X120748586Y-41367076D01*
X120741057Y-41369145D01*
X120737372Y-41370469D01*
X120734708Y-41371357D01*
X120692835Y-41384274D01*
X120459838Y-41496478D01*
X120459837Y-41496479D01*
X120246151Y-41642167D01*
X120056575Y-41818066D01*
X119895328Y-42020266D01*
X119766019Y-42244233D01*
X119671538Y-42484968D01*
X119671532Y-42484987D01*
X119613987Y-42737111D01*
X119613986Y-42737116D01*
X119594662Y-42994995D01*
X119594662Y-42995004D01*
X43505338Y-42995004D01*
X43505338Y-42995003D01*
X43505338Y-42994996D01*
X43498298Y-42901057D01*
X43498136Y-42897609D01*
X43497469Y-42862773D01*
X43497469Y-42862758D01*
X43493872Y-42839471D01*
X43493325Y-42834699D01*
X43488331Y-42768057D01*
X43486013Y-42737111D01*
X43477358Y-42699191D01*
X43461901Y-42631474D01*
X43461083Y-42627187D01*
X43457096Y-42601374D01*
X43450452Y-42580381D01*
X43449129Y-42575516D01*
X43428857Y-42486695D01*
X43428468Y-42484989D01*
X43428466Y-42484983D01*
X43428464Y-42484974D01*
X43386848Y-42378939D01*
X43385465Y-42375030D01*
X43377296Y-42349217D01*
X43368282Y-42331012D01*
X43366134Y-42326160D01*
X43365778Y-42325254D01*
X43333981Y-42244234D01*
X43308908Y-42200806D01*
X43274118Y-42140548D01*
X43272254Y-42137069D01*
X43259939Y-42112196D01*
X43249300Y-42097070D01*
X43246334Y-42092427D01*
X43204672Y-42020266D01*
X43126178Y-41921837D01*
X43123973Y-41918893D01*
X43107779Y-41895870D01*
X43107774Y-41895864D01*
X43096301Y-41883942D01*
X43092500Y-41879605D01*
X43043428Y-41818071D01*
X43043425Y-41818068D01*
X42946386Y-41728029D01*
X42943885Y-41725572D01*
X42924379Y-41705304D01*
X42924371Y-41705298D01*
X42912840Y-41696507D01*
X42908255Y-41692648D01*
X42853848Y-41642166D01*
X42738728Y-41563679D01*
X42736088Y-41561775D01*
X42714034Y-41544964D01*
X42714035Y-41544964D01*
X42703147Y-41539042D01*
X42697841Y-41535802D01*
X42640176Y-41496487D01*
X42640168Y-41496482D01*
X42507891Y-41432781D01*
X42505175Y-41431389D01*
X42481682Y-41418615D01*
X42472099Y-41415172D01*
X42466157Y-41412682D01*
X42407163Y-41384274D01*
X42259047Y-41338585D01*
X42256366Y-41337691D01*
X42232774Y-41329218D01*
X42232776Y-41329218D01*
X42232766Y-41329215D01*
X42232762Y-41329214D01*
X42232755Y-41329212D01*
X42224997Y-41327707D01*
X42218532Y-41326088D01*
X42160030Y-41308043D01*
X41996535Y-41283401D01*
X41992707Y-41282658D01*
X41973120Y-41278860D01*
X41973118Y-41278859D01*
X41973114Y-41278859D01*
X41967558Y-41278646D01*
X41960697Y-41277999D01*
X41904314Y-41269500D01*
X41904308Y-41269500D01*
X41728921Y-41269500D01*
X41708832Y-41268730D01*
X41708831Y-41268730D01*
X41705700Y-41269091D01*
X41698591Y-41269500D01*
X41645684Y-41269500D01*
X41460915Y-41297350D01*
X41446096Y-41299061D01*
X41446052Y-41299069D01*
X41445374Y-41299256D01*
X41438223Y-41300770D01*
X41389963Y-41308045D01*
X41389956Y-41308046D01*
X41198586Y-41367076D01*
X41191057Y-41369145D01*
X41187372Y-41370469D01*
X41184708Y-41371357D01*
X41142835Y-41384274D01*
X40909838Y-41496478D01*
X40909837Y-41496479D01*
X40696151Y-41642167D01*
X40506575Y-41818066D01*
X40345328Y-42020266D01*
X40216019Y-42244233D01*
X40121538Y-42484968D01*
X40121532Y-42484987D01*
X40063987Y-42737111D01*
X40063986Y-42737116D01*
X40044662Y-42994995D01*
X40044662Y-42995004D01*
X6843090Y-42995004D01*
X6864947Y-42942236D01*
X6887761Y-42847209D01*
X6889063Y-42842590D01*
X6896024Y-42821168D01*
X6899549Y-42798906D01*
X6900479Y-42794234D01*
X6923299Y-42699186D01*
X6930966Y-42601759D01*
X6931537Y-42596943D01*
X6935053Y-42574746D01*
X6935668Y-42543371D01*
X6935844Y-42539775D01*
X6942910Y-42450000D01*
X6935844Y-42360227D01*
X6935668Y-42356624D01*
X6935053Y-42325254D01*
X6931537Y-42303054D01*
X6930965Y-42298227D01*
X6923299Y-42200814D01*
X6900481Y-42105775D01*
X6899542Y-42101049D01*
X6896024Y-42078832D01*
X6889072Y-42057438D01*
X6887757Y-42052773D01*
X6879838Y-42019790D01*
X6864949Y-41957770D01*
X6864944Y-41957758D01*
X6827555Y-41867492D01*
X6825874Y-41862936D01*
X6818926Y-41841551D01*
X6808710Y-41821501D01*
X6806696Y-41817133D01*
X6769293Y-41726834D01*
X6718225Y-41643500D01*
X6715879Y-41639309D01*
X6705659Y-41619251D01*
X6692436Y-41601051D01*
X6689739Y-41597014D01*
X6638691Y-41513711D01*
X6575229Y-41439407D01*
X6572238Y-41435613D01*
X6559011Y-41417407D01*
X6543099Y-41401495D01*
X6539806Y-41397932D01*
X6528141Y-41384274D01*
X6476357Y-41323643D01*
X6423922Y-41278859D01*
X6402065Y-41260191D01*
X6398499Y-41256895D01*
X6382593Y-41240989D01*
X6364390Y-41227763D01*
X6360579Y-41224759D01*
X6360578Y-41224758D01*
X6286289Y-41161309D01*
X6286283Y-41161305D01*
X6202987Y-41110260D01*
X6198939Y-41107556D01*
X6189485Y-41100688D01*
X6180749Y-41094341D01*
X6172057Y-41089912D01*
X6160710Y-41084130D01*
X6156462Y-41081751D01*
X6073166Y-41030706D01*
X5982901Y-40993318D01*
X5978480Y-40991280D01*
X5972054Y-40988006D01*
X5958449Y-40981074D01*
X5958446Y-40981073D01*
X5958444Y-40981072D01*
X5958445Y-40981072D01*
X5937070Y-40974127D01*
X5932512Y-40972446D01*
X5901543Y-40959618D01*
X5842241Y-40935054D01*
X5842235Y-40935052D01*
X5747228Y-40912242D01*
X5742542Y-40910921D01*
X5721170Y-40903976D01*
X5698971Y-40900460D01*
X5694195Y-40899510D01*
X5599191Y-40876702D01*
X5599189Y-40876701D01*
X5599186Y-40876701D01*
X5573024Y-40874642D01*
X5501774Y-40869033D01*
X5496943Y-40868461D01*
X5474746Y-40864947D01*
X5452275Y-40864947D01*
X5447409Y-40864756D01*
X5350000Y-40857090D01*
X5252591Y-40864756D01*
X5247725Y-40864947D01*
X5225255Y-40864947D01*
X5225254Y-40864947D01*
X5223088Y-40865290D01*
X5203058Y-40868461D01*
X5198227Y-40869033D01*
X5100811Y-40876701D01*
X5100806Y-40876702D01*
X5005804Y-40899510D01*
X5001029Y-40900460D01*
X4978828Y-40903976D01*
X4957451Y-40910922D01*
X4952767Y-40912243D01*
X4857767Y-40935052D01*
X4857758Y-40935055D01*
X4767501Y-40972440D01*
X4762936Y-40974124D01*
X4741562Y-40981069D01*
X4741545Y-40981076D01*
X4721517Y-40991280D01*
X4717097Y-40993318D01*
X4626841Y-41030703D01*
X4626829Y-41030709D01*
X4543531Y-41081754D01*
X4539285Y-41084132D01*
X4519253Y-41094339D01*
X4519244Y-41094345D01*
X4501057Y-41107557D01*
X4497013Y-41110259D01*
X4413708Y-41161311D01*
X4339420Y-41224758D01*
X4335598Y-41227771D01*
X4317414Y-41240982D01*
X4317408Y-41240987D01*
X4301498Y-41256895D01*
X4297926Y-41260197D01*
X4223642Y-41323642D01*
X4160197Y-41397926D01*
X4156895Y-41401498D01*
X4140987Y-41417408D01*
X4140982Y-41417414D01*
X4127771Y-41435598D01*
X4124758Y-41439420D01*
X4061311Y-41513708D01*
X4010259Y-41597013D01*
X4007557Y-41601057D01*
X3994345Y-41619244D01*
X3994339Y-41619253D01*
X3984132Y-41639285D01*
X3981754Y-41643531D01*
X3930709Y-41726829D01*
X3930703Y-41726841D01*
X3893318Y-41817097D01*
X3891280Y-41821517D01*
X3881076Y-41841545D01*
X3881069Y-41841562D01*
X3874124Y-41862936D01*
X3872440Y-41867501D01*
X3835055Y-41957758D01*
X3835052Y-41957767D01*
X3812243Y-42052767D01*
X3810922Y-42057451D01*
X3803976Y-42078828D01*
X3800460Y-42101029D01*
X3799510Y-42105804D01*
X3776702Y-42200806D01*
X3776701Y-42200811D01*
X3769033Y-42298227D01*
X3768461Y-42303058D01*
X3764947Y-42325254D01*
X3764947Y-42347725D01*
X3764756Y-42352591D01*
X3757090Y-42450000D01*
X500Y-42450000D01*
X500Y-17049999D01*
X3757090Y-17049999D01*
X3764756Y-17147408D01*
X3764947Y-17152274D01*
X3764947Y-17174746D01*
X3768461Y-17196943D01*
X3769033Y-17201774D01*
X3774642Y-17273024D01*
X3776701Y-17299186D01*
X3776701Y-17299189D01*
X3776702Y-17299191D01*
X3799510Y-17394195D01*
X3800460Y-17398971D01*
X3803976Y-17421170D01*
X3810921Y-17442542D01*
X3812242Y-17447228D01*
X3835052Y-17542235D01*
X3835054Y-17542241D01*
X3859618Y-17601543D01*
X3872446Y-17632512D01*
X3874127Y-17637070D01*
X3881072Y-17658445D01*
X3891280Y-17678480D01*
X3893318Y-17682901D01*
X3930706Y-17773166D01*
X3981751Y-17856462D01*
X3984130Y-17860710D01*
X3984136Y-17860721D01*
X3994341Y-17880749D01*
X4000688Y-17889485D01*
X4007556Y-17898939D01*
X4010260Y-17902987D01*
X4061305Y-17986283D01*
X4061309Y-17986289D01*
X4124759Y-18060579D01*
X4127763Y-18064390D01*
X4140989Y-18082593D01*
X4156898Y-18098502D01*
X4160191Y-18102065D01*
X4223643Y-18176357D01*
X4297926Y-18239801D01*
X4297932Y-18239806D01*
X4301495Y-18243099D01*
X4317407Y-18259011D01*
X4335613Y-18272238D01*
X4339407Y-18275229D01*
X4413711Y-18338691D01*
X4413713Y-18338692D01*
X4497014Y-18389739D01*
X4501051Y-18392436D01*
X4519251Y-18405659D01*
X4539309Y-18415879D01*
X4543500Y-18418225D01*
X4626834Y-18469293D01*
X4717133Y-18506696D01*
X4721501Y-18508710D01*
X4741551Y-18518926D01*
X4762951Y-18525879D01*
X4767492Y-18527555D01*
X4857764Y-18564947D01*
X4857766Y-18564947D01*
X4857770Y-18564949D01*
X4919790Y-18579838D01*
X4952773Y-18587757D01*
X4957438Y-18589072D01*
X4972872Y-18594087D01*
X4978828Y-18596023D01*
X4978829Y-18596023D01*
X4978832Y-18596024D01*
X5001049Y-18599542D01*
X5005775Y-18600481D01*
X5100814Y-18623299D01*
X5198234Y-18630966D01*
X5203051Y-18631536D01*
X5219801Y-18634189D01*
X5225253Y-18635053D01*
X5247725Y-18635053D01*
X5252591Y-18635244D01*
X5262438Y-18636018D01*
X5350000Y-18642910D01*
X5437561Y-18636018D01*
X5447409Y-18635244D01*
X5452275Y-18635053D01*
X5474743Y-18635053D01*
X5474746Y-18635053D01*
X5496954Y-18631535D01*
X5501756Y-18630966D01*
X5599186Y-18623299D01*
X5694234Y-18600479D01*
X5698906Y-18599549D01*
X5721168Y-18596024D01*
X5742590Y-18589063D01*
X5747209Y-18587761D01*
X5842236Y-18564947D01*
X5932534Y-18527544D01*
X5937023Y-18525887D01*
X5958449Y-18518926D01*
X5978520Y-18508699D01*
X5982861Y-18506698D01*
X6073166Y-18469293D01*
X6156514Y-18418217D01*
X6160686Y-18415881D01*
X6180749Y-18405659D01*
X6198948Y-18392436D01*
X6202964Y-18389752D01*
X6286289Y-18338691D01*
X6360596Y-18275226D01*
X6364376Y-18272245D01*
X6382593Y-18259011D01*
X6398507Y-18243096D01*
X6402048Y-18239822D01*
X6476357Y-18176357D01*
X6539822Y-18102048D01*
X6543096Y-18098507D01*
X6559011Y-18082593D01*
X6572245Y-18064376D01*
X6575226Y-18060596D01*
X6638691Y-17986289D01*
X6689752Y-17902965D01*
X6692443Y-17898939D01*
X6705659Y-17880749D01*
X6715881Y-17860686D01*
X6718217Y-17856514D01*
X6769293Y-17773166D01*
X6806698Y-17682861D01*
X6808699Y-17678520D01*
X6818926Y-17658449D01*
X6825887Y-17637023D01*
X6827544Y-17632534D01*
X6864947Y-17542236D01*
X6887761Y-17447209D01*
X6889063Y-17442590D01*
X6896024Y-17421168D01*
X6899549Y-17398906D01*
X6900479Y-17394234D01*
X6923299Y-17299186D01*
X6930966Y-17201759D01*
X6931537Y-17196943D01*
X6935053Y-17174746D01*
X6935668Y-17143371D01*
X6935844Y-17139775D01*
X6942910Y-17050000D01*
X6942910Y-17049999D01*
X156157090Y-17049999D01*
X156164756Y-17147408D01*
X156164947Y-17152274D01*
X156164947Y-17174746D01*
X156168461Y-17196943D01*
X156169033Y-17201774D01*
X156174642Y-17273024D01*
X156176701Y-17299186D01*
X156176701Y-17299189D01*
X156176702Y-17299191D01*
X156199510Y-17394195D01*
X156200460Y-17398971D01*
X156203976Y-17421170D01*
X156210921Y-17442542D01*
X156212242Y-17447228D01*
X156235052Y-17542235D01*
X156235054Y-17542241D01*
X156259618Y-17601543D01*
X156272446Y-17632512D01*
X156274127Y-17637070D01*
X156281072Y-17658445D01*
X156291280Y-17678480D01*
X156293318Y-17682901D01*
X156330706Y-17773166D01*
X156381751Y-17856462D01*
X156384130Y-17860710D01*
X156384136Y-17860721D01*
X156394341Y-17880749D01*
X156400688Y-17889485D01*
X156407556Y-17898939D01*
X156410260Y-17902987D01*
X156461305Y-17986283D01*
X156461309Y-17986289D01*
X156524759Y-18060579D01*
X156527763Y-18064390D01*
X156540989Y-18082593D01*
X156556898Y-18098502D01*
X156560191Y-18102065D01*
X156623643Y-18176357D01*
X156697926Y-18239801D01*
X156697932Y-18239806D01*
X156701495Y-18243099D01*
X156717407Y-18259011D01*
X156735613Y-18272238D01*
X156739407Y-18275229D01*
X156813711Y-18338691D01*
X156813713Y-18338692D01*
X156897014Y-18389739D01*
X156901051Y-18392436D01*
X156919251Y-18405659D01*
X156939309Y-18415879D01*
X156943500Y-18418225D01*
X157026834Y-18469293D01*
X157117133Y-18506696D01*
X157121501Y-18508710D01*
X157141551Y-18518926D01*
X157162951Y-18525879D01*
X157167492Y-18527555D01*
X157257764Y-18564947D01*
X157257766Y-18564947D01*
X157257770Y-18564949D01*
X157319790Y-18579838D01*
X157352773Y-18587757D01*
X157357438Y-18589072D01*
X157372872Y-18594087D01*
X157378828Y-18596023D01*
X157378829Y-18596023D01*
X157378832Y-18596024D01*
X157401049Y-18599542D01*
X157405775Y-18600481D01*
X157500814Y-18623299D01*
X157598234Y-18630966D01*
X157603051Y-18631536D01*
X157619801Y-18634189D01*
X157625253Y-18635053D01*
X157647725Y-18635053D01*
X157652591Y-18635244D01*
X157662438Y-18636018D01*
X157750000Y-18642910D01*
X157837561Y-18636018D01*
X157847409Y-18635244D01*
X157852275Y-18635053D01*
X157874743Y-18635053D01*
X157874746Y-18635053D01*
X157896954Y-18631535D01*
X157901756Y-18630966D01*
X157999186Y-18623299D01*
X158094234Y-18600479D01*
X158098906Y-18599549D01*
X158121168Y-18596024D01*
X158142590Y-18589063D01*
X158147209Y-18587761D01*
X158242236Y-18564947D01*
X158332534Y-18527544D01*
X158337023Y-18525887D01*
X158358449Y-18518926D01*
X158378520Y-18508699D01*
X158382861Y-18506698D01*
X158473166Y-18469293D01*
X158556514Y-18418217D01*
X158560686Y-18415881D01*
X158580749Y-18405659D01*
X158598948Y-18392436D01*
X158602964Y-18389752D01*
X158686289Y-18338691D01*
X158760596Y-18275226D01*
X158764376Y-18272245D01*
X158782593Y-18259011D01*
X158798507Y-18243096D01*
X158802048Y-18239822D01*
X158876357Y-18176357D01*
X158939822Y-18102048D01*
X158943096Y-18098507D01*
X158959011Y-18082593D01*
X158972245Y-18064376D01*
X158975226Y-18060596D01*
X159038691Y-17986289D01*
X159089752Y-17902965D01*
X159092443Y-17898939D01*
X159105659Y-17880749D01*
X159115881Y-17860686D01*
X159118217Y-17856514D01*
X159169293Y-17773166D01*
X159206698Y-17682861D01*
X159208699Y-17678520D01*
X159218926Y-17658449D01*
X159225887Y-17637023D01*
X159227544Y-17632534D01*
X159264947Y-17542236D01*
X159287761Y-17447209D01*
X159289063Y-17442590D01*
X159296024Y-17421168D01*
X159299549Y-17398906D01*
X159300479Y-17394234D01*
X159323299Y-17299186D01*
X159330966Y-17201759D01*
X159331537Y-17196943D01*
X159335053Y-17174746D01*
X159335668Y-17143371D01*
X159335844Y-17139775D01*
X159342910Y-17050000D01*
X159335844Y-16960227D01*
X159335668Y-16956624D01*
X159335053Y-16925254D01*
X159331537Y-16903054D01*
X159330965Y-16898227D01*
X159323299Y-16800814D01*
X159300481Y-16705775D01*
X159299542Y-16701049D01*
X159296024Y-16678832D01*
X159289072Y-16657438D01*
X159287757Y-16652773D01*
X159279838Y-16619790D01*
X159264949Y-16557770D01*
X159264944Y-16557758D01*
X159227555Y-16467492D01*
X159225874Y-16462936D01*
X159218926Y-16441551D01*
X159208710Y-16421501D01*
X159206696Y-16417133D01*
X159169293Y-16326834D01*
X159118225Y-16243500D01*
X159115879Y-16239309D01*
X159105659Y-16219251D01*
X159092436Y-16201051D01*
X159089739Y-16197014D01*
X159038691Y-16113711D01*
X158975229Y-16039407D01*
X158972238Y-16035613D01*
X158959011Y-16017407D01*
X158943099Y-16001495D01*
X158939806Y-15997932D01*
X158939801Y-15997926D01*
X158876357Y-15923643D01*
X158802065Y-15860191D01*
X158798499Y-15856895D01*
X158782593Y-15840989D01*
X158764390Y-15827763D01*
X158760579Y-15824759D01*
X158760578Y-15824758D01*
X158686289Y-15761309D01*
X158686283Y-15761305D01*
X158602987Y-15710260D01*
X158598939Y-15707556D01*
X158589485Y-15700688D01*
X158580749Y-15694341D01*
X158572057Y-15689912D01*
X158560710Y-15684130D01*
X158556462Y-15681751D01*
X158473166Y-15630706D01*
X158382901Y-15593318D01*
X158378480Y-15591280D01*
X158372054Y-15588006D01*
X158358449Y-15581074D01*
X158358446Y-15581073D01*
X158358444Y-15581072D01*
X158358445Y-15581072D01*
X158337070Y-15574127D01*
X158332512Y-15572446D01*
X158301543Y-15559618D01*
X158242241Y-15535054D01*
X158242235Y-15535052D01*
X158147228Y-15512242D01*
X158142542Y-15510921D01*
X158121170Y-15503976D01*
X158098971Y-15500460D01*
X158094195Y-15499510D01*
X157999191Y-15476702D01*
X157999189Y-15476701D01*
X157999186Y-15476701D01*
X157973024Y-15474642D01*
X157901774Y-15469033D01*
X157896943Y-15468461D01*
X157874746Y-15464947D01*
X157852275Y-15464947D01*
X157847409Y-15464756D01*
X157750000Y-15457090D01*
X157652591Y-15464756D01*
X157647725Y-15464947D01*
X157625255Y-15464947D01*
X157625254Y-15464947D01*
X157623088Y-15465290D01*
X157603058Y-15468461D01*
X157598227Y-15469033D01*
X157500811Y-15476701D01*
X157500806Y-15476702D01*
X157405804Y-15499510D01*
X157401029Y-15500460D01*
X157378828Y-15503976D01*
X157357451Y-15510922D01*
X157352767Y-15512243D01*
X157257767Y-15535052D01*
X157257758Y-15535055D01*
X157167501Y-15572440D01*
X157162936Y-15574124D01*
X157141562Y-15581069D01*
X157141545Y-15581076D01*
X157121517Y-15591280D01*
X157117097Y-15593318D01*
X157026841Y-15630703D01*
X157026829Y-15630709D01*
X156943531Y-15681754D01*
X156939285Y-15684132D01*
X156919253Y-15694339D01*
X156919244Y-15694345D01*
X156901057Y-15707557D01*
X156897013Y-15710259D01*
X156813708Y-15761311D01*
X156739420Y-15824758D01*
X156735598Y-15827771D01*
X156717414Y-15840982D01*
X156717408Y-15840987D01*
X156701498Y-15856895D01*
X156697926Y-15860197D01*
X156623642Y-15923642D01*
X156560197Y-15997926D01*
X156556895Y-16001498D01*
X156540987Y-16017408D01*
X156540982Y-16017414D01*
X156527771Y-16035598D01*
X156524758Y-16039420D01*
X156461311Y-16113708D01*
X156410259Y-16197013D01*
X156407557Y-16201057D01*
X156394345Y-16219244D01*
X156394339Y-16219253D01*
X156384132Y-16239285D01*
X156381754Y-16243531D01*
X156330709Y-16326829D01*
X156330703Y-16326841D01*
X156293318Y-16417097D01*
X156291280Y-16421517D01*
X156281076Y-16441545D01*
X156281069Y-16441562D01*
X156274124Y-16462936D01*
X156272440Y-16467501D01*
X156235055Y-16557758D01*
X156235052Y-16557767D01*
X156212243Y-16652767D01*
X156210922Y-16657451D01*
X156203976Y-16678828D01*
X156200460Y-16701029D01*
X156199510Y-16705804D01*
X156176702Y-16800806D01*
X156176701Y-16800811D01*
X156169033Y-16898227D01*
X156168461Y-16903058D01*
X156164947Y-16925254D01*
X156164947Y-16947725D01*
X156164756Y-16952591D01*
X156157090Y-17049999D01*
X6942910Y-17049999D01*
X6935844Y-16960227D01*
X6935668Y-16956624D01*
X6935053Y-16925254D01*
X6931537Y-16903054D01*
X6930965Y-16898227D01*
X6923299Y-16800814D01*
X6900481Y-16705775D01*
X6899542Y-16701049D01*
X6896024Y-16678832D01*
X6889072Y-16657438D01*
X6887757Y-16652773D01*
X6879838Y-16619790D01*
X6864949Y-16557770D01*
X6864944Y-16557758D01*
X6827555Y-16467492D01*
X6825874Y-16462936D01*
X6818926Y-16441551D01*
X6808710Y-16421501D01*
X6806696Y-16417133D01*
X6769293Y-16326834D01*
X6718225Y-16243500D01*
X6715879Y-16239309D01*
X6705659Y-16219251D01*
X6692436Y-16201051D01*
X6689739Y-16197014D01*
X6638691Y-16113711D01*
X6575229Y-16039407D01*
X6572238Y-16035613D01*
X6559011Y-16017407D01*
X6543099Y-16001495D01*
X6539806Y-15997932D01*
X6539801Y-15997926D01*
X6476357Y-15923643D01*
X6402065Y-15860191D01*
X6398499Y-15856895D01*
X6382593Y-15840989D01*
X6364390Y-15827763D01*
X6360579Y-15824759D01*
X6360578Y-15824758D01*
X6286289Y-15761309D01*
X6286283Y-15761305D01*
X6202987Y-15710260D01*
X6198939Y-15707556D01*
X6189485Y-15700688D01*
X6180749Y-15694341D01*
X6172057Y-15689912D01*
X6160710Y-15684130D01*
X6156462Y-15681751D01*
X6073166Y-15630706D01*
X5982901Y-15593318D01*
X5978480Y-15591280D01*
X5972054Y-15588006D01*
X5958449Y-15581074D01*
X5958446Y-15581073D01*
X5958444Y-15581072D01*
X5958445Y-15581072D01*
X5937070Y-15574127D01*
X5932512Y-15572446D01*
X5901543Y-15559618D01*
X5842241Y-15535054D01*
X5842235Y-15535052D01*
X5747228Y-15512242D01*
X5742542Y-15510921D01*
X5721170Y-15503976D01*
X5698971Y-15500460D01*
X5694195Y-15499510D01*
X5599191Y-15476702D01*
X5599189Y-15476701D01*
X5599186Y-15476701D01*
X5573024Y-15474642D01*
X5501774Y-15469033D01*
X5496943Y-15468461D01*
X5474746Y-15464947D01*
X5452275Y-15464947D01*
X5447409Y-15464756D01*
X5350000Y-15457090D01*
X5252591Y-15464756D01*
X5247725Y-15464947D01*
X5225255Y-15464947D01*
X5225254Y-15464947D01*
X5223088Y-15465290D01*
X5203058Y-15468461D01*
X5198227Y-15469033D01*
X5100811Y-15476701D01*
X5100806Y-15476702D01*
X5005804Y-15499510D01*
X5001029Y-15500460D01*
X4978828Y-15503976D01*
X4957451Y-15510922D01*
X4952767Y-15512243D01*
X4857767Y-15535052D01*
X4857758Y-15535055D01*
X4767501Y-15572440D01*
X4762936Y-15574124D01*
X4741562Y-15581069D01*
X4741545Y-15581076D01*
X4721517Y-15591280D01*
X4717097Y-15593318D01*
X4626841Y-15630703D01*
X4626829Y-15630709D01*
X4543531Y-15681754D01*
X4539285Y-15684132D01*
X4519253Y-15694339D01*
X4519244Y-15694345D01*
X4501057Y-15707557D01*
X4497013Y-15710259D01*
X4413708Y-15761311D01*
X4339420Y-15824758D01*
X4335598Y-15827771D01*
X4317414Y-15840982D01*
X4317408Y-15840987D01*
X4301498Y-15856895D01*
X4297926Y-15860197D01*
X4223642Y-15923642D01*
X4160197Y-15997926D01*
X4156895Y-16001498D01*
X4140987Y-16017408D01*
X4140982Y-16017414D01*
X4127771Y-16035598D01*
X4124758Y-16039420D01*
X4061311Y-16113708D01*
X4010259Y-16197013D01*
X4007557Y-16201057D01*
X3994345Y-16219244D01*
X3994339Y-16219253D01*
X3984132Y-16239285D01*
X3981754Y-16243531D01*
X3930709Y-16326829D01*
X3930703Y-16326841D01*
X3893318Y-16417097D01*
X3891280Y-16421517D01*
X3881076Y-16441545D01*
X3881069Y-16441562D01*
X3874124Y-16462936D01*
X3872440Y-16467501D01*
X3835055Y-16557758D01*
X3835052Y-16557767D01*
X3812243Y-16652767D01*
X3810922Y-16657451D01*
X3803976Y-16678828D01*
X3800460Y-16701029D01*
X3799510Y-16705804D01*
X3776702Y-16800806D01*
X3776701Y-16800811D01*
X3769033Y-16898227D01*
X3768461Y-16903058D01*
X3764947Y-16925254D01*
X3764947Y-16947725D01*
X3764756Y-16952591D01*
X3757090Y-17049999D01*
X500Y-17049999D01*
X500Y-2174999D01*
X16457090Y-2174999D01*
X16464756Y-2272408D01*
X16464947Y-2277274D01*
X16464947Y-2299746D01*
X16468461Y-2321943D01*
X16469033Y-2326774D01*
X16474642Y-2398024D01*
X16476701Y-2424186D01*
X16476701Y-2424189D01*
X16476702Y-2424191D01*
X16499510Y-2519195D01*
X16500460Y-2523971D01*
X16503976Y-2546170D01*
X16510921Y-2567542D01*
X16512242Y-2572228D01*
X16535052Y-2667235D01*
X16535054Y-2667241D01*
X16559618Y-2726543D01*
X16572446Y-2757512D01*
X16574127Y-2762070D01*
X16581072Y-2783445D01*
X16591280Y-2803480D01*
X16593318Y-2807901D01*
X16630706Y-2898166D01*
X16681751Y-2981462D01*
X16684130Y-2985710D01*
X16684136Y-2985721D01*
X16694341Y-3005749D01*
X16700688Y-3014485D01*
X16707556Y-3023939D01*
X16710260Y-3027987D01*
X16761305Y-3111283D01*
X16761309Y-3111289D01*
X16824759Y-3185579D01*
X16827763Y-3189390D01*
X16840989Y-3207593D01*
X16856898Y-3223502D01*
X16860191Y-3227065D01*
X16923643Y-3301357D01*
X16997926Y-3364801D01*
X16997932Y-3364806D01*
X17001495Y-3368099D01*
X17017407Y-3384011D01*
X17035613Y-3397238D01*
X17039407Y-3400229D01*
X17113711Y-3463691D01*
X17113713Y-3463692D01*
X17197014Y-3514739D01*
X17201051Y-3517436D01*
X17219251Y-3530659D01*
X17239309Y-3540879D01*
X17243500Y-3543225D01*
X17326834Y-3594293D01*
X17417133Y-3631696D01*
X17421501Y-3633710D01*
X17441551Y-3643926D01*
X17462951Y-3650879D01*
X17467492Y-3652555D01*
X17557764Y-3689947D01*
X17557766Y-3689947D01*
X17557770Y-3689949D01*
X17619790Y-3704838D01*
X17652773Y-3712757D01*
X17657438Y-3714072D01*
X17672872Y-3719087D01*
X17678828Y-3721023D01*
X17678829Y-3721023D01*
X17678832Y-3721024D01*
X17701049Y-3724542D01*
X17705775Y-3725481D01*
X17800814Y-3748299D01*
X17898234Y-3755966D01*
X17903051Y-3756536D01*
X17919801Y-3759189D01*
X17925253Y-3760053D01*
X17947725Y-3760053D01*
X17952591Y-3760244D01*
X17962438Y-3761018D01*
X18050000Y-3767910D01*
X18137561Y-3761018D01*
X18147409Y-3760244D01*
X18152275Y-3760053D01*
X18174743Y-3760053D01*
X18174746Y-3760053D01*
X18196954Y-3756535D01*
X18201756Y-3755966D01*
X18299186Y-3748299D01*
X18394234Y-3725479D01*
X18398906Y-3724549D01*
X18421168Y-3721024D01*
X18442590Y-3714063D01*
X18447209Y-3712761D01*
X18542236Y-3689947D01*
X18632534Y-3652544D01*
X18637023Y-3650887D01*
X18658449Y-3643926D01*
X18678520Y-3633699D01*
X18682861Y-3631698D01*
X18773166Y-3594293D01*
X18856514Y-3543217D01*
X18860686Y-3540881D01*
X18880749Y-3530659D01*
X18898948Y-3517436D01*
X18902964Y-3514752D01*
X18986289Y-3463691D01*
X19060596Y-3400226D01*
X19064376Y-3397245D01*
X19082593Y-3384011D01*
X19098507Y-3368096D01*
X19102048Y-3364822D01*
X19176357Y-3301357D01*
X19239822Y-3227048D01*
X19243096Y-3223507D01*
X19259011Y-3207593D01*
X19272245Y-3189376D01*
X19275226Y-3185596D01*
X19338691Y-3111289D01*
X19389752Y-3027965D01*
X19392443Y-3023939D01*
X19405659Y-3005749D01*
X19415881Y-2985686D01*
X19418217Y-2981514D01*
X19469293Y-2898166D01*
X19506698Y-2807861D01*
X19508699Y-2803520D01*
X19518926Y-2783449D01*
X19525887Y-2762023D01*
X19527544Y-2757534D01*
X19564947Y-2667236D01*
X19587761Y-2572209D01*
X19589063Y-2567590D01*
X19596024Y-2546168D01*
X19599549Y-2523906D01*
X19600479Y-2519234D01*
X19623299Y-2424186D01*
X19630966Y-2326759D01*
X19631537Y-2321943D01*
X19635053Y-2299746D01*
X19635668Y-2268371D01*
X19635844Y-2264775D01*
X19642910Y-2175000D01*
X19642910Y-2174999D01*
X41857090Y-2174999D01*
X41864756Y-2272408D01*
X41864947Y-2277274D01*
X41864947Y-2299746D01*
X41868461Y-2321943D01*
X41869033Y-2326774D01*
X41874642Y-2398024D01*
X41876701Y-2424186D01*
X41876701Y-2424189D01*
X41876702Y-2424191D01*
X41899510Y-2519195D01*
X41900460Y-2523971D01*
X41903976Y-2546170D01*
X41910921Y-2567542D01*
X41912242Y-2572228D01*
X41935052Y-2667235D01*
X41935054Y-2667241D01*
X41959618Y-2726543D01*
X41972446Y-2757512D01*
X41974127Y-2762070D01*
X41981072Y-2783445D01*
X41991280Y-2803480D01*
X41993318Y-2807901D01*
X42030706Y-2898166D01*
X42081751Y-2981462D01*
X42084130Y-2985710D01*
X42084136Y-2985721D01*
X42094341Y-3005749D01*
X42100688Y-3014485D01*
X42107556Y-3023939D01*
X42110260Y-3027987D01*
X42161305Y-3111283D01*
X42161309Y-3111289D01*
X42224759Y-3185579D01*
X42227763Y-3189390D01*
X42240989Y-3207593D01*
X42256898Y-3223502D01*
X42260191Y-3227065D01*
X42323643Y-3301357D01*
X42397926Y-3364801D01*
X42397932Y-3364806D01*
X42401495Y-3368099D01*
X42417407Y-3384011D01*
X42435613Y-3397238D01*
X42439407Y-3400229D01*
X42513711Y-3463691D01*
X42513713Y-3463692D01*
X42597014Y-3514739D01*
X42601051Y-3517436D01*
X42619251Y-3530659D01*
X42639309Y-3540879D01*
X42643500Y-3543225D01*
X42726834Y-3594293D01*
X42817133Y-3631696D01*
X42821501Y-3633710D01*
X42841551Y-3643926D01*
X42862951Y-3650879D01*
X42867492Y-3652555D01*
X42957764Y-3689947D01*
X42957766Y-3689947D01*
X42957770Y-3689949D01*
X43019790Y-3704838D01*
X43052773Y-3712757D01*
X43057438Y-3714072D01*
X43072872Y-3719087D01*
X43078828Y-3721023D01*
X43078829Y-3721023D01*
X43078832Y-3721024D01*
X43101049Y-3724542D01*
X43105775Y-3725481D01*
X43200814Y-3748299D01*
X43298234Y-3755966D01*
X43303051Y-3756536D01*
X43319801Y-3759189D01*
X43325253Y-3760053D01*
X43347725Y-3760053D01*
X43352591Y-3760244D01*
X43362438Y-3761018D01*
X43450000Y-3767910D01*
X43537561Y-3761018D01*
X43547409Y-3760244D01*
X43552275Y-3760053D01*
X43574743Y-3760053D01*
X43574746Y-3760053D01*
X43596954Y-3756535D01*
X43601756Y-3755966D01*
X43699186Y-3748299D01*
X43794234Y-3725479D01*
X43798906Y-3724549D01*
X43821168Y-3721024D01*
X43842590Y-3714063D01*
X43847209Y-3712761D01*
X43942236Y-3689947D01*
X44032534Y-3652544D01*
X44037023Y-3650887D01*
X44058449Y-3643926D01*
X44078520Y-3633699D01*
X44082861Y-3631698D01*
X44173166Y-3594293D01*
X44256514Y-3543217D01*
X44260686Y-3540881D01*
X44280749Y-3530659D01*
X44298948Y-3517436D01*
X44302964Y-3514752D01*
X44386289Y-3463691D01*
X44460596Y-3400226D01*
X44464376Y-3397245D01*
X44482593Y-3384011D01*
X44498507Y-3368096D01*
X44502048Y-3364822D01*
X44576357Y-3301357D01*
X44639822Y-3227048D01*
X44643096Y-3223507D01*
X44659011Y-3207593D01*
X44672245Y-3189376D01*
X44675226Y-3185596D01*
X44738691Y-3111289D01*
X44789752Y-3027965D01*
X44792443Y-3023939D01*
X44805659Y-3005749D01*
X44815881Y-2985686D01*
X44818217Y-2981514D01*
X44869293Y-2898166D01*
X44906698Y-2807861D01*
X44908699Y-2803520D01*
X44918926Y-2783449D01*
X44925887Y-2762023D01*
X44927544Y-2757534D01*
X44964947Y-2667236D01*
X44987761Y-2572209D01*
X44989063Y-2567590D01*
X44996024Y-2546168D01*
X44999549Y-2523906D01*
X45000479Y-2519234D01*
X45023299Y-2424186D01*
X45030966Y-2326759D01*
X45031537Y-2321943D01*
X45035053Y-2299746D01*
X45035668Y-2268371D01*
X45035844Y-2264775D01*
X45042910Y-2175000D01*
X45042910Y-2174999D01*
X67257090Y-2174999D01*
X67264756Y-2272408D01*
X67264947Y-2277274D01*
X67264947Y-2299746D01*
X67268461Y-2321943D01*
X67269033Y-2326774D01*
X67274642Y-2398024D01*
X67276701Y-2424186D01*
X67276701Y-2424189D01*
X67276702Y-2424191D01*
X67299510Y-2519195D01*
X67300460Y-2523971D01*
X67303976Y-2546170D01*
X67310921Y-2567542D01*
X67312242Y-2572228D01*
X67335052Y-2667235D01*
X67335054Y-2667241D01*
X67359618Y-2726543D01*
X67372446Y-2757512D01*
X67374127Y-2762070D01*
X67381072Y-2783445D01*
X67391280Y-2803480D01*
X67393318Y-2807901D01*
X67430706Y-2898166D01*
X67481751Y-2981462D01*
X67484130Y-2985710D01*
X67484136Y-2985721D01*
X67494341Y-3005749D01*
X67500688Y-3014485D01*
X67507556Y-3023939D01*
X67510260Y-3027987D01*
X67561305Y-3111283D01*
X67561309Y-3111289D01*
X67624759Y-3185579D01*
X67627763Y-3189390D01*
X67640989Y-3207593D01*
X67656898Y-3223502D01*
X67660191Y-3227065D01*
X67723643Y-3301357D01*
X67797926Y-3364801D01*
X67797932Y-3364806D01*
X67801495Y-3368099D01*
X67817407Y-3384011D01*
X67835613Y-3397238D01*
X67839407Y-3400229D01*
X67913711Y-3463691D01*
X67913713Y-3463692D01*
X67997014Y-3514739D01*
X68001051Y-3517436D01*
X68019251Y-3530659D01*
X68039309Y-3540879D01*
X68043500Y-3543225D01*
X68126834Y-3594293D01*
X68217133Y-3631696D01*
X68221501Y-3633710D01*
X68241551Y-3643926D01*
X68262951Y-3650879D01*
X68267492Y-3652555D01*
X68357764Y-3689947D01*
X68357766Y-3689947D01*
X68357770Y-3689949D01*
X68419790Y-3704838D01*
X68452773Y-3712757D01*
X68457438Y-3714072D01*
X68472872Y-3719087D01*
X68478828Y-3721023D01*
X68478829Y-3721023D01*
X68478832Y-3721024D01*
X68501049Y-3724542D01*
X68505775Y-3725481D01*
X68600814Y-3748299D01*
X68698234Y-3755966D01*
X68703051Y-3756536D01*
X68719801Y-3759189D01*
X68725253Y-3760053D01*
X68747725Y-3760053D01*
X68752591Y-3760244D01*
X68762438Y-3761018D01*
X68850000Y-3767910D01*
X68937561Y-3761018D01*
X68947409Y-3760244D01*
X68952275Y-3760053D01*
X68974743Y-3760053D01*
X68974746Y-3760053D01*
X68996954Y-3756535D01*
X69001756Y-3755966D01*
X69099186Y-3748299D01*
X69194234Y-3725479D01*
X69198906Y-3724549D01*
X69221168Y-3721024D01*
X69242590Y-3714063D01*
X69247209Y-3712761D01*
X69342236Y-3689947D01*
X69432534Y-3652544D01*
X69437023Y-3650887D01*
X69458449Y-3643926D01*
X69478520Y-3633699D01*
X69482861Y-3631698D01*
X69573166Y-3594293D01*
X69656514Y-3543217D01*
X69660686Y-3540881D01*
X69680749Y-3530659D01*
X69698948Y-3517436D01*
X69702964Y-3514752D01*
X69786289Y-3463691D01*
X69860596Y-3400226D01*
X69864376Y-3397245D01*
X69882593Y-3384011D01*
X69898507Y-3368096D01*
X69902048Y-3364822D01*
X69976357Y-3301357D01*
X70039822Y-3227048D01*
X70043096Y-3223507D01*
X70059011Y-3207593D01*
X70072245Y-3189376D01*
X70075226Y-3185596D01*
X70138691Y-3111289D01*
X70189752Y-3027965D01*
X70192443Y-3023939D01*
X70205659Y-3005749D01*
X70215881Y-2985686D01*
X70218217Y-2981514D01*
X70269293Y-2898166D01*
X70306698Y-2807861D01*
X70308699Y-2803520D01*
X70318926Y-2783449D01*
X70325887Y-2762023D01*
X70327544Y-2757534D01*
X70364947Y-2667236D01*
X70387761Y-2572209D01*
X70389063Y-2567590D01*
X70396024Y-2546168D01*
X70399549Y-2523906D01*
X70400479Y-2519234D01*
X70423299Y-2424186D01*
X70430966Y-2326759D01*
X70431537Y-2321943D01*
X70435053Y-2299746D01*
X70435668Y-2268371D01*
X70435844Y-2264775D01*
X70442910Y-2175000D01*
X70442910Y-2174999D01*
X92657090Y-2174999D01*
X92664756Y-2272408D01*
X92664947Y-2277274D01*
X92664947Y-2299746D01*
X92668461Y-2321943D01*
X92669033Y-2326774D01*
X92674642Y-2398024D01*
X92676701Y-2424186D01*
X92676701Y-2424189D01*
X92676702Y-2424191D01*
X92699510Y-2519195D01*
X92700460Y-2523971D01*
X92703976Y-2546170D01*
X92710921Y-2567542D01*
X92712242Y-2572228D01*
X92735052Y-2667235D01*
X92735054Y-2667241D01*
X92759618Y-2726543D01*
X92772446Y-2757512D01*
X92774127Y-2762070D01*
X92781072Y-2783445D01*
X92791280Y-2803480D01*
X92793318Y-2807901D01*
X92830706Y-2898166D01*
X92881751Y-2981462D01*
X92884130Y-2985710D01*
X92884136Y-2985721D01*
X92894341Y-3005749D01*
X92900688Y-3014485D01*
X92907556Y-3023939D01*
X92910260Y-3027987D01*
X92961305Y-3111283D01*
X92961309Y-3111289D01*
X93024759Y-3185579D01*
X93027763Y-3189390D01*
X93040989Y-3207593D01*
X93056898Y-3223502D01*
X93060191Y-3227065D01*
X93123643Y-3301357D01*
X93197926Y-3364801D01*
X93197932Y-3364806D01*
X93201495Y-3368099D01*
X93217407Y-3384011D01*
X93235613Y-3397238D01*
X93239407Y-3400229D01*
X93313711Y-3463691D01*
X93313713Y-3463692D01*
X93397014Y-3514739D01*
X93401051Y-3517436D01*
X93419251Y-3530659D01*
X93439309Y-3540879D01*
X93443500Y-3543225D01*
X93526834Y-3594293D01*
X93617133Y-3631696D01*
X93621501Y-3633710D01*
X93641551Y-3643926D01*
X93662951Y-3650879D01*
X93667492Y-3652555D01*
X93757764Y-3689947D01*
X93757766Y-3689947D01*
X93757770Y-3689949D01*
X93819790Y-3704838D01*
X93852773Y-3712757D01*
X93857438Y-3714072D01*
X93872872Y-3719087D01*
X93878828Y-3721023D01*
X93878829Y-3721023D01*
X93878832Y-3721024D01*
X93901049Y-3724542D01*
X93905775Y-3725481D01*
X94000814Y-3748299D01*
X94098234Y-3755966D01*
X94103051Y-3756536D01*
X94119801Y-3759189D01*
X94125253Y-3760053D01*
X94147725Y-3760053D01*
X94152591Y-3760244D01*
X94162438Y-3761018D01*
X94250000Y-3767910D01*
X94337561Y-3761018D01*
X94347409Y-3760244D01*
X94352275Y-3760053D01*
X94374743Y-3760053D01*
X94374746Y-3760053D01*
X94396954Y-3756535D01*
X94401756Y-3755966D01*
X94499186Y-3748299D01*
X94594234Y-3725479D01*
X94598906Y-3724549D01*
X94621168Y-3721024D01*
X94642590Y-3714063D01*
X94647209Y-3712761D01*
X94742236Y-3689947D01*
X94832534Y-3652544D01*
X94837023Y-3650887D01*
X94858449Y-3643926D01*
X94878520Y-3633699D01*
X94882861Y-3631698D01*
X94973166Y-3594293D01*
X95056514Y-3543217D01*
X95060686Y-3540881D01*
X95080749Y-3530659D01*
X95098948Y-3517436D01*
X95102964Y-3514752D01*
X95186289Y-3463691D01*
X95260596Y-3400226D01*
X95264376Y-3397245D01*
X95282593Y-3384011D01*
X95298507Y-3368096D01*
X95302048Y-3364822D01*
X95376357Y-3301357D01*
X95439822Y-3227048D01*
X95443096Y-3223507D01*
X95459011Y-3207593D01*
X95472245Y-3189376D01*
X95475226Y-3185596D01*
X95538691Y-3111289D01*
X95589752Y-3027965D01*
X95592443Y-3023939D01*
X95605659Y-3005749D01*
X95615881Y-2985686D01*
X95618217Y-2981514D01*
X95669293Y-2898166D01*
X95706698Y-2807861D01*
X95708699Y-2803520D01*
X95718926Y-2783449D01*
X95725887Y-2762023D01*
X95727544Y-2757534D01*
X95764947Y-2667236D01*
X95787761Y-2572209D01*
X95789063Y-2567590D01*
X95796024Y-2546168D01*
X95799549Y-2523906D01*
X95800479Y-2519234D01*
X95823299Y-2424186D01*
X95830966Y-2326759D01*
X95831537Y-2321943D01*
X95835053Y-2299746D01*
X95835668Y-2268371D01*
X95835844Y-2264775D01*
X95842910Y-2175000D01*
X95842910Y-2174999D01*
X118057090Y-2174999D01*
X118064756Y-2272408D01*
X118064947Y-2277274D01*
X118064947Y-2299746D01*
X118068461Y-2321943D01*
X118069033Y-2326774D01*
X118074642Y-2398024D01*
X118076701Y-2424186D01*
X118076701Y-2424189D01*
X118076702Y-2424191D01*
X118099510Y-2519195D01*
X118100460Y-2523971D01*
X118103976Y-2546170D01*
X118110921Y-2567542D01*
X118112242Y-2572228D01*
X118135052Y-2667235D01*
X118135054Y-2667241D01*
X118159618Y-2726543D01*
X118172446Y-2757512D01*
X118174127Y-2762070D01*
X118181072Y-2783445D01*
X118191280Y-2803480D01*
X118193318Y-2807901D01*
X118230706Y-2898166D01*
X118281751Y-2981462D01*
X118284130Y-2985710D01*
X118284136Y-2985721D01*
X118294341Y-3005749D01*
X118300688Y-3014485D01*
X118307556Y-3023939D01*
X118310260Y-3027987D01*
X118361305Y-3111283D01*
X118361309Y-3111289D01*
X118424759Y-3185579D01*
X118427763Y-3189390D01*
X118440989Y-3207593D01*
X118456898Y-3223502D01*
X118460191Y-3227065D01*
X118523643Y-3301357D01*
X118597926Y-3364801D01*
X118597932Y-3364806D01*
X118601495Y-3368099D01*
X118617407Y-3384011D01*
X118635613Y-3397238D01*
X118639407Y-3400229D01*
X118713711Y-3463691D01*
X118713713Y-3463692D01*
X118797014Y-3514739D01*
X118801051Y-3517436D01*
X118819251Y-3530659D01*
X118839309Y-3540879D01*
X118843500Y-3543225D01*
X118926834Y-3594293D01*
X119017133Y-3631696D01*
X119021501Y-3633710D01*
X119041551Y-3643926D01*
X119062951Y-3650879D01*
X119067492Y-3652555D01*
X119157764Y-3689947D01*
X119157766Y-3689947D01*
X119157770Y-3689949D01*
X119219790Y-3704838D01*
X119252773Y-3712757D01*
X119257438Y-3714072D01*
X119272872Y-3719087D01*
X119278828Y-3721023D01*
X119278829Y-3721023D01*
X119278832Y-3721024D01*
X119301049Y-3724542D01*
X119305775Y-3725481D01*
X119400814Y-3748299D01*
X119498234Y-3755966D01*
X119503051Y-3756536D01*
X119519801Y-3759189D01*
X119525253Y-3760053D01*
X119547725Y-3760053D01*
X119552591Y-3760244D01*
X119562438Y-3761018D01*
X119650000Y-3767910D01*
X119737561Y-3761018D01*
X119747409Y-3760244D01*
X119752275Y-3760053D01*
X119774743Y-3760053D01*
X119774746Y-3760053D01*
X119796954Y-3756535D01*
X119801756Y-3755966D01*
X119899186Y-3748299D01*
X119994234Y-3725479D01*
X119998906Y-3724549D01*
X120021168Y-3721024D01*
X120042590Y-3714063D01*
X120047209Y-3712761D01*
X120142236Y-3689947D01*
X120232534Y-3652544D01*
X120237023Y-3650887D01*
X120258449Y-3643926D01*
X120278520Y-3633699D01*
X120282861Y-3631698D01*
X120373166Y-3594293D01*
X120456514Y-3543217D01*
X120460686Y-3540881D01*
X120480749Y-3530659D01*
X120498948Y-3517436D01*
X120502964Y-3514752D01*
X120586289Y-3463691D01*
X120660596Y-3400226D01*
X120664376Y-3397245D01*
X120682593Y-3384011D01*
X120698507Y-3368096D01*
X120702048Y-3364822D01*
X120776357Y-3301357D01*
X120839822Y-3227048D01*
X120843096Y-3223507D01*
X120859011Y-3207593D01*
X120872245Y-3189376D01*
X120875226Y-3185596D01*
X120938691Y-3111289D01*
X120989752Y-3027965D01*
X120992443Y-3023939D01*
X121005659Y-3005749D01*
X121015881Y-2985686D01*
X121018217Y-2981514D01*
X121069293Y-2898166D01*
X121106698Y-2807861D01*
X121108699Y-2803520D01*
X121118926Y-2783449D01*
X121125887Y-2762023D01*
X121127544Y-2757534D01*
X121164947Y-2667236D01*
X121187761Y-2572209D01*
X121189063Y-2567590D01*
X121196024Y-2546168D01*
X121199549Y-2523906D01*
X121200479Y-2519234D01*
X121223299Y-2424186D01*
X121230966Y-2326759D01*
X121231537Y-2321943D01*
X121235053Y-2299746D01*
X121235668Y-2268371D01*
X121235844Y-2264775D01*
X121242910Y-2175000D01*
X121242910Y-2174999D01*
X143457090Y-2174999D01*
X143464756Y-2272408D01*
X143464947Y-2277274D01*
X143464947Y-2299746D01*
X143468461Y-2321943D01*
X143469033Y-2326774D01*
X143474642Y-2398024D01*
X143476701Y-2424186D01*
X143476701Y-2424189D01*
X143476702Y-2424191D01*
X143499510Y-2519195D01*
X143500460Y-2523971D01*
X143503976Y-2546170D01*
X143510921Y-2567542D01*
X143512242Y-2572228D01*
X143535052Y-2667235D01*
X143535054Y-2667241D01*
X143559618Y-2726543D01*
X143572446Y-2757512D01*
X143574127Y-2762070D01*
X143581072Y-2783445D01*
X143591280Y-2803480D01*
X143593318Y-2807901D01*
X143630706Y-2898166D01*
X143681751Y-2981462D01*
X143684130Y-2985710D01*
X143684136Y-2985721D01*
X143694341Y-3005749D01*
X143700688Y-3014485D01*
X143707556Y-3023939D01*
X143710260Y-3027987D01*
X143761305Y-3111283D01*
X143761309Y-3111289D01*
X143824759Y-3185579D01*
X143827763Y-3189390D01*
X143840989Y-3207593D01*
X143856898Y-3223502D01*
X143860191Y-3227065D01*
X143923643Y-3301357D01*
X143997926Y-3364801D01*
X143997932Y-3364806D01*
X144001495Y-3368099D01*
X144017407Y-3384011D01*
X144035613Y-3397238D01*
X144039407Y-3400229D01*
X144113711Y-3463691D01*
X144113713Y-3463692D01*
X144197014Y-3514739D01*
X144201051Y-3517436D01*
X144219251Y-3530659D01*
X144239309Y-3540879D01*
X144243500Y-3543225D01*
X144326834Y-3594293D01*
X144417133Y-3631696D01*
X144421501Y-3633710D01*
X144441551Y-3643926D01*
X144462951Y-3650879D01*
X144467492Y-3652555D01*
X144557764Y-3689947D01*
X144557766Y-3689947D01*
X144557770Y-3689949D01*
X144619790Y-3704838D01*
X144652773Y-3712757D01*
X144657438Y-3714072D01*
X144672872Y-3719087D01*
X144678828Y-3721023D01*
X144678829Y-3721023D01*
X144678832Y-3721024D01*
X144701049Y-3724542D01*
X144705775Y-3725481D01*
X144800814Y-3748299D01*
X144898234Y-3755966D01*
X144903051Y-3756536D01*
X144919801Y-3759189D01*
X144925253Y-3760053D01*
X144947725Y-3760053D01*
X144952591Y-3760244D01*
X144962438Y-3761018D01*
X145050000Y-3767910D01*
X145137561Y-3761018D01*
X145147409Y-3760244D01*
X145152275Y-3760053D01*
X145174743Y-3760053D01*
X145174746Y-3760053D01*
X145196954Y-3756535D01*
X145201756Y-3755966D01*
X145299186Y-3748299D01*
X145394234Y-3725479D01*
X145398906Y-3724549D01*
X145421168Y-3721024D01*
X145442590Y-3714063D01*
X145447209Y-3712761D01*
X145542236Y-3689947D01*
X145632534Y-3652544D01*
X145637023Y-3650887D01*
X145658449Y-3643926D01*
X145678520Y-3633699D01*
X145682861Y-3631698D01*
X145773166Y-3594293D01*
X145856514Y-3543217D01*
X145860686Y-3540881D01*
X145880749Y-3530659D01*
X145898948Y-3517436D01*
X145902964Y-3514752D01*
X145986289Y-3463691D01*
X146060596Y-3400226D01*
X146064376Y-3397245D01*
X146082593Y-3384011D01*
X146098507Y-3368096D01*
X146102048Y-3364822D01*
X146176357Y-3301357D01*
X146239822Y-3227048D01*
X146243096Y-3223507D01*
X146259011Y-3207593D01*
X146272245Y-3189376D01*
X146275226Y-3185596D01*
X146338691Y-3111289D01*
X146389752Y-3027965D01*
X146392443Y-3023939D01*
X146405659Y-3005749D01*
X146415881Y-2985686D01*
X146418217Y-2981514D01*
X146469293Y-2898166D01*
X146506698Y-2807861D01*
X146508699Y-2803520D01*
X146518926Y-2783449D01*
X146525887Y-2762023D01*
X146527544Y-2757534D01*
X146564947Y-2667236D01*
X146587761Y-2572209D01*
X146589063Y-2567590D01*
X146596024Y-2546168D01*
X146599549Y-2523906D01*
X146600479Y-2519234D01*
X146623299Y-2424186D01*
X146630966Y-2326759D01*
X146631537Y-2321943D01*
X146635053Y-2299746D01*
X146635668Y-2268371D01*
X146635844Y-2264775D01*
X146642910Y-2175000D01*
X146635844Y-2085227D01*
X146635668Y-2081624D01*
X146635053Y-2050254D01*
X146631537Y-2028054D01*
X146630965Y-2023227D01*
X146623299Y-1925814D01*
X146600481Y-1830775D01*
X146599542Y-1826049D01*
X146596024Y-1803832D01*
X146589072Y-1782438D01*
X146587757Y-1777773D01*
X146579838Y-1744790D01*
X146564949Y-1682770D01*
X146564944Y-1682758D01*
X146527555Y-1592492D01*
X146525874Y-1587936D01*
X146518926Y-1566551D01*
X146508710Y-1546501D01*
X146506696Y-1542133D01*
X146469293Y-1451834D01*
X146418225Y-1368500D01*
X146415879Y-1364309D01*
X146405659Y-1344251D01*
X146392436Y-1326051D01*
X146389739Y-1322014D01*
X146338691Y-1238711D01*
X146275229Y-1164407D01*
X146272238Y-1160613D01*
X146259011Y-1142407D01*
X146243099Y-1126495D01*
X146239806Y-1122932D01*
X146239801Y-1122926D01*
X146176357Y-1048643D01*
X146102065Y-985191D01*
X146098499Y-981895D01*
X146082593Y-965989D01*
X146064390Y-952763D01*
X146060579Y-949759D01*
X146060578Y-949758D01*
X145986289Y-886309D01*
X145986283Y-886305D01*
X145902987Y-835260D01*
X145898939Y-832556D01*
X145889485Y-825688D01*
X145880749Y-819341D01*
X145872057Y-814912D01*
X145860710Y-809130D01*
X145856462Y-806751D01*
X145773166Y-755706D01*
X145682901Y-718318D01*
X145678480Y-716280D01*
X145672054Y-713006D01*
X145658449Y-706074D01*
X145658446Y-706073D01*
X145658444Y-706072D01*
X145658445Y-706072D01*
X145637070Y-699127D01*
X145632512Y-697446D01*
X145601543Y-684618D01*
X145542241Y-660054D01*
X145542235Y-660052D01*
X145447228Y-637242D01*
X145442542Y-635921D01*
X145421170Y-628976D01*
X145398971Y-625460D01*
X145394195Y-624510D01*
X145299191Y-601702D01*
X145299189Y-601701D01*
X145299186Y-601701D01*
X145273024Y-599642D01*
X145201774Y-594033D01*
X145196943Y-593461D01*
X145174746Y-589947D01*
X145152275Y-589947D01*
X145147409Y-589756D01*
X145050000Y-582090D01*
X144952591Y-589756D01*
X144947725Y-589947D01*
X144925255Y-589947D01*
X144925254Y-589947D01*
X144923088Y-590290D01*
X144903058Y-593461D01*
X144898227Y-594033D01*
X144800811Y-601701D01*
X144800806Y-601702D01*
X144705804Y-624510D01*
X144701029Y-625460D01*
X144678828Y-628976D01*
X144657451Y-635922D01*
X144652767Y-637243D01*
X144557767Y-660052D01*
X144557758Y-660055D01*
X144467501Y-697440D01*
X144462936Y-699124D01*
X144441562Y-706069D01*
X144441545Y-706076D01*
X144421517Y-716280D01*
X144417097Y-718318D01*
X144326841Y-755703D01*
X144326829Y-755709D01*
X144243531Y-806754D01*
X144239285Y-809132D01*
X144219253Y-819339D01*
X144219244Y-819345D01*
X144201057Y-832557D01*
X144197013Y-835259D01*
X144113708Y-886311D01*
X144039420Y-949758D01*
X144035598Y-952771D01*
X144017414Y-965982D01*
X144017408Y-965987D01*
X144001498Y-981895D01*
X143997926Y-985197D01*
X143923642Y-1048642D01*
X143860197Y-1122926D01*
X143856895Y-1126498D01*
X143840987Y-1142408D01*
X143840982Y-1142414D01*
X143827771Y-1160598D01*
X143824758Y-1164420D01*
X143761311Y-1238708D01*
X143710259Y-1322013D01*
X143707557Y-1326057D01*
X143694345Y-1344244D01*
X143694339Y-1344253D01*
X143684132Y-1364285D01*
X143681754Y-1368531D01*
X143630709Y-1451829D01*
X143630703Y-1451841D01*
X143593318Y-1542097D01*
X143591280Y-1546517D01*
X143581076Y-1566545D01*
X143581069Y-1566562D01*
X143574124Y-1587936D01*
X143572440Y-1592501D01*
X143535055Y-1682758D01*
X143535052Y-1682767D01*
X143512243Y-1777767D01*
X143510922Y-1782451D01*
X143503976Y-1803828D01*
X143500460Y-1826029D01*
X143499510Y-1830804D01*
X143476702Y-1925806D01*
X143476701Y-1925811D01*
X143469033Y-2023227D01*
X143468461Y-2028058D01*
X143464947Y-2050254D01*
X143464947Y-2072725D01*
X143464756Y-2077591D01*
X143457090Y-2174999D01*
X121242910Y-2174999D01*
X121235844Y-2085227D01*
X121235668Y-2081624D01*
X121235053Y-2050254D01*
X121231537Y-2028054D01*
X121230965Y-2023227D01*
X121223299Y-1925814D01*
X121200481Y-1830775D01*
X121199542Y-1826049D01*
X121196024Y-1803832D01*
X121189072Y-1782438D01*
X121187757Y-1777773D01*
X121179838Y-1744790D01*
X121164949Y-1682770D01*
X121164944Y-1682758D01*
X121127555Y-1592492D01*
X121125874Y-1587936D01*
X121118926Y-1566551D01*
X121108710Y-1546501D01*
X121106696Y-1542133D01*
X121069293Y-1451834D01*
X121018225Y-1368500D01*
X121015879Y-1364309D01*
X121005659Y-1344251D01*
X120992436Y-1326051D01*
X120989739Y-1322014D01*
X120938691Y-1238711D01*
X120875229Y-1164407D01*
X120872238Y-1160613D01*
X120859011Y-1142407D01*
X120843099Y-1126495D01*
X120839806Y-1122932D01*
X120839801Y-1122926D01*
X120776357Y-1048643D01*
X120702065Y-985191D01*
X120698499Y-981895D01*
X120682593Y-965989D01*
X120664390Y-952763D01*
X120660579Y-949759D01*
X120660578Y-949758D01*
X120586289Y-886309D01*
X120586283Y-886305D01*
X120502987Y-835260D01*
X120498939Y-832556D01*
X120489485Y-825688D01*
X120480749Y-819341D01*
X120472057Y-814912D01*
X120460710Y-809130D01*
X120456462Y-806751D01*
X120373166Y-755706D01*
X120282901Y-718318D01*
X120278480Y-716280D01*
X120272054Y-713006D01*
X120258449Y-706074D01*
X120258446Y-706073D01*
X120258444Y-706072D01*
X120258445Y-706072D01*
X120237070Y-699127D01*
X120232512Y-697446D01*
X120201543Y-684618D01*
X120142241Y-660054D01*
X120142235Y-660052D01*
X120047228Y-637242D01*
X120042542Y-635921D01*
X120021170Y-628976D01*
X119998971Y-625460D01*
X119994195Y-624510D01*
X119899191Y-601702D01*
X119899189Y-601701D01*
X119899186Y-601701D01*
X119873024Y-599642D01*
X119801774Y-594033D01*
X119796943Y-593461D01*
X119774746Y-589947D01*
X119752275Y-589947D01*
X119747409Y-589756D01*
X119650000Y-582090D01*
X119552591Y-589756D01*
X119547725Y-589947D01*
X119525255Y-589947D01*
X119525254Y-589947D01*
X119523088Y-590290D01*
X119503058Y-593461D01*
X119498227Y-594033D01*
X119400811Y-601701D01*
X119400806Y-601702D01*
X119305804Y-624510D01*
X119301029Y-625460D01*
X119278828Y-628976D01*
X119257451Y-635922D01*
X119252767Y-637243D01*
X119157767Y-660052D01*
X119157758Y-660055D01*
X119067501Y-697440D01*
X119062936Y-699124D01*
X119041562Y-706069D01*
X119041545Y-706076D01*
X119021517Y-716280D01*
X119017097Y-718318D01*
X118926841Y-755703D01*
X118926829Y-755709D01*
X118843531Y-806754D01*
X118839285Y-809132D01*
X118819253Y-819339D01*
X118819244Y-819345D01*
X118801057Y-832557D01*
X118797013Y-835259D01*
X118713708Y-886311D01*
X118639420Y-949758D01*
X118635598Y-952771D01*
X118617414Y-965982D01*
X118617408Y-965987D01*
X118601498Y-981895D01*
X118597926Y-985197D01*
X118523642Y-1048642D01*
X118460197Y-1122926D01*
X118456895Y-1126498D01*
X118440987Y-1142408D01*
X118440982Y-1142414D01*
X118427771Y-1160598D01*
X118424758Y-1164420D01*
X118361311Y-1238708D01*
X118310259Y-1322013D01*
X118307557Y-1326057D01*
X118294345Y-1344244D01*
X118294339Y-1344253D01*
X118284132Y-1364285D01*
X118281754Y-1368531D01*
X118230709Y-1451829D01*
X118230703Y-1451841D01*
X118193318Y-1542097D01*
X118191280Y-1546517D01*
X118181076Y-1566545D01*
X118181069Y-1566562D01*
X118174124Y-1587936D01*
X118172440Y-1592501D01*
X118135055Y-1682758D01*
X118135052Y-1682767D01*
X118112243Y-1777767D01*
X118110922Y-1782451D01*
X118103976Y-1803828D01*
X118100460Y-1826029D01*
X118099510Y-1830804D01*
X118076702Y-1925806D01*
X118076701Y-1925811D01*
X118069033Y-2023227D01*
X118068461Y-2028058D01*
X118064947Y-2050254D01*
X118064947Y-2072725D01*
X118064756Y-2077591D01*
X118057090Y-2174999D01*
X95842910Y-2174999D01*
X95835844Y-2085227D01*
X95835668Y-2081624D01*
X95835053Y-2050254D01*
X95831537Y-2028054D01*
X95830965Y-2023227D01*
X95823299Y-1925814D01*
X95800481Y-1830775D01*
X95799542Y-1826049D01*
X95796024Y-1803832D01*
X95789072Y-1782438D01*
X95787757Y-1777773D01*
X95779838Y-1744790D01*
X95764949Y-1682770D01*
X95764944Y-1682758D01*
X95727555Y-1592492D01*
X95725874Y-1587936D01*
X95718926Y-1566551D01*
X95708710Y-1546501D01*
X95706696Y-1542133D01*
X95669293Y-1451834D01*
X95618225Y-1368500D01*
X95615879Y-1364309D01*
X95605659Y-1344251D01*
X95592436Y-1326051D01*
X95589739Y-1322014D01*
X95538691Y-1238711D01*
X95475229Y-1164407D01*
X95472238Y-1160613D01*
X95459011Y-1142407D01*
X95443099Y-1126495D01*
X95439806Y-1122932D01*
X95439801Y-1122926D01*
X95376357Y-1048643D01*
X95302065Y-985191D01*
X95298499Y-981895D01*
X95282593Y-965989D01*
X95264390Y-952763D01*
X95260579Y-949759D01*
X95260578Y-949758D01*
X95186289Y-886309D01*
X95186283Y-886305D01*
X95102987Y-835260D01*
X95098939Y-832556D01*
X95089485Y-825688D01*
X95080749Y-819341D01*
X95072057Y-814912D01*
X95060710Y-809130D01*
X95056462Y-806751D01*
X94973166Y-755706D01*
X94882901Y-718318D01*
X94878480Y-716280D01*
X94872054Y-713006D01*
X94858449Y-706074D01*
X94858446Y-706073D01*
X94858444Y-706072D01*
X94858445Y-706072D01*
X94837070Y-699127D01*
X94832512Y-697446D01*
X94801543Y-684618D01*
X94742241Y-660054D01*
X94742235Y-660052D01*
X94647228Y-637242D01*
X94642542Y-635921D01*
X94621170Y-628976D01*
X94598971Y-625460D01*
X94594195Y-624510D01*
X94499191Y-601702D01*
X94499189Y-601701D01*
X94499186Y-601701D01*
X94473024Y-599642D01*
X94401774Y-594033D01*
X94396943Y-593461D01*
X94374746Y-589947D01*
X94352275Y-589947D01*
X94347409Y-589756D01*
X94250000Y-582090D01*
X94152591Y-589756D01*
X94147725Y-589947D01*
X94125255Y-589947D01*
X94125254Y-589947D01*
X94123088Y-590290D01*
X94103058Y-593461D01*
X94098227Y-594033D01*
X94000811Y-601701D01*
X94000806Y-601702D01*
X93905804Y-624510D01*
X93901029Y-625460D01*
X93878828Y-628976D01*
X93857451Y-635922D01*
X93852767Y-637243D01*
X93757767Y-660052D01*
X93757758Y-660055D01*
X93667501Y-697440D01*
X93662936Y-699124D01*
X93641562Y-706069D01*
X93641545Y-706076D01*
X93621517Y-716280D01*
X93617097Y-718318D01*
X93526841Y-755703D01*
X93526829Y-755709D01*
X93443531Y-806754D01*
X93439285Y-809132D01*
X93419253Y-819339D01*
X93419244Y-819345D01*
X93401057Y-832557D01*
X93397013Y-835259D01*
X93313708Y-886311D01*
X93239420Y-949758D01*
X93235598Y-952771D01*
X93217414Y-965982D01*
X93217408Y-965987D01*
X93201498Y-981895D01*
X93197926Y-985197D01*
X93123642Y-1048642D01*
X93060197Y-1122926D01*
X93056895Y-1126498D01*
X93040987Y-1142408D01*
X93040982Y-1142414D01*
X93027771Y-1160598D01*
X93024758Y-1164420D01*
X92961311Y-1238708D01*
X92910259Y-1322013D01*
X92907557Y-1326057D01*
X92894345Y-1344244D01*
X92894339Y-1344253D01*
X92884132Y-1364285D01*
X92881754Y-1368531D01*
X92830709Y-1451829D01*
X92830703Y-1451841D01*
X92793318Y-1542097D01*
X92791280Y-1546517D01*
X92781076Y-1566545D01*
X92781069Y-1566562D01*
X92774124Y-1587936D01*
X92772440Y-1592501D01*
X92735055Y-1682758D01*
X92735052Y-1682767D01*
X92712243Y-1777767D01*
X92710922Y-1782451D01*
X92703976Y-1803828D01*
X92700460Y-1826029D01*
X92699510Y-1830804D01*
X92676702Y-1925806D01*
X92676701Y-1925811D01*
X92669033Y-2023227D01*
X92668461Y-2028058D01*
X92664947Y-2050254D01*
X92664947Y-2072725D01*
X92664756Y-2077591D01*
X92657090Y-2174999D01*
X70442910Y-2174999D01*
X70435844Y-2085227D01*
X70435668Y-2081624D01*
X70435053Y-2050254D01*
X70431537Y-2028054D01*
X70430965Y-2023227D01*
X70423299Y-1925814D01*
X70400481Y-1830775D01*
X70399542Y-1826049D01*
X70396024Y-1803832D01*
X70389072Y-1782438D01*
X70387757Y-1777773D01*
X70379838Y-1744790D01*
X70364949Y-1682770D01*
X70364944Y-1682758D01*
X70327555Y-1592492D01*
X70325874Y-1587936D01*
X70318926Y-1566551D01*
X70308710Y-1546501D01*
X70306696Y-1542133D01*
X70269293Y-1451834D01*
X70218225Y-1368500D01*
X70215879Y-1364309D01*
X70205659Y-1344251D01*
X70192436Y-1326051D01*
X70189739Y-1322014D01*
X70138691Y-1238711D01*
X70075229Y-1164407D01*
X70072238Y-1160613D01*
X70059011Y-1142407D01*
X70043099Y-1126495D01*
X70039806Y-1122932D01*
X70039801Y-1122926D01*
X69976357Y-1048643D01*
X69902065Y-985191D01*
X69898499Y-981895D01*
X69882593Y-965989D01*
X69864390Y-952763D01*
X69860579Y-949759D01*
X69860578Y-949758D01*
X69786289Y-886309D01*
X69786283Y-886305D01*
X69702987Y-835260D01*
X69698939Y-832556D01*
X69689485Y-825688D01*
X69680749Y-819341D01*
X69672057Y-814912D01*
X69660710Y-809130D01*
X69656462Y-806751D01*
X69573166Y-755706D01*
X69482901Y-718318D01*
X69478480Y-716280D01*
X69472054Y-713006D01*
X69458449Y-706074D01*
X69458446Y-706073D01*
X69458444Y-706072D01*
X69458445Y-706072D01*
X69437070Y-699127D01*
X69432512Y-697446D01*
X69401543Y-684618D01*
X69342241Y-660054D01*
X69342235Y-660052D01*
X69247228Y-637242D01*
X69242542Y-635921D01*
X69221170Y-628976D01*
X69198971Y-625460D01*
X69194195Y-624510D01*
X69099191Y-601702D01*
X69099189Y-601701D01*
X69099186Y-601701D01*
X69073024Y-599642D01*
X69001774Y-594033D01*
X68996943Y-593461D01*
X68974746Y-589947D01*
X68952275Y-589947D01*
X68947409Y-589756D01*
X68850000Y-582090D01*
X68752591Y-589756D01*
X68747725Y-589947D01*
X68725255Y-589947D01*
X68725254Y-589947D01*
X68723088Y-590290D01*
X68703058Y-593461D01*
X68698227Y-594033D01*
X68600811Y-601701D01*
X68600806Y-601702D01*
X68505804Y-624510D01*
X68501029Y-625460D01*
X68478828Y-628976D01*
X68457451Y-635922D01*
X68452767Y-637243D01*
X68357767Y-660052D01*
X68357758Y-660055D01*
X68267501Y-697440D01*
X68262936Y-699124D01*
X68241562Y-706069D01*
X68241545Y-706076D01*
X68221517Y-716280D01*
X68217097Y-718318D01*
X68126841Y-755703D01*
X68126829Y-755709D01*
X68043531Y-806754D01*
X68039285Y-809132D01*
X68019253Y-819339D01*
X68019244Y-819345D01*
X68001057Y-832557D01*
X67997013Y-835259D01*
X67913708Y-886311D01*
X67839420Y-949758D01*
X67835598Y-952771D01*
X67817414Y-965982D01*
X67817408Y-965987D01*
X67801498Y-981895D01*
X67797926Y-985197D01*
X67723642Y-1048642D01*
X67660197Y-1122926D01*
X67656895Y-1126498D01*
X67640987Y-1142408D01*
X67640982Y-1142414D01*
X67627771Y-1160598D01*
X67624758Y-1164420D01*
X67561311Y-1238708D01*
X67510259Y-1322013D01*
X67507557Y-1326057D01*
X67494345Y-1344244D01*
X67494339Y-1344253D01*
X67484132Y-1364285D01*
X67481754Y-1368531D01*
X67430709Y-1451829D01*
X67430703Y-1451841D01*
X67393318Y-1542097D01*
X67391280Y-1546517D01*
X67381076Y-1566545D01*
X67381069Y-1566562D01*
X67374124Y-1587936D01*
X67372440Y-1592501D01*
X67335055Y-1682758D01*
X67335052Y-1682767D01*
X67312243Y-1777767D01*
X67310922Y-1782451D01*
X67303976Y-1803828D01*
X67300460Y-1826029D01*
X67299510Y-1830804D01*
X67276702Y-1925806D01*
X67276701Y-1925811D01*
X67269033Y-2023227D01*
X67268461Y-2028058D01*
X67264947Y-2050254D01*
X67264947Y-2072725D01*
X67264756Y-2077591D01*
X67257090Y-2174999D01*
X45042910Y-2174999D01*
X45035844Y-2085227D01*
X45035668Y-2081624D01*
X45035053Y-2050254D01*
X45031537Y-2028054D01*
X45030965Y-2023227D01*
X45023299Y-1925814D01*
X45000481Y-1830775D01*
X44999542Y-1826049D01*
X44996024Y-1803832D01*
X44989072Y-1782438D01*
X44987757Y-1777773D01*
X44979838Y-1744790D01*
X44964949Y-1682770D01*
X44964944Y-1682758D01*
X44927555Y-1592492D01*
X44925874Y-1587936D01*
X44918926Y-1566551D01*
X44908710Y-1546501D01*
X44906696Y-1542133D01*
X44869293Y-1451834D01*
X44818225Y-1368500D01*
X44815879Y-1364309D01*
X44805659Y-1344251D01*
X44792436Y-1326051D01*
X44789739Y-1322014D01*
X44738691Y-1238711D01*
X44675229Y-1164407D01*
X44672238Y-1160613D01*
X44659011Y-1142407D01*
X44643099Y-1126495D01*
X44639806Y-1122932D01*
X44639801Y-1122926D01*
X44576357Y-1048643D01*
X44502065Y-985191D01*
X44498499Y-981895D01*
X44482593Y-965989D01*
X44464390Y-952763D01*
X44460579Y-949759D01*
X44460578Y-949758D01*
X44386289Y-886309D01*
X44386283Y-886305D01*
X44302987Y-835260D01*
X44298939Y-832556D01*
X44289485Y-825688D01*
X44280749Y-819341D01*
X44272057Y-814912D01*
X44260710Y-809130D01*
X44256462Y-806751D01*
X44173166Y-755706D01*
X44082901Y-718318D01*
X44078480Y-716280D01*
X44072054Y-713006D01*
X44058449Y-706074D01*
X44058446Y-706073D01*
X44058444Y-706072D01*
X44058445Y-706072D01*
X44037070Y-699127D01*
X44032512Y-697446D01*
X44001543Y-684618D01*
X43942241Y-660054D01*
X43942235Y-660052D01*
X43847228Y-637242D01*
X43842542Y-635921D01*
X43821170Y-628976D01*
X43798971Y-625460D01*
X43794195Y-624510D01*
X43699191Y-601702D01*
X43699189Y-601701D01*
X43699186Y-601701D01*
X43673024Y-599642D01*
X43601774Y-594033D01*
X43596943Y-593461D01*
X43574746Y-589947D01*
X43552275Y-589947D01*
X43547409Y-589756D01*
X43450000Y-582090D01*
X43352591Y-589756D01*
X43347725Y-589947D01*
X43325255Y-589947D01*
X43325254Y-589947D01*
X43323088Y-590290D01*
X43303058Y-593461D01*
X43298227Y-594033D01*
X43200811Y-601701D01*
X43200806Y-601702D01*
X43105804Y-624510D01*
X43101029Y-625460D01*
X43078828Y-628976D01*
X43057451Y-635922D01*
X43052767Y-637243D01*
X42957767Y-660052D01*
X42957758Y-660055D01*
X42867501Y-697440D01*
X42862936Y-699124D01*
X42841562Y-706069D01*
X42841545Y-706076D01*
X42821517Y-716280D01*
X42817097Y-718318D01*
X42726841Y-755703D01*
X42726829Y-755709D01*
X42643531Y-806754D01*
X42639285Y-809132D01*
X42619253Y-819339D01*
X42619244Y-819345D01*
X42601057Y-832557D01*
X42597013Y-835259D01*
X42513708Y-886311D01*
X42439420Y-949758D01*
X42435598Y-952771D01*
X42417414Y-965982D01*
X42417408Y-965987D01*
X42401498Y-981895D01*
X42397926Y-985197D01*
X42323642Y-1048642D01*
X42260197Y-1122926D01*
X42256895Y-1126498D01*
X42240987Y-1142408D01*
X42240982Y-1142414D01*
X42227771Y-1160598D01*
X42224758Y-1164420D01*
X42161311Y-1238708D01*
X42110259Y-1322013D01*
X42107557Y-1326057D01*
X42094345Y-1344244D01*
X42094339Y-1344253D01*
X42084132Y-1364285D01*
X42081754Y-1368531D01*
X42030709Y-1451829D01*
X42030703Y-1451841D01*
X41993318Y-1542097D01*
X41991280Y-1546517D01*
X41981076Y-1566545D01*
X41981069Y-1566562D01*
X41974124Y-1587936D01*
X41972440Y-1592501D01*
X41935055Y-1682758D01*
X41935052Y-1682767D01*
X41912243Y-1777767D01*
X41910922Y-1782451D01*
X41903976Y-1803828D01*
X41900460Y-1826029D01*
X41899510Y-1830804D01*
X41876702Y-1925806D01*
X41876701Y-1925811D01*
X41869033Y-2023227D01*
X41868461Y-2028058D01*
X41864947Y-2050254D01*
X41864947Y-2072725D01*
X41864756Y-2077591D01*
X41857090Y-2174999D01*
X19642910Y-2174999D01*
X19635844Y-2085227D01*
X19635668Y-2081624D01*
X19635053Y-2050254D01*
X19631537Y-2028054D01*
X19630965Y-2023227D01*
X19623299Y-1925814D01*
X19600481Y-1830775D01*
X19599542Y-1826049D01*
X19596024Y-1803832D01*
X19589072Y-1782438D01*
X19587757Y-1777773D01*
X19579838Y-1744790D01*
X19564949Y-1682770D01*
X19564944Y-1682758D01*
X19527555Y-1592492D01*
X19525874Y-1587936D01*
X19518926Y-1566551D01*
X19508710Y-1546501D01*
X19506696Y-1542133D01*
X19469293Y-1451834D01*
X19418225Y-1368500D01*
X19415879Y-1364309D01*
X19405659Y-1344251D01*
X19392436Y-1326051D01*
X19389739Y-1322014D01*
X19338691Y-1238711D01*
X19275229Y-1164407D01*
X19272238Y-1160613D01*
X19259011Y-1142407D01*
X19243099Y-1126495D01*
X19239806Y-1122932D01*
X19239801Y-1122926D01*
X19176357Y-1048643D01*
X19102065Y-985191D01*
X19098499Y-981895D01*
X19082593Y-965989D01*
X19064390Y-952763D01*
X19060579Y-949759D01*
X19060578Y-949758D01*
X18986289Y-886309D01*
X18986283Y-886305D01*
X18902987Y-835260D01*
X18898939Y-832556D01*
X18889485Y-825688D01*
X18880749Y-819341D01*
X18872057Y-814912D01*
X18860710Y-809130D01*
X18856462Y-806751D01*
X18773166Y-755706D01*
X18682901Y-718318D01*
X18678480Y-716280D01*
X18672054Y-713006D01*
X18658449Y-706074D01*
X18658446Y-706073D01*
X18658444Y-706072D01*
X18658445Y-706072D01*
X18637070Y-699127D01*
X18632512Y-697446D01*
X18601543Y-684618D01*
X18542241Y-660054D01*
X18542235Y-660052D01*
X18447228Y-637242D01*
X18442542Y-635921D01*
X18421170Y-628976D01*
X18398971Y-625460D01*
X18394195Y-624510D01*
X18299191Y-601702D01*
X18299189Y-601701D01*
X18299186Y-601701D01*
X18273024Y-599642D01*
X18201774Y-594033D01*
X18196943Y-593461D01*
X18174746Y-589947D01*
X18152275Y-589947D01*
X18147409Y-589756D01*
X18050000Y-582090D01*
X17952591Y-589756D01*
X17947725Y-589947D01*
X17925255Y-589947D01*
X17925254Y-589947D01*
X17923088Y-590290D01*
X17903058Y-593461D01*
X17898227Y-594033D01*
X17800811Y-601701D01*
X17800806Y-601702D01*
X17705804Y-624510D01*
X17701029Y-625460D01*
X17678828Y-628976D01*
X17657451Y-635922D01*
X17652767Y-637243D01*
X17557767Y-660052D01*
X17557758Y-660055D01*
X17467501Y-697440D01*
X17462936Y-699124D01*
X17441562Y-706069D01*
X17441545Y-706076D01*
X17421517Y-716280D01*
X17417097Y-718318D01*
X17326841Y-755703D01*
X17326829Y-755709D01*
X17243531Y-806754D01*
X17239285Y-809132D01*
X17219253Y-819339D01*
X17219244Y-819345D01*
X17201057Y-832557D01*
X17197013Y-835259D01*
X17113708Y-886311D01*
X17039420Y-949758D01*
X17035598Y-952771D01*
X17017414Y-965982D01*
X17017408Y-965987D01*
X17001498Y-981895D01*
X16997926Y-985197D01*
X16923642Y-1048642D01*
X16860197Y-1122926D01*
X16856895Y-1126498D01*
X16840987Y-1142408D01*
X16840982Y-1142414D01*
X16827771Y-1160598D01*
X16824758Y-1164420D01*
X16761311Y-1238708D01*
X16710259Y-1322013D01*
X16707557Y-1326057D01*
X16694345Y-1344244D01*
X16694339Y-1344253D01*
X16684132Y-1364285D01*
X16681754Y-1368531D01*
X16630709Y-1451829D01*
X16630703Y-1451841D01*
X16593318Y-1542097D01*
X16591280Y-1546517D01*
X16581076Y-1566545D01*
X16581069Y-1566562D01*
X16574124Y-1587936D01*
X16572440Y-1592501D01*
X16535055Y-1682758D01*
X16535052Y-1682767D01*
X16512243Y-1777767D01*
X16510922Y-1782451D01*
X16503976Y-1803828D01*
X16500460Y-1826029D01*
X16499510Y-1830804D01*
X16476702Y-1925806D01*
X16476701Y-1925811D01*
X16469033Y-2023227D01*
X16468461Y-2028058D01*
X16464947Y-2050254D01*
X16464947Y-2072725D01*
X16464756Y-2077591D01*
X16457090Y-2174999D01*
X500Y-2174999D01*
X500Y-2706D01*
X736Y2700D01*
X4476Y45445D01*
X16918Y171771D01*
X20541Y191685D01*
X38401Y258343D01*
X66682Y351570D01*
X72958Y367971D01*
X73367Y368848D01*
X104406Y435411D01*
X105888Y438375D01*
X125982Y475969D01*
X150762Y522327D01*
X154657Y528667D01*
X200983Y594828D01*
X203844Y598600D01*
X263103Y670808D01*
X267182Y675309D01*
X324688Y732815D01*
X329190Y736895D01*
X401398Y796154D01*
X405170Y799015D01*
X471331Y845341D01*
X477671Y849236D01*
X561605Y894101D01*
X564618Y895607D01*
X583433Y904381D01*
X632027Y927040D01*
X648435Y933319D01*
X741669Y961601D01*
X808299Y979454D01*
X828238Y983082D01*
X954554Y995523D01*
X995015Y999063D01*
X997303Y999264D01*
X1002710Y999500D01*
X162097290Y999500D01*
X162102696Y999264D01*
G37*
%TD.AperFunction*%
%TD*%
M02*
