M48
; DRILL file {KiCad 7.0.9} date Wed Aug 21 19:07:34 2024
; FORMAT={-:-/ absolute / inch / decimal}
; #@! TF.CreationDate,2024-08-21T19:07:34-06:00
; #@! TF.GenerationSoftware,Kicad,Pcbnew,7.0.9
; #@! TF.FileFunction,Plated,1,2,PTH
FMAT,2
INCH
; #@! TA.AperFunction,Plated,PTH,ViaDrill
T1C0.0157
; #@! TA.AperFunction,Plated,PTH,ComponentDrill
T2C0.0197
%
G90
G05
T1
X0.0472Y-0.0118
X0.0472Y-0.0906
X0.0472Y-0.1693
X0.0472Y-0.248
X0.0472Y-0.3268
X0.0472Y-0.4055
X0.0472Y-0.4843
X0.0472Y-0.563
X0.0472Y-0.6417
X0.0472Y-0.7205
X0.0472Y-0.7992
X0.0472Y-0.878
X0.0472Y-0.9567
X0.0472Y-1.0354
X0.0472Y-1.1142
X0.0472Y-1.1929
X0.0472Y-1.2717
X0.0472Y-1.3504
X0.0472Y-1.4291
X0.0472Y-1.5079
X0.0472Y-1.5866
X0.0472Y-1.6654
X0.0472Y-1.7441
X0.0472Y-1.8228
X0.0472Y-1.9016
X0.0472Y-1.9803
X0.0472Y-2.0591
X0.0472Y-2.1378
X0.0472Y-2.2165
X0.0472Y-2.2953
X0.0472Y-2.374
X0.0472Y-2.4528
X0.0472Y-2.5315
X0.0472Y-2.6102
X0.0472Y-2.689
X0.0472Y-2.7677
X0.0472Y-2.8465
X0.0472Y-2.9252
X0.0472Y-3.0039
X0.0472Y-3.0827
X0.0472Y-3.1614
X0.0472Y-3.2402
X0.0472Y-3.3189
X0.0472Y-3.3976
X0.0472Y-3.4764
X0.0472Y-3.5551
X0.0472Y-3.6339
X0.0472Y-3.7126
X0.0472Y-3.7913
X0.0472Y-3.8701
X0.0472Y-3.9488
X0.0472Y-4.0276
X0.0472Y-4.1063
X0.0472Y-4.185
X0.0472Y-4.2638
X0.0472Y-4.3425
X0.0472Y-4.4213
X0.0472Y-4.5
X0.0472Y-4.5787
X0.0472Y-4.6575
X0.0472Y-4.7362
X0.0472Y-4.815
X0.0472Y-4.8937
X0.0472Y-4.9724
X0.0472Y-5.0512
X0.0472Y-5.1299
X0.0472Y-5.2087
X0.0472Y-5.2874
X0.0472Y-5.3661
X0.0472Y-5.4449
X0.0472Y-5.5236
X0.0472Y-5.6024
X0.0472Y-5.6811
X0.0472Y-5.7598
X0.0472Y-5.8386
X0.0472Y-5.9173
X0.0472Y-5.9961
X0.0472Y-6.0748
X0.0472Y-6.1535
X0.0472Y-6.2323
X0.0472Y-6.311
X0.0472Y-6.3898
X0.0472Y-6.4685
X0.0472Y-6.5472
X0.0472Y-6.626
X0.0472Y-6.685
X0.126Y-0.0118
X0.2047Y-0.0118
X0.2835Y-0.0118
X0.2835Y-6.685
X0.3622Y-0.0118
X0.3622Y-6.685
X0.4409Y-0.0118
X0.4409Y-6.685
X0.5197Y-0.0118
X0.5197Y-6.685
X0.5984Y-0.0118
X0.5984Y-6.685
X0.6772Y-6.685
X0.7559Y-6.685
X0.8346Y-0.0118
X0.8346Y-6.685
X0.9134Y-0.0118
X0.9134Y-6.685
X0.9921Y-0.0118
X0.9921Y-6.685
X1.0709Y-0.0118
X1.0709Y-6.685
X1.1496Y-0.0118
X1.2283Y-0.0118
X1.3071Y-0.0118
X1.3071Y-6.685
X1.3858Y-0.0118
X1.3858Y-6.685
X1.4646Y-0.0118
X1.4646Y-6.685
X1.5433Y-0.0118
X1.5433Y-6.685
X1.622Y-0.0118
X1.622Y-6.685
X1.7008Y-6.685
X1.7795Y-0.0118
X1.7795Y-6.685
X1.8583Y-0.0118
X1.8583Y-6.685
X1.937Y-0.0118
X1.937Y-6.685
X2.0157Y-0.0118
X2.0157Y-6.685
X2.0945Y-0.0118
X2.0945Y-6.685
X2.1732Y-0.0118
X2.252Y-0.0118
X2.3307Y-0.0118
X2.3307Y-6.685
X2.4094Y-0.0118
X2.4094Y-6.685
X2.4882Y-0.0118
X2.4882Y-6.685
X2.5669Y-0.0118
X2.5669Y-6.685
X2.6457Y-0.0118
X2.6457Y-6.685
X2.7244Y-6.685
X2.8031Y-0.0118
X2.8031Y-6.685
X2.8819Y-0.0118
X2.8819Y-6.685
X2.9606Y-0.0118
X2.9606Y-6.685
X3.0394Y-0.0118
X3.0394Y-6.685
X3.1181Y-0.0118
X3.1181Y-6.685
X3.1969Y-0.0118
X3.2756Y-0.0118
X3.3543Y-0.0118
X3.3543Y-6.685
X3.4331Y-0.0118
X3.4331Y-6.685
X3.5118Y-0.0118
X3.5118Y-6.685
X3.5906Y-0.0118
X3.5906Y-6.685
X3.6693Y-6.685
X3.748Y-6.685
X3.8268Y-0.0118
X3.8268Y-6.685
X3.9055Y-0.0118
X3.9055Y-6.685
X3.9843Y-0.0118
X3.9843Y-6.685
X4.063Y-0.0118
X4.063Y-6.685
X4.1417Y-0.0118
X4.2205Y-0.0118
X4.2992Y-0.0118
X4.378Y-0.0118
X4.378Y-6.685
X4.4567Y-0.0118
X4.4567Y-6.685
X4.5354Y-0.0118
X4.5354Y-6.685
X4.6142Y-0.0118
X4.6142Y-6.685
X4.6929Y-6.685
X4.7717Y-6.685
X4.8504Y-0.0118
X4.8504Y-6.685
X4.9291Y-0.0118
X4.9291Y-6.685
X5.0079Y-0.0118
X5.0079Y-6.685
X5.0866Y-0.0118
X5.0866Y-6.685
X5.1654Y-0.0118
X5.2441Y-0.0118
X5.3228Y-0.0118
X5.3228Y-6.685
X5.4016Y-0.0118
X5.4016Y-6.685
X5.4803Y-0.0118
X5.4803Y-6.685
X5.5591Y-0.0118
X5.5591Y-6.685
X5.6378Y-0.0118
X5.6378Y-6.685
X5.7165Y-6.685
X5.7953Y-0.0118
X5.7953Y-6.685
X5.874Y-0.0118
X5.874Y-6.685
X5.9528Y-0.0118
X5.9528Y-6.685
X6.0315Y-0.0118
X6.0315Y-6.685
X6.1102Y-0.0118
X6.1102Y-6.685
X6.189Y-0.0118
X6.189Y-6.685
X6.2677Y-0.0118
X6.3465Y-0.0118
X6.3465Y-0.0906
X6.3465Y-0.1693
X6.3465Y-0.248
X6.3465Y-0.3268
X6.3465Y-0.4055
X6.3465Y-0.4843
X6.3465Y-0.563
X6.3465Y-0.6417
X6.3465Y-0.7205
X6.3465Y-0.7992
X6.3465Y-0.878
X6.3465Y-0.9567
X6.3465Y-1.0354
X6.3465Y-1.1142
X6.3465Y-1.1929
X6.3465Y-1.2717
X6.3465Y-1.3504
X6.3465Y-1.4291
X6.3465Y-1.5079
X6.3465Y-1.5866
X6.3465Y-1.6654
X6.3465Y-1.7441
X6.3465Y-1.8228
X6.3465Y-1.9016
X6.3465Y-1.9803
X6.3465Y-2.0591
X6.3465Y-2.1378
X6.3465Y-2.2165
X6.3465Y-2.2953
X6.3465Y-2.374
X6.3465Y-2.4528
X6.3465Y-2.5315
X6.3465Y-2.6102
X6.3465Y-2.689
X6.3465Y-2.7677
X6.3465Y-2.8465
X6.3465Y-2.9252
X6.3465Y-3.0039
X6.3465Y-3.0827
X6.3465Y-3.1614
X6.3465Y-3.2402
X6.3465Y-3.3189
X6.3465Y-3.3976
X6.3465Y-3.4764
X6.3465Y-3.5551
X6.3465Y-3.6339
X6.3465Y-3.7126
X6.3465Y-3.7913
X6.3465Y-3.8701
X6.3465Y-3.9488
X6.3465Y-4.0276
X6.3465Y-4.1063
X6.3465Y-4.185
X6.3465Y-4.2638
X6.3465Y-4.3425
X6.3465Y-4.4213
X6.3465Y-4.5
X6.3465Y-4.5787
X6.3465Y-4.6575
X6.3465Y-4.7362
X6.3465Y-4.815
X6.3465Y-4.8937
X6.3465Y-4.9724
X6.3465Y-5.0512
X6.3465Y-5.1299
X6.3465Y-5.2087
X6.3465Y-5.2874
X6.3465Y-5.3661
X6.3465Y-5.4449
X6.3465Y-5.5236
X6.3465Y-5.6024
X6.3465Y-5.6811
X6.3465Y-5.7598
X6.3465Y-5.8386
X6.3465Y-5.9173
X6.3465Y-5.9961
X6.3465Y-6.0748
X6.3465Y-6.1535
X6.3465Y-6.2323
X6.3465Y-6.311
X6.3465Y-6.3898
X6.3465Y-6.4685
X6.3465Y-6.5472
T2
X10.4852Y1.4518
T0
M30
