%TF.GenerationSoftware,KiCad,Pcbnew,7.0.9*%
%TF.CreationDate,2024-08-21T19:07:34-06:00*%
%TF.ProjectId,top 40K wall,746f7020-3430-44b2-9077-616c6c2e6b69,rev?*%
%TF.SameCoordinates,Original*%
%TF.FileFunction,Legend,Top*%
%TF.FilePolarity,Positive*%
%FSLAX46Y46*%
G04 Gerber Fmt 4.6, Leading zero omitted, Abs format (unit mm)*
G04 Created by KiCad (PCBNEW 7.0.9) date 2024-08-21 19:07:34*
%MOMM*%
%LPD*%
G01*
G04 APERTURE LIST*
%ADD10C,0.150000*%
%ADD11C,0.120000*%
%ADD12C,1.000000*%
G04 APERTURE END LIST*
D10*
X265063095Y38868180D02*
X265634523Y38868180D01*
X265348809Y37868180D02*
X265348809Y38868180D01*
X265967857Y37868180D02*
X265967857Y38868180D01*
X265967857Y38868180D02*
X266348809Y38868180D01*
X266348809Y38868180D02*
X266444047Y38820561D01*
X266444047Y38820561D02*
X266491666Y38772942D01*
X266491666Y38772942D02*
X266539285Y38677704D01*
X266539285Y38677704D02*
X266539285Y38534847D01*
X266539285Y38534847D02*
X266491666Y38439609D01*
X266491666Y38439609D02*
X266444047Y38391990D01*
X266444047Y38391990D02*
X266348809Y38344371D01*
X266348809Y38344371D02*
X265967857Y38344371D01*
X267491666Y37868180D02*
X266920238Y37868180D01*
X267205952Y37868180D02*
X267205952Y38868180D01*
X267205952Y38868180D02*
X267110714Y38725323D01*
X267110714Y38725323D02*
X267015476Y38630085D01*
X267015476Y38630085D02*
X266920238Y38582466D01*
D11*
%TO.C,TP1*%
X267025000Y36875000D02*
G75*
G03*
X267025000Y36875000I-700000J0D01*
G01*
%TD*%
%LPC*%
D10*
X-10000000Y15000000D02*
X172500000Y15000000D01*
X172500000Y-187500000D01*
X-10000000Y-187500000D01*
X-10000000Y15000000D01*
G36*
X-10000000Y15000000D02*
G01*
X172500000Y15000000D01*
X172500000Y-187500000D01*
X-10000000Y-187500000D01*
X-10000000Y15000000D01*
G37*
D12*
%TO.C,TP1*%
X266325000Y36875000D03*
%TD*%
%LPD*%
M02*
