%TF.GenerationSoftware,KiCad,Pcbnew,7.0.9*%
%TF.CreationDate,2024-08-21T19:07:34-06:00*%
%TF.ProjectId,top 40K wall,746f7020-3430-44b2-9077-616c6c2e6b69,rev?*%
%TF.SameCoordinates,Original*%
%TF.FileFunction,Profile,NP*%
%FSLAX46Y46*%
G04 Gerber Fmt 4.6, Leading zero omitted, Abs format (unit mm)*
G04 Created by KiCad (PCBNEW 7.0.9) date 2024-08-21 19:07:34*
%MOMM*%
%LPD*%
G01*
G04 APERTURE LIST*
%TA.AperFunction,Profile*%
%ADD10C,0.250000*%
%TD*%
G04 APERTURE END LIST*
D10*
X0Y-169980000D02*
G75*
G03*
X1000000Y-170980000I1000000J0D01*
G01*
X162100000Y-170980000D02*
G75*
G03*
X163100000Y-169980000I0J1000000D01*
G01*
X163100000Y0D02*
G75*
G03*
X162100000Y1000000I-1000000J0D01*
G01*
X1000000Y1000000D02*
G75*
G03*
X0Y0I0J-1000000D01*
G01*
X1000000Y-170980000D02*
X162100000Y-170980000D01*
X163100000Y-169980000D02*
X163100000Y0D01*
X1000000Y1000000D02*
X162100000Y1000000D01*
X0Y0D02*
X0Y-169980000D01*
X159337500Y-67850000D02*
G75*
G03*
X159337500Y-67850000I-1587500J0D01*
G01*
X121237500Y-2175000D02*
G75*
G03*
X121237500Y-2175000I-1587500J0D01*
G01*
X160925000Y-168480000D02*
G75*
G03*
X160925000Y-168480000I-1587500J0D01*
G01*
X133937500Y-168480000D02*
G75*
G03*
X133937500Y-168480000I-1587500J0D01*
G01*
X108537500Y-168480000D02*
G75*
G03*
X108537500Y-168480000I-1587500J0D01*
G01*
X95837500Y-2175000D02*
G75*
G03*
X95837500Y-2175000I-1587500J0D01*
G01*
X146637500Y-2175000D02*
G75*
G03*
X146637500Y-2175000I-1587500J0D01*
G01*
X159337500Y-93250000D02*
G75*
G03*
X159337500Y-93250000I-1587500J0D01*
G01*
X159337500Y-17050000D02*
G75*
G03*
X159337500Y-17050000I-1587500J0D01*
G01*
X70437500Y-2175000D02*
G75*
G03*
X70437500Y-2175000I-1587500J0D01*
G01*
X45037500Y-2175000D02*
G75*
G03*
X45037500Y-2175000I-1587500J0D01*
G01*
X19637500Y-2175000D02*
G75*
G03*
X19637500Y-2175000I-1587500J0D01*
G01*
X32337500Y-168480000D02*
G75*
G03*
X32337500Y-168480000I-1587500J0D01*
G01*
X57737500Y-168480000D02*
G75*
G03*
X57737500Y-168480000I-1587500J0D01*
G01*
X6937500Y-17050000D02*
G75*
G03*
X6937500Y-17050000I-1587500J0D01*
G01*
X5350000Y-168480000D02*
G75*
G03*
X5350000Y-168480000I-1587500J0D01*
G01*
X6937500Y-42450000D02*
G75*
G03*
X6937500Y-42450000I-1587500J0D01*
G01*
X6937500Y-67850000D02*
G75*
G03*
X6937500Y-67850000I-1587500J0D01*
G01*
X6937500Y-93250000D02*
G75*
G03*
X6937500Y-93250000I-1587500J0D01*
G01*
X83137500Y-168480000D02*
G75*
G03*
X83137500Y-168480000I-1587500J0D01*
G01*
X84102700Y-84000000D02*
G75*
G03*
X84102700Y-84000000I-2552700J0D01*
G01*
X159337500Y-42450000D02*
G75*
G03*
X159337500Y-42450000I-1587500J0D01*
G01*
X43500000Y-42995000D02*
G75*
G03*
X43500000Y-42995000I-1725000J0D01*
G01*
X123050000Y-114985000D02*
G75*
G03*
X123050000Y-114985000I-1725000J0D01*
G01*
X43500000Y-114985000D02*
G75*
G03*
X43500000Y-114985000I-1725000J0D01*
G01*
X123050000Y-42995000D02*
G75*
G03*
X123050000Y-42995000I-1725000J0D01*
G01*
M02*
