M48
; DRILL file {KiCad 7.0.9} date Tue Aug 20 15:44:40 2024
; FORMAT={-:-/ absolute / inch / decimal}
; #@! TF.CreationDate,2024-08-20T15:44:40-06:00
; #@! TF.GenerationSoftware,Kicad,Pcbnew,7.0.9
; #@! TF.FileFunction,Plated,1,2,PTH
FMAT,2
INCH
; #@! TA.AperFunction,Plated,PTH,ViaDrill
T1C0.0157
; #@! TA.AperFunction,Plated,PTH,ComponentDrill
T2C0.0197
%
G90
G05
T1
X0.0709Y-0.0236
X0.0709Y-0.1024
X0.0709Y-0.1811
X0.0709Y-0.4961
X0.0709Y-0.5748
X0.0709Y-0.6535
X0.0709Y-0.7323
X0.0709Y-0.811
X0.0709Y-0.8898
X0.0709Y-1.126
X0.0709Y-1.2047
X0.0709Y-1.2835
X0.0709Y-1.3622
X0.0709Y-1.4409
X0.0709Y-1.5197
X0.0709Y-1.5984
X0.0709Y-1.6772
X0.0709Y-1.7559
X0.0709Y-1.8346
X0.0709Y-1.9134
X0.0709Y-2.1496
X0.0709Y-2.2283
X0.0709Y-2.3071
X0.0709Y-2.3858
X0.0709Y-2.4646
X0.0709Y-2.5433
X0.0709Y-2.622
X0.0709Y-2.7008
X0.0709Y-2.7795
X0.0709Y-2.8583
X0.0709Y-3.1732
X0.0709Y-3.252
X0.0709Y-3.3307
X0.0709Y-3.4094
X0.0709Y-3.4882
X0.0709Y-3.5669
X0.0709Y-3.6457
X0.0709Y-3.7244
X0.0709Y-3.8031
X0.0709Y-3.8819
X0.0709Y-4.1181
X0.0709Y-4.1969
X0.0709Y-4.2756
X0.0709Y-4.3543
X0.0709Y-4.4331
X0.0709Y-4.5118
X0.0709Y-4.5906
X0.0709Y-4.6693
X0.0709Y-4.748
X0.0709Y-4.8268
X0.0709Y-4.9055
X0.0709Y-5.1417
X0.0709Y-5.2205
X0.0709Y-5.2992
X0.0709Y-5.378
X0.0709Y-5.4567
X0.0709Y-5.5354
X0.0709Y-5.6142
X0.0709Y-5.6929
X0.0709Y-5.7717
X0.0709Y-5.8504
X0.0709Y-5.9291
X0.0709Y-6.1654
X0.0709Y-6.2441
X0.0709Y-6.3228
X0.0709Y-6.4016
X0.0709Y-6.4803
X0.0709Y-6.5591
X0.0709Y-6.6378
X0.0709Y-6.7165
X0.1496Y-0.0236
X0.1496Y-6.7165
X0.2283Y-0.0236
X0.2283Y-6.7165
X0.3071Y-0.0236
X0.3071Y-6.7165
X0.3858Y-0.0236
X0.3858Y-6.7165
X0.4646Y-0.0236
X0.5433Y-0.0236
X0.622Y-0.0236
X0.7008Y-0.0236
X0.7795Y-0.0236
X0.8583Y-0.0236
X0.8583Y-6.7165
X0.937Y-0.0236
X0.937Y-6.7165
X1.0157Y-6.7165
X1.0945Y-6.7165
X1.1732Y-6.7165
X1.252Y-0.0236
X1.252Y-6.7165
X1.3307Y-0.0236
X1.3307Y-6.7165
X1.4094Y-0.0236
X1.4094Y-6.7165
X1.4882Y-0.0236
X1.5669Y-0.0236
X1.6457Y-0.0236
X1.7244Y-0.0236
X1.8031Y-0.0236
X1.8031Y-6.7165
X1.8819Y-0.0236
X1.8819Y-6.7165
X1.9606Y-6.7165
X2.0394Y-6.7165
X2.1181Y-6.7165
X2.1969Y-6.7165
X2.2756Y-0.0236
X2.2756Y-6.7165
X2.3543Y-0.0236
X2.3543Y-6.7165
X2.4331Y-0.0236
X2.4331Y-6.7165
X2.5118Y-0.0236
X2.5906Y-0.0236
X2.6693Y-0.0236
X2.748Y-0.0236
X2.8268Y-0.0236
X2.8268Y-6.7165
X2.9055Y-0.0236
X2.9055Y-6.7165
X2.9843Y-6.7165
X3.063Y-6.7165
X3.1417Y-6.7165
X3.2205Y-0.0236
X3.2205Y-6.7165
X3.2992Y-0.0236
X3.2992Y-6.7165
X3.378Y-0.0236
X3.378Y-6.7165
X3.4567Y-0.0236
X3.5354Y-0.0236
X3.6142Y-0.0236
X3.6929Y-0.0236
X3.7717Y-0.0236
X3.8504Y-0.0236
X3.8504Y-6.7165
X3.9291Y-0.0236
X3.9291Y-6.7165
X4.0079Y-6.7165
X4.0866Y-6.7165
X4.1654Y-6.7165
X4.2441Y-6.7165
X4.3228Y-0.0236
X4.3228Y-6.7165
X4.4016Y-0.0236
X4.4016Y-6.7165
X4.4803Y-0.0236
X4.5591Y-0.0236
X4.6378Y-0.0236
X4.7165Y-0.0236
X4.7953Y-0.0236
X4.874Y-0.0236
X4.874Y-6.7165
X4.9528Y-0.0236
X4.9528Y-6.7165
X5.0315Y-6.7165
X5.1102Y-6.7165
X5.189Y-6.7165
X5.2677Y-0.0236
X5.2677Y-6.7165
X5.3465Y-0.0236
X5.3465Y-6.7165
X5.4252Y-0.0236
X5.4252Y-6.7165
X5.5039Y-0.0236
X5.5827Y-0.0236
X5.6614Y-0.0236
X5.7402Y-0.0236
X5.8189Y-0.0236
X5.8189Y-6.7165
X5.8976Y-0.0236
X5.8976Y-6.7165
X5.9764Y-0.0236
X5.9764Y-6.7165
X6.0551Y-0.0236
X6.0551Y-6.7165
X6.1339Y-0.0236
X6.1339Y-6.7165
X6.2126Y-0.0236
X6.2126Y-6.7165
X6.2913Y-0.0236
X6.2913Y-6.7165
X6.3701Y-0.0236
X6.3701Y-0.1024
X6.3701Y-0.1811
X6.3701Y-0.4961
X6.3701Y-0.5748
X6.3701Y-0.6535
X6.3701Y-0.7323
X6.3701Y-0.811
X6.3701Y-0.8898
X6.3701Y-0.9685
X6.3701Y-1.0472
X6.3701Y-1.126
X6.3701Y-1.2047
X6.3701Y-1.2835
X6.3701Y-1.3622
X6.3701Y-1.4409
X6.3701Y-1.5197
X6.3701Y-1.5984
X6.3701Y-1.6772
X6.3701Y-1.7559
X6.3701Y-1.8346
X6.3701Y-1.9134
X6.3701Y-1.9921
X6.3701Y-2.0709
X6.3701Y-2.1496
X6.3701Y-2.2283
X6.3701Y-2.3071
X6.3701Y-2.3858
X6.3701Y-2.4646
X6.3701Y-2.5433
X6.3701Y-2.622
X6.3701Y-2.7008
X6.3701Y-2.7795
X6.3701Y-2.8583
X6.3701Y-2.937
X6.3701Y-3.0157
X6.3701Y-3.0945
X6.3701Y-3.1732
X6.3701Y-3.252
X6.3701Y-3.3307
X6.3701Y-3.4094
X6.3701Y-3.4882
X6.3701Y-3.5669
X6.3701Y-3.6457
X6.3701Y-3.7244
X6.3701Y-3.8031
X6.3701Y-3.8819
X6.3701Y-3.9606
X6.3701Y-4.0394
X6.3701Y-4.1181
X6.3701Y-4.1969
X6.3701Y-4.2756
X6.3701Y-4.3543
X6.3701Y-4.4331
X6.3701Y-4.5118
X6.3701Y-4.5906
X6.3701Y-4.6693
X6.3701Y-4.748
X6.3701Y-4.8268
X6.3701Y-4.9055
X6.3701Y-4.9843
X6.3701Y-5.063
X6.3701Y-5.1417
X6.3701Y-5.2205
X6.3701Y-5.2992
X6.3701Y-5.378
X6.3701Y-5.4567
X6.3701Y-5.5354
X6.3701Y-5.6142
X6.3701Y-5.6929
X6.3701Y-5.7717
X6.3701Y-5.8504
X6.3701Y-5.9291
X6.3701Y-6.0079
X6.3701Y-6.0866
X6.3701Y-6.1654
X6.3701Y-6.2441
X6.3701Y-6.3228
X6.3701Y-6.4016
X6.3701Y-6.4803
X6.3701Y-6.5591
X6.3701Y-6.6378
X6.3701Y-6.7165
X6.3701Y-6.7165
X6.4488Y-0.0236
T2
X-2.7352Y1.0738
T0
M30
