%TF.GenerationSoftware,KiCad,Pcbnew,7.0.9*%
%TF.CreationDate,2024-08-20T15:44:40-06:00*%
%TF.ProjectId,bottom 40k wall,626f7474-6f6d-4203-9430-6b2077616c6c,rev?*%
%TF.SameCoordinates,Original*%
%TF.FileFunction,Profile,NP*%
%FSLAX46Y46*%
G04 Gerber Fmt 4.6, Leading zero omitted, Abs format (unit mm)*
G04 Created by KiCad (PCBNEW 7.0.9) date 2024-08-20 15:44:40*
%MOMM*%
%LPD*%
G01*
G04 APERTURE LIST*
%TA.AperFunction,Profile*%
%ADD10C,0.250000*%
%TD*%
G04 APERTURE END LIST*
D10*
X0Y-172745000D02*
G75*
G03*
X1000000Y-173745000I1000000J0D01*
G01*
X161425000Y-103307500D02*
X159309373Y-103307500D01*
X118034373Y-167395000D02*
G75*
G03*
X118034373Y-170570000I-2121873J-1587500D01*
G01*
X145550000Y-167395000D02*
X143434373Y-167395000D01*
X120150000Y-170570000D02*
G75*
G03*
X120150000Y-167395000I0J1587500D01*
G01*
X161425000Y-7100000D02*
X159309373Y-7100000D01*
X161425000Y-49332500D02*
X159309373Y-49332500D01*
X1000000Y-173745000D02*
X163100000Y-173745000D01*
X0Y0D02*
X0Y-172745000D01*
X18550000Y-170570000D02*
G75*
G03*
X18550000Y-167395000I0J1587500D01*
G01*
X67234373Y-167395000D02*
G75*
G03*
X67234373Y-170570000I-2121873J-1587500D01*
G01*
X161425000Y-100132500D02*
X159309373Y-100132500D01*
X161425000Y-77907500D02*
X159309373Y-77907500D01*
X82050000Y-4437500D02*
X79934373Y-4437500D01*
X161425000Y-10275000D02*
G75*
G03*
X161425000Y-7100000I0J1587500D01*
G01*
X9025000Y-103307500D02*
G75*
G03*
X9025000Y-100132500I0J1587500D01*
G01*
X161425000Y-74732500D02*
X159309373Y-74732500D01*
X9025000Y-23932500D02*
X6909373Y-23932500D01*
X1000000Y1000000D02*
X163100000Y1000000D01*
X6909373Y-125532500D02*
G75*
G03*
X6909373Y-128707500I-2121873J-1587500D01*
G01*
X9025000Y-49332500D02*
X6909373Y-49332500D01*
X9025000Y-27107500D02*
X6909373Y-27107500D01*
X94750000Y-170570000D02*
G75*
G03*
X94750000Y-167395000I0J1587500D01*
G01*
X159309373Y-23932500D02*
G75*
G03*
X159309373Y-27107500I-2121873J-1587500D01*
G01*
X9025000Y-100132500D02*
X6909373Y-100132500D01*
X124800000Y-130058750D02*
G75*
G03*
X124800000Y-130058750I-1725000J0D01*
G01*
X132850000Y-4437500D02*
G75*
G03*
X132850000Y-1262500I0J1587500D01*
G01*
X6909373Y-7100000D02*
G75*
G03*
X6909373Y-10275000I-2121873J-1587500D01*
G01*
X9025000Y-128707500D02*
X6909373Y-128707500D01*
X161425000Y-150932500D02*
X159309373Y-150932500D01*
X6909373Y-23932500D02*
G75*
G03*
X6909373Y-27107500I-2121873J-1587500D01*
G01*
X161425000Y-10275000D02*
X159309373Y-10275000D01*
X9025000Y-77907500D02*
G75*
G03*
X9025000Y-74732500I0J1587500D01*
G01*
X9025000Y-128707500D02*
G75*
G03*
X9025000Y-125532500I0J1587500D01*
G01*
X31250000Y-4437500D02*
X29134373Y-4437500D01*
X161425000Y-23932500D02*
X159309373Y-23932500D01*
X43950000Y-167395000D02*
X41834373Y-167395000D01*
X31250000Y-1262500D02*
X29134373Y-1262500D01*
X161425000Y-52507500D02*
G75*
G03*
X161425000Y-49332500I0J1587500D01*
G01*
X92634373Y-167395000D02*
G75*
G03*
X92634373Y-170570000I-2121873J-1587500D01*
G01*
X164100000Y0D02*
G75*
G03*
X163100000Y1000000I-1000000J0D01*
G01*
X161425000Y-77907500D02*
G75*
G03*
X161425000Y-74732500I0J1587500D01*
G01*
X18550000Y-170570000D02*
X16434373Y-170570000D01*
X42750000Y-130058750D02*
G75*
G03*
X42750000Y-130058750I-1725000J0D01*
G01*
X130734373Y-1262500D02*
G75*
G03*
X130734373Y-4437500I-2121873J-1587500D01*
G01*
X161425000Y-128707500D02*
X159309373Y-128707500D01*
X82050000Y-1262500D02*
X79934373Y-1262500D01*
X9025000Y-154107500D02*
G75*
G03*
X9025000Y-150932500I0J1587500D01*
G01*
X124800000Y-42686250D02*
G75*
G03*
X124800000Y-42686250I-1725000J0D01*
G01*
X9025000Y-154107500D02*
X6909373Y-154107500D01*
X159309373Y-74732500D02*
G75*
G03*
X159309373Y-77907500I-2121873J-1587500D01*
G01*
X69350000Y-170570000D02*
G75*
G03*
X69350000Y-167395000I0J1587500D01*
G01*
X105334373Y-1262500D02*
G75*
G03*
X105334373Y-4437500I-2121873J-1587500D01*
G01*
X42750000Y-42686250D02*
G75*
G03*
X42750000Y-42686250I-1725000J0D01*
G01*
X9025000Y-103307500D02*
X6909373Y-103307500D01*
X9025000Y-77907500D02*
X6909373Y-77907500D01*
X159309373Y-7100000D02*
G75*
G03*
X159309373Y-10275000I-2121873J-1587500D01*
G01*
X132850000Y-1262500D02*
X130734373Y-1262500D01*
X164100000Y-172745000D02*
X164100000Y0D01*
X9025000Y-7100000D02*
X6909373Y-7100000D01*
X9025000Y-150932500D02*
X6909373Y-150932500D01*
X9025000Y-125532500D02*
X6909373Y-125532500D01*
X94750000Y-167395000D02*
X92634373Y-167395000D01*
X43950000Y-170570000D02*
G75*
G03*
X43950000Y-167395000I0J1587500D01*
G01*
X6909373Y-74732500D02*
G75*
G03*
X6909373Y-77907500I-2121873J-1587500D01*
G01*
X143434373Y-167395000D02*
G75*
G03*
X143434373Y-170570000I-2121873J-1587500D01*
G01*
X94750000Y-170570000D02*
X92634373Y-170570000D01*
X120150000Y-170570000D02*
X118034373Y-170570000D01*
X9025000Y-74732500D02*
X6909373Y-74732500D01*
X161425000Y-154107500D02*
G75*
G03*
X161425000Y-150932500I0J1587500D01*
G01*
X16434373Y-167395000D02*
G75*
G03*
X16434373Y-170570000I-2121873J-1587500D01*
G01*
X132850000Y-4437500D02*
X130734373Y-4437500D01*
X107450000Y-4437500D02*
X105334373Y-4437500D01*
X159309373Y-100132500D02*
G75*
G03*
X159309373Y-103307500I-2121873J-1587500D01*
G01*
X161425000Y-154107500D02*
X159309373Y-154107500D01*
X79934373Y-1262500D02*
G75*
G03*
X79934373Y-4437500I-2121873J-1587500D01*
G01*
X161425000Y-27107500D02*
G75*
G03*
X161425000Y-23932500I0J1587500D01*
G01*
X9025000Y-52507500D02*
X6909373Y-52507500D01*
X161425000Y-103307500D02*
G75*
G03*
X161425000Y-100132500I0J1587500D01*
G01*
X161425000Y-52507500D02*
X159309373Y-52507500D01*
X161425000Y-27107500D02*
X159309373Y-27107500D01*
X6909373Y-100132500D02*
G75*
G03*
X6909373Y-103307500I-2121873J-1587500D01*
G01*
X41834373Y-167395000D02*
G75*
G03*
X41834373Y-170570000I-2121873J-1587500D01*
G01*
X107450000Y-1262500D02*
X105334373Y-1262500D01*
X6909373Y-49332500D02*
G75*
G03*
X6909373Y-52507500I-2121873J-1587500D01*
G01*
X43950000Y-170570000D02*
X41834373Y-170570000D01*
X6909373Y-150932500D02*
G75*
G03*
X6909373Y-154107500I-2121873J-1587500D01*
G01*
X56650000Y-4437500D02*
X54534373Y-4437500D01*
X69350000Y-170570000D02*
X67234373Y-170570000D01*
X31250000Y-4437500D02*
G75*
G03*
X31250000Y-1262500I0J1587500D01*
G01*
X145550000Y-170570000D02*
G75*
G03*
X145550000Y-167395000I0J1587500D01*
G01*
X54534373Y-1262500D02*
G75*
G03*
X54534373Y-4437500I-2121873J-1587500D01*
G01*
X56650000Y-1262500D02*
X54534373Y-1262500D01*
X9025000Y-10275000D02*
G75*
G03*
X9025000Y-7100000I0J1587500D01*
G01*
X159309373Y-150932500D02*
G75*
G03*
X159309373Y-154107500I-2121873J-1587500D01*
G01*
X9025000Y-52507500D02*
G75*
G03*
X9025000Y-49332500I0J1587500D01*
G01*
X107450000Y-4437500D02*
G75*
G03*
X107450000Y-1262500I0J1587500D01*
G01*
X159309373Y-125532500D02*
G75*
G03*
X159309373Y-128707500I-2121873J-1587500D01*
G01*
X29134373Y-1262500D02*
G75*
G03*
X29134373Y-4437500I-2121873J-1587500D01*
G01*
X163100000Y-173745000D02*
G75*
G03*
X164100000Y-172745000I0J1000000D01*
G01*
X69350000Y-167395000D02*
X67234373Y-167395000D01*
X159309373Y-49332500D02*
G75*
G03*
X159309373Y-52507500I-2121873J-1587500D01*
G01*
X82050000Y-4437500D02*
G75*
G03*
X82050000Y-1262500I0J1587500D01*
G01*
X161425000Y-125532500D02*
X159309373Y-125532500D01*
X9025000Y-10275000D02*
X6909373Y-10275000D01*
X18550000Y-167395000D02*
X16434373Y-167395000D01*
X56650000Y-4437500D02*
G75*
G03*
X56650000Y-1262500I0J1587500D01*
G01*
X1000000Y1000000D02*
G75*
G03*
X0Y0I0J-1000000D01*
G01*
X145550000Y-170570000D02*
X143434373Y-170570000D01*
X9025000Y-27107500D02*
G75*
G03*
X9025000Y-23932500I0J1587500D01*
G01*
X120150000Y-167395000D02*
X118034373Y-167395000D01*
X84602700Y-86372500D02*
G75*
G03*
X84602700Y-86372500I-2552700J0D01*
G01*
X161425000Y-128707500D02*
G75*
G03*
X161425000Y-125532500I0J1587500D01*
G01*
M02*
