%TF.GenerationSoftware,KiCad,Pcbnew,7.0.9*%
%TF.CreationDate,2024-08-20T15:44:40-06:00*%
%TF.ProjectId,bottom 40k wall,626f7474-6f6d-4203-9430-6b2077616c6c,rev?*%
%TF.SameCoordinates,Original*%
%TF.FileFunction,Legend,Top*%
%TF.FilePolarity,Positive*%
%FSLAX46Y46*%
G04 Gerber Fmt 4.6, Leading zero omitted, Abs format (unit mm)*
G04 Created by KiCad (PCBNEW 7.0.9) date 2024-08-20 15:44:40*
%MOMM*%
%LPD*%
G01*
G04 APERTURE LIST*
%ADD10C,0.150000*%
%ADD11C,0.120000*%
%ADD12C,1.000000*%
G04 APERTURE END LIST*
D10*
X-70736904Y29268180D02*
X-70165476Y29268180D01*
X-70451190Y28268180D02*
X-70451190Y29268180D01*
X-69832142Y28268180D02*
X-69832142Y29268180D01*
X-69832142Y29268180D02*
X-69451190Y29268180D01*
X-69451190Y29268180D02*
X-69355952Y29220561D01*
X-69355952Y29220561D02*
X-69308333Y29172942D01*
X-69308333Y29172942D02*
X-69260714Y29077704D01*
X-69260714Y29077704D02*
X-69260714Y28934847D01*
X-69260714Y28934847D02*
X-69308333Y28839609D01*
X-69308333Y28839609D02*
X-69355952Y28791990D01*
X-69355952Y28791990D02*
X-69451190Y28744371D01*
X-69451190Y28744371D02*
X-69832142Y28744371D01*
X-68308333Y28268180D02*
X-68879761Y28268180D01*
X-68594047Y28268180D02*
X-68594047Y29268180D01*
X-68594047Y29268180D02*
X-68689285Y29125323D01*
X-68689285Y29125323D02*
X-68784523Y29030085D01*
X-68784523Y29030085D02*
X-68879761Y28982466D01*
D11*
%TO.C,TP1*%
X-68775000Y27275000D02*
G75*
G03*
X-68775000Y27275000I-700000J0D01*
G01*
%TD*%
%LPC*%
D10*
X-9850000Y7300000D02*
X170890000Y7300000D01*
X170890000Y-180290000D01*
X-9850000Y-180290000D01*
X-9850000Y7300000D01*
G36*
X-9850000Y7300000D02*
G01*
X170890000Y7300000D01*
X170890000Y-180290000D01*
X-9850000Y-180290000D01*
X-9850000Y7300000D01*
G37*
D12*
%TO.C,TP1*%
X-69475000Y27275000D03*
%TD*%
%LPD*%
M02*
