%TF.GenerationSoftware,KiCad,Pcbnew,7.0.2*%
%TF.CreationDate,2023-11-03T12:42:45-06:00*%
%TF.ProjectId,KF50_DB25_PinHeader,4b463530-5f44-4423-9235-5f50696e4865,rev?*%
%TF.SameCoordinates,Original*%
%TF.FileFunction,Legend,Bot*%
%TF.FilePolarity,Positive*%
%FSLAX46Y46*%
G04 Gerber Fmt 4.6, Leading zero omitted, Abs format (unit mm)*
G04 Created by KiCad (PCBNEW 7.0.2) date 2023-11-03 12:42:45*
%MOMM*%
%LPD*%
G01*
G04 APERTURE LIST*
%ADD10C,0.150000*%
%ADD11C,0.120000*%
%ADD12C,22.000000*%
%ADD13C,10.000000*%
%ADD14O,1.700000X1.700000*%
%ADD15R,1.700000X1.700000*%
%ADD16C,5.000000*%
%ADD17C,1.800000*%
%ADD18R,1.800000X1.800000*%
G04 APERTURE END LIST*
D10*
%TO.C,J8*%
X-14666666Y5807380D02*
X-14666666Y5093095D01*
X-14666666Y5093095D02*
X-14619047Y4950238D01*
X-14619047Y4950238D02*
X-14523809Y4855000D01*
X-14523809Y4855000D02*
X-14380952Y4807380D01*
X-14380952Y4807380D02*
X-14285714Y4807380D01*
X-15285714Y5378809D02*
X-15190476Y5426428D01*
X-15190476Y5426428D02*
X-15142857Y5474047D01*
X-15142857Y5474047D02*
X-15095238Y5569285D01*
X-15095238Y5569285D02*
X-15095238Y5616904D01*
X-15095238Y5616904D02*
X-15142857Y5712142D01*
X-15142857Y5712142D02*
X-15190476Y5759761D01*
X-15190476Y5759761D02*
X-15285714Y5807380D01*
X-15285714Y5807380D02*
X-15476190Y5807380D01*
X-15476190Y5807380D02*
X-15571428Y5759761D01*
X-15571428Y5759761D02*
X-15619047Y5712142D01*
X-15619047Y5712142D02*
X-15666666Y5616904D01*
X-15666666Y5616904D02*
X-15666666Y5569285D01*
X-15666666Y5569285D02*
X-15619047Y5474047D01*
X-15619047Y5474047D02*
X-15571428Y5426428D01*
X-15571428Y5426428D02*
X-15476190Y5378809D01*
X-15476190Y5378809D02*
X-15285714Y5378809D01*
X-15285714Y5378809D02*
X-15190476Y5331190D01*
X-15190476Y5331190D02*
X-15142857Y5283571D01*
X-15142857Y5283571D02*
X-15095238Y5188333D01*
X-15095238Y5188333D02*
X-15095238Y4997857D01*
X-15095238Y4997857D02*
X-15142857Y4902619D01*
X-15142857Y4902619D02*
X-15190476Y4855000D01*
X-15190476Y4855000D02*
X-15285714Y4807380D01*
X-15285714Y4807380D02*
X-15476190Y4807380D01*
X-15476190Y4807380D02*
X-15571428Y4855000D01*
X-15571428Y4855000D02*
X-15619047Y4902619D01*
X-15619047Y4902619D02*
X-15666666Y4997857D01*
X-15666666Y4997857D02*
X-15666666Y5188333D01*
X-15666666Y5188333D02*
X-15619047Y5283571D01*
X-15619047Y5283571D02*
X-15571428Y5331190D01*
X-15571428Y5331190D02*
X-15476190Y5378809D01*
%TO.C,J7*%
X-10066666Y5807380D02*
X-10066666Y5093095D01*
X-10066666Y5093095D02*
X-10019047Y4950238D01*
X-10019047Y4950238D02*
X-9923809Y4855000D01*
X-9923809Y4855000D02*
X-9780952Y4807380D01*
X-9780952Y4807380D02*
X-9685714Y4807380D01*
X-10447619Y5807380D02*
X-11114285Y5807380D01*
X-11114285Y5807380D02*
X-10685714Y4807380D01*
%TO.C,J6*%
X-5466666Y5807380D02*
X-5466666Y5093095D01*
X-5466666Y5093095D02*
X-5419047Y4950238D01*
X-5419047Y4950238D02*
X-5323809Y4855000D01*
X-5323809Y4855000D02*
X-5180952Y4807380D01*
X-5180952Y4807380D02*
X-5085714Y4807380D01*
X-6371428Y5807380D02*
X-6180952Y5807380D01*
X-6180952Y5807380D02*
X-6085714Y5759761D01*
X-6085714Y5759761D02*
X-6038095Y5712142D01*
X-6038095Y5712142D02*
X-5942857Y5569285D01*
X-5942857Y5569285D02*
X-5895238Y5378809D01*
X-5895238Y5378809D02*
X-5895238Y4997857D01*
X-5895238Y4997857D02*
X-5942857Y4902619D01*
X-5942857Y4902619D02*
X-5990476Y4855000D01*
X-5990476Y4855000D02*
X-6085714Y4807380D01*
X-6085714Y4807380D02*
X-6276190Y4807380D01*
X-6276190Y4807380D02*
X-6371428Y4855000D01*
X-6371428Y4855000D02*
X-6419047Y4902619D01*
X-6419047Y4902619D02*
X-6466666Y4997857D01*
X-6466666Y4997857D02*
X-6466666Y5235952D01*
X-6466666Y5235952D02*
X-6419047Y5331190D01*
X-6419047Y5331190D02*
X-6371428Y5378809D01*
X-6371428Y5378809D02*
X-6276190Y5426428D01*
X-6276190Y5426428D02*
X-6085714Y5426428D01*
X-6085714Y5426428D02*
X-5990476Y5378809D01*
X-5990476Y5378809D02*
X-5942857Y5331190D01*
X-5942857Y5331190D02*
X-5895238Y5235952D01*
%TO.C,J5*%
X-866666Y5807380D02*
X-866666Y5093095D01*
X-866666Y5093095D02*
X-819047Y4950238D01*
X-819047Y4950238D02*
X-723809Y4855000D01*
X-723809Y4855000D02*
X-580952Y4807380D01*
X-580952Y4807380D02*
X-485714Y4807380D01*
X-1819047Y5807380D02*
X-1342857Y5807380D01*
X-1342857Y5807380D02*
X-1295238Y5331190D01*
X-1295238Y5331190D02*
X-1342857Y5378809D01*
X-1342857Y5378809D02*
X-1438095Y5426428D01*
X-1438095Y5426428D02*
X-1676190Y5426428D01*
X-1676190Y5426428D02*
X-1771428Y5378809D01*
X-1771428Y5378809D02*
X-1819047Y5331190D01*
X-1819047Y5331190D02*
X-1866666Y5235952D01*
X-1866666Y5235952D02*
X-1866666Y4997857D01*
X-1866666Y4997857D02*
X-1819047Y4902619D01*
X-1819047Y4902619D02*
X-1771428Y4855000D01*
X-1771428Y4855000D02*
X-1676190Y4807380D01*
X-1676190Y4807380D02*
X-1438095Y4807380D01*
X-1438095Y4807380D02*
X-1342857Y4855000D01*
X-1342857Y4855000D02*
X-1295238Y4902619D01*
%TO.C,J4*%
X3733333Y5807380D02*
X3733333Y5093095D01*
X3733333Y5093095D02*
X3780952Y4950238D01*
X3780952Y4950238D02*
X3876190Y4855000D01*
X3876190Y4855000D02*
X4019047Y4807380D01*
X4019047Y4807380D02*
X4114285Y4807380D01*
X2828571Y5474047D02*
X2828571Y4807380D01*
X3066666Y5855000D02*
X3304761Y5140714D01*
X3304761Y5140714D02*
X2685714Y5140714D01*
%TO.C,J3*%
X8333333Y5807380D02*
X8333333Y5093095D01*
X8333333Y5093095D02*
X8380952Y4950238D01*
X8380952Y4950238D02*
X8476190Y4855000D01*
X8476190Y4855000D02*
X8619047Y4807380D01*
X8619047Y4807380D02*
X8714285Y4807380D01*
X7952380Y5807380D02*
X7333333Y5807380D01*
X7333333Y5807380D02*
X7666666Y5426428D01*
X7666666Y5426428D02*
X7523809Y5426428D01*
X7523809Y5426428D02*
X7428571Y5378809D01*
X7428571Y5378809D02*
X7380952Y5331190D01*
X7380952Y5331190D02*
X7333333Y5235952D01*
X7333333Y5235952D02*
X7333333Y4997857D01*
X7333333Y4997857D02*
X7380952Y4902619D01*
X7380952Y4902619D02*
X7428571Y4855000D01*
X7428571Y4855000D02*
X7523809Y4807380D01*
X7523809Y4807380D02*
X7809523Y4807380D01*
X7809523Y4807380D02*
X7904761Y4855000D01*
X7904761Y4855000D02*
X7952380Y4902619D01*
%TO.C,J2*%
X12933333Y5807380D02*
X12933333Y5093095D01*
X12933333Y5093095D02*
X12980952Y4950238D01*
X12980952Y4950238D02*
X13076190Y4855000D01*
X13076190Y4855000D02*
X13219047Y4807380D01*
X13219047Y4807380D02*
X13314285Y4807380D01*
X12504761Y5712142D02*
X12457142Y5759761D01*
X12457142Y5759761D02*
X12361904Y5807380D01*
X12361904Y5807380D02*
X12123809Y5807380D01*
X12123809Y5807380D02*
X12028571Y5759761D01*
X12028571Y5759761D02*
X11980952Y5712142D01*
X11980952Y5712142D02*
X11933333Y5616904D01*
X11933333Y5616904D02*
X11933333Y5521666D01*
X11933333Y5521666D02*
X11980952Y5378809D01*
X11980952Y5378809D02*
X12552380Y4807380D01*
X12552380Y4807380D02*
X11933333Y4807380D01*
D11*
%TO.C,J8*%
X-13670000Y-1370000D02*
X-16330000Y-1370000D01*
X-16330000Y3830000D02*
X-16330000Y2500000D01*
X-15000000Y3830000D02*
X-16330000Y3830000D01*
X-13670000Y1230000D02*
X-16330000Y1230000D01*
X-16330000Y1230000D02*
X-16330000Y-1370000D01*
X-13670000Y1230000D02*
X-13670000Y-1370000D01*
%TO.C,J7*%
X-9070000Y-1370000D02*
X-11730000Y-1370000D01*
X-11730000Y3830000D02*
X-11730000Y2500000D01*
X-10400000Y3830000D02*
X-11730000Y3830000D01*
X-9070000Y1230000D02*
X-11730000Y1230000D01*
X-11730000Y1230000D02*
X-11730000Y-1370000D01*
X-9070000Y1230000D02*
X-9070000Y-1370000D01*
%TO.C,J6*%
X-4470000Y-6450000D02*
X-7130000Y-6450000D01*
X-7130000Y1230000D02*
X-7130000Y-6450000D01*
X-4470000Y1230000D02*
X-7130000Y1230000D01*
X-4470000Y1230000D02*
X-4470000Y-6450000D01*
X-7130000Y3830000D02*
X-7130000Y2500000D01*
X-5800000Y3830000D02*
X-7130000Y3830000D01*
%TO.C,J5*%
X130000Y-6450000D02*
X-2530000Y-6450000D01*
X-2530000Y1230000D02*
X-2530000Y-6450000D01*
X130000Y1230000D02*
X-2530000Y1230000D01*
X130000Y1230000D02*
X130000Y-6450000D01*
X-2530000Y3830000D02*
X-2530000Y2500000D01*
X-1200000Y3830000D02*
X-2530000Y3830000D01*
%TO.C,J4*%
X4730000Y-6450000D02*
X2070000Y-6450000D01*
X2070000Y1230000D02*
X2070000Y-6450000D01*
X4730000Y1230000D02*
X2070000Y1230000D01*
X4730000Y1230000D02*
X4730000Y-6450000D01*
X2070000Y3830000D02*
X2070000Y2500000D01*
X3400000Y3830000D02*
X2070000Y3830000D01*
%TO.C,J3*%
X9330000Y-6450000D02*
X6670000Y-6450000D01*
X6670000Y1230000D02*
X6670000Y-6450000D01*
X9330000Y1230000D02*
X6670000Y1230000D01*
X9330000Y1230000D02*
X9330000Y-6450000D01*
X6670000Y3830000D02*
X6670000Y2500000D01*
X8000000Y3830000D02*
X6670000Y3830000D01*
%TO.C,J2*%
X13930000Y-6450000D02*
X11270000Y-6450000D01*
X11270000Y1230000D02*
X11270000Y-6450000D01*
X13930000Y1230000D02*
X11270000Y1230000D01*
X13930000Y1230000D02*
X13930000Y-6450000D01*
X11270000Y3830000D02*
X11270000Y2500000D01*
X12600000Y3830000D02*
X11270000Y3830000D01*
%TD*%
%LPC*%
D12*
X36323279Y0D02*
G75*
G03*
X36323279Y0I-36323279J0D01*
G01*
D13*
%TO.C,H8*%
X38341001Y15881362D03*
%TD*%
%TO.C,H7*%
X38341001Y-15881362D03*
%TD*%
D14*
%TO.C,J8*%
X-15000000Y-40000D03*
D15*
X-15000000Y2500000D03*
%TD*%
D14*
%TO.C,J7*%
X-10400000Y-40000D03*
D15*
X-10400000Y2500000D03*
%TD*%
D14*
%TO.C,J6*%
X-5800000Y-5120000D03*
X-5800000Y-2580000D03*
X-5800000Y-40000D03*
D15*
X-5800000Y2500000D03*
%TD*%
D14*
%TO.C,J5*%
X-1200000Y-5120000D03*
X-1200000Y-2580000D03*
X-1200000Y-40000D03*
D15*
X-1200000Y2500000D03*
%TD*%
D14*
%TO.C,J4*%
X3400000Y-5120000D03*
X3400000Y-2580000D03*
X3400000Y-40000D03*
D15*
X3400000Y2500000D03*
%TD*%
D14*
%TO.C,J3*%
X8000000Y-5120000D03*
X8000000Y-2580000D03*
X8000000Y-40000D03*
D15*
X8000000Y2500000D03*
%TD*%
D14*
%TO.C,J2*%
X12600000Y-5120000D03*
X12600000Y-2580000D03*
X12600000Y-40000D03*
D15*
X12600000Y2500000D03*
%TD*%
D16*
%TO.C,J1*%
X-23520000Y65080000D03*
X23520000Y65080000D03*
D17*
X-15235000Y66500000D03*
X-12465000Y66500000D03*
X-9695000Y66500000D03*
X-6925000Y66500000D03*
X-4155000Y66500000D03*
X-1385000Y66500000D03*
X1385000Y66500000D03*
X4155000Y66500000D03*
X6925000Y66500000D03*
X9695000Y66500000D03*
X12465000Y66500000D03*
X15235000Y66500000D03*
X-16620000Y63660000D03*
X-13850000Y63660000D03*
X-11080000Y63660000D03*
X-8310000Y63660000D03*
X-5540000Y63660000D03*
X-2770000Y63660000D03*
X0Y63660000D03*
X2770000Y63660000D03*
X5540000Y63660000D03*
X8310000Y63660000D03*
X11080000Y63660000D03*
X13850000Y63660000D03*
D18*
X16620000Y63660000D03*
%TD*%
D13*
%TO.C,H6*%
X15881362Y38341001D03*
%TD*%
%TO.C,H5*%
X-15881362Y-38341001D03*
%TD*%
%TO.C,H4*%
X15881362Y-38341001D03*
%TD*%
%TO.C,H3*%
X-38341001Y-15881362D03*
%TD*%
%TO.C,H2*%
X-38341001Y15881362D03*
%TD*%
%TO.C,H1*%
X-15881362Y38341001D03*
%TD*%
%LPD*%
M02*
