%TF.GenerationSoftware,KiCad,Pcbnew,7.0.2*%
%TF.CreationDate,2023-11-03T12:42:45-06:00*%
%TF.ProjectId,KF50_DB25_PinHeader,4b463530-5f44-4423-9235-5f50696e4865,rev?*%
%TF.SameCoordinates,Original*%
%TF.FileFunction,Legend,Top*%
%TF.FilePolarity,Positive*%
%FSLAX46Y46*%
G04 Gerber Fmt 4.6, Leading zero omitted, Abs format (unit mm)*
G04 Created by KiCad (PCBNEW 7.0.2) date 2023-11-03 12:42:45*
%MOMM*%
%LPD*%
G01*
G04 APERTURE LIST*
%ADD10C,0.200000*%
%ADD11C,0.150000*%
%ADD12C,0.254000*%
%ADD13C,22.000000*%
%ADD14C,10.000000*%
%ADD15O,1.700000X1.700000*%
%ADD16R,1.700000X1.700000*%
%ADD17C,5.000000*%
%ADD18C,1.800000*%
%ADD19R,1.800000X1.800000*%
G04 APERTURE END LIST*
D10*
X-26500000Y70520000D02*
X26500000Y70520000D01*
D11*
%TO.C,H8*%
X37579096Y21418742D02*
X37579096Y22418742D01*
X37579096Y21942552D02*
X38150524Y21942552D01*
X38150524Y21418742D02*
X38150524Y22418742D01*
X38769572Y21990171D02*
X38674334Y22037790D01*
X38674334Y22037790D02*
X38626715Y22085409D01*
X38626715Y22085409D02*
X38579096Y22180647D01*
X38579096Y22180647D02*
X38579096Y22228266D01*
X38579096Y22228266D02*
X38626715Y22323504D01*
X38626715Y22323504D02*
X38674334Y22371123D01*
X38674334Y22371123D02*
X38769572Y22418742D01*
X38769572Y22418742D02*
X38960048Y22418742D01*
X38960048Y22418742D02*
X39055286Y22371123D01*
X39055286Y22371123D02*
X39102905Y22323504D01*
X39102905Y22323504D02*
X39150524Y22228266D01*
X39150524Y22228266D02*
X39150524Y22180647D01*
X39150524Y22180647D02*
X39102905Y22085409D01*
X39102905Y22085409D02*
X39055286Y22037790D01*
X39055286Y22037790D02*
X38960048Y21990171D01*
X38960048Y21990171D02*
X38769572Y21990171D01*
X38769572Y21990171D02*
X38674334Y21942552D01*
X38674334Y21942552D02*
X38626715Y21894933D01*
X38626715Y21894933D02*
X38579096Y21799695D01*
X38579096Y21799695D02*
X38579096Y21609219D01*
X38579096Y21609219D02*
X38626715Y21513981D01*
X38626715Y21513981D02*
X38674334Y21466362D01*
X38674334Y21466362D02*
X38769572Y21418742D01*
X38769572Y21418742D02*
X38960048Y21418742D01*
X38960048Y21418742D02*
X39055286Y21466362D01*
X39055286Y21466362D02*
X39102905Y21513981D01*
X39102905Y21513981D02*
X39150524Y21609219D01*
X39150524Y21609219D02*
X39150524Y21799695D01*
X39150524Y21799695D02*
X39102905Y21894933D01*
X39102905Y21894933D02*
X39055286Y21942552D01*
X39055286Y21942552D02*
X38960048Y21990171D01*
%TO.C,H7*%
X37579096Y-10343981D02*
X37579096Y-9343981D01*
X37579096Y-9820171D02*
X38150524Y-9820171D01*
X38150524Y-10343981D02*
X38150524Y-9343981D01*
X38531477Y-9343981D02*
X39198143Y-9343981D01*
X39198143Y-9343981D02*
X38769572Y-10343981D01*
%TO.C,J1*%
X-1190476Y62410380D02*
X-1190476Y61696095D01*
X-1190476Y61696095D02*
X-1238095Y61553238D01*
X-1238095Y61553238D02*
X-1333333Y61458000D01*
X-1333333Y61458000D02*
X-1476190Y61410380D01*
X-1476190Y61410380D02*
X-1571428Y61410380D01*
X-190476Y61410380D02*
X-761904Y61410380D01*
X-476190Y61410380D02*
X-476190Y62410380D01*
X-476190Y62410380D02*
X-571428Y62267523D01*
X-571428Y62267523D02*
X-666666Y62172285D01*
X-666666Y62172285D02*
X-761904Y62124666D01*
%TO.C,H6*%
X15119457Y43878381D02*
X15119457Y44878381D01*
X15119457Y44402191D02*
X15690885Y44402191D01*
X15690885Y43878381D02*
X15690885Y44878381D01*
X16595647Y44878381D02*
X16405171Y44878381D01*
X16405171Y44878381D02*
X16309933Y44830762D01*
X16309933Y44830762D02*
X16262314Y44783143D01*
X16262314Y44783143D02*
X16167076Y44640286D01*
X16167076Y44640286D02*
X16119457Y44449810D01*
X16119457Y44449810D02*
X16119457Y44068858D01*
X16119457Y44068858D02*
X16167076Y43973620D01*
X16167076Y43973620D02*
X16214695Y43926001D01*
X16214695Y43926001D02*
X16309933Y43878381D01*
X16309933Y43878381D02*
X16500409Y43878381D01*
X16500409Y43878381D02*
X16595647Y43926001D01*
X16595647Y43926001D02*
X16643266Y43973620D01*
X16643266Y43973620D02*
X16690885Y44068858D01*
X16690885Y44068858D02*
X16690885Y44306953D01*
X16690885Y44306953D02*
X16643266Y44402191D01*
X16643266Y44402191D02*
X16595647Y44449810D01*
X16595647Y44449810D02*
X16500409Y44497429D01*
X16500409Y44497429D02*
X16309933Y44497429D01*
X16309933Y44497429D02*
X16214695Y44449810D01*
X16214695Y44449810D02*
X16167076Y44402191D01*
X16167076Y44402191D02*
X16119457Y44306953D01*
%TO.C,H5*%
X-16643266Y-32803620D02*
X-16643266Y-31803620D01*
X-16643266Y-32279810D02*
X-16071838Y-32279810D01*
X-16071838Y-32803620D02*
X-16071838Y-31803620D01*
X-15119457Y-31803620D02*
X-15595647Y-31803620D01*
X-15595647Y-31803620D02*
X-15643266Y-32279810D01*
X-15643266Y-32279810D02*
X-15595647Y-32232191D01*
X-15595647Y-32232191D02*
X-15500409Y-32184572D01*
X-15500409Y-32184572D02*
X-15262314Y-32184572D01*
X-15262314Y-32184572D02*
X-15167076Y-32232191D01*
X-15167076Y-32232191D02*
X-15119457Y-32279810D01*
X-15119457Y-32279810D02*
X-15071838Y-32375048D01*
X-15071838Y-32375048D02*
X-15071838Y-32613143D01*
X-15071838Y-32613143D02*
X-15119457Y-32708381D01*
X-15119457Y-32708381D02*
X-15167076Y-32756001D01*
X-15167076Y-32756001D02*
X-15262314Y-32803620D01*
X-15262314Y-32803620D02*
X-15500409Y-32803620D01*
X-15500409Y-32803620D02*
X-15595647Y-32756001D01*
X-15595647Y-32756001D02*
X-15643266Y-32708381D01*
%TO.C,H4*%
X15119457Y-32803620D02*
X15119457Y-31803620D01*
X15119457Y-32279810D02*
X15690885Y-32279810D01*
X15690885Y-32803620D02*
X15690885Y-31803620D01*
X16595647Y-32136953D02*
X16595647Y-32803620D01*
X16357552Y-31756001D02*
X16119457Y-32470286D01*
X16119457Y-32470286D02*
X16738504Y-32470286D01*
%TO.C,H3*%
X-39102905Y-10343981D02*
X-39102905Y-9343981D01*
X-39102905Y-9820171D02*
X-38531477Y-9820171D01*
X-38531477Y-10343981D02*
X-38531477Y-9343981D01*
X-38150524Y-9343981D02*
X-37531477Y-9343981D01*
X-37531477Y-9343981D02*
X-37864810Y-9724933D01*
X-37864810Y-9724933D02*
X-37721953Y-9724933D01*
X-37721953Y-9724933D02*
X-37626715Y-9772552D01*
X-37626715Y-9772552D02*
X-37579096Y-9820171D01*
X-37579096Y-9820171D02*
X-37531477Y-9915409D01*
X-37531477Y-9915409D02*
X-37531477Y-10153504D01*
X-37531477Y-10153504D02*
X-37579096Y-10248742D01*
X-37579096Y-10248742D02*
X-37626715Y-10296362D01*
X-37626715Y-10296362D02*
X-37721953Y-10343981D01*
X-37721953Y-10343981D02*
X-38007667Y-10343981D01*
X-38007667Y-10343981D02*
X-38102905Y-10296362D01*
X-38102905Y-10296362D02*
X-38150524Y-10248742D01*
%TO.C,H2*%
X-39102905Y21418742D02*
X-39102905Y22418742D01*
X-39102905Y21942552D02*
X-38531477Y21942552D01*
X-38531477Y21418742D02*
X-38531477Y22418742D01*
X-38102905Y22323504D02*
X-38055286Y22371123D01*
X-38055286Y22371123D02*
X-37960048Y22418742D01*
X-37960048Y22418742D02*
X-37721953Y22418742D01*
X-37721953Y22418742D02*
X-37626715Y22371123D01*
X-37626715Y22371123D02*
X-37579096Y22323504D01*
X-37579096Y22323504D02*
X-37531477Y22228266D01*
X-37531477Y22228266D02*
X-37531477Y22133028D01*
X-37531477Y22133028D02*
X-37579096Y21990171D01*
X-37579096Y21990171D02*
X-38150524Y21418742D01*
X-38150524Y21418742D02*
X-37531477Y21418742D01*
%TO.C,H1*%
X-16643266Y43878381D02*
X-16643266Y44878381D01*
X-16643266Y44402191D02*
X-16071838Y44402191D01*
X-16071838Y43878381D02*
X-16071838Y44878381D01*
X-15071838Y43878381D02*
X-15643266Y43878381D01*
X-15357552Y43878381D02*
X-15357552Y44878381D01*
X-15357552Y44878381D02*
X-15452790Y44735524D01*
X-15452790Y44735524D02*
X-15548028Y44640286D01*
X-15548028Y44640286D02*
X-15643266Y44592667D01*
D12*
%TO.C,J1*%
X-26550000Y62030000D02*
X26536000Y62030000D01*
X-26543000Y74605000D02*
X-26543000Y62159000D01*
X-26543000Y65080000D02*
X-26550000Y62030000D01*
X-25273000Y80320000D02*
X-21844000Y80320000D01*
X-25273000Y74605000D02*
X-25273000Y80320000D01*
X-21844000Y80320000D02*
X-21844000Y74605000D01*
X-19558000Y80574000D02*
X19431000Y80574000D01*
X-19558000Y74605000D02*
X-19558000Y80574000D01*
X19431000Y80574000D02*
X19431000Y74732000D01*
X21717000Y80320000D02*
X21717000Y74605000D01*
X25146000Y80320000D02*
X21717000Y80320000D01*
X25146000Y74605000D02*
X25146000Y80320000D01*
X26540000Y62030000D02*
X26543000Y74605000D01*
X26543000Y74605000D02*
X-26543000Y74605000D01*
%TD*%
%LPC*%
D13*
X36323279Y0D02*
G75*
G03*
X36323279Y0I-36323279J0D01*
G01*
D14*
%TO.C,H8*%
X38341001Y15881362D03*
%TD*%
%TO.C,H7*%
X38341001Y-15881362D03*
%TD*%
D15*
%TO.C,J8*%
X-15000000Y-40000D03*
D16*
X-15000000Y2500000D03*
%TD*%
D15*
%TO.C,J7*%
X-10400000Y-40000D03*
D16*
X-10400000Y2500000D03*
%TD*%
D15*
%TO.C,J6*%
X-5800000Y-5120000D03*
X-5800000Y-2580000D03*
X-5800000Y-40000D03*
D16*
X-5800000Y2500000D03*
%TD*%
D15*
%TO.C,J5*%
X-1200000Y-5120000D03*
X-1200000Y-2580000D03*
X-1200000Y-40000D03*
D16*
X-1200000Y2500000D03*
%TD*%
D15*
%TO.C,J4*%
X3400000Y-5120000D03*
X3400000Y-2580000D03*
X3400000Y-40000D03*
D16*
X3400000Y2500000D03*
%TD*%
D15*
%TO.C,J3*%
X8000000Y-5120000D03*
X8000000Y-2580000D03*
X8000000Y-40000D03*
D16*
X8000000Y2500000D03*
%TD*%
D15*
%TO.C,J2*%
X12600000Y-5120000D03*
X12600000Y-2580000D03*
X12600000Y-40000D03*
D16*
X12600000Y2500000D03*
%TD*%
D17*
%TO.C,J1*%
X-23520000Y65080000D03*
X23520000Y65080000D03*
D18*
X-15235000Y66500000D03*
X-12465000Y66500000D03*
X-9695000Y66500000D03*
X-6925000Y66500000D03*
X-4155000Y66500000D03*
X-1385000Y66500000D03*
X1385000Y66500000D03*
X4155000Y66500000D03*
X6925000Y66500000D03*
X9695000Y66500000D03*
X12465000Y66500000D03*
X15235000Y66500000D03*
X-16620000Y63660000D03*
X-13850000Y63660000D03*
X-11080000Y63660000D03*
X-8310000Y63660000D03*
X-5540000Y63660000D03*
X-2770000Y63660000D03*
X0Y63660000D03*
X2770000Y63660000D03*
X5540000Y63660000D03*
X8310000Y63660000D03*
X11080000Y63660000D03*
X13850000Y63660000D03*
D19*
X16620000Y63660000D03*
%TD*%
D14*
%TO.C,H6*%
X15881362Y38341001D03*
%TD*%
%TO.C,H5*%
X-15881362Y-38341001D03*
%TD*%
%TO.C,H4*%
X15881362Y-38341001D03*
%TD*%
%TO.C,H3*%
X-38341001Y-15881362D03*
%TD*%
%TO.C,H2*%
X-38341001Y15881362D03*
%TD*%
%TO.C,H1*%
X-15881362Y38341001D03*
%TD*%
%LPD*%
M02*
