%TF.GenerationSoftware,KiCad,Pcbnew,7.0.9*%
%TF.CreationDate,2024-05-16T17:58:55-06:00*%
%TF.ProjectId,KF50_Stepper_FT_1B_1O,4b463530-5f53-4746-9570-7065725f4654,rev?*%
%TF.SameCoordinates,Original*%
%TF.FileFunction,Legend,Top*%
%TF.FilePolarity,Positive*%
%FSLAX46Y46*%
G04 Gerber Fmt 4.6, Leading zero omitted, Abs format (unit mm)*
G04 Created by KiCad (PCBNEW 7.0.9) date 2024-05-16 17:58:55*
%MOMM*%
%LPD*%
G01*
G04 APERTURE LIST*
%ADD10C,0.150000*%
%ADD11C,0.130000*%
%ADD12C,0.250000*%
%ADD13C,22.000000*%
%ADD14C,6.350000*%
%ADD15C,1.800000*%
%ADD16R,1.800000X1.800000*%
%ADD17C,10.000000*%
G04 APERTURE END LIST*
D10*
X-333333Y51125180D02*
X-333333Y50410895D01*
X-333333Y50410895D02*
X-380952Y50268038D01*
X-380952Y50268038D02*
X-476190Y50172800D01*
X-476190Y50172800D02*
X-619047Y50125180D01*
X-619047Y50125180D02*
X-714285Y50125180D01*
X571428Y50791847D02*
X571428Y50125180D01*
X333333Y51172800D02*
X95238Y50458514D01*
X95238Y50458514D02*
X714285Y50458514D01*
X-333333Y5965180D02*
X-333333Y5250895D01*
X-333333Y5250895D02*
X-380952Y5108038D01*
X-380952Y5108038D02*
X-476190Y5012800D01*
X-476190Y5012800D02*
X-619047Y4965180D01*
X-619047Y4965180D02*
X-714285Y4965180D01*
X47619Y5965180D02*
X666666Y5965180D01*
X666666Y5965180D02*
X333333Y5584228D01*
X333333Y5584228D02*
X476190Y5584228D01*
X476190Y5584228D02*
X571428Y5536609D01*
X571428Y5536609D02*
X619047Y5488990D01*
X619047Y5488990D02*
X666666Y5393752D01*
X666666Y5393752D02*
X666666Y5155657D01*
X666666Y5155657D02*
X619047Y5060419D01*
X619047Y5060419D02*
X571428Y5012800D01*
X571428Y5012800D02*
X476190Y4965180D01*
X476190Y4965180D02*
X190476Y4965180D01*
X190476Y4965180D02*
X95238Y5012800D01*
X95238Y5012800D02*
X47619Y5060419D01*
D11*
X-10713521Y2085569D02*
X-10808759Y2133188D01*
X-10808759Y2133188D02*
X-10856378Y2180807D01*
X-10856378Y2180807D02*
X-10903997Y2276045D01*
X-10903997Y2276045D02*
X-10903997Y2323664D01*
X-10903997Y2323664D02*
X-10856378Y2418902D01*
X-10856378Y2418902D02*
X-10808759Y2466521D01*
X-10808759Y2466521D02*
X-10713521Y2514140D01*
X-10713521Y2514140D02*
X-10523045Y2514140D01*
X-10523045Y2514140D02*
X-10427807Y2466521D01*
X-10427807Y2466521D02*
X-10380188Y2418902D01*
X-10380188Y2418902D02*
X-10332569Y2323664D01*
X-10332569Y2323664D02*
X-10332569Y2276045D01*
X-10332569Y2276045D02*
X-10380188Y2180807D01*
X-10380188Y2180807D02*
X-10427807Y2133188D01*
X-10427807Y2133188D02*
X-10523045Y2085569D01*
X-10523045Y2085569D02*
X-10713521Y2085569D01*
X-10713521Y2085569D02*
X-10808759Y2037950D01*
X-10808759Y2037950D02*
X-10856378Y1990331D01*
X-10856378Y1990331D02*
X-10903997Y1895093D01*
X-10903997Y1895093D02*
X-10903997Y1704617D01*
X-10903997Y1704617D02*
X-10856378Y1609379D01*
X-10856378Y1609379D02*
X-10808759Y1561760D01*
X-10808759Y1561760D02*
X-10713521Y1514140D01*
X-10713521Y1514140D02*
X-10523045Y1514140D01*
X-10523045Y1514140D02*
X-10427807Y1561760D01*
X-10427807Y1561760D02*
X-10380188Y1609379D01*
X-10380188Y1609379D02*
X-10332569Y1704617D01*
X-10332569Y1704617D02*
X-10332569Y1895093D01*
X-10332569Y1895093D02*
X-10380188Y1990331D01*
X-10380188Y1990331D02*
X-10427807Y2037950D01*
X-10427807Y2037950D02*
X-10523045Y2085569D01*
X10431240Y-1755859D02*
X10621716Y-1755859D01*
X10621716Y-1755859D02*
X10716954Y-1708240D01*
X10716954Y-1708240D02*
X10764573Y-1660620D01*
X10764573Y-1660620D02*
X10859811Y-1517763D01*
X10859811Y-1517763D02*
X10907430Y-1327287D01*
X10907430Y-1327287D02*
X10907430Y-946335D01*
X10907430Y-946335D02*
X10859811Y-851097D01*
X10859811Y-851097D02*
X10812192Y-803478D01*
X10812192Y-803478D02*
X10716954Y-755859D01*
X10716954Y-755859D02*
X10526478Y-755859D01*
X10526478Y-755859D02*
X10431240Y-803478D01*
X10431240Y-803478D02*
X10383621Y-851097D01*
X10383621Y-851097D02*
X10336002Y-946335D01*
X10336002Y-946335D02*
X10336002Y-1184430D01*
X10336002Y-1184430D02*
X10383621Y-1279668D01*
X10383621Y-1279668D02*
X10431240Y-1327287D01*
X10431240Y-1327287D02*
X10526478Y-1374906D01*
X10526478Y-1374906D02*
X10716954Y-1374906D01*
X10716954Y-1374906D02*
X10812192Y-1327287D01*
X10812192Y-1327287D02*
X10859811Y-1279668D01*
X10859811Y-1279668D02*
X10907430Y-1184430D01*
X12097430Y594140D02*
X11526002Y594140D01*
X11811716Y594140D02*
X11811716Y1594140D01*
X11811716Y1594140D02*
X11716478Y1451283D01*
X11716478Y1451283D02*
X11621240Y1356045D01*
X11621240Y1356045D02*
X11526002Y1308426D01*
X-9942569Y-2165859D02*
X-10513997Y-2165859D01*
X-10228283Y-2165859D02*
X-10228283Y-1165859D01*
X-10228283Y-1165859D02*
X-10323521Y-1308716D01*
X-10323521Y-1308716D02*
X-10418759Y-1403954D01*
X-10418759Y-1403954D02*
X-10513997Y-1451573D01*
X-9037807Y-1165859D02*
X-9513997Y-1165859D01*
X-9513997Y-1165859D02*
X-9561616Y-1642049D01*
X-9561616Y-1642049D02*
X-9513997Y-1594430D01*
X-9513997Y-1594430D02*
X-9418759Y-1546811D01*
X-9418759Y-1546811D02*
X-9180664Y-1546811D01*
X-9180664Y-1546811D02*
X-9085426Y-1594430D01*
X-9085426Y-1594430D02*
X-9037807Y-1642049D01*
X-9037807Y-1642049D02*
X-8990188Y-1737287D01*
X-8990188Y-1737287D02*
X-8990188Y-1975382D01*
X-8990188Y-1975382D02*
X-9037807Y-2070620D01*
X-9037807Y-2070620D02*
X-9085426Y-2118240D01*
X-9085426Y-2118240D02*
X-9180664Y-2165859D01*
X-9180664Y-2165859D02*
X-9418759Y-2165859D01*
X-9418759Y-2165859D02*
X-9513997Y-2118240D01*
X-9513997Y-2118240D02*
X-9561616Y-2070620D01*
D10*
X37509096Y21366542D02*
X37509096Y22366542D01*
X37509096Y21890352D02*
X38080524Y21890352D01*
X38080524Y21366542D02*
X38080524Y22366542D01*
X38699572Y21937971D02*
X38604334Y21985590D01*
X38604334Y21985590D02*
X38556715Y22033209D01*
X38556715Y22033209D02*
X38509096Y22128447D01*
X38509096Y22128447D02*
X38509096Y22176066D01*
X38509096Y22176066D02*
X38556715Y22271304D01*
X38556715Y22271304D02*
X38604334Y22318923D01*
X38604334Y22318923D02*
X38699572Y22366542D01*
X38699572Y22366542D02*
X38890048Y22366542D01*
X38890048Y22366542D02*
X38985286Y22318923D01*
X38985286Y22318923D02*
X39032905Y22271304D01*
X39032905Y22271304D02*
X39080524Y22176066D01*
X39080524Y22176066D02*
X39080524Y22128447D01*
X39080524Y22128447D02*
X39032905Y22033209D01*
X39032905Y22033209D02*
X38985286Y21985590D01*
X38985286Y21985590D02*
X38890048Y21937971D01*
X38890048Y21937971D02*
X38699572Y21937971D01*
X38699572Y21937971D02*
X38604334Y21890352D01*
X38604334Y21890352D02*
X38556715Y21842733D01*
X38556715Y21842733D02*
X38509096Y21747495D01*
X38509096Y21747495D02*
X38509096Y21557019D01*
X38509096Y21557019D02*
X38556715Y21461781D01*
X38556715Y21461781D02*
X38604334Y21414162D01*
X38604334Y21414162D02*
X38699572Y21366542D01*
X38699572Y21366542D02*
X38890048Y21366542D01*
X38890048Y21366542D02*
X38985286Y21414162D01*
X38985286Y21414162D02*
X39032905Y21461781D01*
X39032905Y21461781D02*
X39080524Y21557019D01*
X39080524Y21557019D02*
X39080524Y21747495D01*
X39080524Y21747495D02*
X39032905Y21842733D01*
X39032905Y21842733D02*
X38985286Y21890352D01*
X38985286Y21890352D02*
X38890048Y21937971D01*
X37509096Y-10396181D02*
X37509096Y-9396181D01*
X37509096Y-9872371D02*
X38080524Y-9872371D01*
X38080524Y-10396181D02*
X38080524Y-9396181D01*
X38461477Y-9396181D02*
X39128143Y-9396181D01*
X39128143Y-9396181D02*
X38699572Y-10396181D01*
X15049457Y43826181D02*
X15049457Y44826181D01*
X15049457Y44349991D02*
X15620885Y44349991D01*
X15620885Y43826181D02*
X15620885Y44826181D01*
X16525647Y44826181D02*
X16335171Y44826181D01*
X16335171Y44826181D02*
X16239933Y44778562D01*
X16239933Y44778562D02*
X16192314Y44730943D01*
X16192314Y44730943D02*
X16097076Y44588086D01*
X16097076Y44588086D02*
X16049457Y44397610D01*
X16049457Y44397610D02*
X16049457Y44016658D01*
X16049457Y44016658D02*
X16097076Y43921420D01*
X16097076Y43921420D02*
X16144695Y43873801D01*
X16144695Y43873801D02*
X16239933Y43826181D01*
X16239933Y43826181D02*
X16430409Y43826181D01*
X16430409Y43826181D02*
X16525647Y43873801D01*
X16525647Y43873801D02*
X16573266Y43921420D01*
X16573266Y43921420D02*
X16620885Y44016658D01*
X16620885Y44016658D02*
X16620885Y44254753D01*
X16620885Y44254753D02*
X16573266Y44349991D01*
X16573266Y44349991D02*
X16525647Y44397610D01*
X16525647Y44397610D02*
X16430409Y44445229D01*
X16430409Y44445229D02*
X16239933Y44445229D01*
X16239933Y44445229D02*
X16144695Y44397610D01*
X16144695Y44397610D02*
X16097076Y44349991D01*
X16097076Y44349991D02*
X16049457Y44254753D01*
X14858981Y-32855820D02*
X14858981Y-31855820D01*
X14858981Y-32332010D02*
X15430409Y-32332010D01*
X15430409Y-32855820D02*
X15430409Y-31855820D01*
X15906600Y-32855820D02*
X15906600Y-32189153D01*
X15906600Y-32284391D02*
X15954219Y-32236772D01*
X15954219Y-32236772D02*
X16049457Y-32189153D01*
X16049457Y-32189153D02*
X16192314Y-32189153D01*
X16192314Y-32189153D02*
X16287552Y-32236772D01*
X16287552Y-32236772D02*
X16335171Y-32332010D01*
X16335171Y-32332010D02*
X16335171Y-32855820D01*
X16335171Y-32332010D02*
X16382790Y-32236772D01*
X16382790Y-32236772D02*
X16478028Y-32189153D01*
X16478028Y-32189153D02*
X16620885Y-32189153D01*
X16620885Y-32189153D02*
X16716124Y-32236772D01*
X16716124Y-32236772D02*
X16763743Y-32332010D01*
X16763743Y-32332010D02*
X16763743Y-32855820D01*
X-16713266Y43826181D02*
X-16713266Y44826181D01*
X-16713266Y44349991D02*
X-16141838Y44349991D01*
X-16141838Y43826181D02*
X-16141838Y44826181D01*
X-15237076Y44492848D02*
X-15237076Y43826181D01*
X-15475171Y44873801D02*
X-15713266Y44159515D01*
X-15713266Y44159515D02*
X-15094219Y44159515D01*
X-16713266Y-32855820D02*
X-16713266Y-31855820D01*
X-16713266Y-32332010D02*
X-16141838Y-32332010D01*
X-16141838Y-32855820D02*
X-16141838Y-31855820D01*
X-15760885Y-31855820D02*
X-15141838Y-31855820D01*
X-15141838Y-31855820D02*
X-15475171Y-32236772D01*
X-15475171Y-32236772D02*
X-15332314Y-32236772D01*
X-15332314Y-32236772D02*
X-15237076Y-32284391D01*
X-15237076Y-32284391D02*
X-15189457Y-32332010D01*
X-15189457Y-32332010D02*
X-15141838Y-32427248D01*
X-15141838Y-32427248D02*
X-15141838Y-32665343D01*
X-15141838Y-32665343D02*
X-15189457Y-32760581D01*
X-15189457Y-32760581D02*
X-15237076Y-32808201D01*
X-15237076Y-32808201D02*
X-15332314Y-32855820D01*
X-15332314Y-32855820D02*
X-15618028Y-32855820D01*
X-15618028Y-32855820D02*
X-15713266Y-32808201D01*
X-15713266Y-32808201D02*
X-15760885Y-32760581D01*
X-39172905Y21366542D02*
X-39172905Y22366542D01*
X-39172905Y21890352D02*
X-38601477Y21890352D01*
X-38601477Y21366542D02*
X-38601477Y22366542D01*
X-38172905Y22271304D02*
X-38125286Y22318923D01*
X-38125286Y22318923D02*
X-38030048Y22366542D01*
X-38030048Y22366542D02*
X-37791953Y22366542D01*
X-37791953Y22366542D02*
X-37696715Y22318923D01*
X-37696715Y22318923D02*
X-37649096Y22271304D01*
X-37649096Y22271304D02*
X-37601477Y22176066D01*
X-37601477Y22176066D02*
X-37601477Y22080828D01*
X-37601477Y22080828D02*
X-37649096Y21937971D01*
X-37649096Y21937971D02*
X-38220524Y21366542D01*
X-38220524Y21366542D02*
X-37601477Y21366542D01*
X-39172905Y-10396181D02*
X-39172905Y-9396181D01*
X-39172905Y-9872371D02*
X-38601477Y-9872371D01*
X-38601477Y-10396181D02*
X-38601477Y-9396181D01*
X-37601477Y-10396181D02*
X-38172905Y-10396181D01*
X-37887191Y-10396181D02*
X-37887191Y-9396181D01*
X-37887191Y-9396181D02*
X-37982429Y-9539038D01*
X-37982429Y-9539038D02*
X-38077667Y-9634276D01*
X-38077667Y-9634276D02*
X-38172905Y-9681895D01*
D12*
%TO.C,J4*%
X19600000Y53790000D02*
X10670000Y53790000D01*
X19600000Y65700000D02*
X19600000Y53790000D01*
X14000000Y72300000D02*
X14000000Y65800000D01*
X13300000Y63700000D02*
X13300000Y53800000D01*
X9050000Y53790000D02*
X7890000Y53790000D01*
X6270000Y53790000D02*
X5110000Y53790000D01*
X3490000Y53790000D02*
X2330000Y53790000D01*
X710000Y53790000D02*
X-450000Y53790000D01*
X-2070000Y53790000D02*
X-3230000Y53790000D01*
X-4850000Y53790000D02*
X-6010000Y53790000D01*
X-7630000Y53790000D02*
X-8790000Y53790000D01*
X-10410000Y53790000D02*
X-19600000Y53790000D01*
X-13200000Y63700000D02*
X13300000Y63700000D01*
X-13300000Y63700000D02*
X-13300000Y53790000D01*
X-14000000Y72400000D02*
X14000000Y72400000D01*
X-14000000Y72400000D02*
X-14000000Y65900000D01*
X-19600000Y65710000D02*
X-19600000Y53800000D01*
X-19600000Y65730000D02*
X19600000Y65730000D01*
%TO.C,J3*%
X-19590000Y6280000D02*
X-19590000Y-6270000D01*
X-19590000Y6280000D02*
X19590000Y6280000D01*
X-19590000Y-6270000D02*
X19590000Y-6270000D01*
X-12050000Y2620000D02*
X-10980000Y-2930000D01*
X-10930000Y3910000D02*
X10890000Y3940000D01*
X-9680000Y-3860000D02*
X10150000Y-3830000D01*
X12260000Y2570000D02*
X11130000Y-3110000D01*
X19590000Y6280000D02*
X19590000Y-6270000D01*
X-10750000Y3920000D02*
G75*
G03*
X-12050000Y2620000I-1J-1299999D01*
G01*
X-10979999Y-2930000D02*
G75*
G03*
X-9678348Y-3862441I1299998J439999D01*
G01*
X12260000Y2570000D02*
G75*
G03*
X10890000Y3940000I-1370000J0D01*
G01*
X9960000Y-3840000D02*
G75*
G03*
X11129128Y-3108455I0J1300000D01*
G01*
%TD*%
%LPC*%
D13*
X36323279Y0D02*
G75*
G03*
X36323279Y0I-36323279J0D01*
G01*
D14*
%TO.C,J4*%
X16660000Y56000000D03*
X-16660000Y56000000D03*
D15*
X9860000Y54580000D03*
X7080000Y54580000D03*
X4300000Y54580000D03*
X1520000Y54580000D03*
X-1260000Y54580000D03*
X-4040000Y54580000D03*
X-6820000Y54580000D03*
X-9600000Y54580000D03*
X8470000Y57420000D03*
X5690000Y57420000D03*
X2910000Y57420000D03*
X130000Y57420000D03*
X-2650000Y57420000D03*
X-5430000Y57420000D03*
X-8210000Y57420000D03*
%TD*%
D14*
%TO.C,J3*%
X-16660000Y0D03*
X16660000Y0D03*
D16*
X9700000Y1420000D03*
D15*
X6920000Y1420000D03*
X4160000Y1420000D03*
X1380000Y1420000D03*
X-1380000Y1420000D03*
X-4160000Y1420000D03*
X-6920000Y1420000D03*
X-9700000Y1420000D03*
X8310000Y-1420000D03*
X5540000Y-1420000D03*
X2770000Y-1420000D03*
X0Y-1420000D03*
X-2770000Y-1420000D03*
X-5540000Y-1420000D03*
X-8310000Y-1420000D03*
%TD*%
D17*
%TO.C,H8*%
X38271001Y15821362D03*
%TD*%
%TO.C,H7*%
X38271001Y-15941362D03*
%TD*%
%TO.C,H6*%
X15811362Y38281001D03*
%TD*%
%TO.C,Hm*%
X15811362Y-38401001D03*
%TD*%
%TO.C,H4*%
X-15951362Y38281001D03*
%TD*%
%TO.C,H3*%
X-15951362Y-38401001D03*
%TD*%
%TO.C,H2*%
X-38411001Y15821362D03*
%TD*%
%TO.C,H1*%
X-38411001Y-15941362D03*
%TD*%
%LPD*%
M02*
