%TF.GenerationSoftware,KiCad,Pcbnew,7.0.9*%
%TF.CreationDate,2024-08-20T19:33:21-06:00*%
%TF.ProjectId,4K layer,344b206c-6179-4657-922e-6b696361645f,rev?*%
%TF.SameCoordinates,Original*%
%TF.FileFunction,Copper,L4,Bot*%
%TF.FilePolarity,Positive*%
%FSLAX46Y46*%
G04 Gerber Fmt 4.6, Leading zero omitted, Abs format (unit mm)*
G04 Created by KiCad (PCBNEW 7.0.9) date 2024-08-20 19:33:21*
%MOMM*%
%LPD*%
G01*
G04 APERTURE LIST*
G04 APERTURE END LIST*
%TA.AperFunction,NonConductor*%
G36*
X132822435Y999264D02*
G01*
X132865141Y995526D01*
X132991516Y983073D01*
X133011450Y979446D01*
X133077941Y961629D01*
X133171346Y933291D01*
X133187752Y927014D01*
X133254933Y895686D01*
X133257958Y894173D01*
X133342167Y849160D01*
X133348506Y845266D01*
X133414358Y799157D01*
X133418132Y796294D01*
X133490736Y736707D01*
X133495245Y732621D01*
X133552311Y675559D01*
X133556402Y671045D01*
X133616209Y598167D01*
X133619068Y594398D01*
X133664862Y529002D01*
X133668759Y522659D01*
X133714300Y437457D01*
X133715810Y434436D01*
X133746611Y368393D01*
X133752892Y351979D01*
X133781964Y256145D01*
X133799113Y192159D01*
X133802740Y172238D01*
X133815830Y39621D01*
X133819003Y3383D01*
X133819240Y-2029D01*
X133819240Y-15353125D01*
X133810251Y-15570421D01*
X133801577Y-15769041D01*
X133801160Y-15774007D01*
X133774268Y-15989751D01*
X133747850Y-16190398D01*
X133747061Y-16195029D01*
X133702559Y-16407273D01*
X133658578Y-16605648D01*
X133657470Y-16609920D01*
X133595633Y-16817630D01*
X133534415Y-17011782D01*
X133533043Y-17015677D01*
X133454269Y-17217557D01*
X133376258Y-17405891D01*
X133374678Y-17409396D01*
X133279482Y-17604120D01*
X133185258Y-17785121D01*
X133183525Y-17788229D01*
X133072530Y-17974505D01*
X132962773Y-18146786D01*
X132960942Y-18149500D01*
X132834895Y-18326041D01*
X132710449Y-18488222D01*
X132708572Y-18490549D01*
X132568290Y-18656182D01*
X132429155Y-18808021D01*
X132274632Y-18962545D01*
X132122791Y-19101681D01*
X131957174Y-19241953D01*
X131954846Y-19243830D01*
X131792652Y-19368287D01*
X131616116Y-19494332D01*
X131613402Y-19496164D01*
X131441105Y-19605930D01*
X131254856Y-19716910D01*
X131251747Y-19718643D01*
X131070732Y-19812876D01*
X130876004Y-19908074D01*
X130872500Y-19909654D01*
X130684169Y-19987665D01*
X130482299Y-20066435D01*
X130478405Y-20067807D01*
X130284231Y-20129032D01*
X130076527Y-20190869D01*
X130072254Y-20191977D01*
X129873909Y-20235951D01*
X129661640Y-20280460D01*
X129657007Y-20281249D01*
X129456378Y-20307664D01*
X129240627Y-20334558D01*
X129235658Y-20334975D01*
X129033914Y-20343779D01*
X128839155Y-20351835D01*
X128820081Y-20352625D01*
X126686284Y-20352625D01*
X126686113Y-20352575D01*
X126480504Y-20352575D01*
X126480491Y-20352576D01*
X126173849Y-20388421D01*
X126173839Y-20388422D01*
X126173837Y-20388423D01*
X126173834Y-20388423D01*
X126173821Y-20388426D01*
X125873419Y-20459625D01*
X125873403Y-20459630D01*
X125583289Y-20565226D01*
X125583281Y-20565229D01*
X125307376Y-20703796D01*
X125049418Y-20873460D01*
X125049417Y-20873461D01*
X124812905Y-21071921D01*
X124812904Y-21071922D01*
X124601034Y-21296493D01*
X124416659Y-21544153D01*
X124262286Y-21811537D01*
X124262283Y-21811542D01*
X124139999Y-22095031D01*
X124051448Y-22390813D01*
X124051445Y-22390823D01*
X123997836Y-22694861D01*
X123997835Y-22694872D01*
X123979883Y-23003096D01*
X123979883Y-23003103D01*
X123997835Y-23311327D01*
X123997836Y-23311338D01*
X124051445Y-23615376D01*
X124051448Y-23615386D01*
X124139999Y-23911168D01*
X124262283Y-24194657D01*
X124262286Y-24194662D01*
X124416659Y-24462046D01*
X124601034Y-24709706D01*
X124812904Y-24934277D01*
X124812906Y-24934279D01*
X125049420Y-25132741D01*
X125307375Y-25302403D01*
X125583282Y-25440971D01*
X125873411Y-25546572D01*
X125873417Y-25546573D01*
X125873419Y-25546574D01*
X125873449Y-25546581D01*
X126173837Y-25617777D01*
X126480498Y-25653624D01*
X126610106Y-25653624D01*
X126610110Y-25653625D01*
X128819740Y-25653625D01*
X129037219Y-25662621D01*
X129235676Y-25671288D01*
X129240602Y-25671702D01*
X129456260Y-25698585D01*
X129616813Y-25719723D01*
X129657037Y-25725020D01*
X129661669Y-25725809D01*
X129873669Y-25770262D01*
X130072143Y-25814264D01*
X130072301Y-25814299D01*
X130076558Y-25815402D01*
X130284023Y-25877168D01*
X130284377Y-25877281D01*
X130478471Y-25938480D01*
X130482343Y-25939844D01*
X130683862Y-26018477D01*
X130872654Y-26096679D01*
X130876129Y-26098248D01*
X130993933Y-26155839D01*
X131070343Y-26193194D01*
X131251916Y-26287716D01*
X131255025Y-26289449D01*
X131440695Y-26400084D01*
X131613649Y-26510270D01*
X131616363Y-26512101D01*
X131792195Y-26637643D01*
X131792615Y-26637965D01*
X131955201Y-26762723D01*
X131957496Y-26764574D01*
X132122311Y-26904165D01*
X132219057Y-26992817D01*
X132275079Y-27044153D01*
X132345139Y-27114212D01*
X132428655Y-27197727D01*
X132568853Y-27350729D01*
X132708076Y-27515107D01*
X132709943Y-27517423D01*
X132762844Y-27586366D01*
X132835584Y-27681164D01*
X132960460Y-27856060D01*
X132962293Y-27858776D01*
X133073361Y-28033120D01*
X133183061Y-28217217D01*
X133184794Y-28220326D01*
X133280452Y-28404082D01*
X133374280Y-28596009D01*
X133375861Y-28599514D01*
X133455382Y-28791499D01*
X133532697Y-28989636D01*
X133534069Y-28993531D01*
X133596907Y-29192832D01*
X133657196Y-29395329D01*
X133658304Y-29399603D01*
X133703984Y-29605656D01*
X133746864Y-29810149D01*
X133747653Y-29814782D01*
X133775858Y-30029022D01*
X133801055Y-30231152D01*
X133801472Y-30236110D01*
X133811354Y-30461702D01*
X133819240Y-30652281D01*
X133819240Y-40753125D01*
X133810251Y-40970421D01*
X133801577Y-41169041D01*
X133801160Y-41174007D01*
X133774268Y-41389751D01*
X133747850Y-41590398D01*
X133747061Y-41595029D01*
X133702559Y-41807273D01*
X133658578Y-42005648D01*
X133657470Y-42009920D01*
X133595633Y-42217630D01*
X133534415Y-42411782D01*
X133533043Y-42415677D01*
X133454269Y-42617557D01*
X133376258Y-42805891D01*
X133374678Y-42809396D01*
X133279482Y-43004120D01*
X133185258Y-43185121D01*
X133183525Y-43188229D01*
X133072530Y-43374505D01*
X132962773Y-43546786D01*
X132960942Y-43549500D01*
X132834895Y-43726041D01*
X132710449Y-43888222D01*
X132708572Y-43890549D01*
X132568290Y-44056182D01*
X132429155Y-44208021D01*
X132274632Y-44362545D01*
X132122791Y-44501681D01*
X131957174Y-44641953D01*
X131954846Y-44643830D01*
X131792652Y-44768287D01*
X131616116Y-44894332D01*
X131613402Y-44896164D01*
X131441105Y-45005930D01*
X131254856Y-45116910D01*
X131251747Y-45118643D01*
X131070732Y-45212876D01*
X130876004Y-45308074D01*
X130872500Y-45309654D01*
X130684169Y-45387665D01*
X130482299Y-45466435D01*
X130478405Y-45467807D01*
X130284231Y-45529032D01*
X130076527Y-45590869D01*
X130072254Y-45591977D01*
X129873909Y-45635951D01*
X129661640Y-45680460D01*
X129657007Y-45681249D01*
X129456378Y-45707664D01*
X129240627Y-45734558D01*
X129235658Y-45734975D01*
X129033914Y-45743779D01*
X128839155Y-45751835D01*
X128820081Y-45752625D01*
X126686284Y-45752625D01*
X126686113Y-45752575D01*
X126480504Y-45752575D01*
X126480491Y-45752576D01*
X126173849Y-45788421D01*
X126173839Y-45788422D01*
X126173837Y-45788423D01*
X126173834Y-45788423D01*
X126173821Y-45788426D01*
X125873419Y-45859625D01*
X125873403Y-45859630D01*
X125583289Y-45965226D01*
X125583281Y-45965229D01*
X125307376Y-46103796D01*
X125049418Y-46273460D01*
X125049417Y-46273461D01*
X124812905Y-46471921D01*
X124812904Y-46471922D01*
X124601034Y-46696493D01*
X124416659Y-46944153D01*
X124262286Y-47211537D01*
X124262283Y-47211542D01*
X124139999Y-47495031D01*
X124051448Y-47790813D01*
X124051445Y-47790823D01*
X123997836Y-48094861D01*
X123997835Y-48094872D01*
X123979883Y-48403096D01*
X123979883Y-48403103D01*
X123997835Y-48711327D01*
X123997836Y-48711338D01*
X124051445Y-49015376D01*
X124051448Y-49015386D01*
X124139999Y-49311168D01*
X124262283Y-49594657D01*
X124262286Y-49594662D01*
X124416659Y-49862046D01*
X124601034Y-50109706D01*
X124812904Y-50334277D01*
X124812906Y-50334279D01*
X125049420Y-50532741D01*
X125307375Y-50702403D01*
X125583282Y-50840971D01*
X125873411Y-50946572D01*
X125873417Y-50946573D01*
X125873419Y-50946574D01*
X125873449Y-50946581D01*
X126173837Y-51017777D01*
X126480498Y-51053624D01*
X126610106Y-51053624D01*
X126610110Y-51053625D01*
X128819740Y-51053625D01*
X129037219Y-51062621D01*
X129235676Y-51071288D01*
X129240602Y-51071702D01*
X129456260Y-51098585D01*
X129616813Y-51119723D01*
X129657037Y-51125020D01*
X129661669Y-51125809D01*
X129873669Y-51170262D01*
X130072143Y-51214264D01*
X130072301Y-51214299D01*
X130076558Y-51215402D01*
X130284023Y-51277168D01*
X130284377Y-51277281D01*
X130478471Y-51338480D01*
X130482343Y-51339844D01*
X130683862Y-51418477D01*
X130872654Y-51496679D01*
X130876129Y-51498248D01*
X130993933Y-51555839D01*
X131070343Y-51593194D01*
X131251916Y-51687716D01*
X131255025Y-51689449D01*
X131440695Y-51800084D01*
X131613649Y-51910270D01*
X131616363Y-51912101D01*
X131792195Y-52037643D01*
X131792615Y-52037965D01*
X131955201Y-52162723D01*
X131957496Y-52164574D01*
X132122311Y-52304165D01*
X132219057Y-52392817D01*
X132275079Y-52444153D01*
X132345139Y-52514212D01*
X132428655Y-52597727D01*
X132568853Y-52750729D01*
X132708076Y-52915107D01*
X132709943Y-52917423D01*
X132762844Y-52986366D01*
X132835584Y-53081164D01*
X132960460Y-53256060D01*
X132962293Y-53258776D01*
X133073361Y-53433120D01*
X133183061Y-53617217D01*
X133184794Y-53620326D01*
X133280452Y-53804082D01*
X133374280Y-53996009D01*
X133375861Y-53999514D01*
X133455382Y-54191499D01*
X133532697Y-54389636D01*
X133534069Y-54393531D01*
X133596907Y-54592832D01*
X133657196Y-54795329D01*
X133658304Y-54799603D01*
X133703984Y-55005656D01*
X133746864Y-55210149D01*
X133747653Y-55214782D01*
X133775858Y-55429022D01*
X133801055Y-55631152D01*
X133801472Y-55636110D01*
X133811354Y-55861702D01*
X133819240Y-56052281D01*
X133819240Y-66153125D01*
X133810251Y-66370421D01*
X133801577Y-66569041D01*
X133801160Y-66574007D01*
X133774268Y-66789751D01*
X133747850Y-66990398D01*
X133747061Y-66995029D01*
X133702559Y-67207273D01*
X133658578Y-67405648D01*
X133657470Y-67409920D01*
X133595633Y-67617630D01*
X133534415Y-67811782D01*
X133533043Y-67815677D01*
X133454269Y-68017557D01*
X133376258Y-68205891D01*
X133374678Y-68209396D01*
X133279482Y-68404120D01*
X133185258Y-68585121D01*
X133183525Y-68588229D01*
X133072530Y-68774505D01*
X132962773Y-68946786D01*
X132960942Y-68949500D01*
X132834895Y-69126041D01*
X132710449Y-69288222D01*
X132708572Y-69290549D01*
X132568290Y-69456182D01*
X132429155Y-69608021D01*
X132274632Y-69762545D01*
X132122791Y-69901681D01*
X131957174Y-70041953D01*
X131954846Y-70043830D01*
X131792652Y-70168287D01*
X131616116Y-70294332D01*
X131613402Y-70296164D01*
X131441105Y-70405930D01*
X131254856Y-70516910D01*
X131251747Y-70518643D01*
X131070732Y-70612876D01*
X130876004Y-70708074D01*
X130872500Y-70709654D01*
X130684169Y-70787665D01*
X130482299Y-70866435D01*
X130478405Y-70867807D01*
X130284231Y-70929032D01*
X130076527Y-70990869D01*
X130072254Y-70991977D01*
X129873909Y-71035951D01*
X129661640Y-71080460D01*
X129657007Y-71081249D01*
X129456378Y-71107664D01*
X129240627Y-71134558D01*
X129235658Y-71134975D01*
X129033914Y-71143779D01*
X128839155Y-71151835D01*
X128820081Y-71152625D01*
X126686284Y-71152625D01*
X126686113Y-71152575D01*
X126480504Y-71152575D01*
X126480491Y-71152576D01*
X126173849Y-71188421D01*
X126173839Y-71188422D01*
X126173837Y-71188423D01*
X126173834Y-71188423D01*
X126173821Y-71188426D01*
X125873419Y-71259625D01*
X125873403Y-71259630D01*
X125583289Y-71365226D01*
X125583281Y-71365229D01*
X125307376Y-71503796D01*
X125049418Y-71673460D01*
X125049417Y-71673461D01*
X124812905Y-71871921D01*
X124812904Y-71871922D01*
X124601034Y-72096493D01*
X124416659Y-72344153D01*
X124262286Y-72611537D01*
X124262283Y-72611542D01*
X124139999Y-72895031D01*
X124051448Y-73190813D01*
X124051445Y-73190823D01*
X123997836Y-73494861D01*
X123997835Y-73494872D01*
X123979883Y-73803096D01*
X123979883Y-73803103D01*
X123997835Y-74111327D01*
X123997836Y-74111338D01*
X124051445Y-74415376D01*
X124051448Y-74415386D01*
X124139999Y-74711168D01*
X124262283Y-74994657D01*
X124262286Y-74994662D01*
X124416659Y-75262046D01*
X124601034Y-75509706D01*
X124807954Y-75729030D01*
X124812906Y-75734279D01*
X125049420Y-75932741D01*
X125307375Y-76102403D01*
X125583282Y-76240971D01*
X125873411Y-76346572D01*
X125873417Y-76346573D01*
X125873419Y-76346574D01*
X125873449Y-76346581D01*
X126173837Y-76417777D01*
X126480498Y-76453624D01*
X126610106Y-76453624D01*
X126610110Y-76453625D01*
X128819740Y-76453625D01*
X129037219Y-76462621D01*
X129235676Y-76471288D01*
X129240602Y-76471702D01*
X129456260Y-76498585D01*
X129616813Y-76519723D01*
X129657037Y-76525020D01*
X129661669Y-76525809D01*
X129873669Y-76570262D01*
X130072143Y-76614264D01*
X130072301Y-76614299D01*
X130076558Y-76615402D01*
X130284023Y-76677168D01*
X130284377Y-76677281D01*
X130478471Y-76738480D01*
X130482343Y-76739844D01*
X130683862Y-76818477D01*
X130872654Y-76896679D01*
X130876129Y-76898248D01*
X130993933Y-76955839D01*
X131070343Y-76993194D01*
X131251916Y-77087716D01*
X131255025Y-77089449D01*
X131440700Y-77200087D01*
X131479874Y-77225044D01*
X131613649Y-77310270D01*
X131616363Y-77312101D01*
X131792195Y-77437643D01*
X131792615Y-77437965D01*
X131955201Y-77562723D01*
X131957496Y-77564574D01*
X132122311Y-77704165D01*
X132219057Y-77792817D01*
X132275079Y-77844153D01*
X132345139Y-77914212D01*
X132428655Y-77997727D01*
X132568853Y-78150729D01*
X132708076Y-78315107D01*
X132709943Y-78317423D01*
X132762844Y-78386366D01*
X132835584Y-78481164D01*
X132960460Y-78656060D01*
X132962293Y-78658776D01*
X133073361Y-78833120D01*
X133183061Y-79017217D01*
X133184794Y-79020326D01*
X133280452Y-79204082D01*
X133374280Y-79396009D01*
X133375861Y-79399514D01*
X133455382Y-79591499D01*
X133532697Y-79789636D01*
X133534069Y-79793531D01*
X133596907Y-79992832D01*
X133657196Y-80195329D01*
X133658304Y-80199603D01*
X133703984Y-80405656D01*
X133746864Y-80610149D01*
X133747653Y-80614782D01*
X133775858Y-80829022D01*
X133801055Y-81031152D01*
X133801472Y-81036110D01*
X133811354Y-81261702D01*
X133819240Y-81452281D01*
X133819240Y-91553125D01*
X133810251Y-91770421D01*
X133801577Y-91969041D01*
X133801160Y-91974007D01*
X133774268Y-92189751D01*
X133747850Y-92390398D01*
X133747061Y-92395029D01*
X133702559Y-92607273D01*
X133658578Y-92805648D01*
X133657470Y-92809920D01*
X133595633Y-93017630D01*
X133534415Y-93211782D01*
X133533043Y-93215677D01*
X133454269Y-93417557D01*
X133376258Y-93605891D01*
X133374678Y-93609396D01*
X133279482Y-93804120D01*
X133185258Y-93985121D01*
X133183525Y-93988229D01*
X133072530Y-94174505D01*
X132962773Y-94346786D01*
X132960942Y-94349500D01*
X132834895Y-94526041D01*
X132710449Y-94688222D01*
X132708572Y-94690549D01*
X132568290Y-94856182D01*
X132429155Y-95008021D01*
X132274632Y-95162545D01*
X132122791Y-95301681D01*
X131957174Y-95441953D01*
X131954846Y-95443830D01*
X131792652Y-95568287D01*
X131616116Y-95694332D01*
X131613402Y-95696164D01*
X131441105Y-95805930D01*
X131254856Y-95916910D01*
X131251747Y-95918643D01*
X131070732Y-96012876D01*
X130876004Y-96108074D01*
X130872500Y-96109654D01*
X130684169Y-96187665D01*
X130482299Y-96266435D01*
X130478405Y-96267807D01*
X130284231Y-96329032D01*
X130076527Y-96390869D01*
X130072254Y-96391977D01*
X129873909Y-96435951D01*
X129661640Y-96480460D01*
X129657007Y-96481249D01*
X129456378Y-96507664D01*
X129240627Y-96534558D01*
X129235658Y-96534975D01*
X129033914Y-96543779D01*
X128839155Y-96551835D01*
X128820081Y-96552625D01*
X126686284Y-96552625D01*
X126686113Y-96552575D01*
X126480504Y-96552575D01*
X126480491Y-96552576D01*
X126173849Y-96588421D01*
X126173839Y-96588422D01*
X126173837Y-96588423D01*
X126173834Y-96588423D01*
X126173821Y-96588426D01*
X125873419Y-96659625D01*
X125873403Y-96659630D01*
X125583289Y-96765226D01*
X125583281Y-96765229D01*
X125307376Y-96903796D01*
X125049418Y-97073460D01*
X125049417Y-97073461D01*
X124812905Y-97271921D01*
X124812904Y-97271922D01*
X124601034Y-97496493D01*
X124416659Y-97744153D01*
X124262286Y-98011537D01*
X124262283Y-98011542D01*
X124139999Y-98295031D01*
X124051448Y-98590813D01*
X124051445Y-98590823D01*
X123997836Y-98894861D01*
X123997835Y-98894872D01*
X123979883Y-99203096D01*
X123979883Y-99203103D01*
X123997835Y-99511327D01*
X123997836Y-99511338D01*
X124051445Y-99815376D01*
X124051448Y-99815386D01*
X124139999Y-100111168D01*
X124262283Y-100394657D01*
X124262286Y-100394662D01*
X124416659Y-100662046D01*
X124601034Y-100909706D01*
X124812904Y-101134277D01*
X124812906Y-101134279D01*
X125049420Y-101332741D01*
X125307375Y-101502403D01*
X125583282Y-101640971D01*
X125873411Y-101746572D01*
X125873417Y-101746573D01*
X125873419Y-101746574D01*
X125873449Y-101746581D01*
X126173837Y-101817777D01*
X126480498Y-101853624D01*
X126610106Y-101853624D01*
X126610110Y-101853625D01*
X128819740Y-101853625D01*
X129037219Y-101862621D01*
X129235676Y-101871288D01*
X129240602Y-101871702D01*
X129456260Y-101898585D01*
X129616813Y-101919723D01*
X129657037Y-101925020D01*
X129661669Y-101925809D01*
X129873669Y-101970262D01*
X130072143Y-102014264D01*
X130072301Y-102014299D01*
X130076558Y-102015402D01*
X130284023Y-102077168D01*
X130284377Y-102077281D01*
X130478471Y-102138480D01*
X130482343Y-102139844D01*
X130683862Y-102218477D01*
X130872654Y-102296679D01*
X130876129Y-102298248D01*
X130993933Y-102355839D01*
X131070343Y-102393194D01*
X131251916Y-102487716D01*
X131255025Y-102489449D01*
X131440695Y-102600084D01*
X131613649Y-102710270D01*
X131616363Y-102712101D01*
X131792195Y-102837643D01*
X131792615Y-102837965D01*
X131955201Y-102962723D01*
X131957496Y-102964574D01*
X132122311Y-103104165D01*
X132219057Y-103192817D01*
X132275079Y-103244153D01*
X132345139Y-103314212D01*
X132428655Y-103397727D01*
X132568853Y-103550729D01*
X132708076Y-103715107D01*
X132709943Y-103717423D01*
X132762844Y-103786366D01*
X132835584Y-103881164D01*
X132960460Y-104056060D01*
X132962293Y-104058776D01*
X133073361Y-104233120D01*
X133183061Y-104417217D01*
X133184794Y-104420326D01*
X133280444Y-104604067D01*
X133285106Y-104613602D01*
X133374280Y-104796009D01*
X133375861Y-104799514D01*
X133455382Y-104991499D01*
X133532697Y-105189636D01*
X133534069Y-105193531D01*
X133596907Y-105392832D01*
X133657196Y-105595329D01*
X133658304Y-105599603D01*
X133703984Y-105805656D01*
X133746864Y-106010149D01*
X133747653Y-106014782D01*
X133775858Y-106229022D01*
X133801055Y-106431152D01*
X133801472Y-106436110D01*
X133811354Y-106661702D01*
X133819240Y-106852281D01*
X133819240Y-116953125D01*
X133810251Y-117170421D01*
X133801577Y-117369041D01*
X133801160Y-117374007D01*
X133774268Y-117589751D01*
X133747850Y-117790398D01*
X133747061Y-117795029D01*
X133702559Y-118007273D01*
X133658578Y-118205648D01*
X133657470Y-118209920D01*
X133595633Y-118417630D01*
X133534415Y-118611782D01*
X133533043Y-118615677D01*
X133454269Y-118817557D01*
X133376258Y-119005891D01*
X133374678Y-119009396D01*
X133279482Y-119204120D01*
X133185258Y-119385121D01*
X133183525Y-119388229D01*
X133072530Y-119574505D01*
X132962773Y-119746786D01*
X132960942Y-119749500D01*
X132834895Y-119926041D01*
X132710449Y-120088222D01*
X132708572Y-120090549D01*
X132568290Y-120256182D01*
X132429155Y-120408021D01*
X132274632Y-120562545D01*
X132122791Y-120701681D01*
X131957174Y-120841953D01*
X131954846Y-120843830D01*
X131792652Y-120968287D01*
X131616116Y-121094332D01*
X131613402Y-121096164D01*
X131441105Y-121205930D01*
X131254856Y-121316910D01*
X131251747Y-121318643D01*
X131070732Y-121412876D01*
X130876004Y-121508074D01*
X130872500Y-121509654D01*
X130684169Y-121587665D01*
X130482299Y-121666435D01*
X130478405Y-121667807D01*
X130284231Y-121729032D01*
X130076527Y-121790869D01*
X130072254Y-121791977D01*
X129873909Y-121835951D01*
X129661640Y-121880460D01*
X129657007Y-121881249D01*
X129456378Y-121907664D01*
X129240627Y-121934558D01*
X129235658Y-121934975D01*
X129033914Y-121943779D01*
X128839155Y-121951835D01*
X128820081Y-121952625D01*
X126686284Y-121952625D01*
X126686113Y-121952575D01*
X126480504Y-121952575D01*
X126480491Y-121952576D01*
X126173849Y-121988421D01*
X126173839Y-121988422D01*
X126173837Y-121988423D01*
X126173834Y-121988423D01*
X126173821Y-121988426D01*
X125873419Y-122059625D01*
X125873403Y-122059630D01*
X125583289Y-122165226D01*
X125583281Y-122165229D01*
X125307376Y-122303796D01*
X125049418Y-122473460D01*
X125049417Y-122473461D01*
X124812905Y-122671921D01*
X124812904Y-122671922D01*
X124601034Y-122896493D01*
X124416659Y-123144153D01*
X124262286Y-123411537D01*
X124262283Y-123411542D01*
X124139999Y-123695031D01*
X124051448Y-123990813D01*
X124051445Y-123990823D01*
X123997836Y-124294861D01*
X123997835Y-124294872D01*
X123979883Y-124603096D01*
X123979883Y-124603103D01*
X123997835Y-124911327D01*
X123997836Y-124911338D01*
X124051445Y-125215376D01*
X124051448Y-125215386D01*
X124139999Y-125511168D01*
X124262283Y-125794657D01*
X124262286Y-125794662D01*
X124416659Y-126062046D01*
X124601034Y-126309706D01*
X124812904Y-126534277D01*
X124812906Y-126534279D01*
X125049420Y-126732741D01*
X125307375Y-126902403D01*
X125583282Y-127040971D01*
X125873411Y-127146572D01*
X125873417Y-127146573D01*
X125873419Y-127146574D01*
X125873449Y-127146581D01*
X126173837Y-127217777D01*
X126480498Y-127253624D01*
X126610106Y-127253624D01*
X126610110Y-127253625D01*
X128819740Y-127253625D01*
X129037219Y-127262621D01*
X129235676Y-127271288D01*
X129240602Y-127271702D01*
X129456260Y-127298585D01*
X129616813Y-127319723D01*
X129657037Y-127325020D01*
X129661669Y-127325809D01*
X129873669Y-127370262D01*
X130072143Y-127414264D01*
X130072301Y-127414299D01*
X130076558Y-127415402D01*
X130284023Y-127477168D01*
X130284377Y-127477281D01*
X130478471Y-127538480D01*
X130482343Y-127539844D01*
X130683862Y-127618477D01*
X130872654Y-127696679D01*
X130876129Y-127698248D01*
X130993933Y-127755839D01*
X131070343Y-127793194D01*
X131251916Y-127887716D01*
X131255025Y-127889449D01*
X131440695Y-128000084D01*
X131613649Y-128110270D01*
X131616363Y-128112101D01*
X131792195Y-128237643D01*
X131792615Y-128237965D01*
X131955201Y-128362723D01*
X131957496Y-128364574D01*
X132122311Y-128504165D01*
X132219057Y-128592817D01*
X132275079Y-128644153D01*
X132345139Y-128714212D01*
X132428655Y-128797727D01*
X132568853Y-128950729D01*
X132708076Y-129115107D01*
X132709943Y-129117423D01*
X132762844Y-129186366D01*
X132835584Y-129281164D01*
X132960460Y-129456060D01*
X132962293Y-129458776D01*
X133073361Y-129633120D01*
X133183061Y-129817217D01*
X133184794Y-129820326D01*
X133280452Y-130004082D01*
X133374280Y-130196009D01*
X133375861Y-130199514D01*
X133455382Y-130391499D01*
X133532697Y-130589636D01*
X133534069Y-130593531D01*
X133596907Y-130792832D01*
X133657196Y-130995329D01*
X133658304Y-130999603D01*
X133703984Y-131205656D01*
X133746864Y-131410149D01*
X133747653Y-131414782D01*
X133775858Y-131629022D01*
X133801055Y-131831152D01*
X133801472Y-131836110D01*
X133811354Y-132061702D01*
X133819240Y-132252281D01*
X133819240Y-144428581D01*
X133819004Y-144433987D01*
X133815263Y-144476744D01*
X133802825Y-144603042D01*
X133799197Y-144622982D01*
X133781317Y-144689713D01*
X133753078Y-144782808D01*
X133746799Y-144799220D01*
X133715265Y-144866841D01*
X133713754Y-144869865D01*
X133669046Y-144953512D01*
X133665149Y-144959855D01*
X133618598Y-145026334D01*
X133615738Y-145030103D01*
X133556817Y-145101903D01*
X133552726Y-145106416D01*
X133494823Y-145164317D01*
X133490314Y-145168403D01*
X133418757Y-145227132D01*
X133414983Y-145229996D01*
X133348073Y-145276844D01*
X133341735Y-145280737D01*
X133259058Y-145324932D01*
X133256029Y-145326446D01*
X133187287Y-145358497D01*
X133170889Y-145364771D01*
X133080229Y-145392277D01*
X133010980Y-145410827D01*
X132991023Y-145414456D01*
X132870400Y-145426310D01*
X132821873Y-145430553D01*
X132816469Y-145430789D01*
X15759900Y-145430789D01*
X15542628Y-145421802D01*
X15343981Y-145413128D01*
X15339015Y-145412711D01*
X15123211Y-145385811D01*
X14984471Y-145367546D01*
X14922627Y-145359404D01*
X14918006Y-145358617D01*
X14705707Y-145314103D01*
X14507378Y-145270134D01*
X14503105Y-145269026D01*
X14295380Y-145207183D01*
X14101250Y-145145974D01*
X14097355Y-145144602D01*
X14089246Y-145141438D01*
X13987927Y-145101903D01*
X13895450Y-145065818D01*
X13766771Y-145012517D01*
X13707135Y-144987816D01*
X13703637Y-144986238D01*
X13508881Y-144891027D01*
X13327916Y-144796822D01*
X13324808Y-144795089D01*
X13155422Y-144694158D01*
X13138465Y-144684054D01*
X12966267Y-144574351D01*
X12963567Y-144572529D01*
X12786926Y-144446409D01*
X12624833Y-144322031D01*
X12622524Y-144320169D01*
X12465844Y-144187468D01*
X12456789Y-144179799D01*
X12439149Y-144163635D01*
X12305050Y-144040756D01*
X12150431Y-143886137D01*
X12011396Y-143734407D01*
X11995170Y-143715249D01*
X11881508Y-143581047D01*
X11871012Y-143568654D01*
X11869135Y-143566326D01*
X11808888Y-143487811D01*
X11744816Y-143404310D01*
X11674423Y-143305718D01*
X11618628Y-143227572D01*
X11616803Y-143224867D01*
X11598408Y-143195993D01*
X11507194Y-143052814D01*
X11397418Y-142868587D01*
X11396065Y-142866315D01*
X11394348Y-142863237D01*
X11300255Y-142682486D01*
X11204908Y-142487451D01*
X11203351Y-142483999D01*
X11125488Y-142296024D01*
X11109985Y-142256293D01*
X25554909Y-142256293D01*
X25572861Y-142564516D01*
X25572862Y-142564524D01*
X25626471Y-142868558D01*
X25626474Y-142868569D01*
X25626475Y-142868573D01*
X25626478Y-142868584D01*
X25715025Y-143164353D01*
X25837306Y-143447833D01*
X25837315Y-143447852D01*
X25991687Y-143715232D01*
X26176055Y-143962881D01*
X26176060Y-143962887D01*
X26281367Y-144074505D01*
X26387935Y-144187460D01*
X26387939Y-144187463D01*
X26387943Y-144187467D01*
X26548309Y-144322031D01*
X26624449Y-144385920D01*
X26882405Y-144555580D01*
X27138227Y-144684058D01*
X27158304Y-144694141D01*
X27158305Y-144694142D01*
X27158308Y-144694143D01*
X27158312Y-144694145D01*
X27448440Y-144799744D01*
X27748866Y-144870946D01*
X28055526Y-144906789D01*
X28209801Y-144906789D01*
X33458536Y-144906789D01*
X33458543Y-144906791D01*
X33509900Y-144906791D01*
X33664267Y-144906791D01*
X33664274Y-144906791D01*
X33970935Y-144870948D01*
X33970944Y-144870945D01*
X33970950Y-144870945D01*
X34151225Y-144828218D01*
X34271361Y-144799745D01*
X34561489Y-144694147D01*
X34561492Y-144694145D01*
X34561496Y-144694144D01*
X34715694Y-144616702D01*
X34837396Y-144555581D01*
X35095352Y-144385921D01*
X35331867Y-144187462D01*
X35543743Y-143962887D01*
X35728114Y-143715232D01*
X35882488Y-143447849D01*
X36004777Y-143164351D01*
X36093327Y-142868574D01*
X36146941Y-142564516D01*
X36164892Y-142256303D01*
X50954919Y-142256303D01*
X50972871Y-142564524D01*
X50972872Y-142564535D01*
X51026480Y-142868563D01*
X51026482Y-142868572D01*
X51026483Y-142868574D01*
X51026484Y-142868581D01*
X51070675Y-143016187D01*
X51115034Y-143164358D01*
X51237318Y-143447844D01*
X51237324Y-143447857D01*
X51391696Y-143715237D01*
X51483439Y-143838468D01*
X51576067Y-143962889D01*
X51787941Y-144187463D01*
X51787946Y-144187467D01*
X51787949Y-144187470D01*
X52024447Y-144385916D01*
X52024449Y-144385917D01*
X52024455Y-144385922D01*
X52282410Y-144555581D01*
X52282416Y-144555584D01*
X52282418Y-144555585D01*
X52558308Y-144694142D01*
X52558309Y-144694143D01*
X52558312Y-144694144D01*
X52558316Y-144694146D01*
X52848443Y-144799744D01*
X52848449Y-144799745D01*
X52848451Y-144799746D01*
X53148851Y-144870943D01*
X53148858Y-144870944D01*
X53148867Y-144870946D01*
X53455527Y-144906789D01*
X53609801Y-144906789D01*
X58858516Y-144906789D01*
X58858591Y-144906811D01*
X58909900Y-144906811D01*
X59064268Y-144906811D01*
X59064275Y-144906811D01*
X59370936Y-144870968D01*
X59370945Y-144870965D01*
X59370951Y-144870965D01*
X59613270Y-144813533D01*
X59671363Y-144799765D01*
X59961493Y-144694167D01*
X59961496Y-144694165D01*
X59961500Y-144694164D01*
X60237393Y-144555604D01*
X60237395Y-144555603D01*
X60237394Y-144555603D01*
X60237401Y-144555600D01*
X60495358Y-144385939D01*
X60731874Y-144187479D01*
X60943750Y-143962903D01*
X61128123Y-143715248D01*
X61282497Y-143447863D01*
X61404787Y-143164365D01*
X61493337Y-142868586D01*
X61493340Y-142868573D01*
X61546949Y-142564538D01*
X61546949Y-142564536D01*
X61546951Y-142564527D01*
X61564903Y-142256300D01*
X61564902Y-142256293D01*
X68145039Y-142256293D01*
X68162991Y-142564516D01*
X68162992Y-142564524D01*
X68216601Y-142868558D01*
X68216604Y-142868569D01*
X68216605Y-142868573D01*
X68216608Y-142868584D01*
X68305155Y-143164353D01*
X68427436Y-143447833D01*
X68427445Y-143447852D01*
X68581817Y-143715232D01*
X68766185Y-143962881D01*
X68766190Y-143962887D01*
X68871497Y-144074505D01*
X68978065Y-144187460D01*
X68978069Y-144187463D01*
X68978073Y-144187467D01*
X69138439Y-144322031D01*
X69214579Y-144385920D01*
X69472535Y-144555580D01*
X69728357Y-144684058D01*
X69748434Y-144694141D01*
X69748435Y-144694142D01*
X69748438Y-144694143D01*
X69748442Y-144694145D01*
X70038570Y-144799744D01*
X70338996Y-144870946D01*
X70645656Y-144906789D01*
X70799931Y-144906789D01*
X76048666Y-144906789D01*
X76048673Y-144906791D01*
X76100030Y-144906791D01*
X76254397Y-144906791D01*
X76254404Y-144906791D01*
X76561065Y-144870948D01*
X76561074Y-144870945D01*
X76561080Y-144870945D01*
X76741355Y-144828218D01*
X76861491Y-144799745D01*
X77151619Y-144694147D01*
X77151622Y-144694145D01*
X77151626Y-144694144D01*
X77305824Y-144616702D01*
X77427526Y-144555581D01*
X77685482Y-144385921D01*
X77921997Y-144187462D01*
X78133873Y-143962887D01*
X78318244Y-143715232D01*
X78472618Y-143447849D01*
X78594907Y-143164351D01*
X78683457Y-142868574D01*
X78737071Y-142564516D01*
X78755022Y-142256303D01*
X78755023Y-142256293D01*
X93545039Y-142256293D01*
X93562991Y-142564516D01*
X93562992Y-142564524D01*
X93616601Y-142868558D01*
X93616604Y-142868569D01*
X93616605Y-142868573D01*
X93616608Y-142868584D01*
X93705155Y-143164353D01*
X93827436Y-143447833D01*
X93827445Y-143447852D01*
X93981817Y-143715232D01*
X94166185Y-143962881D01*
X94166190Y-143962887D01*
X94271497Y-144074505D01*
X94378065Y-144187460D01*
X94378069Y-144187463D01*
X94378073Y-144187467D01*
X94538439Y-144322031D01*
X94614579Y-144385920D01*
X94872535Y-144555580D01*
X95128357Y-144684058D01*
X95148434Y-144694141D01*
X95148435Y-144694142D01*
X95148438Y-144694143D01*
X95148442Y-144694145D01*
X95438570Y-144799744D01*
X95738996Y-144870946D01*
X96045656Y-144906789D01*
X96199931Y-144906789D01*
X101448666Y-144906789D01*
X101448673Y-144906791D01*
X101500030Y-144906791D01*
X101654397Y-144906791D01*
X101654404Y-144906791D01*
X101961065Y-144870948D01*
X101961074Y-144870945D01*
X101961080Y-144870945D01*
X102141355Y-144828218D01*
X102261491Y-144799745D01*
X102551619Y-144694147D01*
X102551622Y-144694145D01*
X102551626Y-144694144D01*
X102705824Y-144616702D01*
X102827526Y-144555581D01*
X103085482Y-144385921D01*
X103321997Y-144187462D01*
X103533873Y-143962887D01*
X103718244Y-143715232D01*
X103872618Y-143447849D01*
X103994907Y-143164351D01*
X104083457Y-142868574D01*
X104137071Y-142564516D01*
X104155022Y-142256303D01*
X118945019Y-142256303D01*
X118962971Y-142564527D01*
X118962972Y-142564538D01*
X119016581Y-142868567D01*
X119016583Y-142868574D01*
X119016585Y-142868585D01*
X119060775Y-143016187D01*
X119105136Y-143164364D01*
X119227424Y-143447858D01*
X119270578Y-143522601D01*
X119381802Y-143715245D01*
X119381804Y-143715248D01*
X119381805Y-143715249D01*
X119566178Y-143962903D01*
X119671466Y-144074500D01*
X119778053Y-144187474D01*
X120014570Y-144385932D01*
X120216619Y-144518820D01*
X120272530Y-144555593D01*
X120394211Y-144616702D01*
X120548436Y-144694155D01*
X120838566Y-144799751D01*
X121138994Y-144870951D01*
X121445655Y-144906791D01*
X121600030Y-144906789D01*
X121600530Y-144906789D01*
X126848646Y-144906789D01*
X126848724Y-144906811D01*
X126900030Y-144906810D01*
X126900030Y-144906811D01*
X127054404Y-144906809D01*
X127054567Y-144906790D01*
X127361043Y-144870966D01*
X127361050Y-144870964D01*
X127361063Y-144870963D01*
X127661487Y-144799758D01*
X127951613Y-144694158D01*
X128227519Y-144555590D01*
X128485472Y-144385929D01*
X128721985Y-144187469D01*
X128933859Y-143962893D01*
X129118229Y-143715239D01*
X129272601Y-143447855D01*
X129394889Y-143164358D01*
X129483438Y-142868581D01*
X129483439Y-142868574D01*
X129483440Y-142868572D01*
X129537049Y-142564536D01*
X129537049Y-142564535D01*
X129537051Y-142564525D01*
X129555003Y-142256300D01*
X129555002Y-142256290D01*
X129546030Y-142102245D01*
X129537051Y-141948075D01*
X129537049Y-141948061D01*
X129483440Y-141644027D01*
X129483436Y-141644012D01*
X129394889Y-141348242D01*
X129333916Y-141206891D01*
X129272601Y-141064745D01*
X129118229Y-140797361D01*
X128933859Y-140549707D01*
X128933857Y-140549705D01*
X128933855Y-140549702D01*
X128721986Y-140325132D01*
X128721985Y-140325131D01*
X128604650Y-140226674D01*
X128485472Y-140126671D01*
X128227519Y-139957010D01*
X128091366Y-139888630D01*
X127951614Y-139818442D01*
X127951610Y-139818441D01*
X127951596Y-139818436D01*
X127922479Y-139807838D01*
X127661503Y-139712847D01*
X127661492Y-139712843D01*
X127661487Y-139712842D01*
X127361063Y-139641637D01*
X127361043Y-139641633D01*
X127054413Y-139605791D01*
X127054396Y-139605790D01*
X126900129Y-139605789D01*
X121599931Y-139605789D01*
X121588514Y-139605789D01*
X121588288Y-139605809D01*
X121445651Y-139605809D01*
X121138993Y-139641649D01*
X120838571Y-139712847D01*
X120838565Y-139712849D01*
X120548435Y-139818445D01*
X120272530Y-139957006D01*
X120014567Y-140126670D01*
X119778051Y-140325127D01*
X119566178Y-140549696D01*
X119381805Y-140797350D01*
X119227424Y-141064741D01*
X119105136Y-141348235D01*
X119060773Y-141496417D01*
X119016586Y-141644014D01*
X119016583Y-141644023D01*
X119016581Y-141644032D01*
X118962972Y-141948061D01*
X118962971Y-141948072D01*
X118945019Y-142256296D01*
X118945019Y-142256303D01*
X104155022Y-142256303D01*
X104155023Y-142256293D01*
X104155023Y-142256286D01*
X104146050Y-142102235D01*
X104137071Y-141948064D01*
X104083457Y-141644006D01*
X103994907Y-141348229D01*
X103872618Y-141064731D01*
X103718244Y-140797348D01*
X103533873Y-140549693D01*
X103533872Y-140549692D01*
X103533871Y-140549690D01*
X103428590Y-140438100D01*
X103321997Y-140325118D01*
X103191199Y-140215366D01*
X103085484Y-140126660D01*
X103085476Y-140126654D01*
X102827530Y-139957000D01*
X102551626Y-139818436D01*
X102551620Y-139818433D01*
X102261503Y-139712839D01*
X102261494Y-139712836D01*
X102261491Y-139712835D01*
X102261488Y-139712834D01*
X102261481Y-139712832D01*
X101961080Y-139641634D01*
X101961065Y-139641632D01*
X101654404Y-139605789D01*
X101500129Y-139605789D01*
X96199931Y-139605789D01*
X96188110Y-139605789D01*
X96188090Y-139605791D01*
X96045656Y-139605791D01*
X95887304Y-139624299D01*
X95738998Y-139641633D01*
X95584593Y-139678228D01*
X95438570Y-139712836D01*
X95438567Y-139712836D01*
X95438563Y-139712838D01*
X95148435Y-139818437D01*
X95148434Y-139818438D01*
X94872538Y-139956998D01*
X94614575Y-140126662D01*
X94378073Y-140325112D01*
X94378063Y-140325122D01*
X94166190Y-140549692D01*
X94166185Y-140549698D01*
X93981817Y-140797347D01*
X93827445Y-141064727D01*
X93827436Y-141064746D01*
X93705155Y-141348226D01*
X93616604Y-141644010D01*
X93616601Y-141644021D01*
X93562992Y-141948055D01*
X93562991Y-141948063D01*
X93545039Y-142256286D01*
X93545039Y-142256293D01*
X78755023Y-142256293D01*
X78755023Y-142256286D01*
X78746050Y-142102235D01*
X78737071Y-141948064D01*
X78683457Y-141644006D01*
X78594907Y-141348229D01*
X78472618Y-141064731D01*
X78318244Y-140797348D01*
X78133873Y-140549693D01*
X78133872Y-140549692D01*
X78133871Y-140549690D01*
X78028590Y-140438100D01*
X77921997Y-140325118D01*
X77791199Y-140215366D01*
X77685484Y-140126660D01*
X77685476Y-140126654D01*
X77427530Y-139957000D01*
X77151626Y-139818436D01*
X77151620Y-139818433D01*
X76861503Y-139712839D01*
X76861494Y-139712836D01*
X76861491Y-139712835D01*
X76861488Y-139712834D01*
X76861481Y-139712832D01*
X76561080Y-139641634D01*
X76561065Y-139641632D01*
X76254404Y-139605789D01*
X76100129Y-139605789D01*
X70799931Y-139605789D01*
X70788110Y-139605789D01*
X70788090Y-139605791D01*
X70645656Y-139605791D01*
X70487304Y-139624299D01*
X70338998Y-139641633D01*
X70184593Y-139678228D01*
X70038570Y-139712836D01*
X70038567Y-139712836D01*
X70038563Y-139712838D01*
X69748435Y-139818437D01*
X69748434Y-139818438D01*
X69472538Y-139956998D01*
X69214575Y-140126662D01*
X68978073Y-140325112D01*
X68978063Y-140325122D01*
X68766190Y-140549692D01*
X68766185Y-140549698D01*
X68581817Y-140797347D01*
X68427445Y-141064727D01*
X68427436Y-141064746D01*
X68305155Y-141348226D01*
X68216604Y-141644010D01*
X68216601Y-141644021D01*
X68162992Y-141948055D01*
X68162991Y-141948063D01*
X68145039Y-142256286D01*
X68145039Y-142256293D01*
X61564902Y-142256293D01*
X61564902Y-142256290D01*
X61555930Y-142102245D01*
X61546951Y-141948073D01*
X61531304Y-141859332D01*
X61493339Y-141644023D01*
X61493337Y-141644015D01*
X61493336Y-141644010D01*
X61404787Y-141348235D01*
X61282497Y-141064737D01*
X61128123Y-140797352D01*
X61128121Y-140797349D01*
X60943753Y-140549700D01*
X60943748Y-140549694D01*
X60831566Y-140430789D01*
X60731874Y-140325121D01*
X60495358Y-140126661D01*
X60495354Y-140126658D01*
X60495350Y-140126655D01*
X60237405Y-139957001D01*
X59961500Y-139818435D01*
X59961494Y-139818433D01*
X59671375Y-139712839D01*
X59671354Y-139712832D01*
X59370951Y-139641634D01*
X59370936Y-139641632D01*
X59064275Y-139605789D01*
X58909999Y-139605789D01*
X53609801Y-139605789D01*
X53597677Y-139605789D01*
X53597455Y-139605811D01*
X53455527Y-139605811D01*
X53187199Y-139637173D01*
X53148866Y-139641654D01*
X53148851Y-139641656D01*
X52848451Y-139712853D01*
X52848436Y-139712858D01*
X52558309Y-139818456D01*
X52558308Y-139818457D01*
X52282412Y-139957017D01*
X52024450Y-140126680D01*
X51787949Y-140325129D01*
X51787941Y-140325137D01*
X51576067Y-140549711D01*
X51576062Y-140549717D01*
X51576056Y-140549725D01*
X51391696Y-140797362D01*
X51237324Y-141064742D01*
X51237318Y-141064755D01*
X51115034Y-141348241D01*
X51070673Y-141496417D01*
X51026486Y-141644015D01*
X51026482Y-141644027D01*
X51026480Y-141644036D01*
X50972872Y-141948064D01*
X50972871Y-141948075D01*
X50954919Y-142256296D01*
X50954919Y-142256303D01*
X36164892Y-142256303D01*
X36164893Y-142256293D01*
X36164893Y-142256286D01*
X36155920Y-142102235D01*
X36146941Y-141948064D01*
X36093327Y-141644006D01*
X36004777Y-141348229D01*
X35882488Y-141064731D01*
X35728114Y-140797348D01*
X35543743Y-140549693D01*
X35543742Y-140549692D01*
X35543741Y-140549690D01*
X35438460Y-140438100D01*
X35331867Y-140325118D01*
X35201069Y-140215366D01*
X35095354Y-140126660D01*
X35095346Y-140126654D01*
X34837400Y-139957000D01*
X34561496Y-139818436D01*
X34561490Y-139818433D01*
X34271373Y-139712839D01*
X34271364Y-139712836D01*
X34271361Y-139712835D01*
X34271358Y-139712834D01*
X34271351Y-139712832D01*
X33970950Y-139641634D01*
X33970935Y-139641632D01*
X33664274Y-139605789D01*
X33509999Y-139605789D01*
X28209801Y-139605789D01*
X28197980Y-139605789D01*
X28197960Y-139605791D01*
X28055526Y-139605791D01*
X27897174Y-139624299D01*
X27748868Y-139641633D01*
X27594463Y-139678228D01*
X27448440Y-139712836D01*
X27448437Y-139712836D01*
X27448433Y-139712838D01*
X27158312Y-139818435D01*
X26882394Y-139957005D01*
X26624454Y-140126655D01*
X26624446Y-140126661D01*
X26387943Y-140325112D01*
X26387933Y-140325122D01*
X26176060Y-140549692D01*
X26176055Y-140549698D01*
X25991687Y-140797347D01*
X25837315Y-141064727D01*
X25837306Y-141064746D01*
X25715025Y-141348226D01*
X25626474Y-141644010D01*
X25626471Y-141644021D01*
X25572862Y-141948055D01*
X25572861Y-141948063D01*
X25554909Y-142256286D01*
X25554909Y-142256293D01*
X11109985Y-142256293D01*
X11046552Y-142093728D01*
X11045191Y-142089862D01*
X11000486Y-141948075D01*
X10984137Y-141896226D01*
X10922134Y-141687958D01*
X10921033Y-141683712D01*
X10912237Y-141644036D01*
X10877233Y-141486145D01*
X10832557Y-141273073D01*
X10831770Y-141268449D01*
X10805546Y-141069262D01*
X10804984Y-141064755D01*
X10778470Y-140852038D01*
X10778054Y-140847083D01*
X10775883Y-140797365D01*
X10769585Y-140653106D01*
X10765309Y-140549711D01*
X10760411Y-140431289D01*
X10760400Y-140431031D01*
X10760400Y-139631048D01*
X10760428Y-139630905D01*
X10760424Y-139630905D01*
X10760441Y-139606287D01*
X10760283Y-139605905D01*
X10759901Y-139605747D01*
X10735284Y-139605765D01*
X10735283Y-139605760D01*
X10735140Y-139605789D01*
X4900000Y-139605789D01*
X4682728Y-139596802D01*
X4484080Y-139588128D01*
X4479114Y-139587711D01*
X4263319Y-139560813D01*
X4062733Y-139534404D01*
X4058101Y-139533615D01*
X3845826Y-139489107D01*
X3647472Y-139445132D01*
X3643200Y-139444024D01*
X3435496Y-139382188D01*
X3241340Y-139320970D01*
X3237445Y-139319598D01*
X3035566Y-139240825D01*
X2847229Y-139162813D01*
X2843744Y-139161242D01*
X2784503Y-139132281D01*
X2649007Y-139066039D01*
X2468000Y-138971814D01*
X2464891Y-138970080D01*
X2278617Y-138859086D01*
X2106335Y-138749329D01*
X2103621Y-138747498D01*
X1927081Y-138621451D01*
X1764900Y-138497005D01*
X1762572Y-138495128D01*
X1596940Y-138354846D01*
X1445106Y-138215716D01*
X1290566Y-138061175D01*
X1151452Y-137909359D01*
X1011159Y-137743715D01*
X1009302Y-137741413D01*
X884841Y-137579212D01*
X838600Y-137514448D01*
X758760Y-137402625D01*
X756967Y-137399967D01*
X647211Y-137227685D01*
X536212Y-137041404D01*
X534486Y-137038310D01*
X505657Y-136982929D01*
X440250Y-136857281D01*
X381756Y-136737632D01*
X345046Y-136662541D01*
X343490Y-136659094D01*
X265454Y-136470697D01*
X186687Y-136268836D01*
X185322Y-136264959D01*
X124090Y-136070757D01*
X113246Y-136034333D01*
X62255Y-135863056D01*
X61159Y-135858829D01*
X17188Y-135660491D01*
X-4925Y-135555022D01*
X-27326Y-135448187D01*
X-28116Y-135443554D01*
X-54513Y-135243045D01*
X-81423Y-135027160D01*
X-81840Y-135022194D01*
X-90494Y-134823994D01*
X-99500Y-134606268D01*
X-99500Y-132253125D01*
X-90514Y-132035875D01*
X-81841Y-131837205D01*
X-81424Y-131832238D01*
X-54535Y-131616522D01*
X-28117Y-131415848D01*
X-27327Y-131411215D01*
X17174Y-131198978D01*
X61160Y-131000569D01*
X62249Y-130996370D01*
X124093Y-130788638D01*
X185333Y-130594412D01*
X186666Y-130590625D01*
X265444Y-130388733D01*
X343500Y-130200289D01*
X345038Y-130196880D01*
X440228Y-130002165D01*
X534507Y-129821056D01*
X536192Y-129818033D01*
X647203Y-129631733D01*
X756988Y-129459407D01*
X758753Y-129456791D01*
X884827Y-129280213D01*
X1009345Y-129117938D01*
X1011115Y-129115742D01*
X1151452Y-128950048D01*
X1290561Y-128798237D01*
X1445116Y-128643682D01*
X1596920Y-128504580D01*
X1762607Y-128364249D01*
X1764860Y-128362433D01*
X1927048Y-128237980D01*
X2103707Y-128111848D01*
X2106275Y-128110116D01*
X2278581Y-128000344D01*
X2464901Y-127889322D01*
X2467971Y-127887609D01*
X2609696Y-127813832D01*
X2648968Y-127793389D01*
X2680793Y-127777830D01*
X2843792Y-127698145D01*
X2847212Y-127696602D01*
X3035459Y-127618628D01*
X3038707Y-127617360D01*
X3237552Y-127539771D01*
X3241341Y-127538436D01*
X3435280Y-127477287D01*
X3643278Y-127415364D01*
X3647508Y-127414267D01*
X3845483Y-127370376D01*
X4058149Y-127325785D01*
X4062743Y-127325001D01*
X4262792Y-127298664D01*
X4479189Y-127271691D01*
X4484101Y-127271279D01*
X4681476Y-127262662D01*
X4900000Y-127253625D01*
X4900500Y-127253625D01*
X8109372Y-127253625D01*
X8109872Y-127253625D01*
X8264246Y-127253625D01*
X8570907Y-127217782D01*
X8570916Y-127217779D01*
X8570922Y-127217779D01*
X8751162Y-127175060D01*
X8871332Y-127146579D01*
X9161461Y-127040981D01*
X9437368Y-126902416D01*
X9695323Y-126732756D01*
X9931838Y-126534296D01*
X10143714Y-126309721D01*
X10328085Y-126062067D01*
X10482460Y-125794683D01*
X10604748Y-125511186D01*
X10693298Y-125215408D01*
X10746912Y-124911351D01*
X10764864Y-124603125D01*
X10764862Y-124603096D01*
X10755890Y-124449045D01*
X10746912Y-124294899D01*
X10720131Y-124143018D01*
X10693301Y-123990856D01*
X10693299Y-123990850D01*
X10693298Y-123990842D01*
X10604748Y-123695064D01*
X10482460Y-123411567D01*
X10328085Y-123144183D01*
X10328063Y-123144153D01*
X10143717Y-122896532D01*
X10143712Y-122896526D01*
X10038393Y-122784895D01*
X9931838Y-122671954D01*
X9931831Y-122671948D01*
X9931829Y-122671946D01*
X9695325Y-122473495D01*
X9695317Y-122473489D01*
X9437371Y-122303835D01*
X9161468Y-122165272D01*
X9161462Y-122165269D01*
X8871344Y-122059675D01*
X8871335Y-122059672D01*
X8871332Y-122059671D01*
X8871329Y-122059670D01*
X8871322Y-122059668D01*
X8570922Y-121988470D01*
X8570907Y-121988468D01*
X8570505Y-121988421D01*
X8264246Y-121952625D01*
X8264239Y-121952625D01*
X4900000Y-121952625D01*
X4682728Y-121943638D01*
X4484081Y-121934964D01*
X4479115Y-121934547D01*
X4263311Y-121907647D01*
X4124571Y-121889382D01*
X4062727Y-121881240D01*
X4058106Y-121880453D01*
X3845807Y-121835939D01*
X3647478Y-121791970D01*
X3643205Y-121790862D01*
X3435480Y-121729019D01*
X3241350Y-121667810D01*
X3237455Y-121666438D01*
X3237447Y-121666435D01*
X3196181Y-121650332D01*
X3035550Y-121587654D01*
X2847243Y-121509654D01*
X2843739Y-121508074D01*
X2648991Y-121412868D01*
X2468007Y-121318653D01*
X2464899Y-121316920D01*
X2278603Y-121205913D01*
X2106345Y-121096172D01*
X2103630Y-121094340D01*
X1927068Y-120968277D01*
X1764902Y-120843843D01*
X1762587Y-120841977D01*
X1596914Y-120701658D01*
X1445127Y-120562571D01*
X1290553Y-120407997D01*
X1151466Y-120256210D01*
X1011132Y-120090517D01*
X1009278Y-120088218D01*
X884871Y-119926088D01*
X812590Y-119824852D01*
X758754Y-119749448D01*
X756936Y-119746755D01*
X647248Y-119574579D01*
X640189Y-119562734D01*
X536169Y-119388164D01*
X534472Y-119385121D01*
X440305Y-119204229D01*
X345026Y-119009333D01*
X343461Y-119005860D01*
X265515Y-118817683D01*
X265466Y-118817557D01*
X186658Y-118615589D01*
X185310Y-118611762D01*
X124177Y-118417876D01*
X62248Y-118209858D01*
X61144Y-118205600D01*
X17259Y-118007649D01*
X-27334Y-117794967D01*
X-28124Y-117790335D01*
X-54447Y-117590386D01*
X-81425Y-117373959D01*
X-81842Y-117368992D01*
X-90428Y-117172338D01*
X-97493Y-117001516D01*
X-99495Y-116953125D01*
X-99500Y-116953009D01*
X-99500Y-108929541D01*
X28856705Y-108929541D01*
X28886512Y-109352623D01*
X28955809Y-109771080D01*
X29063980Y-110181184D01*
X29063982Y-110181191D01*
X29210085Y-110579373D01*
X29210087Y-110579378D01*
X29373778Y-110922218D01*
X29392835Y-110962131D01*
X29392838Y-110962137D01*
X29610621Y-111326092D01*
X29610625Y-111326098D01*
X29861535Y-111668061D01*
X30143367Y-111985030D01*
X30453642Y-112274215D01*
X30453651Y-112274223D01*
X30789623Y-112533068D01*
X30789630Y-112533073D01*
X30789633Y-112533075D01*
X31148388Y-112759335D01*
X31526754Y-112951006D01*
X31909469Y-113101703D01*
X31921411Y-113106406D01*
X32053579Y-113144602D01*
X32328876Y-113224164D01*
X32328880Y-113224164D01*
X32328880Y-113224165D01*
X32745576Y-113303249D01*
X32745577Y-113303249D01*
X32745582Y-113303250D01*
X33167863Y-113342967D01*
X33167865Y-113342967D01*
X33485916Y-113342967D01*
X33512672Y-113341711D01*
X33803613Y-113328059D01*
X34080800Y-113288808D01*
X34223556Y-113268594D01*
X34223559Y-113268593D01*
X34223568Y-113268592D01*
X34636110Y-113170061D01*
X34823038Y-113106404D01*
X35037601Y-113033336D01*
X35037604Y-113033334D01*
X35037612Y-113033332D01*
X35424546Y-112859607D01*
X35793512Y-112650411D01*
X36141267Y-112407585D01*
X36464756Y-112133261D01*
X36761135Y-111829850D01*
X37027800Y-111500020D01*
X37262408Y-111146667D01*
X37462896Y-110772898D01*
X37627503Y-110381998D01*
X37754783Y-109977401D01*
X37843616Y-109562663D01*
X37893222Y-109141430D01*
X37898191Y-108929541D01*
X96916575Y-108929541D01*
X96946382Y-109352623D01*
X97015679Y-109771080D01*
X97123850Y-110181184D01*
X97123852Y-110181191D01*
X97269955Y-110579373D01*
X97269957Y-110579378D01*
X97433648Y-110922218D01*
X97452705Y-110962131D01*
X97452708Y-110962137D01*
X97670491Y-111326092D01*
X97670495Y-111326098D01*
X97921405Y-111668061D01*
X98203237Y-111985030D01*
X98513512Y-112274215D01*
X98513521Y-112274223D01*
X98849493Y-112533068D01*
X98849500Y-112533073D01*
X98849503Y-112533075D01*
X99208258Y-112759335D01*
X99586624Y-112951006D01*
X99969339Y-113101703D01*
X99981281Y-113106406D01*
X100113449Y-113144602D01*
X100388746Y-113224164D01*
X100388750Y-113224164D01*
X100388750Y-113224165D01*
X100805446Y-113303249D01*
X100805447Y-113303249D01*
X100805452Y-113303250D01*
X101227733Y-113342967D01*
X101227735Y-113342967D01*
X101545786Y-113342967D01*
X101572542Y-113341711D01*
X101863483Y-113328059D01*
X102140670Y-113288808D01*
X102283426Y-113268594D01*
X102283429Y-113268593D01*
X102283438Y-113268592D01*
X102695980Y-113170061D01*
X102882908Y-113106404D01*
X103097471Y-113033336D01*
X103097474Y-113033334D01*
X103097482Y-113033332D01*
X103484416Y-112859607D01*
X103853382Y-112650411D01*
X104201137Y-112407585D01*
X104524626Y-112133261D01*
X104821005Y-111829850D01*
X105087670Y-111500020D01*
X105322278Y-111146667D01*
X105522766Y-110772898D01*
X105687373Y-110381998D01*
X105814653Y-109977401D01*
X105903486Y-109562663D01*
X105953092Y-109141430D01*
X105963035Y-108717402D01*
X105933227Y-108294306D01*
X105863932Y-107875860D01*
X105755757Y-107465742D01*
X105609653Y-107067556D01*
X105426904Y-106684801D01*
X105316483Y-106500267D01*
X105209118Y-106320841D01*
X105209114Y-106320835D01*
X104985335Y-106015848D01*
X104958205Y-105978873D01*
X104676373Y-105661904D01*
X104366098Y-105372719D01*
X104366096Y-105372717D01*
X104366088Y-105372710D01*
X104030116Y-105113865D01*
X104030109Y-105113860D01*
X103671347Y-104887596D01*
X103473407Y-104787325D01*
X103292986Y-104695928D01*
X103142287Y-104636588D01*
X102898328Y-104540527D01*
X102596837Y-104453396D01*
X102490864Y-104422770D01*
X102490859Y-104422769D01*
X102490859Y-104422768D01*
X102074163Y-104343684D01*
X101772528Y-104315314D01*
X101651877Y-104303967D01*
X101333827Y-104303967D01*
X101333824Y-104303967D01*
X101262218Y-104307327D01*
X101016127Y-104318875D01*
X101016121Y-104318875D01*
X101016116Y-104318876D01*
X100596183Y-104378339D01*
X100183620Y-104476875D01*
X100183612Y-104476878D01*
X99782138Y-104613597D01*
X99782121Y-104613604D01*
X99395196Y-104787325D01*
X99395192Y-104787327D01*
X99026228Y-104996522D01*
X99026220Y-104996527D01*
X98678476Y-105239345D01*
X98354979Y-105513677D01*
X98058603Y-105817085D01*
X98058599Y-105817089D01*
X97791950Y-106146901D01*
X97791933Y-106146923D01*
X97557332Y-106500265D01*
X97356840Y-106874042D01*
X97356840Y-106874043D01*
X97192236Y-107264937D01*
X97192234Y-107264943D01*
X97064957Y-107669529D01*
X96976123Y-108084273D01*
X96926517Y-108505504D01*
X96926517Y-108505506D01*
X96916575Y-108929532D01*
X96916575Y-108929541D01*
X37898191Y-108929541D01*
X37903165Y-108717402D01*
X37873357Y-108294306D01*
X37804062Y-107875860D01*
X37695887Y-107465742D01*
X37549783Y-107067556D01*
X37367034Y-106684801D01*
X37256613Y-106500267D01*
X37149248Y-106320841D01*
X37149244Y-106320835D01*
X36925465Y-106015848D01*
X36898335Y-105978873D01*
X36616503Y-105661904D01*
X36306228Y-105372719D01*
X36306226Y-105372717D01*
X36306218Y-105372710D01*
X35970246Y-105113865D01*
X35970239Y-105113860D01*
X35611477Y-104887596D01*
X35413537Y-104787325D01*
X35233116Y-104695928D01*
X35082417Y-104636588D01*
X34838458Y-104540527D01*
X34536967Y-104453396D01*
X34430994Y-104422770D01*
X34430989Y-104422769D01*
X34430989Y-104422768D01*
X34014293Y-104343684D01*
X33712658Y-104315314D01*
X33592007Y-104303967D01*
X33273957Y-104303967D01*
X33273954Y-104303967D01*
X33202348Y-104307327D01*
X32956257Y-104318875D01*
X32956251Y-104318875D01*
X32956246Y-104318876D01*
X32536313Y-104378339D01*
X32123750Y-104476875D01*
X32123742Y-104476878D01*
X31722268Y-104613597D01*
X31722251Y-104613604D01*
X31335326Y-104787325D01*
X31335322Y-104787327D01*
X30966358Y-104996522D01*
X30966350Y-104996527D01*
X30618606Y-105239345D01*
X30295109Y-105513677D01*
X29998733Y-105817085D01*
X29998729Y-105817089D01*
X29732080Y-106146901D01*
X29732063Y-106146923D01*
X29497462Y-106500265D01*
X29296970Y-106874042D01*
X29296970Y-106874043D01*
X29132366Y-107264937D01*
X29132364Y-107264943D01*
X29005087Y-107669529D01*
X28916253Y-108084273D01*
X28866647Y-108505504D01*
X28866647Y-108505506D01*
X28856705Y-108929532D01*
X28856705Y-108929541D01*
X-99500Y-108929541D01*
X-99500Y-106853125D01*
X-90514Y-106635875D01*
X-81841Y-106437205D01*
X-81424Y-106432238D01*
X-54535Y-106216522D01*
X-28117Y-106015848D01*
X-27327Y-106011215D01*
X13377Y-105817089D01*
X17180Y-105798949D01*
X61160Y-105600569D01*
X62249Y-105596370D01*
X124093Y-105388638D01*
X185333Y-105194412D01*
X186666Y-105190625D01*
X265444Y-104988733D01*
X343500Y-104800289D01*
X345038Y-104796880D01*
X440228Y-104602165D01*
X534507Y-104421056D01*
X536192Y-104418033D01*
X647203Y-104231733D01*
X756988Y-104059407D01*
X758753Y-104056791D01*
X884827Y-103880213D01*
X1009345Y-103717938D01*
X1011115Y-103715742D01*
X1151452Y-103550048D01*
X1290561Y-103398237D01*
X1445116Y-103243682D01*
X1596920Y-103104580D01*
X1762607Y-102964249D01*
X1764860Y-102962433D01*
X1927048Y-102837980D01*
X2103707Y-102711848D01*
X2106275Y-102710116D01*
X2278581Y-102600344D01*
X2464901Y-102489322D01*
X2467971Y-102487609D01*
X2609696Y-102413832D01*
X2648968Y-102393389D01*
X2680793Y-102377830D01*
X2843792Y-102298145D01*
X2847212Y-102296602D01*
X3035459Y-102218628D01*
X3038707Y-102217360D01*
X3237552Y-102139771D01*
X3241341Y-102138436D01*
X3435280Y-102077287D01*
X3643278Y-102015364D01*
X3647508Y-102014267D01*
X3845483Y-101970376D01*
X4058149Y-101925785D01*
X4062743Y-101925001D01*
X4262792Y-101898664D01*
X4479189Y-101871691D01*
X4484101Y-101871279D01*
X4681476Y-101862662D01*
X4900000Y-101853625D01*
X4900500Y-101853625D01*
X8109372Y-101853625D01*
X8109872Y-101853625D01*
X8264246Y-101853625D01*
X8570907Y-101817782D01*
X8570916Y-101817779D01*
X8570922Y-101817779D01*
X8751162Y-101775060D01*
X8871332Y-101746579D01*
X9161461Y-101640981D01*
X9437368Y-101502416D01*
X9695323Y-101332756D01*
X9931838Y-101134296D01*
X10143714Y-100909721D01*
X10328085Y-100662067D01*
X10482460Y-100394683D01*
X10604748Y-100111186D01*
X10693298Y-99815408D01*
X10746912Y-99511351D01*
X10764864Y-99203125D01*
X10764862Y-99203096D01*
X10755890Y-99049045D01*
X10746912Y-98894899D01*
X10720131Y-98743018D01*
X10693301Y-98590856D01*
X10693299Y-98590850D01*
X10693298Y-98590842D01*
X10604748Y-98295064D01*
X10482460Y-98011567D01*
X10328085Y-97744183D01*
X10328063Y-97744153D01*
X10143717Y-97496532D01*
X10143712Y-97496526D01*
X10038393Y-97384895D01*
X9931838Y-97271954D01*
X9931831Y-97271948D01*
X9931829Y-97271946D01*
X9695325Y-97073495D01*
X9695317Y-97073489D01*
X9437371Y-96903835D01*
X9161468Y-96765272D01*
X9161462Y-96765269D01*
X8871344Y-96659675D01*
X8871335Y-96659672D01*
X8871332Y-96659671D01*
X8871329Y-96659670D01*
X8871322Y-96659668D01*
X8570922Y-96588470D01*
X8570907Y-96588468D01*
X8570505Y-96588421D01*
X8264246Y-96552625D01*
X8264239Y-96552625D01*
X4900000Y-96552625D01*
X4682728Y-96543638D01*
X4484081Y-96534964D01*
X4479115Y-96534547D01*
X4263311Y-96507647D01*
X4124571Y-96489382D01*
X4062727Y-96481240D01*
X4058106Y-96480453D01*
X3845807Y-96435939D01*
X3647478Y-96391970D01*
X3643205Y-96390862D01*
X3435480Y-96329019D01*
X3241350Y-96267810D01*
X3237455Y-96266438D01*
X3237447Y-96266435D01*
X3196181Y-96250332D01*
X3035550Y-96187654D01*
X2847243Y-96109654D01*
X2843739Y-96108074D01*
X2648991Y-96012868D01*
X2468007Y-95918653D01*
X2464899Y-95916920D01*
X2278603Y-95805913D01*
X2106345Y-95696172D01*
X2103630Y-95694340D01*
X1927068Y-95568277D01*
X1764902Y-95443843D01*
X1762587Y-95441977D01*
X1596914Y-95301658D01*
X1445127Y-95162571D01*
X1290553Y-95007997D01*
X1151466Y-94856210D01*
X1011132Y-94690517D01*
X1009278Y-94688218D01*
X884871Y-94526088D01*
X812590Y-94424852D01*
X758754Y-94349448D01*
X756936Y-94346755D01*
X647248Y-94174579D01*
X640189Y-94162734D01*
X536169Y-93988164D01*
X534472Y-93985121D01*
X440305Y-93804229D01*
X345026Y-93609333D01*
X343461Y-93605860D01*
X265515Y-93417683D01*
X265466Y-93417557D01*
X186658Y-93215589D01*
X185310Y-93211762D01*
X124177Y-93017876D01*
X62248Y-92809858D01*
X61144Y-92805600D01*
X17259Y-92607649D01*
X-27334Y-92394967D01*
X-28124Y-92390335D01*
X-54447Y-92190386D01*
X-81425Y-91973959D01*
X-81842Y-91968992D01*
X-90428Y-91772338D01*
X-97493Y-91601516D01*
X-99495Y-91553125D01*
X-99500Y-91553009D01*
X-99500Y-81453125D01*
X-90514Y-81235875D01*
X-81841Y-81037205D01*
X-81424Y-81032238D01*
X-54535Y-80816522D01*
X-28117Y-80615848D01*
X-27327Y-80611215D01*
X17174Y-80398978D01*
X61160Y-80200569D01*
X62249Y-80196370D01*
X124093Y-79988638D01*
X185333Y-79794412D01*
X186666Y-79790625D01*
X265444Y-79588733D01*
X343500Y-79400289D01*
X345038Y-79396880D01*
X440228Y-79202165D01*
X534507Y-79021056D01*
X536192Y-79018033D01*
X647203Y-78831733D01*
X756988Y-78659407D01*
X758753Y-78656791D01*
X884827Y-78480213D01*
X1009345Y-78317938D01*
X1011115Y-78315742D01*
X1151452Y-78150048D01*
X1290561Y-77998237D01*
X1445116Y-77843682D01*
X1596920Y-77704580D01*
X1762607Y-77564249D01*
X1764860Y-77562433D01*
X1927048Y-77437980D01*
X2103707Y-77311848D01*
X2106275Y-77310116D01*
X2278581Y-77200344D01*
X2464901Y-77089322D01*
X2467971Y-77087609D01*
X2609696Y-77013832D01*
X2648968Y-76993389D01*
X2690044Y-76973308D01*
X2843792Y-76898145D01*
X2847212Y-76896602D01*
X3035459Y-76818628D01*
X3038707Y-76817360D01*
X3237552Y-76739771D01*
X3241341Y-76738436D01*
X3435280Y-76677287D01*
X3643278Y-76615364D01*
X3647508Y-76614267D01*
X3845483Y-76570376D01*
X4058149Y-76525785D01*
X4062743Y-76525001D01*
X4262792Y-76498664D01*
X4479189Y-76471691D01*
X4484101Y-76471279D01*
X4681476Y-76462662D01*
X4900000Y-76453625D01*
X4900500Y-76453625D01*
X8109372Y-76453625D01*
X8109872Y-76453625D01*
X8264246Y-76453625D01*
X8570907Y-76417782D01*
X8570916Y-76417779D01*
X8570922Y-76417779D01*
X8751162Y-76375060D01*
X8871332Y-76346579D01*
X9161461Y-76240981D01*
X9437368Y-76102416D01*
X9695323Y-75932756D01*
X9931838Y-75734296D01*
X10143714Y-75509721D01*
X10328085Y-75262067D01*
X10482460Y-74994683D01*
X10604748Y-74711186D01*
X10693298Y-74415408D01*
X10746912Y-74111351D01*
X10764864Y-73803125D01*
X10764862Y-73803096D01*
X10751628Y-73575875D01*
X10746912Y-73494899D01*
X10713834Y-73307308D01*
X10693301Y-73190856D01*
X10693299Y-73190850D01*
X10693298Y-73190842D01*
X10604748Y-72895064D01*
X10482460Y-72611567D01*
X10328085Y-72344183D01*
X10328063Y-72344153D01*
X10232393Y-72215645D01*
X62154368Y-72215645D01*
X62162368Y-72398872D01*
X62162368Y-72444756D01*
X62166366Y-72490463D01*
X62174367Y-72673692D01*
X62184898Y-72753683D01*
X62198306Y-72855529D01*
X62202305Y-72901236D01*
X62210271Y-72946415D01*
X62234210Y-73128249D01*
X62273906Y-73307308D01*
X62281874Y-73352495D01*
X62281874Y-73352494D01*
X62293749Y-73396813D01*
X62333446Y-73575875D01*
X62388596Y-73750787D01*
X62400471Y-73795103D01*
X62416162Y-73838214D01*
X62430951Y-73885119D01*
X62471313Y-74013131D01*
X62471317Y-74013141D01*
X62541500Y-74182578D01*
X62549744Y-74205227D01*
X62557192Y-74225690D01*
X62557195Y-74225697D01*
X62557194Y-74225696D01*
X62576580Y-74267269D01*
X62646769Y-74436718D01*
X62731455Y-74599400D01*
X62750844Y-74640978D01*
X62750845Y-74640980D01*
X62773782Y-74680708D01*
X62858472Y-74843396D01*
X62954854Y-74994686D01*
X62957016Y-74998079D01*
X62979956Y-75037812D01*
X62979959Y-75037817D01*
X63006269Y-75075391D01*
X63104815Y-75230077D01*
X63216469Y-75375587D01*
X63242785Y-75413171D01*
X63242786Y-75413171D01*
X63272266Y-75448304D01*
X63380961Y-75589959D01*
X63383922Y-75593817D01*
X63409126Y-75621322D01*
X63507834Y-75729043D01*
X63537321Y-75764184D01*
X63569757Y-75796620D01*
X63693669Y-75931846D01*
X63828894Y-76055757D01*
X63861332Y-76088195D01*
X63878278Y-76102414D01*
X63896469Y-76117679D01*
X64031698Y-76241593D01*
X64031701Y-76241595D01*
X64031704Y-76241598D01*
X64177210Y-76353248D01*
X64212351Y-76382735D01*
X64212350Y-76382734D01*
X64249924Y-76409043D01*
X64395438Y-76520700D01*
X64544098Y-76615407D01*
X64550123Y-76619245D01*
X64587702Y-76645558D01*
X64587702Y-76645559D01*
X64627432Y-76668497D01*
X64679078Y-76701399D01*
X64782119Y-76767043D01*
X64944816Y-76851737D01*
X64984535Y-76874670D01*
X65026110Y-76894057D01*
X65188799Y-76978747D01*
X65358252Y-77048936D01*
X65399825Y-77068323D01*
X65442937Y-77084015D01*
X65505728Y-77110023D01*
X65612382Y-77154201D01*
X65787306Y-77209354D01*
X65813759Y-77218983D01*
X65830416Y-77225046D01*
X65866998Y-77234847D01*
X65874721Y-77236916D01*
X65932181Y-77255033D01*
X66049640Y-77292069D01*
X66091923Y-77301442D01*
X66228713Y-77331768D01*
X66254287Y-77338621D01*
X66273016Y-77343640D01*
X66273019Y-77343640D01*
X66273021Y-77343641D01*
X66318198Y-77351606D01*
X66446300Y-77380006D01*
X66497266Y-77391305D01*
X66588612Y-77403330D01*
X66679103Y-77415243D01*
X66724281Y-77423210D01*
X66769968Y-77427206D01*
X66951823Y-77451148D01*
X67135050Y-77459147D01*
X67173620Y-77462522D01*
X67180757Y-77463147D01*
X67226642Y-77463147D01*
X67409870Y-77471147D01*
X67593098Y-77463147D01*
X67638983Y-77463147D01*
X67645602Y-77462567D01*
X67684666Y-77459148D01*
X67867917Y-77451148D01*
X68049757Y-77427208D01*
X68095459Y-77423210D01*
X68140618Y-77415246D01*
X68322474Y-77391304D01*
X68322474Y-77391305D01*
X68349141Y-77385393D01*
X68501539Y-77351606D01*
X68546719Y-77343641D01*
X68591022Y-77331769D01*
X68770089Y-77292071D01*
X68770090Y-77292071D01*
X68770091Y-77292070D01*
X68770094Y-77292070D01*
X68945023Y-77236914D01*
X68952741Y-77234847D01*
X68989324Y-77225046D01*
X69005980Y-77218983D01*
X69032425Y-77209356D01*
X69207358Y-77154201D01*
X69376805Y-77084013D01*
X69419910Y-77068325D01*
X69419911Y-77068324D01*
X69419915Y-77068323D01*
X69461471Y-77048943D01*
X69630941Y-76978747D01*
X69793648Y-76894046D01*
X69815893Y-76883675D01*
X69835204Y-76874671D01*
X69835203Y-76874671D01*
X69835205Y-76874670D01*
X69874920Y-76851739D01*
X70037621Y-76767043D01*
X70192325Y-76668485D01*
X70221151Y-76651843D01*
X70232036Y-76645560D01*
X70241418Y-76638989D01*
X70269599Y-76619256D01*
X70424302Y-76520700D01*
X70569821Y-76409038D01*
X70607390Y-76382734D01*
X70642518Y-76353257D01*
X70788042Y-76241593D01*
X70923279Y-76117670D01*
X70941960Y-76101995D01*
X70958409Y-76088195D01*
X70974627Y-76071976D01*
X70990833Y-76055768D01*
X71126071Y-75931846D01*
X71249993Y-75796608D01*
X71266201Y-75780402D01*
X71282420Y-75764184D01*
X71307492Y-75734303D01*
X71311895Y-75729054D01*
X71435818Y-75593817D01*
X71547482Y-75448293D01*
X71576959Y-75413165D01*
X71603271Y-75375587D01*
X71714925Y-75230077D01*
X71813481Y-75075374D01*
X71833214Y-75047193D01*
X71839785Y-75037811D01*
X71846068Y-75026926D01*
X71862710Y-74998100D01*
X71961268Y-74843396D01*
X72045964Y-74680695D01*
X72068895Y-74640980D01*
X72068896Y-74640978D01*
X72068896Y-74640979D01*
X72077900Y-74621668D01*
X72088271Y-74599423D01*
X72172972Y-74436716D01*
X72243168Y-74267246D01*
X72262548Y-74225690D01*
X72278237Y-74182582D01*
X72348426Y-74013133D01*
X72403581Y-73838200D01*
X72416348Y-73803128D01*
X72419271Y-73795099D01*
X72431143Y-73750788D01*
X72463215Y-73649070D01*
X72486295Y-73575869D01*
X72525994Y-73396797D01*
X72537866Y-73352494D01*
X72545833Y-73307308D01*
X72585529Y-73128253D01*
X72609469Y-72946406D01*
X72617434Y-72901239D01*
X72617435Y-72901234D01*
X72621434Y-72855529D01*
X72645373Y-72673692D01*
X72653373Y-72490462D01*
X72657372Y-72444756D01*
X72658038Y-72383602D01*
X72665372Y-72215645D01*
X72658038Y-72047687D01*
X72657372Y-71986534D01*
X72653373Y-71940825D01*
X72645373Y-71757598D01*
X72621431Y-71575743D01*
X72617435Y-71530056D01*
X72609467Y-71484868D01*
X72585530Y-71303041D01*
X72556366Y-71171493D01*
X72545831Y-71123975D01*
X72538298Y-71081249D01*
X72537866Y-71078796D01*
X72525993Y-71034488D01*
X72495667Y-70897698D01*
X72486294Y-70855415D01*
X72431143Y-70680502D01*
X72419271Y-70636191D01*
X72410784Y-70612876D01*
X72403579Y-70593081D01*
X72348426Y-70418157D01*
X72278240Y-70248712D01*
X72262548Y-70205600D01*
X72243158Y-70164019D01*
X72172972Y-69994574D01*
X72088282Y-69831885D01*
X72068898Y-69790317D01*
X72068898Y-69790316D01*
X72068895Y-69790310D01*
X72045962Y-69750591D01*
X71961268Y-69587894D01*
X71895624Y-69484853D01*
X71862722Y-69433207D01*
X71839784Y-69393477D01*
X71839783Y-69393477D01*
X71821286Y-69367061D01*
X71813474Y-69355904D01*
X71714925Y-69201213D01*
X71603268Y-69055699D01*
X71576959Y-69018125D01*
X71576960Y-69018126D01*
X71547473Y-68982985D01*
X71435823Y-68837479D01*
X71311905Y-68702246D01*
X71282419Y-68667106D01*
X71249982Y-68634669D01*
X71126071Y-68499444D01*
X70990845Y-68375532D01*
X70958409Y-68343096D01*
X70923268Y-68313609D01*
X70788042Y-68189697D01*
X70788038Y-68189694D01*
X70788036Y-68189692D01*
X70642529Y-68078041D01*
X70607396Y-68048561D01*
X70607396Y-68048560D01*
X70594792Y-68039734D01*
X70569806Y-68022239D01*
X70563868Y-68017683D01*
X70424302Y-67910590D01*
X70269616Y-67812044D01*
X70232042Y-67785734D01*
X70192307Y-67762793D01*
X70037616Y-67664244D01*
X70037617Y-67664245D01*
X69874935Y-67579558D01*
X69835205Y-67556620D01*
X69835203Y-67556619D01*
X69793625Y-67537230D01*
X69630943Y-67452544D01*
X69630938Y-67452542D01*
X69596956Y-67438466D01*
X69461494Y-67382355D01*
X69419921Y-67362969D01*
X69419922Y-67362970D01*
X69419917Y-67362968D01*
X69419915Y-67362967D01*
X69399452Y-67355519D01*
X69376803Y-67347275D01*
X69207366Y-67277092D01*
X69207362Y-67277090D01*
X69207358Y-67277089D01*
X69079344Y-67236726D01*
X69032439Y-67221937D01*
X68989328Y-67206246D01*
X68945012Y-67194371D01*
X68770100Y-67139221D01*
X68591038Y-67099524D01*
X68546719Y-67087649D01*
X68546720Y-67087649D01*
X68501533Y-67079681D01*
X68322474Y-67039985D01*
X68140640Y-67016046D01*
X68095461Y-67008080D01*
X68049754Y-67004081D01*
X67980524Y-66994967D01*
X67867917Y-66980142D01*
X67684688Y-66972141D01*
X67638981Y-66968143D01*
X67593098Y-66968143D01*
X67409870Y-66960143D01*
X67226642Y-66968143D01*
X67180759Y-66968143D01*
X67135050Y-66972142D01*
X67099545Y-66973692D01*
X66951823Y-66980142D01*
X66847409Y-66993888D01*
X66769985Y-67004081D01*
X66724281Y-67008080D01*
X66679099Y-67016046D01*
X66497266Y-67039985D01*
X66497262Y-67039986D01*
X66398948Y-67061781D01*
X66318206Y-67079681D01*
X66273021Y-67087649D01*
X66228701Y-67099524D01*
X66049640Y-67139221D01*
X65874727Y-67194371D01*
X65841490Y-67203277D01*
X65830412Y-67206246D01*
X65787300Y-67221937D01*
X65698690Y-67249875D01*
X65612382Y-67277089D01*
X65612377Y-67277090D01*
X65612374Y-67277092D01*
X65442936Y-67347275D01*
X65410144Y-67359211D01*
X65399825Y-67362967D01*
X65399823Y-67362968D01*
X65358244Y-67382356D01*
X65188801Y-67452542D01*
X65026113Y-67537231D01*
X64984533Y-67556621D01*
X64944805Y-67579558D01*
X64941712Y-67581168D01*
X64782119Y-67664247D01*
X64701309Y-67715728D01*
X64627432Y-67762793D01*
X64587705Y-67785730D01*
X64587703Y-67785731D01*
X64550122Y-67812045D01*
X64395438Y-67910590D01*
X64249927Y-68022244D01*
X64212347Y-68048558D01*
X64212348Y-68048557D01*
X64177211Y-68078041D01*
X64031704Y-68189692D01*
X64031701Y-68189694D01*
X64031698Y-68189697D01*
X63983924Y-68233473D01*
X63896471Y-68313609D01*
X63861336Y-68343091D01*
X63861332Y-68343095D01*
X63850521Y-68353905D01*
X63828893Y-68375532D01*
X63693669Y-68499444D01*
X63569757Y-68634668D01*
X63551304Y-68653123D01*
X63537320Y-68667107D01*
X63537317Y-68667111D01*
X63537316Y-68667111D01*
X63507834Y-68702246D01*
X63383917Y-68837479D01*
X63272266Y-68982986D01*
X63242782Y-69018123D01*
X63242783Y-69018122D01*
X63216469Y-69055702D01*
X63104815Y-69201213D01*
X63006270Y-69355897D01*
X62979956Y-69393478D01*
X62979955Y-69393480D01*
X62957018Y-69433207D01*
X62909953Y-69507084D01*
X62858472Y-69587894D01*
X62847995Y-69608021D01*
X62773783Y-69750580D01*
X62750846Y-69790308D01*
X62731456Y-69831888D01*
X62646767Y-69994576D01*
X62576581Y-70164019D01*
X62574596Y-70168277D01*
X62557193Y-70205599D01*
X62541500Y-70248711D01*
X62471317Y-70418149D01*
X62471314Y-70418157D01*
X62470667Y-70420210D01*
X62416162Y-70593075D01*
X62400471Y-70636187D01*
X62400471Y-70636188D01*
X62388596Y-70680502D01*
X62333446Y-70855415D01*
X62293749Y-71034476D01*
X62281874Y-71078796D01*
X62273906Y-71123981D01*
X62259610Y-71188468D01*
X62234211Y-71303037D01*
X62234210Y-71303041D01*
X62210271Y-71484874D01*
X62202305Y-71530056D01*
X62198306Y-71575760D01*
X62196502Y-71589464D01*
X62174367Y-71757598D01*
X62169375Y-71871922D01*
X62166367Y-71940825D01*
X62162368Y-71986534D01*
X62162368Y-72032417D01*
X62154368Y-72215645D01*
X10232393Y-72215645D01*
X10143717Y-72096532D01*
X10143712Y-72096526D01*
X10038393Y-71984895D01*
X9931838Y-71871954D01*
X9931831Y-71871948D01*
X9931829Y-71871946D01*
X9695325Y-71673495D01*
X9695317Y-71673489D01*
X9437371Y-71503835D01*
X9161468Y-71365272D01*
X9161462Y-71365269D01*
X8871344Y-71259675D01*
X8871335Y-71259672D01*
X8871332Y-71259671D01*
X8871329Y-71259670D01*
X8871322Y-71259668D01*
X8570922Y-71188470D01*
X8570907Y-71188468D01*
X8570505Y-71188421D01*
X8264246Y-71152625D01*
X8264239Y-71152625D01*
X4900000Y-71152625D01*
X4682728Y-71143638D01*
X4484081Y-71134964D01*
X4479115Y-71134547D01*
X4263311Y-71107647D01*
X4124571Y-71089382D01*
X4062727Y-71081240D01*
X4058106Y-71080453D01*
X3845807Y-71035939D01*
X3647478Y-70991970D01*
X3643205Y-70990862D01*
X3435480Y-70929019D01*
X3241350Y-70867810D01*
X3237455Y-70866438D01*
X3237447Y-70866435D01*
X3196181Y-70850332D01*
X3035550Y-70787654D01*
X2847243Y-70709654D01*
X2843739Y-70708074D01*
X2648991Y-70612868D01*
X2468007Y-70518653D01*
X2464899Y-70516920D01*
X2278603Y-70405913D01*
X2106345Y-70296172D01*
X2103630Y-70294340D01*
X1927068Y-70168277D01*
X1764902Y-70043843D01*
X1762587Y-70041977D01*
X1596914Y-69901658D01*
X1445127Y-69762571D01*
X1290553Y-69607997D01*
X1151466Y-69456210D01*
X1011132Y-69290517D01*
X1009278Y-69288218D01*
X884871Y-69126088D01*
X807788Y-69018126D01*
X758754Y-68949448D01*
X756936Y-68946755D01*
X647248Y-68774579D01*
X640189Y-68762734D01*
X536169Y-68588164D01*
X534472Y-68585121D01*
X440305Y-68404229D01*
X345026Y-68209333D01*
X343461Y-68205860D01*
X265515Y-68017683D01*
X265466Y-68017557D01*
X186658Y-67815589D01*
X185310Y-67811762D01*
X124177Y-67617876D01*
X62248Y-67409858D01*
X61144Y-67405600D01*
X17259Y-67207649D01*
X-27334Y-66994967D01*
X-28124Y-66990335D01*
X-54447Y-66790386D01*
X-81425Y-66573959D01*
X-81842Y-66568992D01*
X-90428Y-66372338D01*
X-97493Y-66201516D01*
X-99495Y-66153125D01*
X-99500Y-66153009D01*
X-99500Y-56053125D01*
X-90514Y-55835875D01*
X-81841Y-55637205D01*
X-81424Y-55632238D01*
X-54535Y-55416522D01*
X-28117Y-55215848D01*
X-27327Y-55211215D01*
X17174Y-54998978D01*
X61160Y-54800569D01*
X62249Y-54796370D01*
X124093Y-54588638D01*
X185333Y-54394412D01*
X186666Y-54390625D01*
X265444Y-54188733D01*
X343500Y-54000289D01*
X345038Y-53996880D01*
X440228Y-53802165D01*
X534507Y-53621056D01*
X536192Y-53618033D01*
X647203Y-53431733D01*
X756988Y-53259407D01*
X758753Y-53256791D01*
X884827Y-53080213D01*
X1009345Y-52917938D01*
X1011115Y-52915742D01*
X1151452Y-52750048D01*
X1290561Y-52598237D01*
X1445116Y-52443682D01*
X1596920Y-52304580D01*
X1762607Y-52164249D01*
X1764860Y-52162433D01*
X1927048Y-52037980D01*
X2103707Y-51911848D01*
X2106275Y-51910116D01*
X2278581Y-51800344D01*
X2464901Y-51689322D01*
X2467971Y-51687609D01*
X2609696Y-51613832D01*
X2648968Y-51593389D01*
X2680793Y-51577830D01*
X2843792Y-51498145D01*
X2847212Y-51496602D01*
X3035459Y-51418628D01*
X3038707Y-51417360D01*
X3237552Y-51339771D01*
X3241341Y-51338436D01*
X3435280Y-51277287D01*
X3643278Y-51215364D01*
X3647508Y-51214267D01*
X3845483Y-51170376D01*
X4058149Y-51125785D01*
X4062743Y-51125001D01*
X4262792Y-51098664D01*
X4479189Y-51071691D01*
X4484101Y-51071279D01*
X4681476Y-51062662D01*
X4900000Y-51053625D01*
X4900500Y-51053625D01*
X8109372Y-51053625D01*
X8109872Y-51053625D01*
X8264246Y-51053625D01*
X8570907Y-51017782D01*
X8570916Y-51017779D01*
X8570922Y-51017779D01*
X8751162Y-50975060D01*
X8871332Y-50946579D01*
X9161461Y-50840981D01*
X9437368Y-50702416D01*
X9695323Y-50532756D01*
X9931838Y-50334296D01*
X10143714Y-50109721D01*
X10328085Y-49862067D01*
X10482460Y-49594683D01*
X10604748Y-49311186D01*
X10693298Y-49015408D01*
X10746912Y-48711351D01*
X10764864Y-48403125D01*
X10764862Y-48403096D01*
X10755890Y-48249045D01*
X10746912Y-48094899D01*
X10720131Y-47943018D01*
X10693301Y-47790856D01*
X10693299Y-47790850D01*
X10693298Y-47790842D01*
X10604748Y-47495064D01*
X10482460Y-47211567D01*
X10328085Y-46944183D01*
X10328063Y-46944153D01*
X10143717Y-46696532D01*
X10143712Y-46696526D01*
X10038393Y-46584895D01*
X9931838Y-46471954D01*
X9931831Y-46471948D01*
X9931829Y-46471946D01*
X9695325Y-46273495D01*
X9695317Y-46273489D01*
X9437371Y-46103835D01*
X9161468Y-45965272D01*
X9161462Y-45965269D01*
X8871344Y-45859675D01*
X8871335Y-45859672D01*
X8871332Y-45859671D01*
X8871329Y-45859670D01*
X8871322Y-45859668D01*
X8570922Y-45788470D01*
X8570907Y-45788468D01*
X8570505Y-45788421D01*
X8264246Y-45752625D01*
X8264239Y-45752625D01*
X4900000Y-45752625D01*
X4682728Y-45743638D01*
X4484081Y-45734964D01*
X4479115Y-45734547D01*
X4263311Y-45707647D01*
X4124571Y-45689382D01*
X4062727Y-45681240D01*
X4058106Y-45680453D01*
X3845807Y-45635939D01*
X3647478Y-45591970D01*
X3643205Y-45590862D01*
X3435480Y-45529019D01*
X3241350Y-45467810D01*
X3237455Y-45466438D01*
X3237447Y-45466435D01*
X3196181Y-45450332D01*
X3035550Y-45387654D01*
X2847243Y-45309654D01*
X2843739Y-45308074D01*
X2648991Y-45212868D01*
X2468007Y-45118653D01*
X2464899Y-45116920D01*
X2278603Y-45005913D01*
X2106345Y-44896172D01*
X2103630Y-44894340D01*
X1927068Y-44768277D01*
X1764902Y-44643843D01*
X1762587Y-44641977D01*
X1596914Y-44501658D01*
X1445127Y-44362571D01*
X1290553Y-44207997D01*
X1151466Y-44056210D01*
X1011132Y-43890517D01*
X1009278Y-43888218D01*
X884871Y-43726088D01*
X812590Y-43624852D01*
X758754Y-43549448D01*
X756936Y-43546755D01*
X647248Y-43374579D01*
X640189Y-43362734D01*
X536169Y-43188164D01*
X534472Y-43185121D01*
X440305Y-43004229D01*
X345026Y-42809333D01*
X343461Y-42805860D01*
X265515Y-42617683D01*
X265466Y-42617557D01*
X186658Y-42415589D01*
X185310Y-42411762D01*
X124177Y-42217876D01*
X62248Y-42009858D01*
X61144Y-42005600D01*
X17259Y-41807649D01*
X-27334Y-41594967D01*
X-28124Y-41590335D01*
X-54447Y-41390386D01*
X-81425Y-41173959D01*
X-81842Y-41168992D01*
X-90428Y-40972338D01*
X-97493Y-40801516D01*
X-99495Y-40753125D01*
X-99500Y-40753009D01*
X-99500Y-35713896D01*
X28856705Y-35713896D01*
X28886512Y-36136978D01*
X28955809Y-36555435D01*
X29063980Y-36965539D01*
X29063982Y-36965546D01*
X29210085Y-37363728D01*
X29210087Y-37363733D01*
X29373778Y-37706573D01*
X29392835Y-37746486D01*
X29392838Y-37746492D01*
X29610621Y-38110447D01*
X29610625Y-38110453D01*
X29861535Y-38452416D01*
X30143367Y-38769385D01*
X30453642Y-39058570D01*
X30453651Y-39058578D01*
X30789623Y-39317423D01*
X30789630Y-39317428D01*
X30789633Y-39317430D01*
X31148388Y-39543690D01*
X31526754Y-39735361D01*
X31909469Y-39886058D01*
X31921411Y-39890761D01*
X32053579Y-39928957D01*
X32328876Y-40008519D01*
X32328880Y-40008519D01*
X32328880Y-40008520D01*
X32745576Y-40087604D01*
X32745577Y-40087604D01*
X32745582Y-40087605D01*
X33167863Y-40127322D01*
X33167865Y-40127322D01*
X33485916Y-40127322D01*
X33512672Y-40126066D01*
X33803613Y-40112414D01*
X34080800Y-40073163D01*
X34223556Y-40052949D01*
X34223559Y-40052948D01*
X34223568Y-40052947D01*
X34636110Y-39954416D01*
X34823038Y-39890759D01*
X35037601Y-39817691D01*
X35037604Y-39817689D01*
X35037612Y-39817687D01*
X35424546Y-39643962D01*
X35793512Y-39434766D01*
X36141267Y-39191940D01*
X36464756Y-38917616D01*
X36761135Y-38614205D01*
X37027800Y-38284375D01*
X37262408Y-37931022D01*
X37462896Y-37557253D01*
X37627503Y-37166353D01*
X37754783Y-36761756D01*
X37843616Y-36347018D01*
X37893222Y-35925785D01*
X37898191Y-35713896D01*
X96916575Y-35713896D01*
X96946382Y-36136978D01*
X97015679Y-36555435D01*
X97123850Y-36965539D01*
X97123852Y-36965546D01*
X97269955Y-37363728D01*
X97269957Y-37363733D01*
X97433648Y-37706573D01*
X97452705Y-37746486D01*
X97452708Y-37746492D01*
X97670491Y-38110447D01*
X97670495Y-38110453D01*
X97921405Y-38452416D01*
X98203237Y-38769385D01*
X98513512Y-39058570D01*
X98513521Y-39058578D01*
X98849493Y-39317423D01*
X98849500Y-39317428D01*
X98849503Y-39317430D01*
X99208258Y-39543690D01*
X99586624Y-39735361D01*
X99969339Y-39886058D01*
X99981281Y-39890761D01*
X100113449Y-39928957D01*
X100388746Y-40008519D01*
X100388750Y-40008519D01*
X100388750Y-40008520D01*
X100805446Y-40087604D01*
X100805447Y-40087604D01*
X100805452Y-40087605D01*
X101227733Y-40127322D01*
X101227735Y-40127322D01*
X101545786Y-40127322D01*
X101572542Y-40126066D01*
X101863483Y-40112414D01*
X102140670Y-40073163D01*
X102283426Y-40052949D01*
X102283429Y-40052948D01*
X102283438Y-40052947D01*
X102695980Y-39954416D01*
X102882908Y-39890759D01*
X103097471Y-39817691D01*
X103097474Y-39817689D01*
X103097482Y-39817687D01*
X103484416Y-39643962D01*
X103853382Y-39434766D01*
X104201137Y-39191940D01*
X104524626Y-38917616D01*
X104821005Y-38614205D01*
X105087670Y-38284375D01*
X105322278Y-37931022D01*
X105522766Y-37557253D01*
X105687373Y-37166353D01*
X105814653Y-36761756D01*
X105903486Y-36347018D01*
X105953092Y-35925785D01*
X105963035Y-35501757D01*
X105933227Y-35078661D01*
X105863932Y-34660215D01*
X105755757Y-34250097D01*
X105609653Y-33851911D01*
X105426904Y-33469156D01*
X105316483Y-33284622D01*
X105209118Y-33105196D01*
X105209114Y-33105190D01*
X104958204Y-32763227D01*
X104814355Y-32601444D01*
X104676373Y-32446259D01*
X104366098Y-32157074D01*
X104366096Y-32157072D01*
X104366088Y-32157065D01*
X104030116Y-31898220D01*
X104030109Y-31898215D01*
X103671347Y-31671951D01*
X103473407Y-31571680D01*
X103292986Y-31480283D01*
X103142287Y-31420943D01*
X102898328Y-31324882D01*
X102596837Y-31237751D01*
X102490864Y-31207125D01*
X102490859Y-31207124D01*
X102490859Y-31207123D01*
X102074163Y-31128039D01*
X101772528Y-31099669D01*
X101651877Y-31088322D01*
X101333827Y-31088322D01*
X101333824Y-31088322D01*
X101262218Y-31091682D01*
X101016127Y-31103230D01*
X101016121Y-31103230D01*
X101016116Y-31103231D01*
X100596183Y-31162694D01*
X100183620Y-31261230D01*
X100183612Y-31261233D01*
X99782138Y-31397952D01*
X99782121Y-31397959D01*
X99395196Y-31571680D01*
X99395192Y-31571682D01*
X99026228Y-31780877D01*
X99026220Y-31780882D01*
X98678476Y-32023700D01*
X98354979Y-32298032D01*
X98058603Y-32601440D01*
X98058599Y-32601444D01*
X97791950Y-32931256D01*
X97791933Y-32931278D01*
X97557332Y-33284620D01*
X97356840Y-33658397D01*
X97356840Y-33658398D01*
X97192236Y-34049292D01*
X97192234Y-34049298D01*
X97064957Y-34453884D01*
X96976123Y-34868628D01*
X96926517Y-35289859D01*
X96926517Y-35289861D01*
X96916575Y-35713887D01*
X96916575Y-35713896D01*
X37898191Y-35713896D01*
X37903165Y-35501757D01*
X37873357Y-35078661D01*
X37804062Y-34660215D01*
X37695887Y-34250097D01*
X37549783Y-33851911D01*
X37367034Y-33469156D01*
X37256613Y-33284622D01*
X37149248Y-33105196D01*
X37149244Y-33105190D01*
X36898334Y-32763227D01*
X36754485Y-32601444D01*
X36616503Y-32446259D01*
X36306228Y-32157074D01*
X36306226Y-32157072D01*
X36306218Y-32157065D01*
X35970246Y-31898220D01*
X35970239Y-31898215D01*
X35611477Y-31671951D01*
X35413537Y-31571680D01*
X35233116Y-31480283D01*
X35082417Y-31420943D01*
X34838458Y-31324882D01*
X34536967Y-31237751D01*
X34430994Y-31207125D01*
X34430989Y-31207124D01*
X34430989Y-31207123D01*
X34014293Y-31128039D01*
X33712658Y-31099669D01*
X33592007Y-31088322D01*
X33273957Y-31088322D01*
X33273954Y-31088322D01*
X33202348Y-31091682D01*
X32956257Y-31103230D01*
X32956251Y-31103230D01*
X32956246Y-31103231D01*
X32536313Y-31162694D01*
X32123750Y-31261230D01*
X32123742Y-31261233D01*
X31722268Y-31397952D01*
X31722251Y-31397959D01*
X31335326Y-31571680D01*
X31335322Y-31571682D01*
X30966358Y-31780877D01*
X30966350Y-31780882D01*
X30618606Y-32023700D01*
X30295109Y-32298032D01*
X29998733Y-32601440D01*
X29998729Y-32601444D01*
X29732080Y-32931256D01*
X29732063Y-32931278D01*
X29497462Y-33284620D01*
X29296970Y-33658397D01*
X29296970Y-33658398D01*
X29132366Y-34049292D01*
X29132364Y-34049298D01*
X29005087Y-34453884D01*
X28916253Y-34868628D01*
X28866647Y-35289859D01*
X28866647Y-35289861D01*
X28856705Y-35713887D01*
X28856705Y-35713896D01*
X-99500Y-35713896D01*
X-99500Y-30653125D01*
X-90514Y-30435875D01*
X-81841Y-30237205D01*
X-81424Y-30232238D01*
X-54535Y-30016522D01*
X-28117Y-29815848D01*
X-27327Y-29811215D01*
X17174Y-29598978D01*
X61160Y-29400569D01*
X62249Y-29396370D01*
X124093Y-29188638D01*
X185333Y-28994412D01*
X186666Y-28990625D01*
X265444Y-28788733D01*
X343500Y-28600289D01*
X345038Y-28596880D01*
X440228Y-28402165D01*
X534507Y-28221056D01*
X536192Y-28218033D01*
X647203Y-28031733D01*
X756988Y-27859407D01*
X758753Y-27856791D01*
X884827Y-27680213D01*
X1009345Y-27517938D01*
X1011115Y-27515742D01*
X1151452Y-27350048D01*
X1290561Y-27198237D01*
X1445116Y-27043682D01*
X1596920Y-26904580D01*
X1762607Y-26764249D01*
X1764860Y-26762433D01*
X1927048Y-26637980D01*
X2103707Y-26511848D01*
X2106275Y-26510116D01*
X2278581Y-26400344D01*
X2464901Y-26289322D01*
X2467971Y-26287609D01*
X2609696Y-26213832D01*
X2648968Y-26193389D01*
X2680793Y-26177830D01*
X2843792Y-26098145D01*
X2847212Y-26096602D01*
X3035459Y-26018628D01*
X3038707Y-26017360D01*
X3237552Y-25939771D01*
X3241341Y-25938436D01*
X3435280Y-25877287D01*
X3643278Y-25815364D01*
X3647508Y-25814267D01*
X3845483Y-25770376D01*
X4058149Y-25725785D01*
X4062743Y-25725001D01*
X4262792Y-25698664D01*
X4479189Y-25671691D01*
X4484101Y-25671279D01*
X4681476Y-25662662D01*
X4900000Y-25653625D01*
X4900500Y-25653625D01*
X8109372Y-25653625D01*
X8109872Y-25653625D01*
X8264246Y-25653625D01*
X8570907Y-25617782D01*
X8570916Y-25617779D01*
X8570922Y-25617779D01*
X8751162Y-25575060D01*
X8871332Y-25546579D01*
X9161461Y-25440981D01*
X9437368Y-25302416D01*
X9695323Y-25132756D01*
X9931838Y-24934296D01*
X10143714Y-24709721D01*
X10328085Y-24462067D01*
X10482460Y-24194683D01*
X10604748Y-23911186D01*
X10693298Y-23615408D01*
X10746912Y-23311351D01*
X10764864Y-23003125D01*
X10764862Y-23003096D01*
X10755890Y-22849045D01*
X10746912Y-22694899D01*
X10720131Y-22543018D01*
X10693301Y-22390856D01*
X10693299Y-22390850D01*
X10693298Y-22390842D01*
X10604748Y-22095064D01*
X10482460Y-21811567D01*
X10328085Y-21544183D01*
X10328063Y-21544153D01*
X10143717Y-21296532D01*
X10143712Y-21296526D01*
X10038393Y-21184895D01*
X9931838Y-21071954D01*
X9931831Y-21071948D01*
X9931829Y-21071946D01*
X9695325Y-20873495D01*
X9695317Y-20873489D01*
X9437371Y-20703835D01*
X9161468Y-20565272D01*
X9161462Y-20565269D01*
X8871344Y-20459675D01*
X8871335Y-20459672D01*
X8871332Y-20459671D01*
X8871329Y-20459670D01*
X8871322Y-20459668D01*
X8570922Y-20388470D01*
X8570907Y-20388468D01*
X8570505Y-20388421D01*
X8264246Y-20352625D01*
X8264239Y-20352625D01*
X4900000Y-20352625D01*
X4682728Y-20343638D01*
X4484081Y-20334964D01*
X4479115Y-20334547D01*
X4263311Y-20307647D01*
X4124571Y-20289382D01*
X4062727Y-20281240D01*
X4058106Y-20280453D01*
X3845807Y-20235939D01*
X3647478Y-20191970D01*
X3643205Y-20190862D01*
X3435480Y-20129019D01*
X3241350Y-20067810D01*
X3237455Y-20066438D01*
X3237447Y-20066435D01*
X3196181Y-20050332D01*
X3035550Y-19987654D01*
X2847243Y-19909654D01*
X2843739Y-19908074D01*
X2648991Y-19812868D01*
X2468007Y-19718653D01*
X2464899Y-19716920D01*
X2278603Y-19605913D01*
X2106345Y-19496172D01*
X2103630Y-19494340D01*
X1927068Y-19368277D01*
X1764902Y-19243843D01*
X1762587Y-19241977D01*
X1596914Y-19101658D01*
X1445127Y-18962571D01*
X1290553Y-18807997D01*
X1151466Y-18656210D01*
X1011132Y-18490517D01*
X1009278Y-18488218D01*
X884871Y-18326088D01*
X812590Y-18224852D01*
X758754Y-18149448D01*
X756936Y-18146755D01*
X647248Y-17974579D01*
X640189Y-17962734D01*
X536169Y-17788164D01*
X534472Y-17785121D01*
X440305Y-17604229D01*
X345026Y-17409333D01*
X343461Y-17405860D01*
X265515Y-17217683D01*
X265466Y-17217557D01*
X186658Y-17015589D01*
X185310Y-17011762D01*
X124177Y-16817876D01*
X62248Y-16609858D01*
X61144Y-16605600D01*
X17259Y-16407649D01*
X-27334Y-16194967D01*
X-28124Y-16190335D01*
X-54447Y-15990386D01*
X-81425Y-15773959D01*
X-81842Y-15768992D01*
X-90428Y-15572338D01*
X-97493Y-15401516D01*
X-99495Y-15353125D01*
X-99500Y-15353009D01*
X-99500Y-3762503D01*
X8749908Y-3762503D01*
X8767860Y-4070726D01*
X8767861Y-4070734D01*
X8821470Y-4374768D01*
X8821473Y-4374779D01*
X8910023Y-4670560D01*
X9032308Y-4954049D01*
X9032314Y-4954061D01*
X9186687Y-5221443D01*
X9371054Y-5469092D01*
X9371059Y-5469098D01*
X9476348Y-5580697D01*
X9582934Y-5693671D01*
X9582940Y-5693676D01*
X9582942Y-5693678D01*
X9819446Y-5892129D01*
X9819454Y-5892135D01*
X10077400Y-6061789D01*
X10077404Y-6061791D01*
X10353311Y-6200356D01*
X10643440Y-6305954D01*
X10686654Y-6316196D01*
X10943849Y-6377154D01*
X10943856Y-6377155D01*
X10943865Y-6377157D01*
X11250526Y-6413000D01*
X11250533Y-6413000D01*
X16859267Y-6413000D01*
X16859274Y-6413000D01*
X17165935Y-6377157D01*
X17165944Y-6377154D01*
X17165950Y-6377154D01*
X17346190Y-6334435D01*
X17466360Y-6305954D01*
X17756489Y-6200356D01*
X18032396Y-6061791D01*
X18290351Y-5892131D01*
X18526866Y-5693671D01*
X18738742Y-5469096D01*
X18923113Y-5221442D01*
X19077488Y-4954058D01*
X19199776Y-4670561D01*
X19288326Y-4374783D01*
X19341940Y-4070726D01*
X19359892Y-3762503D01*
X34149908Y-3762503D01*
X34167860Y-4070726D01*
X34167861Y-4070734D01*
X34221470Y-4374768D01*
X34221473Y-4374779D01*
X34310023Y-4670560D01*
X34432308Y-4954049D01*
X34432314Y-4954061D01*
X34586687Y-5221443D01*
X34771054Y-5469092D01*
X34771059Y-5469098D01*
X34876348Y-5580697D01*
X34982934Y-5693671D01*
X34982940Y-5693676D01*
X34982942Y-5693678D01*
X35219446Y-5892129D01*
X35219454Y-5892135D01*
X35477400Y-6061789D01*
X35477404Y-6061791D01*
X35753311Y-6200356D01*
X36043440Y-6305954D01*
X36086654Y-6316196D01*
X36343849Y-6377154D01*
X36343856Y-6377155D01*
X36343865Y-6377157D01*
X36650526Y-6413000D01*
X36650533Y-6413000D01*
X42259267Y-6413000D01*
X42259274Y-6413000D01*
X42565935Y-6377157D01*
X42565944Y-6377154D01*
X42565950Y-6377154D01*
X42746190Y-6334435D01*
X42866360Y-6305954D01*
X43156489Y-6200356D01*
X43432396Y-6061791D01*
X43690351Y-5892131D01*
X43926866Y-5693671D01*
X44138742Y-5469096D01*
X44323113Y-5221442D01*
X44477488Y-4954058D01*
X44599776Y-4670561D01*
X44688326Y-4374783D01*
X44741940Y-4070726D01*
X44759892Y-3762503D01*
X59549908Y-3762503D01*
X59567860Y-4070726D01*
X59567861Y-4070734D01*
X59621470Y-4374768D01*
X59621473Y-4374779D01*
X59710023Y-4670560D01*
X59832308Y-4954049D01*
X59832314Y-4954061D01*
X59986687Y-5221443D01*
X60171054Y-5469092D01*
X60171059Y-5469098D01*
X60276348Y-5580697D01*
X60382934Y-5693671D01*
X60382940Y-5693676D01*
X60382942Y-5693678D01*
X60619446Y-5892129D01*
X60619454Y-5892135D01*
X60877400Y-6061789D01*
X60877404Y-6061791D01*
X61153311Y-6200356D01*
X61443440Y-6305954D01*
X61486654Y-6316196D01*
X61743849Y-6377154D01*
X61743856Y-6377155D01*
X61743865Y-6377157D01*
X62050526Y-6413000D01*
X62050533Y-6413000D01*
X67659267Y-6413000D01*
X67659274Y-6413000D01*
X67965935Y-6377157D01*
X67965944Y-6377154D01*
X67965950Y-6377154D01*
X68146190Y-6334435D01*
X68266360Y-6305954D01*
X68556489Y-6200356D01*
X68832396Y-6061791D01*
X69090351Y-5892131D01*
X69326866Y-5693671D01*
X69538742Y-5469096D01*
X69723113Y-5221442D01*
X69877488Y-4954058D01*
X69999776Y-4670561D01*
X70088326Y-4374783D01*
X70141940Y-4070726D01*
X70159892Y-3762503D01*
X84949908Y-3762503D01*
X84967860Y-4070726D01*
X84967861Y-4070734D01*
X85021470Y-4374768D01*
X85021473Y-4374779D01*
X85110023Y-4670560D01*
X85232308Y-4954049D01*
X85232314Y-4954061D01*
X85386687Y-5221443D01*
X85571054Y-5469092D01*
X85571059Y-5469098D01*
X85676348Y-5580697D01*
X85782934Y-5693671D01*
X85782940Y-5693676D01*
X85782942Y-5693678D01*
X86019446Y-5892129D01*
X86019454Y-5892135D01*
X86277400Y-6061789D01*
X86277404Y-6061791D01*
X86553311Y-6200356D01*
X86843440Y-6305954D01*
X86886654Y-6316196D01*
X87143849Y-6377154D01*
X87143856Y-6377155D01*
X87143865Y-6377157D01*
X87450526Y-6413000D01*
X87450533Y-6413000D01*
X93059267Y-6413000D01*
X93059274Y-6413000D01*
X93365935Y-6377157D01*
X93365944Y-6377154D01*
X93365950Y-6377154D01*
X93546190Y-6334435D01*
X93666360Y-6305954D01*
X93956489Y-6200356D01*
X94232396Y-6061791D01*
X94490351Y-5892131D01*
X94726866Y-5693671D01*
X94938742Y-5469096D01*
X95123113Y-5221442D01*
X95277488Y-4954058D01*
X95399776Y-4670561D01*
X95488326Y-4374783D01*
X95541940Y-4070726D01*
X95559892Y-3762503D01*
X110349908Y-3762503D01*
X110367860Y-4070726D01*
X110367861Y-4070734D01*
X110421470Y-4374768D01*
X110421473Y-4374779D01*
X110510023Y-4670560D01*
X110632308Y-4954049D01*
X110632314Y-4954061D01*
X110786687Y-5221443D01*
X110971054Y-5469092D01*
X110971059Y-5469098D01*
X111076348Y-5580697D01*
X111182934Y-5693671D01*
X111182940Y-5693676D01*
X111182942Y-5693678D01*
X111419446Y-5892129D01*
X111419454Y-5892135D01*
X111677400Y-6061789D01*
X111677404Y-6061791D01*
X111953311Y-6200356D01*
X112243440Y-6305954D01*
X112286654Y-6316196D01*
X112543849Y-6377154D01*
X112543856Y-6377155D01*
X112543865Y-6377157D01*
X112850526Y-6413000D01*
X112850533Y-6413000D01*
X118459267Y-6413000D01*
X118459274Y-6413000D01*
X118765935Y-6377157D01*
X118765944Y-6377154D01*
X118765950Y-6377154D01*
X118946190Y-6334435D01*
X119066360Y-6305954D01*
X119356489Y-6200356D01*
X119632396Y-6061791D01*
X119890351Y-5892131D01*
X120126866Y-5693671D01*
X120338742Y-5469096D01*
X120523113Y-5221442D01*
X120677488Y-4954058D01*
X120799776Y-4670561D01*
X120888326Y-4374783D01*
X120941940Y-4070726D01*
X120959892Y-3762500D01*
X120941940Y-3454274D01*
X120915164Y-3302419D01*
X120888329Y-3150231D01*
X120888327Y-3150225D01*
X120888326Y-3150217D01*
X120799776Y-2854439D01*
X120677488Y-2570942D01*
X120523113Y-2303558D01*
X120523112Y-2303556D01*
X120338745Y-2055907D01*
X120338740Y-2055901D01*
X120233452Y-1944303D01*
X120126866Y-1831329D01*
X120126859Y-1831323D01*
X120126857Y-1831321D01*
X119890353Y-1632870D01*
X119890345Y-1632864D01*
X119632399Y-1463210D01*
X119356496Y-1324647D01*
X119356490Y-1324644D01*
X119066372Y-1219050D01*
X119066363Y-1219047D01*
X119066360Y-1219046D01*
X119066357Y-1219045D01*
X119066350Y-1219043D01*
X118765950Y-1147845D01*
X118765935Y-1147843D01*
X118459274Y-1112000D01*
X118304999Y-1112000D01*
X113005400Y-1112000D01*
X113004900Y-1112000D01*
X112850526Y-1112000D01*
X112582197Y-1143362D01*
X112543864Y-1147843D01*
X112543849Y-1147845D01*
X112243449Y-1219043D01*
X112243427Y-1219050D01*
X111953309Y-1324644D01*
X111953303Y-1324647D01*
X111677400Y-1463210D01*
X111419454Y-1632864D01*
X111419446Y-1632870D01*
X111182942Y-1831321D01*
X111182932Y-1831331D01*
X110971059Y-2055901D01*
X110971054Y-2055907D01*
X110786687Y-2303556D01*
X110632314Y-2570938D01*
X110632308Y-2570950D01*
X110510023Y-2854439D01*
X110421473Y-3150220D01*
X110421470Y-3150231D01*
X110367861Y-3454265D01*
X110367860Y-3454273D01*
X110349908Y-3762496D01*
X110349908Y-3762503D01*
X95559892Y-3762503D01*
X95559892Y-3762500D01*
X95541940Y-3454274D01*
X95515164Y-3302419D01*
X95488329Y-3150231D01*
X95488327Y-3150225D01*
X95488326Y-3150217D01*
X95399776Y-2854439D01*
X95277488Y-2570942D01*
X95123113Y-2303558D01*
X95123112Y-2303556D01*
X94938745Y-2055907D01*
X94938740Y-2055901D01*
X94833452Y-1944303D01*
X94726866Y-1831329D01*
X94726859Y-1831323D01*
X94726857Y-1831321D01*
X94490353Y-1632870D01*
X94490345Y-1632864D01*
X94232399Y-1463210D01*
X93956496Y-1324647D01*
X93956490Y-1324644D01*
X93666372Y-1219050D01*
X93666363Y-1219047D01*
X93666360Y-1219046D01*
X93666357Y-1219045D01*
X93666350Y-1219043D01*
X93365950Y-1147845D01*
X93365935Y-1147843D01*
X93059274Y-1112000D01*
X92904999Y-1112000D01*
X87605400Y-1112000D01*
X87604900Y-1112000D01*
X87450526Y-1112000D01*
X87182197Y-1143362D01*
X87143864Y-1147843D01*
X87143849Y-1147845D01*
X86843449Y-1219043D01*
X86843427Y-1219050D01*
X86553309Y-1324644D01*
X86553303Y-1324647D01*
X86277400Y-1463210D01*
X86019454Y-1632864D01*
X86019446Y-1632870D01*
X85782942Y-1831321D01*
X85782932Y-1831331D01*
X85571059Y-2055901D01*
X85571054Y-2055907D01*
X85386687Y-2303556D01*
X85232314Y-2570938D01*
X85232308Y-2570950D01*
X85110023Y-2854439D01*
X85021473Y-3150220D01*
X85021470Y-3150231D01*
X84967861Y-3454265D01*
X84967860Y-3454273D01*
X84949908Y-3762496D01*
X84949908Y-3762503D01*
X70159892Y-3762503D01*
X70159892Y-3762500D01*
X70141940Y-3454274D01*
X70115164Y-3302419D01*
X70088329Y-3150231D01*
X70088327Y-3150225D01*
X70088326Y-3150217D01*
X69999776Y-2854439D01*
X69877488Y-2570942D01*
X69723113Y-2303558D01*
X69723112Y-2303556D01*
X69538745Y-2055907D01*
X69538740Y-2055901D01*
X69433452Y-1944303D01*
X69326866Y-1831329D01*
X69326859Y-1831323D01*
X69326857Y-1831321D01*
X69090353Y-1632870D01*
X69090345Y-1632864D01*
X68832399Y-1463210D01*
X68556496Y-1324647D01*
X68556490Y-1324644D01*
X68266372Y-1219050D01*
X68266363Y-1219047D01*
X68266360Y-1219046D01*
X68266357Y-1219045D01*
X68266350Y-1219043D01*
X67965950Y-1147845D01*
X67965935Y-1147843D01*
X67659274Y-1112000D01*
X67504999Y-1112000D01*
X62205400Y-1112000D01*
X62204900Y-1112000D01*
X62050526Y-1112000D01*
X61782197Y-1143362D01*
X61743864Y-1147843D01*
X61743849Y-1147845D01*
X61443449Y-1219043D01*
X61443427Y-1219050D01*
X61153309Y-1324644D01*
X61153303Y-1324647D01*
X60877400Y-1463210D01*
X60619454Y-1632864D01*
X60619446Y-1632870D01*
X60382942Y-1831321D01*
X60382932Y-1831331D01*
X60171059Y-2055901D01*
X60171054Y-2055907D01*
X59986687Y-2303556D01*
X59832314Y-2570938D01*
X59832308Y-2570950D01*
X59710023Y-2854439D01*
X59621473Y-3150220D01*
X59621470Y-3150231D01*
X59567861Y-3454265D01*
X59567860Y-3454273D01*
X59549908Y-3762496D01*
X59549908Y-3762503D01*
X44759892Y-3762503D01*
X44759892Y-3762500D01*
X44741940Y-3454274D01*
X44715164Y-3302419D01*
X44688329Y-3150231D01*
X44688327Y-3150225D01*
X44688326Y-3150217D01*
X44599776Y-2854439D01*
X44477488Y-2570942D01*
X44323113Y-2303558D01*
X44323112Y-2303556D01*
X44138745Y-2055907D01*
X44138740Y-2055901D01*
X44033452Y-1944303D01*
X43926866Y-1831329D01*
X43926859Y-1831323D01*
X43926857Y-1831321D01*
X43690353Y-1632870D01*
X43690345Y-1632864D01*
X43432399Y-1463210D01*
X43156496Y-1324647D01*
X43156490Y-1324644D01*
X42866372Y-1219050D01*
X42866363Y-1219047D01*
X42866360Y-1219046D01*
X42866357Y-1219045D01*
X42866350Y-1219043D01*
X42565950Y-1147845D01*
X42565935Y-1147843D01*
X42259274Y-1112000D01*
X42104999Y-1112000D01*
X36805400Y-1112000D01*
X36804900Y-1112000D01*
X36650526Y-1112000D01*
X36382197Y-1143362D01*
X36343864Y-1147843D01*
X36343849Y-1147845D01*
X36043449Y-1219043D01*
X36043427Y-1219050D01*
X35753309Y-1324644D01*
X35753303Y-1324647D01*
X35477400Y-1463210D01*
X35219454Y-1632864D01*
X35219446Y-1632870D01*
X34982942Y-1831321D01*
X34982932Y-1831331D01*
X34771059Y-2055901D01*
X34771054Y-2055907D01*
X34586687Y-2303556D01*
X34432314Y-2570938D01*
X34432308Y-2570950D01*
X34310023Y-2854439D01*
X34221473Y-3150220D01*
X34221470Y-3150231D01*
X34167861Y-3454265D01*
X34167860Y-3454273D01*
X34149908Y-3762496D01*
X34149908Y-3762503D01*
X19359892Y-3762503D01*
X19359892Y-3762500D01*
X19341940Y-3454274D01*
X19315164Y-3302419D01*
X19288329Y-3150231D01*
X19288327Y-3150225D01*
X19288326Y-3150217D01*
X19199776Y-2854439D01*
X19077488Y-2570942D01*
X18923113Y-2303558D01*
X18923112Y-2303556D01*
X18738745Y-2055907D01*
X18738740Y-2055901D01*
X18633452Y-1944303D01*
X18526866Y-1831329D01*
X18526859Y-1831323D01*
X18526857Y-1831321D01*
X18290353Y-1632870D01*
X18290345Y-1632864D01*
X18032399Y-1463210D01*
X17756496Y-1324647D01*
X17756490Y-1324644D01*
X17466372Y-1219050D01*
X17466363Y-1219047D01*
X17466360Y-1219046D01*
X17466357Y-1219045D01*
X17466350Y-1219043D01*
X17165950Y-1147845D01*
X17165935Y-1147843D01*
X16859274Y-1112000D01*
X16704999Y-1112000D01*
X11405400Y-1112000D01*
X11404900Y-1112000D01*
X11250526Y-1112000D01*
X10982197Y-1143362D01*
X10943864Y-1147843D01*
X10943849Y-1147845D01*
X10643449Y-1219043D01*
X10643427Y-1219050D01*
X10353309Y-1324644D01*
X10353303Y-1324647D01*
X10077400Y-1463210D01*
X9819454Y-1632864D01*
X9819446Y-1632870D01*
X9582942Y-1831321D01*
X9582932Y-1831331D01*
X9371059Y-2055901D01*
X9371054Y-2055907D01*
X9186687Y-2303556D01*
X9032314Y-2570938D01*
X9032308Y-2570950D01*
X8910023Y-2854439D01*
X8821473Y-3150220D01*
X8821470Y-3150231D01*
X8767861Y-3454265D01*
X8767860Y-3454273D01*
X8749908Y-3762496D01*
X8749908Y-3762503D01*
X-99500Y-3762503D01*
X-99500Y-2710D01*
X-99264Y2698D01*
X-95523Y45445D01*
X-83083Y171759D01*
X-79455Y191700D01*
X-61601Y258331D01*
X-33321Y351559D01*
X-27043Y367967D01*
X-1834Y422028D01*
X4392Y435381D01*
X5902Y438401D01*
X50762Y522327D01*
X54657Y528667D01*
X100983Y594828D01*
X103844Y598600D01*
X163103Y670808D01*
X167182Y675309D01*
X224688Y732815D01*
X229190Y736895D01*
X301398Y796154D01*
X305170Y799015D01*
X371331Y845341D01*
X377671Y849236D01*
X461605Y894101D01*
X464618Y895607D01*
X495944Y910215D01*
X532027Y927040D01*
X548435Y933319D01*
X641669Y961601D01*
X708299Y979454D01*
X728238Y983082D01*
X854554Y995523D01*
X895015Y999063D01*
X897303Y999264D01*
X902710Y999500D01*
X132817026Y999500D01*
X132822435Y999264D01*
G37*
%TD.AperFunction*%
M02*
