%TF.GenerationSoftware,KiCad,Pcbnew,7.0.9*%
%TF.CreationDate,2024-08-20T19:33:21-06:00*%
%TF.ProjectId,4K layer,344b206c-6179-4657-922e-6b696361645f,rev?*%
%TF.SameCoordinates,Original*%
%TF.FileFunction,Legend,Top*%
%TF.FilePolarity,Positive*%
%FSLAX46Y46*%
G04 Gerber Fmt 4.6, Leading zero omitted, Abs format (unit mm)*
G04 Created by KiCad (PCBNEW 7.0.9) date 2024-08-20 19:33:21*
%MOMM*%
%LPD*%
G01*
G04 APERTURE LIST*
%ADD10C,0.100000*%
%ADD11C,0.150000*%
%ADD12C,3.450000*%
G04 APERTURE END LIST*
D10*
X32618030Y-13213241D02*
X32618030Y-12213241D01*
X32618030Y-12689431D02*
X33189458Y-12689431D01*
X33189458Y-13213241D02*
X33189458Y-12213241D01*
X34094220Y-12546574D02*
X34094220Y-13213241D01*
X33856125Y-12165622D02*
X33618030Y-12879907D01*
X33618030Y-12879907D02*
X34237077Y-12879907D01*
X100677900Y-13213241D02*
X100677900Y-12213241D01*
X100677900Y-12689431D02*
X101249328Y-12689431D01*
X101249328Y-13213241D02*
X101249328Y-12213241D01*
X102249328Y-13213241D02*
X101677900Y-13213241D01*
X101963614Y-13213241D02*
X101963614Y-12213241D01*
X101963614Y-12213241D02*
X101868376Y-12356098D01*
X101868376Y-12356098D02*
X101773138Y-12451336D01*
X101773138Y-12451336D02*
X101677900Y-12498955D01*
X100677900Y-86428886D02*
X100677900Y-85428886D01*
X100677900Y-85905076D02*
X101249328Y-85905076D01*
X101249328Y-86428886D02*
X101249328Y-85428886D01*
X101630281Y-85428886D02*
X102249328Y-85428886D01*
X102249328Y-85428886D02*
X101915995Y-85809838D01*
X101915995Y-85809838D02*
X102058852Y-85809838D01*
X102058852Y-85809838D02*
X102154090Y-85857457D01*
X102154090Y-85857457D02*
X102201709Y-85905076D01*
X102201709Y-85905076D02*
X102249328Y-86000314D01*
X102249328Y-86000314D02*
X102249328Y-86238409D01*
X102249328Y-86238409D02*
X102201709Y-86333647D01*
X102201709Y-86333647D02*
X102154090Y-86381267D01*
X102154090Y-86381267D02*
X102058852Y-86428886D01*
X102058852Y-86428886D02*
X101773138Y-86428886D01*
X101773138Y-86428886D02*
X101677900Y-86381267D01*
X101677900Y-86381267D02*
X101630281Y-86333647D01*
X32618030Y-86428886D02*
X32618030Y-85428886D01*
X32618030Y-85905076D02*
X33189458Y-85905076D01*
X33189458Y-86428886D02*
X33189458Y-85428886D01*
X33618030Y-85524124D02*
X33665649Y-85476505D01*
X33665649Y-85476505D02*
X33760887Y-85428886D01*
X33760887Y-85428886D02*
X33998982Y-85428886D01*
X33998982Y-85428886D02*
X34094220Y-85476505D01*
X34094220Y-85476505D02*
X34141839Y-85524124D01*
X34141839Y-85524124D02*
X34189458Y-85619362D01*
X34189458Y-85619362D02*
X34189458Y-85714600D01*
X34189458Y-85714600D02*
X34141839Y-85857457D01*
X34141839Y-85857457D02*
X33570411Y-86428886D01*
X33570411Y-86428886D02*
X34189458Y-86428886D01*
%LPC*%
D11*
X-27000000Y16800000D02*
X155000000Y16800000D01*
X155000000Y-164200000D01*
X-27000000Y-164200000D01*
X-27000000Y16800000D01*
G36*
X-27000000Y16800000D02*
G01*
X155000000Y16800000D01*
X155000000Y-164200000D01*
X-27000000Y-164200000D01*
X-27000000Y16800000D01*
G37*
D12*
%TO.C,H4*%
X33379935Y-35607822D03*
%TD*%
%TO.C,H1*%
X101439805Y-35607822D03*
%TD*%
%TO.C,H3*%
X101439805Y-108823467D03*
%TD*%
%TO.C,H2*%
X33379935Y-108823467D03*
%TD*%
%LPD*%
M02*
