%TF.GenerationSoftware,KiCad,Pcbnew,7.0.9*%
%TF.CreationDate,2024-08-20T19:33:21-06:00*%
%TF.ProjectId,4K layer,344b206c-6179-4657-922e-6b696361645f,rev?*%
%TF.SameCoordinates,Original*%
%TF.FileFunction,Profile,NP*%
%FSLAX46Y46*%
G04 Gerber Fmt 4.6, Leading zero omitted, Abs format (unit mm)*
G04 Created by KiCad (PCBNEW 7.0.9) date 2024-08-20 19:33:21*
%MOMM*%
%LPD*%
G01*
G04 APERTURE LIST*
%TA.AperFunction,Profile*%
%ADD10C,0.250000*%
%TD*%
G04 APERTURE END LIST*
D10*
X126634872Y-20353075D02*
G75*
G03*
X126634872Y-25653125I28J-2650025D01*
G01*
X126634872Y-45753075D02*
G75*
G03*
X126634872Y-51053125I28J-2650025D01*
G01*
X126634872Y-71153075D02*
G75*
G03*
X126634872Y-76453125I28J-2650025D01*
G01*
X126634872Y-96553075D02*
G75*
G03*
X126634872Y-101853125I28J-2650025D01*
G01*
X126634872Y-121953075D02*
G75*
G03*
X126634872Y-127253125I28J-2650025D01*
G01*
X126900030Y-144906311D02*
G75*
G03*
X126900030Y-139606289I-30J2650011D01*
G01*
X121600030Y-139606311D02*
G75*
G03*
X121600030Y-144906289I-30J-2649989D01*
G01*
X101500030Y-144906291D02*
G75*
G03*
X101500030Y-139606289I0J2650001D01*
G01*
X96200030Y-139606291D02*
G75*
G03*
X96200030Y-144906289I0J-2649999D01*
G01*
X70800030Y-139606291D02*
G75*
G03*
X70800030Y-144906289I0J-2649999D01*
G01*
X76100030Y-144906291D02*
G75*
G03*
X76100030Y-139606289I0J2650001D01*
G01*
X113004900Y-1112500D02*
G75*
G03*
X113004900Y-6412500I0J-2650000D01*
G01*
X118304900Y-6412500D02*
G75*
G03*
X118304900Y-1112500I0J2650000D01*
G01*
X87604900Y-1112500D02*
G75*
G03*
X87604900Y-6412500I0J-2650000D01*
G01*
X92904900Y-6412500D02*
G75*
G03*
X92904900Y-1112500I0J2650000D01*
G01*
X11404900Y-1112500D02*
G75*
G03*
X11404900Y-6412500I0J-2650000D01*
G01*
X16704900Y-6412500D02*
G75*
G03*
X16704900Y-1112500I0J2650000D01*
G01*
X36804900Y-1112500D02*
G75*
G03*
X36804900Y-6412500I0J-2650000D01*
G01*
X42104900Y-6412500D02*
G75*
G03*
X42104900Y-1112500I0J2650000D01*
G01*
X8109872Y-127253125D02*
G75*
G03*
X8109872Y-121953125I0J2650000D01*
G01*
X28209900Y-139606291D02*
G75*
G03*
X28209900Y-144906289I0J-2649999D01*
G01*
X33509900Y-144906291D02*
G75*
G03*
X33509900Y-139606289I0J2650001D01*
G01*
X53609900Y-139606311D02*
G75*
G03*
X53609900Y-144906289I0J-2649989D01*
G01*
X58909900Y-144906311D02*
G75*
G03*
X58909900Y-139606289I0J2650011D01*
G01*
X8109872Y-101853125D02*
G75*
G03*
X8109872Y-96553125I0J2650000D01*
G01*
X8109872Y-76453125D02*
G75*
G03*
X8109872Y-71153125I0J2650000D01*
G01*
X8109872Y-51053125D02*
G75*
G03*
X8109872Y-45753125I0J2650000D01*
G01*
X8109872Y-25653125D02*
G75*
G03*
X8109872Y-20353125I0J2650000D01*
G01*
X67504900Y-6412500D02*
G75*
G03*
X67504900Y-1112500I0J2650000D01*
G01*
X62204900Y-1112500D02*
G75*
G03*
X62204900Y-6412500I0J-2650000D01*
G01*
X4900000Y-127253120D02*
G75*
G03*
X-100000Y-132253125I0J-5000000D01*
G01*
X-99999Y-134606289D02*
G75*
G03*
X4900000Y-139606289I4999999J-1D01*
G01*
X10759901Y-140431289D02*
G75*
G03*
X15759900Y-145431289I4999999J-1D01*
G01*
X132819740Y-145431340D02*
G75*
G03*
X133819740Y-144431289I-40J1000040D01*
G01*
X133819675Y-132253125D02*
G75*
G03*
X128819740Y-127253125I-4999975J25D01*
G01*
X128819740Y-121953140D02*
G75*
G03*
X133819740Y-116953125I-40J5000040D01*
G01*
X133819675Y-106853125D02*
G75*
G03*
X128819740Y-101853125I-4999975J25D01*
G01*
X128819740Y-96553140D02*
G75*
G03*
X133819740Y-91553125I-40J5000040D01*
G01*
X133819675Y-81453125D02*
G75*
G03*
X128819740Y-76453125I-4999975J25D01*
G01*
X128819740Y-71153140D02*
G75*
G03*
X133819740Y-66153125I-40J5000040D01*
G01*
X133819675Y-56053125D02*
G75*
G03*
X128819740Y-51053125I-4999975J25D01*
G01*
X128819740Y-45753140D02*
G75*
G03*
X133819740Y-40753125I-40J5000040D01*
G01*
X133819675Y-30653125D02*
G75*
G03*
X128819740Y-25653125I-4999975J25D01*
G01*
X128819740Y-20353140D02*
G75*
G03*
X133819740Y-15353125I-40J5000040D01*
G01*
X133819700Y0D02*
G75*
G03*
X132819740Y1000000I-1000000J0D01*
G01*
X900000Y1000000D02*
G75*
G03*
X-100000Y0I0J-1000000D01*
G01*
X-100000Y-15353125D02*
G75*
G03*
X4900000Y-20353125I5000000J0D01*
G01*
X4900000Y-25653120D02*
G75*
G03*
X-100000Y-30653125I0J-5000000D01*
G01*
X-100000Y-40753125D02*
G75*
G03*
X4900000Y-45753125I5000000J0D01*
G01*
X4900000Y-51053120D02*
G75*
G03*
X-100000Y-56053125I0J-5000000D01*
G01*
X-100000Y-66153125D02*
G75*
G03*
X4900000Y-71153125I5000000J0D01*
G01*
X4900000Y-76453120D02*
G75*
G03*
X-100000Y-81453125I0J-5000000D01*
G01*
X-100000Y-91553125D02*
G75*
G03*
X4900000Y-96553125I5000000J0D01*
G01*
X4900000Y-101853120D02*
G75*
G03*
X-100000Y-106853125I0J-5000000D01*
G01*
X-100000Y-116953125D02*
G75*
G03*
X4900000Y-121953125I5000000J0D01*
G01*
X-100000Y-30653125D02*
X-100000Y-40753125D01*
X-100000Y0D02*
X-100000Y-15353125D01*
X-100000Y-56053125D02*
X-100000Y-66153125D01*
X-100000Y-81453125D02*
X-100000Y-91553125D01*
X-100000Y-106853125D02*
X-100000Y-116953125D01*
X128819740Y-25653125D02*
X126634872Y-25653125D01*
X128819740Y-51053125D02*
X126634872Y-51053125D01*
X128819740Y-76453125D02*
X126634872Y-76453125D01*
X128819740Y-101853125D02*
X126634872Y-101853125D01*
X128819740Y-121953125D02*
X126634872Y-121953125D01*
X126900030Y-144906289D02*
X121600030Y-144906289D01*
X101500030Y-144906289D02*
X96200030Y-144906289D01*
X76100030Y-139606289D02*
X70800030Y-139606289D01*
X118304900Y-1112500D02*
X113004900Y-1112500D01*
X92904900Y-1112500D02*
X87604900Y-1112500D01*
X16704900Y-1112500D02*
X11404900Y-1112500D01*
X42104900Y-1112500D02*
X36804900Y-1112500D01*
X8109872Y-121953125D02*
X4900000Y-121953125D01*
X10759900Y-139606289D02*
X4900000Y-139606289D01*
X33509900Y-139606289D02*
X28209900Y-139606289D01*
X58909900Y-139606289D02*
X53609900Y-139606289D01*
X8109872Y-101853125D02*
X4900000Y-101853125D01*
X8109872Y-76453125D02*
X4900000Y-76453125D01*
X8109872Y-51053125D02*
X4900000Y-51053125D01*
X8109872Y-25653125D02*
X4900000Y-25653125D01*
X15759900Y-145431289D02*
X132819740Y-145431289D01*
X900000Y1000000D02*
X132819740Y1000000D01*
X67504900Y-1112500D02*
X62204900Y-1112500D01*
X67504900Y-6412500D02*
X62204900Y-6412500D01*
X128819740Y-45753125D02*
X126634872Y-45753125D01*
X128819740Y-71153125D02*
X126634872Y-71153125D01*
X128819740Y-96553125D02*
X126634872Y-96553125D01*
X128819740Y-127253125D02*
X126634872Y-127253125D01*
X126900030Y-139606289D02*
X121600030Y-139606289D01*
X101500030Y-139606289D02*
X96200030Y-139606289D01*
X76100030Y-144906289D02*
X70800030Y-144906289D01*
X118304900Y-6412500D02*
X113004900Y-6412500D01*
X92904900Y-6412500D02*
X87604900Y-6412500D01*
X16704900Y-6412500D02*
X11404900Y-6412500D01*
X42104900Y-6412500D02*
X36804900Y-6412500D01*
X8109872Y-127253125D02*
X4900000Y-127253125D01*
X33509900Y-144906289D02*
X28209900Y-144906289D01*
X58909900Y-144906289D02*
X53609900Y-144906289D01*
X8109872Y-96553125D02*
X4900000Y-96553125D01*
X8109872Y-71153125D02*
X4900000Y-71153125D01*
X8109872Y-45753125D02*
X4900000Y-45753125D01*
X8109872Y-20353125D02*
X4900000Y-20353125D01*
X-100000Y-132253125D02*
X-100000Y-134606289D01*
X128819740Y-20353125D02*
X126634872Y-20353125D01*
X10759900Y-140431289D02*
X10759900Y-139606289D01*
X133819740Y-132253125D02*
X133819740Y-144431289D01*
X133819740Y-106853125D02*
X133819740Y-116953125D01*
X133819740Y-81453125D02*
X133819740Y-91553125D01*
X133819740Y-56053125D02*
X133819740Y-66153125D01*
X133819740Y-30653125D02*
X133819740Y-40753125D01*
X133819740Y0D02*
X133819740Y-15353125D01*
X72659870Y-72215645D02*
G75*
G03*
X72659870Y-72215645I-5250000J0D01*
G01*
M02*
