%TF.GenerationSoftware,KiCad,Pcbnew,7.0.2*%
%TF.CreationDate,2023-11-03T12:42:45-06:00*%
%TF.ProjectId,KF50_DB25_PinHeader,4b463530-5f44-4423-9235-5f50696e4865,rev?*%
%TF.SameCoordinates,Original*%
%TF.FileFunction,Copper,L2,Inr*%
%TF.FilePolarity,Positive*%
%FSLAX46Y46*%
G04 Gerber Fmt 4.6, Leading zero omitted, Abs format (unit mm)*
G04 Created by KiCad (PCBNEW 7.0.2) date 2023-11-03 12:42:45*
%MOMM*%
%LPD*%
G01*
G04 APERTURE LIST*
%TA.AperFunction,ComponentPad*%
%ADD10C,10.000000*%
%TD*%
%TA.AperFunction,ComponentPad*%
%ADD11O,1.700000X1.700000*%
%TD*%
%TA.AperFunction,ComponentPad*%
%ADD12R,1.700000X1.700000*%
%TD*%
%TA.AperFunction,ComponentPad*%
%ADD13C,5.000000*%
%TD*%
%TA.AperFunction,ComponentPad*%
%ADD14C,1.800000*%
%TD*%
%TA.AperFunction,ComponentPad*%
%ADD15R,1.800000X1.800000*%
%TD*%
%TA.AperFunction,Conductor*%
%ADD16C,0.250000*%
%TD*%
G04 APERTURE END LIST*
D10*
%TO.N,GND*%
%TO.C,H8*%
X38341001Y15881362D03*
%TD*%
%TO.N,GND*%
%TO.C,H7*%
X38341001Y-15881362D03*
%TD*%
D11*
%TO.N,Net-(J1-P25)*%
%TO.C,J8*%
X-15000000Y-40000D03*
D12*
%TO.N,Net-(J8-Pin_1)*%
X-15000000Y2500000D03*
%TD*%
D11*
%TO.N,Net-(J1-P24)*%
%TO.C,J7*%
X-10400000Y-40000D03*
D12*
%TO.N,Net-(J7-Pin_1)*%
X-10400000Y2500000D03*
%TD*%
D11*
%TO.N,Net-(J1-P23)*%
%TO.C,J6*%
X-5800000Y-5120000D03*
%TO.N,Net-(J6-Pin_3)*%
X-5800000Y-2580000D03*
%TO.N,Net-(J1-P22)*%
X-5800000Y-40000D03*
D12*
%TO.N,Net-(J6-Pin_1)*%
X-5800000Y2500000D03*
%TD*%
D11*
%TO.N,Net-(J1-P21)*%
%TO.C,J5*%
X-1200000Y-5120000D03*
%TO.N,Net-(J5-Pin_3)*%
X-1200000Y-2580000D03*
%TO.N,Net-(J1-P20)*%
X-1200000Y-40000D03*
D12*
%TO.N,Net-(J5-Pin_1)*%
X-1200000Y2500000D03*
%TD*%
D11*
%TO.N,Net-(J1-P19)*%
%TO.C,J4*%
X3400000Y-5120000D03*
%TO.N,Net-(J4-Pin_3)*%
X3400000Y-2580000D03*
%TO.N,Net-(J1-P18)*%
X3400000Y-40000D03*
D12*
%TO.N,Net-(J4-Pin_1)*%
X3400000Y2500000D03*
%TD*%
D11*
%TO.N,Net-(J1-P17)*%
%TO.C,J3*%
X8000000Y-5120000D03*
%TO.N,Net-(J3-Pin_3)*%
X8000000Y-2580000D03*
%TO.N,Net-(J1-P16)*%
X8000000Y-40000D03*
D12*
%TO.N,Net-(J3-Pin_1)*%
X8000000Y2500000D03*
%TD*%
D11*
%TO.N,Net-(J1-P15)*%
%TO.C,J2*%
X12600000Y-5120000D03*
%TO.N,Net-(J2-Pin_3)*%
X12600000Y-2580000D03*
%TO.N,Net-(J1-P14)*%
X12600000Y-40000D03*
D12*
%TO.N,Net-(J2-Pin_1)*%
X12600000Y2500000D03*
%TD*%
D13*
%TO.N,N/C*%
%TO.C,J1*%
X-23520000Y65080000D03*
X23520000Y65080000D03*
D14*
%TO.N,Net-(J1-P25)*%
X-15235000Y66500000D03*
%TO.N,Net-(J1-P24)*%
X-12465000Y66500000D03*
%TO.N,Net-(J1-P23)*%
X-9695000Y66500000D03*
%TO.N,Net-(J1-P22)*%
X-6925000Y66500000D03*
%TO.N,Net-(J1-P21)*%
X-4155000Y66500000D03*
%TO.N,Net-(J1-P20)*%
X-1385000Y66500000D03*
%TO.N,Net-(J1-P19)*%
X1385000Y66500000D03*
%TO.N,Net-(J1-P18)*%
X4155000Y66500000D03*
%TO.N,Net-(J1-P17)*%
X6925000Y66500000D03*
%TO.N,Net-(J1-P16)*%
X9695000Y66500000D03*
%TO.N,Net-(J1-P15)*%
X12465000Y66500000D03*
%TO.N,Net-(J1-P14)*%
X15235000Y66500000D03*
%TO.N,unconnected-(J1-Pad13)*%
X-16620000Y63660000D03*
%TO.N,Net-(J8-Pin_1)*%
X-13850000Y63660000D03*
%TO.N,Net-(J7-Pin_1)*%
X-11080000Y63660000D03*
%TO.N,Net-(J6-Pin_3)*%
X-8310000Y63660000D03*
%TO.N,Net-(J6-Pin_1)*%
X-5540000Y63660000D03*
%TO.N,Net-(J5-Pin_3)*%
X-2770000Y63660000D03*
%TO.N,Net-(J5-Pin_1)*%
X0Y63660000D03*
%TO.N,Net-(J4-Pin_3)*%
X2770000Y63660000D03*
%TO.N,Net-(J4-Pin_1)*%
X5540000Y63660000D03*
%TO.N,Net-(J3-Pin_3)*%
X8310000Y63660000D03*
%TO.N,Net-(J3-Pin_1)*%
X11080000Y63660000D03*
%TO.N,Net-(J2-Pin_3)*%
X13850000Y63660000D03*
D15*
%TO.N,Net-(J2-Pin_1)*%
X16620000Y63660000D03*
%TD*%
D10*
%TO.N,GND*%
%TO.C,H6*%
X15881362Y38341001D03*
%TD*%
%TO.N,GND*%
%TO.C,H5*%
X-15881362Y-38341001D03*
%TD*%
%TO.N,GND*%
%TO.C,H4*%
X15881362Y-38341001D03*
%TD*%
%TO.N,GND*%
%TO.C,H3*%
X-38341001Y-15881362D03*
%TD*%
%TO.N,GND*%
%TO.C,H2*%
X-38341001Y15881362D03*
%TD*%
%TO.N,GND*%
%TO.C,H1*%
X-15881362Y38341001D03*
%TD*%
D16*
%TO.N,Net-(J2-Pin_1)*%
X22852800Y44821200D02*
X16620000Y51054000D01*
X12598400Y23646004D02*
X22852800Y33900404D01*
X22852800Y33900404D02*
X22852800Y44821200D01*
X12600000Y13850000D02*
X12598400Y13851600D01*
X12598400Y13851600D02*
X12598400Y23646004D01*
X16620000Y63660000D02*
X16620000Y51054000D01*
X12600000Y2500000D02*
X12600000Y13850000D01*
%TO.N,Net-(J1-P14)*%
X15235000Y50235000D02*
X15235000Y66500000D01*
X22402800Y43067200D02*
X15235000Y50235000D01*
X22402800Y34086800D02*
X22402800Y43067200D01*
X11425000Y1135000D02*
X11425000Y23109000D01*
X12600000Y-40000D02*
X11425000Y1135000D01*
X11425000Y23109000D02*
X22402800Y34086800D01*
%TO.N,Net-(J1-P25)*%
X-16175000Y1135000D02*
X-15000000Y-40000D01*
X-23854400Y44211996D02*
X-23854400Y34696012D01*
X-15235000Y52831396D02*
X-23854400Y44211996D01*
X-16175000Y27016612D02*
X-16175000Y1135000D01*
X-15235000Y66500000D02*
X-15235000Y52831396D01*
X-23854400Y34696012D02*
X-16175000Y27016612D01*
%TO.N,Net-(J8-Pin_1)*%
X-23404400Y44025600D02*
X-13850000Y53580000D01*
X-13850000Y53580000D02*
X-13850000Y63660000D01*
X-23404400Y34882408D02*
X-23404400Y44025600D01*
X-15000000Y26478008D02*
X-23404400Y34882408D01*
X-15000000Y2500000D02*
X-15000000Y26478008D01*
%TO.N,Net-(J1-P24)*%
X-22954400Y42299596D02*
X-12305000Y52948996D01*
X-22954400Y35068804D02*
X-22954400Y42299596D01*
X-12305000Y66340000D02*
X-12465000Y66500000D01*
X-12465000Y24579404D02*
X-22954400Y35068804D01*
X-12305000Y52948996D02*
X-12305000Y66340000D01*
X-12465000Y2025000D02*
X-12465000Y24579404D01*
X-10400000Y-40000D02*
X-12465000Y2025000D01*
%TO.N,Net-(J7-Pin_1)*%
X-10400000Y23150800D02*
X-10400000Y2500000D01*
X-15544800Y28295600D02*
X-10400000Y23150800D01*
X-11080000Y53537600D02*
X-22504400Y42113200D01*
X-22504400Y35255200D02*
X-15544800Y28295600D01*
X-11080000Y63660000D02*
X-11080000Y53537600D01*
X-22504400Y42113200D02*
X-22504400Y35255200D01*
%TO.N,Net-(J3-Pin_1)*%
X11080000Y52423604D02*
X11080000Y63660000D01*
X8950000Y50293604D02*
X11080000Y52423604D01*
X8950000Y8404416D02*
X8950000Y50293604D01*
X8000000Y2500000D02*
X8000000Y7454416D01*
X8000000Y7454416D02*
X8950000Y8404416D01*
%TO.N,Net-(J1-P16)*%
X9695000Y51675000D02*
X9695000Y66500000D01*
X8500000Y50480000D02*
X9695000Y51675000D01*
X5900000Y5990812D02*
X8500000Y8590812D01*
X8500000Y8590812D02*
X8500000Y50480000D01*
X5900000Y500000D02*
X5900000Y5990812D01*
X8000000Y-40000D02*
X6440000Y-40000D01*
X6440000Y-40000D02*
X5900000Y500000D01*
%TO.N,Net-(J3-Pin_3)*%
X7950000Y8677208D02*
X7950000Y50813604D01*
X8310000Y51173604D02*
X8310000Y63660000D01*
X5450000Y6177208D02*
X7950000Y8677208D01*
X7950000Y50813604D02*
X8310000Y51173604D01*
X5450000Y-1450000D02*
X5450000Y6177208D01*
X6580000Y-2580000D02*
X5450000Y-1450000D01*
X8000000Y-2580000D02*
X6580000Y-2580000D01*
%TO.N,Net-(J1-P17)*%
X6925000Y50425000D02*
X6925000Y66500000D01*
X7500000Y8863604D02*
X7500000Y49850000D01*
X5000000Y6363604D02*
X7500000Y8863604D01*
X5000000Y-2120000D02*
X5000000Y6363604D01*
X8000000Y-5120000D02*
X5000000Y-2120000D01*
X7500000Y49850000D02*
X6925000Y50425000D01*
%TO.N,Net-(J4-Pin_1)*%
X6900000Y46826396D02*
X5540000Y48186396D01*
X6900000Y8900000D02*
X6900000Y46826396D01*
X3400000Y5400000D02*
X6900000Y8900000D01*
X3400000Y2500000D02*
X3400000Y5400000D01*
X5540000Y48186396D02*
X5540000Y63660000D01*
%TO.N,Net-(J1-P18)*%
X1044536Y500000D02*
X1584536Y-40000D01*
X6450000Y9124532D02*
X1044536Y3719068D01*
X1044536Y3719068D02*
X1044536Y500000D01*
X1584536Y-40000D02*
X3400000Y-40000D01*
X4155000Y48935000D02*
X6450000Y46640000D01*
X4155000Y66500000D02*
X4155000Y48935000D01*
X6450000Y46640000D02*
X6450000Y9124532D01*
%TO.N,Net-(J4-Pin_3)*%
X6000000Y45500000D02*
X2770000Y48730000D01*
X2770000Y48730000D02*
X2770000Y63660000D01*
X6000000Y9310928D02*
X6000000Y45500000D01*
X594536Y-2174536D02*
X594536Y3905464D01*
X594536Y3905464D02*
X6000000Y9310928D01*
X1000000Y-2580000D02*
X594536Y-2174536D01*
X3400000Y-2580000D02*
X1000000Y-2580000D01*
%TO.N,Net-(J2-Pin_3)*%
X9950000Y70000D02*
X12600000Y-2580000D01*
X9950000Y48313604D02*
X9950000Y70000D01*
X13850000Y52213604D02*
X9950000Y48313604D01*
X13850000Y63660000D02*
X13850000Y52213604D01*
%TO.N,Net-(J1-P15)*%
X9500000Y-4500000D02*
X10120000Y-5120000D01*
X10120000Y-5120000D02*
X12600000Y-5120000D01*
X12465000Y51535000D02*
X12500000Y51500000D01*
X12500000Y51500000D02*
X9500000Y48500000D01*
X12465000Y66500000D02*
X12465000Y51535000D01*
X9500000Y48500000D02*
X9500000Y-4500000D01*
%TO.N,Net-(J1-P19)*%
X2120000Y-5120000D02*
X3400000Y-5120000D01*
X144536Y-3144536D02*
X2120000Y-5120000D01*
X-2581510Y4918490D02*
X-1268490Y4918490D01*
X-6095000Y45752588D02*
X-6095000Y8431980D01*
X1385000Y53232588D02*
X-6095000Y45752588D01*
X1385000Y66500000D02*
X1385000Y53232588D01*
X-6095000Y8431980D02*
X-2581510Y4918490D01*
X-1268490Y4918490D02*
X144536Y3505464D01*
X144536Y3505464D02*
X144536Y-3144536D01*
%TO.N,Net-(J5-Pin_1)*%
X0Y53113020D02*
X0Y63660000D01*
X-6545000Y8245584D02*
X-6545000Y46568020D01*
X-1200000Y2500000D02*
X-1200000Y2900584D01*
X-1200000Y2900584D02*
X-6545000Y8245584D01*
X-6545000Y46568020D02*
X0Y53113020D01*
%TO.N,Net-(J1-P20)*%
X-2560000Y-40000D02*
X-1200000Y-40000D01*
X-6995000Y46754416D02*
X-6995000Y8059188D01*
X-1385000Y52364416D02*
X-6995000Y46754416D01*
X-1385000Y66500000D02*
X-1385000Y52364416D01*
X-6995000Y8059188D02*
X-3600000Y4664188D01*
X-3600000Y4664188D02*
X-3600000Y1000000D01*
X-3600000Y1000000D02*
X-2560000Y-40000D01*
%TO.N,Net-(J5-Pin_3)*%
X-7445000Y46940812D02*
X-2770000Y51615812D01*
X-7445000Y7872792D02*
X-7445000Y46940812D01*
X-4050000Y4477792D02*
X-7445000Y7872792D01*
X-4050000Y-1950000D02*
X-4050000Y4477792D01*
X-3420000Y-2580000D02*
X-4050000Y-1950000D01*
X-1200000Y-2580000D02*
X-3420000Y-2580000D01*
X-2770000Y51615812D02*
X-2770000Y63660000D01*
%TO.N,Net-(J1-P21)*%
X-4500000Y-4000000D02*
X-3380000Y-5120000D01*
X-7895000Y47127208D02*
X-7895000Y7686396D01*
X-3380000Y-5120000D02*
X-1200000Y-5120000D01*
X-4155000Y50867208D02*
X-7895000Y47127208D01*
X-4155000Y66500000D02*
X-4155000Y50867208D01*
X-7895000Y7686396D02*
X-4500000Y4291396D01*
X-4500000Y4291396D02*
X-4500000Y-4000000D01*
%TO.N,Net-(J6-Pin_1)*%
X-8345000Y7500000D02*
X-8345000Y47313604D01*
X-8345000Y47313604D02*
X-5540000Y50118604D01*
X-5540000Y50118604D02*
X-5540000Y63660000D01*
X-5800000Y2500000D02*
X-5800000Y4955000D01*
X-5800000Y4955000D02*
X-8345000Y7500000D01*
%TO.N,Net-(J1-P22)*%
X-7600000Y1760000D02*
X-5800000Y-40000D01*
X-8795000Y4686396D02*
X-7600000Y3491396D01*
X-7600000Y3491396D02*
X-7600000Y1760000D01*
X-8795000Y47500000D02*
X-8795000Y4686396D01*
X-6925000Y49370000D02*
X-8795000Y47500000D01*
X-6925000Y66500000D02*
X-6925000Y49370000D01*
%TO.N,Net-(J6-Pin_3)*%
X-8310000Y53580000D02*
X-8310000Y63660000D01*
X-9245000Y52645000D02*
X-8310000Y53580000D01*
X-8050000Y-2000000D02*
X-8050000Y3305000D01*
X-7470000Y-2580000D02*
X-8050000Y-2000000D01*
X-8050000Y3305000D02*
X-9245000Y4500000D01*
X-5800000Y-2580000D02*
X-7470000Y-2580000D01*
X-9245000Y4500000D02*
X-9245000Y52645000D01*
%TO.N,Net-(J1-P23)*%
X-7380000Y-5120000D02*
X-5800000Y-5120000D01*
X-8500000Y-4000000D02*
X-7380000Y-5120000D01*
X-9695000Y4145000D02*
X-8500000Y2950000D01*
X-9695000Y66500000D02*
X-9695000Y4145000D01*
X-8500000Y2950000D02*
X-8500000Y-4000000D01*
%TO.N,Net-(J7-Pin_1)*%
X-10400000Y2500000D02*
X-11080000Y3180000D01*
%TD*%
%TA.AperFunction,Conductor*%
%TO.N,GND*%
G36*
X14574673Y51896189D02*
G01*
X14607101Y51834300D01*
X14609500Y51810025D01*
X14609500Y50317744D01*
X14607235Y50297239D01*
X14609438Y50227124D01*
X14609499Y50223235D01*
X14609499Y50199539D01*
X14609499Y50199525D01*
X14609500Y50195650D01*
X14609987Y50191791D01*
X14609988Y50191779D01*
X14610004Y50191653D01*
X14610918Y50180033D01*
X14612290Y50136369D01*
X14617880Y50117129D01*
X14621825Y50098081D01*
X14624335Y50078209D01*
X14640413Y50037599D01*
X14644194Y50026554D01*
X14656381Y49984610D01*
X14666579Y49967365D01*
X14675133Y49949904D01*
X14682512Y49931267D01*
X14708185Y49895931D01*
X14714595Y49886174D01*
X14736829Y49848580D01*
X14750996Y49834413D01*
X14763626Y49819624D01*
X14775404Y49803413D01*
X14809058Y49775572D01*
X14817697Y49767711D01*
X21740981Y42844428D01*
X21774466Y42783105D01*
X21777300Y42756747D01*
X21777300Y34397252D01*
X21757615Y34330213D01*
X21740981Y34309571D01*
X11041211Y23609802D01*
X11025113Y23596906D01*
X10977098Y23545775D01*
X10974387Y23542978D01*
X10954880Y23523471D01*
X10952490Y23520390D01*
X10952412Y23520290D01*
X10944837Y23511422D01*
X10914938Y23479582D01*
X10911532Y23473386D01*
X10905288Y23462028D01*
X10894604Y23445764D01*
X10882327Y23429936D01*
X10864980Y23389851D01*
X10859841Y23379361D01*
X10838802Y23341091D01*
X10833821Y23321691D01*
X10827519Y23303284D01*
X10813342Y23270522D01*
X10808862Y23272460D01*
X10792067Y23237007D01*
X10732765Y23200059D01*
X10662902Y23201038D01*
X10604659Y23239632D01*
X10576527Y23303588D01*
X10575500Y23319514D01*
X10575500Y36153010D01*
X10595185Y36220049D01*
X10647989Y36265804D01*
X10717147Y36275748D01*
X10780703Y36246723D01*
X10814558Y36199244D01*
X10864102Y36075947D01*
X10866271Y36071150D01*
X11074269Y35658609D01*
X11076831Y35654022D01*
X11319069Y35260603D01*
X11322017Y35256242D01*
X11596745Y34884784D01*
X11600038Y34880705D01*
X11818871Y34632063D01*
X13942781Y36755973D01*
X13951270Y36744290D01*
X14166611Y36514976D01*
X14299201Y36405287D01*
X12171927Y34278013D01*
X12171927Y34278012D01*
X12242476Y34210398D01*
X12246423Y34206924D01*
X12605864Y33916696D01*
X12610125Y33913545D01*
X12992896Y33654836D01*
X12997360Y33652088D01*
X13400700Y33426768D01*
X13405419Y33424389D01*
X13826402Y33234093D01*
X13831282Y33232132D01*
X14266903Y33078217D01*
X14271930Y33076677D01*
X14719031Y32960262D01*
X14724182Y32959152D01*
X15179543Y32881073D01*
X15184751Y32880406D01*
X15645100Y32841224D01*
X15650356Y32841001D01*
X16112368Y32841001D01*
X16117623Y32841224D01*
X16577972Y32880406D01*
X16583180Y32881073D01*
X17038541Y32959152D01*
X17043692Y32960262D01*
X17490793Y33076677D01*
X17495820Y33078217D01*
X17931441Y33232132D01*
X17936321Y33234093D01*
X18357304Y33424389D01*
X18362023Y33426768D01*
X18765363Y33652088D01*
X18769827Y33654836D01*
X19152598Y33913545D01*
X19156859Y33916696D01*
X19516287Y34206914D01*
X19520259Y34210409D01*
X19590796Y34278013D01*
X17463522Y36405287D01*
X17596113Y36514976D01*
X17811454Y36744290D01*
X17819941Y36755972D01*
X19943851Y34632063D01*
X20162675Y34880695D01*
X20165985Y34884794D01*
X20440706Y35256242D01*
X20443654Y35260603D01*
X20685892Y35654022D01*
X20688454Y35658609D01*
X20896452Y36071150D01*
X20898621Y36075947D01*
X21070885Y36504643D01*
X21072631Y36509584D01*
X21207920Y36951349D01*
X21209249Y36956453D01*
X21306584Y37408089D01*
X21307471Y37413262D01*
X21366155Y37871538D01*
X21366601Y37876783D01*
X21386210Y38338364D01*
X21386210Y38343637D01*
X21366601Y38805218D01*
X21366155Y38810463D01*
X21307471Y39268739D01*
X21306584Y39273912D01*
X21209249Y39725548D01*
X21207920Y39730652D01*
X21072631Y40172417D01*
X21070885Y40177358D01*
X20898621Y40606054D01*
X20896452Y40610851D01*
X20688454Y41023392D01*
X20685892Y41027979D01*
X20443654Y41421398D01*
X20440706Y41425759D01*
X20165985Y41797207D01*
X20162675Y41801306D01*
X19943852Y42049938D01*
X19943851Y42049938D01*
X17819942Y39926029D01*
X17811454Y39937712D01*
X17596113Y40167026D01*
X17463522Y40276714D01*
X19590796Y42403988D01*
X19520246Y42471604D01*
X19516301Y42475076D01*
X19156859Y42765305D01*
X19152598Y42768456D01*
X18769827Y43027165D01*
X18765363Y43029913D01*
X18362023Y43255233D01*
X18357304Y43257612D01*
X17936321Y43447908D01*
X17931441Y43449869D01*
X17495820Y43603784D01*
X17490793Y43605324D01*
X17043692Y43721739D01*
X17038541Y43722849D01*
X16583180Y43800928D01*
X16577972Y43801595D01*
X16117623Y43840777D01*
X16112368Y43841001D01*
X15650356Y43841001D01*
X15645100Y43840777D01*
X15184751Y43801595D01*
X15179543Y43800928D01*
X14724182Y43722849D01*
X14719031Y43721739D01*
X14271930Y43605324D01*
X14266903Y43603784D01*
X13831282Y43449869D01*
X13826402Y43447908D01*
X13405419Y43257612D01*
X13400700Y43255233D01*
X12997360Y43029913D01*
X12992896Y43027165D01*
X12610125Y42768456D01*
X12605864Y42765305D01*
X12246436Y42475087D01*
X12242464Y42471592D01*
X12171926Y42403988D01*
X14299200Y40276713D01*
X14166611Y40167026D01*
X13951270Y39937712D01*
X13942780Y39926027D01*
X11818871Y42049937D01*
X11600048Y41801306D01*
X11596738Y41797207D01*
X11322017Y41425759D01*
X11319069Y41421398D01*
X11076831Y41027979D01*
X11074269Y41023392D01*
X10866271Y40610851D01*
X10864102Y40606054D01*
X10814558Y40482757D01*
X10771297Y40427891D01*
X10705241Y40405124D01*
X10637362Y40421684D01*
X10589211Y40472313D01*
X10575500Y40528991D01*
X10575500Y48003151D01*
X10595185Y48070190D01*
X10611819Y48090832D01*
X14233787Y51712800D01*
X14249888Y51725700D01*
X14297900Y51776827D01*
X14300611Y51779624D01*
X14317366Y51796379D01*
X14320120Y51799133D01*
X14322587Y51802313D01*
X14330155Y51811175D01*
X14360062Y51843022D01*
X14369712Y51860576D01*
X14380398Y51876843D01*
X14387523Y51886028D01*
X14444167Y51926933D01*
X14513934Y51930721D01*
X14574673Y51896189D01*
G37*
%TD.AperFunction*%
%TA.AperFunction,Conductor*%
G36*
X-10355335Y53220192D02*
G01*
X-10322901Y53158306D01*
X-10320500Y53134020D01*
X-10320500Y39793939D01*
X-10340185Y39726900D01*
X-10392989Y39681145D01*
X-10462147Y39671201D01*
X-10525703Y39700226D01*
X-10563065Y39757629D01*
X-10690092Y40172417D01*
X-10691838Y40177358D01*
X-10864102Y40606054D01*
X-10866271Y40610851D01*
X-11074269Y41023392D01*
X-11076831Y41027979D01*
X-11319069Y41421398D01*
X-11322017Y41425759D01*
X-11596738Y41797207D01*
X-11600048Y41801306D01*
X-11818871Y42049937D01*
X-13942780Y39926027D01*
X-13951270Y39937712D01*
X-14166611Y40167026D01*
X-14299200Y40276713D01*
X-12171926Y42403988D01*
X-12242464Y42471592D01*
X-12246436Y42475087D01*
X-12605864Y42765305D01*
X-12610125Y42768456D01*
X-12992896Y43027165D01*
X-12997360Y43029913D01*
X-13400700Y43255233D01*
X-13405419Y43257612D01*
X-13826402Y43447908D01*
X-13831282Y43449869D01*
X-14266903Y43603784D01*
X-14271930Y43605324D01*
X-14719031Y43721739D01*
X-14724182Y43722849D01*
X-15179543Y43800928D01*
X-15184751Y43801595D01*
X-15645100Y43840777D01*
X-15650356Y43841001D01*
X-16112368Y43841001D01*
X-16117623Y43840777D01*
X-16577972Y43801595D01*
X-16583180Y43800928D01*
X-17038541Y43722849D01*
X-17043692Y43721739D01*
X-17490793Y43605324D01*
X-17495820Y43603784D01*
X-17931441Y43449869D01*
X-17936321Y43447908D01*
X-18357304Y43257612D01*
X-18362023Y43255233D01*
X-18765363Y43029913D01*
X-18769827Y43027165D01*
X-19152598Y42768456D01*
X-19156859Y42765305D01*
X-19516301Y42475076D01*
X-19520246Y42471604D01*
X-19590796Y42403988D01*
X-17463522Y40276714D01*
X-17596113Y40167026D01*
X-17811454Y39937712D01*
X-17819942Y39926028D01*
X-19943852Y42049938D01*
X-20162675Y41801306D01*
X-20165985Y41797207D01*
X-20440706Y41425759D01*
X-20443654Y41421398D01*
X-20685892Y41027979D01*
X-20688454Y41023392D01*
X-20896452Y40610851D01*
X-20898621Y40606054D01*
X-21070885Y40177358D01*
X-21072631Y40172417D01*
X-21207920Y39730652D01*
X-21209249Y39725548D01*
X-21306584Y39273912D01*
X-21307471Y39268739D01*
X-21366155Y38810463D01*
X-21366601Y38805218D01*
X-21386210Y38343637D01*
X-21386210Y38338364D01*
X-21366601Y37876783D01*
X-21366155Y37871538D01*
X-21307471Y37413262D01*
X-21306584Y37408089D01*
X-21209249Y36956453D01*
X-21207920Y36951349D01*
X-21072631Y36509584D01*
X-21070885Y36504643D01*
X-20898621Y36075947D01*
X-20896452Y36071150D01*
X-20688454Y35658609D01*
X-20685892Y35654022D01*
X-20443654Y35260603D01*
X-20440706Y35256242D01*
X-20165985Y34884794D01*
X-20162675Y34880695D01*
X-19943851Y34632063D01*
X-17819941Y36755972D01*
X-17811454Y36744290D01*
X-17596113Y36514976D01*
X-17463522Y36405287D01*
X-19590796Y34278013D01*
X-19520259Y34210409D01*
X-19516287Y34206914D01*
X-19156859Y33916696D01*
X-19152598Y33913545D01*
X-18769827Y33654836D01*
X-18765363Y33652088D01*
X-18362023Y33426768D01*
X-18357304Y33424389D01*
X-17936321Y33234093D01*
X-17931441Y33232132D01*
X-17495820Y33078217D01*
X-17490793Y33076677D01*
X-17043692Y32960262D01*
X-17038541Y32959152D01*
X-16583180Y32881073D01*
X-16577972Y32880406D01*
X-16117623Y32841224D01*
X-16112368Y32841001D01*
X-15650356Y32841001D01*
X-15645100Y32841224D01*
X-15184751Y32880406D01*
X-15179543Y32881073D01*
X-14724182Y32959152D01*
X-14719031Y32960262D01*
X-14271930Y33076677D01*
X-14266903Y33078217D01*
X-13831282Y33232132D01*
X-13826402Y33234093D01*
X-13405419Y33424389D01*
X-13400700Y33426768D01*
X-12997360Y33652088D01*
X-12992896Y33654836D01*
X-12610125Y33913545D01*
X-12605864Y33916696D01*
X-12246423Y34206924D01*
X-12242476Y34210398D01*
X-12171927Y34278012D01*
X-12171927Y34278013D01*
X-14299201Y36405287D01*
X-14166611Y36514976D01*
X-13951270Y36744290D01*
X-13942781Y36755973D01*
X-11818871Y34632063D01*
X-11600038Y34880705D01*
X-11596745Y34884784D01*
X-11322017Y35256242D01*
X-11319069Y35260603D01*
X-11076831Y35654022D01*
X-11074269Y35658609D01*
X-10866271Y36071150D01*
X-10864102Y36075947D01*
X-10691838Y36504643D01*
X-10690092Y36509584D01*
X-10563065Y36924372D01*
X-10524612Y36982709D01*
X-10460725Y37010996D01*
X-10391686Y37000252D01*
X-10339415Y36953889D01*
X-10320500Y36888062D01*
X-10320500Y24255252D01*
X-10340185Y24188213D01*
X-10392989Y24142458D01*
X-10462147Y24132514D01*
X-10525703Y24161539D01*
X-10532181Y24167571D01*
X-15136553Y28771945D01*
X-15136567Y28771957D01*
X-18291667Y31927057D01*
X-21842582Y35477972D01*
X-21876066Y35539293D01*
X-21878900Y35565651D01*
X-21878900Y41802746D01*
X-21859215Y41869785D01*
X-21842581Y41890427D01*
X-10696208Y53036799D01*
X-10680110Y53049696D01*
X-10632096Y53100825D01*
X-10629392Y53103616D01*
X-10612628Y53120380D01*
X-10612621Y53120387D01*
X-10609880Y53123129D01*
X-10607499Y53126197D01*
X-10607490Y53126208D01*
X-10607411Y53126311D01*
X-10599842Y53135172D01*
X-10569935Y53167020D01*
X-10560285Y53184574D01*
X-10549610Y53200826D01*
X-10542484Y53210014D01*
X-10485844Y53250925D01*
X-10416077Y53254719D01*
X-10355335Y53220192D01*
G37*
%TD.AperFunction*%
%TA.AperFunction,Conductor*%
G36*
X27442539Y74655815D02*
G01*
X27488294Y74603011D01*
X27499500Y74551500D01*
X27499500Y38769588D01*
X27495110Y38754639D01*
X27499512Y38728471D01*
X27502839Y38725662D01*
X27511615Y38720709D01*
X28603906Y37921186D01*
X28606762Y37919032D01*
X29685787Y37080371D01*
X29688579Y37078136D01*
X30742981Y36208688D01*
X30745708Y36206372D01*
X31774579Y35306883D01*
X31777237Y35304490D01*
X32727959Y34423671D01*
X32781126Y34374338D01*
X32783645Y34371934D01*
X33632460Y33538763D01*
X33761660Y33411711D01*
X33764095Y33409249D01*
X34536608Y32605929D01*
X34713905Y32421163D01*
X34716254Y32418646D01*
X35428500Y31633896D01*
X35637107Y31403475D01*
X35639369Y31400907D01*
X36301712Y30627439D01*
X36530455Y30359554D01*
X36532629Y30356937D01*
X37151614Y29590411D01*
X37393292Y29290158D01*
X37395376Y29287496D01*
X37975786Y28524734D01*
X38224787Y28196315D01*
X38226780Y28193610D01*
X38772070Y27432403D01*
X39024346Y27078811D01*
X39026249Y27076066D01*
X39538979Y26314853D01*
X39791195Y25938724D01*
X39793007Y25935942D01*
X40275198Y25173491D01*
X40524755Y24776921D01*
X40526475Y24774106D01*
X40979628Y24009613D01*
X41224418Y23594364D01*
X41226045Y23591518D01*
X41651212Y22824638D01*
X41889573Y22392083D01*
X41891108Y22389209D01*
X42289086Y21619844D01*
X42519696Y21171025D01*
X42521138Y21168126D01*
X42892802Y20395825D01*
X43114203Y19932322D01*
X43115552Y19929401D01*
X43461558Y19153936D01*
X43672648Y18676911D01*
X43673903Y18673972D01*
X43994587Y17895670D01*
X44194543Y17405887D01*
X44195705Y17402931D01*
X44491480Y16621846D01*
X44679453Y16120302D01*
X44680523Y16117333D01*
X44951689Y15333700D01*
X45126986Y14821207D01*
X45127963Y14818228D01*
X45374818Y14032174D01*
X45536734Y13509779D01*
X45537619Y13506793D01*
X45760380Y12718616D01*
X45908396Y12186994D01*
X45909189Y12184004D01*
X46107994Y11394217D01*
X46241647Y10853990D01*
X46242348Y10850998D01*
X46417372Y10059957D01*
X46536195Y9511944D01*
X46536805Y9508953D01*
X46688221Y8716944D01*
X46791798Y8161958D01*
X46792318Y8158971D01*
X46920279Y7366318D01*
X47008250Y6805131D01*
X47008680Y6802151D01*
X47113307Y6009306D01*
X47185361Y5442662D01*
X47185702Y5439691D01*
X47267108Y4647176D01*
X47322999Y4075567D01*
X47323252Y4072607D01*
X47381552Y3280956D01*
X47421036Y2705063D01*
X47421202Y2702118D01*
X47456527Y1911723D01*
X47479390Y1332338D01*
X47479470Y1329410D01*
X47491943Y540862D01*
X47498015Y-41506D01*
X47498011Y-44414D01*
X47487765Y-830656D01*
X47476897Y-1415310D01*
X47476809Y-1418196D01*
X47443981Y-2201633D01*
X47416053Y-2787922D01*
X47415883Y-2790784D01*
X47360613Y-3570951D01*
X47315537Y-4158143D01*
X47315287Y-4160979D01*
X47237717Y-4937430D01*
X47175428Y-5524937D01*
X47175098Y-5527743D01*
X47075402Y-6299803D01*
X46995842Y-6887131D01*
X46995434Y-6889906D01*
X46873795Y-7656973D01*
X46776942Y-8243503D01*
X46776458Y-8246246D01*
X46633022Y-9008003D01*
X46518895Y-9593012D01*
X46518335Y-9595719D01*
X46353320Y-10351501D01*
X46221919Y-10934504D01*
X46221287Y-10937174D01*
X46034915Y-11686382D01*
X45886273Y-12266832D01*
X45885568Y-12269462D01*
X45678027Y-13011684D01*
X45512241Y-13588859D01*
X45511466Y-13591448D01*
X45282971Y-14326191D01*
X45100128Y-14899514D01*
X45099286Y-14902060D01*
X44850082Y-15628772D01*
X44650282Y-16197699D01*
X44649373Y-16200200D01*
X44379713Y-16918354D01*
X44163070Y-17482346D01*
X44162097Y-17484800D01*
X43872255Y-18193849D01*
X43789793Y-18391220D01*
X43638924Y-18752321D01*
X43637888Y-18754728D01*
X43328111Y-19454229D01*
X43078263Y-20006614D01*
X43077167Y-20008971D01*
X42747751Y-20698391D01*
X42481543Y-21244197D01*
X42480388Y-21246503D01*
X42131661Y-21925284D01*
X41849288Y-22463984D01*
X41848077Y-22466237D01*
X41480359Y-23133876D01*
X41182024Y-23664968D01*
X41180758Y-23667168D01*
X40794344Y-24323227D01*
X40480309Y-24846137D01*
X40478991Y-24848282D01*
X40074238Y-25492250D01*
X39744716Y-26006531D01*
X39743348Y-26008620D01*
X39320634Y-26639983D01*
X38975176Y-27146184D01*
X38975131Y-27146247D01*
X38543432Y-27752444D01*
X38534103Y-27765544D01*
X38173721Y-28262042D01*
X37715385Y-28867869D01*
X37340298Y-29354290D01*
X36865124Y-29946092D01*
X36475657Y-30421950D01*
X35984053Y-30999280D01*
X35580469Y-31464190D01*
X35072854Y-32026615D01*
X34655560Y-32480048D01*
X34132279Y-33027238D01*
X33701664Y-33468727D01*
X33163156Y-34000261D01*
X32719568Y-34429409D01*
X32502050Y-34632063D01*
X32166333Y-34944836D01*
X31992050Y-35103921D01*
X31710073Y-35361307D01*
X31142619Y-35860197D01*
X30674054Y-36263615D01*
X30092806Y-36745630D01*
X29612395Y-37135561D01*
X29017828Y-37600344D01*
X28525967Y-37976436D01*
X27918576Y-38423630D01*
X27415668Y-38785543D01*
X26795932Y-39214822D01*
X26282454Y-39562183D01*
X25650919Y-39973199D01*
X25454727Y-40097781D01*
X25127262Y-40305722D01*
X24484370Y-40698206D01*
X23951019Y-41015557D01*
X23297409Y-41389143D01*
X22754764Y-41691063D01*
X22090943Y-42045485D01*
X21967852Y-42109367D01*
X21539452Y-42331699D01*
X20865926Y-42666707D01*
X20306200Y-42936882D01*
X19623447Y-43252251D01*
X19055914Y-43506168D01*
X18364580Y-43801613D01*
X17789686Y-44039055D01*
X17090376Y-44314336D01*
X16508583Y-44535098D01*
X15801814Y-44790025D01*
X15213686Y-44993876D01*
X14500044Y-45228251D01*
X13906074Y-45415012D01*
X13186103Y-45628665D01*
X12586854Y-45798147D01*
X11861153Y-45990910D01*
X11257058Y-46142983D01*
X10526283Y-46314690D01*
X9917904Y-46449203D01*
X9182558Y-46599745D01*
X8803145Y-46672158D01*
X8570381Y-46716581D01*
X7831222Y-46845812D01*
X7215771Y-46944863D01*
X6473211Y-47052717D01*
X5855181Y-47133868D01*
X5109789Y-47220263D01*
X4489645Y-47283453D01*
X3742130Y-47348307D01*
X3120342Y-47393487D01*
X2371357Y-47436748D01*
X1748421Y-47463875D01*
X998553Y-47485513D01*
X375103Y-47494558D01*
X-375106Y-47494558D01*
X-728057Y-47489437D01*
X-998557Y-47485513D01*
X-1748426Y-47463875D01*
X-2371362Y-47436747D01*
X-3120346Y-47393487D01*
X-3742135Y-47348307D01*
X-4489649Y-47283453D01*
X-5109795Y-47220262D01*
X-5855185Y-47133868D01*
X-6473216Y-47052715D01*
X-7215775Y-46944863D01*
X-7831227Y-46845810D01*
X-8501332Y-46728653D01*
X-8570414Y-46716575D01*
X-8730142Y-46686090D01*
X-9182564Y-46599744D01*
X-9917907Y-46449203D01*
X-10526288Y-46314689D01*
X-11257062Y-46142981D01*
X-11861158Y-45990909D01*
X-12586830Y-45798154D01*
X-12939814Y-45698321D01*
X-13186109Y-45628663D01*
X-13906077Y-45415011D01*
X-14500050Y-45228249D01*
X-15213689Y-44993876D01*
X-15801820Y-44790023D01*
X-16508585Y-44535097D01*
X-17090382Y-44314334D01*
X-17789689Y-44039054D01*
X-18364586Y-43801611D01*
X-19055902Y-43506173D01*
X-19611466Y-43257612D01*
X-19623453Y-43252249D01*
X-20306203Y-42936880D01*
X-20865932Y-42666704D01*
X-21539455Y-42331698D01*
X-22090925Y-42045494D01*
X-22754766Y-41691062D01*
X-23297416Y-41389139D01*
X-23951021Y-41015556D01*
X-24484376Y-40698203D01*
X-25127270Y-40305717D01*
X-25650897Y-39973212D01*
X-26282457Y-39562181D01*
X-26795938Y-39214818D01*
X-27415670Y-38785541D01*
X-27918582Y-38423626D01*
X-28027225Y-38343637D01*
X-21386210Y-38343637D01*
X-21366601Y-38805218D01*
X-21366155Y-38810463D01*
X-21307471Y-39268739D01*
X-21306584Y-39273912D01*
X-21209249Y-39725548D01*
X-21207920Y-39730652D01*
X-21072631Y-40172417D01*
X-21070885Y-40177358D01*
X-20898621Y-40606054D01*
X-20896452Y-40610851D01*
X-20688454Y-41023392D01*
X-20685892Y-41027979D01*
X-20443654Y-41421398D01*
X-20440706Y-41425759D01*
X-20165985Y-41797207D01*
X-20162675Y-41801306D01*
X-19943852Y-42049938D01*
X-19943851Y-42049938D01*
X-17819942Y-39926029D01*
X-17811454Y-39937712D01*
X-17596113Y-40167026D01*
X-17463522Y-40276714D01*
X-19590796Y-42403988D01*
X-19520246Y-42471604D01*
X-19516301Y-42475076D01*
X-19156859Y-42765305D01*
X-19152598Y-42768456D01*
X-18769827Y-43027165D01*
X-18765363Y-43029913D01*
X-18362023Y-43255233D01*
X-18357304Y-43257612D01*
X-17936321Y-43447908D01*
X-17931441Y-43449869D01*
X-17495820Y-43603784D01*
X-17490793Y-43605324D01*
X-17043692Y-43721739D01*
X-17038541Y-43722849D01*
X-16583180Y-43800928D01*
X-16577972Y-43801595D01*
X-16117623Y-43840777D01*
X-16112368Y-43841001D01*
X-15650356Y-43841001D01*
X-15645100Y-43840777D01*
X-15184751Y-43801595D01*
X-15179543Y-43800928D01*
X-14724182Y-43722849D01*
X-14719031Y-43721739D01*
X-14271930Y-43605324D01*
X-14266903Y-43603784D01*
X-13831282Y-43449869D01*
X-13826402Y-43447908D01*
X-13405419Y-43257612D01*
X-13400700Y-43255233D01*
X-12997360Y-43029913D01*
X-12992896Y-43027165D01*
X-12610125Y-42768456D01*
X-12605864Y-42765305D01*
X-12246436Y-42475087D01*
X-12242464Y-42471592D01*
X-12171926Y-42403988D01*
X-14299201Y-40276714D01*
X-14166611Y-40167026D01*
X-13951270Y-39937712D01*
X-13942780Y-39926027D01*
X-11818871Y-42049937D01*
X-11600048Y-41801306D01*
X-11596738Y-41797207D01*
X-11322017Y-41425759D01*
X-11319069Y-41421398D01*
X-11076831Y-41027979D01*
X-11074269Y-41023392D01*
X-10866271Y-40610851D01*
X-10864102Y-40606054D01*
X-10691838Y-40177358D01*
X-10690092Y-40172417D01*
X-10554803Y-39730652D01*
X-10553474Y-39725548D01*
X-10456139Y-39273912D01*
X-10455252Y-39268739D01*
X-10396568Y-38810463D01*
X-10396122Y-38805218D01*
X-10376514Y-38343637D01*
X10376514Y-38343637D01*
X10396122Y-38805218D01*
X10396568Y-38810463D01*
X10455252Y-39268739D01*
X10456139Y-39273912D01*
X10553474Y-39725548D01*
X10554803Y-39730652D01*
X10690092Y-40172417D01*
X10691838Y-40177358D01*
X10864102Y-40606054D01*
X10866271Y-40610851D01*
X11074269Y-41023392D01*
X11076831Y-41027979D01*
X11319069Y-41421398D01*
X11322017Y-41425759D01*
X11596738Y-41797207D01*
X11600048Y-41801306D01*
X11818871Y-42049937D01*
X13942780Y-39926027D01*
X13951270Y-39937712D01*
X14166611Y-40167026D01*
X14299201Y-40276714D01*
X12171926Y-42403988D01*
X12242464Y-42471592D01*
X12246436Y-42475087D01*
X12605864Y-42765305D01*
X12610125Y-42768456D01*
X12992896Y-43027165D01*
X12997360Y-43029913D01*
X13400700Y-43255233D01*
X13405419Y-43257612D01*
X13826402Y-43447908D01*
X13831282Y-43449869D01*
X14266903Y-43603784D01*
X14271930Y-43605324D01*
X14719031Y-43721739D01*
X14724182Y-43722849D01*
X15179543Y-43800928D01*
X15184751Y-43801595D01*
X15645100Y-43840777D01*
X15650356Y-43841001D01*
X16112368Y-43841001D01*
X16117623Y-43840777D01*
X16577972Y-43801595D01*
X16583180Y-43800928D01*
X17038541Y-43722849D01*
X17043692Y-43721739D01*
X17490793Y-43605324D01*
X17495820Y-43603784D01*
X17931441Y-43449869D01*
X17936321Y-43447908D01*
X18357304Y-43257612D01*
X18362023Y-43255233D01*
X18765363Y-43029913D01*
X18769827Y-43027165D01*
X19152598Y-42768456D01*
X19156859Y-42765305D01*
X19516301Y-42475076D01*
X19520246Y-42471604D01*
X19590796Y-42403988D01*
X17463522Y-40276714D01*
X17596113Y-40167026D01*
X17811454Y-39937712D01*
X17819942Y-39926028D01*
X19943852Y-42049938D01*
X20162675Y-41801306D01*
X20165985Y-41797207D01*
X20440706Y-41425759D01*
X20443654Y-41421398D01*
X20685892Y-41027979D01*
X20688454Y-41023392D01*
X20896452Y-40610851D01*
X20898621Y-40606054D01*
X21070885Y-40177358D01*
X21072631Y-40172417D01*
X21207920Y-39730652D01*
X21209249Y-39725548D01*
X21306584Y-39273912D01*
X21307471Y-39268739D01*
X21366155Y-38810463D01*
X21366601Y-38805218D01*
X21386210Y-38343637D01*
X21386210Y-38338364D01*
X21366601Y-37876783D01*
X21366155Y-37871538D01*
X21307471Y-37413262D01*
X21306584Y-37408089D01*
X21209249Y-36956453D01*
X21207920Y-36951349D01*
X21072631Y-36509584D01*
X21070885Y-36504643D01*
X20898621Y-36075947D01*
X20896452Y-36071150D01*
X20688454Y-35658609D01*
X20685892Y-35654022D01*
X20443654Y-35260603D01*
X20440706Y-35256242D01*
X20165985Y-34884794D01*
X20162675Y-34880695D01*
X19943851Y-34632063D01*
X17819941Y-36755972D01*
X17811454Y-36744290D01*
X17596113Y-36514976D01*
X17463521Y-36405287D01*
X19590796Y-34278013D01*
X19520259Y-34210409D01*
X19516287Y-34206914D01*
X19156859Y-33916696D01*
X19152598Y-33913545D01*
X18769827Y-33654836D01*
X18765363Y-33652088D01*
X18362023Y-33426768D01*
X18357304Y-33424389D01*
X17936321Y-33234093D01*
X17931441Y-33232132D01*
X17495820Y-33078217D01*
X17490793Y-33076677D01*
X17043692Y-32960262D01*
X17038541Y-32959152D01*
X16583180Y-32881073D01*
X16577972Y-32880406D01*
X16117623Y-32841224D01*
X16112368Y-32841001D01*
X15650356Y-32841001D01*
X15645100Y-32841224D01*
X15184751Y-32880406D01*
X15179543Y-32881073D01*
X14724182Y-32959152D01*
X14719031Y-32960262D01*
X14271930Y-33076677D01*
X14266903Y-33078217D01*
X13831282Y-33232132D01*
X13826402Y-33234093D01*
X13405419Y-33424389D01*
X13400700Y-33426768D01*
X12997360Y-33652088D01*
X12992896Y-33654836D01*
X12610125Y-33913545D01*
X12605864Y-33916696D01*
X12246423Y-34206924D01*
X12242476Y-34210398D01*
X12171927Y-34278012D01*
X12171927Y-34278014D01*
X14299200Y-36405287D01*
X14166611Y-36514976D01*
X13951270Y-36744290D01*
X13942781Y-36755973D01*
X11818871Y-34632063D01*
X11600038Y-34880705D01*
X11596745Y-34884784D01*
X11322017Y-35256242D01*
X11319069Y-35260603D01*
X11076831Y-35654022D01*
X11074269Y-35658609D01*
X10866271Y-36071150D01*
X10864102Y-36075947D01*
X10691838Y-36504643D01*
X10690092Y-36509584D01*
X10554803Y-36951349D01*
X10553474Y-36956453D01*
X10456139Y-37408089D01*
X10455252Y-37413262D01*
X10396568Y-37871538D01*
X10396122Y-37876783D01*
X10376514Y-38338364D01*
X10376514Y-38343637D01*
X-10376514Y-38343637D01*
X-10376514Y-38338364D01*
X-10396122Y-37876783D01*
X-10396568Y-37871538D01*
X-10455252Y-37413262D01*
X-10456139Y-37408089D01*
X-10553474Y-36956453D01*
X-10554803Y-36951349D01*
X-10690092Y-36509584D01*
X-10691838Y-36504643D01*
X-10864102Y-36075947D01*
X-10866271Y-36071150D01*
X-11074269Y-35658609D01*
X-11076831Y-35654022D01*
X-11319069Y-35260603D01*
X-11322017Y-35256242D01*
X-11596745Y-34884784D01*
X-11600038Y-34880705D01*
X-11818871Y-34632063D01*
X-13942781Y-36755973D01*
X-13951270Y-36744290D01*
X-14166611Y-36514976D01*
X-14299200Y-36405287D01*
X-12171927Y-34278014D01*
X-12171927Y-34278012D01*
X-12242476Y-34210398D01*
X-12246423Y-34206924D01*
X-12605864Y-33916696D01*
X-12610125Y-33913545D01*
X-12992896Y-33654836D01*
X-12997360Y-33652088D01*
X-13400700Y-33426768D01*
X-13405419Y-33424389D01*
X-13826402Y-33234093D01*
X-13831282Y-33232132D01*
X-14266903Y-33078217D01*
X-14271930Y-33076677D01*
X-14719031Y-32960262D01*
X-14724182Y-32959152D01*
X-15179543Y-32881073D01*
X-15184751Y-32880406D01*
X-15645100Y-32841224D01*
X-15650356Y-32841001D01*
X-16112368Y-32841001D01*
X-16117623Y-32841224D01*
X-16577972Y-32880406D01*
X-16583180Y-32881073D01*
X-17038541Y-32959152D01*
X-17043692Y-32960262D01*
X-17490793Y-33076677D01*
X-17495820Y-33078217D01*
X-17931441Y-33232132D01*
X-17936321Y-33234093D01*
X-18357304Y-33424389D01*
X-18362023Y-33426768D01*
X-18765363Y-33652088D01*
X-18769827Y-33654836D01*
X-19152598Y-33913545D01*
X-19156859Y-33916696D01*
X-19516287Y-34206914D01*
X-19520259Y-34210409D01*
X-19590796Y-34278013D01*
X-17463521Y-36405287D01*
X-17596113Y-36514976D01*
X-17811454Y-36744290D01*
X-17819941Y-36755972D01*
X-19943851Y-34632063D01*
X-20162675Y-34880695D01*
X-20165985Y-34884794D01*
X-20440706Y-35256242D01*
X-20443654Y-35260603D01*
X-20685892Y-35654022D01*
X-20688454Y-35658609D01*
X-20896452Y-36071150D01*
X-20898621Y-36075947D01*
X-21070885Y-36504643D01*
X-21072631Y-36509584D01*
X-21207920Y-36951349D01*
X-21209249Y-36956453D01*
X-21306584Y-37408089D01*
X-21307471Y-37413262D01*
X-21366155Y-37871538D01*
X-21366601Y-37876783D01*
X-21386210Y-38338364D01*
X-21386210Y-38343637D01*
X-28027225Y-38343637D01*
X-28525969Y-37976434D01*
X-29017834Y-37600340D01*
X-29612397Y-37135560D01*
X-30092812Y-36745625D01*
X-30674056Y-36263613D01*
X-31142624Y-35860192D01*
X-31710075Y-35361305D01*
X-32166322Y-34944847D01*
X-32719570Y-34429408D01*
X-33163162Y-34000256D01*
X-33701666Y-33468725D01*
X-34132284Y-33027233D01*
X-34655562Y-32480046D01*
X-35072860Y-32026608D01*
X-35580470Y-31464188D01*
X-35984059Y-30999273D01*
X-36475659Y-30421949D01*
X-36865129Y-29946085D01*
X-37340300Y-29354288D01*
X-37715390Y-28867862D01*
X-38173722Y-28262040D01*
X-38534108Y-27765537D01*
X-38822920Y-27359983D01*
X-38975185Y-27146171D01*
X-39315966Y-26646823D01*
X-39320637Y-26639979D01*
X-39743348Y-26008620D01*
X-39744717Y-26006532D01*
X-40074238Y-25492251D01*
X-40478990Y-24848282D01*
X-40480308Y-24846138D01*
X-40794344Y-24323227D01*
X-41180758Y-23667167D01*
X-41182023Y-23664967D01*
X-41480359Y-23133877D01*
X-41848077Y-22466238D01*
X-41849288Y-22463984D01*
X-42131661Y-21925284D01*
X-42480389Y-21246503D01*
X-42481543Y-21244197D01*
X-42747751Y-20698391D01*
X-43077167Y-20008971D01*
X-43078263Y-20006614D01*
X-43328111Y-19454229D01*
X-43637888Y-18754728D01*
X-43638923Y-18752321D01*
X-43872239Y-18193888D01*
X-44162097Y-17484801D01*
X-44163070Y-17482346D01*
X-44379713Y-16918354D01*
X-44649373Y-16200201D01*
X-44650282Y-16197699D01*
X-44760450Y-15883998D01*
X-43845849Y-15883998D01*
X-43826240Y-16345579D01*
X-43825794Y-16350824D01*
X-43767110Y-16809100D01*
X-43766223Y-16814273D01*
X-43668888Y-17265909D01*
X-43667559Y-17271013D01*
X-43532270Y-17712778D01*
X-43530524Y-17717719D01*
X-43358260Y-18146415D01*
X-43356091Y-18151212D01*
X-43148093Y-18563753D01*
X-43145531Y-18568340D01*
X-42903293Y-18961759D01*
X-42900345Y-18966120D01*
X-42625624Y-19337568D01*
X-42622314Y-19341667D01*
X-42403491Y-19590299D01*
X-40279581Y-17466389D01*
X-40271093Y-17478073D01*
X-40055752Y-17707387D01*
X-39923161Y-17817075D01*
X-42050435Y-19944349D01*
X-41979885Y-20011965D01*
X-41975940Y-20015437D01*
X-41616498Y-20305666D01*
X-41612237Y-20308817D01*
X-41229466Y-20567526D01*
X-41225002Y-20570274D01*
X-40821662Y-20795594D01*
X-40816943Y-20797973D01*
X-40395960Y-20988269D01*
X-40391080Y-20990230D01*
X-39955459Y-21144145D01*
X-39950432Y-21145685D01*
X-39503331Y-21262100D01*
X-39498180Y-21263210D01*
X-39042819Y-21341289D01*
X-39037611Y-21341956D01*
X-38577262Y-21381138D01*
X-38572007Y-21381362D01*
X-38109995Y-21381362D01*
X-38104739Y-21381138D01*
X-37644390Y-21341956D01*
X-37639182Y-21341289D01*
X-37183821Y-21263210D01*
X-37178670Y-21262100D01*
X-36731569Y-21145685D01*
X-36726542Y-21144145D01*
X-36290921Y-20990230D01*
X-36286041Y-20988269D01*
X-35865058Y-20797973D01*
X-35860339Y-20795594D01*
X-35456999Y-20570274D01*
X-35452535Y-20567526D01*
X-35069764Y-20308817D01*
X-35065503Y-20305666D01*
X-34706075Y-20015448D01*
X-34702103Y-20011953D01*
X-34631565Y-19944349D01*
X-36758840Y-17817075D01*
X-36626250Y-17707387D01*
X-36410909Y-17478073D01*
X-36402419Y-17466388D01*
X-34278510Y-19590298D01*
X-34059687Y-19341667D01*
X-34056377Y-19337568D01*
X-33781656Y-18966120D01*
X-33778708Y-18961759D01*
X-33536470Y-18568340D01*
X-33533908Y-18563753D01*
X-33325910Y-18151212D01*
X-33323741Y-18146415D01*
X-33151477Y-17717719D01*
X-33149731Y-17712778D01*
X-33014442Y-17271013D01*
X-33013113Y-17265909D01*
X-32915778Y-16814273D01*
X-32914891Y-16809100D01*
X-32856207Y-16350824D01*
X-32855761Y-16345579D01*
X-32836153Y-15883998D01*
X32836153Y-15883998D01*
X32855761Y-16345579D01*
X32856207Y-16350824D01*
X32914891Y-16809100D01*
X32915778Y-16814273D01*
X33013113Y-17265909D01*
X33014442Y-17271013D01*
X33149731Y-17712778D01*
X33151477Y-17717719D01*
X33323741Y-18146415D01*
X33325910Y-18151212D01*
X33533908Y-18563753D01*
X33536470Y-18568340D01*
X33778708Y-18961759D01*
X33781656Y-18966120D01*
X34056377Y-19337568D01*
X34059687Y-19341667D01*
X34278510Y-19590298D01*
X36402419Y-17466388D01*
X36410909Y-17478073D01*
X36626250Y-17707387D01*
X36758840Y-17817075D01*
X34631565Y-19944349D01*
X34702103Y-20011953D01*
X34706075Y-20015448D01*
X35065503Y-20305666D01*
X35069764Y-20308817D01*
X35452535Y-20567526D01*
X35456999Y-20570274D01*
X35860339Y-20795594D01*
X35865058Y-20797973D01*
X36286041Y-20988269D01*
X36290921Y-20990230D01*
X36726542Y-21144145D01*
X36731569Y-21145685D01*
X37178670Y-21262100D01*
X37183821Y-21263210D01*
X37639182Y-21341289D01*
X37644390Y-21341956D01*
X38104739Y-21381138D01*
X38109995Y-21381362D01*
X38572007Y-21381362D01*
X38577262Y-21381138D01*
X39037611Y-21341956D01*
X39042819Y-21341289D01*
X39498180Y-21263210D01*
X39503331Y-21262100D01*
X39950432Y-21145685D01*
X39955459Y-21144145D01*
X40391080Y-20990230D01*
X40395960Y-20988269D01*
X40816943Y-20797973D01*
X40821662Y-20795594D01*
X41225002Y-20570274D01*
X41229466Y-20567526D01*
X41612237Y-20308817D01*
X41616498Y-20305666D01*
X41975940Y-20015437D01*
X41979885Y-20011965D01*
X42050435Y-19944349D01*
X39923161Y-17817075D01*
X40055752Y-17707387D01*
X40271093Y-17478073D01*
X40279581Y-17466389D01*
X42403491Y-19590299D01*
X42622314Y-19341667D01*
X42625624Y-19337568D01*
X42900345Y-18966120D01*
X42903293Y-18961759D01*
X43145531Y-18568340D01*
X43148093Y-18563753D01*
X43356091Y-18151212D01*
X43358260Y-18146415D01*
X43530524Y-17717719D01*
X43532270Y-17712778D01*
X43667559Y-17271013D01*
X43668888Y-17265909D01*
X43766223Y-16814273D01*
X43767110Y-16809100D01*
X43825794Y-16350824D01*
X43826240Y-16345579D01*
X43845849Y-15883998D01*
X43845849Y-15878725D01*
X43826240Y-15417144D01*
X43825794Y-15411899D01*
X43767110Y-14953623D01*
X43766223Y-14948450D01*
X43668888Y-14496814D01*
X43667559Y-14491710D01*
X43532270Y-14049945D01*
X43530524Y-14045004D01*
X43358260Y-13616308D01*
X43356091Y-13611511D01*
X43148093Y-13198970D01*
X43145531Y-13194383D01*
X42903293Y-12800964D01*
X42900345Y-12796603D01*
X42625624Y-12425155D01*
X42622314Y-12421056D01*
X42403490Y-12172424D01*
X40279580Y-14296333D01*
X40271093Y-14284651D01*
X40055752Y-14055337D01*
X39923160Y-13945647D01*
X42050435Y-11818374D01*
X41979898Y-11750770D01*
X41975926Y-11747275D01*
X41616498Y-11457057D01*
X41612237Y-11453906D01*
X41229466Y-11195197D01*
X41225002Y-11192449D01*
X40821662Y-10967129D01*
X40816943Y-10964750D01*
X40395960Y-10774454D01*
X40391080Y-10772493D01*
X39955459Y-10618578D01*
X39950432Y-10617038D01*
X39503331Y-10500623D01*
X39498180Y-10499513D01*
X39042819Y-10421434D01*
X39037611Y-10420767D01*
X38577262Y-10381585D01*
X38572007Y-10381362D01*
X38109995Y-10381362D01*
X38104739Y-10381585D01*
X37644390Y-10420767D01*
X37639182Y-10421434D01*
X37183821Y-10499513D01*
X37178670Y-10500623D01*
X36731569Y-10617038D01*
X36726542Y-10618578D01*
X36290921Y-10772493D01*
X36286041Y-10774454D01*
X35865058Y-10964750D01*
X35860339Y-10967129D01*
X35456999Y-11192449D01*
X35452535Y-11195197D01*
X35069764Y-11453906D01*
X35065503Y-11457057D01*
X34706062Y-11747285D01*
X34702115Y-11750759D01*
X34631566Y-11818373D01*
X34631566Y-11818374D01*
X36758840Y-13945648D01*
X36626250Y-14055337D01*
X36410909Y-14284651D01*
X36402420Y-14296333D01*
X34278510Y-12172424D01*
X34059677Y-12421066D01*
X34056384Y-12425145D01*
X33781656Y-12796603D01*
X33778708Y-12800964D01*
X33536470Y-13194383D01*
X33533908Y-13198970D01*
X33325910Y-13611511D01*
X33323741Y-13616308D01*
X33151477Y-14045004D01*
X33149731Y-14049945D01*
X33014442Y-14491710D01*
X33013113Y-14496814D01*
X32915778Y-14948450D01*
X32914891Y-14953623D01*
X32856207Y-15411899D01*
X32855761Y-15417144D01*
X32836153Y-15878725D01*
X32836153Y-15883998D01*
X-32836153Y-15883998D01*
X-32836153Y-15878725D01*
X-32855761Y-15417144D01*
X-32856207Y-15411899D01*
X-32914891Y-14953623D01*
X-32915778Y-14948450D01*
X-33013113Y-14496814D01*
X-33014442Y-14491710D01*
X-33149731Y-14049945D01*
X-33151477Y-14045004D01*
X-33323741Y-13616308D01*
X-33325910Y-13611511D01*
X-33533908Y-13198970D01*
X-33536470Y-13194383D01*
X-33778708Y-12800964D01*
X-33781656Y-12796603D01*
X-34056384Y-12425145D01*
X-34059677Y-12421066D01*
X-34278510Y-12172424D01*
X-36402420Y-14296334D01*
X-36410909Y-14284651D01*
X-36626250Y-14055337D01*
X-36758840Y-13945648D01*
X-34631566Y-11818374D01*
X-34631566Y-11818373D01*
X-34702115Y-11750759D01*
X-34706062Y-11747285D01*
X-35065503Y-11457057D01*
X-35069764Y-11453906D01*
X-35452535Y-11195197D01*
X-35456999Y-11192449D01*
X-35860339Y-10967129D01*
X-35865058Y-10964750D01*
X-36286041Y-10774454D01*
X-36290921Y-10772493D01*
X-36726542Y-10618578D01*
X-36731569Y-10617038D01*
X-37178670Y-10500623D01*
X-37183821Y-10499513D01*
X-37639182Y-10421434D01*
X-37644390Y-10420767D01*
X-38104739Y-10381585D01*
X-38109995Y-10381362D01*
X-38572007Y-10381362D01*
X-38577262Y-10381585D01*
X-39037611Y-10420767D01*
X-39042819Y-10421434D01*
X-39498180Y-10499513D01*
X-39503331Y-10500623D01*
X-39950432Y-10617038D01*
X-39955459Y-10618578D01*
X-40391080Y-10772493D01*
X-40395960Y-10774454D01*
X-40816943Y-10964750D01*
X-40821662Y-10967129D01*
X-41225002Y-11192449D01*
X-41229466Y-11195197D01*
X-41612237Y-11453906D01*
X-41616498Y-11457057D01*
X-41975926Y-11747275D01*
X-41979898Y-11750770D01*
X-42050435Y-11818374D01*
X-39923160Y-13945647D01*
X-40055752Y-14055337D01*
X-40271093Y-14284651D01*
X-40279580Y-14296333D01*
X-42403490Y-12172424D01*
X-42622314Y-12421056D01*
X-42625624Y-12425155D01*
X-42900345Y-12796603D01*
X-42903293Y-12800964D01*
X-43145531Y-13194383D01*
X-43148093Y-13198970D01*
X-43356091Y-13611511D01*
X-43358260Y-13616308D01*
X-43530524Y-14045004D01*
X-43532270Y-14049945D01*
X-43667559Y-14491710D01*
X-43668888Y-14496814D01*
X-43766223Y-14948450D01*
X-43767110Y-14953623D01*
X-43825794Y-15411899D01*
X-43826240Y-15417144D01*
X-43845849Y-15878725D01*
X-43845849Y-15883998D01*
X-44760450Y-15883998D01*
X-44850082Y-15628772D01*
X-45099286Y-14902060D01*
X-45100129Y-14899514D01*
X-45282971Y-14326191D01*
X-45511467Y-13591447D01*
X-45512241Y-13588858D01*
X-45678027Y-13011684D01*
X-45885568Y-12269462D01*
X-45886273Y-12266831D01*
X-46034915Y-11686382D01*
X-46221287Y-10937174D01*
X-46221920Y-10934505D01*
X-46353320Y-10351501D01*
X-46518335Y-9595718D01*
X-46518895Y-9593011D01*
X-46633022Y-9008003D01*
X-46776457Y-8246246D01*
X-46776941Y-8243504D01*
X-46873795Y-7656974D01*
X-46995434Y-6889905D01*
X-46995842Y-6887130D01*
X-47075402Y-6299803D01*
X-47175098Y-5527744D01*
X-47175428Y-5524938D01*
X-47237717Y-4937431D01*
X-47315287Y-4160978D01*
X-47315537Y-4158143D01*
X-47360613Y-3570951D01*
X-47415883Y-2790783D01*
X-47416053Y-2787921D01*
X-47443981Y-2201633D01*
X-47476809Y-1418196D01*
X-47476897Y-1415310D01*
X-47487765Y-830656D01*
X-47498011Y-44414D01*
X-47498015Y-41505D01*
X-47491943Y540862D01*
X-47479470Y1329409D01*
X-47479390Y1332337D01*
X-47456527Y1911722D01*
X-47421202Y2702119D01*
X-47421036Y2705064D01*
X-47381552Y3280956D01*
X-47323252Y4072607D01*
X-47322998Y4075567D01*
X-47267108Y4647176D01*
X-47185702Y5439692D01*
X-47185361Y5442663D01*
X-47113308Y6009306D01*
X-47008680Y6802151D01*
X-47008250Y6805132D01*
X-46920279Y7366318D01*
X-46792318Y8158971D01*
X-46791798Y8161958D01*
X-46688221Y8716944D01*
X-46536805Y9508953D01*
X-46536195Y9511944D01*
X-46417372Y10059957D01*
X-46242348Y10850998D01*
X-46241647Y10853990D01*
X-46107994Y11394217D01*
X-45909189Y12184004D01*
X-45908396Y12186994D01*
X-45760380Y12718615D01*
X-45537619Y13506793D01*
X-45536734Y13509779D01*
X-45374818Y14032174D01*
X-45127963Y14818228D01*
X-45126986Y14821207D01*
X-44951689Y15333700D01*
X-44763090Y15878725D01*
X-43845849Y15878725D01*
X-43826240Y15417144D01*
X-43825794Y15411899D01*
X-43767110Y14953623D01*
X-43766223Y14948450D01*
X-43668888Y14496814D01*
X-43667559Y14491710D01*
X-43532270Y14049945D01*
X-43530524Y14045004D01*
X-43358260Y13616308D01*
X-43356091Y13611511D01*
X-43148093Y13198970D01*
X-43145531Y13194383D01*
X-42903293Y12800964D01*
X-42900345Y12796603D01*
X-42625624Y12425155D01*
X-42622314Y12421056D01*
X-42403490Y12172424D01*
X-40279580Y14296333D01*
X-40271093Y14284651D01*
X-40055752Y14055337D01*
X-39923161Y13945648D01*
X-42050435Y11818374D01*
X-41979898Y11750770D01*
X-41975926Y11747275D01*
X-41616498Y11457057D01*
X-41612237Y11453906D01*
X-41229466Y11195197D01*
X-41225002Y11192449D01*
X-40821662Y10967129D01*
X-40816943Y10964750D01*
X-40395960Y10774454D01*
X-40391080Y10772493D01*
X-39955459Y10618578D01*
X-39950432Y10617038D01*
X-39503331Y10500623D01*
X-39498180Y10499513D01*
X-39042819Y10421434D01*
X-39037611Y10420767D01*
X-38577262Y10381585D01*
X-38572007Y10381362D01*
X-38109995Y10381362D01*
X-38104739Y10381585D01*
X-37644390Y10420767D01*
X-37639182Y10421434D01*
X-37183821Y10499513D01*
X-37178670Y10500623D01*
X-36731569Y10617038D01*
X-36726542Y10618578D01*
X-36290921Y10772493D01*
X-36286041Y10774454D01*
X-35865058Y10964750D01*
X-35860339Y10967129D01*
X-35456999Y11192449D01*
X-35452535Y11195197D01*
X-35069764Y11453906D01*
X-35065503Y11457057D01*
X-34706062Y11747285D01*
X-34702115Y11750759D01*
X-34631566Y11818373D01*
X-34631566Y11818374D01*
X-36758840Y13945648D01*
X-36626250Y14055337D01*
X-36410909Y14284651D01*
X-36402420Y14296334D01*
X-34278510Y12172424D01*
X-34059677Y12421066D01*
X-34056384Y12425145D01*
X-33781656Y12796603D01*
X-33778708Y12800964D01*
X-33536470Y13194383D01*
X-33533908Y13198970D01*
X-33325910Y13611511D01*
X-33323741Y13616308D01*
X-33151477Y14045004D01*
X-33149731Y14049945D01*
X-33014442Y14491710D01*
X-33013113Y14496814D01*
X-32915778Y14948450D01*
X-32914891Y14953623D01*
X-32856207Y15411899D01*
X-32855761Y15417144D01*
X-32836153Y15878725D01*
X-32836153Y15883998D01*
X-32855761Y16345579D01*
X-32856207Y16350824D01*
X-32914891Y16809100D01*
X-32915778Y16814273D01*
X-33013113Y17265909D01*
X-33014442Y17271013D01*
X-33149731Y17712778D01*
X-33151477Y17717719D01*
X-33323741Y18146415D01*
X-33325910Y18151212D01*
X-33533908Y18563753D01*
X-33536470Y18568340D01*
X-33778708Y18961759D01*
X-33781656Y18966120D01*
X-34056377Y19337568D01*
X-34059687Y19341667D01*
X-34278510Y19590298D01*
X-36402420Y17466389D01*
X-36410909Y17478073D01*
X-36626250Y17707387D01*
X-36758840Y17817075D01*
X-34631565Y19944349D01*
X-34702103Y20011953D01*
X-34706075Y20015448D01*
X-35065503Y20305666D01*
X-35069764Y20308817D01*
X-35452535Y20567526D01*
X-35456999Y20570274D01*
X-35860339Y20795594D01*
X-35865058Y20797973D01*
X-36286041Y20988269D01*
X-36290921Y20990230D01*
X-36726542Y21144145D01*
X-36731569Y21145685D01*
X-37178670Y21262100D01*
X-37183821Y21263210D01*
X-37639182Y21341289D01*
X-37644390Y21341956D01*
X-38104739Y21381138D01*
X-38109995Y21381362D01*
X-38572007Y21381362D01*
X-38577262Y21381138D01*
X-39037611Y21341956D01*
X-39042819Y21341289D01*
X-39498180Y21263210D01*
X-39503331Y21262100D01*
X-39950432Y21145685D01*
X-39955459Y21144145D01*
X-40391080Y20990230D01*
X-40395960Y20988269D01*
X-40816943Y20797973D01*
X-40821662Y20795594D01*
X-41225002Y20570274D01*
X-41229466Y20567526D01*
X-41612237Y20308817D01*
X-41616498Y20305666D01*
X-41975940Y20015437D01*
X-41979885Y20011965D01*
X-42050435Y19944349D01*
X-39923161Y17817075D01*
X-40055752Y17707387D01*
X-40271093Y17478073D01*
X-40279581Y17466389D01*
X-42403491Y19590299D01*
X-42622314Y19341667D01*
X-42625624Y19337568D01*
X-42900345Y18966120D01*
X-42903293Y18961759D01*
X-43145531Y18568340D01*
X-43148093Y18563753D01*
X-43356091Y18151212D01*
X-43358260Y18146415D01*
X-43530524Y17717719D01*
X-43532270Y17712778D01*
X-43667559Y17271013D01*
X-43668888Y17265909D01*
X-43766223Y16814273D01*
X-43767110Y16809100D01*
X-43825794Y16350824D01*
X-43826240Y16345579D01*
X-43845849Y15883998D01*
X-43845849Y15878725D01*
X-44763090Y15878725D01*
X-44680522Y16117334D01*
X-44679453Y16120302D01*
X-44491480Y16621846D01*
X-44195705Y17402931D01*
X-44194543Y17405887D01*
X-43994588Y17895670D01*
X-43673903Y18673972D01*
X-43672648Y18676911D01*
X-43461558Y19153936D01*
X-43115552Y19929401D01*
X-43114203Y19932322D01*
X-42892802Y20395825D01*
X-42521138Y21168127D01*
X-42519696Y21171025D01*
X-42289086Y21619844D01*
X-41891108Y22389209D01*
X-41889573Y22392083D01*
X-41651212Y22824638D01*
X-41226045Y23591518D01*
X-41224418Y23594364D01*
X-40979628Y24009613D01*
X-40526475Y24774106D01*
X-40524755Y24776921D01*
X-40275198Y25173491D01*
X-39793007Y25935942D01*
X-39791195Y25938724D01*
X-39538979Y26314852D01*
X-39026249Y27076065D01*
X-39024346Y27078811D01*
X-38772071Y27432403D01*
X-38226780Y28193610D01*
X-38224787Y28196315D01*
X-37975787Y28524733D01*
X-37395376Y29287496D01*
X-37393292Y29290158D01*
X-37151614Y29590410D01*
X-36532629Y30356937D01*
X-36530455Y30359554D01*
X-36301712Y30627439D01*
X-35639370Y31400907D01*
X-35637108Y31403475D01*
X-35428500Y31633895D01*
X-34716254Y32418646D01*
X-34713905Y32421163D01*
X-34536608Y32605929D01*
X-33764095Y33409249D01*
X-33761660Y33411711D01*
X-33632460Y33538762D01*
X-32783646Y34371933D01*
X-32781127Y34374337D01*
X-32727960Y34423670D01*
X-31777237Y35304490D01*
X-31774579Y35306883D01*
X-30745708Y36206372D01*
X-30742981Y36208688D01*
X-29688579Y37078136D01*
X-29685787Y37080371D01*
X-28606762Y37919032D01*
X-28603906Y37921186D01*
X-27511615Y38720709D01*
X-27502839Y38725662D01*
X-27499512Y38728471D01*
X-27495471Y38752493D01*
X-27499363Y38763758D01*
X-27499500Y38769588D01*
X-27499500Y44231800D01*
X-24484560Y44231800D01*
X-24480904Y44193128D01*
X-24480450Y44188320D01*
X-24479900Y44176651D01*
X-24479900Y34778755D01*
X-24482164Y34758251D01*
X-24479961Y34688138D01*
X-24479900Y34684243D01*
X-24479900Y34656662D01*
X-24479412Y34652804D01*
X-24479398Y34652689D01*
X-24478480Y34641033D01*
X-24477109Y34597385D01*
X-24471522Y34578158D01*
X-24467574Y34559094D01*
X-24465064Y34539218D01*
X-24448988Y34498616D01*
X-24445204Y34487565D01*
X-24439281Y34467180D01*
X-24433018Y34445622D01*
X-24422814Y34428367D01*
X-24414261Y34410907D01*
X-24406886Y34392280D01*
X-24381208Y34356937D01*
X-24374801Y34347183D01*
X-24352569Y34309591D01*
X-24338406Y34295428D01*
X-24325767Y34280629D01*
X-24313995Y34264425D01*
X-24280341Y34236585D01*
X-24271699Y34228721D01*
X-16836819Y26793841D01*
X-16803334Y26732518D01*
X-16800500Y26706160D01*
X-16800500Y1217743D01*
X-16802764Y1197239D01*
X-16802672Y1194334D01*
X-16802673Y1194333D01*
X-16801264Y1149501D01*
X-16800561Y1127126D01*
X-16800500Y1123231D01*
X-16800500Y1095650D01*
X-16800012Y1091792D01*
X-16799998Y1091677D01*
X-16799080Y1080021D01*
X-16797709Y1036373D01*
X-16792122Y1017146D01*
X-16788174Y998082D01*
X-16785664Y978206D01*
X-16769588Y937604D01*
X-16765804Y926553D01*
X-16759881Y906168D01*
X-16753618Y884610D01*
X-16743419Y867365D01*
X-16734865Y849904D01*
X-16727486Y831268D01*
X-16701812Y795931D01*
X-16695403Y786174D01*
X-16674780Y751302D01*
X-16673169Y748579D01*
X-16659006Y734416D01*
X-16646367Y719617D01*
X-16634595Y703413D01*
X-16600941Y675573D01*
X-16592299Y667709D01*
X-16340237Y415647D01*
X-16306752Y354324D01*
X-16308142Y295873D01*
X-16335063Y195408D01*
X-16355659Y-40000D01*
X-16335063Y-275408D01*
X-16273903Y-503663D01*
X-16174035Y-717830D01*
X-16038495Y-911401D01*
X-15871401Y-1078495D01*
X-15677830Y-1214035D01*
X-15463663Y-1313903D01*
X-15235408Y-1375063D01*
X-15000000Y-1395659D01*
X-14764592Y-1375063D01*
X-14764592Y-1375062D01*
X-14536337Y-1313903D01*
X-14322170Y-1214035D01*
X-14128599Y-1078495D01*
X-13961505Y-911401D01*
X-13825965Y-717830D01*
X-13726097Y-503663D01*
X-13687456Y-359451D01*
X-13664936Y-275407D01*
X-13644340Y-40000D01*
X-13664936Y195407D01*
X-13726097Y423663D01*
X-13825965Y637829D01*
X-13961505Y831401D01*
X-14083430Y953326D01*
X-14116915Y1014649D01*
X-14111931Y1084341D01*
X-14070059Y1140274D01*
X-14039083Y1157189D01*
X-13907669Y1206204D01*
X-13792454Y1292454D01*
X-13706204Y1407668D01*
X-13655909Y1542516D01*
X-13649854Y1598833D01*
X-13649853Y1598835D01*
X-13649500Y1602127D01*
X-13649500Y2284090D01*
X-13649500Y3394560D01*
X-13649500Y3394578D01*
X-13649501Y3397872D01*
X-13650656Y3408614D01*
X-13655909Y3457484D01*
X-13681056Y3524907D01*
X-13706204Y3592331D01*
X-13792454Y3707546D01*
X-13907669Y3793796D01*
X-14042517Y3844091D01*
X-14102127Y3850500D01*
X-14250500Y3850499D01*
X-14317539Y3870183D01*
X-14363294Y3922987D01*
X-14374500Y3974499D01*
X-14374500Y25304952D01*
X-14354815Y25371991D01*
X-14302011Y25417746D01*
X-14232853Y25427690D01*
X-14169297Y25398665D01*
X-14162819Y25392633D01*
X-13126819Y24356632D01*
X-13093334Y24295309D01*
X-13090500Y24268951D01*
X-13090500Y2107743D01*
X-13092764Y2087239D01*
X-13090561Y2017126D01*
X-13090500Y2013231D01*
X-13090500Y1985650D01*
X-13090012Y1981792D01*
X-13089998Y1981677D01*
X-13089080Y1970021D01*
X-13087709Y1926373D01*
X-13082122Y1907146D01*
X-13078174Y1888082D01*
X-13075664Y1868206D01*
X-13059588Y1827604D01*
X-13055804Y1816553D01*
X-13049881Y1796168D01*
X-13043618Y1774610D01*
X-13033414Y1757355D01*
X-13024861Y1739895D01*
X-13017486Y1721268D01*
X-12991808Y1685925D01*
X-12985401Y1676171D01*
X-12963169Y1638579D01*
X-12949006Y1624416D01*
X-12936367Y1609617D01*
X-12924595Y1593413D01*
X-12890941Y1565573D01*
X-12882299Y1557709D01*
X-11740237Y415647D01*
X-11706752Y354324D01*
X-11708142Y295873D01*
X-11735063Y195408D01*
X-11755659Y-40000D01*
X-11735063Y-275408D01*
X-11673903Y-503663D01*
X-11574035Y-717830D01*
X-11438495Y-911401D01*
X-11271401Y-1078495D01*
X-11077830Y-1214035D01*
X-10863663Y-1313903D01*
X-10635408Y-1375063D01*
X-10400000Y-1395659D01*
X-10164592Y-1375063D01*
X-10164592Y-1375062D01*
X-9936337Y-1313903D01*
X-9722170Y-1214035D01*
X-9528599Y-1078495D01*
X-9361505Y-911401D01*
X-9351074Y-896504D01*
X-9296498Y-852880D01*
X-9227000Y-845686D01*
X-9164645Y-877209D01*
X-9129231Y-937439D01*
X-9125500Y-967628D01*
X-9125500Y-3917256D01*
X-9127764Y-3937766D01*
X-9127672Y-3940666D01*
X-9127673Y-3940667D01*
X-9127330Y-3951575D01*
X-9125561Y-4007872D01*
X-9125500Y-4011767D01*
X-9125500Y-4039350D01*
X-9124999Y-4043313D01*
X-9124080Y-4054962D01*
X-9122709Y-4098627D01*
X-9117120Y-4117859D01*
X-9113174Y-4136918D01*
X-9110664Y-4156792D01*
X-9094582Y-4197407D01*
X-9090803Y-4208444D01*
X-9078618Y-4250390D01*
X-9068422Y-4267629D01*
X-9059862Y-4285101D01*
X-9052486Y-4303732D01*
X-9026817Y-4339061D01*
X-9020399Y-4348830D01*
X-8998170Y-4386420D01*
X-8984004Y-4400585D01*
X-8971373Y-4415373D01*
X-8959594Y-4431587D01*
X-8925926Y-4459438D01*
X-8917309Y-4467279D01*
X-7880803Y-5503787D01*
X-7867906Y-5519885D01*
X-7865787Y-5521873D01*
X-7865786Y-5521877D01*
X-7816723Y-5567949D01*
X-7814055Y-5570534D01*
X-7794471Y-5590120D01*
X-7791292Y-5592585D01*
X-7782423Y-5600161D01*
X-7750582Y-5630062D01*
X-7733018Y-5639717D01*
X-7716764Y-5650394D01*
X-7700936Y-5662673D01*
X-7662960Y-5679105D01*
X-7660852Y-5680018D01*
X-7650366Y-5685155D01*
X-7612092Y-5706197D01*
X-7592684Y-5711179D01*
X-7574280Y-5717481D01*
X-7555896Y-5725437D01*
X-7512752Y-5732269D01*
X-7501338Y-5734633D01*
X-7459019Y-5745500D01*
X-7438984Y-5745500D01*
X-7419584Y-5747027D01*
X-7399804Y-5750160D01*
X-7356325Y-5746050D01*
X-7344656Y-5745500D01*
X-7075227Y-5745500D01*
X-7008188Y-5765185D01*
X-6973654Y-5798373D01*
X-6838495Y-5991401D01*
X-6671401Y-6158495D01*
X-6477830Y-6294035D01*
X-6263663Y-6393903D01*
X-6035408Y-6455063D01*
X-5800000Y-6475659D01*
X-5564592Y-6455063D01*
X-5564592Y-6455062D01*
X-5336337Y-6393903D01*
X-5122170Y-6294035D01*
X-4928599Y-6158495D01*
X-4761505Y-5991401D01*
X-4625965Y-5797830D01*
X-4526097Y-5583663D01*
X-4507289Y-5513469D01*
X-4464936Y-5355407D01*
X-4453056Y-5219616D01*
X-4427604Y-5154547D01*
X-4371013Y-5113568D01*
X-4301251Y-5109690D01*
X-4241849Y-5142740D01*
X-3880803Y-5503787D01*
X-3867906Y-5519885D01*
X-3865787Y-5521873D01*
X-3865786Y-5521877D01*
X-3816723Y-5567949D01*
X-3814055Y-5570534D01*
X-3794471Y-5590120D01*
X-3791292Y-5592585D01*
X-3782423Y-5600161D01*
X-3750582Y-5630062D01*
X-3733018Y-5639717D01*
X-3716764Y-5650394D01*
X-3700936Y-5662673D01*
X-3662960Y-5679105D01*
X-3660852Y-5680018D01*
X-3650366Y-5685155D01*
X-3612092Y-5706197D01*
X-3592684Y-5711179D01*
X-3574280Y-5717481D01*
X-3555896Y-5725437D01*
X-3512752Y-5732269D01*
X-3501338Y-5734633D01*
X-3459019Y-5745500D01*
X-3438984Y-5745500D01*
X-3419584Y-5747027D01*
X-3399804Y-5750160D01*
X-3356325Y-5746050D01*
X-3344656Y-5745500D01*
X-2475227Y-5745500D01*
X-2408188Y-5765185D01*
X-2373654Y-5798373D01*
X-2238495Y-5991401D01*
X-2071401Y-6158495D01*
X-1877830Y-6294035D01*
X-1663663Y-6393903D01*
X-1435408Y-6455063D01*
X-1200000Y-6475659D01*
X-964592Y-6455063D01*
X-964591Y-6455063D01*
X-736337Y-6393903D01*
X-522170Y-6294035D01*
X-328599Y-6158495D01*
X-161505Y-5991401D01*
X-25965Y-5797830D01*
X73903Y-5583663D01*
X135063Y-5355408D01*
X155659Y-5120000D01*
X135063Y-4884592D01*
X73903Y-4656337D01*
X-4081Y-4489101D01*
X-25965Y-4442170D01*
X-161505Y-4248598D01*
X-328595Y-4081508D01*
X-366492Y-4054972D01*
X-514160Y-3951573D01*
X-557783Y-3896998D01*
X-564976Y-3827499D01*
X-533454Y-3765145D01*
X-514162Y-3748428D01*
X-377065Y-3652431D01*
X-310860Y-3630105D01*
X-243093Y-3647115D01*
X-218266Y-3666322D01*
X1335025Y-5219616D01*
X1619196Y-5503787D01*
X1632096Y-5519888D01*
X1683223Y-5567900D01*
X1686008Y-5570599D01*
X1705529Y-5590120D01*
X1708709Y-5592587D01*
X1717571Y-5600155D01*
X1749418Y-5630062D01*
X1766968Y-5639710D01*
X1766972Y-5639712D01*
X1783236Y-5650396D01*
X1794972Y-5659499D01*
X1799064Y-5662673D01*
X1823909Y-5673424D01*
X1839152Y-5680021D01*
X1849631Y-5685154D01*
X1887908Y-5706197D01*
X1907306Y-5711177D01*
X1925708Y-5717477D01*
X1944104Y-5725438D01*
X1987261Y-5732273D01*
X1998664Y-5734634D01*
X2040981Y-5745500D01*
X2061016Y-5745500D01*
X2080413Y-5747026D01*
X2100196Y-5750160D01*
X2115001Y-5748760D01*
X2183594Y-5762048D01*
X2228244Y-5801085D01*
X2361505Y-5991401D01*
X2528599Y-6158495D01*
X2722170Y-6294035D01*
X2936337Y-6393903D01*
X3164592Y-6455063D01*
X3400000Y-6475659D01*
X3635408Y-6455063D01*
X3863663Y-6393903D01*
X4077830Y-6294035D01*
X4271401Y-6158495D01*
X4438495Y-5991401D01*
X4574035Y-5797830D01*
X4673903Y-5583663D01*
X4735063Y-5355408D01*
X4755659Y-5120000D01*
X4735063Y-4884592D01*
X4673903Y-4656337D01*
X4574035Y-4442171D01*
X4438495Y-4248599D01*
X4271401Y-4081505D01*
X4085839Y-3951573D01*
X4042216Y-3896998D01*
X4035022Y-3827500D01*
X4066545Y-3765145D01*
X4085837Y-3748428D01*
X4271401Y-3618495D01*
X4438495Y-3451401D01*
X4574035Y-3257830D01*
X4673903Y-3043663D01*
X4695485Y-2963115D01*
X4731848Y-2903458D01*
X4794695Y-2872928D01*
X4864071Y-2881222D01*
X4902940Y-2907530D01*
X6659762Y-4664352D01*
X6693247Y-4725675D01*
X6691856Y-4784126D01*
X6664936Y-4884593D01*
X6644340Y-5120000D01*
X6664936Y-5355407D01*
X6707289Y-5513469D01*
X6726097Y-5583663D01*
X6825965Y-5797830D01*
X6961505Y-5991401D01*
X7128599Y-6158495D01*
X7322170Y-6294035D01*
X7536337Y-6393903D01*
X7764592Y-6455063D01*
X8000000Y-6475659D01*
X8235408Y-6455063D01*
X8463663Y-6393903D01*
X8677830Y-6294035D01*
X8871401Y-6158495D01*
X9038495Y-5991401D01*
X9174035Y-5797830D01*
X9273903Y-5583663D01*
X9308164Y-5455795D01*
X9344527Y-5396138D01*
X9407374Y-5365608D01*
X9476750Y-5373902D01*
X9515619Y-5400210D01*
X9619196Y-5503787D01*
X9632096Y-5519888D01*
X9683223Y-5567900D01*
X9686008Y-5570599D01*
X9705529Y-5590120D01*
X9708709Y-5592587D01*
X9717571Y-5600155D01*
X9717583Y-5600167D01*
X9749418Y-5630062D01*
X9766970Y-5639711D01*
X9783238Y-5650397D01*
X9799064Y-5662673D01*
X9839146Y-5680017D01*
X9849633Y-5685155D01*
X9887907Y-5706197D01*
X9896410Y-5708379D01*
X9907308Y-5711178D01*
X9925713Y-5717478D01*
X9944104Y-5725437D01*
X9987250Y-5732270D01*
X9998668Y-5734635D01*
X10040981Y-5745500D01*
X10061016Y-5745500D01*
X10080415Y-5747027D01*
X10100196Y-5750160D01*
X10143674Y-5746050D01*
X10155344Y-5745500D01*
X11324773Y-5745500D01*
X11391812Y-5765185D01*
X11426345Y-5798373D01*
X11561505Y-5991401D01*
X11728599Y-6158495D01*
X11922170Y-6294035D01*
X12136337Y-6393903D01*
X12364592Y-6455063D01*
X12600000Y-6475659D01*
X12835408Y-6455063D01*
X13063663Y-6393903D01*
X13277830Y-6294035D01*
X13471401Y-6158495D01*
X13638495Y-5991401D01*
X13774035Y-5797830D01*
X13873903Y-5583663D01*
X13935063Y-5355408D01*
X13955659Y-5120000D01*
X13935063Y-4884592D01*
X13873903Y-4656337D01*
X13774035Y-4442171D01*
X13638495Y-4248599D01*
X13471401Y-4081505D01*
X13285839Y-3951573D01*
X13242216Y-3896998D01*
X13235022Y-3827500D01*
X13266545Y-3765145D01*
X13285837Y-3748428D01*
X13471401Y-3618495D01*
X13638495Y-3451401D01*
X13774035Y-3257830D01*
X13873903Y-3043663D01*
X13935063Y-2815408D01*
X13955659Y-2580000D01*
X13935063Y-2344592D01*
X13873903Y-2116337D01*
X13774035Y-1902171D01*
X13638495Y-1708599D01*
X13471401Y-1541505D01*
X13285839Y-1411573D01*
X13242217Y-1356998D01*
X13235024Y-1287499D01*
X13266546Y-1225145D01*
X13285837Y-1208428D01*
X13471401Y-1078495D01*
X13638495Y-911401D01*
X13774035Y-717830D01*
X13873903Y-503663D01*
X13935063Y-275408D01*
X13955659Y-40000D01*
X13935063Y195408D01*
X13873903Y423663D01*
X13774035Y637829D01*
X13638495Y831401D01*
X13516566Y953329D01*
X13483084Y1014648D01*
X13488068Y1084340D01*
X13529939Y1140274D01*
X13560916Y1157189D01*
X13660503Y1194333D01*
X13692331Y1206204D01*
X13807546Y1292454D01*
X13893796Y1407669D01*
X13944091Y1542517D01*
X13950500Y1602127D01*
X13950499Y3397872D01*
X13944091Y3457483D01*
X13893796Y3592331D01*
X13807546Y3707546D01*
X13692331Y3793796D01*
X13557483Y3844091D01*
X13497873Y3850500D01*
X13349499Y3850499D01*
X13282461Y3870183D01*
X13236706Y3922987D01*
X13225500Y3974499D01*
X13225500Y13767255D01*
X13227764Y13787765D01*
X13225561Y13857886D01*
X13225500Y13861780D01*
X13225500Y13885459D01*
X13225500Y13889350D01*
X13225000Y13893310D01*
X13224081Y13904985D01*
X13223961Y13908817D01*
X13223900Y13912698D01*
X13223900Y15878725D01*
X32836153Y15878725D01*
X32855761Y15417144D01*
X32856207Y15411899D01*
X32914891Y14953623D01*
X32915778Y14948450D01*
X33013113Y14496814D01*
X33014442Y14491710D01*
X33149731Y14049945D01*
X33151477Y14045004D01*
X33323741Y13616308D01*
X33325910Y13611511D01*
X33533908Y13198970D01*
X33536470Y13194383D01*
X33778708Y12800964D01*
X33781656Y12796603D01*
X34056384Y12425145D01*
X34059677Y12421066D01*
X34278510Y12172424D01*
X36402420Y14296334D01*
X36410909Y14284651D01*
X36626250Y14055337D01*
X36758840Y13945648D01*
X34631566Y11818374D01*
X34631566Y11818373D01*
X34702115Y11750759D01*
X34706062Y11747285D01*
X35065503Y11457057D01*
X35069764Y11453906D01*
X35452535Y11195197D01*
X35456999Y11192449D01*
X35860339Y10967129D01*
X35865058Y10964750D01*
X36286041Y10774454D01*
X36290921Y10772493D01*
X36726542Y10618578D01*
X36731569Y10617038D01*
X37178670Y10500623D01*
X37183821Y10499513D01*
X37639182Y10421434D01*
X37644390Y10420767D01*
X38104739Y10381585D01*
X38109995Y10381362D01*
X38572007Y10381362D01*
X38577262Y10381585D01*
X39037611Y10420767D01*
X39042819Y10421434D01*
X39498180Y10499513D01*
X39503331Y10500623D01*
X39950432Y10617038D01*
X39955459Y10618578D01*
X40391080Y10772493D01*
X40395960Y10774454D01*
X40816943Y10964750D01*
X40821662Y10967129D01*
X41225002Y11192449D01*
X41229466Y11195197D01*
X41612237Y11453906D01*
X41616498Y11457057D01*
X41975926Y11747275D01*
X41979898Y11750770D01*
X42050435Y11818374D01*
X39923161Y13945648D01*
X40055752Y14055337D01*
X40271093Y14284651D01*
X40279581Y14296333D01*
X42403490Y12172424D01*
X42622314Y12421056D01*
X42625624Y12425155D01*
X42900345Y12796603D01*
X42903293Y12800964D01*
X43145531Y13194383D01*
X43148093Y13198970D01*
X43356091Y13611511D01*
X43358260Y13616308D01*
X43530524Y14045004D01*
X43532270Y14049945D01*
X43667559Y14491710D01*
X43668888Y14496814D01*
X43766223Y14948450D01*
X43767110Y14953623D01*
X43825794Y15411899D01*
X43826240Y15417144D01*
X43845849Y15878725D01*
X43845849Y15883998D01*
X43826240Y16345579D01*
X43825794Y16350824D01*
X43767110Y16809100D01*
X43766223Y16814273D01*
X43668888Y17265909D01*
X43667559Y17271013D01*
X43532270Y17712778D01*
X43530524Y17717719D01*
X43358260Y18146415D01*
X43356091Y18151212D01*
X43148093Y18563753D01*
X43145531Y18568340D01*
X42903293Y18961759D01*
X42900345Y18966120D01*
X42625624Y19337568D01*
X42622314Y19341667D01*
X42403491Y19590299D01*
X40279581Y17466389D01*
X40271093Y17478073D01*
X40055752Y17707387D01*
X39923161Y17817075D01*
X42050435Y19944349D01*
X41979885Y20011965D01*
X41975940Y20015437D01*
X41616498Y20305666D01*
X41612237Y20308817D01*
X41229466Y20567526D01*
X41225002Y20570274D01*
X40821662Y20795594D01*
X40816943Y20797973D01*
X40395960Y20988269D01*
X40391080Y20990230D01*
X39955459Y21144145D01*
X39950432Y21145685D01*
X39503331Y21262100D01*
X39498180Y21263210D01*
X39042819Y21341289D01*
X39037611Y21341956D01*
X38577262Y21381138D01*
X38572007Y21381362D01*
X38109995Y21381362D01*
X38104739Y21381138D01*
X37644390Y21341956D01*
X37639182Y21341289D01*
X37183821Y21263210D01*
X37178670Y21262100D01*
X36731569Y21145685D01*
X36726542Y21144145D01*
X36290921Y20990230D01*
X36286041Y20988269D01*
X35865058Y20797973D01*
X35860339Y20795594D01*
X35456999Y20570274D01*
X35452535Y20567526D01*
X35069764Y20308817D01*
X35065503Y20305666D01*
X34706075Y20015448D01*
X34702103Y20011953D01*
X34631565Y19944349D01*
X36758840Y17817075D01*
X36626250Y17707387D01*
X36410909Y17478073D01*
X36402420Y17466389D01*
X34278510Y19590298D01*
X34059687Y19341667D01*
X34056377Y19337568D01*
X33781656Y18966120D01*
X33778708Y18961759D01*
X33536470Y18568340D01*
X33533908Y18563753D01*
X33325910Y18151212D01*
X33323741Y18146415D01*
X33151477Y17717719D01*
X33149731Y17712778D01*
X33014442Y17271013D01*
X33013113Y17265909D01*
X32915778Y16814273D01*
X32914891Y16809100D01*
X32856207Y16350824D01*
X32855761Y16345579D01*
X32836153Y15883998D01*
X32836153Y15878725D01*
X13223900Y15878725D01*
X13223900Y23335552D01*
X13243585Y23402591D01*
X13260219Y23423233D01*
X23236587Y33399601D01*
X23252689Y33412502D01*
X23254674Y33414616D01*
X23254677Y33414618D01*
X23300716Y33463644D01*
X23303426Y33466440D01*
X23320159Y33483173D01*
X23322920Y33485934D01*
X23325380Y33489105D01*
X23332958Y33497977D01*
X23362862Y33529822D01*
X23372514Y33547378D01*
X23383192Y33563635D01*
X23395474Y33579468D01*
X23402449Y33595589D01*
X23412823Y33619560D01*
X23417963Y33630053D01*
X23438997Y33668312D01*
X23443980Y33687720D01*
X23450279Y33706117D01*
X23458237Y33724507D01*
X23458238Y33724509D01*
X23465071Y33767658D01*
X23467439Y33779088D01*
X23478300Y33821383D01*
X23478300Y33841420D01*
X23479827Y33860818D01*
X23480092Y33862493D01*
X23482960Y33880600D01*
X23478849Y33924078D01*
X23478300Y33935747D01*
X23478300Y44738459D01*
X23480563Y44758961D01*
X23478361Y44829054D01*
X23478300Y44832948D01*
X23478300Y44856656D01*
X23478300Y44860550D01*
X23477799Y44864516D01*
X23476880Y44876178D01*
X23475509Y44919827D01*
X23469920Y44939062D01*
X23465975Y44958107D01*
X23463464Y44977992D01*
X23447374Y45018628D01*
X23443598Y45029659D01*
X23431417Y45071590D01*
X23421222Y45088827D01*
X23412664Y45106295D01*
X23405286Y45124932D01*
X23379615Y45160263D01*
X23373212Y45170008D01*
X23350970Y45207621D01*
X23336799Y45221791D01*
X23324168Y45236579D01*
X23312394Y45252787D01*
X23278744Y45280623D01*
X23270114Y45288475D01*
X17281817Y51276773D01*
X17248334Y51338094D01*
X17245500Y51364452D01*
X17245500Y62135500D01*
X17265185Y62202539D01*
X17317989Y62248294D01*
X17369499Y62259500D01*
X17564560Y62259500D01*
X17564578Y62259500D01*
X17567872Y62259501D01*
X17571152Y62259853D01*
X17571159Y62259854D01*
X17627484Y62265909D01*
X17694907Y62291056D01*
X17762331Y62316204D01*
X17877546Y62402454D01*
X17963796Y62517669D01*
X18014091Y62652517D01*
X18020500Y62712127D01*
X18020499Y64607872D01*
X18014091Y64667483D01*
X17963796Y64802331D01*
X17877546Y64917546D01*
X17762331Y65003796D01*
X17627483Y65054091D01*
X17567873Y65060500D01*
X16007251Y65060499D01*
X15940840Y65080000D01*
X20514415Y65080000D01*
X20514625Y65076394D01*
X20534527Y64734687D01*
X20534528Y64734678D01*
X20534738Y64731073D01*
X20535364Y64727520D01*
X20535366Y64727507D01*
X20594803Y64390421D01*
X20594806Y64390407D01*
X20595431Y64386864D01*
X20596462Y64383418D01*
X20596465Y64383408D01*
X20694642Y64055474D01*
X20694645Y64055464D01*
X20695674Y64052029D01*
X20697097Y64048728D01*
X20697099Y64048725D01*
X20832682Y63734406D01*
X20832690Y63734389D01*
X20834111Y63731096D01*
X20835909Y63727980D01*
X20835915Y63727970D01*
X21007061Y63431535D01*
X21007071Y63431518D01*
X21008870Y63428404D01*
X21011023Y63425511D01*
X21011029Y63425503D01*
X21215435Y63150937D01*
X21215448Y63150921D01*
X21217588Y63148047D01*
X21220056Y63145430D01*
X21220062Y63145424D01*
X21454962Y62896445D01*
X21454967Y62896439D01*
X21457442Y62893817D01*
X21460190Y62891510D01*
X21460204Y62891498D01*
X21722429Y62671466D01*
X21722438Y62671458D01*
X21725189Y62669151D01*
X21728198Y62667171D01*
X21728206Y62667166D01*
X22014187Y62479072D01*
X22014203Y62479062D01*
X22017207Y62477087D01*
X22020431Y62475467D01*
X22020436Y62475465D01*
X22326311Y62321848D01*
X22326327Y62321840D01*
X22329549Y62320223D01*
X22332947Y62318985D01*
X22332950Y62318985D01*
X22654599Y62201914D01*
X22654612Y62201910D01*
X22657989Y62200681D01*
X22661482Y62199852D01*
X22661496Y62199849D01*
X22994579Y62120907D01*
X22994598Y62120903D01*
X22998086Y62120077D01*
X23001647Y62119660D01*
X23001663Y62119658D01*
X23341670Y62079917D01*
X23341676Y62079916D01*
X23345241Y62079500D01*
X23348839Y62079500D01*
X23691161Y62079500D01*
X23694759Y62079500D01*
X23698324Y62079916D01*
X23698329Y62079917D01*
X24038336Y62119658D01*
X24038349Y62119660D01*
X24041914Y62120077D01*
X24045404Y62120904D01*
X24045420Y62120907D01*
X24378503Y62199849D01*
X24378512Y62199851D01*
X24382011Y62200681D01*
X24385392Y62201911D01*
X24385400Y62201914D01*
X24691669Y62313387D01*
X24710451Y62320223D01*
X24713678Y62321843D01*
X24713688Y62321848D01*
X25019563Y62475465D01*
X25022793Y62477087D01*
X25025804Y62479067D01*
X25025812Y62479072D01*
X25311793Y62667166D01*
X25314811Y62669151D01*
X25369987Y62715449D01*
X25579795Y62891498D01*
X25579800Y62891503D01*
X25582558Y62893817D01*
X25822412Y63148047D01*
X26031130Y63428404D01*
X26205889Y63731096D01*
X26344326Y64052029D01*
X26444569Y64386864D01*
X26505262Y64731073D01*
X26525585Y65080000D01*
X26505262Y65428927D01*
X26444569Y65773136D01*
X26344326Y66107971D01*
X26205889Y66428904D01*
X26031130Y66731596D01*
X25822412Y67011953D01*
X25582558Y67266183D01*
X25314811Y67490849D01*
X25022793Y67682913D01*
X24710451Y67839777D01*
X24382011Y67959319D01*
X24041914Y68039923D01*
X23694759Y68080500D01*
X23345241Y68080500D01*
X22998086Y68039923D01*
X22994581Y68039092D01*
X22994579Y68039092D01*
X22828037Y67999621D01*
X22657989Y67959319D01*
X22329549Y67839777D01*
X22017207Y67682913D01*
X22014190Y67680929D01*
X22014187Y67680927D01*
X21877465Y67591003D01*
X21725189Y67490849D01*
X21722429Y67488533D01*
X21573007Y67363153D01*
X21457442Y67266183D01*
X21217588Y67011953D01*
X21215441Y67009069D01*
X21215435Y67009062D01*
X21019229Y66745511D01*
X21008870Y66731596D01*
X21007067Y66728473D01*
X21007061Y66728464D01*
X20875158Y66500000D01*
X20834111Y66428904D01*
X20832687Y66425603D01*
X20832682Y66425593D01*
X20727609Y66182005D01*
X20695674Y66107971D01*
X20694643Y66104530D01*
X20694642Y66104525D01*
X20612799Y65831148D01*
X20595431Y65773136D01*
X20594805Y65769588D01*
X20594803Y65769578D01*
X20535366Y65432492D01*
X20535364Y65432481D01*
X20534738Y65428927D01*
X20534527Y65425319D01*
X20534527Y65425312D01*
X20529738Y65343082D01*
X20514415Y65080000D01*
X15940840Y65080000D01*
X15940213Y65080184D01*
X15894458Y65132987D01*
X15884514Y65202146D01*
X15913539Y65265702D01*
X15948229Y65293550D01*
X16003626Y65323530D01*
X16186784Y65466087D01*
X16343979Y65636847D01*
X16470924Y65831151D01*
X16564157Y66043700D01*
X16621134Y66268695D01*
X16640300Y66500000D01*
X16621134Y66731305D01*
X16564157Y66956300D01*
X16470924Y67168849D01*
X16343979Y67363153D01*
X16186784Y67533913D01*
X16003626Y67676470D01*
X15799503Y67786936D01*
X15579981Y67862298D01*
X15351049Y67900500D01*
X15118951Y67900500D01*
X14890019Y67862298D01*
X14890017Y67862297D01*
X14890015Y67862297D01*
X14819681Y67838151D01*
X14670497Y67786936D01*
X14466374Y67676470D01*
X14283216Y67533913D01*
X14126021Y67363153D01*
X14060950Y67263554D01*
X13999076Y67168849D01*
X13963556Y67087871D01*
X13918600Y67034385D01*
X13851864Y67013695D01*
X13784536Y67032370D01*
X13737993Y67084480D01*
X13736444Y67087871D01*
X13700924Y67168849D01*
X13573979Y67363153D01*
X13416784Y67533913D01*
X13233626Y67676470D01*
X13029503Y67786936D01*
X12809981Y67862298D01*
X12581049Y67900500D01*
X12348951Y67900500D01*
X12120019Y67862298D01*
X12120017Y67862297D01*
X12120015Y67862297D01*
X12049681Y67838151D01*
X11900497Y67786936D01*
X11696374Y67676470D01*
X11513216Y67533913D01*
X11356021Y67363153D01*
X11290950Y67263554D01*
X11229076Y67168849D01*
X11193556Y67087871D01*
X11148600Y67034385D01*
X11081864Y67013695D01*
X11014536Y67032370D01*
X10967993Y67084480D01*
X10966444Y67087871D01*
X10930924Y67168849D01*
X10803979Y67363153D01*
X10646784Y67533913D01*
X10463626Y67676470D01*
X10259503Y67786936D01*
X10039981Y67862298D01*
X9811049Y67900500D01*
X9578951Y67900500D01*
X9350019Y67862298D01*
X9350017Y67862297D01*
X9350015Y67862297D01*
X9279681Y67838151D01*
X9130497Y67786936D01*
X8926374Y67676470D01*
X8743216Y67533913D01*
X8586021Y67363153D01*
X8520950Y67263554D01*
X8459076Y67168849D01*
X8423556Y67087871D01*
X8378600Y67034385D01*
X8311864Y67013695D01*
X8244536Y67032370D01*
X8197993Y67084480D01*
X8196444Y67087871D01*
X8160924Y67168849D01*
X8033979Y67363153D01*
X7876784Y67533913D01*
X7693626Y67676470D01*
X7489503Y67786936D01*
X7269981Y67862298D01*
X7041049Y67900500D01*
X6808951Y67900500D01*
X6580019Y67862298D01*
X6580017Y67862297D01*
X6580015Y67862297D01*
X6509681Y67838151D01*
X6360497Y67786936D01*
X6156374Y67676470D01*
X5973216Y67533913D01*
X5816021Y67363153D01*
X5750950Y67263554D01*
X5689076Y67168849D01*
X5653556Y67087871D01*
X5608600Y67034385D01*
X5541864Y67013695D01*
X5474536Y67032370D01*
X5427993Y67084480D01*
X5426444Y67087871D01*
X5390924Y67168849D01*
X5263979Y67363153D01*
X5106784Y67533913D01*
X4923626Y67676470D01*
X4719503Y67786936D01*
X4499981Y67862298D01*
X4271049Y67900500D01*
X4038951Y67900500D01*
X3810019Y67862298D01*
X3810017Y67862297D01*
X3810015Y67862297D01*
X3739681Y67838151D01*
X3590497Y67786936D01*
X3386374Y67676470D01*
X3203216Y67533913D01*
X3046021Y67363153D01*
X2980950Y67263554D01*
X2919076Y67168849D01*
X2883556Y67087871D01*
X2838600Y67034385D01*
X2771864Y67013695D01*
X2704536Y67032370D01*
X2657993Y67084480D01*
X2656444Y67087871D01*
X2620924Y67168849D01*
X2493979Y67363153D01*
X2336784Y67533913D01*
X2153626Y67676470D01*
X1949503Y67786936D01*
X1729981Y67862298D01*
X1501049Y67900500D01*
X1268951Y67900500D01*
X1040019Y67862298D01*
X1040017Y67862297D01*
X1040015Y67862297D01*
X969681Y67838151D01*
X820497Y67786936D01*
X616374Y67676470D01*
X433216Y67533913D01*
X276021Y67363153D01*
X210950Y67263554D01*
X149076Y67168849D01*
X113556Y67087871D01*
X68600Y67034385D01*
X1864Y67013695D01*
X-65464Y67032370D01*
X-112007Y67084480D01*
X-113556Y67087871D01*
X-149076Y67168849D01*
X-210950Y67263554D01*
X-276021Y67363153D01*
X-433216Y67533913D01*
X-616374Y67676470D01*
X-820497Y67786936D01*
X-969681Y67838151D01*
X-1040015Y67862297D01*
X-1040017Y67862297D01*
X-1040019Y67862298D01*
X-1268951Y67900500D01*
X-1501049Y67900500D01*
X-1729981Y67862298D01*
X-1949503Y67786936D01*
X-2153626Y67676470D01*
X-2336784Y67533913D01*
X-2493979Y67363153D01*
X-2620924Y67168849D01*
X-2656444Y67087871D01*
X-2701400Y67034385D01*
X-2768136Y67013695D01*
X-2835464Y67032370D01*
X-2882007Y67084480D01*
X-2883556Y67087871D01*
X-2919076Y67168849D01*
X-2980950Y67263554D01*
X-3046021Y67363153D01*
X-3203216Y67533913D01*
X-3386374Y67676470D01*
X-3590497Y67786936D01*
X-3739681Y67838151D01*
X-3810015Y67862297D01*
X-3810017Y67862297D01*
X-3810019Y67862298D01*
X-4038951Y67900500D01*
X-4271049Y67900500D01*
X-4499981Y67862298D01*
X-4719503Y67786936D01*
X-4923626Y67676470D01*
X-5106784Y67533913D01*
X-5263979Y67363153D01*
X-5390924Y67168849D01*
X-5426444Y67087871D01*
X-5471400Y67034385D01*
X-5538136Y67013695D01*
X-5605464Y67032370D01*
X-5652007Y67084480D01*
X-5653556Y67087871D01*
X-5689076Y67168849D01*
X-5750950Y67263554D01*
X-5816021Y67363153D01*
X-5973216Y67533913D01*
X-6156374Y67676470D01*
X-6360497Y67786936D01*
X-6509681Y67838151D01*
X-6580015Y67862297D01*
X-6580017Y67862297D01*
X-6580019Y67862298D01*
X-6808951Y67900500D01*
X-7041049Y67900500D01*
X-7269981Y67862298D01*
X-7489503Y67786936D01*
X-7693626Y67676470D01*
X-7876784Y67533913D01*
X-8033979Y67363153D01*
X-8160924Y67168849D01*
X-8196444Y67087871D01*
X-8241400Y67034385D01*
X-8308136Y67013695D01*
X-8375464Y67032370D01*
X-8422007Y67084480D01*
X-8423556Y67087871D01*
X-8459076Y67168849D01*
X-8520950Y67263554D01*
X-8586021Y67363153D01*
X-8743216Y67533913D01*
X-8926374Y67676470D01*
X-9130497Y67786936D01*
X-9279681Y67838151D01*
X-9350015Y67862297D01*
X-9350017Y67862297D01*
X-9350019Y67862298D01*
X-9578951Y67900500D01*
X-9811049Y67900500D01*
X-10039981Y67862298D01*
X-10259503Y67786936D01*
X-10463626Y67676470D01*
X-10646784Y67533913D01*
X-10803979Y67363153D01*
X-10930924Y67168849D01*
X-10966444Y67087871D01*
X-11011400Y67034385D01*
X-11078136Y67013695D01*
X-11145464Y67032370D01*
X-11192007Y67084480D01*
X-11193556Y67087871D01*
X-11229076Y67168849D01*
X-11290950Y67263554D01*
X-11356021Y67363153D01*
X-11513216Y67533913D01*
X-11696374Y67676470D01*
X-11900497Y67786936D01*
X-12049681Y67838151D01*
X-12120015Y67862297D01*
X-12120017Y67862297D01*
X-12120019Y67862298D01*
X-12348951Y67900500D01*
X-12581049Y67900500D01*
X-12809981Y67862298D01*
X-13029503Y67786936D01*
X-13233626Y67676470D01*
X-13416784Y67533913D01*
X-13573979Y67363153D01*
X-13700924Y67168849D01*
X-13736444Y67087871D01*
X-13781400Y67034385D01*
X-13848136Y67013695D01*
X-13915464Y67032370D01*
X-13962007Y67084480D01*
X-13963556Y67087871D01*
X-13999076Y67168849D01*
X-14060950Y67263554D01*
X-14126021Y67363153D01*
X-14283216Y67533913D01*
X-14466374Y67676470D01*
X-14670497Y67786936D01*
X-14819681Y67838151D01*
X-14890015Y67862297D01*
X-14890017Y67862297D01*
X-14890019Y67862298D01*
X-15118951Y67900500D01*
X-15351049Y67900500D01*
X-15579981Y67862298D01*
X-15799503Y67786936D01*
X-16003626Y67676470D01*
X-16186784Y67533913D01*
X-16343979Y67363153D01*
X-16470924Y67168849D01*
X-16564157Y66956300D01*
X-16621134Y66731305D01*
X-16640300Y66500000D01*
X-16621134Y66268695D01*
X-16564157Y66043700D01*
X-16470924Y65831151D01*
X-16343979Y65636847D01*
X-16186784Y65466087D01*
X-16003626Y65323530D01*
X-16003624Y65323529D01*
X-15925481Y65281239D01*
X-15875891Y65232019D01*
X-15860500Y65172185D01*
X-15860500Y65049507D01*
X-15880185Y64982468D01*
X-15932989Y64936713D01*
X-16002147Y64926769D01*
X-16043518Y64940453D01*
X-16055497Y64946936D01*
X-16175587Y64988163D01*
X-16275015Y65022297D01*
X-16275017Y65022297D01*
X-16275019Y65022298D01*
X-16503951Y65060500D01*
X-16736049Y65060500D01*
X-16964981Y65022298D01*
X-17184503Y64946936D01*
X-17388626Y64836470D01*
X-17571784Y64693913D01*
X-17728979Y64523153D01*
X-17855924Y64328849D01*
X-17949157Y64116300D01*
X-18006134Y63891305D01*
X-18006134Y63891299D01*
X-18025301Y63660000D01*
X-18011748Y63496456D01*
X-18006134Y63428695D01*
X-17949157Y63203700D01*
X-17855924Y62991151D01*
X-17728979Y62796847D01*
X-17571784Y62626087D01*
X-17388626Y62483530D01*
X-17184503Y62373064D01*
X-17184499Y62373062D01*
X-17184498Y62373062D01*
X-16964984Y62297702D01*
X-16793282Y62269050D01*
X-16736049Y62259500D01*
X-16736048Y62259500D01*
X-16503952Y62259500D01*
X-16503951Y62259500D01*
X-16458164Y62267140D01*
X-16275015Y62297702D01*
X-16055494Y62373064D01*
X-16043516Y62379547D01*
X-15975188Y62394142D01*
X-15909816Y62369478D01*
X-15868156Y62313387D01*
X-15860500Y62270492D01*
X-15860500Y53141848D01*
X-15880185Y53074809D01*
X-15896814Y53054172D01*
X-24238189Y44712796D01*
X-24254285Y44699902D01*
X-24256273Y44697783D01*
X-24256277Y44697782D01*
X-24302349Y44648719D01*
X-24304934Y44646051D01*
X-24324520Y44626467D01*
X-24326985Y44623288D01*
X-24334564Y44614414D01*
X-24364462Y44582578D01*
X-24374111Y44565025D01*
X-24384798Y44548755D01*
X-24397073Y44532932D01*
X-24414426Y44492828D01*
X-24419553Y44482365D01*
X-24440597Y44444088D01*
X-24445073Y44426652D01*
X-24445575Y44424697D01*
X-24451881Y44406278D01*
X-24459838Y44387892D01*
X-24466672Y44344741D01*
X-24469035Y44333327D01*
X-24479900Y44291015D01*
X-24479900Y44291013D01*
X-24479900Y44270979D01*
X-24481426Y44251581D01*
X-24484560Y44231800D01*
X-27499500Y44231800D01*
X-27499500Y65080000D01*
X-26525585Y65080000D01*
X-26505262Y64731073D01*
X-26444569Y64386864D01*
X-26344326Y64052029D01*
X-26205889Y63731096D01*
X-26031130Y63428404D01*
X-25822412Y63148047D01*
X-25582558Y62893817D01*
X-25579800Y62891503D01*
X-25579795Y62891498D01*
X-25369987Y62715449D01*
X-25314811Y62669151D01*
X-25311793Y62667166D01*
X-25025812Y62479072D01*
X-25025804Y62479067D01*
X-25022793Y62477087D01*
X-25019563Y62475465D01*
X-24713688Y62321848D01*
X-24713678Y62321843D01*
X-24710451Y62320223D01*
X-24691669Y62313387D01*
X-24385400Y62201914D01*
X-24385392Y62201911D01*
X-24382011Y62200681D01*
X-24378512Y62199851D01*
X-24378503Y62199849D01*
X-24045420Y62120907D01*
X-24045404Y62120904D01*
X-24041914Y62120077D01*
X-24038349Y62119660D01*
X-24038336Y62119658D01*
X-23698329Y62079917D01*
X-23698324Y62079916D01*
X-23694759Y62079500D01*
X-23691161Y62079500D01*
X-23348839Y62079500D01*
X-23345241Y62079500D01*
X-23341676Y62079916D01*
X-23341670Y62079917D01*
X-23001663Y62119658D01*
X-23001647Y62119660D01*
X-22998086Y62120077D01*
X-22994598Y62120903D01*
X-22994579Y62120907D01*
X-22661496Y62199849D01*
X-22661482Y62199852D01*
X-22657989Y62200681D01*
X-22654612Y62201910D01*
X-22654599Y62201914D01*
X-22332950Y62318985D01*
X-22332947Y62318985D01*
X-22329549Y62320223D01*
X-22326327Y62321840D01*
X-22326311Y62321848D01*
X-22020436Y62475465D01*
X-22020431Y62475467D01*
X-22017207Y62477087D01*
X-22014203Y62479062D01*
X-22014187Y62479072D01*
X-21728206Y62667166D01*
X-21728198Y62667171D01*
X-21725189Y62669151D01*
X-21722438Y62671458D01*
X-21722429Y62671466D01*
X-21460204Y62891498D01*
X-21460190Y62891510D01*
X-21457442Y62893817D01*
X-21454967Y62896439D01*
X-21454962Y62896445D01*
X-21220062Y63145424D01*
X-21220056Y63145430D01*
X-21217588Y63148047D01*
X-21215448Y63150921D01*
X-21215435Y63150937D01*
X-21011029Y63425503D01*
X-21011023Y63425511D01*
X-21008870Y63428404D01*
X-21007071Y63431518D01*
X-21007061Y63431535D01*
X-20835915Y63727970D01*
X-20835909Y63727980D01*
X-20834111Y63731096D01*
X-20832690Y63734389D01*
X-20832682Y63734406D01*
X-20697099Y64048725D01*
X-20697097Y64048728D01*
X-20695674Y64052029D01*
X-20694645Y64055464D01*
X-20694642Y64055474D01*
X-20596465Y64383408D01*
X-20596462Y64383418D01*
X-20595431Y64386864D01*
X-20594806Y64390407D01*
X-20594803Y64390421D01*
X-20535366Y64727507D01*
X-20535364Y64727520D01*
X-20534738Y64731073D01*
X-20534528Y64734678D01*
X-20534527Y64734687D01*
X-20514625Y65076394D01*
X-20514415Y65080000D01*
X-20529738Y65343082D01*
X-20534527Y65425312D01*
X-20534527Y65425319D01*
X-20534738Y65428927D01*
X-20535364Y65432481D01*
X-20535366Y65432492D01*
X-20594803Y65769578D01*
X-20594805Y65769588D01*
X-20595431Y65773136D01*
X-20612799Y65831148D01*
X-20694642Y66104525D01*
X-20694643Y66104530D01*
X-20695674Y66107971D01*
X-20727609Y66182005D01*
X-20832682Y66425593D01*
X-20832687Y66425603D01*
X-20834111Y66428904D01*
X-20875158Y66500000D01*
X-21007061Y66728464D01*
X-21007067Y66728473D01*
X-21008870Y66731596D01*
X-21019229Y66745511D01*
X-21215435Y67009062D01*
X-21215441Y67009069D01*
X-21217588Y67011953D01*
X-21457442Y67266183D01*
X-21573007Y67363153D01*
X-21722429Y67488533D01*
X-21725189Y67490849D01*
X-21877465Y67591003D01*
X-22014187Y67680927D01*
X-22014190Y67680929D01*
X-22017207Y67682913D01*
X-22329549Y67839777D01*
X-22657989Y67959319D01*
X-22828037Y67999621D01*
X-22994579Y68039092D01*
X-22994581Y68039092D01*
X-22998086Y68039923D01*
X-23345241Y68080500D01*
X-23694759Y68080500D01*
X-24041914Y68039923D01*
X-24382011Y67959319D01*
X-24710451Y67839777D01*
X-25022793Y67682913D01*
X-25314811Y67490849D01*
X-25582558Y67266183D01*
X-25822412Y67011953D01*
X-26031130Y66731596D01*
X-26205889Y66428904D01*
X-26344326Y66107971D01*
X-26444569Y65773136D01*
X-26505262Y65428927D01*
X-26525585Y65080000D01*
X-27499500Y65080000D01*
X-27499500Y74551500D01*
X-27479815Y74618539D01*
X-27427011Y74664294D01*
X-27375500Y74675500D01*
X27375500Y74675500D01*
X27442539Y74655815D01*
G37*
%TD.AperFunction*%
%TD*%
M02*
