%TF.GenerationSoftware,KiCad,Pcbnew,7.0.9*%
%TF.CreationDate,2024-08-20T19:02:26-06:00*%
%TF.ProjectId,bottom 40k layer,626f7474-6f6d-4203-9430-6b206c617965,rev?*%
%TF.SameCoordinates,Original*%
%TF.FileFunction,Legend,Top*%
%TF.FilePolarity,Positive*%
%FSLAX46Y46*%
G04 Gerber Fmt 4.6, Leading zero omitted, Abs format (unit mm)*
G04 Created by KiCad (PCBNEW 7.0.9) date 2024-08-20 19:02:26*
%MOMM*%
%LPD*%
G01*
G04 APERTURE LIST*
%ADD10C,0.100000*%
%ADD11C,0.150000*%
%ADD12C,3.450000*%
G04 APERTURE END LIST*
D10*
X122313095Y-20291669D02*
X122313095Y-19291669D01*
X122313095Y-19767859D02*
X122884523Y-19767859D01*
X122884523Y-20291669D02*
X122884523Y-19291669D01*
X123313095Y-19386907D02*
X123360714Y-19339288D01*
X123360714Y-19339288D02*
X123455952Y-19291669D01*
X123455952Y-19291669D02*
X123694047Y-19291669D01*
X123694047Y-19291669D02*
X123789285Y-19339288D01*
X123789285Y-19339288D02*
X123836904Y-19386907D01*
X123836904Y-19386907D02*
X123884523Y-19482145D01*
X123884523Y-19482145D02*
X123884523Y-19577383D01*
X123884523Y-19577383D02*
X123836904Y-19720240D01*
X123836904Y-19720240D02*
X123265476Y-20291669D01*
X123265476Y-20291669D02*
X123884523Y-20291669D01*
X122313095Y-107664169D02*
X122313095Y-106664169D01*
X122313095Y-107140359D02*
X122884523Y-107140359D01*
X122884523Y-107664169D02*
X122884523Y-106664169D01*
X123789285Y-106997502D02*
X123789285Y-107664169D01*
X123551190Y-106616550D02*
X123313095Y-107330835D01*
X123313095Y-107330835D02*
X123932142Y-107330835D01*
X40263095Y-107664169D02*
X40263095Y-106664169D01*
X40263095Y-107140359D02*
X40834523Y-107140359D01*
X40834523Y-107664169D02*
X40834523Y-106664169D01*
X41215476Y-106664169D02*
X41834523Y-106664169D01*
X41834523Y-106664169D02*
X41501190Y-107045121D01*
X41501190Y-107045121D02*
X41644047Y-107045121D01*
X41644047Y-107045121D02*
X41739285Y-107092740D01*
X41739285Y-107092740D02*
X41786904Y-107140359D01*
X41786904Y-107140359D02*
X41834523Y-107235597D01*
X41834523Y-107235597D02*
X41834523Y-107473692D01*
X41834523Y-107473692D02*
X41786904Y-107568930D01*
X41786904Y-107568930D02*
X41739285Y-107616550D01*
X41739285Y-107616550D02*
X41644047Y-107664169D01*
X41644047Y-107664169D02*
X41358333Y-107664169D01*
X41358333Y-107664169D02*
X41263095Y-107616550D01*
X41263095Y-107616550D02*
X41215476Y-107568930D01*
X40263095Y-20291669D02*
X40263095Y-19291669D01*
X40263095Y-19767859D02*
X40834523Y-19767859D01*
X40834523Y-20291669D02*
X40834523Y-19291669D01*
X41834523Y-20291669D02*
X41263095Y-20291669D01*
X41548809Y-20291669D02*
X41548809Y-19291669D01*
X41548809Y-19291669D02*
X41453571Y-19434526D01*
X41453571Y-19434526D02*
X41358333Y-19529764D01*
X41358333Y-19529764D02*
X41263095Y-19577383D01*
%LPC*%
D11*
X-24700000Y17200000D02*
X169900000Y17200000D01*
X169900000Y-180900000D01*
X-24700000Y-180900000D01*
X-24700000Y17200000D01*
G36*
X-24700000Y17200000D02*
G01*
X169900000Y17200000D01*
X169900000Y-180900000D01*
X-24700000Y-180900000D01*
X-24700000Y17200000D01*
G37*
D12*
%TO.C,H2*%
X123075000Y-42686250D03*
%TD*%
%TO.C,H4*%
X123075000Y-130058750D03*
%TD*%
%TO.C,H3*%
X41025000Y-130058750D03*
%TD*%
%TO.C,H1*%
X41025000Y-42686250D03*
%TD*%
%LPD*%
M02*
