%TF.GenerationSoftware,KiCad,Pcbnew,7.0.9*%
%TF.CreationDate,2024-08-20T19:02:26-06:00*%
%TF.ProjectId,bottom 40k layer,626f7474-6f6d-4203-9430-6b206c617965,rev?*%
%TF.SameCoordinates,Original*%
%TF.FileFunction,Copper,L2,Inr*%
%TF.FilePolarity,Positive*%
%FSLAX46Y46*%
G04 Gerber Fmt 4.6, Leading zero omitted, Abs format (unit mm)*
G04 Created by KiCad (PCBNEW 7.0.9) date 2024-08-20 19:02:26*
%MOMM*%
%LPD*%
G01*
G04 APERTURE LIST*
G04 APERTURE END LIST*
%TA.AperFunction,NonConductor*%
G36*
X163102696Y999264D02*
G01*
X163104789Y999080D01*
X163145445Y995523D01*
X163271760Y983082D01*
X163291699Y979454D01*
X163358330Y961601D01*
X163451563Y933318D01*
X163467971Y927040D01*
X163535367Y895614D01*
X163538393Y894101D01*
X163622327Y849236D01*
X163628667Y845341D01*
X163694828Y799015D01*
X163698600Y796154D01*
X163770808Y736895D01*
X163775320Y732806D01*
X163832806Y675320D01*
X163836895Y670808D01*
X163896154Y598600D01*
X163899015Y594828D01*
X163945341Y528667D01*
X163949236Y522327D01*
X163994101Y438393D01*
X163995614Y435367D01*
X164027040Y367971D01*
X164033318Y351563D01*
X164061601Y258330D01*
X164079454Y191699D01*
X164083082Y171760D01*
X164095523Y45445D01*
X164099264Y2698D01*
X164099500Y-2710D01*
X164099500Y-5034789D01*
X164099264Y-5040197D01*
X164095523Y-5082945D01*
X164083082Y-5209260D01*
X164079454Y-5229199D01*
X164061601Y-5295830D01*
X164033318Y-5389063D01*
X164027040Y-5405471D01*
X163995614Y-5472867D01*
X163994101Y-5475893D01*
X163949236Y-5559827D01*
X163945341Y-5566167D01*
X163899015Y-5632328D01*
X163896154Y-5636100D01*
X163836895Y-5708308D01*
X163832806Y-5712820D01*
X163775320Y-5770306D01*
X163770808Y-5774395D01*
X163698600Y-5833654D01*
X163694828Y-5836515D01*
X163628667Y-5882841D01*
X163622327Y-5886736D01*
X163538393Y-5931601D01*
X163535367Y-5933114D01*
X163467971Y-5964540D01*
X163451563Y-5970818D01*
X163358330Y-5999101D01*
X163291699Y-6016954D01*
X163271760Y-6020582D01*
X163145445Y-6033023D01*
X163104789Y-6036580D01*
X163102696Y-6036764D01*
X163097290Y-6037000D01*
X156125500Y-6037000D01*
X156125000Y-6037000D01*
X155970626Y-6037000D01*
X155702297Y-6068362D01*
X155663964Y-6072843D01*
X155663949Y-6072845D01*
X155363549Y-6144043D01*
X155363527Y-6144050D01*
X155073409Y-6249644D01*
X155073403Y-6249647D01*
X154797500Y-6388210D01*
X154539554Y-6557864D01*
X154539546Y-6557870D01*
X154303042Y-6756321D01*
X154303032Y-6756331D01*
X154091159Y-6980901D01*
X154091154Y-6980907D01*
X153906787Y-7228556D01*
X153752414Y-7495938D01*
X153752408Y-7495950D01*
X153630123Y-7779439D01*
X153541573Y-8075220D01*
X153541570Y-8075231D01*
X153487961Y-8379265D01*
X153487960Y-8379273D01*
X153470008Y-8687496D01*
X153470008Y-8687503D01*
X153487960Y-8995726D01*
X153487961Y-8995734D01*
X153541570Y-9299768D01*
X153541573Y-9299779D01*
X153630123Y-9595560D01*
X153752408Y-9879049D01*
X153752414Y-9879061D01*
X153906787Y-10146443D01*
X154091154Y-10394092D01*
X154091159Y-10394098D01*
X154196448Y-10505697D01*
X154303034Y-10618671D01*
X154303040Y-10618676D01*
X154303042Y-10618678D01*
X154539546Y-10817129D01*
X154539554Y-10817135D01*
X154797500Y-10986789D01*
X154797504Y-10986791D01*
X155073411Y-11125356D01*
X155363540Y-11230954D01*
X155406754Y-11241196D01*
X155663949Y-11302154D01*
X155663956Y-11302155D01*
X155663965Y-11302157D01*
X155970626Y-11338000D01*
X156124901Y-11338000D01*
X163097293Y-11338000D01*
X163102695Y-11338235D01*
X163145519Y-11341982D01*
X163271771Y-11354418D01*
X163291685Y-11358041D01*
X163358349Y-11375903D01*
X163451570Y-11404182D01*
X163467971Y-11410458D01*
X163535411Y-11441906D01*
X163538375Y-11443388D01*
X163575969Y-11463482D01*
X163622327Y-11488262D01*
X163628667Y-11492157D01*
X163694828Y-11538483D01*
X163698600Y-11541344D01*
X163770808Y-11600603D01*
X163775309Y-11604682D01*
X163832815Y-11662188D01*
X163836895Y-11666690D01*
X163896154Y-11738898D01*
X163899015Y-11742670D01*
X163945341Y-11808831D01*
X163949236Y-11815171D01*
X163994101Y-11899105D01*
X163995614Y-11902131D01*
X164027040Y-11969527D01*
X164033319Y-11985935D01*
X164061601Y-12079169D01*
X164079454Y-12145799D01*
X164083082Y-12165738D01*
X164095523Y-12292054D01*
X164099264Y-12334802D01*
X164099500Y-12340210D01*
X164099500Y-21867289D01*
X164099264Y-21872697D01*
X164095523Y-21915445D01*
X164083082Y-22041760D01*
X164079454Y-22061699D01*
X164061601Y-22128330D01*
X164033318Y-22221563D01*
X164027040Y-22237971D01*
X163995614Y-22305367D01*
X163994101Y-22308393D01*
X163949236Y-22392327D01*
X163945341Y-22398667D01*
X163899015Y-22464828D01*
X163896154Y-22468600D01*
X163836895Y-22540808D01*
X163832806Y-22545320D01*
X163775320Y-22602806D01*
X163770808Y-22606895D01*
X163698600Y-22666154D01*
X163694828Y-22669015D01*
X163628667Y-22715341D01*
X163622327Y-22719236D01*
X163538393Y-22764101D01*
X163535367Y-22765614D01*
X163467971Y-22797040D01*
X163451563Y-22803318D01*
X163358330Y-22831601D01*
X163291699Y-22849454D01*
X163271760Y-22853082D01*
X163145445Y-22865523D01*
X163104789Y-22869080D01*
X163102696Y-22869264D01*
X163097290Y-22869500D01*
X156125500Y-22869500D01*
X156125000Y-22869500D01*
X155970626Y-22869500D01*
X155702297Y-22900862D01*
X155663964Y-22905343D01*
X155663949Y-22905345D01*
X155363549Y-22976543D01*
X155363527Y-22976550D01*
X155073409Y-23082144D01*
X155073403Y-23082147D01*
X154797500Y-23220710D01*
X154539554Y-23390364D01*
X154539546Y-23390370D01*
X154303042Y-23588821D01*
X154303032Y-23588831D01*
X154091159Y-23813401D01*
X154091154Y-23813407D01*
X153906787Y-24061056D01*
X153752414Y-24328438D01*
X153752408Y-24328450D01*
X153630123Y-24611939D01*
X153541573Y-24907720D01*
X153541570Y-24907731D01*
X153487961Y-25211765D01*
X153487960Y-25211773D01*
X153470008Y-25519996D01*
X153470008Y-25520003D01*
X153487960Y-25828226D01*
X153487961Y-25828234D01*
X153541570Y-26132268D01*
X153541573Y-26132279D01*
X153630123Y-26428060D01*
X153752408Y-26711549D01*
X153752414Y-26711561D01*
X153906787Y-26978943D01*
X154091154Y-27226592D01*
X154091159Y-27226598D01*
X154196448Y-27338197D01*
X154303034Y-27451171D01*
X154303040Y-27451176D01*
X154303042Y-27451178D01*
X154539546Y-27649629D01*
X154539554Y-27649635D01*
X154797500Y-27819289D01*
X154797504Y-27819291D01*
X155073411Y-27957856D01*
X155363540Y-28063454D01*
X155406754Y-28073696D01*
X155663949Y-28134654D01*
X155663956Y-28134655D01*
X155663965Y-28134657D01*
X155970626Y-28170500D01*
X156124901Y-28170500D01*
X163097293Y-28170500D01*
X163102695Y-28170735D01*
X163145519Y-28174482D01*
X163271771Y-28186918D01*
X163291685Y-28190541D01*
X163358349Y-28208403D01*
X163451570Y-28236682D01*
X163467971Y-28242958D01*
X163535411Y-28274406D01*
X163538375Y-28275888D01*
X163575969Y-28295982D01*
X163622327Y-28320762D01*
X163628667Y-28324657D01*
X163694828Y-28370983D01*
X163698600Y-28373844D01*
X163770808Y-28433103D01*
X163775309Y-28437182D01*
X163832815Y-28494688D01*
X163836895Y-28499190D01*
X163896154Y-28571398D01*
X163899015Y-28575170D01*
X163945341Y-28641331D01*
X163949236Y-28647671D01*
X163994101Y-28731605D01*
X163995614Y-28734631D01*
X164027040Y-28802027D01*
X164033319Y-28818435D01*
X164061601Y-28911669D01*
X164079454Y-28978299D01*
X164083082Y-28998238D01*
X164095523Y-29124554D01*
X164099264Y-29167302D01*
X164099500Y-29172710D01*
X164099500Y-47267289D01*
X164099264Y-47272697D01*
X164095523Y-47315445D01*
X164083082Y-47441760D01*
X164079454Y-47461699D01*
X164061601Y-47528330D01*
X164033318Y-47621563D01*
X164027040Y-47637971D01*
X163995614Y-47705367D01*
X163994101Y-47708393D01*
X163949236Y-47792327D01*
X163945341Y-47798667D01*
X163899015Y-47864828D01*
X163896154Y-47868600D01*
X163836895Y-47940808D01*
X163832806Y-47945320D01*
X163775320Y-48002806D01*
X163770808Y-48006895D01*
X163698600Y-48066154D01*
X163694828Y-48069015D01*
X163628667Y-48115341D01*
X163622327Y-48119236D01*
X163538393Y-48164101D01*
X163535367Y-48165614D01*
X163467971Y-48197040D01*
X163451563Y-48203318D01*
X163358330Y-48231601D01*
X163291699Y-48249454D01*
X163271760Y-48253082D01*
X163145445Y-48265523D01*
X163104789Y-48269080D01*
X163102696Y-48269264D01*
X163097290Y-48269500D01*
X156125500Y-48269500D01*
X156125000Y-48269500D01*
X155970626Y-48269500D01*
X155702297Y-48300862D01*
X155663964Y-48305343D01*
X155663949Y-48305345D01*
X155363549Y-48376543D01*
X155363527Y-48376550D01*
X155073409Y-48482144D01*
X155073403Y-48482147D01*
X154797500Y-48620710D01*
X154539554Y-48790364D01*
X154539546Y-48790370D01*
X154303042Y-48988821D01*
X154303032Y-48988831D01*
X154091159Y-49213401D01*
X154091154Y-49213407D01*
X153906787Y-49461056D01*
X153752414Y-49728438D01*
X153752408Y-49728450D01*
X153630123Y-50011939D01*
X153541573Y-50307720D01*
X153541570Y-50307731D01*
X153487961Y-50611765D01*
X153487960Y-50611773D01*
X153470008Y-50919996D01*
X153470008Y-50920003D01*
X153487960Y-51228226D01*
X153487961Y-51228234D01*
X153541570Y-51532268D01*
X153541573Y-51532279D01*
X153630123Y-51828060D01*
X153752408Y-52111549D01*
X153752414Y-52111561D01*
X153906787Y-52378943D01*
X154091154Y-52626592D01*
X154091159Y-52626598D01*
X154196448Y-52738197D01*
X154303034Y-52851171D01*
X154303040Y-52851176D01*
X154303042Y-52851178D01*
X154539546Y-53049629D01*
X154539554Y-53049635D01*
X154797500Y-53219289D01*
X154797504Y-53219291D01*
X155073411Y-53357856D01*
X155363540Y-53463454D01*
X155406754Y-53473696D01*
X155663949Y-53534654D01*
X155663956Y-53534655D01*
X155663965Y-53534657D01*
X155970626Y-53570500D01*
X156124901Y-53570500D01*
X163097293Y-53570500D01*
X163102695Y-53570735D01*
X163145519Y-53574482D01*
X163271771Y-53586918D01*
X163291685Y-53590541D01*
X163358349Y-53608403D01*
X163451570Y-53636682D01*
X163467971Y-53642958D01*
X163535411Y-53674406D01*
X163538375Y-53675888D01*
X163575969Y-53695982D01*
X163622327Y-53720762D01*
X163628667Y-53724657D01*
X163694828Y-53770983D01*
X163698600Y-53773844D01*
X163770808Y-53833103D01*
X163775309Y-53837182D01*
X163832815Y-53894688D01*
X163836895Y-53899190D01*
X163896154Y-53971398D01*
X163899015Y-53975170D01*
X163945341Y-54041331D01*
X163949236Y-54047671D01*
X163994101Y-54131605D01*
X163995614Y-54134631D01*
X164027040Y-54202027D01*
X164033319Y-54218435D01*
X164061601Y-54311669D01*
X164079454Y-54378299D01*
X164083082Y-54398238D01*
X164095523Y-54524554D01*
X164099264Y-54567302D01*
X164099500Y-54572710D01*
X164099500Y-72667289D01*
X164099264Y-72672697D01*
X164095523Y-72715445D01*
X164083082Y-72841760D01*
X164079454Y-72861699D01*
X164061601Y-72928330D01*
X164033318Y-73021563D01*
X164027040Y-73037971D01*
X163995614Y-73105367D01*
X163994101Y-73108393D01*
X163949236Y-73192327D01*
X163945341Y-73198667D01*
X163899015Y-73264828D01*
X163896154Y-73268600D01*
X163836895Y-73340808D01*
X163832806Y-73345320D01*
X163775320Y-73402806D01*
X163770808Y-73406895D01*
X163698600Y-73466154D01*
X163694828Y-73469015D01*
X163628667Y-73515341D01*
X163622327Y-73519236D01*
X163538393Y-73564101D01*
X163535367Y-73565614D01*
X163467971Y-73597040D01*
X163451563Y-73603318D01*
X163358330Y-73631601D01*
X163291699Y-73649454D01*
X163271760Y-73653082D01*
X163145445Y-73665523D01*
X163104789Y-73669080D01*
X163102696Y-73669264D01*
X163097290Y-73669500D01*
X156125500Y-73669500D01*
X156125000Y-73669500D01*
X155970626Y-73669500D01*
X155702297Y-73700862D01*
X155663964Y-73705343D01*
X155663949Y-73705345D01*
X155363549Y-73776543D01*
X155363527Y-73776550D01*
X155073409Y-73882144D01*
X155073403Y-73882147D01*
X154797500Y-74020710D01*
X154539554Y-74190364D01*
X154539546Y-74190370D01*
X154303042Y-74388821D01*
X154303032Y-74388831D01*
X154091159Y-74613401D01*
X154091154Y-74613407D01*
X153906787Y-74861056D01*
X153752414Y-75128438D01*
X153752408Y-75128450D01*
X153630123Y-75411939D01*
X153541573Y-75707720D01*
X153541570Y-75707731D01*
X153487961Y-76011765D01*
X153487960Y-76011773D01*
X153470008Y-76319996D01*
X153470008Y-76320003D01*
X153487960Y-76628226D01*
X153487961Y-76628234D01*
X153541570Y-76932268D01*
X153541573Y-76932279D01*
X153630123Y-77228060D01*
X153752408Y-77511549D01*
X153752414Y-77511561D01*
X153906787Y-77778943D01*
X154091154Y-78026592D01*
X154091159Y-78026598D01*
X154196448Y-78138197D01*
X154303034Y-78251171D01*
X154303040Y-78251176D01*
X154303042Y-78251178D01*
X154539546Y-78449629D01*
X154539554Y-78449635D01*
X154797500Y-78619289D01*
X154797504Y-78619291D01*
X155073411Y-78757856D01*
X155363540Y-78863454D01*
X155406754Y-78873696D01*
X155663949Y-78934654D01*
X155663956Y-78934655D01*
X155663965Y-78934657D01*
X155970626Y-78970500D01*
X156124901Y-78970500D01*
X163097293Y-78970500D01*
X163102695Y-78970735D01*
X163145519Y-78974482D01*
X163271771Y-78986918D01*
X163291685Y-78990541D01*
X163358349Y-79008403D01*
X163451570Y-79036682D01*
X163467971Y-79042958D01*
X163535411Y-79074406D01*
X163538375Y-79075888D01*
X163575969Y-79095982D01*
X163622327Y-79120762D01*
X163628667Y-79124657D01*
X163694828Y-79170983D01*
X163698600Y-79173844D01*
X163770808Y-79233103D01*
X163775309Y-79237182D01*
X163832815Y-79294688D01*
X163836895Y-79299190D01*
X163896154Y-79371398D01*
X163899015Y-79375170D01*
X163945341Y-79441331D01*
X163949236Y-79447671D01*
X163994101Y-79531605D01*
X163995614Y-79534631D01*
X164027040Y-79602027D01*
X164033319Y-79618435D01*
X164061601Y-79711669D01*
X164079454Y-79778299D01*
X164083082Y-79798238D01*
X164095523Y-79924554D01*
X164099264Y-79967302D01*
X164099500Y-79972710D01*
X164099500Y-98067289D01*
X164099264Y-98072697D01*
X164095523Y-98115445D01*
X164083082Y-98241760D01*
X164079454Y-98261699D01*
X164061601Y-98328330D01*
X164033318Y-98421563D01*
X164027040Y-98437971D01*
X163995614Y-98505367D01*
X163994101Y-98508393D01*
X163949236Y-98592327D01*
X163945341Y-98598667D01*
X163899015Y-98664828D01*
X163896154Y-98668600D01*
X163836895Y-98740808D01*
X163832806Y-98745320D01*
X163775320Y-98802806D01*
X163770808Y-98806895D01*
X163698600Y-98866154D01*
X163694828Y-98869015D01*
X163628667Y-98915341D01*
X163622327Y-98919236D01*
X163538393Y-98964101D01*
X163535367Y-98965614D01*
X163467971Y-98997040D01*
X163451563Y-99003318D01*
X163358330Y-99031601D01*
X163291699Y-99049454D01*
X163271760Y-99053082D01*
X163145445Y-99065523D01*
X163104789Y-99069080D01*
X163102696Y-99069264D01*
X163097290Y-99069500D01*
X156125500Y-99069500D01*
X156125000Y-99069500D01*
X155970626Y-99069500D01*
X155702297Y-99100862D01*
X155663964Y-99105343D01*
X155663949Y-99105345D01*
X155363549Y-99176543D01*
X155363527Y-99176550D01*
X155073409Y-99282144D01*
X155073403Y-99282147D01*
X154797500Y-99420710D01*
X154539554Y-99590364D01*
X154539546Y-99590370D01*
X154303042Y-99788821D01*
X154303032Y-99788831D01*
X154091159Y-100013401D01*
X154091154Y-100013407D01*
X153906787Y-100261056D01*
X153752414Y-100528438D01*
X153752408Y-100528450D01*
X153630123Y-100811939D01*
X153541573Y-101107720D01*
X153541570Y-101107731D01*
X153487961Y-101411765D01*
X153487960Y-101411773D01*
X153470008Y-101719996D01*
X153470008Y-101720003D01*
X153487960Y-102028226D01*
X153487961Y-102028234D01*
X153541570Y-102332268D01*
X153541573Y-102332279D01*
X153630123Y-102628060D01*
X153752408Y-102911549D01*
X153752414Y-102911561D01*
X153906787Y-103178943D01*
X154091154Y-103426592D01*
X154091159Y-103426598D01*
X154196448Y-103538197D01*
X154303034Y-103651171D01*
X154303040Y-103651176D01*
X154303042Y-103651178D01*
X154539546Y-103849629D01*
X154539554Y-103849635D01*
X154797500Y-104019289D01*
X154797504Y-104019291D01*
X155073411Y-104157856D01*
X155363540Y-104263454D01*
X155406754Y-104273696D01*
X155663949Y-104334654D01*
X155663956Y-104334655D01*
X155663965Y-104334657D01*
X155970626Y-104370500D01*
X156124901Y-104370500D01*
X163097293Y-104370500D01*
X163102695Y-104370735D01*
X163145519Y-104374482D01*
X163271771Y-104386918D01*
X163291685Y-104390541D01*
X163358349Y-104408403D01*
X163451570Y-104436682D01*
X163467971Y-104442958D01*
X163535411Y-104474406D01*
X163538375Y-104475888D01*
X163575969Y-104495982D01*
X163622327Y-104520762D01*
X163628667Y-104524657D01*
X163694828Y-104570983D01*
X163698600Y-104573844D01*
X163770808Y-104633103D01*
X163775309Y-104637182D01*
X163832815Y-104694688D01*
X163836895Y-104699190D01*
X163896154Y-104771398D01*
X163899015Y-104775170D01*
X163945341Y-104841331D01*
X163949236Y-104847671D01*
X163994101Y-104931605D01*
X163995614Y-104934631D01*
X164027040Y-105002027D01*
X164033319Y-105018435D01*
X164061601Y-105111669D01*
X164079454Y-105178299D01*
X164083082Y-105198238D01*
X164095523Y-105324554D01*
X164099264Y-105367302D01*
X164099500Y-105372710D01*
X164099500Y-123467289D01*
X164099264Y-123472697D01*
X164095523Y-123515445D01*
X164083082Y-123641760D01*
X164079454Y-123661699D01*
X164061601Y-123728330D01*
X164033318Y-123821563D01*
X164027040Y-123837971D01*
X163995614Y-123905367D01*
X163994101Y-123908393D01*
X163949236Y-123992327D01*
X163945341Y-123998667D01*
X163899015Y-124064828D01*
X163896154Y-124068600D01*
X163836895Y-124140808D01*
X163832806Y-124145320D01*
X163775320Y-124202806D01*
X163770808Y-124206895D01*
X163698600Y-124266154D01*
X163694828Y-124269015D01*
X163628667Y-124315341D01*
X163622327Y-124319236D01*
X163538393Y-124364101D01*
X163535367Y-124365614D01*
X163467971Y-124397040D01*
X163451563Y-124403318D01*
X163358330Y-124431601D01*
X163291699Y-124449454D01*
X163271760Y-124453082D01*
X163145445Y-124465523D01*
X163104789Y-124469080D01*
X163102696Y-124469264D01*
X163097290Y-124469500D01*
X156125500Y-124469500D01*
X156125000Y-124469500D01*
X155970626Y-124469500D01*
X155702297Y-124500862D01*
X155663964Y-124505343D01*
X155663949Y-124505345D01*
X155363549Y-124576543D01*
X155363527Y-124576550D01*
X155073409Y-124682144D01*
X155073403Y-124682147D01*
X154797500Y-124820710D01*
X154539554Y-124990364D01*
X154539546Y-124990370D01*
X154303042Y-125188821D01*
X154303032Y-125188831D01*
X154091159Y-125413401D01*
X154091154Y-125413407D01*
X153906787Y-125661056D01*
X153752414Y-125928438D01*
X153752408Y-125928450D01*
X153630123Y-126211939D01*
X153541573Y-126507720D01*
X153541570Y-126507731D01*
X153487961Y-126811765D01*
X153487960Y-126811773D01*
X153470008Y-127119996D01*
X153470008Y-127120003D01*
X153487960Y-127428226D01*
X153487961Y-127428234D01*
X153541570Y-127732268D01*
X153541573Y-127732279D01*
X153541574Y-127732283D01*
X153542552Y-127735550D01*
X153630123Y-128028060D01*
X153752408Y-128311549D01*
X153752414Y-128311561D01*
X153906787Y-128578943D01*
X154091154Y-128826592D01*
X154091159Y-128826598D01*
X154164951Y-128904812D01*
X154303034Y-129051171D01*
X154303040Y-129051176D01*
X154303042Y-129051178D01*
X154539546Y-129249629D01*
X154539554Y-129249635D01*
X154797500Y-129419289D01*
X154797504Y-129419291D01*
X155073411Y-129557856D01*
X155363540Y-129663454D01*
X155406754Y-129673696D01*
X155663949Y-129734654D01*
X155663956Y-129734655D01*
X155663965Y-129734657D01*
X155970626Y-129770500D01*
X156124901Y-129770500D01*
X163097293Y-129770500D01*
X163102695Y-129770735D01*
X163145519Y-129774482D01*
X163271771Y-129786918D01*
X163291685Y-129790541D01*
X163358349Y-129808403D01*
X163451570Y-129836682D01*
X163467971Y-129842958D01*
X163535411Y-129874406D01*
X163538375Y-129875888D01*
X163575969Y-129895982D01*
X163622327Y-129920762D01*
X163628667Y-129924657D01*
X163694828Y-129970983D01*
X163698600Y-129973844D01*
X163770808Y-130033103D01*
X163775309Y-130037182D01*
X163832815Y-130094688D01*
X163836895Y-130099190D01*
X163896154Y-130171398D01*
X163899015Y-130175170D01*
X163945341Y-130241331D01*
X163949236Y-130247671D01*
X163994101Y-130331605D01*
X163995614Y-130334631D01*
X164027040Y-130402027D01*
X164033319Y-130418435D01*
X164061601Y-130511669D01*
X164079454Y-130578299D01*
X164083082Y-130598238D01*
X164095523Y-130724554D01*
X164099264Y-130767302D01*
X164099500Y-130772710D01*
X164099500Y-148867289D01*
X164099264Y-148872697D01*
X164095523Y-148915445D01*
X164083082Y-149041760D01*
X164079454Y-149061699D01*
X164061601Y-149128330D01*
X164033318Y-149221563D01*
X164027040Y-149237971D01*
X163995614Y-149305367D01*
X163994101Y-149308393D01*
X163949236Y-149392327D01*
X163945341Y-149398667D01*
X163899015Y-149464828D01*
X163896154Y-149468600D01*
X163836895Y-149540808D01*
X163832806Y-149545320D01*
X163775320Y-149602806D01*
X163770808Y-149606895D01*
X163698600Y-149666154D01*
X163694828Y-149669015D01*
X163628667Y-149715341D01*
X163622327Y-149719236D01*
X163538393Y-149764101D01*
X163535367Y-149765614D01*
X163467971Y-149797040D01*
X163451563Y-149803318D01*
X163358330Y-149831601D01*
X163291699Y-149849454D01*
X163271760Y-149853082D01*
X163145445Y-149865523D01*
X163104789Y-149869080D01*
X163102696Y-149869264D01*
X163097290Y-149869500D01*
X156125500Y-149869500D01*
X156125000Y-149869500D01*
X155970626Y-149869500D01*
X155702297Y-149900862D01*
X155663964Y-149905343D01*
X155663949Y-149905345D01*
X155363549Y-149976543D01*
X155363527Y-149976550D01*
X155073409Y-150082144D01*
X155073403Y-150082147D01*
X154797500Y-150220710D01*
X154539554Y-150390364D01*
X154539546Y-150390370D01*
X154303042Y-150588821D01*
X154303032Y-150588831D01*
X154091159Y-150813401D01*
X154091154Y-150813407D01*
X153906787Y-151061056D01*
X153752414Y-151328438D01*
X153752408Y-151328450D01*
X153630123Y-151611939D01*
X153541573Y-151907720D01*
X153541570Y-151907731D01*
X153487961Y-152211765D01*
X153487960Y-152211773D01*
X153470008Y-152519996D01*
X153470008Y-152520003D01*
X153487960Y-152828226D01*
X153487961Y-152828234D01*
X153541570Y-153132268D01*
X153541573Y-153132279D01*
X153630123Y-153428060D01*
X153752408Y-153711549D01*
X153752414Y-153711561D01*
X153906787Y-153978943D01*
X154091154Y-154226592D01*
X154091159Y-154226598D01*
X154196448Y-154338197D01*
X154303034Y-154451171D01*
X154303040Y-154451176D01*
X154303042Y-154451178D01*
X154539546Y-154649629D01*
X154539554Y-154649635D01*
X154797500Y-154819289D01*
X154797504Y-154819291D01*
X155073411Y-154957856D01*
X155363540Y-155063454D01*
X155406754Y-155073696D01*
X155663949Y-155134654D01*
X155663956Y-155134655D01*
X155663965Y-155134657D01*
X155970626Y-155170500D01*
X156124901Y-155170500D01*
X163097293Y-155170500D01*
X163102695Y-155170735D01*
X163145519Y-155174482D01*
X163271771Y-155186918D01*
X163291685Y-155190541D01*
X163358349Y-155208403D01*
X163451570Y-155236682D01*
X163467971Y-155242958D01*
X163535411Y-155274406D01*
X163538375Y-155275888D01*
X163575969Y-155295982D01*
X163622327Y-155320762D01*
X163628667Y-155324657D01*
X163694828Y-155370983D01*
X163698600Y-155373844D01*
X163770808Y-155433103D01*
X163775309Y-155437182D01*
X163832815Y-155494688D01*
X163836895Y-155499190D01*
X163896154Y-155571398D01*
X163899015Y-155575170D01*
X163945341Y-155641331D01*
X163949236Y-155647671D01*
X163994101Y-155731605D01*
X163995614Y-155734631D01*
X164027040Y-155802027D01*
X164033319Y-155818435D01*
X164061601Y-155911669D01*
X164079454Y-155978299D01*
X164083082Y-155998238D01*
X164095523Y-156124554D01*
X164099264Y-156167302D01*
X164099500Y-156172710D01*
X164099500Y-172742289D01*
X164099264Y-172747697D01*
X164095523Y-172790445D01*
X164083082Y-172916760D01*
X164079454Y-172936699D01*
X164061601Y-173003330D01*
X164033318Y-173096563D01*
X164027040Y-173112971D01*
X163995614Y-173180367D01*
X163994101Y-173183393D01*
X163949236Y-173267327D01*
X163945341Y-173273667D01*
X163899015Y-173339828D01*
X163896154Y-173343600D01*
X163836895Y-173415808D01*
X163832806Y-173420320D01*
X163775320Y-173477806D01*
X163770808Y-173481895D01*
X163698600Y-173541154D01*
X163694828Y-173544015D01*
X163628667Y-173590341D01*
X163622327Y-173594236D01*
X163538393Y-173639101D01*
X163535367Y-173640614D01*
X163467971Y-173672040D01*
X163451563Y-173678318D01*
X163358330Y-173706601D01*
X163291699Y-173724454D01*
X163271760Y-173728082D01*
X163145445Y-173740523D01*
X163104789Y-173744080D01*
X163102696Y-173744264D01*
X163097290Y-173744500D01*
X1002710Y-173744500D01*
X997303Y-173744264D01*
X995015Y-173744063D01*
X954554Y-173740523D01*
X828238Y-173728082D01*
X808299Y-173724454D01*
X741669Y-173706601D01*
X648435Y-173678319D01*
X632027Y-173672040D01*
X583433Y-173649381D01*
X564618Y-173640607D01*
X561605Y-173639101D01*
X477671Y-173594236D01*
X471331Y-173590341D01*
X405170Y-173544015D01*
X401398Y-173541154D01*
X329190Y-173481895D01*
X324688Y-173477815D01*
X267182Y-173420309D01*
X263103Y-173415808D01*
X203844Y-173343600D01*
X200983Y-173339828D01*
X154657Y-173273667D01*
X150762Y-173267327D01*
X125982Y-173220969D01*
X105888Y-173183375D01*
X104406Y-173180411D01*
X72958Y-173112971D01*
X66682Y-173096570D01*
X38398Y-173003330D01*
X20541Y-172936685D01*
X16918Y-172916771D01*
X4482Y-172790519D01*
X735Y-172747695D01*
X500Y-172742293D01*
X500Y-168982503D01*
X10595008Y-168982503D01*
X10612960Y-169290726D01*
X10612961Y-169290734D01*
X10666570Y-169594768D01*
X10666573Y-169594779D01*
X10755123Y-169890560D01*
X10877408Y-170174049D01*
X10877414Y-170174061D01*
X11031787Y-170441443D01*
X11216154Y-170689092D01*
X11216159Y-170689098D01*
X11321448Y-170800697D01*
X11428034Y-170913671D01*
X11428040Y-170913676D01*
X11428042Y-170913678D01*
X11664546Y-171112129D01*
X11664554Y-171112135D01*
X11922500Y-171281789D01*
X11922504Y-171281791D01*
X12198411Y-171420356D01*
X12488540Y-171525954D01*
X12531754Y-171536196D01*
X12788949Y-171597154D01*
X12788956Y-171597155D01*
X12788965Y-171597157D01*
X13095626Y-171633000D01*
X13095633Y-171633000D01*
X18704367Y-171633000D01*
X18704374Y-171633000D01*
X19011035Y-171597157D01*
X19011044Y-171597154D01*
X19011050Y-171597154D01*
X19191290Y-171554435D01*
X19311460Y-171525954D01*
X19601589Y-171420356D01*
X19877496Y-171281791D01*
X20135451Y-171112131D01*
X20371966Y-170913671D01*
X20583842Y-170689096D01*
X20768213Y-170441442D01*
X20922588Y-170174058D01*
X21044876Y-169890561D01*
X21133426Y-169594783D01*
X21187040Y-169290726D01*
X21204992Y-168982503D01*
X35995008Y-168982503D01*
X36012960Y-169290726D01*
X36012961Y-169290734D01*
X36066570Y-169594768D01*
X36066573Y-169594779D01*
X36155123Y-169890560D01*
X36277408Y-170174049D01*
X36277414Y-170174061D01*
X36431787Y-170441443D01*
X36616154Y-170689092D01*
X36616159Y-170689098D01*
X36721448Y-170800697D01*
X36828034Y-170913671D01*
X36828040Y-170913676D01*
X36828042Y-170913678D01*
X37064546Y-171112129D01*
X37064554Y-171112135D01*
X37322500Y-171281789D01*
X37322504Y-171281791D01*
X37598411Y-171420356D01*
X37888540Y-171525954D01*
X37931754Y-171536196D01*
X38188949Y-171597154D01*
X38188956Y-171597155D01*
X38188965Y-171597157D01*
X38495626Y-171633000D01*
X38495633Y-171633000D01*
X44104367Y-171633000D01*
X44104374Y-171633000D01*
X44411035Y-171597157D01*
X44411044Y-171597154D01*
X44411050Y-171597154D01*
X44591290Y-171554435D01*
X44711460Y-171525954D01*
X45001589Y-171420356D01*
X45277496Y-171281791D01*
X45535451Y-171112131D01*
X45771966Y-170913671D01*
X45983842Y-170689096D01*
X46168213Y-170441442D01*
X46322588Y-170174058D01*
X46444876Y-169890561D01*
X46533426Y-169594783D01*
X46587040Y-169290726D01*
X46604992Y-168982503D01*
X61395008Y-168982503D01*
X61412960Y-169290726D01*
X61412961Y-169290734D01*
X61466570Y-169594768D01*
X61466573Y-169594779D01*
X61555123Y-169890560D01*
X61677408Y-170174049D01*
X61677414Y-170174061D01*
X61831787Y-170441443D01*
X62016154Y-170689092D01*
X62016159Y-170689098D01*
X62121448Y-170800697D01*
X62228034Y-170913671D01*
X62228040Y-170913676D01*
X62228042Y-170913678D01*
X62464546Y-171112129D01*
X62464554Y-171112135D01*
X62722500Y-171281789D01*
X62722504Y-171281791D01*
X62998411Y-171420356D01*
X63288540Y-171525954D01*
X63331754Y-171536196D01*
X63588949Y-171597154D01*
X63588956Y-171597155D01*
X63588965Y-171597157D01*
X63895626Y-171633000D01*
X63895633Y-171633000D01*
X69504367Y-171633000D01*
X69504374Y-171633000D01*
X69811035Y-171597157D01*
X69811044Y-171597154D01*
X69811050Y-171597154D01*
X69991290Y-171554435D01*
X70111460Y-171525954D01*
X70401589Y-171420356D01*
X70677496Y-171281791D01*
X70935451Y-171112131D01*
X71171966Y-170913671D01*
X71383842Y-170689096D01*
X71568213Y-170441442D01*
X71722588Y-170174058D01*
X71844876Y-169890561D01*
X71933426Y-169594783D01*
X71987040Y-169290726D01*
X72004992Y-168982503D01*
X86795008Y-168982503D01*
X86812960Y-169290726D01*
X86812961Y-169290734D01*
X86866570Y-169594768D01*
X86866573Y-169594779D01*
X86955123Y-169890560D01*
X87077408Y-170174049D01*
X87077414Y-170174061D01*
X87231787Y-170441443D01*
X87416154Y-170689092D01*
X87416159Y-170689098D01*
X87521448Y-170800697D01*
X87628034Y-170913671D01*
X87628040Y-170913676D01*
X87628042Y-170913678D01*
X87864546Y-171112129D01*
X87864554Y-171112135D01*
X88122500Y-171281789D01*
X88122504Y-171281791D01*
X88398411Y-171420356D01*
X88688540Y-171525954D01*
X88731754Y-171536196D01*
X88988949Y-171597154D01*
X88988956Y-171597155D01*
X88988965Y-171597157D01*
X89295626Y-171633000D01*
X89295633Y-171633000D01*
X94904367Y-171633000D01*
X94904374Y-171633000D01*
X95211035Y-171597157D01*
X95211044Y-171597154D01*
X95211050Y-171597154D01*
X95391290Y-171554435D01*
X95511460Y-171525954D01*
X95801589Y-171420356D01*
X96077496Y-171281791D01*
X96335451Y-171112131D01*
X96571966Y-170913671D01*
X96783842Y-170689096D01*
X96968213Y-170441442D01*
X97122588Y-170174058D01*
X97244876Y-169890561D01*
X97333426Y-169594783D01*
X97387040Y-169290726D01*
X97404992Y-168982503D01*
X112195008Y-168982503D01*
X112212960Y-169290726D01*
X112212961Y-169290734D01*
X112266570Y-169594768D01*
X112266573Y-169594779D01*
X112355123Y-169890560D01*
X112477408Y-170174049D01*
X112477414Y-170174061D01*
X112631787Y-170441443D01*
X112816154Y-170689092D01*
X112816159Y-170689098D01*
X112921448Y-170800697D01*
X113028034Y-170913671D01*
X113028040Y-170913676D01*
X113028042Y-170913678D01*
X113264546Y-171112129D01*
X113264554Y-171112135D01*
X113522500Y-171281789D01*
X113522504Y-171281791D01*
X113798411Y-171420356D01*
X114088540Y-171525954D01*
X114131754Y-171536196D01*
X114388949Y-171597154D01*
X114388956Y-171597155D01*
X114388965Y-171597157D01*
X114695626Y-171633000D01*
X114695633Y-171633000D01*
X120304367Y-171633000D01*
X120304374Y-171633000D01*
X120611035Y-171597157D01*
X120611044Y-171597154D01*
X120611050Y-171597154D01*
X120791290Y-171554435D01*
X120911460Y-171525954D01*
X121201589Y-171420356D01*
X121477496Y-171281791D01*
X121735451Y-171112131D01*
X121971966Y-170913671D01*
X122183842Y-170689096D01*
X122368213Y-170441442D01*
X122522588Y-170174058D01*
X122644876Y-169890561D01*
X122733426Y-169594783D01*
X122787040Y-169290726D01*
X122804992Y-168982503D01*
X137595008Y-168982503D01*
X137612960Y-169290726D01*
X137612961Y-169290734D01*
X137666570Y-169594768D01*
X137666573Y-169594779D01*
X137755123Y-169890560D01*
X137877408Y-170174049D01*
X137877414Y-170174061D01*
X138031787Y-170441443D01*
X138216154Y-170689092D01*
X138216159Y-170689098D01*
X138321448Y-170800697D01*
X138428034Y-170913671D01*
X138428040Y-170913676D01*
X138428042Y-170913678D01*
X138664546Y-171112129D01*
X138664554Y-171112135D01*
X138922500Y-171281789D01*
X138922504Y-171281791D01*
X139198411Y-171420356D01*
X139488540Y-171525954D01*
X139531754Y-171536196D01*
X139788949Y-171597154D01*
X139788956Y-171597155D01*
X139788965Y-171597157D01*
X140095626Y-171633000D01*
X140095633Y-171633000D01*
X145704367Y-171633000D01*
X145704374Y-171633000D01*
X146011035Y-171597157D01*
X146011044Y-171597154D01*
X146011050Y-171597154D01*
X146191290Y-171554435D01*
X146311460Y-171525954D01*
X146601589Y-171420356D01*
X146877496Y-171281791D01*
X147135451Y-171112131D01*
X147371966Y-170913671D01*
X147583842Y-170689096D01*
X147768213Y-170441442D01*
X147922588Y-170174058D01*
X148044876Y-169890561D01*
X148133426Y-169594783D01*
X148187040Y-169290726D01*
X148204992Y-168982500D01*
X148187040Y-168674274D01*
X148160264Y-168522419D01*
X148133429Y-168370231D01*
X148133427Y-168370225D01*
X148133426Y-168370217D01*
X148044876Y-168074439D01*
X147922588Y-167790942D01*
X147768213Y-167523558D01*
X147768212Y-167523556D01*
X147583845Y-167275907D01*
X147583840Y-167275901D01*
X147478552Y-167164303D01*
X147371966Y-167051329D01*
X147371959Y-167051323D01*
X147371957Y-167051321D01*
X147135453Y-166852870D01*
X147135445Y-166852864D01*
X146877499Y-166683210D01*
X146601596Y-166544647D01*
X146601590Y-166544644D01*
X146311472Y-166439050D01*
X146311463Y-166439047D01*
X146311460Y-166439046D01*
X146311457Y-166439045D01*
X146311450Y-166439043D01*
X146011050Y-166367845D01*
X146011035Y-166367843D01*
X145704374Y-166332000D01*
X145550099Y-166332000D01*
X140250500Y-166332000D01*
X140250000Y-166332000D01*
X140095626Y-166332000D01*
X139827297Y-166363362D01*
X139788964Y-166367843D01*
X139788949Y-166367845D01*
X139488549Y-166439043D01*
X139488527Y-166439050D01*
X139198409Y-166544644D01*
X139198403Y-166544647D01*
X138922500Y-166683210D01*
X138664554Y-166852864D01*
X138664546Y-166852870D01*
X138428042Y-167051321D01*
X138428032Y-167051331D01*
X138216159Y-167275901D01*
X138216154Y-167275907D01*
X138031787Y-167523556D01*
X137877414Y-167790938D01*
X137877408Y-167790950D01*
X137755123Y-168074439D01*
X137666573Y-168370220D01*
X137666570Y-168370231D01*
X137612961Y-168674265D01*
X137612960Y-168674273D01*
X137595008Y-168982496D01*
X137595008Y-168982503D01*
X122804992Y-168982503D01*
X122804992Y-168982500D01*
X122787040Y-168674274D01*
X122760264Y-168522419D01*
X122733429Y-168370231D01*
X122733427Y-168370225D01*
X122733426Y-168370217D01*
X122644876Y-168074439D01*
X122522588Y-167790942D01*
X122368213Y-167523558D01*
X122368212Y-167523556D01*
X122183845Y-167275907D01*
X122183840Y-167275901D01*
X122078552Y-167164303D01*
X121971966Y-167051329D01*
X121971959Y-167051323D01*
X121971957Y-167051321D01*
X121735453Y-166852870D01*
X121735445Y-166852864D01*
X121477499Y-166683210D01*
X121201596Y-166544647D01*
X121201590Y-166544644D01*
X120911472Y-166439050D01*
X120911463Y-166439047D01*
X120911460Y-166439046D01*
X120911457Y-166439045D01*
X120911450Y-166439043D01*
X120611050Y-166367845D01*
X120611035Y-166367843D01*
X120304374Y-166332000D01*
X120150099Y-166332000D01*
X114850500Y-166332000D01*
X114850000Y-166332000D01*
X114695626Y-166332000D01*
X114427297Y-166363362D01*
X114388964Y-166367843D01*
X114388949Y-166367845D01*
X114088549Y-166439043D01*
X114088527Y-166439050D01*
X113798409Y-166544644D01*
X113798403Y-166544647D01*
X113522500Y-166683210D01*
X113264554Y-166852864D01*
X113264546Y-166852870D01*
X113028042Y-167051321D01*
X113028032Y-167051331D01*
X112816159Y-167275901D01*
X112816154Y-167275907D01*
X112631787Y-167523556D01*
X112477414Y-167790938D01*
X112477408Y-167790950D01*
X112355123Y-168074439D01*
X112266573Y-168370220D01*
X112266570Y-168370231D01*
X112212961Y-168674265D01*
X112212960Y-168674273D01*
X112195008Y-168982496D01*
X112195008Y-168982503D01*
X97404992Y-168982503D01*
X97404992Y-168982500D01*
X97387040Y-168674274D01*
X97360264Y-168522419D01*
X97333429Y-168370231D01*
X97333427Y-168370225D01*
X97333426Y-168370217D01*
X97244876Y-168074439D01*
X97122588Y-167790942D01*
X96968213Y-167523558D01*
X96968212Y-167523556D01*
X96783845Y-167275907D01*
X96783840Y-167275901D01*
X96678552Y-167164303D01*
X96571966Y-167051329D01*
X96571959Y-167051323D01*
X96571957Y-167051321D01*
X96335453Y-166852870D01*
X96335445Y-166852864D01*
X96077499Y-166683210D01*
X95801596Y-166544647D01*
X95801590Y-166544644D01*
X95511472Y-166439050D01*
X95511463Y-166439047D01*
X95511460Y-166439046D01*
X95511457Y-166439045D01*
X95511450Y-166439043D01*
X95211050Y-166367845D01*
X95211035Y-166367843D01*
X94904374Y-166332000D01*
X94750099Y-166332000D01*
X89450500Y-166332000D01*
X89450000Y-166332000D01*
X89295626Y-166332000D01*
X89027297Y-166363362D01*
X88988964Y-166367843D01*
X88988949Y-166367845D01*
X88688549Y-166439043D01*
X88688527Y-166439050D01*
X88398409Y-166544644D01*
X88398403Y-166544647D01*
X88122500Y-166683210D01*
X87864554Y-166852864D01*
X87864546Y-166852870D01*
X87628042Y-167051321D01*
X87628032Y-167051331D01*
X87416159Y-167275901D01*
X87416154Y-167275907D01*
X87231787Y-167523556D01*
X87077414Y-167790938D01*
X87077408Y-167790950D01*
X86955123Y-168074439D01*
X86866573Y-168370220D01*
X86866570Y-168370231D01*
X86812961Y-168674265D01*
X86812960Y-168674273D01*
X86795008Y-168982496D01*
X86795008Y-168982503D01*
X72004992Y-168982503D01*
X72004992Y-168982500D01*
X71987040Y-168674274D01*
X71960264Y-168522419D01*
X71933429Y-168370231D01*
X71933427Y-168370225D01*
X71933426Y-168370217D01*
X71844876Y-168074439D01*
X71722588Y-167790942D01*
X71568213Y-167523558D01*
X71568212Y-167523556D01*
X71383845Y-167275907D01*
X71383840Y-167275901D01*
X71278552Y-167164303D01*
X71171966Y-167051329D01*
X71171959Y-167051323D01*
X71171957Y-167051321D01*
X70935453Y-166852870D01*
X70935445Y-166852864D01*
X70677499Y-166683210D01*
X70401596Y-166544647D01*
X70401590Y-166544644D01*
X70111472Y-166439050D01*
X70111463Y-166439047D01*
X70111460Y-166439046D01*
X70111457Y-166439045D01*
X70111450Y-166439043D01*
X69811050Y-166367845D01*
X69811035Y-166367843D01*
X69504374Y-166332000D01*
X69350099Y-166332000D01*
X64050500Y-166332000D01*
X64050000Y-166332000D01*
X63895626Y-166332000D01*
X63627297Y-166363362D01*
X63588964Y-166367843D01*
X63588949Y-166367845D01*
X63288549Y-166439043D01*
X63288527Y-166439050D01*
X62998409Y-166544644D01*
X62998403Y-166544647D01*
X62722500Y-166683210D01*
X62464554Y-166852864D01*
X62464546Y-166852870D01*
X62228042Y-167051321D01*
X62228032Y-167051331D01*
X62016159Y-167275901D01*
X62016154Y-167275907D01*
X61831787Y-167523556D01*
X61677414Y-167790938D01*
X61677408Y-167790950D01*
X61555123Y-168074439D01*
X61466573Y-168370220D01*
X61466570Y-168370231D01*
X61412961Y-168674265D01*
X61412960Y-168674273D01*
X61395008Y-168982496D01*
X61395008Y-168982503D01*
X46604992Y-168982503D01*
X46604992Y-168982500D01*
X46587040Y-168674274D01*
X46560264Y-168522419D01*
X46533429Y-168370231D01*
X46533427Y-168370225D01*
X46533426Y-168370217D01*
X46444876Y-168074439D01*
X46322588Y-167790942D01*
X46168213Y-167523558D01*
X46168212Y-167523556D01*
X45983845Y-167275907D01*
X45983840Y-167275901D01*
X45878552Y-167164303D01*
X45771966Y-167051329D01*
X45771959Y-167051323D01*
X45771957Y-167051321D01*
X45535453Y-166852870D01*
X45535445Y-166852864D01*
X45277499Y-166683210D01*
X45001596Y-166544647D01*
X45001590Y-166544644D01*
X44711472Y-166439050D01*
X44711463Y-166439047D01*
X44711460Y-166439046D01*
X44711457Y-166439045D01*
X44711450Y-166439043D01*
X44411050Y-166367845D01*
X44411035Y-166367843D01*
X44104374Y-166332000D01*
X43950099Y-166332000D01*
X38650500Y-166332000D01*
X38650000Y-166332000D01*
X38495626Y-166332000D01*
X38227297Y-166363362D01*
X38188964Y-166367843D01*
X38188949Y-166367845D01*
X37888549Y-166439043D01*
X37888527Y-166439050D01*
X37598409Y-166544644D01*
X37598403Y-166544647D01*
X37322500Y-166683210D01*
X37064554Y-166852864D01*
X37064546Y-166852870D01*
X36828042Y-167051321D01*
X36828032Y-167051331D01*
X36616159Y-167275901D01*
X36616154Y-167275907D01*
X36431787Y-167523556D01*
X36277414Y-167790938D01*
X36277408Y-167790950D01*
X36155123Y-168074439D01*
X36066573Y-168370220D01*
X36066570Y-168370231D01*
X36012961Y-168674265D01*
X36012960Y-168674273D01*
X35995008Y-168982496D01*
X35995008Y-168982503D01*
X21204992Y-168982503D01*
X21204992Y-168982500D01*
X21187040Y-168674274D01*
X21160264Y-168522419D01*
X21133429Y-168370231D01*
X21133427Y-168370225D01*
X21133426Y-168370217D01*
X21044876Y-168074439D01*
X20922588Y-167790942D01*
X20768213Y-167523558D01*
X20768212Y-167523556D01*
X20583845Y-167275907D01*
X20583840Y-167275901D01*
X20478552Y-167164303D01*
X20371966Y-167051329D01*
X20371959Y-167051323D01*
X20371957Y-167051321D01*
X20135453Y-166852870D01*
X20135445Y-166852864D01*
X19877499Y-166683210D01*
X19601596Y-166544647D01*
X19601590Y-166544644D01*
X19311472Y-166439050D01*
X19311463Y-166439047D01*
X19311460Y-166439046D01*
X19311457Y-166439045D01*
X19311450Y-166439043D01*
X19011050Y-166367845D01*
X19011035Y-166367843D01*
X18704374Y-166332000D01*
X18550099Y-166332000D01*
X13250500Y-166332000D01*
X13250000Y-166332000D01*
X13095626Y-166332000D01*
X12827297Y-166363362D01*
X12788964Y-166367843D01*
X12788949Y-166367845D01*
X12488549Y-166439043D01*
X12488527Y-166439050D01*
X12198409Y-166544644D01*
X12198403Y-166544647D01*
X11922500Y-166683210D01*
X11664554Y-166852864D01*
X11664546Y-166852870D01*
X11428042Y-167051321D01*
X11428032Y-167051331D01*
X11216159Y-167275901D01*
X11216154Y-167275907D01*
X11031787Y-167523556D01*
X10877414Y-167790938D01*
X10877408Y-167790950D01*
X10755123Y-168074439D01*
X10666573Y-168370220D01*
X10666570Y-168370231D01*
X10612961Y-168674265D01*
X10612960Y-168674273D01*
X10595008Y-168982496D01*
X10595008Y-168982503D01*
X500Y-168982503D01*
X500Y-152520003D01*
X1070008Y-152520003D01*
X1087960Y-152828226D01*
X1087961Y-152828234D01*
X1141570Y-153132268D01*
X1141573Y-153132279D01*
X1230123Y-153428060D01*
X1352408Y-153711549D01*
X1352414Y-153711561D01*
X1506787Y-153978943D01*
X1691154Y-154226592D01*
X1691159Y-154226598D01*
X1796448Y-154338197D01*
X1903034Y-154451171D01*
X1903040Y-154451176D01*
X1903042Y-154451178D01*
X2139546Y-154649629D01*
X2139554Y-154649635D01*
X2397500Y-154819289D01*
X2397504Y-154819291D01*
X2673411Y-154957856D01*
X2963540Y-155063454D01*
X3006754Y-155073696D01*
X3263949Y-155134654D01*
X3263956Y-155134655D01*
X3263965Y-155134657D01*
X3570626Y-155170500D01*
X3570633Y-155170500D01*
X9179367Y-155170500D01*
X9179374Y-155170500D01*
X9486035Y-155134657D01*
X9486044Y-155134654D01*
X9486050Y-155134654D01*
X9666290Y-155091935D01*
X9786460Y-155063454D01*
X10076589Y-154957856D01*
X10352496Y-154819291D01*
X10610451Y-154649631D01*
X10846966Y-154451171D01*
X11058842Y-154226596D01*
X11243213Y-153978942D01*
X11397588Y-153711558D01*
X11519876Y-153428061D01*
X11608426Y-153132283D01*
X11662040Y-152828226D01*
X11679992Y-152520000D01*
X11662040Y-152211774D01*
X11635264Y-152059919D01*
X11608429Y-151907731D01*
X11608427Y-151907725D01*
X11608426Y-151907717D01*
X11519876Y-151611939D01*
X11397588Y-151328442D01*
X11243213Y-151061058D01*
X11243212Y-151061056D01*
X11058845Y-150813407D01*
X11058840Y-150813401D01*
X10953552Y-150701803D01*
X10846966Y-150588829D01*
X10846959Y-150588823D01*
X10846957Y-150588821D01*
X10610453Y-150390370D01*
X10610445Y-150390364D01*
X10352499Y-150220710D01*
X10076596Y-150082147D01*
X10076590Y-150082144D01*
X9786472Y-149976550D01*
X9786463Y-149976547D01*
X9786460Y-149976546D01*
X9786457Y-149976545D01*
X9786450Y-149976543D01*
X9486050Y-149905345D01*
X9486035Y-149905343D01*
X9179374Y-149869500D01*
X9025099Y-149869500D01*
X3725500Y-149869500D01*
X3725000Y-149869500D01*
X3570626Y-149869500D01*
X3302297Y-149900862D01*
X3263964Y-149905343D01*
X3263949Y-149905345D01*
X2963549Y-149976543D01*
X2963527Y-149976550D01*
X2673409Y-150082144D01*
X2673403Y-150082147D01*
X2397500Y-150220710D01*
X2139554Y-150390364D01*
X2139546Y-150390370D01*
X1903042Y-150588821D01*
X1903032Y-150588831D01*
X1691159Y-150813401D01*
X1691154Y-150813407D01*
X1506787Y-151061056D01*
X1352414Y-151328438D01*
X1352408Y-151328450D01*
X1230123Y-151611939D01*
X1141573Y-151907720D01*
X1141570Y-151907731D01*
X1087961Y-152211765D01*
X1087960Y-152211773D01*
X1070008Y-152519996D01*
X1070008Y-152520003D01*
X500Y-152520003D01*
X500Y-130164824D01*
X36501770Y-130164824D01*
X36531577Y-130587906D01*
X36600874Y-131006363D01*
X36709045Y-131416467D01*
X36709047Y-131416474D01*
X36855150Y-131814656D01*
X36855152Y-131814661D01*
X37018843Y-132157501D01*
X37037900Y-132197414D01*
X37037903Y-132197420D01*
X37255686Y-132561375D01*
X37255690Y-132561381D01*
X37506600Y-132903344D01*
X37788432Y-133220313D01*
X38098707Y-133509498D01*
X38098716Y-133509506D01*
X38434688Y-133768351D01*
X38434695Y-133768356D01*
X38434698Y-133768358D01*
X38793453Y-133994618D01*
X39171819Y-134186289D01*
X39554534Y-134336986D01*
X39566476Y-134341689D01*
X39698644Y-134379885D01*
X39973941Y-134459447D01*
X39973945Y-134459447D01*
X39973945Y-134459448D01*
X40390641Y-134538532D01*
X40390642Y-134538532D01*
X40390647Y-134538533D01*
X40812928Y-134578250D01*
X40812930Y-134578250D01*
X41130981Y-134578250D01*
X41157737Y-134576994D01*
X41448678Y-134563342D01*
X41725865Y-134524091D01*
X41868621Y-134503877D01*
X41868624Y-134503876D01*
X41868633Y-134503875D01*
X42281175Y-134405344D01*
X42468103Y-134341687D01*
X42682666Y-134268619D01*
X42682669Y-134268617D01*
X42682677Y-134268615D01*
X43069611Y-134094890D01*
X43438577Y-133885694D01*
X43786332Y-133642868D01*
X44109821Y-133368544D01*
X44406200Y-133065133D01*
X44672865Y-132735303D01*
X44907473Y-132381950D01*
X45107961Y-132008181D01*
X45272568Y-131617281D01*
X45399848Y-131212684D01*
X45488681Y-130797946D01*
X45538287Y-130376713D01*
X45543256Y-130164824D01*
X118551770Y-130164824D01*
X118581577Y-130587906D01*
X118650874Y-131006363D01*
X118759045Y-131416467D01*
X118759047Y-131416474D01*
X118905150Y-131814656D01*
X118905152Y-131814661D01*
X119068843Y-132157501D01*
X119087900Y-132197414D01*
X119087903Y-132197420D01*
X119305686Y-132561375D01*
X119305690Y-132561381D01*
X119556600Y-132903344D01*
X119838432Y-133220313D01*
X120148707Y-133509498D01*
X120148716Y-133509506D01*
X120484688Y-133768351D01*
X120484695Y-133768356D01*
X120484698Y-133768358D01*
X120843453Y-133994618D01*
X121221819Y-134186289D01*
X121604534Y-134336986D01*
X121616476Y-134341689D01*
X121748644Y-134379885D01*
X122023941Y-134459447D01*
X122023945Y-134459447D01*
X122023945Y-134459448D01*
X122440641Y-134538532D01*
X122440642Y-134538532D01*
X122440647Y-134538533D01*
X122862928Y-134578250D01*
X122862930Y-134578250D01*
X123180981Y-134578250D01*
X123207737Y-134576994D01*
X123498678Y-134563342D01*
X123775865Y-134524091D01*
X123918621Y-134503877D01*
X123918624Y-134503876D01*
X123918633Y-134503875D01*
X124331175Y-134405344D01*
X124518103Y-134341687D01*
X124732666Y-134268619D01*
X124732669Y-134268617D01*
X124732677Y-134268615D01*
X125119611Y-134094890D01*
X125488577Y-133885694D01*
X125836332Y-133642868D01*
X126159821Y-133368544D01*
X126456200Y-133065133D01*
X126722865Y-132735303D01*
X126957473Y-132381950D01*
X127157961Y-132008181D01*
X127322568Y-131617281D01*
X127449848Y-131212684D01*
X127538681Y-130797946D01*
X127588287Y-130376713D01*
X127598230Y-129952685D01*
X127568422Y-129529589D01*
X127499127Y-129111143D01*
X127390952Y-128701025D01*
X127244848Y-128302839D01*
X127062099Y-127920084D01*
X126951678Y-127735550D01*
X126844313Y-127556124D01*
X126844309Y-127556118D01*
X126593399Y-127214155D01*
X126449550Y-127052372D01*
X126311568Y-126897187D01*
X126001293Y-126608002D01*
X126001291Y-126608000D01*
X126001283Y-126607993D01*
X125665311Y-126349148D01*
X125665304Y-126349143D01*
X125306542Y-126122879D01*
X125108602Y-126022608D01*
X124928181Y-125931211D01*
X124777482Y-125871871D01*
X124533523Y-125775810D01*
X124232032Y-125688679D01*
X124126059Y-125658053D01*
X124126054Y-125658052D01*
X124126054Y-125658051D01*
X123709358Y-125578967D01*
X123407723Y-125550597D01*
X123287072Y-125539250D01*
X122969022Y-125539250D01*
X122969019Y-125539250D01*
X122897413Y-125542610D01*
X122651322Y-125554158D01*
X122651316Y-125554158D01*
X122651311Y-125554159D01*
X122231378Y-125613622D01*
X121818815Y-125712158D01*
X121818807Y-125712161D01*
X121417333Y-125848880D01*
X121417316Y-125848887D01*
X121030391Y-126022608D01*
X121030387Y-126022610D01*
X120661423Y-126231805D01*
X120661415Y-126231810D01*
X120313671Y-126474628D01*
X119990174Y-126748960D01*
X119693798Y-127052368D01*
X119693794Y-127052372D01*
X119427145Y-127382184D01*
X119427128Y-127382206D01*
X119192527Y-127735548D01*
X118992035Y-128109325D01*
X118992035Y-128109326D01*
X118827431Y-128500220D01*
X118827429Y-128500226D01*
X118700152Y-128904812D01*
X118611318Y-129319556D01*
X118561712Y-129740787D01*
X118561712Y-129740789D01*
X118551770Y-130164815D01*
X118551770Y-130164824D01*
X45543256Y-130164824D01*
X45548230Y-129952685D01*
X45518422Y-129529589D01*
X45449127Y-129111143D01*
X45340952Y-128701025D01*
X45194848Y-128302839D01*
X45012099Y-127920084D01*
X44901678Y-127735550D01*
X44794313Y-127556124D01*
X44794309Y-127556118D01*
X44543399Y-127214155D01*
X44399550Y-127052372D01*
X44261568Y-126897187D01*
X43951293Y-126608002D01*
X43951291Y-126608000D01*
X43951283Y-126607993D01*
X43615311Y-126349148D01*
X43615304Y-126349143D01*
X43256542Y-126122879D01*
X43058602Y-126022608D01*
X42878181Y-125931211D01*
X42727482Y-125871871D01*
X42483523Y-125775810D01*
X42182032Y-125688679D01*
X42076059Y-125658053D01*
X42076054Y-125658052D01*
X42076054Y-125658051D01*
X41659358Y-125578967D01*
X41357723Y-125550597D01*
X41237072Y-125539250D01*
X40919022Y-125539250D01*
X40919019Y-125539250D01*
X40847413Y-125542610D01*
X40601322Y-125554158D01*
X40601316Y-125554158D01*
X40601311Y-125554159D01*
X40181378Y-125613622D01*
X39768815Y-125712158D01*
X39768807Y-125712161D01*
X39367333Y-125848880D01*
X39367316Y-125848887D01*
X38980391Y-126022608D01*
X38980387Y-126022610D01*
X38611423Y-126231805D01*
X38611415Y-126231810D01*
X38263671Y-126474628D01*
X37940174Y-126748960D01*
X37643798Y-127052368D01*
X37643794Y-127052372D01*
X37377145Y-127382184D01*
X37377128Y-127382206D01*
X37142527Y-127735548D01*
X36942035Y-128109325D01*
X36942035Y-128109326D01*
X36777431Y-128500220D01*
X36777429Y-128500226D01*
X36650152Y-128904812D01*
X36561318Y-129319556D01*
X36511712Y-129740787D01*
X36511712Y-129740789D01*
X36501770Y-130164815D01*
X36501770Y-130164824D01*
X500Y-130164824D01*
X500Y-127120003D01*
X1070008Y-127120003D01*
X1087960Y-127428226D01*
X1087961Y-127428234D01*
X1141570Y-127732268D01*
X1141573Y-127732279D01*
X1141574Y-127732283D01*
X1142552Y-127735550D01*
X1230123Y-128028060D01*
X1352408Y-128311549D01*
X1352414Y-128311561D01*
X1506787Y-128578943D01*
X1691154Y-128826592D01*
X1691159Y-128826598D01*
X1764951Y-128904812D01*
X1903034Y-129051171D01*
X1903040Y-129051176D01*
X1903042Y-129051178D01*
X2139546Y-129249629D01*
X2139554Y-129249635D01*
X2397500Y-129419289D01*
X2397504Y-129419291D01*
X2673411Y-129557856D01*
X2963540Y-129663454D01*
X3006754Y-129673696D01*
X3263949Y-129734654D01*
X3263956Y-129734655D01*
X3263965Y-129734657D01*
X3570626Y-129770500D01*
X3570633Y-129770500D01*
X9179367Y-129770500D01*
X9179374Y-129770500D01*
X9486035Y-129734657D01*
X9486044Y-129734654D01*
X9486050Y-129734654D01*
X9666290Y-129691935D01*
X9786460Y-129663454D01*
X10076589Y-129557856D01*
X10352496Y-129419291D01*
X10610451Y-129249631D01*
X10846966Y-129051171D01*
X11058842Y-128826596D01*
X11243213Y-128578942D01*
X11397588Y-128311558D01*
X11519876Y-128028061D01*
X11608426Y-127732283D01*
X11662040Y-127428226D01*
X11679992Y-127120000D01*
X11662040Y-126811774D01*
X11626108Y-126607993D01*
X11608429Y-126507731D01*
X11608427Y-126507725D01*
X11608426Y-126507717D01*
X11519876Y-126211939D01*
X11397588Y-125928442D01*
X11243213Y-125661058D01*
X11240976Y-125658053D01*
X11058845Y-125413407D01*
X11058840Y-125413401D01*
X10953552Y-125301803D01*
X10846966Y-125188829D01*
X10846959Y-125188823D01*
X10846957Y-125188821D01*
X10610453Y-124990370D01*
X10610445Y-124990364D01*
X10352499Y-124820710D01*
X10076596Y-124682147D01*
X10076590Y-124682144D01*
X9786472Y-124576550D01*
X9786463Y-124576547D01*
X9786460Y-124576546D01*
X9786457Y-124576545D01*
X9786450Y-124576543D01*
X9486050Y-124505345D01*
X9486035Y-124505343D01*
X9179374Y-124469500D01*
X9025099Y-124469500D01*
X3725500Y-124469500D01*
X3725000Y-124469500D01*
X3570626Y-124469500D01*
X3302297Y-124500862D01*
X3263964Y-124505343D01*
X3263949Y-124505345D01*
X2963549Y-124576543D01*
X2963527Y-124576550D01*
X2673409Y-124682144D01*
X2673403Y-124682147D01*
X2397500Y-124820710D01*
X2139554Y-124990364D01*
X2139546Y-124990370D01*
X1903042Y-125188821D01*
X1903032Y-125188831D01*
X1691159Y-125413401D01*
X1691154Y-125413407D01*
X1506787Y-125661056D01*
X1352414Y-125928438D01*
X1352408Y-125928450D01*
X1230123Y-126211939D01*
X1141573Y-126507720D01*
X1141570Y-126507731D01*
X1087961Y-126811765D01*
X1087960Y-126811773D01*
X1070008Y-127119996D01*
X1070008Y-127120003D01*
X500Y-127120003D01*
X500Y-101720003D01*
X1070008Y-101720003D01*
X1087960Y-102028226D01*
X1087961Y-102028234D01*
X1141570Y-102332268D01*
X1141573Y-102332279D01*
X1230123Y-102628060D01*
X1352408Y-102911549D01*
X1352414Y-102911561D01*
X1506787Y-103178943D01*
X1691154Y-103426592D01*
X1691159Y-103426598D01*
X1796448Y-103538197D01*
X1903034Y-103651171D01*
X1903040Y-103651176D01*
X1903042Y-103651178D01*
X2139546Y-103849629D01*
X2139554Y-103849635D01*
X2397500Y-104019289D01*
X2397504Y-104019291D01*
X2673411Y-104157856D01*
X2963540Y-104263454D01*
X3006754Y-104273696D01*
X3263949Y-104334654D01*
X3263956Y-104334655D01*
X3263965Y-104334657D01*
X3570626Y-104370500D01*
X3570633Y-104370500D01*
X9179367Y-104370500D01*
X9179374Y-104370500D01*
X9486035Y-104334657D01*
X9486044Y-104334654D01*
X9486050Y-104334654D01*
X9666290Y-104291935D01*
X9786460Y-104263454D01*
X10076589Y-104157856D01*
X10352496Y-104019291D01*
X10610451Y-103849631D01*
X10846966Y-103651171D01*
X11058842Y-103426596D01*
X11243213Y-103178942D01*
X11397588Y-102911558D01*
X11519876Y-102628061D01*
X11608426Y-102332283D01*
X11662040Y-102028226D01*
X11679992Y-101720000D01*
X11662040Y-101411774D01*
X11635264Y-101259919D01*
X11608429Y-101107731D01*
X11608427Y-101107725D01*
X11608426Y-101107717D01*
X11519876Y-100811939D01*
X11397588Y-100528442D01*
X11243213Y-100261058D01*
X11243212Y-100261056D01*
X11058845Y-100013407D01*
X11058840Y-100013401D01*
X10953552Y-99901803D01*
X10846966Y-99788829D01*
X10846959Y-99788823D01*
X10846957Y-99788821D01*
X10610453Y-99590370D01*
X10610445Y-99590364D01*
X10352499Y-99420710D01*
X10076596Y-99282147D01*
X10076590Y-99282144D01*
X9786472Y-99176550D01*
X9786463Y-99176547D01*
X9786460Y-99176546D01*
X9786457Y-99176545D01*
X9786450Y-99176543D01*
X9486050Y-99105345D01*
X9486035Y-99105343D01*
X9179374Y-99069500D01*
X9025099Y-99069500D01*
X3725500Y-99069500D01*
X3725000Y-99069500D01*
X3570626Y-99069500D01*
X3302297Y-99100862D01*
X3263964Y-99105343D01*
X3263949Y-99105345D01*
X2963549Y-99176543D01*
X2963527Y-99176550D01*
X2673409Y-99282144D01*
X2673403Y-99282147D01*
X2397500Y-99420710D01*
X2139554Y-99590364D01*
X2139546Y-99590370D01*
X1903042Y-99788821D01*
X1903032Y-99788831D01*
X1691159Y-100013401D01*
X1691154Y-100013407D01*
X1506787Y-100261056D01*
X1352414Y-100528438D01*
X1352408Y-100528450D01*
X1230123Y-100811939D01*
X1141573Y-101107720D01*
X1141570Y-101107731D01*
X1087961Y-101411765D01*
X1087960Y-101411773D01*
X1070008Y-101719996D01*
X1070008Y-101720003D01*
X500Y-101720003D01*
X500Y-86372500D01*
X69544581Y-86372500D01*
X69564254Y-87073684D01*
X69623212Y-87772663D01*
X69721270Y-88467236D01*
X69858118Y-89155218D01*
X70033326Y-89834444D01*
X70246343Y-90502778D01*
X70345592Y-90762782D01*
X70496494Y-91158106D01*
X70496495Y-91158107D01*
X70783008Y-91798402D01*
X70932525Y-92087819D01*
X71104964Y-92421607D01*
X71459501Y-93022635D01*
X71461360Y-93025785D01*
X71461360Y-93025786D01*
X71851070Y-93609027D01*
X72272873Y-94169505D01*
X72722102Y-94701499D01*
X72725433Y-94705444D01*
X72725433Y-94705445D01*
X73207333Y-95215167D01*
X73717055Y-95697067D01*
X73717056Y-95697067D01*
X73717057Y-95697068D01*
X74252995Y-96149627D01*
X74813473Y-96571430D01*
X75396714Y-96961140D01*
X75396715Y-96961140D01*
X75396716Y-96961141D01*
X76000893Y-97317536D01*
X76000895Y-97317537D01*
X76000902Y-97317541D01*
X76624098Y-97639492D01*
X77024032Y-97818450D01*
X77264383Y-97926001D01*
X77385021Y-97972050D01*
X77387586Y-97973099D01*
X77388360Y-97973436D01*
X77397285Y-97976732D01*
X77919722Y-98176157D01*
X77919725Y-98176158D01*
X78046410Y-98216536D01*
X78049063Y-98217448D01*
X78052147Y-98218587D01*
X78052149Y-98218588D01*
X78069972Y-98224046D01*
X78588056Y-98389174D01*
X78720657Y-98423378D01*
X78723292Y-98424122D01*
X78728746Y-98425793D01*
X78740686Y-98428722D01*
X78754692Y-98432159D01*
X79158367Y-98536287D01*
X79267282Y-98564382D01*
X79406765Y-98592127D01*
X79415982Y-98594388D01*
X79449267Y-98600581D01*
X79726605Y-98655747D01*
X79955250Y-98701228D01*
X79955251Y-98701228D01*
X79955261Y-98701229D01*
X79955264Y-98701230D01*
X80099986Y-98721661D01*
X80107936Y-98723141D01*
X80111652Y-98723833D01*
X80111647Y-98723832D01*
X80111652Y-98723832D01*
X80111654Y-98723833D01*
X80151544Y-98728940D01*
X80569287Y-98787916D01*
X80649828Y-98799287D01*
X80649832Y-98799287D01*
X80649837Y-98799288D01*
X80799440Y-98811906D01*
X80810826Y-98813365D01*
X80813543Y-98813713D01*
X80813545Y-98813713D01*
X80834669Y-98815209D01*
X80859224Y-98816949D01*
X81348816Y-98858246D01*
X81348815Y-98858246D01*
X81352106Y-98858338D01*
X81502864Y-98862568D01*
X81518109Y-98863649D01*
X81519378Y-98863739D01*
X81519375Y-98863739D01*
X81541703Y-98864054D01*
X81570252Y-98864458D01*
X82050000Y-98877919D01*
X82050001Y-98877919D01*
X82053038Y-98877833D01*
X82208054Y-98873484D01*
X82226921Y-98873752D01*
X82226923Y-98873751D01*
X82226930Y-98873752D01*
X82226932Y-98873752D01*
X82273118Y-98871789D01*
X82282112Y-98871406D01*
X82751184Y-98858246D01*
X82751185Y-98858246D01*
X82770279Y-98856635D01*
X82912747Y-98844618D01*
X82928741Y-98843939D01*
X82933901Y-98843720D01*
X82933902Y-98843720D01*
X82978897Y-98839247D01*
X82992786Y-98837867D01*
X83450163Y-98799288D01*
X83450167Y-98799287D01*
X83450172Y-98799287D01*
X83480153Y-98795054D01*
X83614714Y-98776057D01*
X83635807Y-98773960D01*
X83638042Y-98773739D01*
X83638043Y-98773739D01*
X83699927Y-98764027D01*
X83832434Y-98745320D01*
X84144736Y-98701230D01*
X84144738Y-98701229D01*
X84144749Y-98701228D01*
X84144750Y-98701228D01*
X84195441Y-98691144D01*
X84311717Y-98668015D01*
X84337098Y-98664033D01*
X84401246Y-98650206D01*
X84832718Y-98564382D01*
X85001527Y-98520837D01*
X85018940Y-98517085D01*
X85028823Y-98514956D01*
X85028821Y-98514956D01*
X85028825Y-98514954D01*
X85028829Y-98514954D01*
X85094669Y-98496810D01*
X85511944Y-98389174D01*
X85681965Y-98334983D01*
X85711018Y-98326978D01*
X85711027Y-98326975D01*
X85711029Y-98326975D01*
X85737227Y-98318132D01*
X85777882Y-98304411D01*
X86180278Y-98176157D01*
X86350870Y-98111038D01*
X86381479Y-98100709D01*
X86381478Y-98100709D01*
X86381485Y-98100707D01*
X86381486Y-98100706D01*
X86448766Y-98073669D01*
X86720059Y-97970111D01*
X86835606Y-97926006D01*
X86835607Y-97926005D01*
X86835609Y-97926003D01*
X86835617Y-97926001D01*
X87006068Y-97849729D01*
X87038059Y-97836874D01*
X87038059Y-97836873D01*
X87038066Y-97836871D01*
X87105281Y-97805333D01*
X87380331Y-97682256D01*
X87475888Y-97639498D01*
X87475900Y-97639492D01*
X87645540Y-97551853D01*
X87678674Y-97536309D01*
X87678676Y-97536308D01*
X87678675Y-97536309D01*
X87707409Y-97520785D01*
X87745284Y-97500324D01*
X87997708Y-97369919D01*
X88099106Y-97317537D01*
X88099106Y-97317536D01*
X88099107Y-97317536D01*
X88267189Y-97218386D01*
X88301252Y-97199986D01*
X88301260Y-97199981D01*
X88301261Y-97199981D01*
X88325319Y-97185167D01*
X88366714Y-97159678D01*
X88703284Y-96961141D01*
X88869082Y-96850357D01*
X88903805Y-96828979D01*
X88967671Y-96784482D01*
X89286527Y-96571430D01*
X89449266Y-96448956D01*
X89464936Y-96438039D01*
X89484395Y-96424484D01*
X89484394Y-96424484D01*
X89484404Y-96424477D01*
X89546243Y-96375973D01*
X89771796Y-96206226D01*
X89847003Y-96149629D01*
X89888044Y-96114972D01*
X90005900Y-96015451D01*
X90041187Y-95987776D01*
X90100586Y-95935496D01*
X90382943Y-95697068D01*
X90537219Y-95551212D01*
X90572373Y-95520274D01*
X90628988Y-95464452D01*
X90892667Y-95215167D01*
X91041544Y-95057693D01*
X91076259Y-95023468D01*
X91129763Y-94964381D01*
X91374567Y-94705444D01*
X91374567Y-94705445D01*
X91416059Y-94656307D01*
X91517205Y-94536525D01*
X91551231Y-94498952D01*
X91601358Y-94436868D01*
X91827127Y-94169505D01*
X91827129Y-94169503D01*
X91846309Y-94144015D01*
X91962754Y-93989288D01*
X91995768Y-93948403D01*
X91995772Y-93948398D01*
X91995773Y-93948397D01*
X92009098Y-93929835D01*
X92042266Y-93883635D01*
X92248930Y-93609027D01*
X92376731Y-93417758D01*
X92408445Y-93373587D01*
X92451086Y-93306480D01*
X92638640Y-93025786D01*
X92638640Y-93025785D01*
X92638641Y-93025784D01*
X92757817Y-92823750D01*
X92787941Y-92776344D01*
X92826524Y-92707274D01*
X92995036Y-92421607D01*
X92996516Y-92418744D01*
X93033732Y-92346703D01*
X93104777Y-92209180D01*
X93133041Y-92158588D01*
X93167475Y-92087819D01*
X93316998Y-91798388D01*
X93416532Y-91575951D01*
X93420928Y-91566914D01*
X93442638Y-91522297D01*
X93472773Y-91450263D01*
X93603501Y-91158117D01*
X93692081Y-90926060D01*
X93715741Y-90869510D01*
X93741530Y-90796517D01*
X93853657Y-90502778D01*
X93930514Y-90261640D01*
X93951478Y-90202308D01*
X93972875Y-90128734D01*
X94066673Y-89834446D01*
X94066674Y-89834444D01*
X94131082Y-89584753D01*
X94149085Y-89522857D01*
X94166088Y-89449043D01*
X94241882Y-89155218D01*
X94293122Y-88897614D01*
X94307938Y-88833305D01*
X94320577Y-88759586D01*
X94352957Y-88596802D01*
X94378728Y-88467250D01*
X94378728Y-88467249D01*
X94416126Y-88202347D01*
X94427525Y-88135874D01*
X94427525Y-88135873D01*
X94435856Y-88062593D01*
X94476787Y-87772672D01*
X94476844Y-87772000D01*
X94499687Y-87501175D01*
X94507464Y-87432786D01*
X94511572Y-87360279D01*
X94535746Y-87073684D01*
X94543526Y-86796372D01*
X94547497Y-86726303D01*
X94547497Y-86726302D01*
X94548172Y-86630775D01*
X94555419Y-86372500D01*
X94548172Y-86114225D01*
X94547497Y-86018693D01*
X94543527Y-85948648D01*
X94535746Y-85671316D01*
X94511572Y-85384728D01*
X94507464Y-85312214D01*
X94499688Y-85243832D01*
X94476788Y-84972337D01*
X94435854Y-84682395D01*
X94427525Y-84609131D01*
X94427525Y-84609130D01*
X94416130Y-84542679D01*
X94378730Y-84277764D01*
X94378728Y-84277754D01*
X94378728Y-84277751D01*
X94378728Y-84277750D01*
X94320580Y-83985426D01*
X94307938Y-83911695D01*
X94293119Y-83847370D01*
X94241882Y-83589782D01*
X94166091Y-83295967D01*
X94149085Y-83222143D01*
X94131080Y-83160237D01*
X94066674Y-82910556D01*
X93972873Y-82616260D01*
X93951478Y-82542693D01*
X93951478Y-82542691D01*
X93930511Y-82483349D01*
X93853658Y-82242226D01*
X93853657Y-82242222D01*
X93741530Y-81948482D01*
X93715741Y-81875490D01*
X93715738Y-81875483D01*
X93715739Y-81875484D01*
X93707464Y-81855706D01*
X93692075Y-81818923D01*
X93603501Y-81586883D01*
X93472775Y-81294739D01*
X93442638Y-81222703D01*
X93442634Y-81222695D01*
X93416532Y-81169050D01*
X93316998Y-80946612D01*
X93167474Y-80657180D01*
X93133040Y-80586410D01*
X93133041Y-80586411D01*
X93104774Y-80535812D01*
X92995041Y-80323402D01*
X92995036Y-80323393D01*
X92826528Y-80037730D01*
X92787941Y-79968656D01*
X92757812Y-79921241D01*
X92638641Y-79719216D01*
X92633598Y-79711669D01*
X92571301Y-79618435D01*
X92451070Y-79438496D01*
X92408445Y-79371413D01*
X92376722Y-79327227D01*
X92248930Y-79135973D01*
X92042271Y-78861372D01*
X91995772Y-78796602D01*
X91995768Y-78796597D01*
X91962736Y-78755687D01*
X91860087Y-78619291D01*
X91827136Y-78575506D01*
X91827136Y-78575507D01*
X91827130Y-78575499D01*
X91601390Y-78308168D01*
X91551231Y-78246048D01*
X91551223Y-78246039D01*
X91551223Y-78246038D01*
X91517196Y-78208462D01*
X91374567Y-78039556D01*
X91374567Y-78039555D01*
X91129784Y-77780640D01*
X91076270Y-77721544D01*
X91076268Y-77721542D01*
X91076259Y-77721532D01*
X91041531Y-77687292D01*
X90892667Y-77529833D01*
X90629020Y-77280577D01*
X90607848Y-77259703D01*
X90572373Y-77224726D01*
X90565791Y-77218933D01*
X90537214Y-77193781D01*
X90382945Y-77047933D01*
X90382944Y-77047933D01*
X90382943Y-77047932D01*
X90100619Y-76809531D01*
X90041189Y-76757226D01*
X90041188Y-76757225D01*
X90005889Y-76729537D01*
X89852480Y-76599997D01*
X89847001Y-76595370D01*
X89685802Y-76474055D01*
X89546282Y-76369055D01*
X89509804Y-76340445D01*
X89484404Y-76320523D01*
X89484397Y-76320518D01*
X89484398Y-76320518D01*
X89463934Y-76306261D01*
X89449248Y-76296030D01*
X89286527Y-76173570D01*
X89275115Y-76165945D01*
X88967694Y-75960532D01*
X88903815Y-75916027D01*
X88869069Y-75894632D01*
X88703286Y-75783860D01*
X88703285Y-75783860D01*
X88703284Y-75783859D01*
X88366759Y-75585347D01*
X88301267Y-75545023D01*
X88301266Y-75545022D01*
X88301257Y-75545017D01*
X88301252Y-75545014D01*
X88286589Y-75537093D01*
X88267183Y-75526609D01*
X88107890Y-75432645D01*
X88099107Y-75427464D01*
X88099102Y-75427461D01*
X88099098Y-75427459D01*
X87745306Y-75244686D01*
X87678676Y-75208692D01*
X87678677Y-75208692D01*
X87670637Y-75204920D01*
X87645519Y-75193135D01*
X87475898Y-75105507D01*
X87475895Y-75105505D01*
X87475888Y-75105502D01*
X87475887Y-75105502D01*
X87105331Y-74939688D01*
X87079276Y-74927464D01*
X87038066Y-74908129D01*
X87006068Y-74895271D01*
X86929605Y-74861056D01*
X86835617Y-74818999D01*
X86835614Y-74818998D01*
X86835615Y-74818998D01*
X86448822Y-74671351D01*
X86381475Y-74644289D01*
X86381476Y-74644290D01*
X86350862Y-74633958D01*
X86285945Y-74609178D01*
X86180278Y-74568843D01*
X85777927Y-74440602D01*
X85741098Y-74428173D01*
X85711025Y-74418024D01*
X85711026Y-74418024D01*
X85681963Y-74410016D01*
X85511944Y-74355826D01*
X85258172Y-74290365D01*
X85094714Y-74248200D01*
X85028826Y-74230045D01*
X85028827Y-74230045D01*
X85001510Y-74224158D01*
X84832718Y-74180618D01*
X84681868Y-74150612D01*
X84401309Y-74094805D01*
X84337094Y-74080966D01*
X84337097Y-74080966D01*
X84321188Y-74078470D01*
X84311690Y-74076979D01*
X84144746Y-74043772D01*
X84144736Y-74043770D01*
X83967412Y-74018735D01*
X83699926Y-73980972D01*
X83638037Y-73971260D01*
X83638039Y-73971260D01*
X83625909Y-73970055D01*
X83614697Y-73968940D01*
X83539822Y-73958369D01*
X83450172Y-73945713D01*
X83450167Y-73945712D01*
X83450163Y-73945712D01*
X83339308Y-73936361D01*
X82992797Y-73907133D01*
X82933898Y-73901280D01*
X82933900Y-73901280D01*
X82929164Y-73901078D01*
X82912742Y-73900381D01*
X82787404Y-73889809D01*
X82751185Y-73886754D01*
X82751184Y-73886754D01*
X82282169Y-73873594D01*
X82226932Y-73871248D01*
X82226929Y-73871248D01*
X82226922Y-73871248D01*
X82226921Y-73871248D01*
X82220402Y-73871340D01*
X82208039Y-73871515D01*
X82050000Y-73867081D01*
X81570262Y-73880540D01*
X81520156Y-73881250D01*
X81519379Y-73881261D01*
X81509619Y-73881952D01*
X81502855Y-73882432D01*
X81348816Y-73886754D01*
X81348815Y-73886754D01*
X80859269Y-73928046D01*
X80813539Y-73931287D01*
X80813540Y-73931287D01*
X80799438Y-73933093D01*
X80722565Y-73939577D01*
X80649837Y-73945712D01*
X80649831Y-73945712D01*
X80649829Y-73945713D01*
X80649830Y-73945713D01*
X80151604Y-74016051D01*
X80111651Y-74021167D01*
X80111653Y-74021167D01*
X80099978Y-74023339D01*
X80013914Y-74035489D01*
X79955264Y-74043770D01*
X79955256Y-74043771D01*
X79955253Y-74043772D01*
X79449296Y-74144413D01*
X79441209Y-74145917D01*
X79415982Y-74150612D01*
X79415975Y-74150613D01*
X79415973Y-74150614D01*
X79406760Y-74152874D01*
X79352450Y-74163676D01*
X79267282Y-74180618D01*
X79229477Y-74190370D01*
X78754691Y-74312841D01*
X78728749Y-74319206D01*
X78728747Y-74319206D01*
X78728746Y-74319207D01*
X78726982Y-74319746D01*
X78721957Y-74321285D01*
X78588059Y-74355825D01*
X78069972Y-74520953D01*
X78058721Y-74524399D01*
X78052150Y-74526412D01*
X78052139Y-74526415D01*
X78052139Y-74526416D01*
X78052134Y-74526417D01*
X78049062Y-74527551D01*
X78046423Y-74528458D01*
X77936528Y-74563486D01*
X77919722Y-74568843D01*
X77749139Y-74633958D01*
X77397275Y-74768271D01*
X77391753Y-74770310D01*
X77388360Y-74771564D01*
X77388355Y-74771566D01*
X77388350Y-74771568D01*
X77388325Y-74771578D01*
X77387548Y-74771915D01*
X77384971Y-74772966D01*
X77264385Y-74818998D01*
X77264383Y-74818999D01*
X76924279Y-74971185D01*
X76624098Y-75105508D01*
X76000902Y-75427459D01*
X76000897Y-75427461D01*
X76000893Y-75427464D01*
X75396716Y-75783859D01*
X75396715Y-75783860D01*
X75396714Y-75783860D01*
X74824885Y-76165945D01*
X74813473Y-76173570D01*
X74252999Y-76595370D01*
X73717057Y-77047932D01*
X73717056Y-77047933D01*
X73717055Y-77047933D01*
X73207333Y-77529833D01*
X72725433Y-78039555D01*
X72725432Y-78039557D01*
X72272873Y-78575496D01*
X72272873Y-78575495D01*
X71851070Y-79135973D01*
X71466402Y-79711669D01*
X71461359Y-79719216D01*
X71311827Y-79972710D01*
X71104959Y-80323402D01*
X70783008Y-80946598D01*
X70496495Y-81586893D01*
X70496494Y-81586894D01*
X70386334Y-81875484D01*
X70246343Y-82242222D01*
X70033326Y-82910556D01*
X69858118Y-83589782D01*
X69721270Y-84277764D01*
X69623212Y-84972337D01*
X69564254Y-85671316D01*
X69544581Y-86372500D01*
X500Y-86372500D01*
X500Y-76320003D01*
X1070008Y-76320003D01*
X1087960Y-76628226D01*
X1087961Y-76628234D01*
X1141570Y-76932268D01*
X1141573Y-76932279D01*
X1230123Y-77228060D01*
X1352408Y-77511549D01*
X1352414Y-77511561D01*
X1506787Y-77778943D01*
X1691154Y-78026592D01*
X1691159Y-78026598D01*
X1796448Y-78138197D01*
X1903034Y-78251171D01*
X1903040Y-78251176D01*
X1903042Y-78251178D01*
X2139546Y-78449629D01*
X2139554Y-78449635D01*
X2397500Y-78619289D01*
X2397504Y-78619291D01*
X2673411Y-78757856D01*
X2963540Y-78863454D01*
X3006754Y-78873696D01*
X3263949Y-78934654D01*
X3263956Y-78934655D01*
X3263965Y-78934657D01*
X3570626Y-78970500D01*
X3570633Y-78970500D01*
X9179367Y-78970500D01*
X9179374Y-78970500D01*
X9486035Y-78934657D01*
X9486044Y-78934654D01*
X9486050Y-78934654D01*
X9666290Y-78891935D01*
X9786460Y-78863454D01*
X10076589Y-78757856D01*
X10352496Y-78619291D01*
X10610451Y-78449631D01*
X10846966Y-78251171D01*
X11058842Y-78026596D01*
X11243213Y-77778942D01*
X11397588Y-77511558D01*
X11519876Y-77228061D01*
X11608426Y-76932283D01*
X11662040Y-76628226D01*
X11679992Y-76320000D01*
X11662040Y-76011774D01*
X11621852Y-75783859D01*
X11608429Y-75707731D01*
X11608427Y-75707725D01*
X11608426Y-75707717D01*
X11519876Y-75411939D01*
X11397588Y-75128442D01*
X11243213Y-74861058D01*
X11215973Y-74824468D01*
X11058845Y-74613407D01*
X11058840Y-74613401D01*
X10884085Y-74428173D01*
X10846966Y-74388829D01*
X10846959Y-74388823D01*
X10846957Y-74388821D01*
X10610453Y-74190370D01*
X10610445Y-74190364D01*
X10352499Y-74020710D01*
X10076596Y-73882147D01*
X10076590Y-73882144D01*
X9786472Y-73776550D01*
X9786463Y-73776547D01*
X9786460Y-73776546D01*
X9786457Y-73776545D01*
X9786450Y-73776543D01*
X9486050Y-73705345D01*
X9486035Y-73705343D01*
X9179374Y-73669500D01*
X9025099Y-73669500D01*
X3725500Y-73669500D01*
X3725000Y-73669500D01*
X3570626Y-73669500D01*
X3302297Y-73700862D01*
X3263964Y-73705343D01*
X3263949Y-73705345D01*
X2963549Y-73776543D01*
X2963527Y-73776550D01*
X2673409Y-73882144D01*
X2673403Y-73882147D01*
X2397500Y-74020710D01*
X2139554Y-74190364D01*
X2139546Y-74190370D01*
X1903042Y-74388821D01*
X1903032Y-74388831D01*
X1691159Y-74613401D01*
X1691154Y-74613407D01*
X1506787Y-74861056D01*
X1352414Y-75128438D01*
X1352408Y-75128450D01*
X1230123Y-75411939D01*
X1141573Y-75707720D01*
X1141570Y-75707731D01*
X1087961Y-76011765D01*
X1087960Y-76011773D01*
X1070008Y-76319996D01*
X1070008Y-76320003D01*
X500Y-76320003D01*
X500Y-50920003D01*
X1070008Y-50920003D01*
X1087960Y-51228226D01*
X1087961Y-51228234D01*
X1141570Y-51532268D01*
X1141573Y-51532279D01*
X1230123Y-51828060D01*
X1352408Y-52111549D01*
X1352414Y-52111561D01*
X1506787Y-52378943D01*
X1691154Y-52626592D01*
X1691159Y-52626598D01*
X1796448Y-52738197D01*
X1903034Y-52851171D01*
X1903040Y-52851176D01*
X1903042Y-52851178D01*
X2139546Y-53049629D01*
X2139554Y-53049635D01*
X2397500Y-53219289D01*
X2397504Y-53219291D01*
X2673411Y-53357856D01*
X2963540Y-53463454D01*
X3006754Y-53473696D01*
X3263949Y-53534654D01*
X3263956Y-53534655D01*
X3263965Y-53534657D01*
X3570626Y-53570500D01*
X3570633Y-53570500D01*
X9179367Y-53570500D01*
X9179374Y-53570500D01*
X9486035Y-53534657D01*
X9486044Y-53534654D01*
X9486050Y-53534654D01*
X9666290Y-53491935D01*
X9786460Y-53463454D01*
X10076589Y-53357856D01*
X10352496Y-53219291D01*
X10610451Y-53049631D01*
X10846966Y-52851171D01*
X11058842Y-52626596D01*
X11243213Y-52378942D01*
X11397588Y-52111558D01*
X11519876Y-51828061D01*
X11608426Y-51532283D01*
X11662040Y-51228226D01*
X11679992Y-50920000D01*
X11662040Y-50611774D01*
X11635264Y-50459919D01*
X11608429Y-50307731D01*
X11608427Y-50307725D01*
X11608426Y-50307717D01*
X11519876Y-50011939D01*
X11397588Y-49728442D01*
X11243213Y-49461058D01*
X11243212Y-49461056D01*
X11058845Y-49213407D01*
X11058840Y-49213401D01*
X10953552Y-49101803D01*
X10846966Y-48988829D01*
X10846959Y-48988823D01*
X10846957Y-48988821D01*
X10610453Y-48790370D01*
X10610445Y-48790364D01*
X10352499Y-48620710D01*
X10076596Y-48482147D01*
X10076590Y-48482144D01*
X9786472Y-48376550D01*
X9786463Y-48376547D01*
X9786460Y-48376546D01*
X9786457Y-48376545D01*
X9786450Y-48376543D01*
X9486050Y-48305345D01*
X9486035Y-48305343D01*
X9179374Y-48269500D01*
X9025099Y-48269500D01*
X3725500Y-48269500D01*
X3725000Y-48269500D01*
X3570626Y-48269500D01*
X3302297Y-48300862D01*
X3263964Y-48305343D01*
X3263949Y-48305345D01*
X2963549Y-48376543D01*
X2963527Y-48376550D01*
X2673409Y-48482144D01*
X2673403Y-48482147D01*
X2397500Y-48620710D01*
X2139554Y-48790364D01*
X2139546Y-48790370D01*
X1903042Y-48988821D01*
X1903032Y-48988831D01*
X1691159Y-49213401D01*
X1691154Y-49213407D01*
X1506787Y-49461056D01*
X1352414Y-49728438D01*
X1352408Y-49728450D01*
X1230123Y-50011939D01*
X1141573Y-50307720D01*
X1141570Y-50307731D01*
X1087961Y-50611765D01*
X1087960Y-50611773D01*
X1070008Y-50919996D01*
X1070008Y-50920003D01*
X500Y-50920003D01*
X500Y-42792324D01*
X36501770Y-42792324D01*
X36531577Y-43215406D01*
X36600874Y-43633863D01*
X36709045Y-44043967D01*
X36709047Y-44043974D01*
X36855150Y-44442156D01*
X36855152Y-44442161D01*
X37018843Y-44785001D01*
X37037900Y-44824914D01*
X37037903Y-44824920D01*
X37255686Y-45188875D01*
X37255690Y-45188881D01*
X37506600Y-45530844D01*
X37788432Y-45847813D01*
X38098707Y-46136998D01*
X38098716Y-46137006D01*
X38434688Y-46395851D01*
X38434695Y-46395856D01*
X38434698Y-46395858D01*
X38793453Y-46622118D01*
X39171819Y-46813789D01*
X39554534Y-46964486D01*
X39566476Y-46969189D01*
X39698644Y-47007385D01*
X39973941Y-47086947D01*
X39973945Y-47086947D01*
X39973945Y-47086948D01*
X40390641Y-47166032D01*
X40390642Y-47166032D01*
X40390647Y-47166033D01*
X40812928Y-47205750D01*
X40812930Y-47205750D01*
X41130981Y-47205750D01*
X41157737Y-47204494D01*
X41448678Y-47190842D01*
X41725865Y-47151591D01*
X41868621Y-47131377D01*
X41868624Y-47131376D01*
X41868633Y-47131375D01*
X42281175Y-47032844D01*
X42468103Y-46969187D01*
X42682666Y-46896119D01*
X42682669Y-46896117D01*
X42682677Y-46896115D01*
X43069611Y-46722390D01*
X43438577Y-46513194D01*
X43786332Y-46270368D01*
X44109821Y-45996044D01*
X44406200Y-45692633D01*
X44672865Y-45362803D01*
X44907473Y-45009450D01*
X45107961Y-44635681D01*
X45272568Y-44244781D01*
X45399848Y-43840184D01*
X45488681Y-43425446D01*
X45538287Y-43004213D01*
X45543256Y-42792324D01*
X118551770Y-42792324D01*
X118581577Y-43215406D01*
X118650874Y-43633863D01*
X118759045Y-44043967D01*
X118759047Y-44043974D01*
X118905150Y-44442156D01*
X118905152Y-44442161D01*
X119068843Y-44785001D01*
X119087900Y-44824914D01*
X119087903Y-44824920D01*
X119305686Y-45188875D01*
X119305690Y-45188881D01*
X119556600Y-45530844D01*
X119838432Y-45847813D01*
X120148707Y-46136998D01*
X120148716Y-46137006D01*
X120484688Y-46395851D01*
X120484695Y-46395856D01*
X120484698Y-46395858D01*
X120843453Y-46622118D01*
X121221819Y-46813789D01*
X121604534Y-46964486D01*
X121616476Y-46969189D01*
X121748644Y-47007385D01*
X122023941Y-47086947D01*
X122023945Y-47086947D01*
X122023945Y-47086948D01*
X122440641Y-47166032D01*
X122440642Y-47166032D01*
X122440647Y-47166033D01*
X122862928Y-47205750D01*
X122862930Y-47205750D01*
X123180981Y-47205750D01*
X123207737Y-47204494D01*
X123498678Y-47190842D01*
X123775865Y-47151591D01*
X123918621Y-47131377D01*
X123918624Y-47131376D01*
X123918633Y-47131375D01*
X124331175Y-47032844D01*
X124518103Y-46969187D01*
X124732666Y-46896119D01*
X124732669Y-46896117D01*
X124732677Y-46896115D01*
X125119611Y-46722390D01*
X125488577Y-46513194D01*
X125836332Y-46270368D01*
X126159821Y-45996044D01*
X126456200Y-45692633D01*
X126722865Y-45362803D01*
X126957473Y-45009450D01*
X127157961Y-44635681D01*
X127322568Y-44244781D01*
X127449848Y-43840184D01*
X127538681Y-43425446D01*
X127588287Y-43004213D01*
X127598230Y-42580185D01*
X127568422Y-42157089D01*
X127499127Y-41738643D01*
X127390952Y-41328525D01*
X127244848Y-40930339D01*
X127062099Y-40547584D01*
X126951678Y-40363050D01*
X126844313Y-40183624D01*
X126844309Y-40183618D01*
X126593399Y-39841655D01*
X126449550Y-39679872D01*
X126311568Y-39524687D01*
X126001293Y-39235502D01*
X126001291Y-39235500D01*
X126001283Y-39235493D01*
X125665311Y-38976648D01*
X125665304Y-38976643D01*
X125306542Y-38750379D01*
X125108602Y-38650108D01*
X124928181Y-38558711D01*
X124777482Y-38499371D01*
X124533523Y-38403310D01*
X124232032Y-38316179D01*
X124126059Y-38285553D01*
X124126054Y-38285552D01*
X124126054Y-38285551D01*
X123709358Y-38206467D01*
X123407723Y-38178097D01*
X123287072Y-38166750D01*
X122969022Y-38166750D01*
X122969019Y-38166750D01*
X122897413Y-38170110D01*
X122651322Y-38181658D01*
X122651316Y-38181658D01*
X122651311Y-38181659D01*
X122231378Y-38241122D01*
X121818815Y-38339658D01*
X121818807Y-38339661D01*
X121417333Y-38476380D01*
X121417316Y-38476387D01*
X121030391Y-38650108D01*
X121030387Y-38650110D01*
X120661423Y-38859305D01*
X120661415Y-38859310D01*
X120313671Y-39102128D01*
X119990174Y-39376460D01*
X119693798Y-39679868D01*
X119693794Y-39679872D01*
X119427145Y-40009684D01*
X119427128Y-40009706D01*
X119192527Y-40363048D01*
X118992035Y-40736825D01*
X118992035Y-40736826D01*
X118827431Y-41127720D01*
X118827429Y-41127726D01*
X118700152Y-41532312D01*
X118611318Y-41947056D01*
X118561712Y-42368287D01*
X118561712Y-42368289D01*
X118551770Y-42792315D01*
X118551770Y-42792324D01*
X45543256Y-42792324D01*
X45548230Y-42580185D01*
X45518422Y-42157089D01*
X45449127Y-41738643D01*
X45340952Y-41328525D01*
X45194848Y-40930339D01*
X45012099Y-40547584D01*
X44901678Y-40363050D01*
X44794313Y-40183624D01*
X44794309Y-40183618D01*
X44543399Y-39841655D01*
X44399550Y-39679872D01*
X44261568Y-39524687D01*
X43951293Y-39235502D01*
X43951291Y-39235500D01*
X43951283Y-39235493D01*
X43615311Y-38976648D01*
X43615304Y-38976643D01*
X43256542Y-38750379D01*
X43058602Y-38650108D01*
X42878181Y-38558711D01*
X42727482Y-38499371D01*
X42483523Y-38403310D01*
X42182032Y-38316179D01*
X42076059Y-38285553D01*
X42076054Y-38285552D01*
X42076054Y-38285551D01*
X41659358Y-38206467D01*
X41357723Y-38178097D01*
X41237072Y-38166750D01*
X40919022Y-38166750D01*
X40919019Y-38166750D01*
X40847413Y-38170110D01*
X40601322Y-38181658D01*
X40601316Y-38181658D01*
X40601311Y-38181659D01*
X40181378Y-38241122D01*
X39768815Y-38339658D01*
X39768807Y-38339661D01*
X39367333Y-38476380D01*
X39367316Y-38476387D01*
X38980391Y-38650108D01*
X38980387Y-38650110D01*
X38611423Y-38859305D01*
X38611415Y-38859310D01*
X38263671Y-39102128D01*
X37940174Y-39376460D01*
X37643798Y-39679868D01*
X37643794Y-39679872D01*
X37377145Y-40009684D01*
X37377128Y-40009706D01*
X37142527Y-40363048D01*
X36942035Y-40736825D01*
X36942035Y-40736826D01*
X36777431Y-41127720D01*
X36777429Y-41127726D01*
X36650152Y-41532312D01*
X36561318Y-41947056D01*
X36511712Y-42368287D01*
X36511712Y-42368289D01*
X36501770Y-42792315D01*
X36501770Y-42792324D01*
X500Y-42792324D01*
X500Y-25520003D01*
X1070008Y-25520003D01*
X1087960Y-25828226D01*
X1087961Y-25828234D01*
X1141570Y-26132268D01*
X1141573Y-26132279D01*
X1230123Y-26428060D01*
X1352408Y-26711549D01*
X1352414Y-26711561D01*
X1506787Y-26978943D01*
X1691154Y-27226592D01*
X1691159Y-27226598D01*
X1796448Y-27338197D01*
X1903034Y-27451171D01*
X1903040Y-27451176D01*
X1903042Y-27451178D01*
X2139546Y-27649629D01*
X2139554Y-27649635D01*
X2397500Y-27819289D01*
X2397504Y-27819291D01*
X2673411Y-27957856D01*
X2963540Y-28063454D01*
X3006754Y-28073696D01*
X3263949Y-28134654D01*
X3263956Y-28134655D01*
X3263965Y-28134657D01*
X3570626Y-28170500D01*
X3570633Y-28170500D01*
X9179367Y-28170500D01*
X9179374Y-28170500D01*
X9486035Y-28134657D01*
X9486044Y-28134654D01*
X9486050Y-28134654D01*
X9666290Y-28091935D01*
X9786460Y-28063454D01*
X10076589Y-27957856D01*
X10352496Y-27819291D01*
X10610451Y-27649631D01*
X10846966Y-27451171D01*
X11058842Y-27226596D01*
X11243213Y-26978942D01*
X11397588Y-26711558D01*
X11519876Y-26428061D01*
X11608426Y-26132283D01*
X11662040Y-25828226D01*
X11679992Y-25520000D01*
X11662040Y-25211774D01*
X11635264Y-25059919D01*
X11608429Y-24907731D01*
X11608427Y-24907725D01*
X11608426Y-24907717D01*
X11519876Y-24611939D01*
X11397588Y-24328442D01*
X11243213Y-24061058D01*
X11243212Y-24061056D01*
X11058845Y-23813407D01*
X11058840Y-23813401D01*
X10953552Y-23701803D01*
X10846966Y-23588829D01*
X10846959Y-23588823D01*
X10846957Y-23588821D01*
X10610453Y-23390370D01*
X10610445Y-23390364D01*
X10352499Y-23220710D01*
X10076596Y-23082147D01*
X10076590Y-23082144D01*
X9786472Y-22976550D01*
X9786463Y-22976547D01*
X9786460Y-22976546D01*
X9786457Y-22976545D01*
X9786450Y-22976543D01*
X9486050Y-22905345D01*
X9486035Y-22905343D01*
X9179374Y-22869500D01*
X9025099Y-22869500D01*
X3725500Y-22869500D01*
X3725000Y-22869500D01*
X3570626Y-22869500D01*
X3302297Y-22900862D01*
X3263964Y-22905343D01*
X3263949Y-22905345D01*
X2963549Y-22976543D01*
X2963527Y-22976550D01*
X2673409Y-23082144D01*
X2673403Y-23082147D01*
X2397500Y-23220710D01*
X2139554Y-23390364D01*
X2139546Y-23390370D01*
X1903042Y-23588821D01*
X1903032Y-23588831D01*
X1691159Y-23813401D01*
X1691154Y-23813407D01*
X1506787Y-24061056D01*
X1352414Y-24328438D01*
X1352408Y-24328450D01*
X1230123Y-24611939D01*
X1141573Y-24907720D01*
X1141570Y-24907731D01*
X1087961Y-25211765D01*
X1087960Y-25211773D01*
X1070008Y-25519996D01*
X1070008Y-25520003D01*
X500Y-25520003D01*
X500Y-8687503D01*
X1070008Y-8687503D01*
X1087960Y-8995726D01*
X1087961Y-8995734D01*
X1141570Y-9299768D01*
X1141573Y-9299779D01*
X1230123Y-9595560D01*
X1352408Y-9879049D01*
X1352414Y-9879061D01*
X1506787Y-10146443D01*
X1691154Y-10394092D01*
X1691159Y-10394098D01*
X1796448Y-10505697D01*
X1903034Y-10618671D01*
X1903040Y-10618676D01*
X1903042Y-10618678D01*
X2139546Y-10817129D01*
X2139554Y-10817135D01*
X2397500Y-10986789D01*
X2397504Y-10986791D01*
X2673411Y-11125356D01*
X2963540Y-11230954D01*
X3006754Y-11241196D01*
X3263949Y-11302154D01*
X3263956Y-11302155D01*
X3263965Y-11302157D01*
X3570626Y-11338000D01*
X3570633Y-11338000D01*
X9179367Y-11338000D01*
X9179374Y-11338000D01*
X9486035Y-11302157D01*
X9486044Y-11302154D01*
X9486050Y-11302154D01*
X9666290Y-11259435D01*
X9786460Y-11230954D01*
X10076589Y-11125356D01*
X10352496Y-10986791D01*
X10610451Y-10817131D01*
X10846966Y-10618671D01*
X11058842Y-10394096D01*
X11243213Y-10146442D01*
X11397588Y-9879058D01*
X11519876Y-9595561D01*
X11608426Y-9299783D01*
X11662040Y-8995726D01*
X11679992Y-8687500D01*
X11662040Y-8379274D01*
X11635264Y-8227419D01*
X11608429Y-8075231D01*
X11608427Y-8075225D01*
X11608426Y-8075217D01*
X11519876Y-7779439D01*
X11397588Y-7495942D01*
X11243213Y-7228558D01*
X11243212Y-7228556D01*
X11058845Y-6980907D01*
X11058840Y-6980901D01*
X10953552Y-6869303D01*
X10846966Y-6756329D01*
X10846959Y-6756323D01*
X10846957Y-6756321D01*
X10610453Y-6557870D01*
X10610445Y-6557864D01*
X10352499Y-6388210D01*
X10076596Y-6249647D01*
X10076590Y-6249644D01*
X9786472Y-6144050D01*
X9786463Y-6144047D01*
X9786460Y-6144046D01*
X9786457Y-6144045D01*
X9786450Y-6144043D01*
X9486050Y-6072845D01*
X9486035Y-6072843D01*
X9179374Y-6037000D01*
X9025099Y-6037000D01*
X3725500Y-6037000D01*
X3725000Y-6037000D01*
X3570626Y-6037000D01*
X3302297Y-6068362D01*
X3263964Y-6072843D01*
X3263949Y-6072845D01*
X2963549Y-6144043D01*
X2963527Y-6144050D01*
X2673409Y-6249644D01*
X2673403Y-6249647D01*
X2397500Y-6388210D01*
X2139554Y-6557864D01*
X2139546Y-6557870D01*
X1903042Y-6756321D01*
X1903032Y-6756331D01*
X1691159Y-6980901D01*
X1691154Y-6980907D01*
X1506787Y-7228556D01*
X1352414Y-7495938D01*
X1352408Y-7495950D01*
X1230123Y-7779439D01*
X1141573Y-8075220D01*
X1141570Y-8075231D01*
X1087961Y-8379265D01*
X1087960Y-8379273D01*
X1070008Y-8687496D01*
X1070008Y-8687503D01*
X500Y-8687503D01*
X500Y-2850003D01*
X23295008Y-2850003D01*
X23312960Y-3158226D01*
X23312961Y-3158234D01*
X23366570Y-3462268D01*
X23366573Y-3462279D01*
X23455123Y-3758060D01*
X23577408Y-4041549D01*
X23577414Y-4041561D01*
X23731787Y-4308943D01*
X23916154Y-4556592D01*
X23916159Y-4556598D01*
X24021448Y-4668197D01*
X24128034Y-4781171D01*
X24128040Y-4781176D01*
X24128042Y-4781178D01*
X24364546Y-4979629D01*
X24364554Y-4979635D01*
X24622500Y-5149289D01*
X24622504Y-5149291D01*
X24898411Y-5287856D01*
X25188540Y-5393454D01*
X25231754Y-5403696D01*
X25488949Y-5464654D01*
X25488956Y-5464655D01*
X25488965Y-5464657D01*
X25795626Y-5500500D01*
X25795633Y-5500500D01*
X31404367Y-5500500D01*
X31404374Y-5500500D01*
X31711035Y-5464657D01*
X31711044Y-5464654D01*
X31711050Y-5464654D01*
X31891290Y-5421935D01*
X32011460Y-5393454D01*
X32301589Y-5287856D01*
X32577496Y-5149291D01*
X32748226Y-5037000D01*
X32835445Y-4979635D01*
X32835445Y-4979634D01*
X32835451Y-4979631D01*
X33071966Y-4781171D01*
X33283842Y-4556596D01*
X33468213Y-4308942D01*
X33622588Y-4041558D01*
X33744876Y-3758061D01*
X33833426Y-3462283D01*
X33887040Y-3158226D01*
X33904992Y-2850003D01*
X48695008Y-2850003D01*
X48712960Y-3158226D01*
X48712961Y-3158234D01*
X48766570Y-3462268D01*
X48766573Y-3462279D01*
X48855123Y-3758060D01*
X48977408Y-4041549D01*
X48977414Y-4041561D01*
X49131787Y-4308943D01*
X49316154Y-4556592D01*
X49316159Y-4556598D01*
X49421448Y-4668197D01*
X49528034Y-4781171D01*
X49528040Y-4781176D01*
X49528042Y-4781178D01*
X49764546Y-4979629D01*
X49764554Y-4979635D01*
X50022500Y-5149289D01*
X50022504Y-5149291D01*
X50298411Y-5287856D01*
X50588540Y-5393454D01*
X50631754Y-5403696D01*
X50888949Y-5464654D01*
X50888956Y-5464655D01*
X50888965Y-5464657D01*
X51195626Y-5500500D01*
X51195633Y-5500500D01*
X56804367Y-5500500D01*
X56804374Y-5500500D01*
X57111035Y-5464657D01*
X57111044Y-5464654D01*
X57111050Y-5464654D01*
X57291290Y-5421935D01*
X57411460Y-5393454D01*
X57701589Y-5287856D01*
X57977496Y-5149291D01*
X58148226Y-5037000D01*
X58235445Y-4979635D01*
X58235445Y-4979634D01*
X58235451Y-4979631D01*
X58471966Y-4781171D01*
X58683842Y-4556596D01*
X58868213Y-4308942D01*
X59022588Y-4041558D01*
X59144876Y-3758061D01*
X59233426Y-3462283D01*
X59287040Y-3158226D01*
X59304992Y-2850003D01*
X74095008Y-2850003D01*
X74112960Y-3158226D01*
X74112961Y-3158234D01*
X74166570Y-3462268D01*
X74166573Y-3462279D01*
X74255123Y-3758060D01*
X74377408Y-4041549D01*
X74377414Y-4041561D01*
X74531787Y-4308943D01*
X74716154Y-4556592D01*
X74716159Y-4556598D01*
X74821448Y-4668197D01*
X74928034Y-4781171D01*
X74928040Y-4781176D01*
X74928042Y-4781178D01*
X75164546Y-4979629D01*
X75164554Y-4979635D01*
X75422500Y-5149289D01*
X75422504Y-5149291D01*
X75698411Y-5287856D01*
X75988540Y-5393454D01*
X76031754Y-5403696D01*
X76288949Y-5464654D01*
X76288956Y-5464655D01*
X76288965Y-5464657D01*
X76595626Y-5500500D01*
X76595633Y-5500500D01*
X82204367Y-5500500D01*
X82204374Y-5500500D01*
X82511035Y-5464657D01*
X82511044Y-5464654D01*
X82511050Y-5464654D01*
X82691290Y-5421935D01*
X82811460Y-5393454D01*
X83101589Y-5287856D01*
X83377496Y-5149291D01*
X83548226Y-5037000D01*
X83635445Y-4979635D01*
X83635445Y-4979634D01*
X83635451Y-4979631D01*
X83871966Y-4781171D01*
X84083842Y-4556596D01*
X84268213Y-4308942D01*
X84422588Y-4041558D01*
X84544876Y-3758061D01*
X84633426Y-3462283D01*
X84687040Y-3158226D01*
X84704992Y-2850003D01*
X99495008Y-2850003D01*
X99512960Y-3158226D01*
X99512961Y-3158234D01*
X99566570Y-3462268D01*
X99566573Y-3462279D01*
X99655123Y-3758060D01*
X99777408Y-4041549D01*
X99777414Y-4041561D01*
X99931787Y-4308943D01*
X100116154Y-4556592D01*
X100116159Y-4556598D01*
X100221448Y-4668197D01*
X100328034Y-4781171D01*
X100328040Y-4781176D01*
X100328042Y-4781178D01*
X100564546Y-4979629D01*
X100564554Y-4979635D01*
X100822500Y-5149289D01*
X100822504Y-5149291D01*
X101098411Y-5287856D01*
X101388540Y-5393454D01*
X101431754Y-5403696D01*
X101688949Y-5464654D01*
X101688956Y-5464655D01*
X101688965Y-5464657D01*
X101995626Y-5500500D01*
X101995633Y-5500500D01*
X107604367Y-5500500D01*
X107604374Y-5500500D01*
X107911035Y-5464657D01*
X107911044Y-5464654D01*
X107911050Y-5464654D01*
X108091290Y-5421935D01*
X108211460Y-5393454D01*
X108501589Y-5287856D01*
X108777496Y-5149291D01*
X108948226Y-5037000D01*
X109035445Y-4979635D01*
X109035445Y-4979634D01*
X109035451Y-4979631D01*
X109271966Y-4781171D01*
X109483842Y-4556596D01*
X109668213Y-4308942D01*
X109822588Y-4041558D01*
X109944876Y-3758061D01*
X110033426Y-3462283D01*
X110087040Y-3158226D01*
X110104992Y-2850003D01*
X124895008Y-2850003D01*
X124912960Y-3158226D01*
X124912961Y-3158234D01*
X124966570Y-3462268D01*
X124966573Y-3462279D01*
X125055123Y-3758060D01*
X125177408Y-4041549D01*
X125177414Y-4041561D01*
X125331787Y-4308943D01*
X125516154Y-4556592D01*
X125516159Y-4556598D01*
X125621448Y-4668197D01*
X125728034Y-4781171D01*
X125728040Y-4781176D01*
X125728042Y-4781178D01*
X125964546Y-4979629D01*
X125964554Y-4979635D01*
X126222500Y-5149289D01*
X126222504Y-5149291D01*
X126498411Y-5287856D01*
X126788540Y-5393454D01*
X126831754Y-5403696D01*
X127088949Y-5464654D01*
X127088956Y-5464655D01*
X127088965Y-5464657D01*
X127395626Y-5500500D01*
X127395633Y-5500500D01*
X133004367Y-5500500D01*
X133004374Y-5500500D01*
X133311035Y-5464657D01*
X133311044Y-5464654D01*
X133311050Y-5464654D01*
X133491290Y-5421935D01*
X133611460Y-5393454D01*
X133901589Y-5287856D01*
X134177496Y-5149291D01*
X134348226Y-5037000D01*
X134435445Y-4979635D01*
X134435445Y-4979634D01*
X134435451Y-4979631D01*
X134671966Y-4781171D01*
X134883842Y-4556596D01*
X135068213Y-4308942D01*
X135222588Y-4041558D01*
X135344876Y-3758061D01*
X135433426Y-3462283D01*
X135487040Y-3158226D01*
X135504992Y-2850000D01*
X135487040Y-2541774D01*
X135460264Y-2389919D01*
X135433429Y-2237731D01*
X135433427Y-2237725D01*
X135433426Y-2237717D01*
X135344876Y-1941939D01*
X135222588Y-1658442D01*
X135068213Y-1391058D01*
X135068212Y-1391056D01*
X134883845Y-1143407D01*
X134883840Y-1143401D01*
X134778552Y-1031803D01*
X134671966Y-918829D01*
X134671959Y-918823D01*
X134671957Y-918821D01*
X134435453Y-720370D01*
X134435445Y-720364D01*
X134177499Y-550710D01*
X133901596Y-412147D01*
X133901590Y-412144D01*
X133611472Y-306550D01*
X133611463Y-306547D01*
X133611460Y-306546D01*
X133611457Y-306545D01*
X133611450Y-306543D01*
X133311050Y-235345D01*
X133311035Y-235343D01*
X133004374Y-199500D01*
X132850099Y-199500D01*
X127550500Y-199500D01*
X127550000Y-199500D01*
X127395626Y-199500D01*
X127127297Y-230862D01*
X127088964Y-235343D01*
X127088949Y-235345D01*
X126788549Y-306543D01*
X126788527Y-306550D01*
X126498409Y-412144D01*
X126498403Y-412147D01*
X126222500Y-550710D01*
X125964554Y-720364D01*
X125964546Y-720370D01*
X125728042Y-918821D01*
X125728032Y-918831D01*
X125516159Y-1143401D01*
X125516154Y-1143407D01*
X125331787Y-1391056D01*
X125177414Y-1658438D01*
X125177408Y-1658450D01*
X125055123Y-1941939D01*
X124966573Y-2237720D01*
X124966570Y-2237731D01*
X124912961Y-2541765D01*
X124912960Y-2541773D01*
X124895008Y-2849996D01*
X124895008Y-2850003D01*
X110104992Y-2850003D01*
X110104992Y-2850000D01*
X110087040Y-2541774D01*
X110060264Y-2389919D01*
X110033429Y-2237731D01*
X110033427Y-2237725D01*
X110033426Y-2237717D01*
X109944876Y-1941939D01*
X109822588Y-1658442D01*
X109668213Y-1391058D01*
X109668212Y-1391056D01*
X109483845Y-1143407D01*
X109483840Y-1143401D01*
X109378552Y-1031803D01*
X109271966Y-918829D01*
X109271959Y-918823D01*
X109271957Y-918821D01*
X109035453Y-720370D01*
X109035445Y-720364D01*
X108777499Y-550710D01*
X108501596Y-412147D01*
X108501590Y-412144D01*
X108211472Y-306550D01*
X108211463Y-306547D01*
X108211460Y-306546D01*
X108211457Y-306545D01*
X108211450Y-306543D01*
X107911050Y-235345D01*
X107911035Y-235343D01*
X107604374Y-199500D01*
X107450099Y-199500D01*
X102150500Y-199500D01*
X102150000Y-199500D01*
X101995626Y-199500D01*
X101727297Y-230862D01*
X101688964Y-235343D01*
X101688949Y-235345D01*
X101388549Y-306543D01*
X101388527Y-306550D01*
X101098409Y-412144D01*
X101098403Y-412147D01*
X100822500Y-550710D01*
X100564554Y-720364D01*
X100564546Y-720370D01*
X100328042Y-918821D01*
X100328032Y-918831D01*
X100116159Y-1143401D01*
X100116154Y-1143407D01*
X99931787Y-1391056D01*
X99777414Y-1658438D01*
X99777408Y-1658450D01*
X99655123Y-1941939D01*
X99566573Y-2237720D01*
X99566570Y-2237731D01*
X99512961Y-2541765D01*
X99512960Y-2541773D01*
X99495008Y-2849996D01*
X99495008Y-2850003D01*
X84704992Y-2850003D01*
X84704992Y-2850000D01*
X84687040Y-2541774D01*
X84660264Y-2389919D01*
X84633429Y-2237731D01*
X84633427Y-2237725D01*
X84633426Y-2237717D01*
X84544876Y-1941939D01*
X84422588Y-1658442D01*
X84268213Y-1391058D01*
X84268212Y-1391056D01*
X84083845Y-1143407D01*
X84083840Y-1143401D01*
X83978552Y-1031803D01*
X83871966Y-918829D01*
X83871959Y-918823D01*
X83871957Y-918821D01*
X83635453Y-720370D01*
X83635445Y-720364D01*
X83377499Y-550710D01*
X83101596Y-412147D01*
X83101590Y-412144D01*
X82811472Y-306550D01*
X82811463Y-306547D01*
X82811460Y-306546D01*
X82811457Y-306545D01*
X82811450Y-306543D01*
X82511050Y-235345D01*
X82511035Y-235343D01*
X82204374Y-199500D01*
X82050099Y-199500D01*
X76750500Y-199500D01*
X76750000Y-199500D01*
X76595626Y-199500D01*
X76327297Y-230862D01*
X76288964Y-235343D01*
X76288949Y-235345D01*
X75988549Y-306543D01*
X75988527Y-306550D01*
X75698409Y-412144D01*
X75698403Y-412147D01*
X75422500Y-550710D01*
X75164554Y-720364D01*
X75164546Y-720370D01*
X74928042Y-918821D01*
X74928032Y-918831D01*
X74716159Y-1143401D01*
X74716154Y-1143407D01*
X74531787Y-1391056D01*
X74377414Y-1658438D01*
X74377408Y-1658450D01*
X74255123Y-1941939D01*
X74166573Y-2237720D01*
X74166570Y-2237731D01*
X74112961Y-2541765D01*
X74112960Y-2541773D01*
X74095008Y-2849996D01*
X74095008Y-2850003D01*
X59304992Y-2850003D01*
X59304992Y-2850000D01*
X59287040Y-2541774D01*
X59260264Y-2389919D01*
X59233429Y-2237731D01*
X59233427Y-2237725D01*
X59233426Y-2237717D01*
X59144876Y-1941939D01*
X59022588Y-1658442D01*
X58868213Y-1391058D01*
X58868212Y-1391056D01*
X58683845Y-1143407D01*
X58683840Y-1143401D01*
X58578552Y-1031803D01*
X58471966Y-918829D01*
X58471959Y-918823D01*
X58471957Y-918821D01*
X58235453Y-720370D01*
X58235445Y-720364D01*
X57977499Y-550710D01*
X57701596Y-412147D01*
X57701590Y-412144D01*
X57411472Y-306550D01*
X57411463Y-306547D01*
X57411460Y-306546D01*
X57411457Y-306545D01*
X57411450Y-306543D01*
X57111050Y-235345D01*
X57111035Y-235343D01*
X56804374Y-199500D01*
X56650099Y-199500D01*
X51350500Y-199500D01*
X51350000Y-199500D01*
X51195626Y-199500D01*
X50927297Y-230862D01*
X50888964Y-235343D01*
X50888949Y-235345D01*
X50588549Y-306543D01*
X50588527Y-306550D01*
X50298409Y-412144D01*
X50298403Y-412147D01*
X50022500Y-550710D01*
X49764554Y-720364D01*
X49764546Y-720370D01*
X49528042Y-918821D01*
X49528032Y-918831D01*
X49316159Y-1143401D01*
X49316154Y-1143407D01*
X49131787Y-1391056D01*
X48977414Y-1658438D01*
X48977408Y-1658450D01*
X48855123Y-1941939D01*
X48766573Y-2237720D01*
X48766570Y-2237731D01*
X48712961Y-2541765D01*
X48712960Y-2541773D01*
X48695008Y-2849996D01*
X48695008Y-2850003D01*
X33904992Y-2850003D01*
X33904992Y-2850000D01*
X33887040Y-2541774D01*
X33860264Y-2389919D01*
X33833429Y-2237731D01*
X33833427Y-2237725D01*
X33833426Y-2237717D01*
X33744876Y-1941939D01*
X33622588Y-1658442D01*
X33468213Y-1391058D01*
X33468212Y-1391056D01*
X33283845Y-1143407D01*
X33283840Y-1143401D01*
X33178552Y-1031803D01*
X33071966Y-918829D01*
X33071959Y-918823D01*
X33071957Y-918821D01*
X32835453Y-720370D01*
X32835445Y-720364D01*
X32577499Y-550710D01*
X32301596Y-412147D01*
X32301590Y-412144D01*
X32011472Y-306550D01*
X32011463Y-306547D01*
X32011460Y-306546D01*
X32011457Y-306545D01*
X32011450Y-306543D01*
X31711050Y-235345D01*
X31711035Y-235343D01*
X31404374Y-199500D01*
X31250099Y-199500D01*
X25950500Y-199500D01*
X25950000Y-199500D01*
X25795626Y-199500D01*
X25527297Y-230862D01*
X25488964Y-235343D01*
X25488949Y-235345D01*
X25188549Y-306543D01*
X25188527Y-306550D01*
X24898409Y-412144D01*
X24898403Y-412147D01*
X24622500Y-550710D01*
X24364554Y-720364D01*
X24364546Y-720370D01*
X24128042Y-918821D01*
X24128032Y-918831D01*
X23916159Y-1143401D01*
X23916154Y-1143407D01*
X23731787Y-1391056D01*
X23577414Y-1658438D01*
X23577408Y-1658450D01*
X23455123Y-1941939D01*
X23366573Y-2237720D01*
X23366570Y-2237731D01*
X23312961Y-2541765D01*
X23312960Y-2541773D01*
X23295008Y-2849996D01*
X23295008Y-2850003D01*
X500Y-2850003D01*
X500Y-2706D01*
X736Y2700D01*
X4476Y45445D01*
X16918Y171771D01*
X20541Y191685D01*
X38401Y258343D01*
X66682Y351570D01*
X72958Y367971D01*
X73367Y368848D01*
X104406Y435411D01*
X105888Y438375D01*
X125982Y475969D01*
X150762Y522327D01*
X154657Y528667D01*
X200983Y594828D01*
X203844Y598600D01*
X263103Y670808D01*
X267182Y675309D01*
X324688Y732815D01*
X329190Y736895D01*
X401398Y796154D01*
X405170Y799015D01*
X471331Y845341D01*
X477671Y849236D01*
X561605Y894101D01*
X564618Y895607D01*
X583433Y904381D01*
X632027Y927040D01*
X648435Y933319D01*
X741669Y961601D01*
X808299Y979454D01*
X828238Y983082D01*
X954554Y995523D01*
X995015Y999063D01*
X997303Y999264D01*
X1002710Y999500D01*
X163097290Y999500D01*
X163102696Y999264D01*
G37*
%TD.AperFunction*%
M02*
